<svg width="37" height="38" viewBox="0 0 37 38" fill="none" xmlns="http://www.w3.org/2000/svg">
<g clip-path="url(#clip0)">
<rect y="0.483276" width="37" height="37" rx="1" fill="#20A2A5"/>
<path d="M34.9576 0.483276H2.04066C0.913483 0.483841 -0.000282222 1.39817 6.53873e-08 2.52563V35.4426C0.000564641 36.5698 0.914894 37.4836 2.04235 37.4833H34.9576C36.0854 37.4836 36.9997 36.5695 37 35.4418V35.4409V2.52393C36.9994 1.39676 36.0851 0.482994 34.9576 0.483276Z" fill="#20A2A5"/>
<path d="M26.0034 37.7195V23.4109H30.8272L31.5498 17.8103H26.0034V14.2433C26.0034 12.6255 26.4525 11.5232 28.7724 11.5232H31.7124V6.52756C31.2009 6.45953 29.4459 6.30737 27.4038 6.30737C23.1402 6.30737 20.2222 8.90894 20.2222 13.6886V17.8103H15.4165V23.4109H20.2222V37.7195H26.0034Z" fill="white"/>
</g>
<defs>
<clipPath id="clip0">
<rect y="0.483276" width="37" height="37" rx="1" fill="white"/>
</clipPath>
</defs>
</svg>
