<svg width="41" height="41" viewBox="0 0 41 41" fill="none" xmlns="http://www.w3.org/2000/svg">
<path d="M29.5847 2.48328H11.1949C6.11671 2.48328 2 6.59339 2 11.6635V30.0238C2 35.0939 6.11671 39.204 11.1949 39.204H29.5847C34.6629 39.204 38.7797 35.0939 38.7797 30.0238V11.6635C38.7797 6.59339 34.6629 2.48328 29.5847 2.48328Z" stroke="#20A2A5" stroke-width="3" stroke-linecap="round" stroke-linejoin="round"/>
<path d="M27.746 19.6872C27.973 21.2152 27.7117 22.7758 26.9991 24.147C26.2864 25.5181 25.1588 26.63 23.7768 27.3244C22.3948 28.019 20.8285 28.2608 19.3011 28.0153C17.7735 27.7698 16.3623 27.0497 15.2683 25.9575C14.1742 24.8652 13.453 23.4563 13.2072 21.9312C12.9614 20.406 13.2035 18.8425 13.8991 17.4625C14.5947 16.0828 15.7084 14.9571 17.0818 14.2456C18.4552 13.5341 20.0181 13.2731 21.5487 13.4997C23.1098 13.7309 24.5551 14.4572 25.6711 15.5713C26.787 16.6855 27.5145 18.1284 27.746 19.6872Z" stroke="#20A2A5" stroke-width="3" stroke-linecap="round" stroke-linejoin="round"/>
<path d="M30.5042 10.7455H30.5228" stroke="#20A2A5" stroke-width="3" stroke-linecap="round" stroke-linejoin="round"/>
</svg>
