<svg width="37" height="38" viewBox="0 0 37 38" fill="none" xmlns="http://www.w3.org/2000/svg">
<g clip-path="url(#clip0)">
<path d="M33.653 0.483276H3.34695C1.4985 0.483276 0 1.98178 0 3.83023V34.1362C0 35.9848 1.4985 37.4833 3.34695 37.4833H33.653C35.5015 37.4833 37 35.9848 37 34.1362V3.83023C37 1.98178 35.5015 0.483276 33.653 0.483276ZM11.4494 32.4315C11.4494 32.9695 11.0133 33.4055 10.4754 33.4055H6.32923C5.79128 33.4055 5.35522 32.9695 5.35522 32.4315V15.0511C5.35522 14.5132 5.79128 14.0771 6.32923 14.0771H10.4754C11.0133 14.0771 11.4494 14.5132 11.4494 15.0511V32.4315ZM8.40229 12.4387C6.22694 12.4387 4.46344 10.6752 4.46344 8.49988C4.46344 6.32453 6.22694 4.56102 8.40229 4.56102C10.5776 4.56102 12.3411 6.32453 12.3411 8.49988C12.3411 10.6752 10.5777 12.4387 8.40229 12.4387ZM33.1169 32.51C33.1169 33.0045 32.7159 33.4055 32.2214 33.4055H27.7723C27.2777 33.4055 26.8767 33.0045 26.8767 32.51V24.3576C26.8767 23.1414 27.2335 19.0283 23.6985 19.0283C20.9565 19.0283 20.4004 21.8436 20.2887 23.107V32.51C20.2887 33.0045 19.8878 33.4055 19.3931 33.4055H15.0901C14.5955 33.4055 14.1945 33.0045 14.1945 32.51V14.9727C14.1945 14.4781 14.5955 14.0771 15.0901 14.0771H19.3931C19.8877 14.0771 20.2887 14.4781 20.2887 14.9727V16.489C21.3054 14.9632 22.8164 13.7855 26.0336 13.7855C33.1577 13.7855 33.1169 20.4412 33.1169 24.0982V32.51Z" fill="#20A2A5"/>
</g>
<defs>
<clipPath id="clip0">
<rect width="37" height="37" fill="white" transform="translate(0 0.483276)"/>
</clipPath>
</defs>
</svg>
