<svg width="751" height="738" viewBox="0 0 751 738" fill="none" xmlns="http://www.w3.org/2000/svg">
<path d="M111.312 736.165C132.974 738.73 155.401 734.82 176.368 723.191C219.46 699.784 232.247 645.084 274.628 620.749C305.122 603.301 335.503 607.294 365.641 628.406C440.539 682.265 498.064 680.209 542.585 652.027C557.322 642.222 571.674 619.458 577.572 597.272C584.945 569.541 600.967 563.906 624.823 555.221C674.092 537.395 725.319 518.806 744.246 463.825C759.559 418.237 738.691 382.666 711.646 341.516C685.668 301.758 684.338 259.334 692.483 218.495C700.136 179.505 718.738 136.554 712.07 93.7979C701.025 27.8852 624.818 -10.2466 570.393 4.16293C493.405 24.7955 456.467 73.6803 405.239 131.293C385.148 154.032 362.789 176.297 334.48 189.127C307.328 201.808 274.671 203.975 253.114 225.627C229.908 249.277 236.53 292.804 220.212 322.964C204.787 350.967 173.99 360.547 146.528 371.992C88.8887 395.488 33.6451 462.8 12.4418 523.941C-2.24321 565.368 -3.99135 614.564 17.0876 659.545C37.0097 704.674 72.9241 731.674 111.312 736.165Z" stroke="#0D8284" stroke-width="2.00917" stroke-miterlimit="10" stroke-linejoin="round" stroke-dasharray="3.52 3.52"/>
</svg>
