<svg width="1336" height="1124" viewBox="0 0 1336 1124" fill="none" xmlns="http://www.w3.org/2000/svg">
<path d="M1085.51 808.294C1107.17 810.859 1129.6 806.949 1150.56 795.32C1193.65 771.914 1206.44 717.214 1248.82 692.878C1279.32 675.431 1309.7 679.423 1339.84 700.536C1414.73 754.395 1472.26 752.339 1516.78 724.157C1531.52 714.351 1545.87 691.587 1551.77 669.402C1559.14 641.671 1575.16 636.035 1599.02 627.35C1648.29 609.524 1699.51 590.936 1718.44 535.955C1733.75 490.366 1712.89 454.796 1685.84 413.645C1659.86 373.888 1658.53 331.464 1666.68 290.625C1674.33 251.635 1692.93 208.684 1686.27 165.928C1675.22 100.015 1599.01 61.883 1544.59 76.2926C1467.6 96.9251 1430.66 145.81 1379.43 203.423C1359.34 226.161 1336.98 248.427 1308.68 261.257C1281.52 273.937 1248.87 276.105 1227.31 297.757C1204.1 321.407 1210.73 364.934 1194.41 395.093C1178.98 423.097 1148.19 432.677 1120.72 444.122C1063.08 467.618 1007.84 534.93 986.637 596.071C971.952 637.497 970.204 686.694 991.283 731.674C1011.21 776.803 1047.12 803.803 1085.51 808.294Z" stroke="#0D8284" stroke-width="2.00917" stroke-miterlimit="10" stroke-linejoin="round" stroke-dasharray="3.52 3.52"/>
<path d="M1160.18 833.618L1155.56 827.582" stroke="#0D8284" stroke-width="2.00917" stroke-miterlimit="10" stroke-linejoin="round"/>
<path d="M1155.64 832.672L1160.85 828.685" stroke="#0D8284" stroke-width="2.00917" stroke-miterlimit="10" stroke-linejoin="round"/>
<path d="M913.224 601.45L908.604 595.413" stroke="#0D8284" stroke-width="2.00917" stroke-miterlimit="10" stroke-linejoin="round"/>
<path d="M908.333 600.04L913.543 596.053" stroke="#0D8284" stroke-width="2.00917" stroke-miterlimit="10" stroke-linejoin="round"/>
<path d="M1101.83 543.992L1096.86 537.491" stroke="#0D8284" stroke-width="2.00917" stroke-miterlimit="10" stroke-linejoin="round"/>
<path d="M1096.94 542.583L1102.15 538.595" stroke="#0D8284" stroke-width="2.00917" stroke-miterlimit="10" stroke-linejoin="round"/>
<path d="M1243.16 821.65C1242.09 820.257 1242.23 817.944 1243.43 817.024C1245.03 815.797 1246.9 816.577 1247.97 817.97C1249.39 819.827 1248.9 821.676 1247.69 822.596C1246.85 823.98 1244.58 823.507 1243.16 821.65Z" stroke="#0D8284" stroke-width="2.00917" stroke-miterlimit="10" stroke-linejoin="round"/>
<path d="M1061.52 773.638C1060.46 772.245 1060.59 769.932 1061.79 769.011C1063 768.091 1065.27 768.564 1066.33 769.957C1067.4 771.35 1067.26 773.663 1066.06 774.583C1065.21 775.968 1062.94 775.495 1061.52 773.638Z" stroke="#0D8284" stroke-width="2.00917" stroke-miterlimit="10" stroke-linejoin="round"/>
<path d="M1265.63 738.92L1236.78 761.002" stroke="#0D8284" stroke-width="2.00917" stroke-miterlimit="10" stroke-linejoin="round"/>
<path d="M1227.96 767.751L1215.53 777.259" stroke="#0D8284" stroke-width="2.00917" stroke-miterlimit="10" stroke-linejoin="round"/>
<path d="M1317.27 752.417L1296.03 768.672" stroke="#0D8284" stroke-width="2.00917" stroke-miterlimit="10" stroke-linejoin="round"/>
<path d="M1041.84 711.387L1020.6 727.642" stroke="#0D8284" stroke-width="2.00917" stroke-miterlimit="10" stroke-linejoin="round"/>
<path d="M1033.37 731.863L1019.74 742.291" stroke="#0D8284" stroke-width="2.00917" stroke-miterlimit="10" stroke-linejoin="round"/>
<path d="M-404.493 808.294C-382.83 810.859 -360.404 806.949 -339.437 795.32C-296.345 771.914 -283.558 717.214 -241.177 692.878C-210.682 675.431 -180.302 679.423 -150.164 700.536C-75.2652 754.395 -17.7402 752.339 26.7805 724.157C41.5174 714.351 55.8692 691.587 61.7675 669.402C69.1405 641.671 85.1627 636.035 109.018 627.35C158.287 609.524 209.514 590.936 228.441 535.955C243.754 490.366 222.887 454.796 195.842 413.645C169.863 373.888 168.534 331.464 176.678 290.625C184.331 251.635 202.933 208.684 196.265 165.927C185.221 100.015 109.013 61.883 54.5881 76.2925C-22.3998 96.9251 -59.3374 145.81 -110.566 203.423C-130.656 226.161 -153.015 248.427 -181.325 261.257C-208.477 273.937 -241.133 276.105 -262.691 297.757C-285.897 321.407 -279.274 364.934 -295.592 395.093C-311.018 423.097 -341.815 432.676 -369.277 444.122C-426.916 467.618 -482.16 534.93 -503.363 596.071C-518.048 637.497 -519.796 686.694 -498.717 731.674C-478.795 776.803 -442.881 803.803 -404.493 808.294Z" stroke="#0D8284" stroke-width="2.00917" stroke-miterlimit="10" stroke-linejoin="round" stroke-dasharray="3.52 3.52"/>
<path d="M109.318 563.802L104.699 557.766" stroke="#0D8284" stroke-width="2.00917" stroke-miterlimit="10" stroke-linejoin="round"/>
<path d="M104.378 563.163L109.588 559.176" stroke="#0D8284" stroke-width="2.00917" stroke-miterlimit="10" stroke-linejoin="round"/>
<path d="M262.22 527.778L257.6 521.742" stroke="#0D8284" stroke-width="2.00917" stroke-miterlimit="10" stroke-linejoin="round"/>
<path d="M257.328 526.366L262.538 522.379" stroke="#0D8284" stroke-width="2.00917" stroke-miterlimit="10" stroke-linejoin="round"/>
<path d="M279.853 247.741L275.233 241.705" stroke="#0D8284" stroke-width="2.00917" stroke-miterlimit="10" stroke-linejoin="round"/>
<path d="M274.958 246.334L280.168 242.346" stroke="#0D8284" stroke-width="2.00917" stroke-miterlimit="10" stroke-linejoin="round"/>
<path d="M78.6484 44.6277L74.0288 38.5913" stroke="#0D8284" stroke-width="2.00917" stroke-miterlimit="10" stroke-linejoin="round"/>
<path d="M73.7118 43.9876L79.3223 39.6938" stroke="#0D8284" stroke-width="2.00917" stroke-miterlimit="10" stroke-linejoin="round"/>
<path d="M53.5215 686.022L48.9018 679.986" stroke="#0D8284" stroke-width="2.00917" stroke-miterlimit="10" stroke-linejoin="round"/>
<path d="M48.2278 684.918L53.4375 680.931" stroke="#0D8284" stroke-width="2.00917" stroke-miterlimit="10" stroke-linejoin="round"/>
<path d="M193.634 665.676C192.568 664.283 192.705 661.97 193.907 661.049C195.51 659.823 197.377 660.602 198.444 661.995C199.51 663.388 199.373 665.701 198.171 666.621C197.324 668.006 195.056 667.533 193.634 665.676Z" stroke="#0D8284" stroke-width="2.00917" stroke-miterlimit="10" stroke-linejoin="round"/>
<path d="M234.275 417.367C233.209 415.974 233.345 413.661 234.547 412.741C235.75 411.821 238.018 412.293 239.084 413.686C240.15 415.08 240.014 417.393 238.812 418.313C237.965 419.697 235.697 419.224 234.275 417.367Z" stroke="#0D8284" stroke-width="2.00917" stroke-miterlimit="10" stroke-linejoin="round"/>
<path d="M228.051 146.019C226.985 144.626 227.121 142.313 228.323 141.393C229.526 140.473 231.794 140.946 232.86 142.339C233.926 143.732 233.79 146.045 232.588 146.965C231.385 147.885 229.117 147.412 228.051 146.019Z" stroke="#0D8284" stroke-width="2.00917" stroke-miterlimit="10" stroke-linejoin="round"/>
<path d="M77.2341 341.7C76.1681 340.307 76.3042 337.994 77.5065 337.074C78.7087 336.154 80.977 336.627 82.0431 338.02C83.1092 339.413 82.973 341.726 81.7708 342.646C80.9239 344.03 78.6556 343.557 77.2341 341.7Z" stroke="#0D8284" stroke-width="2.00917" stroke-miterlimit="10" stroke-linejoin="round"/>
<path d="M306.433 342.264L277.979 364.039" stroke="#0D8284" stroke-width="2.00917" stroke-miterlimit="10" stroke-linejoin="round"/>
<path d="M269.164 370.786L256.34 380.601" stroke="#0D8284" stroke-width="2.00917" stroke-miterlimit="10" stroke-linejoin="round"/>
<path d="M208.143 620.702L227.379 605.981" stroke="#0D8284" stroke-width="2.00917" stroke-miterlimit="10" stroke-linejoin="round"/>
<path d="M233.793 601.072L244.213 593.098" stroke="#0D8284" stroke-width="2.00917" stroke-miterlimit="10" stroke-linejoin="round"/>
<path d="M17 897.568C17 855.304 54.7926 823.024 96.5298 829.676L305.476 862.981C398.348 877.784 430.462 995.141 358.067 1055.17C336.133 1073.35 309.521 1085 281.278 1088.76L241.349 1094.09C122.556 1109.93 17 1017.41 17 897.568Z" fill="#0A686A"/>
<rect x="1135.21" y="974" width="4.65526" height="4.65526" transform="rotate(45 1135.21 974)" fill="#0A686A"/>
<rect x="1159.56" y="974" width="4.65526" height="4.65526" transform="rotate(45 1159.56 974)" fill="#0A686A"/>
<rect x="1135.21" y="996.202" width="4.65526" height="4.65526" transform="rotate(45 1135.21 996.202)" fill="#0A686A"/>
<rect x="1159.56" y="996.202" width="4.65526" height="4.65526" transform="rotate(45 1159.56 996.202)" fill="#0A686A"/>
<rect x="1147.39" y="974" width="4.65526" height="4.65526" transform="rotate(45 1147.39 974)" fill="#0A686A"/>
<rect x="1171.74" y="974" width="4.65526" height="4.65526" transform="rotate(45 1171.74 974)" fill="#0A686A"/>
<rect x="1147.39" y="996.202" width="4.65526" height="4.65526" transform="rotate(45 1147.39 996.202)" fill="#0A686A"/>
<rect x="1171.74" y="996.202" width="4.65526" height="4.65526" transform="rotate(45 1171.74 996.202)" fill="#0A686A"/>
<rect x="1135.21" y="985.101" width="4.65526" height="4.65526" transform="rotate(45 1135.21 985.101)" fill="#0A686A"/>
<rect x="1159.56" y="985.101" width="4.65526" height="4.65526" transform="rotate(45 1159.56 985.101)" fill="#0A686A"/>
<rect x="1135.21" y="1007.3" width="4.65526" height="4.65526" transform="rotate(45 1135.21 1007.3)" fill="#0A686A"/>
<rect x="1159.56" y="1007.3" width="4.65526" height="4.65526" transform="rotate(45 1159.56 1007.3)" fill="#0A686A"/>
<rect x="1147.39" y="985.101" width="4.65526" height="4.65526" transform="rotate(45 1147.39 985.101)" fill="#0A686A"/>
<rect x="1171.74" y="985.101" width="4.65526" height="4.65526" transform="rotate(45 1171.74 985.101)" fill="#0A686A"/>
<rect x="1147.39" y="1007.3" width="4.65526" height="4.65526" transform="rotate(45 1147.39 1007.3)" fill="#0A686A"/>
<rect x="1171.74" y="1007.3" width="4.65526" height="4.65526" transform="rotate(45 1171.74 1007.3)" fill="#0A686A"/>
</svg>
