<svg width="476" height="401" viewBox="0 0 476 401" fill="none" xmlns="http://www.w3.org/2000/svg">
<path d="M256.242 334.218C256.242 334.218 254.518 341.856 256.385 350.547C258.229 359.239 260.983 364.866 260.983 364.866L247.071 373.796C247.071 373.796 235.363 357.539 239.338 339.749C239.338 339.749 249.178 334.84 256.242 334.218Z" fill="url(#paint0_linear)"/>
<path d="M248.627 348.8C247.239 348.919 246.281 351.218 246.52 353.947C246.76 356.677 248.053 358.808 249.465 358.688C250.854 358.569 251.812 356.27 251.572 353.54C251.333 350.811 250.04 348.704 248.627 348.8Z" fill="url(#paint1_linear)"/>
<path d="M258.133 361.513C257.319 359.191 256.146 355.503 255.188 351.026C254.278 346.74 254.183 342.646 254.278 339.844C252.77 339.246 251.98 338.001 251.668 336.612C248.532 337.33 245.419 338.623 243.312 339.605C242.929 341.712 241.66 342.813 240.295 343.388C238.26 358.281 247.646 371.33 247.646 371.33L256.816 365.679C256.529 363.956 257.152 362.567 258.133 361.513ZM249.705 361.513C247.071 361.729 244.653 358.425 244.294 354.139C243.935 349.853 245.778 346.189 248.412 345.974C251.046 345.758 253.464 349.063 253.823 353.349C254.183 357.658 252.339 361.298 249.705 361.513Z" fill="url(#paint2_linear)"/>
<path d="M307.131 310.946C307.131 310.946 333.209 307.205 367.035 283.517L358.315 310.489C358.315 310.489 319.568 332.715 296.634 333.006L307.131 310.946Z" fill="url(#paint3_linear)"/>
<path d="M329.014 310.508C324.467 312.683 321.69 315.422 322.77 316.697C323.872 317.942 328.419 317.199 332.975 315.077C337.522 312.903 340.299 310.164 339.219 308.888C338.117 307.643 333.54 308.365 329.014 310.508Z" fill="url(#paint4_linear)"/>
<path d="M358.474 291.016C337.611 304.974 320.525 309.974 313.446 311.551C312.093 313.131 310.445 314.085 308.84 314.654L303.098 327.158C304.39 327.615 305.626 328.215 306.574 329.027C322.081 326.185 342.215 316.051 350.783 311.467C352.087 309.437 353.828 307.441 356.03 305.771L360.46 292.057C359.684 291.784 359.027 291.409 358.474 291.016ZM343.893 306.665C345.944 309.046 341.845 313.71 334.723 317.104C327.6 320.497 320.147 321.3 318.096 318.92C316.046 316.539 320.144 311.875 327.267 308.481C334.368 305.118 341.812 304.263 343.893 306.665Z" fill="url(#paint5_linear)"/>
<path d="M233.252 62.3741C233.252 62.3741 247.353 77.2059 277.572 87.9715L256.568 94.5829C256.568 94.5829 225.061 80.0436 214.559 65.6505L233.252 62.3741Z" fill="url(#paint6_linear)"/>
<path d="M243.374 76.0358C239.951 74.1343 236.967 73.6077 236.646 74.8657C236.353 76.1236 238.869 78.6687 242.262 80.5995C245.685 82.501 248.669 83.0276 248.991 81.7697C249.283 80.5117 246.768 77.9374 243.374 76.0358Z" fill="url(#paint7_linear)"/>
<path d="M268.972 85.9237C250.746 78.9905 239.893 70.419 235.709 66.6452C234.1 66.4989 232.755 65.8846 231.672 65.1239L221.17 67.1132C221.463 68.1371 221.638 69.1903 221.55 70.1557C230.327 78.6979 245.802 86.8891 252.56 90.2533C254.432 90.1656 256.48 90.3703 258.528 91.0139L269.206 87.6497C269.03 87.0354 268.972 86.4503 268.972 85.9237ZM252.501 83.7296C251.916 86.0992 247.119 85.6019 241.765 82.618C236.412 79.634 232.55 75.2752 233.135 72.9056C233.72 70.536 238.518 71.0333 243.871 74.0172C249.196 77.0012 253.086 81.3308 252.501 83.7296Z" fill="url(#paint8_linear)"/>
<path d="M327.647 122.263C327.647 122.263 345.962 142.116 374.933 132.137L373.526 154.934C373.526 154.934 348.281 164.027 324.442 146.988L327.647 122.263Z" fill="url(#paint9_linear)"/>
<path d="M350.261 140.969C346.223 140.344 342.706 141.49 342.393 143.548C342.08 145.607 345.076 147.769 349.089 148.394C353.127 149.019 356.644 147.873 356.957 145.815C357.295 143.783 354.299 141.62 350.261 140.969Z" fill="url(#paint10_linear)"/>
<path d="M371.442 150.01L372.276 138.259C370.504 137.869 369.254 136.827 368.368 135.602C350.469 140.057 337.339 132.345 331.946 128.255C330.93 128.75 329.913 128.906 328.923 128.828L327.386 142.506C330.356 143.34 332.545 145.294 332.284 149.332C346.509 157.07 360.448 155.689 367.118 154.282C367.769 152.511 369.019 150.869 371.442 150.01ZM348.568 151.729C342.263 150.739 337.625 146.779 338.224 142.897C338.824 139.015 344.451 136.67 350.756 137.66C357.061 138.65 361.698 142.61 361.099 146.492C360.5 150.374 354.899 152.719 348.568 151.729Z" fill="url(#paint11_linear)"/>
<g clip-path="url(#clip0)">
<path d="M304.566 319.931C361.471 281.182 376.476 202.155 338.082 143.42C299.688 84.6846 222.433 68.4827 165.529 107.232C108.625 145.981 93.6195 225.008 132.014 283.743C170.408 342.478 247.662 358.68 304.566 319.931Z" fill="#EAB726"/>
<path d="M268.472 336.898C266.791 337.517 265.093 338.111 263.373 338.662C262.79 338.846 262.207 339.03 261.627 339.2C260.301 339.602 258.979 339.983 257.646 340.346C194.002 357.353 127.379 320.082 106.921 254.843C87.4036 192.619 116.75 126.769 173.092 100.771C177.586 98.6934 182.249 96.8759 187.073 95.3312C188.801 94.7742 190.542 94.2647 192.276 93.7912C193.964 93.3304 195.658 92.9085 197.354 92.524C202.546 91.3481 207.743 90.5319 212.933 90.0582C220.646 89.3437 228.327 89.3774 235.892 90.1343C259.351 92.4677 281.655 101.608 300.212 116.174C319.902 131.62 335.372 153.162 343.518 179.149C364.029 244.571 330.555 313.995 268.472 336.898Z" fill="#FFEB4D"/>
<path d="M204.59 330.348C194.386 328.208 184.406 324.583 174.903 319.488C148.426 305.302 128.819 281.456 119.689 252.341C110.559 223.226 113 192.321 126.566 165.327C140.131 138.333 163.191 118.48 191.502 109.423C249.951 90.7208 312.833 124.412 331.678 184.522C350.523 244.631 318.313 308.744 259.865 327.439C241.71 333.237 222.798 334.167 204.59 330.348ZM246.158 109.584C228.807 105.945 210.401 106.599 192.415 112.35C164.867 121.164 142.427 140.481 129.227 166.745C116.027 193.008 113.655 223.083 122.539 251.414C131.423 279.745 150.503 302.949 176.262 316.753C202.022 330.557 231.387 333.3 258.935 324.486C315.805 306.29 347.153 243.91 328.81 185.423C316.272 145.434 283.69 117.455 246.158 109.584Z" fill="#EAB726"/>
<path d="M202.769 163.742L224.09 273.112C225.989 282.858 219.856 292.234 210.371 294.083C200.886 295.932 191.68 289.546 189.78 279.8L168.46 170.43C166.56 160.684 172.694 151.308 182.178 149.459C191.663 147.61 200.869 153.996 202.769 163.742Z" fill="#EAB726"/>
<path d="M232.614 230.798L214.645 210.946L214.141 208.359C219.117 204.579 223.132 200.549 226.48 196.212L232.614 230.798Z" fill="#EAB726"/>
<path d="M226.202 196.329C235.555 184.14 238.982 169.609 240.183 151.14C240.672 143.364 246.174 136.984 253.61 135.534C264.793 133.354 274.878 143.003 273.617 154.614C270.662 180.918 262.445 195.196 252.401 206.958L294.793 251.399C303.813 260.88 299.075 276.791 286.428 279.256C280.925 280.329 275.256 278.374 271.461 274.181L232.266 230.866L226.202 196.329Z" fill="#EAB726"/>
</g>
<path d="M385.373 278.964C385.373 278.964 444.532 286.879 473.748 319.949L475.518 288.702C475.518 288.702 442.71 264.382 411.724 261.83L385.373 278.964Z" fill="url(#paint12_linear)"/>
<path d="M469.738 305.211L470.988 292.92C469.581 291.566 468.227 289.9 467.134 287.765C466.873 287.296 466.665 286.879 466.509 286.463C457.5 280.734 437.294 268.913 418.389 265.632C415.89 267.09 413.078 267.142 410.526 266.673L400.267 274.121C402.141 275.11 403.756 276.36 404.745 278.026C418.077 280.734 445.157 288.025 464.009 305.419C465.676 305.054 467.55 304.95 469.738 305.211ZM438.231 286.359C429.326 283.234 422.243 277.662 422.504 273.912C422.764 270.163 430.159 269.642 439.116 272.767C448.021 275.891 455.104 281.463 454.844 285.213C454.583 288.963 447.136 289.483 438.231 286.359Z" fill="url(#paint13_linear)"/>
<path d="M438.908 275.943C433.232 273.964 428.493 273.964 428.388 275.943C428.284 277.922 432.763 281.151 438.439 283.13C444.116 285.109 448.855 285.109 448.959 283.13C449.115 281.151 444.584 277.922 438.908 275.943Z" fill="url(#paint14_linear)"/>
<path d="M68.6705 277.974C68.6705 277.974 83.9364 294.032 116.653 305.687L93.913 312.845C93.913 312.845 59.8024 297.104 48.4322 281.522L68.6705 277.974Z" fill="url(#paint15_linear)"/>
<path d="M79.6291 292.765C75.9235 290.706 72.6929 290.136 72.3445 291.498C72.0278 292.86 74.7516 295.615 78.4255 297.706C82.1312 299.764 85.3617 300.335 85.7101 298.973C86.0268 297.611 83.303 294.824 79.6291 292.765Z" fill="url(#paint16_linear)"/>
<path d="M107.342 303.47C87.6102 295.964 75.8599 286.684 71.3309 282.598C69.5889 282.44 68.132 281.775 66.9601 280.951L55.5899 283.105C55.9066 284.213 56.0967 285.354 56.0016 286.399C65.5032 295.647 82.2577 304.515 89.5739 308.157C91.6009 308.062 93.8179 308.284 96.035 308.981L107.595 305.339C107.405 304.673 107.342 304.04 107.342 303.47ZM89.5105 301.094C88.8771 303.66 83.6829 303.121 77.8869 299.891C72.091 296.66 67.9103 291.941 68.5437 289.376C69.1772 286.81 74.3714 287.349 80.1673 290.579C85.9316 293.81 90.144 298.497 89.5105 301.094Z" fill="url(#paint17_linear)"/>
<path d="M169.678 344.713C169.678 344.713 130.979 344.59 108.744 328.498L88.2248 347.976C88.2248 347.976 111.194 368.011 147.919 369.828L169.678 344.713Z" fill="url(#paint18_linear)"/>
<path d="M106.264 335.129L95.992 345.335C96.5888 347.114 96.3386 348.62 95.6701 349.839C101.672 353.929 118.336 363.795 141.65 366.086C143.045 364.135 145.41 362.766 149.276 363.041L159.879 350.518C158.983 349.624 158.353 348.381 158.177 346.722C149.112 345.956 128.681 343.293 113.705 334.473C110.718 336.423 108.226 336.223 106.264 335.129ZM128.746 342.75C136.71 344.551 142.298 349.978 141.191 354.894C140.083 359.811 132.721 362.31 124.724 360.515C116.76 358.715 111.172 353.288 112.28 348.371C113.419 343.449 120.782 340.95 128.746 342.75Z" fill="url(#paint19_linear)"/>
<path d="M117.541 349.548C116.963 352.143 120.613 355.178 125.701 356.32C130.79 357.462 135.384 356.308 135.962 353.713C136.54 351.117 132.89 348.082 127.802 346.94C122.707 345.766 118.119 346.952 117.541 349.548Z" fill="url(#paint20_linear)"/>
<path d="M58.5697 63.146C48.3135 61.3062 33.5212 62.6877 24.9603 74.8596C6.74233 100.712 34.8553 137.369 34.8553 137.369C34.8553 137.369 54.6552 99.7499 66.6974 92.3228C66.6974 92.3228 52.8703 76.937 58.5697 63.146Z" fill="#638F3F"/>
<path opacity="0.2" d="M37.3968 80.7652C42.8129 80.7742 42.3164 66.1396 42.3164 66.1396C42.3164 66.1396 33.9354 64.0426 32.2044 71.5389C32.2045 71.4868 30.9913 80.7546 37.3968 80.7652Z" fill="#AAC25C"/>
<path opacity="0.2" d="M46.3833 63.282C46.3833 63.282 49.0562 84.4299 37.9082 86.4945C26.7601 88.6112 28.2454 72.3134 28.2454 72.3134C28.4551 71.4284 28.7688 70.6999 29.1346 69.9714C27.9868 71.2193 26.9428 72.6758 26.1067 74.3929C18.7908 89.4832 24.6437 108.657 29.52 120.071C32.2266 120.96 34.8277 122.631 37.2201 124.51C41.5556 116.653 50.0163 102.086 57.2155 94.5986C56.6972 93.0875 56.3873 91.5246 56.5464 89.8063C56.7052 88.2443 57.2802 86.9433 58.2193 85.9554C55.3119 80.5866 51.9414 71.832 55.0791 63.9735C52.4239 63.5004 49.2998 63.1827 46.0708 63.2815C46.2271 63.2818 46.3833 63.282 46.3833 63.282Z" fill="#AAC25C"/>
<path d="M116.387 25.0172C100.232 31.6563 65.0708 68.2083 65.0708 68.2083C48.2125 59.3272 30.8015 69.6617 23.2891 77.617C25.4832 73.5066 27.4681 69.9165 29.4525 66.6389C34.5704 58.0026 39.8934 51.2934 50.5313 42.8225C68.2088 28.7909 86.4945 24.8634 99.3589 24.1037C109.671 23.5479 116.387 25.0172 116.387 25.0172Z" fill="url(#paint21_linear)"/>
<path d="M54.8787 59.1818C58.2197 54.3442 64.3674 52.7921 70.721 52.6985C77.189 46.4078 86.1602 38.0903 94.1381 32.0105C92.7354 29.9772 91.4893 27.6837 90.6603 25.1305C80.5026 26.7281 68.3622 30.5616 56.2667 38.7177C54.1231 43.7656 50.835 48.1347 47.9124 51.9315C44.3112 56.6645 38.682 59.5715 33.264 60.7603C31.9588 62.685 30.7058 64.6098 29.4525 66.6908C35.4495 61.8055 44.9351 57.2384 54.8787 59.1818Z" fill="url(#paint22_linear)"/>
<path d="M11.7287 216.071C11.7287 216.071 36.4314 186.773 50.2471 128.311L66.877 166.044C66.877 166.044 46.3024 227.679 21.6756 250.19L11.7287 216.071Z" fill="url(#paint23_linear)"/>
<path d="M35.073 194.419C32.2385 201.181 31.8727 206.844 34.2803 207.184C36.6818 207.469 40.9009 202.262 43.7959 195.549C46.6305 188.787 46.9962 183.125 44.5887 182.785C42.1871 182.499 37.9136 187.712 35.073 194.419Z" fill="url(#paint24_linear)"/>
<path d="M48.2063 144.741C39.054 180.09 25.3349 202.055 19.1722 210.618C19.2312 213.643 18.3648 216.274 17.172 218.445L23.0367 237.583C24.8822 236.828 26.8062 236.284 28.6211 236.249C42.7134 218.155 54.7731 187.666 59.6435 174.395C59.0947 170.929 59.0542 167.075 59.8305 163.131L51.3706 143.95C50.2633 144.403 49.1863 144.632 48.2063 144.741ZM47.5134 175.847C52.0442 176.448 52.1064 185.48 47.6547 196.059C43.2031 206.637 35.8852 214.722 31.3543 214.121C26.8235 213.52 26.7614 204.488 31.213 193.909C35.6707 183.385 42.9281 175.252 47.5134 175.847Z" fill="url(#paint25_linear)"/>
<path d="M104.953 138.997C96.556 155.612 88.8443 170.515 70.9037 192.943L84.1625 220.096C84.1625 220.096 110.953 187.319 117.17 165.976C117.17 165.976 112.987 149.374 104.953 138.997Z" fill="url(#paint26_linear)"/>
<path d="M100.394 171.61C102.671 172.749 102.739 177.343 100.446 181.843C98.1869 186.363 94.4831 189.071 92.2059 187.932C89.9287 186.792 89.8602 182.199 92.1537 177.698C94.4125 173.179 98.0816 170.451 100.394 171.61Z" fill="url(#paint27_linear)"/>
<path d="M101.353 151.603C103.622 151.78 105.705 150.989 107.474 149.702C110.29 154.514 112.186 159.585 113.275 162.928C112.694 165.427 112.977 167.362 113.674 168.801C108.866 182.506 94.9649 201.139 88.5667 209.307C86.8469 208.799 84.9675 208.657 83.0243 209.118L76.8752 197.245C80.1882 192.633 79.6604 189.103 77.9479 186.549C88.6038 172.976 95.5865 162.22 101.353 151.603ZM88.4161 175.832C84.8627 182.907 85.5423 190.394 89.8693 192.59C94.2158 194.752 100.61 190.818 104.129 183.724C107.683 176.65 107.003 169.163 102.676 166.966C98.3836 164.789 91.9694 168.758 88.4161 175.832Z" fill="url(#paint28_linear)"/>
<path d="M122.718 75.8074C122.718 75.8074 139.243 79.9253 158.233 76.2844C177.222 72.6956 189.59 66.9802 189.59 66.9802L208.337 97.6614C208.337 97.6614 172.42 122.335 133.928 112.832C133.928 112.832 123.73 91.1965 122.718 75.8074Z" fill="url(#paint29_linear)"/>
<path d="M154.057 93.0688C154.25 96.0943 159.202 98.288 165.149 97.8993C171.096 97.5106 175.792 94.8021 175.6 91.7245C175.407 88.699 170.455 86.5053 164.508 86.894C158.561 87.2827 153.917 89.9923 154.057 93.0688Z" fill="url(#paint30_linear)"/>
<path d="M182.163 73.0137C177.073 74.6717 168.999 77.0446 159.216 78.9107C149.853 80.682 140.945 80.6923 134.858 80.3486C133.484 83.5997 130.738 85.2577 127.703 85.8674C129.114 92.7225 131.775 99.5534 133.808 104.183C138.371 105.117 140.704 107.93 141.888 110.926C174.174 116.071 203.002 96.2925 203.002 96.2925L191.159 76.0787C187.396 76.6201 184.406 75.1993 182.163 73.0137ZM181.756 91.3404C182.097 97.0779 174.795 102.177 165.458 102.75C156.121 103.324 148.245 99.1382 147.903 93.4007C147.562 87.6632 154.864 82.5644 164.201 81.9906C173.59 81.418 181.414 85.6029 181.756 91.3404Z" fill="url(#paint31_linear)"/>
<path d="M370.241 94.4597L334.452 70.8865C334.452 70.8865 337.214 62.2509 334.171 52.3601C335.406 51.8982 336.738 51.5012 338.127 51.3111C342.056 50.6366 346.325 51.087 350.486 53.0356C359.763 57.3489 368.31 69.4438 370.241 94.4597Z" fill="#638F3F"/>
<path d="M370.241 94.4597L334.452 70.8865C334.452 70.8865 337.214 62.2509 334.171 52.3601C335.406 51.8982 336.738 51.5012 338.127 51.3111C342.056 50.6366 346.325 51.087 350.486 53.0356C359.763 57.3489 368.31 69.4438 370.241 94.4597Z" fill="#638F3F"/>
<path opacity="0.2" d="M364.824 85.9769L338.276 68.6546C338.276 68.6546 340.71 61.3424 337.642 51.4063C337.778 51.3292 337.894 51.323 338.056 51.2911C341.985 50.6167 346.254 51.067 350.415 53.0157C356.752 57.7411 361.542 68.9155 364.824 85.9769Z" fill="#AAC25C"/>
<path d="M360.129 60.7343C346.447 48.5614 343.482 51.1439 334.99 52.8529C323.338 55.2189 308.396 68.1376 308.396 68.1376C297.622 58.0264 253.157 42.3755 253.157 42.3755C277.424 23.2026 298.831 25.3578 305.429 26.641C305.687 26.674 305.946 26.7069 306.159 26.7656C307.056 26.9747 307.482 27.0921 307.482 27.0921C324.283 32.1031 337.561 40.6125 346.527 47.8575C354.855 54.5066 359.556 60.0416 360.129 60.7343Z" fill="url(#paint32_linear)"/>
<path d="M324.89 39.604C319.721 37.5687 315.585 33.4497 312.942 28.9019C311.161 28.2965 309.354 27.6458 307.482 27.0919C307.482 27.0919 306.985 26.955 306.159 26.7655C305.946 26.7068 305.687 26.6738 305.429 26.6409C299.037 25.7199 287.699 26.1102 273.466 34.7933C274.216 37.0625 273.267 39.3984 271.265 41.6733C279.685 45.2156 296.97 52.7665 306.192 58.6687C309.292 56.4289 313.513 55.1092 319.087 55.5372C323.622 52.6616 329.147 49.5238 333.853 48.1085C338.397 46.7252 342.59 46.6198 346.553 47.9027C345.044 46.7231 343.439 45.4787 341.717 44.2405C335.582 43.7723 329.846 41.5806 324.89 39.604Z" fill="url(#paint33_linear)"/>
<path d="M131.709 394.46L160.959 376.429C160.959 376.429 166.301 381.36 174.52 382.497C174.438 383.551 174.275 384.653 173.943 385.728C173.103 388.812 171.331 391.762 168.506 394.126C162.23 399.409 150.545 401.526 131.709 394.46Z" fill="#638F3F"/>
<path d="M131.709 394.46L160.959 376.429C160.959 376.429 166.301 381.36 174.52 382.497C174.438 383.551 174.275 384.653 173.943 385.728C173.103 388.812 171.331 391.762 168.506 394.126C162.23 399.409 150.545 401.526 131.709 394.46Z" fill="#638F3F"/>
<path opacity="0.2" d="M139.708 393.395L161.287 379.964C161.287 379.964 165.777 384.209 174.038 385.343C174.048 385.468 174.013 385.554 173.982 385.683C173.142 388.767 171.369 391.717 168.544 394.082C162.964 397.088 153.22 396.786 139.708 393.395Z" fill="#AAC25C"/>
<path d="M159.645 398.529C173.125 392.706 172.252 389.677 173.885 382.926C176.11 373.655 171.779 358.421 171.779 358.421C182.776 354.013 209.206 326.994 209.206 326.994C214.925 351.123 206.111 365.953 202.945 370.314C202.833 370.491 202.722 370.667 202.607 370.802C202.151 371.384 201.922 371.653 201.922 371.653C192.591 382.168 181.911 388.938 173.61 393.002C165.957 396.804 160.343 398.347 159.645 398.529Z" fill="url(#paint34_linear)"/>
<path d="M186.934 380.07C190.163 377.002 194.557 375.39 198.757 375.009C199.8 373.919 200.885 372.826 201.921 371.653C201.921 371.653 202.189 371.339 202.607 370.802C202.721 370.667 202.833 370.491 202.944 370.314C205.778 365.98 209.333 357.607 207.84 344.322C205.937 344.099 204.561 342.618 203.585 340.393C198.159 345.314 186.819 355.321 179.407 360.025C179.986 363.036 179.516 366.551 177.318 370.457C177.872 374.728 178.282 379.805 177.718 383.705C177.184 387.477 175.842 390.559 173.568 393.005C174.936 392.308 176.384 391.563 177.866 390.731C180.284 386.43 183.819 383.003 186.934 380.07Z" fill="url(#paint35_linear)"/>
<path d="M390.291 19.3952C390.291 19.3952 402.664 31.0973 420.994 37.2507C439.298 43.4489 452.879 44.5436 452.879 44.5436L454.144 80.477C454.144 80.477 410.739 84.333 381.874 57.1532C381.874 57.1532 383.615 33.2981 390.291 19.3952Z" fill="url(#paint36_linear)"/>
<path d="M409.115 49.8213C407.797 52.5518 411.034 56.8944 416.405 59.4761C421.776 62.0578 427.198 62.0045 428.542 59.2293C429.859 56.4988 426.622 52.1561 421.251 49.5744C415.88 46.9927 410.503 47.0726 409.115 49.8213Z" fill="url(#paint37_linear)"/>
<path d="M443.446 46.1529C438.199 45.0978 429.999 43.1998 420.561 40.0217C411.535 36.9666 403.77 32.6014 398.636 29.313C395.842 31.4701 392.637 31.5662 389.693 30.6071C387.556 37.2713 386.519 44.5286 386.017 49.5594C389.533 52.6146 390.185 56.2107 389.745 59.4013C415.343 79.7379 450.169 76.6651 450.169 76.6651L449.778 53.2402C446.234 51.8642 444.327 49.1584 443.446 46.1529ZM434.092 61.9176C431.572 67.0833 422.707 67.9394 414.292 63.8542C405.877 59.7691 401.071 52.2545 403.591 47.0889C406.111 41.9232 414.975 41.0671 423.391 45.1523C431.851 49.264 436.612 56.752 434.092 61.9176Z" fill="url(#paint38_linear)"/>
<path d="M367.887 102.78C367.887 102.78 422.611 153.276 428.729 207.984L452.939 177.353C452.939 177.353 436.88 129.001 407.074 104.18L367.887 102.78Z" fill="url(#paint39_linear)"/>
<path d="M435.202 190.063L445.289 178.411C444.824 176.021 444.637 173.349 445.051 170.385C445.121 169.719 445.207 169.145 445.347 168.607C440.255 156.3 428.102 129.744 411.154 112.841C407.556 112.537 404.648 110.574 402.379 108.266L386.565 108.514C387.77 110.868 388.522 113.302 388.338 115.713C400.007 128.036 422.427 154.894 429.204 186.168C431.167 186.991 433.155 188.229 435.202 190.063ZM416.551 148.227C409.699 138.652 406.463 127.886 409.418 124.244C412.372 120.603 420.295 125.373 427.2 134.985C434.051 144.56 437.287 155.326 434.333 158.968C431.379 162.609 423.402 157.802 416.551 148.227Z" fill="url(#paint40_linear)"/>
<path d="M424.71 138.079C420.333 131.989 415.495 128.591 413.97 130.537C412.445 132.483 414.702 138.99 419.079 145.08C423.455 151.17 428.293 154.568 429.819 152.622C431.397 150.714 429.086 144.169 424.71 138.079Z" fill="url(#paint41_linear)"/>
<path d="M333.079 151.426C333.079 151.426 352.159 155.07 368.187 178.387L349.67 188.875C349.67 188.875 334.649 163.514 309.022 160.463L333.079 151.426Z" fill="url(#paint42_linear)"/>
<path d="M342.411 169.291C345.078 171.365 348.129 171.958 349.196 170.595C350.263 169.232 348.959 166.447 346.263 164.344C343.596 162.27 340.545 161.677 339.478 163.04C338.412 164.403 339.745 167.188 342.411 169.291Z" fill="url(#paint43_linear)"/>
<path d="M320.517 161.144C334.856 165.499 344.93 177.587 348.751 182.861C350.262 182.713 351.862 182.92 353.373 183.75L361.491 179.217C361.224 177.202 361.698 175.691 362.498 174.536C352.692 161.618 343.419 156.285 337.701 154.567C335.242 154.893 331.894 154.182 331.894 154.182L319.835 158.774C320.369 159.396 320.635 160.196 320.517 161.144ZM336.723 160.907C338.737 158.33 343.774 158.892 347.981 162.151C352.188 165.41 353.966 170.151 351.951 172.758C349.937 175.335 344.9 174.773 340.693 171.514C336.486 168.225 334.708 163.485 336.723 160.907Z" fill="url(#paint44_linear)"/>
<path d="M91.217 286.144C91.217 286.144 51.4563 301.471 22.2131 293.836L8.93388 322.018C8.93388 322.018 40.5052 333.405 78.9176 320.605L91.217 286.144Z" fill="url(#paint45_linear)"/>
<path d="M22.3169 301.632L15.8507 316.206C17.1737 317.794 17.5183 319.439 17.3191 320.957C25.1117 322.757 46.1515 326.227 70.9907 319.269C71.6426 316.71 73.5231 314.36 77.5999 313.099L83.4808 296.014C82.2038 295.454 81.0616 294.431 80.2183 292.799C70.6098 295.632 48.5809 301.058 29.6901 297.987C27.4033 301.181 24.7669 301.971 22.3169 301.632ZM48.4306 300.475C57.3223 299.142 65.224 302.48 66.0504 307.968C66.8769 313.455 60.3195 318.959 51.3972 320.311C42.5055 321.644 34.6039 318.306 33.7774 312.818C32.9815 307.312 39.5389 301.808 48.4306 300.475Z" fill="url(#paint46_linear)"/>
<path d="M39.6457 311.925C40.0889 314.819 45.0464 316.476 50.7242 315.616C56.402 314.756 60.656 311.737 60.2128 308.843C59.7696 305.948 54.8121 304.291 49.1343 305.151C43.4376 305.981 39.2025 309.031 39.6457 311.925Z" fill="url(#paint47_linear)"/>
<path d="M414.898 203.585L419.62 207.835C421.603 209.629 420.564 214.54 417.164 221.057C417.164 221.151 417.07 221.246 417.07 221.246C415.464 224.268 413.387 227.668 410.837 231.257C410.837 231.351 410.742 231.351 410.742 231.446C408.664 234.374 406.209 237.49 403.564 240.701L403.47 240.796C402.242 242.212 401.014 243.724 399.692 245.235C398.37 246.746 397.048 248.163 395.725 249.485L395.631 249.674C392.798 252.601 389.964 255.34 387.225 257.796C387.131 257.796 387.131 257.89 387.036 257.89C383.731 260.818 380.614 263.274 377.686 265.163C377.592 265.257 377.592 265.257 377.497 265.257C371.453 269.318 366.731 270.924 364.653 269.129L359.931 264.879L414.898 203.585Z" fill="#E2A935"/>
<path d="M367.77 256.285L377.781 265.257C377.686 265.351 377.686 265.351 377.592 265.351C371.547 269.413 366.825 271.018 364.747 269.224L360.025 264.974L367.77 256.285Z" fill="#E0A94D"/>
<path d="M375.703 247.407L387.225 257.796C387.131 257.796 387.131 257.89 387.036 257.89C383.731 260.818 380.614 263.274 377.686 265.163C377.592 265.257 377.592 265.257 377.497 265.257L367.581 256.379L375.703 247.407Z" fill="#DC9A31"/>
<path d="M383.542 238.624L395.725 249.485L395.631 249.674C392.798 252.601 389.964 255.34 387.225 257.796C387.131 257.796 387.131 257.89 387.036 257.89L375.514 247.596L383.542 238.624Z" fill="#E2A434"/>
<path d="M414.898 203.585L419.62 207.835C421.603 209.629 420.564 214.54 417.164 221.057C417.164 221.151 417.07 221.246 417.07 221.246L407.059 212.273L414.898 203.585Z" fill="#E0A94D"/>
<path d="M407.248 212.179L417.164 221.057C417.164 221.151 417.07 221.246 417.07 221.246C415.464 224.268 413.386 227.668 410.836 231.257C410.836 231.351 410.742 231.351 410.742 231.446L399.22 221.057L407.248 212.179Z" fill="#DC9A31"/>
<path d="M399.314 220.962L410.836 231.257C410.836 231.351 410.742 231.351 410.742 231.446C408.664 234.373 406.209 237.49 403.564 240.701L403.47 240.796L391.286 229.934L399.314 220.962Z" fill="#E2A434"/>
<path d="M391.475 229.84L403.659 240.701L403.564 240.796C402.336 242.212 401.109 243.724 399.786 245.235C398.464 246.746 397.142 248.163 395.82 249.485L395.725 249.674L383.542 238.813L391.475 229.84Z" fill="#EEBD37"/>
<path d="M394.994 241.031C410.156 224.079 419.074 207.32 414.914 203.599C410.754 199.878 395.09 210.604 379.928 227.556C364.766 244.508 355.847 261.266 360.007 264.987C364.168 268.708 379.831 257.982 394.994 241.031Z" fill="#FADE4B"/>
<path d="M411.214 207.74C411.687 208.307 411.97 209.157 411.781 210.29C411.687 210.007 411.498 209.629 411.309 209.44C408.287 206.323 395.159 215.579 382.031 230.029C371.17 241.929 363.709 253.735 363.142 259.212C361.914 254.868 369.847 241.646 381.936 228.235C395.064 213.784 408.192 204.529 411.214 207.74Z" fill="#E2A935"/>
<path opacity="0.5" d="M411.309 209.44C411.498 209.629 411.686 210.007 411.781 210.29C411.214 215.768 403.753 227.574 392.892 239.568C379.764 254.018 366.636 263.274 363.614 260.157C363.425 259.874 363.236 259.59 363.142 259.213C363.803 253.64 371.264 241.929 382.031 230.029C395.159 215.485 408.286 206.323 411.309 209.44Z" fill="#E2A935"/>
<g filter="url(#filter0_f)">
<path d="M87.0378 377.047L82.184 377.543C80.14 377.747 77.8805 374.623 75.9247 369.328C75.871 369.279 75.866 369.176 75.866 369.176C74.9737 366.704 74.11 363.769 73.3823 360.467C73.3285 360.418 73.3772 360.364 73.3235 360.315C72.7285 357.623 72.2208 354.619 71.7568 351.458L71.7518 351.355C71.5786 349.926 71.3516 348.448 71.1734 346.916C70.9951 345.385 70.8706 343.901 70.7998 342.467L70.741 342.316C70.5357 339.194 70.4378 336.169 70.4525 333.344C70.5012 333.29 70.4475 333.241 70.4962 333.188C70.5343 329.797 70.7438 326.757 71.1784 324.116C71.1734 324.014 71.1734 324.014 71.2221 323.96C72.0275 318.426 73.5486 314.91 75.6413 314.653L80.4952 314.157L87.0378 377.047Z" fill="#E2A935"/>
<path d="M81.3445 323.05L71.0759 324.121C71.0708 324.019 71.0709 324.019 71.1196 323.965C71.9249 318.431 73.4461 314.915 75.5388 314.658L80.3926 314.162L81.3445 323.05Z" fill="#E0A94D"/>
<path d="M82.3067 332.143L70.4525 333.344C70.5012 333.29 70.4475 333.242 70.4962 333.188C70.5343 329.797 70.7438 326.757 71.1784 324.116C71.1734 324.014 71.1734 324.014 71.2221 323.96L81.3883 322.894L82.3067 332.143Z" fill="#DC9A31"/>
<path d="M83.2637 341.133L70.7999 342.467L70.741 342.316C70.5357 339.194 70.4378 336.169 70.4525 333.344C70.5012 333.29 70.4475 333.241 70.4962 333.188L82.2966 331.938L83.2637 341.133Z" fill="#E2A434"/>
<path d="M87.0377 377.047L82.1839 377.543C80.1399 377.747 77.8804 374.623 75.9246 369.328C75.8709 369.279 75.8659 369.176 75.8659 369.176L86.1345 368.105L87.0377 377.047Z" fill="#E0A94D"/>
<path d="M86.091 368.261L75.9248 369.328C75.8711 369.279 75.866 369.177 75.866 369.177C74.9738 366.704 74.1101 363.769 73.3824 360.467C73.3286 360.418 73.3773 360.364 73.3236 360.316L85.1777 359.115L86.091 368.261Z" fill="#DC9A31"/>
<path d="M85.1826 359.217L73.3823 360.467C73.3285 360.418 73.3772 360.364 73.3234 360.315C72.7285 357.623 72.2208 354.618 71.7568 351.458L71.7517 351.355L84.2156 350.021L85.1826 359.217Z" fill="#E2A434"/>
<path d="M84.1719 350.178L71.7081 351.512L71.7031 351.409C71.5299 349.98 71.3029 348.502 71.1246 346.97C70.9464 345.438 70.8219 343.955 70.7511 342.521L70.6923 342.37L83.1561 341.036L84.1719 350.178Z" fill="#EEBD37"/>
<path d="M75.9888 346.41C77.8187 363.78 82.7579 377.498 87.0209 377.048C91.2838 376.599 93.2561 362.154 91.4262 344.783C89.5962 327.413 84.657 313.695 80.394 314.145C76.1311 314.594 74.1588 329.039 75.9888 346.41Z" fill="#FADE4B"/>
<path d="M86.5721 372.808C86.006 372.784 85.3762 372.507 84.8285 371.815C85.0385 371.908 85.3509 371.995 85.5558 371.985C88.888 371.872 90.3895 359.628 88.9345 344.705C87.762 332.387 84.8902 322.054 82.0647 318.906C85.1704 320.448 88.6051 331.781 90.0045 345.577C91.4594 360.499 89.958 372.743 86.5721 372.808Z" fill="#E2A935"/>
<path opacity="0.5" d="M85.5557 371.985C85.3508 371.995 85.0384 371.908 84.8284 371.815C82.003 368.668 79.1311 358.334 77.9049 345.968C76.4499 331.045 77.9513 318.801 81.2836 318.688C81.5422 318.727 81.8009 318.765 82.0646 318.906C84.8951 322.156 87.7132 332.441 88.9344 344.705C90.4431 359.676 88.888 371.872 85.5557 371.985Z" fill="#E2A935"/>
</g>
<defs>
<filter id="filter0_f" x="44.3675" y="309.59" width="73.0133" height="72.7146" filterUnits="userSpaceOnUse" color-interpolation-filters="sRGB">
<feFlood flood-opacity="0" result="BackgroundImageFix"/>
<feBlend mode="normal" in="SourceGraphic" in2="BackgroundImageFix" result="shape"/>
<feGaussianBlur stdDeviation="1" result="effect1_foregroundBlur"/>
</filter>
<linearGradient id="paint0_linear" x1="246.565" y1="332.497" x2="252.099" y2="375.835" gradientUnits="userSpaceOnUse">
<stop stop-color="#628454"/>
<stop offset="1" stop-color="#5E9735"/>
</linearGradient>
<linearGradient id="paint1_linear" x1="261.524" y1="337.3" x2="242.181" y2="362.826" gradientUnits="userSpaceOnUse">
<stop stop-color="#B6CF65"/>
<stop offset="1" stop-color="#A0BB49"/>
</linearGradient>
<linearGradient id="paint2_linear" x1="261.585" y1="337.346" x2="242.242" y2="362.871" gradientUnits="userSpaceOnUse">
<stop stop-color="#B6CF65"/>
<stop offset="1" stop-color="#A0BB49"/>
</linearGradient>
<linearGradient id="paint3_linear" x1="321.502" y1="281.998" x2="343.87" y2="338.783" gradientUnits="userSpaceOnUse">
<stop stop-color="#628454"/>
<stop offset="1" stop-color="#5E9735"/>
</linearGradient>
<linearGradient id="paint4_linear" x1="324.986" y1="273.944" x2="335.005" y2="338.997" gradientUnits="userSpaceOnUse">
<stop stop-color="#B6CF65"/>
<stop offset="1" stop-color="#A0BB49"/>
</linearGradient>
<linearGradient id="paint5_linear" x1="326.239" y1="273.751" x2="336.259" y2="338.804" gradientUnits="userSpaceOnUse">
<stop stop-color="#B6CF65"/>
<stop offset="1" stop-color="#A0BB49"/>
</linearGradient>
<linearGradient id="paint6_linear" x1="258.05" y1="58.4523" x2="232.151" y2="98.1642" gradientUnits="userSpaceOnUse">
<stop stop-color="#628454"/>
<stop offset="1" stop-color="#5E9735"/>
</linearGradient>
<linearGradient id="paint7_linear" x1="264.718" y1="57.0349" x2="228.027" y2="92.6462" gradientUnits="userSpaceOnUse">
<stop stop-color="#B6CF65"/>
<stop offset="1" stop-color="#A0BB49"/>
</linearGradient>
<linearGradient id="paint8_linear" x1="265.404" y1="57.7419" x2="228.714" y2="93.3532" gradientUnits="userSpaceOnUse">
<stop stop-color="#B6CF65"/>
<stop offset="1" stop-color="#A0BB49"/>
</linearGradient>
<linearGradient id="paint9_linear" x1="324.435" y1="139.805" x2="374.922" y2="139.805" gradientUnits="userSpaceOnUse">
<stop stop-color="#628454"/>
<stop offset="1" stop-color="#5E9735"/>
</linearGradient>
<linearGradient id="paint10_linear" x1="358.18" y1="122.819" x2="345.879" y2="154.47" gradientUnits="userSpaceOnUse">
<stop stop-color="#B6CF65"/>
<stop offset="1" stop-color="#A0BB49"/>
</linearGradient>
<linearGradient id="paint11_linear" x1="356.84" y1="122.298" x2="344.539" y2="153.949" gradientUnits="userSpaceOnUse">
<stop stop-color="#B6CF65"/>
<stop offset="1" stop-color="#A0BB49"/>
</linearGradient>
<linearGradient id="paint12_linear" x1="446.631" y1="248.622" x2="418.199" y2="333.147" gradientUnits="userSpaceOnUse">
<stop stop-color="#628454"/>
<stop offset="1" stop-color="#5E9735"/>
</linearGradient>
<linearGradient id="paint13_linear" x1="445.164" y1="248.404" x2="430.564" y2="307.571" gradientUnits="userSpaceOnUse">
<stop stop-color="#B6CF65"/>
<stop offset="1" stop-color="#A0BB49"/>
</linearGradient>
<linearGradient id="paint14_linear" x1="446.272" y1="248.677" x2="431.673" y2="307.845" gradientUnits="userSpaceOnUse">
<stop stop-color="#B6CF65"/>
<stop offset="1" stop-color="#A0BB49"/>
</linearGradient>
<linearGradient id="paint15_linear" x1="95.5177" y1="273.729" x2="67.4783" y2="316.722" gradientUnits="userSpaceOnUse">
<stop stop-color="#628454"/>
<stop offset="1" stop-color="#5E9735"/>
</linearGradient>
<linearGradient id="paint16_linear" x1="102.737" y1="272.194" x2="63.014" y2="310.748" gradientUnits="userSpaceOnUse">
<stop stop-color="#B6CF65"/>
<stop offset="1" stop-color="#A0BB49"/>
</linearGradient>
<linearGradient id="paint17_linear" x1="103.479" y1="272.959" x2="63.7568" y2="311.513" gradientUnits="userSpaceOnUse">
<stop stop-color="#B6CF65"/>
<stop offset="1" stop-color="#A0BB49"/>
</linearGradient>
<linearGradient id="paint18_linear" x1="106.899" y1="322.96" x2="157.198" y2="376.237" gradientUnits="userSpaceOnUse">
<stop stop-color="#628454"/>
<stop offset="1" stop-color="#5E9735"/>
</linearGradient>
<linearGradient id="paint19_linear" x1="91.721" y1="354.851" x2="151.277" y2="347.022" gradientUnits="userSpaceOnUse">
<stop stop-color="#B6CF65"/>
<stop offset="1" stop-color="#A0BB49"/>
</linearGradient>
<linearGradient id="paint20_linear" x1="91.898" y1="356.197" x2="151.454" y2="348.367" gradientUnits="userSpaceOnUse">
<stop stop-color="#B6CF65"/>
<stop offset="1" stop-color="#A0BB49"/>
</linearGradient>
<linearGradient id="paint21_linear" x1="69.8183" y1="77.7184" x2="69.9076" y2="23.9532" gradientUnits="userSpaceOnUse">
<stop stop-color="#628454"/>
<stop offset="1" stop-color="#5E9735"/>
</linearGradient>
<linearGradient id="paint22_linear" x1="27.5322" y1="51.759" x2="66.8613" y2="44.6461" gradientUnits="userSpaceOnUse">
<stop stop-color="#B6CF65"/>
<stop offset="1" stop-color="#A0BB49"/>
</linearGradient>
<linearGradient id="paint23_linear" x1="-0.675884" y1="170.724" x2="78.5695" y2="210.753" gradientUnits="userSpaceOnUse">
<stop stop-color="#628454"/>
<stop offset="1" stop-color="#5E9735"/>
</linearGradient>
<linearGradient id="paint24_linear" x1="-4.68641" y1="158.606" x2="69.1485" y2="219.564" gradientUnits="userSpaceOnUse">
<stop stop-color="#B6CF65"/>
<stop offset="1" stop-color="#A0BB49"/>
</linearGradient>
<linearGradient id="paint25_linear" x1="-3.51234" y1="157.183" x2="70.3226" y2="218.141" gradientUnits="userSpaceOnUse">
<stop stop-color="#B6CF65"/>
<stop offset="1" stop-color="#A0BB49"/>
</linearGradient>
<linearGradient id="paint26_linear" x1="74.9937" y1="155.227" x2="117.409" y2="207.893" gradientUnits="userSpaceOnUse">
<stop stop-color="#628454"/>
<stop offset="1" stop-color="#5E9735"/>
</linearGradient>
<linearGradient id="paint27_linear" x1="75.2167" y1="146.882" x2="112.883" y2="205.624" gradientUnits="userSpaceOnUse">
<stop stop-color="#B6CF65"/>
<stop offset="1" stop-color="#A0BB49"/>
</linearGradient>
<linearGradient id="paint28_linear" x1="74.6271" y1="147.26" x2="112.293" y2="206.003" gradientUnits="userSpaceOnUse">
<stop stop-color="#B6CF65"/>
<stop offset="1" stop-color="#A0BB49"/>
</linearGradient>
<linearGradient id="paint29_linear" x1="118.509" y1="96.7672" x2="213.012" y2="86.8266" gradientUnits="userSpaceOnUse">
<stop stop-color="#628454"/>
<stop offset="1" stop-color="#5E9735"/>
</linearGradient>
<linearGradient id="paint30_linear" x1="129.676" y1="64.4697" x2="184.245" y2="107.764" gradientUnits="userSpaceOnUse">
<stop stop-color="#B6CF65"/>
<stop offset="1" stop-color="#A0BB49"/>
</linearGradient>
<linearGradient id="paint31_linear" x1="129.779" y1="64.3393" x2="184.348" y2="107.633" gradientUnits="userSpaceOnUse">
<stop stop-color="#B6CF65"/>
<stop offset="1" stop-color="#A0BB49"/>
</linearGradient>
<linearGradient id="paint32_linear" x1="269.855" y1="71.8352" x2="342.885" y2="30.3555" gradientUnits="userSpaceOnUse">
<stop stop-color="#628454"/>
<stop offset="1" stop-color="#5E9735"/>
</linearGradient>
<linearGradient id="paint33_linear" x1="280.535" y1="58.0186" x2="334.812" y2="27.1905" gradientUnits="userSpaceOnUse">
<stop stop-color="#B6CF65"/>
<stop offset="1" stop-color="#A0BB49"/>
</linearGradient>
<linearGradient id="paint34_linear" x1="182.14" y1="329.156" x2="187.563" y2="396.281" gradientUnits="userSpaceOnUse">
<stop stop-color="#628454"/>
<stop offset="1" stop-color="#5E9735"/>
</linearGradient>
<linearGradient id="paint35_linear" x1="188.566" y1="341.596" x2="192.597" y2="391.484" gradientUnits="userSpaceOnUse">
<stop stop-color="#B6CF65"/>
<stop offset="1" stop-color="#A0BB49"/>
</linearGradient>
<linearGradient id="paint36_linear" x1="376.332" y1="35.587" x2="463.537" y2="73.3341" gradientUnits="userSpaceOnUse">
<stop stop-color="#628454"/>
<stop offset="1" stop-color="#5E9735"/>
</linearGradient>
<linearGradient id="paint37_linear" x1="401.919" y1="12.9351" x2="428.196" y2="77.4464" gradientUnits="userSpaceOnUse">
<stop stop-color="#B6CF65"/>
<stop offset="1" stop-color="#A0BB49"/>
</linearGradient>
<linearGradient id="paint38_linear" x1="402.073" y1="12.8726" x2="428.35" y2="77.3838" gradientUnits="userSpaceOnUse">
<stop stop-color="#B6CF65"/>
<stop offset="1" stop-color="#A0BB49"/>
</linearGradient>
<linearGradient id="paint39_linear" x1="452.182" y1="115.722" x2="362.555" y2="181.634" gradientUnits="userSpaceOnUse">
<stop stop-color="#628454"/>
<stop offset="1" stop-color="#5E9735"/>
</linearGradient>
<linearGradient id="paint40_linear" x1="450.841" y1="114.448" x2="393.515" y2="164.388" gradientUnits="userSpaceOnUse">
<stop stop-color="#B6CF65"/>
<stop offset="1" stop-color="#A0BB49"/>
</linearGradient>
<linearGradient id="paint41_linear" x1="451.777" y1="115.522" x2="394.451" y2="165.462" gradientUnits="userSpaceOnUse">
<stop stop-color="#B6CF65"/>
<stop offset="1" stop-color="#A0BB49"/>
</linearGradient>
<linearGradient id="paint42_linear" x1="320.42" y1="152.36" x2="356.376" y2="182.196" gradientUnits="userSpaceOnUse">
<stop stop-color="#628454"/>
<stop offset="1" stop-color="#5E9735"/>
</linearGradient>
<linearGradient id="paint43_linear" x1="356.448" y1="149.592" x2="328.689" y2="189.045" gradientUnits="userSpaceOnUse">
<stop stop-color="#B6CF65"/>
<stop offset="1" stop-color="#A0BB49"/>
</linearGradient>
<linearGradient id="paint44_linear" x1="355.019" y1="148.587" x2="327.26" y2="188.04" gradientUnits="userSpaceOnUse">
<stop stop-color="#B6CF65"/>
<stop offset="1" stop-color="#A0BB49"/>
</linearGradient>
<linearGradient id="paint45_linear" x1="18.1077" y1="288.89" x2="90.9988" y2="323.477" gradientUnits="userSpaceOnUse">
<stop stop-color="#628454"/>
<stop offset="1" stop-color="#5E9735"/>
</linearGradient>
<linearGradient id="paint46_linear" x1="15.2679" y1="327.678" x2="73.2571" y2="295.862" gradientUnits="userSpaceOnUse">
<stop stop-color="#B6CF65"/>
<stop offset="1" stop-color="#A0BB49"/>
</linearGradient>
<linearGradient id="paint47_linear" x1="15.9865" y1="328.987" x2="73.9756" y2="297.171" gradientUnits="userSpaceOnUse">
<stop stop-color="#B6CF65"/>
<stop offset="1" stop-color="#A0BB49"/>
</linearGradient>
<clipPath id="clip0">
<rect width="260.387" height="260.387" fill="white" transform="translate(77.5955 112.195) rotate(-11.0308)"/>
</clipPath>
</defs>
</svg>
