<svg width="374" height="316" viewBox="0 0 374 316" fill="none" xmlns="http://www.w3.org/2000/svg">
<path d="M201.537 262.866C201.537 262.866 200.181 268.873 201.65 275.709C203.1 282.545 205.266 286.97 205.266 286.97L194.324 293.995C194.324 293.995 185.115 281.208 188.242 267.216C188.242 267.216 195.981 263.355 201.537 262.866Z" fill="url(#paint0_linear)"/>
<path d="M195.548 274.334C194.456 274.429 193.702 276.237 193.891 278.384C194.079 280.531 195.096 282.207 196.207 282.113C197.3 282.019 198.053 280.211 197.865 278.064C197.676 275.916 196.659 274.259 195.548 274.334Z" fill="url(#paint1_linear)"/>
<path d="M203.024 284.334C202.384 282.507 201.461 279.607 200.708 276.086C199.992 272.715 199.917 269.495 199.992 267.291C198.806 266.821 198.185 265.841 197.94 264.749C195.473 265.314 193.025 266.331 191.367 267.103C191.066 268.76 190.068 269.626 188.995 270.078C187.394 281.792 194.776 292.055 194.776 292.055L201.989 287.611C201.763 286.255 202.252 285.163 203.024 284.334ZM196.396 284.334C194.324 284.504 192.422 281.905 192.14 278.534C191.857 275.163 193.307 272.282 195.379 272.112C197.45 271.943 199.352 274.542 199.635 277.913C199.917 281.302 198.467 284.165 196.396 284.334Z" fill="url(#paint2_linear)"/>
<path d="M241.562 244.562C241.562 244.562 262.072 241.62 288.677 222.989L281.818 244.203C281.818 244.203 251.343 261.683 233.305 261.913L241.562 244.562Z" fill="url(#paint3_linear)"/>
<path d="M258.773 244.218C255.197 245.928 253.013 248.082 253.862 249.086C254.729 250.065 258.305 249.48 261.888 247.811C265.465 246.101 267.649 243.947 266.799 242.944C265.933 241.965 262.333 242.532 258.773 244.218Z" fill="url(#paint4_linear)"/>
<path d="M281.944 228.887C265.535 239.865 252.096 243.797 246.529 245.038C245.464 246.28 244.168 247.03 242.906 247.478L238.39 257.313C239.407 257.672 240.379 258.144 241.124 258.783C253.321 256.548 269.156 248.577 275.895 244.972C276.92 243.375 278.29 241.805 280.022 240.492L283.506 229.706C282.896 229.49 282.379 229.196 281.944 228.887ZM270.476 241.195C272.089 243.067 268.865 246.736 263.263 249.405C257.661 252.074 251.799 252.706 250.186 250.833C248.574 248.961 251.797 245.293 257.399 242.623C262.984 239.978 268.839 239.305 270.476 241.195Z" fill="url(#paint5_linear)"/>
<path d="M183.455 49.0578C183.455 49.0578 194.545 60.7233 218.313 69.1905L201.793 74.3905C201.793 74.3905 177.013 62.9551 168.753 51.6348L183.455 49.0578Z" fill="url(#paint6_linear)"/>
<path d="M191.416 59.803C188.724 58.3074 186.377 57.8933 186.124 58.8827C185.894 59.872 187.873 61.8738 190.542 63.3924C193.234 64.8879 195.581 65.3021 195.834 64.3127C196.064 63.3233 194.085 61.2986 191.416 59.803Z" fill="url(#paint7_linear)"/>
<path d="M211.549 67.5802C197.215 62.1271 188.679 55.3855 185.388 52.4174C184.123 52.3024 183.064 51.8192 182.213 51.221L173.953 52.7856C174.183 53.5909 174.321 54.4192 174.252 55.1785C181.155 61.897 193.326 68.3395 198.641 70.9855C200.114 70.9164 201.725 71.0775 203.335 71.5837L211.733 68.9377C211.595 68.4545 211.549 67.9943 211.549 67.5802ZM198.595 65.8545C198.135 67.7182 194.362 67.3271 190.151 64.9802C185.941 62.6333 182.903 59.205 183.364 57.3413C183.824 55.4776 187.597 55.8687 191.808 58.2156C195.995 60.5625 199.056 63.9678 198.595 65.8545Z" fill="url(#paint8_linear)"/>
<path d="M257.697 96.1613C257.697 96.1613 272.103 111.776 294.889 103.927L293.782 121.857C293.782 121.857 273.926 129.009 255.177 115.607L257.697 96.1613Z" fill="url(#paint9_linear)"/>
<path d="M275.484 110.874C272.308 110.382 269.541 111.283 269.295 112.902C269.05 114.521 271.406 116.222 274.562 116.714C277.738 117.205 280.504 116.304 280.75 114.685C281.016 113.087 278.66 111.386 275.484 110.874Z" fill="url(#paint10_linear)"/>
<path d="M292.143 117.985L292.799 108.743C291.406 108.436 290.422 107.616 289.725 106.653C275.648 110.157 265.32 104.092 261.079 100.875C260.28 101.264 259.48 101.387 258.702 101.325L257.493 112.083C259.829 112.739 261.55 114.276 261.345 117.452C272.533 123.538 283.496 122.452 288.742 121.345C289.254 119.952 290.238 118.661 292.143 117.985ZM274.152 119.337C269.193 118.558 265.546 115.444 266.017 112.391C266.488 109.337 270.914 107.493 275.873 108.272C280.832 109.05 284.48 112.165 284.008 115.218C283.537 118.271 279.131 120.116 274.152 119.337Z" fill="url(#paint11_linear)"/>
<g clip-path="url(#clip0)">
<path d="M239.544 251.629C284.3 221.152 296.102 158.997 265.905 112.801C235.707 66.6054 174.946 53.8624 130.19 84.3391C85.4342 114.816 73.6322 176.971 103.83 223.167C134.027 269.363 194.788 282.106 239.544 251.629Z" fill="#EAB726"/>
<path d="M211.156 264.974C209.834 265.461 208.498 265.928 207.145 266.361C206.687 266.506 206.228 266.651 205.772 266.784C204.729 267.101 203.689 267.4 202.641 267.686C152.584 281.062 100.185 251.748 84.0944 200.437C68.7434 151.497 91.8245 99.7054 136.138 79.2573C139.672 77.6234 143.34 76.194 147.134 74.9791C148.493 74.541 149.863 74.1403 151.226 73.7678C152.554 73.4054 153.887 73.0736 155.22 72.7712C159.304 71.8463 163.391 71.2044 167.474 70.8318C173.54 70.2698 179.581 70.2963 185.531 70.8916C203.981 72.7269 221.524 79.9158 236.119 91.3718C251.606 103.52 263.773 120.464 270.18 140.902C286.312 192.358 259.984 246.96 211.156 264.974Z" fill="#FFEB4D"/>
<path d="M160.912 259.822C152.887 258.139 145.037 255.288 137.562 251.28C116.739 240.123 101.317 221.368 94.1363 198.469C86.9557 175.569 88.8757 151.263 99.5449 130.032C110.214 108.8 128.351 93.1859 150.618 86.0625C196.589 71.3529 246.046 97.8511 260.868 145.128C275.69 192.405 250.356 242.831 204.386 257.535C190.107 262.094 175.232 262.826 160.912 259.822ZM193.605 86.1888C179.959 83.3269 165.482 83.8416 151.336 88.3647C129.669 95.2964 112.02 110.49 101.638 131.147C91.2558 151.803 89.3909 175.457 96.3782 197.74C103.366 220.022 118.372 238.273 138.632 249.13C158.892 259.986 181.988 262.144 203.655 255.212C248.384 240.9 273.039 191.837 258.612 145.837C248.751 114.386 223.125 92.3798 193.605 86.1888Z" fill="#EAB726"/>
<path d="M159.48 128.784L176.248 214.805C177.743 222.471 172.919 229.845 165.459 231.299C157.999 232.753 150.758 227.731 149.264 220.066L132.495 134.045C131.001 126.38 135.825 119.005 143.285 117.551C150.745 116.097 157.985 121.119 159.48 128.784Z" fill="#EAB726"/>
<path d="M182.953 181.525L168.82 165.911L168.424 163.877C172.337 160.904 175.495 157.734 178.128 154.323L182.953 181.525Z" fill="#EAB726"/>
<path d="M177.91 154.415C185.266 144.828 187.961 133.399 188.906 118.873C189.291 112.757 193.618 107.739 199.467 106.599C208.262 104.884 216.194 112.473 215.202 121.606C212.878 142.294 206.415 153.524 198.515 162.775L231.857 197.728C238.951 205.185 235.225 217.699 225.278 219.638C220.95 220.482 216.491 218.944 213.506 215.646L182.679 181.578L177.91 154.415Z" fill="#EAB726"/>
</g>
<path d="M303.099 219.408C303.099 219.408 349.629 225.634 372.607 251.643L374 227.067C374 227.067 348.196 207.939 323.825 205.932L303.099 219.408Z" fill="url(#paint12_linear)"/>
<path d="M369.453 240.051L370.436 230.385C369.33 229.32 368.266 228.009 367.405 226.33C367.201 225.961 367.037 225.634 366.914 225.306C359.828 220.8 343.936 211.503 329.067 208.922C327.101 210.069 324.89 210.11 322.883 209.741L314.814 215.599C316.288 216.377 317.558 217.36 318.336 218.671C328.822 220.8 350.121 226.535 364.948 240.215C366.259 239.928 367.733 239.847 369.453 240.051ZM344.673 225.224C337.669 222.766 332.098 218.384 332.303 215.435C332.508 212.486 338.324 212.076 345.369 214.534C352.373 216.991 357.944 221.374 357.739 224.323C357.534 227.272 351.677 227.682 344.673 225.224Z" fill="url(#paint13_linear)"/>
<path d="M345.206 217.032C340.741 215.476 337.014 215.476 336.932 217.032C336.85 218.589 340.372 221.128 344.837 222.685C349.302 224.241 353.029 224.241 353.111 222.685C353.234 221.128 349.67 218.589 345.206 217.032Z" fill="url(#paint14_linear)"/>
<path d="M54.0098 218.63C54.0098 218.63 66.0166 231.259 91.7489 240.426L73.8633 246.056C73.8633 246.056 47.035 233.676 38.0922 221.42L54.0098 218.63Z" fill="url(#paint15_linear)"/>
<path d="M62.6288 230.263C59.7143 228.643 57.1735 228.195 56.8995 229.266C56.6504 230.337 58.7926 232.505 61.6822 234.149C64.5967 235.768 67.1376 236.216 67.4116 235.145C67.6607 234.074 65.5184 231.882 62.6288 230.263Z" fill="url(#paint16_linear)"/>
<path d="M84.4262 238.683C68.9071 232.779 59.6654 225.48 56.1032 222.267C54.7331 222.142 53.5873 221.619 52.6656 220.971L43.7228 222.665C43.9719 223.537 44.1213 224.434 44.0466 225.256C51.5197 232.53 64.6972 239.505 70.4515 242.369C72.0458 242.294 73.7895 242.469 75.5332 243.017L84.6255 240.152C84.476 239.629 84.4262 239.131 84.4262 238.683ZM70.4017 236.814C69.9035 238.832 65.8182 238.408 61.2596 235.868C56.701 233.327 53.4129 229.615 53.9111 227.597C54.4093 225.58 58.4946 226.003 63.0532 228.544C67.5868 231.085 70.8999 234.772 70.4017 236.814Z" fill="url(#paint17_linear)"/>
<path d="M133.453 271.12C133.453 271.12 103.016 271.024 85.5282 258.367L69.3894 273.686C69.3894 273.686 87.4551 289.444 116.34 290.873L133.453 271.12Z" fill="url(#paint18_linear)"/>
<path d="M83.5784 263.582L75.499 271.609C75.9684 273.008 75.7716 274.193 75.2458 275.152C79.9668 278.368 93.0732 286.128 111.409 287.93C112.506 286.395 114.367 285.318 117.407 285.535L125.747 275.686C125.042 274.982 124.547 274.005 124.408 272.7C117.278 272.097 101.21 270.003 89.4303 263.066C87.081 264.599 85.1213 264.443 83.5784 263.582ZM101.26 269.576C107.524 270.992 111.92 275.261 111.048 279.128C110.177 282.994 104.386 284.96 98.0973 283.548C91.8334 282.132 87.4383 277.864 88.3095 273.997C89.2059 270.126 94.9966 268.16 101.26 269.576Z" fill="url(#paint19_linear)"/>
<path d="M92.4469 274.923C91.9923 276.964 94.8631 279.351 98.8652 280.249C102.867 281.148 106.481 280.24 106.936 278.199C107.39 276.157 104.52 273.77 100.517 272.872C96.5105 271.949 92.9016 272.882 92.4469 274.923Z" fill="url(#paint20_linear)"/>
<path d="M46.0654 49.6651C37.9988 48.2181 26.3645 49.3047 19.6313 58.878C5.3027 79.211 27.4139 108.042 27.4139 108.042C27.4139 108.042 42.9866 78.4544 52.4579 72.613C52.4579 72.613 41.5828 60.5119 46.0654 49.6651Z" fill="#638F3F"/>
<path opacity="0.2" d="M29.4128 63.5227C33.6726 63.5298 33.2821 52.0195 33.2821 52.0195C33.2821 52.0195 26.6904 50.3702 25.3289 56.2661C25.329 56.2252 24.3748 63.5143 29.4128 63.5227Z" fill="#AAC25C"/>
<path opacity="0.2" d="M36.481 49.7721C36.481 49.7721 38.5832 66.4051 29.8152 68.0289C21.0472 69.6937 22.2153 56.8753 22.2153 56.8753C22.3803 56.1793 22.627 55.6062 22.9147 55.0333C22.0119 56.0148 21.1908 57.1603 20.5333 58.5109C14.7792 70.3796 19.3826 85.4603 23.2179 94.4367C25.3466 95.1366 27.3924 96.4507 29.2741 97.9284C32.684 91.7491 39.3384 80.2916 45.0006 74.4028C44.593 73.2143 44.3492 71.9851 44.4744 70.6337C44.5993 69.4051 45.0515 68.3819 45.7901 67.6049C43.5034 63.3822 40.8525 56.4966 43.3203 50.3159C41.232 49.9438 38.7748 49.6939 36.2352 49.7716C36.3581 49.7718 36.481 49.7721 36.481 49.7721Z" fill="#AAC25C"/>
<path d="M91.5391 19.6764C78.833 24.8981 51.1786 53.6466 51.1786 53.6466C37.9194 46.6615 24.2254 54.7897 18.3169 61.0467C20.0426 57.8137 21.6037 54.9901 23.1644 52.4123C27.1897 45.6197 31.3764 40.3429 39.7432 33.6804C53.6467 22.6445 68.0286 19.5554 78.1466 18.9578C86.2573 18.5208 91.5391 19.6764 91.5391 19.6764Z" fill="url(#paint21_linear)"/>
<path d="M43.1625 46.5472C45.7903 42.7424 50.6255 41.5216 55.6227 41.448C60.7099 36.5004 67.7657 29.9586 74.0405 25.1767C72.9372 23.5775 71.9572 21.7737 71.3052 19.7656C63.316 21.022 53.7675 24.0372 44.2542 30.452C42.5683 34.4222 39.9821 37.8586 37.6835 40.8448C34.8511 44.5674 30.4237 46.8537 26.1623 47.7887C25.1358 49.3025 24.1503 50.8164 23.1646 52.4531C27.8813 48.6108 35.3418 45.0188 43.1625 46.5472Z" fill="url(#paint22_linear)"/>
<path d="M9.22453 169.942C9.22453 169.942 28.6535 146.899 39.5197 100.918L52.5992 130.596C52.5992 130.596 36.4171 179.072 17.0478 196.777L9.22453 169.942Z" fill="url(#paint23_linear)"/>
<path d="M27.5853 152.913C25.3559 158.231 25.0682 162.685 26.9618 162.952C28.8506 163.177 32.169 159.082 34.4459 153.801C36.6753 148.483 36.963 144.029 35.0694 143.762C33.1806 143.537 29.8194 147.637 27.5853 152.913Z" fill="url(#paint24_linear)"/>
<path d="M37.9147 113.84C30.7164 141.642 19.9262 158.918 15.0792 165.653C15.1256 168.032 14.4441 170.102 13.506 171.81L18.1186 186.862C19.5701 186.267 21.0834 185.84 22.5108 185.812C33.5946 171.582 43.0796 147.601 46.9102 137.164C46.4786 134.437 46.4468 131.406 47.0573 128.304L40.4035 113.218C39.5326 113.574 38.6856 113.755 37.9147 113.84ZM37.3698 138.306C40.9333 138.778 40.9822 145.882 37.4809 154.202C33.9797 162.522 28.2241 168.881 24.6605 168.408C21.097 167.935 21.0481 160.832 24.5494 152.512C28.0554 144.234 33.7634 137.838 37.3698 138.306Z" fill="url(#paint25_linear)"/>
<path d="M82.5465 109.323C75.9421 122.39 69.8769 134.112 55.7664 151.752L66.1945 173.108C66.1945 173.108 87.2653 147.329 92.1555 130.542C92.1555 130.542 88.8656 117.485 82.5465 109.323Z" fill="url(#paint26_linear)"/>
<path d="M78.9602 134.973C80.7513 135.869 80.8052 139.482 79.0013 143.021C77.2247 146.576 74.3116 148.706 72.5206 147.81C70.7295 146.914 70.6756 143.301 72.4795 139.762C74.2561 136.207 77.1419 134.062 78.9602 134.973Z" fill="url(#paint27_linear)"/>
<path d="M79.7143 119.238C81.499 119.378 83.1376 118.755 84.5286 117.743C86.7435 121.528 88.2351 125.516 89.091 128.145C88.6346 130.111 88.8569 131.633 89.4054 132.764C85.6235 143.543 74.6902 158.199 69.6579 164.623C68.3053 164.223 66.8271 164.112 65.2988 164.474L60.4624 155.136C63.0681 151.508 62.653 148.732 61.3061 146.723C69.6871 136.048 75.1791 127.589 79.7143 119.238ZM69.5394 138.294C66.7447 143.859 67.2792 149.747 70.6825 151.475C74.101 153.175 79.1305 150.081 81.898 144.502C84.6927 138.938 84.1582 133.049 80.755 131.321C77.379 129.609 72.3342 132.73 69.5394 138.294Z" fill="url(#paint28_linear)"/>
<path d="M96.5189 59.6234C96.5189 59.6234 109.516 62.8622 124.452 59.9986C139.386 57.176 149.114 52.6807 149.114 52.6807L163.859 76.8118C163.859 76.8118 135.61 96.2178 105.335 88.7439C105.335 88.7439 97.315 71.7271 96.5189 59.6234Z" fill="url(#paint29_linear)"/>
<path d="M121.168 73.1996C121.32 75.5792 125.214 77.3046 129.892 76.9989C134.569 76.6932 138.263 74.5629 138.112 72.1424C137.96 69.7628 134.065 68.0374 129.388 68.3431C124.71 68.6488 121.058 70.78 121.168 73.1996Z" fill="url(#paint30_linear)"/>
<path d="M143.273 57.4259C139.27 58.7299 132.92 60.5962 125.226 62.0639C117.861 63.457 110.855 63.4651 106.068 63.1948C104.987 65.7519 102.827 67.0559 100.44 67.5354C101.55 72.9271 103.643 78.2996 105.241 81.9405C108.83 82.6758 110.666 84.888 111.597 87.2439C136.99 91.2908 159.664 75.7349 159.664 75.7349L150.349 59.8365C147.389 60.2623 145.038 59.1449 143.273 57.4259ZM142.953 71.84C143.221 76.3526 137.478 80.3629 130.135 80.8141C122.791 81.2654 116.596 77.973 116.328 73.4604C116.059 68.9478 121.802 64.9376 129.146 64.4863C136.53 64.0359 142.685 67.3274 142.953 71.84Z" fill="url(#paint31_linear)"/>
<path d="M291.198 74.2937L263.05 55.7531C263.05 55.7531 265.222 48.9611 262.829 41.1819C263.801 40.8186 264.848 40.5064 265.941 40.3568C269.031 39.8264 272.388 40.1806 275.661 41.7132C282.958 45.1056 289.68 54.6184 291.198 74.2937Z" fill="#638F3F"/>
<path d="M291.198 74.2937L263.05 55.7531C263.05 55.7531 265.222 48.9611 262.829 41.1819C263.801 40.8186 264.848 40.5064 265.941 40.3568C269.031 39.8264 272.388 40.1806 275.661 41.7132C282.958 45.1056 289.68 54.6184 291.198 74.2937Z" fill="#638F3F"/>
<path opacity="0.2" d="M286.938 67.6218L266.057 53.9977C266.057 53.9977 267.972 48.2466 265.559 40.4317C265.666 40.371 265.757 40.3662 265.885 40.3411C268.975 39.8106 272.332 40.1649 275.605 41.6975C280.589 45.4141 284.356 54.2029 286.938 67.6218Z" fill="#AAC25C"/>
<path d="M283.245 47.7683C272.484 38.1941 270.152 40.2253 263.473 41.5694C254.308 43.4304 242.556 53.591 242.556 53.591C234.083 45.6384 199.111 33.3289 199.111 33.3289C218.196 18.2492 235.033 19.9443 240.223 20.9535C240.426 20.9795 240.629 21.0054 240.797 21.0516C241.503 21.216 241.838 21.3083 241.838 21.3083C255.052 25.2496 265.495 31.9423 272.547 37.6405C279.097 42.8701 282.794 47.2235 283.245 47.7683Z" fill="url(#paint32_linear)"/>
<path d="M255.529 31.149C251.464 29.5483 248.211 26.3086 246.132 22.7317C244.731 22.2556 243.31 21.7438 241.838 21.3082C241.838 21.3082 241.447 21.2005 240.797 21.0514C240.63 21.0053 240.426 20.9793 240.223 20.9534C235.196 20.229 226.279 20.536 215.084 27.3654C215.674 29.1501 214.927 30.9873 213.353 32.7766C219.975 35.5627 233.57 41.5015 240.823 46.1436C243.261 44.382 246.581 43.3441 250.965 43.6806C254.532 41.419 258.877 38.9511 262.579 37.838C266.153 36.7499 269.45 36.6671 272.567 37.676C271.381 36.7483 270.118 35.7696 268.764 34.7957C263.939 34.4275 259.427 32.7036 255.529 31.149Z" fill="url(#paint33_linear)"/>
<path d="M103.59 310.247L126.596 296.065C126.596 296.065 130.797 299.943 137.262 300.838C137.197 301.667 137.069 302.534 136.808 303.379C136.147 305.804 134.753 308.125 132.531 309.985C127.595 314.14 118.405 315.805 103.59 310.247Z" fill="#638F3F"/>
<path d="M103.59 310.247L126.596 296.065C126.596 296.065 130.797 299.943 137.262 300.838C137.197 301.667 137.069 302.534 136.808 303.379C136.147 305.804 134.753 308.125 132.531 309.985C127.595 314.14 118.405 315.805 103.59 310.247Z" fill="#638F3F"/>
<path opacity="0.2" d="M109.882 309.409L126.854 298.845C126.854 298.845 130.385 302.184 136.882 303.076C136.89 303.174 136.863 303.243 136.838 303.343C136.177 305.769 134.783 308.089 132.561 309.949C128.172 312.314 120.509 312.076 109.882 309.409Z" fill="#AAC25C"/>
<path d="M125.562 313.447C136.164 308.867 135.478 306.485 136.762 301.175C138.512 293.884 135.106 281.902 135.106 281.902C143.755 278.435 164.542 257.184 164.542 257.184C169.041 276.162 162.108 287.826 159.618 291.256C159.53 291.395 159.443 291.534 159.352 291.64C158.994 292.097 158.813 292.309 158.813 292.309C151.475 300.579 143.075 305.904 136.546 309.1C130.527 312.091 126.111 313.304 125.562 313.447Z" fill="url(#paint34_linear)"/>
<path d="M147.025 298.929C149.565 296.516 153.021 295.248 156.324 294.949C157.145 294.092 157.998 293.232 158.813 292.309C158.813 292.309 159.024 292.062 159.352 291.64C159.442 291.534 159.53 291.395 159.617 291.256C161.846 287.847 164.642 281.262 163.468 270.813C161.971 270.637 160.889 269.473 160.121 267.722C155.854 271.593 146.935 279.463 141.105 283.163C141.56 285.532 141.191 288.296 139.462 291.369C139.898 294.727 140.221 298.721 139.776 301.788C139.357 304.754 138.301 307.179 136.512 309.103C137.588 308.555 138.727 307.968 139.893 307.314C141.795 303.931 144.575 301.236 147.025 298.929Z" fill="url(#paint35_linear)"/>
<path d="M306.967 15.2546C306.967 15.2546 316.699 24.4584 331.116 29.2981C345.512 34.1731 356.193 35.0341 356.193 35.0341L357.189 63.296C357.189 63.296 323.05 66.3288 300.348 44.9516C300.348 44.9516 301.717 26.1893 306.967 15.2546Z" fill="url(#paint36_linear)"/>
<path d="M321.773 39.185C320.737 41.3326 323.282 44.7481 327.507 46.7786C331.732 48.8092 335.995 48.7673 337.052 46.5845C338.088 44.4369 335.543 41.0214 331.318 38.9909C327.094 36.9603 322.865 37.0231 321.773 39.185Z" fill="url(#paint37_linear)"/>
<path d="M348.775 36.2997C344.648 35.4699 338.199 33.977 330.776 31.4774C323.677 29.0746 317.57 25.6413 313.532 23.0549C311.334 24.7516 308.813 24.8271 306.498 24.0727C304.817 29.3142 304.002 35.0222 303.607 38.9789C306.372 41.3819 306.885 44.2102 306.539 46.7197C326.672 62.7146 354.063 60.2978 354.063 60.2978L353.755 41.8739C350.968 40.7917 349.468 38.6636 348.775 36.2997ZM341.418 48.6988C339.436 52.7617 332.464 53.435 325.845 50.222C319.226 47.0089 315.446 41.0987 317.428 37.0358C319.411 32.973 326.383 32.2997 333.002 35.5127C339.656 38.7466 343.4 44.636 341.418 48.6988Z" fill="url(#paint38_linear)"/>
<path d="M289.347 80.8378C289.347 80.8378 332.388 120.554 337.2 163.582L356.241 139.49C356.241 139.49 343.61 101.461 320.168 81.939L289.347 80.8378Z" fill="url(#paint39_linear)"/>
<path d="M342.291 149.486L350.225 140.322C349.859 138.442 349.712 136.341 350.037 134.009C350.093 133.486 350.16 133.034 350.27 132.612C346.266 122.931 336.706 102.045 323.377 88.7506C320.547 88.512 318.26 86.968 316.475 85.1527L304.038 85.3476C304.985 87.1993 305.577 89.1132 305.432 91.0093C314.61 100.701 332.244 121.826 337.573 146.423C339.117 147.07 340.681 148.044 342.291 149.486ZM327.622 116.582C322.233 109.052 319.688 100.583 322.011 97.7195C324.335 94.8554 330.566 98.6072 335.997 106.167C341.386 113.698 343.931 122.166 341.607 125.03C339.284 127.894 333.01 124.113 327.622 116.582Z" fill="url(#paint40_linear)"/>
<path d="M334.039 108.601C330.597 103.811 326.791 101.138 325.592 102.669C324.392 104.199 326.168 109.317 329.61 114.107C333.052 118.897 336.857 121.569 338.057 120.039C339.298 118.538 337.481 113.391 334.039 108.601Z" fill="url(#paint41_linear)"/>
<path d="M261.97 119.098C261.97 119.098 276.976 121.965 289.583 140.303L275.019 148.552C275.019 148.552 263.205 128.606 243.049 126.206L261.97 119.098Z" fill="url(#paint42_linear)"/>
<path d="M269.31 133.149C271.407 134.78 273.807 135.247 274.646 134.175C275.485 133.103 274.46 130.912 272.339 129.258C270.242 127.627 267.842 127.161 267.003 128.233C266.164 129.304 267.213 131.495 269.31 133.149Z" fill="url(#paint43_linear)"/>
<path d="M252.09 126.741C263.368 130.167 271.291 139.674 274.297 143.822C275.485 143.705 276.743 143.868 277.932 144.521L284.317 140.956C284.107 139.371 284.48 138.183 285.109 137.274C277.396 127.114 270.102 122.92 265.605 121.568C263.671 121.825 261.038 121.266 261.038 121.266L251.554 124.877C251.973 125.367 252.183 125.996 252.09 126.741ZM264.836 126.555C266.421 124.528 270.382 124.971 273.691 127.534C277 130.097 278.398 133.825 276.813 135.876C275.229 137.903 271.267 137.46 267.959 134.897C264.65 132.311 263.252 128.582 264.836 126.555Z" fill="url(#paint44_linear)"/>
<path d="M71.7431 225.056C71.7431 225.056 40.4709 237.11 17.4708 231.105L7.02658 253.27C7.02658 253.27 31.8577 262.227 62.0695 252.159L71.7431 225.056Z" fill="url(#paint45_linear)"/>
<path d="M17.5527 237.236L12.467 248.699C13.5075 249.948 13.7785 251.242 13.6219 252.436C19.7508 253.851 36.2989 256.58 55.8352 251.108C56.3479 249.095 57.8269 247.247 61.0333 246.255L65.6587 232.818C64.6544 232.377 63.756 231.572 63.0928 230.288C55.5356 232.517 38.2096 236.784 23.3518 234.369C21.5532 236.881 19.4796 237.503 17.5527 237.236ZM38.0914 236.326C45.0848 235.278 51.2995 237.903 51.9496 242.219C52.5996 246.535 47.4421 250.864 40.4247 251.927C33.4312 252.975 27.2165 250.35 26.5665 246.034C25.9405 241.703 31.098 237.374 38.0914 236.326Z" fill="url(#paint46_linear)"/>
<path d="M31.1818 245.332C31.5304 247.608 35.4296 248.912 39.8952 248.235C44.3609 247.559 47.7067 245.184 47.3581 242.908C47.0095 240.632 43.1103 239.328 38.6447 240.005C34.1642 240.657 30.8333 243.056 31.1818 245.332Z" fill="url(#paint47_linear)"/>
<path d="M326.322 160.122L330.036 163.465C331.596 164.876 330.779 168.739 328.104 173.864C328.104 173.938 328.03 174.013 328.03 174.013C326.767 176.39 325.133 179.064 323.128 181.886C323.128 181.961 323.053 181.961 323.053 182.035C321.419 184.338 319.488 186.789 317.408 189.315L317.334 189.389C316.368 190.503 315.402 191.692 314.362 192.88C313.322 194.069 312.282 195.183 311.242 196.223L311.168 196.371C308.94 198.674 306.711 200.828 304.557 202.76C304.483 202.76 304.483 202.834 304.409 202.834C301.809 205.137 299.357 207.068 297.055 208.554C296.98 208.628 296.98 208.628 296.906 208.628C292.152 211.822 288.438 213.085 286.804 211.673L283.09 208.331L326.322 160.122Z" fill="#E2A935"/>
<path d="M289.255 201.57L297.129 208.627C297.054 208.702 297.054 208.702 296.98 208.702C292.226 211.896 288.512 213.158 286.878 211.747L283.164 208.404L289.255 201.57Z" fill="#E0A94D"/>
<path d="M295.494 194.588L304.557 202.759C304.482 202.759 304.482 202.833 304.408 202.833C301.808 205.136 299.357 207.067 297.054 208.553C296.98 208.627 296.98 208.627 296.906 208.627L289.106 201.645L295.494 194.588Z" fill="#DC9A31"/>
<path d="M301.66 187.68L311.242 196.222L311.168 196.371C308.939 198.674 306.711 200.828 304.557 202.759C304.482 202.759 304.482 202.833 304.408 202.833L295.346 194.737L301.66 187.68Z" fill="#E2A434"/>
<path d="M326.321 160.121L330.035 163.464C331.595 164.875 330.778 168.738 328.104 173.863C328.104 173.938 328.03 174.012 328.03 174.012L320.156 166.955L326.321 160.121Z" fill="#E0A94D"/>
<path d="M320.305 166.881L328.104 173.863C328.104 173.938 328.03 174.012 328.03 174.012C326.767 176.389 325.133 179.063 323.127 181.886C323.127 181.96 323.053 181.96 323.053 182.034L313.991 173.863L320.305 166.881Z" fill="#DC9A31"/>
<path d="M314.065 173.789L323.127 181.886C323.127 181.96 323.053 181.96 323.053 182.034C321.419 184.337 319.488 186.788 317.408 189.314L317.333 189.388L307.751 180.846L314.065 173.789Z" fill="#E2A434"/>
<path d="M307.899 180.772L317.481 189.314L317.407 189.388C316.442 190.503 315.476 191.691 314.436 192.88C313.396 194.068 312.356 195.182 311.316 196.222L311.242 196.371L301.659 187.828L307.899 180.772Z" fill="#EEBD37"/>
<path d="M310.666 189.573C322.591 176.24 329.606 163.059 326.334 160.133C323.062 157.206 310.742 165.642 298.817 178.975C286.892 192.308 279.877 205.489 283.149 208.415C286.421 211.342 298.741 202.906 310.666 189.573Z" fill="#FADE4B"/>
<path d="M323.424 163.39C323.796 163.835 324.018 164.504 323.87 165.395C323.796 165.172 323.647 164.875 323.498 164.727C321.121 162.275 310.796 169.555 300.471 180.92C291.929 190.28 286.06 199.565 285.615 203.873C284.649 200.456 290.889 190.057 300.397 179.509C310.722 168.144 321.047 160.864 323.424 163.39Z" fill="#E2A935"/>
<path opacity="0.5" d="M323.499 164.727C323.647 164.876 323.796 165.173 323.87 165.396C323.424 169.704 317.556 178.989 309.014 188.423C298.688 199.788 288.363 207.068 285.986 204.616C285.838 204.394 285.689 204.171 285.615 203.874C286.135 199.491 292.003 190.28 300.471 180.92C310.796 169.481 321.122 162.276 323.499 164.727Z" fill="#E2A935"/>
<g filter="url(#filter0_f)">
<path d="M68.4555 296.551L64.6379 296.942C63.0303 297.102 61.2532 294.645 59.7149 290.48C59.6727 290.442 59.6687 290.361 59.6687 290.361C58.967 288.417 58.2876 286.108 57.7153 283.511C57.673 283.473 57.7113 283.43 57.669 283.392C57.2011 281.274 56.8018 278.911 56.4368 276.425L56.4329 276.345C56.2966 275.22 56.1181 274.058 55.9779 272.853C55.8377 271.649 55.7398 270.482 55.6842 269.354L55.6379 269.235C55.4764 266.779 55.3994 264.4 55.411 262.178C55.4493 262.136 55.407 262.098 55.4453 262.056C55.4753 259.389 55.6401 256.998 55.9819 254.921C55.978 254.84 55.9779 254.84 56.0162 254.798C56.6497 250.445 57.8461 247.68 59.492 247.478L63.3096 247.088L68.4555 296.551Z" fill="#E2A935"/>
<path d="M63.9783 254.082L55.9019 254.925C55.898 254.844 55.898 254.844 55.9363 254.802C56.5697 250.449 57.7661 247.684 59.4121 247.482L63.2297 247.092L63.9783 254.082Z" fill="#E0A94D"/>
<path d="M64.7353 261.234L55.4119 262.178C55.4502 262.136 55.4079 262.098 55.4462 262.056C55.4762 259.388 55.641 256.997 55.9828 254.921C55.9788 254.84 55.9788 254.84 56.0171 254.798L64.013 253.959L64.7353 261.234Z" fill="#DC9A31"/>
<path d="M65.4881 268.305L55.6851 269.354L55.6389 269.235C55.4774 266.779 55.4004 264.4 55.412 262.178C55.4503 262.136 55.408 262.098 55.4463 262.056L64.7274 261.073L65.4881 268.305Z" fill="#E2A434"/>
<path d="M68.4563 296.551L64.6387 296.941C63.0311 297.102 61.254 294.645 59.7157 290.48C59.6734 290.442 59.6695 290.361 59.6695 290.361L67.7459 289.518L68.4563 296.551Z" fill="#E0A94D"/>
<path d="M67.7118 289.641L59.716 290.48C59.6737 290.442 59.6698 290.361 59.6698 290.361C58.968 288.417 58.2887 286.108 57.7163 283.511C57.6741 283.472 57.7123 283.43 57.6701 283.392L66.9935 282.447L67.7118 289.641Z" fill="#DC9A31"/>
<path d="M66.9973 282.528L57.7162 283.511C57.6739 283.472 57.7122 283.43 57.6699 283.392C57.202 281.274 56.8027 278.911 56.4378 276.425L56.4338 276.344L66.2367 275.295L66.9973 282.528Z" fill="#E2A434"/>
<path d="M66.2023 275.419L56.3993 276.468L56.3954 276.387C56.2592 275.263 56.0806 274.1 55.9404 272.896C55.8002 271.691 55.7023 270.524 55.6467 269.396L55.6004 269.277L65.4033 268.228L66.2023 275.419Z" fill="#EEBD37"/>
<path d="M59.766 272.455C61.2053 286.117 65.09 296.906 68.4429 296.553C71.7957 296.199 73.3469 284.838 71.9077 271.176C70.4684 257.514 66.5836 246.725 63.2308 247.078C59.8779 247.431 58.3267 258.793 59.766 272.455Z" fill="#FADE4B"/>
<path d="M68.0888 293.217C67.6436 293.199 67.1482 292.981 66.7175 292.437C66.8826 292.509 67.1284 292.578 67.2895 292.57C69.9104 292.481 71.0912 282.851 69.9469 271.114C69.0247 261.426 66.766 253.299 64.5437 250.823C66.9864 252.036 69.6878 260.949 70.7884 271.8C71.9328 283.537 70.7519 293.167 68.0888 293.217Z" fill="#E2A935"/>
<path opacity="0.5" d="M67.2911 292.57C67.1299 292.578 66.8842 292.509 66.7191 292.437C64.4968 289.961 62.2381 281.834 61.2736 272.107C60.1293 260.37 61.3102 250.74 63.931 250.651C64.1344 250.682 64.3379 250.712 64.5453 250.823C66.7715 253.379 68.988 261.468 69.9484 271.114C71.1351 282.889 69.9119 292.481 67.2911 292.57Z" fill="#E2A935"/>
</g>
<defs>
<filter id="filter0_f" x="34.4679" y="243.069" width="58.2797" height="58.0447" filterUnits="userSpaceOnUse" color-interpolation-filters="sRGB">
<feFlood flood-opacity="0" result="BackgroundImageFix"/>
<feBlend mode="normal" in="SourceGraphic" in2="BackgroundImageFix" result="shape"/>
<feGaussianBlur stdDeviation="1" result="effect1_foregroundBlur"/>
</filter>
<linearGradient id="paint0_linear" x1="193.926" y1="261.513" x2="198.279" y2="295.598" gradientUnits="userSpaceOnUse">
<stop stop-color="#628454"/>
<stop offset="1" stop-color="#5E9735"/>
</linearGradient>
<linearGradient id="paint1_linear" x1="205.692" y1="265.289" x2="190.477" y2="285.367" gradientUnits="userSpaceOnUse">
<stop stop-color="#B6CF65"/>
<stop offset="1" stop-color="#A0BB49"/>
</linearGradient>
<linearGradient id="paint2_linear" x1="205.739" y1="265.326" x2="190.526" y2="285.402" gradientUnits="userSpaceOnUse">
<stop stop-color="#B6CF65"/>
<stop offset="1" stop-color="#A0BB49"/>
</linearGradient>
<linearGradient id="paint3_linear" x1="252.865" y1="221.794" x2="270.457" y2="266.456" gradientUnits="userSpaceOnUse">
<stop stop-color="#628454"/>
<stop offset="1" stop-color="#5E9735"/>
</linearGradient>
<linearGradient id="paint4_linear" x1="255.605" y1="215.46" x2="263.485" y2="266.625" gradientUnits="userSpaceOnUse">
<stop stop-color="#B6CF65"/>
<stop offset="1" stop-color="#A0BB49"/>
</linearGradient>
<linearGradient id="paint5_linear" x1="256.591" y1="215.307" x2="264.471" y2="266.472" gradientUnits="userSpaceOnUse">
<stop stop-color="#B6CF65"/>
<stop offset="1" stop-color="#A0BB49"/>
</linearGradient>
<linearGradient id="paint6_linear" x1="202.959" y1="45.9734" x2="182.589" y2="77.2072" gradientUnits="userSpaceOnUse">
<stop stop-color="#628454"/>
<stop offset="1" stop-color="#5E9735"/>
</linearGradient>
<linearGradient id="paint7_linear" x1="208.203" y1="44.8586" x2="179.346" y2="72.8672" gradientUnits="userSpaceOnUse">
<stop stop-color="#B6CF65"/>
<stop offset="1" stop-color="#A0BB49"/>
</linearGradient>
<linearGradient id="paint8_linear" x1="208.743" y1="45.4149" x2="179.886" y2="73.4236" gradientUnits="userSpaceOnUse">
<stop stop-color="#B6CF65"/>
<stop offset="1" stop-color="#A0BB49"/>
</linearGradient>
<linearGradient id="paint9_linear" x1="255.171" y1="109.958" x2="294.88" y2="109.958" gradientUnits="userSpaceOnUse">
<stop stop-color="#628454"/>
<stop offset="1" stop-color="#5E9735"/>
</linearGradient>
<linearGradient id="paint10_linear" x1="281.712" y1="96.5984" x2="272.037" y2="121.492" gradientUnits="userSpaceOnUse">
<stop stop-color="#B6CF65"/>
<stop offset="1" stop-color="#A0BB49"/>
</linearGradient>
<linearGradient id="paint11_linear" x1="280.659" y1="96.1893" x2="270.984" y2="121.083" gradientUnits="userSpaceOnUse">
<stop stop-color="#B6CF65"/>
<stop offset="1" stop-color="#A0BB49"/>
</linearGradient>
<linearGradient id="paint12_linear" x1="351.28" y1="195.544" x2="328.918" y2="262.024" gradientUnits="userSpaceOnUse">
<stop stop-color="#628454"/>
<stop offset="1" stop-color="#5E9735"/>
</linearGradient>
<linearGradient id="paint13_linear" x1="350.126" y1="195.372" x2="338.643" y2="241.908" gradientUnits="userSpaceOnUse">
<stop stop-color="#B6CF65"/>
<stop offset="1" stop-color="#A0BB49"/>
</linearGradient>
<linearGradient id="paint14_linear" x1="350.998" y1="195.587" x2="339.515" y2="242.123" gradientUnits="userSpaceOnUse">
<stop stop-color="#B6CF65"/>
<stop offset="1" stop-color="#A0BB49"/>
</linearGradient>
<linearGradient id="paint15_linear" x1="75.1254" y1="215.29" x2="53.0721" y2="249.105" gradientUnits="userSpaceOnUse">
<stop stop-color="#628454"/>
<stop offset="1" stop-color="#5E9735"/>
</linearGradient>
<linearGradient id="paint16_linear" x1="80.8031" y1="214.083" x2="49.5609" y2="244.407" gradientUnits="userSpaceOnUse">
<stop stop-color="#B6CF65"/>
<stop offset="1" stop-color="#A0BB49"/>
</linearGradient>
<linearGradient id="paint17_linear" x1="81.3884" y1="214.685" x2="50.1461" y2="245.009" gradientUnits="userSpaceOnUse">
<stop stop-color="#B6CF65"/>
<stop offset="1" stop-color="#A0BB49"/>
</linearGradient>
<linearGradient id="paint18_linear" x1="84.0767" y1="254.011" x2="123.638" y2="295.914" gradientUnits="userSpaceOnUse">
<stop stop-color="#628454"/>
<stop offset="1" stop-color="#5E9735"/>
</linearGradient>
<linearGradient id="paint19_linear" x1="72.1398" y1="279.094" x2="118.981" y2="272.936" gradientUnits="userSpaceOnUse">
<stop stop-color="#B6CF65"/>
<stop offset="1" stop-color="#A0BB49"/>
</linearGradient>
<linearGradient id="paint20_linear" x1="72.2787" y1="280.152" x2="119.12" y2="273.994" gradientUnits="userSpaceOnUse">
<stop stop-color="#B6CF65"/>
<stop offset="1" stop-color="#A0BB49"/>
</linearGradient>
<linearGradient id="paint21_linear" x1="54.9126" y1="61.1264" x2="54.9828" y2="18.8395" gradientUnits="userSpaceOnUse">
<stop stop-color="#628454"/>
<stop offset="1" stop-color="#5E9735"/>
</linearGradient>
<linearGradient id="paint22_linear" x1="21.6543" y1="40.7091" x2="52.587" y2="35.1147" gradientUnits="userSpaceOnUse">
<stop stop-color="#B6CF65"/>
<stop offset="1" stop-color="#A0BB49"/>
</linearGradient>
<linearGradient id="paint23_linear" x1="-0.531805" y1="134.276" x2="61.7955" y2="165.759" gradientUnits="userSpaceOnUse">
<stop stop-color="#628454"/>
<stop offset="1" stop-color="#5E9735"/>
</linearGradient>
<linearGradient id="paint24_linear" x1="-3.68593" y1="124.745" x2="54.386" y2="172.689" gradientUnits="userSpaceOnUse">
<stop stop-color="#B6CF65"/>
<stop offset="1" stop-color="#A0BB49"/>
</linearGradient>
<linearGradient id="paint25_linear" x1="-2.76247" y1="123.626" x2="55.3094" y2="171.57" gradientUnits="userSpaceOnUse">
<stop stop-color="#B6CF65"/>
<stop offset="1" stop-color="#A0BB49"/>
</linearGradient>
<linearGradient id="paint26_linear" x1="58.9832" y1="122.088" x2="92.3431" y2="163.51" gradientUnits="userSpaceOnUse">
<stop stop-color="#628454"/>
<stop offset="1" stop-color="#5E9735"/>
</linearGradient>
<linearGradient id="paint27_linear" x1="59.1584" y1="115.524" x2="88.783" y2="161.726" gradientUnits="userSpaceOnUse">
<stop stop-color="#B6CF65"/>
<stop offset="1" stop-color="#A0BB49"/>
</linearGradient>
<linearGradient id="paint28_linear" x1="58.6942" y1="115.822" x2="88.3189" y2="162.024" gradientUnits="userSpaceOnUse">
<stop stop-color="#B6CF65"/>
<stop offset="1" stop-color="#A0BB49"/>
</linearGradient>
<linearGradient id="paint29_linear" x1="93.2087" y1="76.1085" x2="167.536" y2="68.2901" gradientUnits="userSpaceOnUse">
<stop stop-color="#628454"/>
<stop offset="1" stop-color="#5E9735"/>
</linearGradient>
<linearGradient id="paint30_linear" x1="101.991" y1="50.7062" x2="144.91" y2="84.7575" gradientUnits="userSpaceOnUse">
<stop stop-color="#B6CF65"/>
<stop offset="1" stop-color="#A0BB49"/>
</linearGradient>
<linearGradient id="paint31_linear" x1="102.073" y1="50.6033" x2="144.992" y2="84.6545" gradientUnits="userSpaceOnUse">
<stop stop-color="#B6CF65"/>
<stop offset="1" stop-color="#A0BB49"/>
</linearGradient>
<linearGradient id="paint32_linear" x1="212.243" y1="56.4992" x2="269.683" y2="23.875" gradientUnits="userSpaceOnUse">
<stop stop-color="#628454"/>
<stop offset="1" stop-color="#5E9735"/>
</linearGradient>
<linearGradient id="paint33_linear" x1="220.643" y1="45.6323" x2="263.333" y2="21.3857" gradientUnits="userSpaceOnUse">
<stop stop-color="#B6CF65"/>
<stop offset="1" stop-color="#A0BB49"/>
</linearGradient>
<linearGradient id="paint34_linear" x1="143.255" y1="258.885" x2="147.52" y2="311.679" gradientUnits="userSpaceOnUse">
<stop stop-color="#628454"/>
<stop offset="1" stop-color="#5E9735"/>
</linearGradient>
<linearGradient id="paint35_linear" x1="148.309" y1="268.669" x2="151.479" y2="307.906" gradientUnits="userSpaceOnUse">
<stop stop-color="#B6CF65"/>
<stop offset="1" stop-color="#A0BB49"/>
</linearGradient>
<linearGradient id="paint36_linear" x1="295.988" y1="27.9896" x2="364.576" y2="57.678" gradientUnits="userSpaceOnUse">
<stop stop-color="#628454"/>
<stop offset="1" stop-color="#5E9735"/>
</linearGradient>
<linearGradient id="paint37_linear" x1="316.113" y1="10.1737" x2="336.78" y2="60.9124" gradientUnits="userSpaceOnUse">
<stop stop-color="#B6CF65"/>
<stop offset="1" stop-color="#A0BB49"/>
</linearGradient>
<linearGradient id="paint38_linear" x1="316.235" y1="10.1244" x2="336.902" y2="60.8631" gradientUnits="userSpaceOnUse">
<stop stop-color="#B6CF65"/>
<stop offset="1" stop-color="#A0BB49"/>
</linearGradient>
<linearGradient id="paint39_linear" x1="355.646" y1="91.0165" x2="285.153" y2="142.857" gradientUnits="userSpaceOnUse">
<stop stop-color="#628454"/>
<stop offset="1" stop-color="#5E9735"/>
</linearGradient>
<linearGradient id="paint40_linear" x1="354.591" y1="90.0145" x2="309.504" y2="129.293" gradientUnits="userSpaceOnUse">
<stop stop-color="#B6CF65"/>
<stop offset="1" stop-color="#A0BB49"/>
</linearGradient>
<linearGradient id="paint41_linear" x1="355.327" y1="90.8593" x2="310.24" y2="130.138" gradientUnits="userSpaceOnUse">
<stop stop-color="#B6CF65"/>
<stop offset="1" stop-color="#A0BB49"/>
</linearGradient>
<linearGradient id="paint42_linear" x1="252.014" y1="119.833" x2="280.293" y2="143.299" gradientUnits="userSpaceOnUse">
<stop stop-color="#628454"/>
<stop offset="1" stop-color="#5E9735"/>
</linearGradient>
<linearGradient id="paint43_linear" x1="280.35" y1="117.656" x2="258.517" y2="148.686" gradientUnits="userSpaceOnUse">
<stop stop-color="#B6CF65"/>
<stop offset="1" stop-color="#A0BB49"/>
</linearGradient>
<linearGradient id="paint44_linear" x1="279.226" y1="116.865" x2="257.393" y2="147.896" gradientUnits="userSpaceOnUse">
<stop stop-color="#B6CF65"/>
<stop offset="1" stop-color="#A0BB49"/>
</linearGradient>
<linearGradient id="paint45_linear" x1="14.2419" y1="227.215" x2="71.5715" y2="254.418" gradientUnits="userSpaceOnUse">
<stop stop-color="#628454"/>
<stop offset="1" stop-color="#5E9735"/>
</linearGradient>
<linearGradient id="paint46_linear" x1="12.0086" y1="257.721" x2="57.6177" y2="232.698" gradientUnits="userSpaceOnUse">
<stop stop-color="#B6CF65"/>
<stop offset="1" stop-color="#A0BB49"/>
</linearGradient>
<linearGradient id="paint47_linear" x1="12.5736" y1="258.752" x2="58.1827" y2="233.728" gradientUnits="userSpaceOnUse">
<stop stop-color="#B6CF65"/>
<stop offset="1" stop-color="#A0BB49"/>
</linearGradient>
<clipPath id="clip0">
<rect width="204.797" height="204.797" fill="white" transform="translate(61.0293 88.243) rotate(-11.0308)"/>
</clipPath>
</defs>
</svg>
