<svg width="97" height="90" viewBox="0 0 97 90" fill="none" xmlns="http://www.w3.org/2000/svg">
<path d="M21.273 12.6638C21.273 12.6638 60.8911 49.2213 65.3207 88.8278L82.8478 66.6517C82.8478 66.6517 71.2211 31.6467 49.6429 13.6775L21.273 12.6638Z" fill="#5EAB90"/>
<path d="M70.0064 75.8534L77.3094 67.418C76.9729 65.6874 76.8371 63.7529 77.137 61.6071C77.1879 61.1255 77.2501 60.7094 77.3509 60.3204C73.6652 51.41 64.8662 32.1845 52.5966 19.9474C49.9921 19.7277 47.8865 18.3066 46.2437 16.6357L34.7954 16.815C35.6676 18.5194 36.2121 20.2812 36.0784 22.0265C44.5268 30.9479 60.7583 50.3926 65.6642 73.034C67.0851 73.6295 68.5249 74.5256 70.0064 75.8534ZM56.5039 45.5658C51.5436 38.6341 49.201 30.8393 51.3396 28.203C53.4783 25.5668 59.2144 29.0202 64.2132 35.979C69.1735 42.9107 71.5161 50.7055 69.3775 53.3418C67.2388 55.978 61.4642 52.4976 56.5039 45.5658Z" fill="#A5D8C6"/>
<path d="M62.4107 38.219C59.2423 33.81 55.7395 31.3502 54.6354 32.7588C53.5312 34.1674 55.1656 38.8786 58.3341 43.2876C61.5025 47.6966 65.0053 50.1564 66.1095 48.7478C67.2521 47.3662 65.5792 42.628 62.4107 38.219Z" fill="#A5D8C6"/>
</svg>
