<svg width="329" height="374" viewBox="0 0 329 374" fill="none" xmlns="http://www.w3.org/2000/svg">
<path d="M148.868 224.275C148.868 224.067 150.013 200.466 138.638 195.017L139.436 194.254C144.638 196.093 150.429 201.716 152.752 209.663C154.486 215.564 153.169 216.882 153.169 217.091L148.868 224.275Z" fill="#7ED7D9"/>
<path d="M119.114 177.525C119.114 177.525 117.796 189.672 124.177 194.844C130.523 200.015 142.141 196.232 142.141 196.232C142.141 196.232 143.458 184.085 137.078 178.913C130.697 173.742 119.114 177.525 119.114 177.525Z" fill="#7ED7D9"/>
<path d="M146.892 268.561C146.684 267.381 142.557 239.581 153.065 208.588C163.156 178.809 157.573 153.577 157.538 153.334H164.959C165.168 154.41 165.653 179.191 157.746 213.134C150.637 243.676 163.919 268.561 161.11 268.561H146.892Z" fill="#7ED7D9"/>
<path d="M162.532 186.479C162.567 186.306 166.104 165.968 175.675 163.642C171.41 164.198 166 167.252 162.948 172.944C160.694 177.178 161.492 178.358 161.457 178.532L162.532 186.479Z" fill="#7ED7D9"/>
<path d="M124.316 132.476C124.316 132.476 114.016 117.934 102.329 113.665C102.329 113.665 106.699 147.781 100.318 148.198C93.9368 148.614 98.2023 109.812 98.2023 109.812C98.2023 109.812 67.7541 92.8753 55.3737 93.3612C55.3737 93.3612 72.8866 127.443 66.575 126.298C60.2634 125.118 40.3924 90.5152 40.3924 90.5152C40.3924 90.5152 8.62637 82.6715 2.34946 101.413C-3.92744 120.155 3.84066 130.185 8.55701 131.643C13.2387 133.1 43.8256 134.523 42.7852 138.445C41.7448 142.367 20.764 147.504 9.45866 143.27C9.45866 143.27 20.3132 175.373 37.0632 174.783C53.8131 174.159 59.5699 164.163 69.9389 163.955C80.3079 163.781 87.6599 166.974 82.354 169.473C77.0481 171.937 59.6739 169.057 50.9348 175.651C42.1957 182.245 35.1905 186.236 50.484 190.297C65.7774 194.358 88.839 189.777 99.7975 182.453C99.8322 182.419 108.745 181.725 115.785 223.095C118.49 239.06 116.409 262.73 116.409 262.73L122.096 261.863C125.252 215.46 108.502 176.9 108.502 176.9C108.502 176.9 136.869 155.903 124.316 132.476Z" fill="#7ED7D9"/>
<path d="M217.151 193.698C217.151 193.698 182.958 179.33 195.2 153.161C195.2 153.161 205.499 136.779 217.949 131.469C217.949 131.469 215.209 168.71 222.18 168.814C229.15 168.918 222.249 127.096 222.249 127.096C222.249 127.096 254.293 106.966 267.713 106.723C267.713 106.723 250.721 144.727 257.483 143.096C264.246 141.465 283.735 102.732 283.735 102.732C283.735 102.732 317.721 92.3547 325.627 112.311C333.534 132.267 325.697 143.582 320.703 145.456C315.709 147.33 282.625 150.627 283.978 154.827C285.33 159.026 308.392 163.365 320.391 158.089C320.391 158.089 310.507 193.56 292.301 193.872C274.094 194.184 267.263 183.668 256.027 184.085C244.791 184.501 236.988 188.423 242.883 190.783C248.813 193.143 267.436 189.013 277.32 195.642C287.203 202.271 295.006 206.193 278.672 211.503C262.338 216.813 232.098 218.097 224.607 205.88C217.151 193.698 217.151 193.698 217.151 193.698Z" fill="#7ED7D9"/>
<path d="M310.473 120.537C310.473 120.537 223.74 159.929 217.117 193.698C217.117 193.698 219.197 208.241 212.088 226.01L212.816 232.431C212.816 232.431 219.787 209.49 224.573 205.881C224.607 205.881 201.234 179.85 310.473 120.537Z" fill="#70C3C4"/>
<path d="M212.123 225.976C212.123 225.976 200.609 248.639 211.429 273.455L214.897 272.101C214.897 272.101 208.239 244.197 213.892 229.134C219.544 214.071 212.123 225.976 212.123 225.976Z" fill="#70C3C4"/>
<path d="M86.7583 37.9345C100.769 52.8584 93.486 82.4979 93.486 82.4979C93.486 82.4979 63.454 87.9469 49.4436 73.023C35.4333 58.0991 42.7159 28.4595 42.7159 28.4595C42.7159 28.4595 72.7479 22.9758 86.7583 37.9345Z" fill="#70C3C5"/>
<path d="M86.7583 37.9345C100.769 52.8584 93.486 82.498 93.486 82.498L42.7159 28.4248C42.7159 28.4248 72.748 22.9759 86.7583 37.9345Z" fill="#7ED7D9"/>
<path d="M267.505 94.7842C260.188 103.253 243.681 100.997 243.681 100.997C243.681 100.997 238.999 84.9621 246.316 76.4937C253.634 68.0252 270.141 70.2812 270.141 70.2812C270.141 70.2812 274.823 86.281 267.505 94.7842Z" fill="#7ED7D9"/>
<path d="M181.085 169.369C176.196 170.722 170.508 165.69 170.508 165.69C170.508 165.69 172.797 158.436 177.687 157.083C182.576 155.729 188.264 160.762 188.264 160.762C188.264 160.762 185.975 168.015 181.085 169.369Z" fill="#7ED7D9"/>
<path d="M94.4917 10.2385C97.8555 18.221 90.6076 28.876 90.6076 28.876C90.6076 28.876 77.9151 26.6201 74.5512 18.6375C71.1874 10.6897 78.4353 0 78.4353 0C78.4353 0 91.1278 2.25594 94.4917 10.2385Z" fill="#7ED7D9"/>
<path d="M221.66 261.307V261.377L220.168 284.318L214.62 369.454H111.103L104.999 285.463L103.335 262.348L103.265 261.307H221.66Z" fill="#0D8284"/>
<path d="M221.66 261.377L220.169 284.318C212.366 281.611 190.691 275.051 162.463 275.051C126.813 275.051 105.034 285.463 105.034 285.463L103.37 262.314L221.66 261.377Z" fill="#0C6E70"/>
<path d="M225.232 273.455H99.4854L98.0636 258.808H226.827L225.232 273.455Z" fill="#0D8284"/>
<path d="M216.215 374H108.883L107.635 368.898H217.568L216.215 374Z" fill="#0C6E70"/>
<g clip-path="url(#clip0)">
<path d="M197.467 157.776C236.342 141.096 254.684 95.1981 238.433 55.2598C222.182 15.3215 177.494 -3.53308 138.618 13.147C99.7421 29.8271 81.4008 75.7253 97.6514 115.664C113.902 155.602 158.591 174.457 197.467 157.776Z" fill="#EAB726"/>
<path d="M173.703 163.766C172.616 163.942 171.522 164.1 170.42 164.23C170.047 164.273 169.674 164.315 169.304 164.35C168.457 164.436 167.615 164.51 166.768 164.573C126.383 167.347 90.584 137.036 85.9158 95.2835C81.4599 55.4602 106.901 19.1954 143.939 10.1393C146.893 9.41477 149.92 8.86694 153.011 8.50242C154.118 8.36963 155.228 8.26703 156.329 8.18531C157.402 8.10583 158.473 8.05066 159.541 8.01807C162.811 7.91928 166.041 8.03802 169.227 8.36255C173.963 8.83845 178.591 9.76178 183.065 11.1077C196.939 15.2731 209.317 23.4082 218.796 34.3746C228.856 46.0054 235.653 60.8171 237.511 77.4475C242.19 119.316 213.839 157.252 173.703 163.766Z" fill="#FFEB4D"/>
<path d="M135.944 152.305C130.042 149.815 124.449 146.455 119.316 142.264C105.016 130.596 95.9935 113.909 93.9103 95.2755C91.8271 76.6422 96.9328 58.2902 108.288 43.6044C119.643 28.9186 135.885 19.6562 154.025 17.5222C191.476 13.1144 225.439 40.827 229.738 79.296C234.037 117.765 207.073 152.646 169.624 157.049C157.992 158.411 146.477 156.749 135.944 152.305ZM186.97 24.045C176.933 19.8105 165.755 18.0412 154.231 19.3949C136.58 21.4716 120.775 30.4841 109.726 44.7722C98.6772 59.0603 93.7112 76.92 95.7384 95.0515C97.7656 113.183 106.544 129.421 120.458 140.775C134.371 152.129 151.759 157.236 169.41 155.159C205.849 150.871 232.089 116.933 227.903 79.5023C225.042 53.9105 208.681 33.2051 186.97 24.045Z" fill="#EAB726"/>
<path d="M154.434 51.6074V120.077C154.434 126.179 149.633 131.112 143.695 131.112C137.757 131.112 132.955 126.179 132.955 120.077V51.6074C132.955 45.5061 137.757 40.5723 143.695 40.5723C149.633 40.5723 154.434 45.5061 154.434 51.6074Z" fill="#EAB726"/>
<path d="M164.551 95.5592L156.047 81.4735V79.854C159.492 78.1592 162.388 76.2008 164.917 73.9787L164.551 95.5592Z" fill="#EAB726"/>
<path d="M164.736 74.0164C171.81 67.7645 175.585 59.4034 178.481 48.4061C179.69 43.7736 183.759 40.5723 188.414 40.5723C195.415 40.5723 200.363 47.5775 198.237 54.432C193.362 69.9489 186.728 77.5943 179.287 83.5073L199.63 115.294C203.955 122.073 199.226 131.112 191.309 131.112C187.864 131.112 184.675 129.267 182.879 126.292L164.332 95.5592L164.736 74.0164Z" fill="#EAB726"/>
</g>
<defs>
<clipPath id="clip0">
<rect width="160" height="160" fill="white" transform="translate(85 5.80225)"/>
</clipPath>
</defs>
</svg>
