<svg width="21" height="21" viewBox="0 0 21 21" fill="none" xmlns="http://www.w3.org/2000/svg">
<path d="M10.7959 0.983398C5.2819 0.983398 0.795898 5.4694 0.795898 10.9834C0.795898 16.4974 5.2819 20.9834 10.7959 20.9834C16.3099 20.9834 20.7959 16.4974 20.7959 10.9834C20.7959 5.4694 16.3099 0.983398 10.7959 0.983398ZM8.7969 15.3964L5.79135 12.3973C5.4006 12.0074 5.39981 11.3746 5.78959 10.9837C6.17961 10.5926 6.81291 10.5919 7.20383 10.9821L8.7949 12.5704L13.3819 7.9834C13.7724 7.59293 14.4054 7.59293 14.7959 7.9834C15.1864 8.37386 15.1864 9.00693 14.7959 9.3974L8.7969 15.3964Z" fill="#0D8284"/>
</svg>
