<svg width="24" height="23" viewBox="0 0 24 23" fill="none" xmlns="http://www.w3.org/2000/svg">
<path fill-rule="evenodd" clip-rule="evenodd" d="M2.21383 4.10474e-08H22.6757C23.3766 -0.000176299 23.945 0.56784 23.9453 1.26852V21.7304V21.731C23.9451 22.432 23.3768 23.0002 22.6757 23H17.1096V14.2523H20.1082L20.5574 10.7709H17.1096V8.55358C17.1096 7.54793 17.3888 6.86269 18.8309 6.86269H20.6585V3.7573C20.3405 3.71501 19.2496 3.62042 17.9802 3.62042C15.3298 3.62042 13.5159 5.23761 13.5159 8.20877V10.7709H10.5286V14.2523H13.5159V23H2.21488C1.51403 23.0002 0.945663 22.4322 0.945313 21.7315V1.26957C0.945136 0.568717 1.51315 0.000350129 2.21383 4.10474e-08Z" fill="white"/>
</svg>
