<svg width="72" height="49" viewBox="0 0 72 49" fill="none" xmlns="http://www.w3.org/2000/svg">
<path d="M12.439 6.30437V42.668C12.439 45.904 9.80702 48.5276 6.56079 48.5276C3.31457 48.5276 0.682617 45.904 0.682617 42.668V6.30437C0.682617 3.06836 3.31457 0.444702 6.56079 0.444702C9.80822 0.444702 12.439 3.06836 12.439 6.30437Z" fill="#20A2A5"/>
<path d="M33.1131 48.5276C31.2308 48.5276 29.4825 47.5572 28.4911 45.9625L13.8417 22.4068C13.7483 22.2576 13.6992 22.0845 13.6992 21.9079C13.6992 21.551 13.9064 21.2275 14.2249 21.0651C21.0898 17.5713 24.0079 12.256 26.1082 4.48524C26.7512 2.10866 28.897 0.444702 31.3661 0.444702H31.7984C35.4625 0.444702 38.098 3.99106 36.9928 7.47416C34.3082 15.9336 30.6464 20.047 26.5237 23.2436L37.6574 40.1291C40.0343 43.7327 37.4406 48.5276 33.1131 48.5276Z" fill="#67BE9F"/>
<path d="M70.0897 21.946L55.8786 10.6779C54.4728 9.56299 52.5462 11.1744 53.4035 12.7477L59.3679 23.7019C59.6338 24.1913 59.6338 24.7809 59.3679 25.2703L53.4035 36.2245C52.5474 37.7978 54.4728 39.4092 55.8786 38.2943L70.0897 27.0262C71.7278 25.7263 71.7278 23.2459 70.0897 21.946Z" fill="#22A1A4"/>
<path d="M64.5264 22.2874L49.8855 10.6767C48.4797 9.5618 46.553 11.1732 47.4104 12.7465L53.3748 23.7007C53.6406 24.1901 53.6406 24.7798 53.3748 25.2692L47.4104 36.2234C46.5542 37.7966 48.4797 39.408 49.8855 38.2932L64.5264 26.6824C65.9454 25.5592 65.9454 23.413 64.5264 22.2874Z" fill="#67BD9E"/>
</svg>
