<svg width="18" height="19" viewBox="0 0 18 19" fill="none" xmlns="http://www.w3.org/2000/svg">
<path d="M5.82796 2.5499V15.1544C5.82796 16.276 4.91566 17.1855 3.79044 17.1855C2.66522 17.1855 1.75293 16.276 1.75293 15.1544V2.5499C1.75293 1.42822 2.66522 0.518799 3.79044 0.518799C4.91608 0.518799 5.82796 1.42822 5.82796 2.5499Z" fill="#F8FAFB"/>
<path d="M12.994 17.1855C12.3415 17.1855 11.7355 16.8491 11.3918 16.2963L6.31404 8.13138C6.28167 8.07966 6.26465 8.01967 6.26465 7.95843C6.26465 7.83472 6.33645 7.7226 6.44686 7.66633C8.82638 6.45528 9.83787 4.61285 10.5659 1.91934C10.7888 1.09557 11.5325 0.518799 12.3884 0.518799H12.5382C13.8083 0.518799 14.7218 1.74805 14.3387 2.95537C13.4082 5.88762 12.1389 7.3134 10.7099 8.42142L14.5691 14.2743C15.393 15.5234 14.494 17.1855 12.994 17.1855Z" fill="#F8FAFB"/>
</svg>
