<svg width="24" height="23" viewBox="0 0 24 23" fill="none" xmlns="http://www.w3.org/2000/svg">
<g clip-path="url(#clip0_10164_26857)">
<path d="M21.8101 0H2.97116C1.82213 0 0.890625 0.9315 0.890625 2.08054V20.9194C0.890625 22.0685 1.82213 23 2.97116 23H21.81C22.9591 23 23.8906 22.0685 23.8906 20.9194V2.08054C23.8906 0.9315 22.9591 0 21.8101 0ZM8.0078 19.8597C8.0078 20.1941 7.73674 20.4652 7.40233 20.4652H4.82501C4.49061 20.4652 4.21954 20.1941 4.21954 19.8597V9.05568C4.21954 8.72127 4.49061 8.45021 4.82501 8.45021H7.40233C7.73674 8.45021 8.0078 8.72127 8.0078 9.05568V19.8597ZM6.11367 7.43177C4.76143 7.43177 3.6652 6.33554 3.6652 4.98329C3.6652 3.63105 4.76143 2.53482 6.11367 2.53482C7.46592 2.53482 8.56215 3.63105 8.56215 4.98329C8.56215 6.33554 7.46598 7.43177 6.11367 7.43177ZM21.4768 19.9085C21.4768 20.2159 21.2276 20.4652 20.9201 20.4652H18.1545C17.847 20.4652 17.5978 20.2159 17.5978 19.9085V14.8408C17.5978 14.0848 17.8195 11.528 15.6221 11.528C13.9177 11.528 13.5719 13.278 13.5025 14.0634V19.9085C13.5025 20.2159 13.2533 20.4652 12.9458 20.4652H10.271C9.96352 20.4652 9.71426 20.2159 9.71426 19.9085V9.00691C9.71426 8.69948 9.96352 8.45021 10.271 8.45021H12.9458C13.2532 8.45021 13.5025 8.69948 13.5025 9.00691V9.94949C14.1345 9.00101 15.0738 8.26892 17.0737 8.26892C21.5022 8.26892 21.4768 12.4063 21.4768 14.6795V19.9085Z" fill="white"/>
</g>
<defs>
<clipPath id="clip0_10164_26857">
<rect width="23" height="23" fill="white" transform="translate(0.890625)"/>
</clipPath>
</defs>
</svg>
