<svg width="1246" height="944" viewBox="0 0 1246 944" fill="none" xmlns="http://www.w3.org/2000/svg">
<path d="M859.739 564.225C835.762 522.694 870.564 471.894 917.951 479.253C925.304 480.396 932.827 478.99 939.272 475.269L1026.76 424.76C1064.08 403.212 1090.94 367.317 1101.1 325.436C1105 309.367 1126.5 306.273 1134.77 320.592L1214.59 458.843C1231.58 488.278 1220.36 525.947 1190.02 541.276L1087.92 592.873L991.643 655.578C960.383 675.938 918.441 665.899 899.788 633.591L859.739 564.225Z" fill="#0A686A"/>
<path d="M59.7394 284.225C35.7617 242.694 70.5636 191.894 117.951 199.253V199.253C125.304 200.396 132.827 198.99 139.272 195.269L226.756 144.76C264.078 123.212 290.945 87.3174 301.099 45.4356V45.4356C304.995 29.3669 326.503 26.273 334.77 40.5922L414.59 178.843C431.584 208.278 420.358 245.947 390.022 261.276L287.917 312.873L191.643 375.578C160.383 395.938 118.441 385.899 99.7883 353.591L59.7394 284.225Z" fill="#0A686A"/>
<path d="M325.125 689.305C344.827 655.182 395.272 659.076 409.502 695.818C411.711 701.52 415.802 706.295 421.097 709.353L492.978 750.853C523.643 768.558 560.222 772.929 594.195 762.948C607.23 759.119 618.267 773.153 611.474 784.918L545.891 898.511C531.928 922.696 500.513 930.183 477.142 914.895L398.481 863.437L314.31 820.693C286.981 806.814 276.894 772.845 292.219 746.3L325.125 689.305Z" fill="#0A686A"/>
</svg>
