<svg width="229" height="76" viewBox="0 0 229 76" fill="none" xmlns="http://www.w3.org/2000/svg">
<rect x="1.09277" y="1.41553" width="227" height="74" rx="7.5" fill="#1A1A1A" stroke="#EEEEEE"/>
<path d="M82.652 25.5605V15.5545H86.5686C87.2833 15.5545 87.9265 15.6736 88.4983 15.9118C89.0796 16.1501 89.5751 16.4931 89.9849 16.941C90.3947 17.3889 90.7092 17.9178 90.9283 18.5277C91.1475 19.1376 91.2571 19.8142 91.2571 20.5575C91.2571 21.3008 91.1475 21.9821 90.9283 22.6015C90.7092 23.2114 90.3947 23.7403 89.9849 24.1882C89.5847 24.6266 89.0939 24.9649 88.5126 25.2031C87.9313 25.4413 87.2833 25.5605 86.5686 25.5605H82.652ZM84.1957 24.2311L84.1529 24.0739H86.4971C87.0022 24.0739 87.4501 23.9929 87.8408 23.8308C88.241 23.6688 88.5745 23.4401 88.8414 23.1447C89.1177 22.8398 89.3274 22.4681 89.4703 22.0298C89.6133 21.5914 89.6847 21.1006 89.6847 20.5575C89.6847 20.0143 89.6133 19.5283 89.4703 19.0994C89.3274 18.6611 89.1177 18.2894 88.8414 17.9845C88.565 17.6795 88.2315 17.4461 87.8408 17.2841C87.4501 17.1221 87.0022 17.0411 86.4971 17.0411H84.11L84.1957 16.9124V24.2311ZM93.2161 25.5605V18.056H94.6884V25.5605H93.2161ZM93.9308 16.3978C93.6163 16.3978 93.3733 16.3168 93.2018 16.1548C93.0303 15.9928 92.9445 15.7641 92.9445 15.4687C92.9445 15.1923 93.0303 14.9684 93.2018 14.7969C93.3829 14.6253 93.6259 14.5396 93.9308 14.5396C94.2453 14.5396 94.4883 14.6206 94.6598 14.7826C94.8313 14.9446 94.9171 15.1733 94.9171 15.4687C94.9171 15.7451 94.8266 15.969 94.6455 16.1405C94.474 16.3121 94.2357 16.3978 93.9308 16.3978ZM99.453 25.7034C98.824 25.7034 98.257 25.5938 97.752 25.3746C97.2469 25.1555 96.8276 24.8314 96.4941 24.4026L97.4947 23.545C97.7805 23.8785 98.0903 24.1215 98.4238 24.274C98.7668 24.4169 99.1528 24.4884 99.5816 24.4884C99.7532 24.4884 99.9104 24.4693 100.053 24.4312C100.206 24.3836 100.334 24.3169 100.439 24.2311C100.554 24.1453 100.639 24.0453 100.697 23.9309C100.754 23.807 100.782 23.6736 100.782 23.5307C100.782 23.2829 100.692 23.0828 100.511 22.9303C100.415 22.8636 100.263 22.7921 100.053 22.7159C99.8532 22.6301 99.5912 22.5444 99.2671 22.4586C98.7144 22.3157 98.2618 22.1537 97.9092 21.9726C97.5566 21.7915 97.285 21.5866 97.0944 21.3579C96.9515 21.1769 96.8466 20.9815 96.7799 20.7719C96.7132 20.5527 96.6799 20.3145 96.6799 20.0572C96.6799 19.7427 96.7466 19.4568 96.88 19.1995C97.0229 18.9327 97.2135 18.704 97.4518 18.5134C97.6995 18.3133 97.9854 18.1608 98.3094 18.056C98.643 17.9511 98.9956 17.8987 99.3672 17.8987C99.7198 17.8987 100.068 17.9464 100.411 18.0417C100.763 18.137 101.087 18.2751 101.383 18.4562C101.678 18.6373 101.926 18.8517 102.126 19.0994L101.283 20.0286C101.102 19.8475 100.901 19.6903 100.682 19.5569C100.473 19.4139 100.258 19.3043 100.039 19.2281C99.8199 19.1519 99.6197 19.1137 99.4387 19.1137C99.2386 19.1137 99.0575 19.1328 98.8955 19.1709C98.7335 19.209 98.5953 19.2662 98.481 19.3424C98.3761 19.4187 98.2951 19.514 98.238 19.6283C98.1808 19.7427 98.1522 19.8713 98.1522 20.0143C98.1617 20.1382 98.1903 20.2573 98.238 20.3716C98.2951 20.4765 98.3714 20.567 98.4667 20.6432C98.5715 20.7195 98.7287 20.8005 98.9384 20.8862C99.148 20.972 99.4149 21.053 99.7389 21.1292C100.215 21.2531 100.606 21.3913 100.911 21.5438C101.225 21.6867 101.473 21.8535 101.654 22.0441C101.845 22.2251 101.978 22.4348 102.055 22.673C102.131 22.9113 102.169 23.1781 102.169 23.4735C102.169 23.9023 102.045 24.2883 101.797 24.6313C101.559 24.9649 101.235 25.2269 100.825 25.4175C100.415 25.6081 99.958 25.7034 99.453 25.7034ZM103.792 28.7052V18.056H105.278V19.7713L105.049 19.6426C105.107 19.3567 105.269 19.0851 105.535 18.8279C105.802 18.561 106.126 18.3466 106.507 18.1846C106.898 18.0131 107.298 17.9273 107.708 17.9273C108.385 17.9273 108.985 18.0941 109.509 18.4276C110.033 18.7611 110.448 19.2186 110.753 19.7999C111.058 20.3812 111.21 21.0482 111.21 21.8011C111.21 22.5444 111.058 23.2114 110.753 23.8023C110.457 24.3836 110.048 24.8457 109.524 25.1888C108.999 25.5223 108.409 25.6891 107.751 25.6891C107.313 25.6891 106.889 25.6033 106.479 25.4318C106.069 25.2507 105.721 25.022 105.435 24.7457C105.149 24.4693 104.973 24.1834 104.906 23.888L105.278 23.6879V28.7052H103.792ZM107.508 24.3311C107.946 24.3311 108.337 24.2216 108.68 24.0024C109.023 23.7832 109.295 23.483 109.495 23.1018C109.695 22.7207 109.795 22.2871 109.795 21.8011C109.795 21.3151 109.695 20.8862 109.495 20.5146C109.304 20.1334 109.038 19.8332 108.694 19.614C108.351 19.3949 107.956 19.2853 107.508 19.2853C107.06 19.2853 106.665 19.3949 106.322 19.614C105.979 19.8237 105.707 20.1191 105.507 20.5003C105.307 20.8815 105.207 21.3151 105.207 21.8011C105.207 22.2871 105.307 22.7207 105.507 23.1018C105.707 23.483 105.979 23.7832 106.322 24.0024C106.665 24.2216 107.06 24.3311 107.508 24.3311ZM116.183 25.7034C115.449 25.7034 114.791 25.5366 114.21 25.2031C113.638 24.86 113.186 24.3979 112.852 23.8166C112.519 23.2257 112.352 22.5539 112.352 21.8011C112.352 21.0482 112.519 20.3812 112.852 19.7999C113.186 19.209 113.638 18.7469 114.21 18.4133C114.791 18.0703 115.449 17.8987 116.183 17.8987C116.907 17.8987 117.555 18.0703 118.127 18.4133C118.708 18.7469 119.165 19.209 119.499 19.7999C119.832 20.3812 119.999 21.0482 119.999 21.8011C119.999 22.5539 119.832 23.2257 119.499 23.8166C119.165 24.3979 118.708 24.86 118.127 25.2031C117.555 25.5366 116.907 25.7034 116.183 25.7034ZM116.183 24.3597C116.631 24.3597 117.031 24.2501 117.383 24.031C117.736 23.8023 118.012 23.4973 118.212 23.1161C118.413 22.7254 118.508 22.2871 118.498 21.8011C118.508 21.3055 118.413 20.8672 118.212 20.486C118.012 20.0953 117.736 19.7903 117.383 19.5712C117.031 19.352 116.631 19.2424 116.183 19.2424C115.735 19.2424 115.33 19.3567 114.968 19.5854C114.615 19.8046 114.339 20.1096 114.139 20.5003C113.938 20.8815 113.843 21.3151 113.853 21.8011C113.843 22.2871 113.938 22.7254 114.139 23.1161C114.339 23.4973 114.615 23.8023 114.968 24.031C115.33 24.2501 115.735 24.3597 116.183 24.3597ZM121.604 25.5605V18.056H123.076V19.5997L122.819 19.7713C122.914 19.4377 123.1 19.1328 123.376 18.8564C123.652 18.5706 123.981 18.3418 124.362 18.1703C124.743 17.9893 125.134 17.8987 125.534 17.8987C126.106 17.8987 126.583 18.0131 126.964 18.2418C127.345 18.461 127.631 18.7993 127.822 19.2567C128.012 19.7141 128.107 20.2906 128.107 20.9863V25.5605H126.635V21.0863C126.635 20.6575 126.578 20.3049 126.464 20.0286C126.349 19.7427 126.173 19.5378 125.935 19.4139C125.696 19.2805 125.401 19.2233 125.048 19.2424C124.763 19.2424 124.5 19.29 124.262 19.3853C124.024 19.4711 123.814 19.595 123.633 19.757C123.462 19.919 123.324 20.1096 123.219 20.3288C123.123 20.5384 123.076 20.7671 123.076 21.0149V25.5605H122.347C122.223 25.5605 122.099 25.5605 121.975 25.5605C121.851 25.5605 121.727 25.5605 121.604 25.5605ZM130.348 25.5605V18.056H131.82V25.5605H130.348ZM131.062 16.3978C130.748 16.3978 130.505 16.3168 130.333 16.1548C130.162 15.9928 130.076 15.7641 130.076 15.4687C130.076 15.1923 130.162 14.9684 130.333 14.7969C130.514 14.6253 130.757 14.5396 131.062 14.5396C131.377 14.5396 131.62 14.6206 131.791 14.7826C131.963 14.9446 132.049 15.1733 132.049 15.4687C132.049 15.7451 131.958 15.969 131.777 16.1405C131.606 16.3121 131.367 16.3978 131.062 16.3978ZM138.028 25.7034C137.704 25.7034 137.38 25.651 137.056 25.5462C136.742 25.4413 136.451 25.3032 136.184 25.1316C135.927 24.9506 135.708 24.7552 135.527 24.5456C135.355 24.3264 135.241 24.1072 135.184 23.888L135.555 23.6879V25.5176H134.083V14.9827H135.555V19.7713L135.327 19.6426C135.374 19.4234 135.479 19.2138 135.641 19.0137C135.803 18.804 136.008 18.6182 136.256 18.4562C136.513 18.2847 136.789 18.1513 137.085 18.056C137.38 17.9511 137.68 17.8987 137.985 17.8987C138.662 17.8987 139.262 18.0655 139.786 18.399C140.311 18.7326 140.725 19.1947 141.03 19.7856C141.335 20.3669 141.488 21.0339 141.488 21.7868C141.488 22.5396 141.335 23.2114 141.03 23.8023C140.735 24.3931 140.325 24.86 139.801 25.2031C139.277 25.5366 138.686 25.7034 138.028 25.7034ZM137.785 24.3597C138.224 24.3597 138.614 24.2501 138.957 24.031C139.3 23.8023 139.572 23.4973 139.772 23.1161C139.972 22.7254 140.072 22.2823 140.072 21.7868C140.072 21.3008 139.972 20.8672 139.772 20.486C139.582 20.0953 139.315 19.7903 138.972 19.5712C138.629 19.352 138.233 19.2424 137.785 19.2424C137.337 19.2424 136.942 19.352 136.599 19.5712C136.256 19.7903 135.984 20.0953 135.784 20.486C135.584 20.8672 135.484 21.3008 135.484 21.7868C135.484 22.2823 135.584 22.7254 135.784 23.1161C135.984 23.4973 136.256 23.8023 136.599 24.031C136.942 24.2501 137.337 24.3597 137.785 24.3597ZM143.115 25.5605V14.9827H144.588V25.5605H143.115ZM150.037 25.7034C149.265 25.7034 148.579 25.5414 147.978 25.2174C147.388 24.8839 146.921 24.4312 146.578 23.8594C146.244 23.2877 146.077 22.6301 146.077 21.8868C146.077 21.296 146.173 20.7576 146.363 20.2716C146.554 19.7856 146.816 19.3663 147.149 19.0137C147.492 18.6516 147.897 18.3752 148.364 18.1846C148.841 17.9845 149.355 17.8844 149.908 17.8844C150.394 17.8844 150.847 17.9797 151.266 18.1703C151.685 18.3514 152.048 18.6039 152.353 18.9279C152.667 19.2519 152.905 19.6379 153.067 20.0857C153.239 20.5241 153.32 21.0053 153.31 21.5295L153.296 22.1584H147.164L146.835 20.9863H152.024L151.809 21.2293V20.8862C151.781 20.5718 151.676 20.2906 151.495 20.0429C151.314 19.7951 151.085 19.5997 150.809 19.4568C150.532 19.3139 150.232 19.2424 149.908 19.2424C149.394 19.2424 148.96 19.3424 148.607 19.5426C148.255 19.7332 147.988 20.019 147.807 20.4002C147.626 20.7719 147.535 21.2341 147.535 21.7868C147.535 22.3109 147.645 22.7683 147.864 23.159C148.083 23.5402 148.393 23.8356 148.793 24.0453C149.193 24.2549 149.656 24.3597 150.18 24.3597C150.551 24.3597 150.894 24.2978 151.209 24.1739C151.533 24.05 151.881 23.8261 152.252 23.5021L152.996 24.5456C152.767 24.7743 152.486 24.9744 152.152 25.1459C151.828 25.3175 151.481 25.4556 151.109 25.5605C150.747 25.6558 150.389 25.7034 150.037 25.7034ZM162.419 25.7034C161.647 25.7034 160.961 25.5414 160.36 25.2174C159.769 24.8839 159.303 24.4312 158.959 23.8594C158.626 23.2877 158.459 22.6301 158.459 21.8868C158.459 21.296 158.554 20.7576 158.745 20.2716C158.936 19.7856 159.198 19.3663 159.531 19.0137C159.874 18.6516 160.279 18.3752 160.746 18.1846C161.223 17.9845 161.737 17.8844 162.29 17.8844C162.776 17.8844 163.229 17.9797 163.648 18.1703C164.067 18.3514 164.429 18.6039 164.734 18.9279C165.049 19.2519 165.287 19.6379 165.449 20.0857C165.621 20.5241 165.702 21.0053 165.692 21.5295L165.678 22.1584H159.546L159.217 20.9863H164.406L164.191 21.2293V20.8862C164.163 20.5718 164.058 20.2906 163.877 20.0429C163.696 19.7951 163.467 19.5997 163.191 19.4568C162.914 19.3139 162.614 19.2424 162.29 19.2424C161.775 19.2424 161.342 19.3424 160.989 19.5426C160.637 19.7332 160.37 20.019 160.189 20.4002C160.008 20.7719 159.917 21.2341 159.917 21.7868C159.917 22.3109 160.027 22.7683 160.246 23.159C160.465 23.5402 160.775 23.8356 161.175 24.0453C161.575 24.2549 162.038 24.3597 162.562 24.3597C162.933 24.3597 163.276 24.2978 163.591 24.1739C163.915 24.05 164.263 23.8261 164.634 23.5021L165.378 24.5456C165.149 24.7743 164.868 24.9744 164.534 25.1459C164.21 25.3175 163.862 25.4556 163.491 25.5605C163.129 25.6558 162.771 25.7034 162.419 25.7034ZM167.292 25.5605V18.056H168.764V19.5997L168.507 19.7713C168.602 19.4377 168.788 19.1328 169.065 18.8564C169.341 18.5706 169.67 18.3418 170.051 18.1703C170.432 17.9893 170.823 17.8987 171.223 17.8987C171.795 17.8987 172.271 18.0131 172.652 18.2418C173.034 18.461 173.32 18.7993 173.51 19.2567C173.701 19.7141 173.796 20.2906 173.796 20.9863V25.5605H172.324V21.0863C172.324 20.6575 172.267 20.3049 172.152 20.0286C172.038 19.7427 171.862 19.5378 171.623 19.4139C171.385 19.2805 171.09 19.2233 170.737 19.2424C170.451 19.2424 170.189 19.29 169.951 19.3853C169.713 19.4711 169.503 19.595 169.322 19.757C169.15 19.919 169.012 20.1096 168.907 20.3288C168.812 20.5384 168.764 20.7671 168.764 21.0149V25.5605H168.035C167.912 25.5605 167.788 25.5605 167.664 25.5605C167.54 25.5605 167.416 25.5605 167.292 25.5605ZM183.302 25.7034C182.53 25.7034 181.844 25.5414 181.243 25.2174C180.653 24.8839 180.186 24.4312 179.843 23.8594C179.509 23.2877 179.342 22.6301 179.342 21.8868C179.342 21.296 179.438 20.7576 179.628 20.2716C179.819 19.7856 180.081 19.3663 180.414 19.0137C180.757 18.6516 181.162 18.3752 181.629 18.1846C182.106 17.9845 182.62 17.8844 183.173 17.8844C183.659 17.8844 184.112 17.9797 184.531 18.1703C184.95 18.3514 185.312 18.6039 185.617 18.9279C185.932 19.2519 186.17 19.6379 186.332 20.0857C186.504 20.5241 186.585 21.0053 186.575 21.5295L186.561 22.1584H180.429L180.1 20.9863H185.289L185.074 21.2293V20.8862C185.046 20.5718 184.941 20.2906 184.76 20.0429C184.579 19.7951 184.35 19.5997 184.074 19.4568C183.797 19.3139 183.497 19.2424 183.173 19.2424C182.658 19.2424 182.225 19.3424 181.872 19.5426C181.52 19.7332 181.253 20.019 181.072 20.4002C180.891 20.7719 180.8 21.2341 180.8 21.7868C180.8 22.3109 180.91 22.7683 181.129 23.159C181.348 23.5402 181.658 23.8356 182.058 24.0453C182.458 24.2549 182.921 24.3597 183.445 24.3597C183.816 24.3597 184.159 24.2978 184.474 24.1739C184.798 24.05 185.146 23.8261 185.517 23.5021L186.261 24.5456C186.032 24.7743 185.751 24.9744 185.417 25.1459C185.093 25.3175 184.745 25.4556 184.374 25.5605C184.012 25.6558 183.654 25.7034 183.302 25.7034ZM188.204 25.5605V14.9827H189.676V25.5605H188.204Z" fill="#EEEEEE"/>
<path d="M81.794 55.0256L87.6785 39.8257H90.0671L95.9082 55.0256H93.411L89.9368 45.8623C89.8933 45.7609 89.8065 45.5148 89.6762 45.124C89.5604 44.7331 89.4229 44.2988 89.2636 43.8211C89.1044 43.3434 88.9596 42.9091 88.8293 42.5183C88.6991 42.1129 88.6122 41.8524 88.5688 41.7366L89.0682 41.7148C88.9813 41.9609 88.8728 42.2722 88.7425 42.6486C88.6267 43.0249 88.4964 43.423 88.3516 43.8428C88.2214 44.2626 88.0911 44.6607 87.9608 45.0371C87.8305 45.399 87.7219 45.703 87.6351 45.9491L84.1825 55.0256H81.794ZM84.3997 51.2474L85.2682 48.9891H92.1733L93.1722 51.2474H84.3997ZM98.0187 59.8028V43.6257H100.277V46.2314L99.9295 46.036C100.016 45.6017 100.262 45.1891 100.668 44.7983C101.073 44.3929 101.565 44.0672 102.144 43.8211C102.738 43.5605 103.346 43.4303 103.968 43.4303C104.996 43.4303 105.908 43.6836 106.704 44.1903C107.501 44.6969 108.13 45.3918 108.593 46.2748C109.057 47.1579 109.288 48.1712 109.288 49.3148C109.288 50.4439 109.057 51.4573 108.593 52.3548C108.145 53.2378 107.522 53.9399 106.726 54.4611C105.93 54.9677 105.032 55.2211 104.034 55.2211C103.368 55.2211 102.723 55.0908 102.101 54.8302C101.478 54.5552 100.95 54.2077 100.516 53.7879C100.082 53.3681 99.8137 52.9338 99.7124 52.4851L100.277 52.1811V59.8028H98.0187ZM103.664 53.1582C104.33 53.1582 104.924 52.9917 105.445 52.6588C105.966 52.3258 106.379 51.8698 106.683 51.2908C106.987 50.7118 107.139 50.0531 107.139 49.3148C107.139 48.5765 106.987 47.9251 106.683 47.3605C106.393 46.7815 105.988 46.3255 105.467 45.9925C104.946 45.6596 104.345 45.4931 103.664 45.4931C102.984 45.4931 102.383 45.6596 101.862 45.9925C101.341 46.311 100.928 46.7598 100.624 47.3388C100.32 47.9179 100.168 48.5765 100.168 49.3148C100.168 50.0531 100.32 50.7118 100.624 51.2908C100.928 51.8698 101.341 52.3258 101.862 52.6588C102.383 52.9917 102.984 53.1582 103.664 53.1582ZM111.717 59.8028V43.6257H113.976V46.2314L113.628 46.036C113.715 45.6017 113.961 45.1891 114.366 44.7983C114.772 44.3929 115.264 44.0672 115.843 43.8211C116.436 43.5605 117.044 43.4303 117.667 43.4303C118.695 43.4303 119.607 43.6836 120.403 44.1903C121.199 44.6969 121.829 45.3918 122.292 46.2748C122.755 47.1579 122.987 48.1712 122.987 49.3148C122.987 50.4439 122.755 51.4573 122.292 52.3548C121.843 53.2378 121.221 53.9399 120.425 54.4611C119.628 54.9677 118.731 55.2211 117.732 55.2211C117.066 55.2211 116.422 55.0908 115.8 54.8302C115.177 54.5552 114.649 54.2077 114.214 53.7879C113.78 53.3681 113.512 52.9338 113.411 52.4851L113.976 52.1811V59.8028H111.717ZM117.363 53.1582C118.029 53.1582 118.622 52.9917 119.144 52.6588C119.665 52.3258 120.077 51.8698 120.381 51.2908C120.685 50.7118 120.837 50.0531 120.837 49.3148C120.837 48.5765 120.685 47.9251 120.381 47.3605C120.092 46.7815 119.686 46.3255 119.165 45.9925C118.644 45.6596 118.043 45.4931 117.363 45.4931C116.683 45.4931 116.082 45.6596 115.561 45.9925C115.04 46.311 114.627 46.7598 114.323 47.3388C114.019 47.9179 113.867 48.5765 113.867 49.3148C113.867 50.0531 114.019 50.7118 114.323 51.2908C114.627 51.8698 115.04 52.3258 115.561 52.6588C116.082 52.9917 116.683 53.1582 117.363 53.1582ZM125.459 55.0256V38.9571H127.696V55.0256H125.459ZM135.974 55.2428C134.801 55.2428 133.759 54.9967 132.847 54.5045C131.949 53.9978 131.24 53.3102 130.719 52.4416C130.212 51.5731 129.959 50.5742 129.959 49.4451C129.959 48.5476 130.103 47.7297 130.393 46.9914C130.683 46.2531 131.081 45.6162 131.587 45.0805C132.108 44.5304 132.724 44.1106 133.433 43.8211C134.157 43.5171 134.939 43.3651 135.778 43.3651C136.516 43.3651 137.204 43.5099 137.841 43.7994C138.478 44.0744 139.028 44.4581 139.491 44.9503C139.969 45.4424 140.331 46.0287 140.577 46.7091C140.838 47.375 140.961 48.106 140.946 48.9022L140.924 49.8577H131.609L131.11 48.0771H138.992L138.666 48.4462V47.9251C138.623 47.4474 138.463 47.0203 138.188 46.644C137.913 46.2676 137.566 45.9708 137.146 45.7537C136.726 45.5365 136.27 45.428 135.778 45.428C134.996 45.428 134.338 45.58 133.802 45.884C133.267 46.1735 132.861 46.6078 132.586 47.1868C132.311 47.7514 132.174 48.4535 132.174 49.2931C132.174 50.0893 132.34 50.7841 132.673 51.3777C133.006 51.9567 133.476 52.4055 134.084 52.7239C134.692 53.0424 135.395 53.2016 136.191 53.2016C136.755 53.2016 137.276 53.1075 137.754 52.9194C138.246 52.7312 138.775 52.391 139.339 51.8988L140.468 53.4839C140.121 53.8314 139.694 54.1354 139.187 54.3959C138.695 54.6565 138.167 54.8664 137.602 55.0256C137.052 55.1704 136.509 55.2428 135.974 55.2428ZM154.717 55.2428C153.892 55.2428 153.125 55.1342 152.416 54.9171C151.721 54.6999 151.084 54.3742 150.505 53.9399C149.94 53.4912 149.434 52.9411 148.985 52.2896L150.592 50.4439C151.301 51.4573 151.981 52.1594 152.633 52.5502C153.284 52.9411 154.059 53.1365 154.956 53.1365C155.506 53.1365 156.006 53.0496 156.455 52.8759C156.903 52.7022 157.258 52.4634 157.519 52.1594C157.779 51.8554 157.909 51.5079 157.909 51.1171C157.909 50.8565 157.866 50.6104 157.779 50.3788C157.692 50.1472 157.555 49.9373 157.367 49.7491C157.193 49.5609 156.961 49.3872 156.672 49.2279C156.397 49.0687 156.071 48.9312 155.695 48.8154C155.318 48.6851 154.884 48.5765 154.392 48.4897C153.61 48.3304 152.93 48.1205 152.351 47.86C151.772 47.5994 151.287 47.2737 150.896 46.8828C150.505 46.492 150.215 46.0504 150.027 45.5583C149.839 45.0516 149.745 44.487 149.745 43.8645C149.745 43.2565 149.875 42.692 150.136 42.1708C150.411 41.6497 150.78 41.2009 151.243 40.8246C151.721 40.4337 152.278 40.1369 152.915 39.9343C153.552 39.7171 154.24 39.6086 154.978 39.6086C155.76 39.6086 156.476 39.7099 157.128 39.9126C157.779 40.1152 158.358 40.4192 158.865 40.8246C159.372 41.2154 159.791 41.7004 160.124 42.2794L158.474 43.908C158.184 43.4303 157.859 43.0322 157.497 42.7137C157.135 42.3807 156.737 42.1346 156.303 41.9754C155.868 41.8017 155.405 41.7148 154.913 41.7148C154.348 41.7148 153.856 41.8017 153.436 41.9754C153.017 42.1491 152.684 42.3952 152.437 42.7137C152.206 43.0177 152.09 43.3796 152.09 43.7994C152.09 44.1034 152.148 44.3857 152.264 44.6463C152.38 44.8924 152.553 45.1167 152.785 45.3194C153.031 45.5076 153.357 45.6813 153.762 45.8405C154.167 45.9853 154.652 46.1156 155.217 46.2314C156.013 46.4051 156.722 46.6295 157.345 46.9045C157.967 47.1651 158.496 47.4763 158.93 47.8382C159.364 48.2001 159.69 48.6055 159.907 49.0542C160.139 49.503 160.255 49.9879 160.255 50.5091C160.255 51.479 160.03 52.3186 159.581 53.0279C159.133 53.7373 158.496 54.2874 157.671 54.6782C156.845 55.0546 155.861 55.2428 154.717 55.2428ZM164.424 55.0256V40.716H166.661V55.0256H164.424ZM162.057 45.7971V43.6257H169.31V45.7971H162.057ZM176.365 55.2428C175.25 55.2428 174.251 54.9894 173.368 54.4828C172.5 53.9616 171.812 53.2595 171.306 52.3765C170.799 51.479 170.546 50.4584 170.546 49.3148C170.546 48.1712 170.799 47.1579 171.306 46.2748C171.812 45.3773 172.5 44.6752 173.368 44.1685C174.251 43.6474 175.25 43.3868 176.365 43.3868C177.465 43.3868 178.45 43.6474 179.318 44.1685C180.201 44.6752 180.896 45.3773 181.403 46.2748C181.909 47.1579 182.163 48.1712 182.163 49.3148C182.163 50.4584 181.909 51.479 181.403 52.3765C180.896 53.2595 180.201 53.9616 179.318 54.4828C178.45 54.9894 177.465 55.2428 176.365 55.2428ZM176.365 53.2016C177.045 53.2016 177.653 53.0352 178.189 52.7022C178.725 52.3548 179.144 51.8916 179.448 51.3125C179.752 50.719 179.897 50.0531 179.883 49.3148C179.897 48.562 179.752 47.8961 179.448 47.3171C179.144 46.7236 178.725 46.2603 178.189 45.9274C177.653 45.5944 177.045 45.428 176.365 45.428C175.685 45.428 175.069 45.6017 174.519 45.9491C173.984 46.2821 173.564 46.7453 173.26 47.3388C172.956 47.9179 172.811 48.5765 172.826 49.3148C172.811 50.0531 172.956 50.719 173.26 51.3125C173.564 51.8916 173.984 52.3548 174.519 52.7022C175.069 53.0352 175.685 53.2016 176.365 53.2016ZM184.6 55.0256V43.6257H186.858V47.2085L186.641 46.34C186.8 45.7899 187.068 45.2904 187.444 44.8417C187.835 44.3929 188.277 44.0383 188.769 43.7777C189.276 43.5171 189.797 43.3868 190.332 43.3868C190.578 43.3868 190.81 43.4085 191.027 43.452C191.259 43.4954 191.44 43.5461 191.57 43.604L190.984 46.036C190.81 45.9636 190.615 45.9057 190.397 45.8623C190.195 45.8043 189.992 45.7754 189.789 45.7754C189.399 45.7754 189.022 45.855 188.66 46.0142C188.313 46.159 188.002 46.3689 187.727 46.644C187.466 46.9045 187.256 47.2158 187.097 47.5777C186.938 47.9251 186.858 48.3087 186.858 48.7285V55.0256H184.6ZM198.19 55.2428C197.017 55.2428 195.975 54.9967 195.063 54.5045C194.165 53.9978 193.456 53.3102 192.935 52.4416C192.428 51.5731 192.175 50.5742 192.175 49.4451C192.175 48.5476 192.32 47.7297 192.609 46.9914C192.899 46.2531 193.297 45.6162 193.803 45.0805C194.325 44.5304 194.94 44.1106 195.649 43.8211C196.373 43.5171 197.155 43.3651 197.994 43.3651C198.733 43.3651 199.42 43.5099 200.057 43.7994C200.694 44.0744 201.244 44.4581 201.707 44.9503C202.185 45.4424 202.547 46.0287 202.793 46.7091C203.054 47.375 203.177 48.106 203.162 48.9022L203.141 49.8577H193.825L193.326 48.0771H201.208L200.882 48.4462V47.9251C200.839 47.4474 200.68 47.0203 200.405 46.644C200.13 46.2676 199.782 45.9708 199.362 45.7537C198.943 45.5365 198.487 45.428 197.994 45.428C197.213 45.428 196.554 45.58 196.018 45.884C195.483 46.1735 195.077 46.6078 194.802 47.1868C194.527 47.7514 194.39 48.4535 194.39 49.2931C194.39 50.0893 194.556 50.7841 194.889 51.3777C195.222 51.9567 195.693 52.4055 196.301 52.7239C196.909 53.0424 197.611 53.2016 198.407 53.2016C198.971 53.2016 199.493 53.1075 199.97 52.9194C200.463 52.7312 200.991 52.391 201.555 51.8988L202.685 53.4839C202.337 53.8314 201.91 54.1354 201.403 54.3959C200.911 54.6565 200.383 54.8664 199.818 55.0256C199.268 55.1704 198.725 55.2428 198.19 55.2428Z" fill="#EEEEEE"/>
<path fill-rule="evenodd" clip-rule="evenodd" d="M53.3877 38.8815C53.319 32.2924 59.2645 29.1167 59.5329 28.9662C56.1942 24.4824 50.9854 23.8686 49.1304 23.7969C44.7023 23.3895 40.4885 26.1884 38.2403 26.1884C35.9982 26.1884 32.5266 23.8589 28.857 23.9251C24.0252 23.9867 19.5743 26.4948 17.0866 30.4541C12.0733 38.4284 15.8052 50.2383 20.6941 56.7076C23.0802 59.8666 25.9323 63.4302 29.6721 63.3014C33.2796 63.1718 34.6379 61.1701 38.9887 61.1701C43.343 61.1701 44.5659 63.3014 48.3815 63.2357C52.2527 63.1718 54.7142 60.0092 57.0856 56.8373C59.827 53.1631 60.9558 49.6065 61.0215 49.4217C60.9382 49.394 53.466 46.766 53.3877 38.8816L53.3877 38.8815Z" fill="#EEEEEE"/>
<path fill-rule="evenodd" clip-rule="evenodd" d="M46.2318 19.0856C48.2192 16.8788 49.5527 13.8167 49.1874 10.7633C46.3268 10.8674 42.8583 12.5126 40.8092 14.7124C38.9673 16.6645 37.3554 19.7818 37.7925 22.7712C40.9836 22.9985 44.2434 21.2881 46.2318 19.0856Z" fill="#EEEEEE"/>
</svg>
