<svg width="329" height="369" viewBox="0 0 329 369" fill="none" xmlns="http://www.w3.org/2000/svg">
<path d="M148.868 219.275C148.868 219.067 150.013 195.466 138.638 190.017L139.436 189.254C144.637 191.093 150.429 196.716 152.752 204.663C154.486 210.564 153.168 211.882 153.168 212.091L148.868 219.275Z" fill="#7ED7D9"/>
<path d="M119.114 172.525C119.114 172.525 117.796 184.672 124.177 189.844C130.523 195.015 142.141 191.232 142.141 191.232C142.141 191.232 143.458 179.085 137.078 173.913C130.697 168.742 119.114 172.525 119.114 172.525Z" fill="#7ED7D9"/>
<path d="M146.892 263.561C146.684 262.381 142.557 234.581 153.064 203.588C163.156 173.809 157.573 148.577 157.538 148.334H164.959C165.167 149.41 165.653 174.191 157.746 208.134C150.637 238.676 163.919 263.561 161.11 263.561H146.892Z" fill="#7ED7D9"/>
<path d="M162.532 181.479C162.567 181.306 166.104 160.968 175.675 158.642C171.41 159.198 166 162.252 162.948 167.944C160.694 172.178 161.492 173.358 161.457 173.532L162.532 181.479Z" fill="#7ED7D9"/>
<path d="M124.316 127.476C124.316 127.476 114.016 112.934 102.329 108.665C102.329 108.665 106.178 131.083 99.7975 131.5C93.4166 131.916 98.2023 104.812 98.2023 104.812C98.2023 104.812 67.7541 87.8752 55.3737 88.3611C55.3737 88.3611 66.8116 108.145 60.5 107C54.1884 105.82 40.3924 85.5152 40.3924 85.5152C40.3924 85.5152 8.62637 77.6715 2.34946 96.4131C-3.92744 115.155 3.84066 125.185 8.55701 126.643C13.2387 128.1 28.5404 127.578 27.5 131.5C26.4596 135.422 20.764 142.504 9.45866 138.269C9.45866 138.269 20.3132 170.373 37.0632 169.783C53.8131 169.158 59.5699 159.163 69.9389 158.955C81 163 73.5 160 82.354 164.473C71.5 165.5 59.6739 164.057 50.9348 170.651C42.1957 177.245 35.1905 181.236 50.484 185.297C65.7774 189.358 88.839 184.777 99.7975 177.453C99.8322 177.419 108.745 176.725 115.785 218.095C118.49 234.06 116.409 257.73 116.409 257.73L122.096 256.862C125.252 210.46 108.502 171.9 108.502 171.9C108.502 171.9 136.869 150.903 124.316 127.476Z" fill="#7ED7D9"/>
<path d="M217.151 188.698C217.151 188.698 182.958 174.33 195.2 148.161C195.2 148.161 205.499 131.779 217.949 126.469C217.949 126.469 215.209 163.71 222.18 163.814C229.15 163.918 222.249 122.096 222.249 122.096C222.249 122.096 254.293 101.966 267.713 101.723C267.713 101.723 250.721 139.727 257.483 138.096C264.246 136.465 283.735 97.732 283.735 97.732C283.735 97.732 317.721 87.3547 325.627 107.311C333.534 127.267 325.697 138.582 320.703 140.456C315.709 142.33 282.625 145.627 283.978 149.827C285.33 154.026 308.392 158.365 320.391 153.089C320.391 153.089 310.507 188.56 292.301 188.872C274.094 189.184 267.263 178.668 256.027 179.085C244.791 179.501 236.988 183.423 242.883 185.783C248.813 188.143 267.436 184.013 277.32 190.642C287.203 197.271 295.006 201.193 278.672 206.503C262.338 211.813 232.098 213.097 224.607 200.88C217.151 188.698 217.151 188.698 217.151 188.698Z" fill="#7ED7D9"/>
<path d="M310.473 115.537C310.473 115.537 223.124 148.73 216.5 182.5C216.5 182.5 219.197 203.241 212.088 221.01L212.816 227.431C212.816 227.431 221.714 207.11 226.5 203.5C227.142 203.016 201.234 174.85 310.473 115.537Z" fill="#70C3C4"/>
<path d="M212.123 220.976C212.123 220.976 200.609 243.639 211.429 268.455L214.897 267.101C214.897 267.101 208.239 239.197 213.892 224.134C219.544 209.071 212.123 220.976 212.123 220.976Z" fill="#70C3C4"/>
<path d="M86.7581 32.9345C100.768 47.8584 93.4859 77.498 93.4859 77.498C93.4859 77.498 63.4538 82.947 49.4435 68.0231C35.4332 53.0991 42.7158 23.4596 42.7158 23.4596C42.7158 23.4596 72.7478 17.9759 86.7581 32.9345Z" fill="#70C3C5"/>
<path d="M86.7582 32.9344C100.769 47.8583 93.4859 77.4979 93.4859 77.4979L42.7158 23.4248C42.7158 23.4248 72.7479 17.9758 86.7582 32.9344Z" fill="#7ED7D9"/>
<path d="M241.3 25.7755C233.982 34.244 217.475 31.9881 217.475 31.9881C217.475 31.9881 212.793 15.9535 220.111 7.48507C227.428 -0.983376 243.935 1.27257 243.935 1.27257C243.935 1.27257 248.617 17.2724 241.3 25.7755Z" fill="#7ED7D9"/>
<path d="M181.085 164.369C176.195 165.722 170.508 160.69 170.508 160.69C170.508 160.69 172.797 153.436 177.687 152.083C182.576 150.729 188.264 155.762 188.264 155.762C188.264 155.762 185.975 163.015 181.085 164.369Z" fill="#7ED7D9"/>
<path d="M112.831 17.2385C116.195 25.221 108.947 35.876 108.947 35.876C108.947 35.876 96.2546 33.6201 92.8907 25.6375C89.5268 17.6897 96.7748 7 96.7748 7C96.7748 7 109.467 9.25594 112.831 17.2385Z" fill="#7ED7D9"/>
<path d="M221.66 256.307V256.377L220.168 279.318L214.62 364.454H111.103L104.999 280.463L103.335 257.349L103.265 256.307H221.66Z" fill="#0D8284"/>
<path d="M221.66 256.377L220.168 279.318C212.366 276.611 190.691 270.051 162.462 270.051C126.812 270.051 105.034 280.463 105.034 280.463L103.369 257.314L221.66 256.377Z" fill="#0C6E70"/>
<path d="M225.231 268.455H99.4853L98.0635 253.808H226.827L225.231 268.455Z" fill="#0D8284"/>
<path d="M216.215 369H108.883L107.635 363.898H217.567L216.215 369Z" fill="#0C6E70"/>
<g clip-path="url(#clip0_10184_25957)">
<path d="M197.466 152.776C236.341 136.096 254.683 90.198 238.432 50.2597C222.181 10.3214 177.493 -8.53313 138.617 8.14694C99.7411 24.827 81.3998 70.7253 97.6504 110.664C113.901 150.602 158.59 169.456 197.466 152.776Z" fill="#EAB726"/>
<path d="M173.702 158.766C172.615 158.942 171.521 159.1 170.42 159.23C170.046 159.273 169.673 159.315 169.303 159.35C168.456 159.436 167.614 159.51 166.767 159.573C126.383 162.347 90.5834 132.036 85.9151 90.2836C81.4593 50.4602 106.901 14.1954 143.938 5.1394C146.893 4.41484 149.919 3.867 153.01 3.50248C154.118 3.36969 155.227 3.26709 156.329 3.18537C157.401 3.10589 158.473 3.05072 159.54 3.01813C162.81 2.91934 166.04 3.03808 169.226 3.36261C173.962 3.83851 178.591 4.76184 183.065 6.10779C196.938 10.2732 209.316 18.4082 218.796 29.3747C228.855 41.0055 235.653 55.8171 237.51 72.4476C242.189 114.316 213.838 152.252 173.702 158.766Z" fill="#FFEB4D"/>
<path d="M135.944 147.305C130.041 144.815 124.448 141.455 119.316 137.264C105.015 125.596 95.993 108.909 93.9098 90.2755C91.8266 71.6421 96.9323 53.2901 108.288 38.6043C119.643 23.9185 135.885 14.6561 154.024 12.5221C191.475 8.11437 225.439 35.8269 229.738 74.296C234.036 112.765 207.072 147.646 169.623 152.049C157.992 153.411 146.476 151.749 135.944 147.305ZM186.969 19.045C176.933 14.8105 165.755 13.0411 154.231 14.3949C136.58 16.4715 120.775 25.4841 109.726 39.7722C98.6767 54.0602 93.7108 71.9199 95.7379 90.0514C97.7651 108.183 106.544 124.421 120.457 135.775C134.37 147.129 151.759 152.235 169.41 150.159C205.848 145.871 232.089 111.933 227.902 74.5022C225.042 48.9105 208.681 28.2051 186.969 19.045Z" fill="#EAB726"/>
<path fill-rule="evenodd" clip-rule="evenodd" d="M154.434 46.6073V115.077C154.434 121.179 149.632 126.112 143.695 126.112C137.757 126.112 132.955 121.179 132.955 115.077V46.6073C132.955 40.506 137.757 35.5723 143.695 35.5723C149.632 35.5723 154.434 40.506 154.434 46.6073ZM164.338 90.208L156.047 76.4734V74.854C159.409 73.2002 162.247 71.2953 164.733 69.1395L164.735 69.0163C171.809 62.7644 175.584 54.4034 178.48 43.406C179.69 38.7736 183.758 35.5723 188.413 35.5723C195.414 35.5723 200.362 42.5774 198.236 49.432C193.361 64.9488 186.727 72.5942 179.286 78.5072L199.629 110.294C203.954 117.073 199.226 126.112 191.309 126.112C187.863 126.112 184.675 124.267 182.879 121.291L164.332 90.5591L164.338 90.208Z" fill="#EAB726"/>
</g>
<defs>
<clipPath id="clip0_10184_25957">
<rect width="160" height="160" fill="white" transform="translate(85 0.802246)"/>
</clipPath>
</defs>
</svg>
