<svg width="229" height="75" viewBox="0 0 229 75" fill="none" xmlns="http://www.w3.org/2000/svg">
<rect x="0.732422" y="1.06055" width="227" height="73.0651" rx="7.5" fill="#1A1A1A"/>
<rect x="0.732422" y="1.06055" width="227" height="73.0651" rx="7.5" stroke="#EEEEEE"/>
<g clip-path="url(#clip0_10164_26811)">
<path d="M14.9209 17.3191L47.0222 36.7489L14.9209 56.1786V17.3191Z" fill="#518FF5"/>
<path d="M14.9348 17.3252L36.5655 43.0774L47.0228 36.7482L14.9348 17.3252Z" fill="#34A853"/>
<path d="M36.5392 30.4028L14.9217 56.1418V56.1773L47.0229 36.7476L36.5392 30.402V30.4028Z" fill="#DD5044"/>
<path d="M36.5391 30.4026L31.2296 36.7251L36.5655 43.0774L47.0228 36.7482L36.5391 30.4026Z" fill="#F5BA15"/>
</g>
<path d="M83.1024 24.5605V14.5546H87.0191C87.7338 14.5546 88.377 14.6737 88.9488 14.9119C89.5301 15.1502 90.0256 15.4932 90.4354 15.9411C90.8452 16.389 91.1596 16.9179 91.3788 17.5278C91.598 18.1377 91.7076 18.8142 91.7076 19.5576C91.7076 20.3009 91.598 20.9822 91.3788 21.6016C91.1596 22.2115 90.8452 22.7404 90.4354 23.1883C90.0352 23.6267 89.5444 23.965 88.9631 24.2032C88.3818 24.4414 87.7338 24.5605 87.0191 24.5605H83.1024ZM84.6462 23.2312L84.6033 23.0739H86.9476C87.4527 23.0739 87.9005 22.9929 88.2913 22.8309C88.6915 22.6689 89.025 22.4402 89.2919 22.1448C89.5682 21.8399 89.7779 21.4682 89.9208 21.0299C90.0637 20.5915 90.1352 20.1007 90.1352 19.5576C90.1352 19.0144 90.0637 18.5284 89.9208 18.0995C89.7779 17.6612 89.5682 17.2895 89.2919 16.9846C89.0155 16.6796 88.682 16.4462 88.2913 16.2842C87.9005 16.1222 87.4527 16.0412 86.9476 16.0412H84.5604L84.6462 15.9125V23.2312ZM93.6666 24.5605V17.0561H95.1389V24.5605H93.6666ZM94.3813 15.3979C94.0668 15.3979 93.8238 15.3169 93.6523 15.1549C93.4807 14.9929 93.395 14.7642 93.395 14.4688C93.395 14.1924 93.4807 13.9685 93.6523 13.797C93.8333 13.6254 94.0763 13.5397 94.3813 13.5397C94.6958 13.5397 94.9388 13.6207 95.1103 13.7827C95.2818 13.9447 95.3676 14.1734 95.3676 14.4688C95.3676 14.7451 95.2771 14.9691 95.096 15.1406C94.9245 15.3122 94.6862 15.3979 94.3813 15.3979ZM99.9035 24.7035C99.2745 24.7035 98.7075 24.5939 98.2024 24.3747C97.6974 24.1555 97.2781 23.8315 96.9445 23.4027L97.9451 22.5451C98.231 22.8786 98.5407 23.1216 98.8743 23.2741C99.2173 23.417 99.6033 23.4885 100.032 23.4885C100.204 23.4885 100.361 23.4694 100.504 23.4313C100.656 23.3837 100.785 23.3169 100.89 23.2312C101.004 23.1454 101.09 23.0454 101.147 22.931C101.204 22.8071 101.233 22.6737 101.233 22.5308C101.233 22.283 101.142 22.0829 100.961 21.9304C100.866 21.8637 100.713 21.7922 100.504 21.716C100.304 21.6302 100.042 21.5445 99.7176 21.4587C99.1649 21.3157 98.7123 21.1537 98.3597 20.9727C98.0071 20.7916 97.7355 20.5867 97.5449 20.358C97.402 20.177 97.2971 19.9816 97.2304 19.772C97.1637 19.5528 97.1304 19.3145 97.1304 19.0573C97.1304 18.7428 97.1971 18.4569 97.3305 18.1996C97.4734 17.9328 97.664 17.7041 97.9023 17.5135C98.15 17.3134 98.4359 17.1609 98.7599 17.0561C99.0934 16.9512 99.446 16.8988 99.8177 16.8988C100.17 16.8988 100.518 16.9465 100.861 17.0418C101.214 17.1371 101.538 17.2752 101.833 17.4563C102.129 17.6374 102.376 17.8518 102.576 18.0995L101.733 19.0287C101.552 18.8476 101.352 18.6904 101.133 18.557C100.923 18.414 100.709 18.3044 100.49 18.2282C100.27 18.1519 100.07 18.1138 99.8892 18.1138C99.689 18.1138 99.508 18.1329 99.346 18.171C99.184 18.2091 99.0458 18.2663 98.9314 18.3425C98.8266 18.4188 98.7456 18.5141 98.6884 18.6284C98.6313 18.7428 98.6027 18.8714 98.6027 19.0144C98.6122 19.1383 98.6408 19.2574 98.6884 19.3717C98.7456 19.4766 98.8219 19.5671 98.9171 19.6433C99.022 19.7196 99.1792 19.8006 99.3889 19.8863C99.5985 19.9721 99.8653 20.0531 100.189 20.1293C100.666 20.2532 101.057 20.3914 101.361 20.5439C101.676 20.6868 101.924 20.8536 102.105 21.0442C102.295 21.2252 102.429 21.4349 102.505 21.6731C102.581 21.9113 102.619 22.1782 102.619 22.4736C102.619 22.9024 102.495 23.2884 102.248 23.6314C102.009 23.965 101.685 24.227 101.276 24.4176C100.866 24.6082 100.409 24.7035 99.9035 24.7035ZM104.242 27.7053V17.0561H105.729V18.7714L105.5 18.6427C105.557 18.3568 105.719 18.0852 105.986 17.8279C106.253 17.5611 106.577 17.3467 106.958 17.1847C107.349 17.0132 107.749 16.9274 108.159 16.9274C108.835 16.9274 109.436 17.0942 109.96 17.4277C110.484 17.7612 110.898 18.2187 111.203 18.8C111.508 19.3813 111.661 20.0483 111.661 20.8012C111.661 21.5445 111.508 22.2115 111.203 22.8024C110.908 23.3837 110.498 23.8458 109.974 24.1889C109.45 24.5224 108.859 24.6892 108.202 24.6892C107.763 24.6892 107.339 24.6034 106.929 24.4319C106.52 24.2508 106.172 24.0221 105.886 23.7458C105.6 23.4694 105.424 23.1835 105.357 22.8881L105.729 22.688V27.7053H104.242ZM107.958 23.3312C108.397 23.3312 108.788 23.2216 109.131 23.0025C109.474 22.7833 109.745 22.4831 109.945 22.1019C110.146 21.7208 110.246 21.2872 110.246 20.8012C110.246 20.3151 110.146 19.8863 109.945 19.5147C109.755 19.1335 109.488 18.8333 109.145 18.6141C108.802 18.395 108.406 18.2854 107.958 18.2854C107.511 18.2854 107.115 18.395 106.772 18.6141C106.429 18.8238 106.157 19.1192 105.957 19.5004C105.757 19.8816 105.657 20.3151 105.657 20.8012C105.657 21.2872 105.757 21.7208 105.957 22.1019C106.157 22.4831 106.429 22.7833 106.772 23.0025C107.115 23.2216 107.511 23.3312 107.958 23.3312ZM116.633 24.7035C115.899 24.7035 115.242 24.5367 114.661 24.2032C114.089 23.8601 113.636 23.3979 113.303 22.8166C112.969 22.2258 112.802 21.554 112.802 20.8012C112.802 20.0483 112.969 19.3813 113.303 18.8C113.636 18.2091 114.089 17.7469 114.661 17.4134C115.242 17.0703 115.899 16.8988 116.633 16.8988C117.357 16.8988 118.005 17.0703 118.577 17.4134C119.158 17.7469 119.616 18.2091 119.949 18.8C120.283 19.3813 120.45 20.0483 120.45 20.8012C120.45 21.554 120.283 22.2258 119.949 22.8166C119.616 23.3979 119.158 23.8601 118.577 24.2032C118.005 24.5367 117.357 24.7035 116.633 24.7035ZM116.633 23.3598C117.081 23.3598 117.481 23.2502 117.834 23.0311C118.186 22.8024 118.463 22.4974 118.663 22.1162C118.863 21.7255 118.958 21.2872 118.949 20.8012C118.958 20.3056 118.863 19.8673 118.663 19.4861C118.463 19.0954 118.186 18.7904 117.834 18.5712C117.481 18.3521 117.081 18.2425 116.633 18.2425C116.185 18.2425 115.78 18.3568 115.418 18.5855C115.066 18.8047 114.789 19.1097 114.589 19.5004C114.389 19.8816 114.294 20.3151 114.303 20.8012C114.294 21.2872 114.389 21.7255 114.589 22.1162C114.789 22.4974 115.066 22.8024 115.418 23.0311C115.78 23.2502 116.185 23.3598 116.633 23.3598ZM122.054 24.5605V17.0561H123.526V18.5998L123.269 18.7714C123.364 18.4378 123.55 18.1329 123.826 17.8565C124.103 17.5706 124.432 17.3419 124.813 17.1704C125.194 16.9893 125.585 16.8988 125.985 16.8988C126.557 16.8988 127.033 17.0132 127.414 17.2419C127.796 17.4611 128.081 17.7994 128.272 18.2568C128.463 18.7142 128.558 19.2907 128.558 19.9864V24.5605H127.086V20.0864C127.086 19.6576 127.028 19.305 126.914 19.0287C126.8 18.7428 126.623 18.5379 126.385 18.414C126.147 18.2806 125.852 18.2234 125.499 18.2425C125.213 18.2425 124.951 18.2901 124.713 18.3854C124.474 18.4712 124.265 18.5951 124.084 18.7571C123.912 18.9191 123.774 19.1097 123.669 19.3288C123.574 19.5385 123.526 19.7672 123.526 20.015V24.5605H122.797C122.673 24.5605 122.55 24.5605 122.426 24.5605C122.302 24.5605 122.178 24.5605 122.054 24.5605ZM130.798 24.5605V17.0561H132.27V24.5605H130.798ZM131.513 15.3979C131.198 15.3979 130.955 15.3169 130.784 15.1549C130.612 14.9929 130.527 14.7642 130.527 14.4688C130.527 14.1924 130.612 13.9685 130.784 13.797C130.965 13.6254 131.208 13.5397 131.513 13.5397C131.827 13.5397 132.07 13.6207 132.242 13.7827C132.413 13.9447 132.499 14.1734 132.499 14.4688C132.499 14.7451 132.409 14.9691 132.228 15.1406C132.056 15.3122 131.818 15.3979 131.513 15.3979ZM138.479 24.7035C138.155 24.7035 137.831 24.6511 137.507 24.5463C137.192 24.4414 136.902 24.3032 136.635 24.1317C136.378 23.9507 136.158 23.7553 135.977 23.5457C135.806 23.3265 135.691 23.1073 135.634 22.8881L136.006 22.688V24.5177H134.534V13.9828H136.006V18.7714L135.777 18.6427C135.825 18.4235 135.93 18.2139 136.092 18.0138C136.254 17.8041 136.459 17.6183 136.706 17.4563C136.964 17.2848 137.24 17.1513 137.535 17.0561C137.831 16.9512 138.131 16.8988 138.436 16.8988C139.112 16.8988 139.713 17.0656 140.237 17.3991C140.761 17.7326 141.176 18.1948 141.481 18.7857C141.786 19.367 141.938 20.034 141.938 20.7869C141.938 21.5397 141.786 22.2115 141.481 22.8024C141.185 23.3932 140.775 23.8601 140.251 24.2032C139.727 24.5367 139.136 24.7035 138.479 24.7035ZM138.236 23.3598C138.674 23.3598 139.065 23.2502 139.408 23.0311C139.751 22.8024 140.023 22.4974 140.223 22.1162C140.423 21.7255 140.523 21.2824 140.523 20.7869C140.523 20.3009 140.423 19.8673 140.223 19.4861C140.032 19.0954 139.765 18.7904 139.422 18.5712C139.079 18.3521 138.684 18.2425 138.236 18.2425C137.788 18.2425 137.392 18.3521 137.049 18.5712C136.706 18.7904 136.435 19.0954 136.235 19.4861C136.034 19.8673 135.934 20.3009 135.934 20.7869C135.934 21.2824 136.034 21.7255 136.235 22.1162C136.435 22.4974 136.706 22.8024 137.049 23.0311C137.392 23.2502 137.788 23.3598 138.236 23.3598ZM143.566 24.5605V13.9828H145.038V24.5605H143.566ZM150.487 24.7035C149.715 24.7035 149.029 24.5415 148.429 24.2175C147.838 23.884 147.371 23.4313 147.028 22.8595C146.695 22.2878 146.528 21.6302 146.528 20.8869C146.528 20.2961 146.623 19.7577 146.814 19.2717C147.004 18.7857 147.266 18.3664 147.6 18.0138C147.943 17.6516 148.348 17.3753 148.815 17.1847C149.291 16.9846 149.806 16.8845 150.359 16.8845C150.845 16.8845 151.297 16.9798 151.717 17.1704C152.136 17.3515 152.498 17.604 152.803 17.928C153.117 18.252 153.356 18.638 153.518 19.0858C153.689 19.5242 153.77 20.0054 153.761 20.5296L153.746 21.1585H147.614L147.285 19.9864H152.474L152.26 20.2294V19.8863C152.231 19.5718 152.126 19.2907 151.945 19.043C151.764 18.7952 151.536 18.5998 151.259 18.4569C150.983 18.3139 150.683 18.2425 150.359 18.2425C149.844 18.2425 149.41 18.3425 149.058 18.5427C148.705 18.7332 148.438 19.0191 148.257 19.4003C148.076 19.772 147.986 20.2341 147.986 20.7869C147.986 21.311 148.095 21.7684 148.315 22.1591C148.534 22.5403 148.843 22.8357 149.244 23.0454C149.644 23.255 150.106 23.3598 150.63 23.3598C151.002 23.3598 151.345 23.2979 151.659 23.174C151.983 23.0501 152.331 22.8262 152.703 22.5022L153.446 23.5457C153.218 23.7744 152.936 23.9745 152.603 24.146C152.279 24.3175 151.931 24.4557 151.559 24.5605C151.197 24.6558 150.84 24.7035 150.487 24.7035ZM162.869 24.7035C162.097 24.7035 161.411 24.5415 160.811 24.2175C160.22 23.884 159.753 23.4313 159.41 22.8595C159.076 22.2878 158.91 21.6302 158.91 20.8869C158.91 20.2961 159.005 19.7577 159.196 19.2717C159.386 18.7857 159.648 18.3664 159.982 18.0138C160.325 17.6516 160.73 17.3753 161.197 17.1847C161.673 16.9846 162.188 16.8845 162.741 16.8845C163.227 16.8845 163.679 16.9798 164.098 17.1704C164.518 17.3515 164.88 17.604 165.185 17.928C165.499 18.252 165.738 18.638 165.9 19.0858C166.071 19.5242 166.152 20.0054 166.143 20.5296L166.128 21.1585H159.996L159.667 19.9864H164.856L164.642 20.2294V19.8863C164.613 19.5718 164.508 19.2907 164.327 19.043C164.146 18.7952 163.917 18.5998 163.641 18.4569C163.365 18.3139 163.065 18.2425 162.741 18.2425C162.226 18.2425 161.792 18.3425 161.44 18.5427C161.087 18.7332 160.82 19.0191 160.639 19.4003C160.458 19.772 160.368 20.2341 160.368 20.7869C160.368 21.311 160.477 21.7684 160.696 22.1591C160.916 22.5403 161.225 22.8357 161.626 23.0454C162.026 23.255 162.488 23.3598 163.012 23.3598C163.384 23.3598 163.727 23.2979 164.041 23.174C164.365 23.0501 164.713 22.8262 165.085 22.5022L165.828 23.5457C165.599 23.7744 165.318 23.9745 164.985 24.146C164.661 24.3175 164.313 24.4557 163.941 24.5605C163.579 24.6558 163.222 24.7035 162.869 24.7035ZM167.743 24.5605V17.0561H169.215V18.5998L168.958 18.7714C169.053 18.4378 169.239 18.1329 169.515 17.8565C169.791 17.5706 170.12 17.3419 170.501 17.1704C170.883 16.9893 171.273 16.8988 171.674 16.8988C172.245 16.8988 172.722 17.0132 173.103 17.2419C173.484 17.4611 173.77 17.7994 173.961 18.2568C174.151 18.7142 174.247 19.2907 174.247 19.9864V24.5605H172.774V20.0864C172.774 19.6576 172.717 19.305 172.603 19.0287C172.488 18.7428 172.312 18.5379 172.074 18.414C171.836 18.2806 171.54 18.2234 171.188 18.2425C170.902 18.2425 170.64 18.2901 170.401 18.3854C170.163 18.4712 169.953 18.5951 169.772 18.7571C169.601 18.9191 169.463 19.1097 169.358 19.3288C169.263 19.5385 169.215 19.7672 169.215 20.015V24.5605H168.486C168.362 24.5605 168.238 24.5605 168.114 24.5605C167.99 24.5605 167.866 24.5605 167.743 24.5605Z" fill="#EEEEEE"/>
<path d="M91.8918 54.2377C90.7916 54.2377 89.7638 54.0423 88.8084 53.6514C87.853 53.2461 87.0134 52.6888 86.2896 51.9794C85.5658 51.2701 85.0012 50.445 84.5959 49.504C84.205 48.5486 84.0096 47.5208 84.0096 46.4206C84.0096 45.3349 84.205 44.3216 84.5959 43.3806C85.0012 42.4397 85.5585 41.6218 86.2678 40.9269C86.9917 40.2176 87.8313 39.6675 88.7867 39.2766C89.7421 38.8858 90.7699 38.6904 91.8701 38.6904C92.6373 38.6904 93.3829 38.7989 94.1067 39.0161C94.8449 39.2332 95.5109 39.5372 96.1044 39.9281C96.6979 40.3189 97.1828 40.7677 97.5592 41.2743L96.0392 42.8595C95.6049 42.4397 95.1562 42.0922 94.693 41.8172C94.2442 41.5422 93.781 41.3322 93.3032 41.1875C92.8255 41.0427 92.3478 40.9703 91.8701 40.9703C91.0884 40.9703 90.3646 41.1079 89.6987 41.3829C89.0473 41.658 88.4682 42.0416 87.9616 42.5338C87.4694 43.026 87.0857 43.605 86.8107 44.2709C86.5357 44.9223 86.3981 45.6389 86.3981 46.4206C86.3981 47.1734 86.5429 47.8899 86.8324 48.5703C87.1219 49.2362 87.52 49.8225 88.0267 50.3292C88.5478 50.8358 89.1414 51.2339 89.8073 51.5234C90.4876 51.813 91.2042 51.9577 91.957 51.9577C92.5215 51.9577 93.0571 51.8781 93.5638 51.7189C94.0705 51.5452 94.5192 51.3063 94.9101 51.0023C95.3009 50.6983 95.6049 50.3509 95.8221 49.96C96.0392 49.5547 96.1478 49.1276 96.1478 48.6789V48.2446L96.4735 48.5486H91.8267V46.2252H98.5581C98.587 46.3844 98.6087 46.5437 98.6232 46.7029C98.6377 46.8477 98.6449 46.9924 98.6449 47.1372C98.6594 47.2675 98.6666 47.3977 98.6666 47.528C98.6666 48.5269 98.4929 49.4389 98.1455 50.264C97.7981 51.0747 97.3131 51.7768 96.6907 52.3703C96.0827 52.9638 95.3661 53.427 94.541 53.76C93.7303 54.0785 92.8472 54.2377 91.8918 54.2377ZM106.28 54.2377C105.166 54.2377 104.167 53.9844 103.284 53.4777C102.415 52.9566 101.727 52.2545 101.221 51.3714C100.714 50.4739 100.461 49.4534 100.461 48.3097C100.461 47.1661 100.714 46.1528 101.221 45.2698C101.727 44.3722 102.415 43.6701 103.284 43.1635C104.167 42.6423 105.166 42.3818 106.28 42.3818C107.38 42.3818 108.365 42.6423 109.233 43.1635C110.116 43.6701 110.811 44.3722 111.318 45.2698C111.825 46.1528 112.078 47.1661 112.078 48.3097C112.078 49.4534 111.825 50.4739 111.318 51.3714C110.811 52.2545 110.116 52.9566 109.233 53.4777C108.365 53.9844 107.38 54.2377 106.28 54.2377ZM106.28 52.1966C106.961 52.1966 107.569 52.0301 108.104 51.6972C108.64 51.3497 109.06 50.8865 109.364 50.3074C109.668 49.7139 109.812 49.048 109.798 48.3097C109.812 47.557 109.668 46.8911 109.364 46.312C109.06 45.7185 108.64 45.2553 108.104 44.9223C107.569 44.5894 106.961 44.4229 106.28 44.4229C105.6 44.4229 104.985 44.5966 104.434 44.944C103.899 45.277 103.479 45.7402 103.175 46.3337C102.871 46.9128 102.726 47.5715 102.741 48.3097C102.726 49.048 102.871 49.7139 103.175 50.3074C103.479 50.8865 103.899 51.3497 104.434 51.6972C104.985 52.0301 105.6 52.1966 106.28 52.1966ZM119.639 54.2377C118.525 54.2377 117.526 53.9844 116.643 53.4777C115.774 52.9566 115.087 52.2545 114.58 51.3714C114.073 50.4739 113.82 49.4534 113.82 48.3097C113.82 47.1661 114.073 46.1528 114.58 45.2698C115.087 44.3722 115.774 43.6701 116.643 43.1635C117.526 42.6423 118.525 42.3818 119.639 42.3818C120.74 42.3818 121.724 42.6423 122.593 43.1635C123.476 43.6701 124.171 44.3722 124.677 45.2698C125.184 46.1528 125.437 47.1661 125.437 48.3097C125.437 49.4534 125.184 50.4739 124.677 51.3714C124.171 52.2545 123.476 52.9566 122.593 53.4777C121.724 53.9844 120.74 54.2377 119.639 54.2377ZM119.639 52.1966C120.32 52.1966 120.928 52.0301 121.463 51.6972C121.999 51.3497 122.419 50.8865 122.723 50.3074C123.027 49.7139 123.172 49.048 123.157 48.3097C123.172 47.557 123.027 46.8911 122.723 46.312C122.419 45.7185 121.999 45.2553 121.463 44.9223C120.928 44.5894 120.32 44.4229 119.639 44.4229C118.959 44.4229 118.344 44.5966 117.794 44.944C117.258 45.277 116.838 45.7402 116.534 46.3337C116.23 46.9128 116.086 47.5715 116.1 48.3097C116.086 49.048 116.23 49.7139 116.534 50.3074C116.838 50.8865 117.258 51.3497 117.794 51.6972C118.344 52.0301 118.959 52.1966 119.639 52.1966ZM132.977 59.0148C132.166 59.0148 131.356 58.8845 130.545 58.624C129.749 58.3779 129.105 58.0522 128.613 57.6468L129.438 55.9097C129.727 56.1268 130.067 56.315 130.458 56.4743C130.849 56.648 131.262 56.7783 131.696 56.8651C132.13 56.9665 132.557 57.0171 132.977 57.0171C133.773 57.0171 134.439 56.8868 134.975 56.6263C135.51 56.3657 135.916 55.9821 136.191 55.4754C136.466 54.9688 136.603 54.339 136.603 53.5863V51.3932L136.842 51.5452C136.77 51.9939 136.531 52.4282 136.126 52.848C135.735 53.2533 135.243 53.5863 134.649 53.8469C134.056 54.1074 133.448 54.2377 132.825 54.2377C131.739 54.2377 130.769 53.9844 129.915 53.4777C129.076 52.9566 128.41 52.2545 127.918 51.3714C127.425 50.4739 127.179 49.4534 127.179 48.3097C127.179 47.1661 127.418 46.1528 127.896 45.2698C128.388 44.3722 129.054 43.6701 129.894 43.1635C130.748 42.6423 131.703 42.3818 132.76 42.3818C133.194 42.3818 133.614 42.4397 134.019 42.5555C134.425 42.6568 134.801 42.8088 135.149 43.0115C135.496 43.1997 135.807 43.4096 136.082 43.6412C136.357 43.8728 136.582 44.1189 136.755 44.3795C136.929 44.64 137.038 44.8861 137.081 45.1178L136.603 45.2915V42.6206H138.84V53.3257C138.84 54.2377 138.702 55.0411 138.427 55.736C138.167 56.4453 137.783 57.0388 137.276 57.5166C136.77 58.0087 136.155 58.3779 135.431 58.624C134.707 58.8845 133.889 59.0148 132.977 59.0148ZM133.064 52.1749C133.773 52.1749 134.403 52.0084 134.953 51.6754C135.503 51.3425 135.93 50.8865 136.234 50.3074C136.538 49.7284 136.69 49.0625 136.69 48.3097C136.69 47.557 136.531 46.8911 136.212 46.312C135.909 45.7185 135.481 45.2553 134.931 44.9223C134.396 44.5894 133.773 44.4229 133.064 44.4229C132.369 44.4229 131.747 44.5966 131.197 44.944C130.661 45.277 130.234 45.7402 129.915 46.3337C129.611 46.9128 129.459 47.5715 129.459 48.3097C129.459 49.048 129.611 49.7139 129.915 50.3074C130.234 50.8865 130.661 51.3425 131.197 51.6754C131.747 52.0084 132.369 52.1749 133.064 52.1749ZM142.019 54.0206V37.9521H144.256V54.0206H142.019ZM152.533 54.2377C151.361 54.2377 150.319 53.9916 149.407 53.4994C148.509 52.9928 147.8 52.3051 147.279 51.4366C146.772 50.568 146.519 49.5692 146.519 48.44C146.519 47.5425 146.663 46.7246 146.953 45.9863C147.242 45.248 147.64 44.6111 148.147 44.0755C148.668 43.5254 149.284 43.1056 149.993 42.8161C150.717 42.5121 151.498 42.3601 152.338 42.3601C153.076 42.3601 153.764 42.5048 154.401 42.7943C155.038 43.0694 155.588 43.453 156.051 43.9452C156.529 44.4374 156.891 45.0237 157.137 45.704C157.397 46.3699 157.52 47.101 157.506 47.8972L157.484 48.8526H148.169L147.669 47.072H155.552L155.226 47.4412V46.92C155.183 46.4423 155.023 46.0153 154.748 45.6389C154.473 45.2625 154.126 44.9658 153.706 44.7486C153.286 44.5315 152.83 44.4229 152.338 44.4229C151.556 44.4229 150.898 44.5749 150.362 44.8789C149.826 45.1684 149.421 45.6027 149.146 46.1817C148.871 46.7463 148.733 47.4484 148.733 48.288C148.733 49.0842 148.9 49.7791 149.233 50.3726C149.566 50.9516 150.036 51.4004 150.644 51.7189C151.252 52.0373 151.954 52.1966 152.751 52.1966C153.315 52.1966 153.836 52.1025 154.314 51.9143C154.806 51.7261 155.335 51.3859 155.899 50.8937L157.028 52.4789C156.681 52.8263 156.254 53.1303 155.747 53.3909C155.255 53.6514 154.727 53.8613 154.162 54.0206C153.612 54.1653 153.069 54.2377 152.533 54.2377ZM166.587 54.0206V38.8206H172.776C173.601 38.8206 174.346 39.0305 175.012 39.4504C175.693 39.8557 176.235 40.413 176.641 41.1223C177.046 41.8317 177.249 42.6206 177.249 43.4892C177.249 44.3578 177.046 45.1467 176.641 45.856C176.235 46.5654 175.693 47.1372 175.012 47.5715C174.346 47.9913 173.601 48.2012 172.776 48.2012H168.932V54.0206H166.587ZM168.932 45.9429H172.732C173.123 45.9429 173.478 45.8343 173.796 45.6172C174.115 45.3856 174.368 45.0888 174.556 44.7269C174.759 44.3505 174.86 43.938 174.86 43.4892C174.86 43.0404 174.759 42.6351 174.556 42.2732C174.368 41.9113 174.115 41.6218 173.796 41.4046C173.478 41.1875 173.123 41.0789 172.732 41.0789H168.932V45.9429ZM179.828 54.0206V37.9521H182.065V54.0206H179.828ZM189.409 54.2377C188.468 54.2377 187.606 53.9771 186.825 53.456C186.057 52.9349 185.442 52.2255 184.979 51.328C184.516 50.4305 184.284 49.4172 184.284 48.288C184.284 47.1444 184.516 46.1311 184.979 45.248C185.457 44.3505 186.094 43.6484 186.89 43.1418C187.7 42.6351 188.605 42.3818 189.604 42.3818C190.198 42.3818 190.74 42.4686 191.233 42.6423C191.725 42.8161 192.152 43.0621 192.514 43.3806C192.89 43.6846 193.194 44.0393 193.426 44.4446C193.672 44.8499 193.824 45.2842 193.882 45.7475L193.382 45.5738V42.6206H195.641V54.0206H193.382V51.3063L193.904 51.1543C193.817 51.5452 193.636 51.9288 193.361 52.3051C193.1 52.6671 192.76 52.9928 192.34 53.2823C191.935 53.5718 191.479 53.8034 190.972 53.9771C190.48 54.1509 189.959 54.2377 189.409 54.2377ZM189.995 52.1749C190.675 52.1749 191.276 52.0084 191.797 51.6754C192.318 51.3425 192.724 50.8865 193.013 50.3074C193.317 49.7139 193.469 49.0408 193.469 48.288C193.469 47.5497 193.317 46.8911 193.013 46.312C192.724 45.733 192.318 45.277 191.797 44.944C191.276 44.6111 190.675 44.4446 189.995 44.4446C189.329 44.4446 188.736 44.6111 188.214 44.944C187.708 45.277 187.302 45.733 186.998 46.312C186.709 46.8911 186.564 47.5497 186.564 48.288C186.564 49.0408 186.709 49.7139 186.998 50.3074C187.302 50.8865 187.708 51.3425 188.214 51.6754C188.736 52.0084 189.329 52.1749 189.995 52.1749ZM200.42 59.0148L202.722 53.6949L202.743 55.4754L197.054 42.6206H199.66L203.221 51.0023C203.293 51.1471 203.38 51.3714 203.482 51.6754C203.583 51.965 203.67 52.2545 203.742 52.544L203.178 52.6743C203.293 52.3703 203.402 52.0663 203.503 51.7623C203.619 51.4583 203.728 51.1543 203.829 50.8503L206.804 42.6206H209.453L204.763 54.0206L202.83 59.0148H200.42Z" fill="#EEEEEE"/>
<defs>
<clipPath id="clip0_10164_26811">
<rect width="54.0651" height="54.0651" fill="white" transform="translate(14.9213 10.5605)"/>
</clipPath>
</defs>
</svg>
