<svg width="430" height="265" viewBox="0 0 430 265" fill="none" xmlns="http://www.w3.org/2000/svg">
<path d="M387.983 226.813C388.181 233.238 388.922 239.563 389.416 245.988C389.515 247.273 390.256 247.619 391.245 247.866C394.556 248.805 397.818 249.941 400.931 251.424C402.068 251.968 403.155 252.561 403.995 253.45C405.626 255.131 405.23 256.317 402.858 256.959C401.524 256.86 400.19 256.811 398.855 257.008C393.518 257.058 388.23 255.971 382.992 255.131C380.521 254.735 379.681 252.758 381.509 251.029C384.326 248.261 383.288 245.691 382.152 242.875C381.114 240.305 380.521 237.537 379.186 235.066C377.309 232.941 376.963 230.174 376.073 227.653C371.181 214.162 366.337 200.621 361.544 187.08C361 185.548 359.814 184.016 360.803 182.188C362.928 181.891 365.053 182.484 367.079 182.781C370.588 183.324 373.899 182.682 377.259 181.99C380.521 181.348 382.547 179.321 383.585 176.208C384.227 184.214 384.919 192.22 385.562 200.226C386.451 209.171 387.192 217.967 387.983 226.813Z" fill="#EC1B24"/>
<path d="M383.684 176.258C383.486 179.766 382.399 181.15 378.791 182.336C372.811 184.313 366.881 187.031 360.852 185.351C358.48 183.374 358.035 177.592 357.887 174.775C361.198 173.886 364.657 173.984 368.067 173.441C372.465 172.749 376.765 171.711 380.867 170.13C381.707 169.784 382.497 169.388 383.436 169.438C383.535 171.711 383.585 173.984 383.684 176.258Z" fill="#D21821"/>
<path d="M385.909 93.0844C385.613 93.9245 385.316 94.7152 385.02 95.5554C384.179 96.7414 384.871 97.7298 385.464 98.7182C386.749 100.893 388.479 102.771 389.566 105.093C395.991 115.076 402.316 125.157 408.642 135.19C409.531 136.573 410.52 137.364 410.124 138.105C409.729 138.896 410.026 138.6 409.433 139.44C409.037 140.033 408.296 141.021 407.752 142.108C403.601 150.361 399.499 158.664 395.348 166.966C395.15 167.411 395.002 167.905 394.854 168.35C394.409 169.487 393.767 170.524 393.273 171.612C392.976 172.254 392.482 172.402 391.988 171.71C390.159 167.905 387.886 167.362 384.575 169.783C380.325 172.896 380.078 177.196 383.932 181.693C387.688 186.042 389.961 186.437 395.052 183.571C396.781 182.583 398.412 181.347 399.549 179.815C403.107 175.021 407.604 171.167 411.656 166.867C417.636 160.492 423.023 153.672 426.482 145.518C426.631 145.222 426.878 144.975 427.075 144.727C429.497 138.649 429.596 132.719 426.927 126.591C422.973 117.3 418.921 108.256 415.066 98.9653C414.77 98.224 414.127 97.1862 413.633 96.5437C409.729 92.2937 406.369 88.2413 401.13 85.6715C395.793 83.0523 390.456 84.6831 387.54 89.9216C386.947 90.91 386.354 91.9478 385.909 93.0844Z" fill="#FCBF7D"/>
<path d="M398.709 84.3372C403.552 86.4622 404.688 86.9564 408.543 91.0582C408.592 91.1076 408.642 91.157 408.642 91.2065C409.877 92.3925 412.398 94.7646 413.188 96.0001C413.238 96.0495 413.287 96.1484 413.287 96.1978C413.93 98.9653 407.011 103.957 405.726 106.625C405.479 107.218 405.182 107.762 404.886 108.306C402.662 111.963 401.427 115.027 398.709 117.695C398.017 113.346 397.374 108.997 396.534 104.698C395.397 98.817 393.717 93.1338 391.493 87.5494C391.296 87.0058 390.851 86.4622 390.9 85.8692C390.95 85.5232 391.296 85.375 391.592 85.1773C392.581 84.7325 396.583 83.6947 398.709 84.3372Z" fill="#D1153A"/>
<path d="M172.615 134.893C169.798 134.35 167.92 135.783 165.943 137.611C158.283 144.777 151.117 152.388 145.187 161.085C136.39 173.984 123.986 180.952 109.012 183.917C90.381 187.623 72.2936 184.757 54.6015 178.629C34.9821 171.859 17.7348 161.085 2.36539 147.149C2.01945 146.803 1.57468 146.606 0.882812 146.111C2.31597 145.321 3.35377 145.716 4.34216 145.815C16.8946 146.704 29.0024 145.024 40.3688 139.39C52.6247 133.312 60.7789 123.527 65.5232 110.826C68.4883 102.87 71.7006 95.0613 76.0989 87.7472C83.9071 74.8488 95.323 67.7819 110.248 66.2499C113.114 65.9533 115.98 65.5086 118.797 65.0638C127.742 63.6306 131.893 59.43 133.277 50.4851C133.821 47.174 133.524 43.9124 132.634 40.7001C130.213 32.2 124.332 29.5314 116.376 33.2378C115.881 33.3367 115.733 33.139 115.881 32.6942C125.864 23.2551 137.28 16.3364 150.969 13.7666C161.446 11.7899 171.626 12.9265 181.411 17.1271C195.249 23.0575 209.63 26.9616 224.357 29.6796C225.543 29.8773 226.778 30.1738 228.014 29.7785C235.377 30.4703 242.642 32.0023 250.055 32.4965C259.592 33.139 269.081 34.0285 278.619 33.8803C280.003 33.8803 281.436 33.732 282.77 34.1768C284.203 35.0169 283.264 36.0547 282.869 36.9443C281.683 39.4646 280.695 42.0344 279.953 44.7525C279.311 47.174 279.558 49.4473 280.695 51.6712C282.869 56.0695 285.093 60.4678 287.317 64.8661C290.035 71.4389 291.517 78.1599 289.59 85.2268C288.849 88.0437 287.712 90.663 286.032 92.9857C284.253 95.7037 282.375 98.3724 279.904 100.497C279.064 101.239 278.125 102.227 277.087 100.695C276.79 99.9538 276.79 99.1631 276.741 98.3724C276.889 97.1369 276.494 95.9508 276.197 94.7153C275.16 90.0699 272.194 87.599 267.598 86.7094C263.398 85.9187 259.247 85.9681 255.095 86.8083C249.363 87.5001 244.223 90.0699 239.133 92.4915C221.589 100.843 204.342 109.689 188.281 120.759C182.943 124.466 177.655 128.271 172.763 132.57C172.12 133.163 171.478 133.757 170.588 134.053C171.429 134.053 172.466 133.46 172.615 134.893Z" fill="#EC1941"/>
<path d="M285.291 92.9861C290.332 85.079 290.974 76.7766 287.811 68.0294C287.416 66.9422 287.07 65.855 286.724 64.7677C286.329 63.7299 286.428 62.6921 286.675 61.6543C290.925 43.7151 299.375 28.1975 313.312 15.9909C320.033 10.1101 327.643 5.51407 336.242 2.84543C337.379 2.49949 338.713 2.99369 339.603 1.95588C358.333 -1.55288 375.876 1.06633 391.839 11.988C404.737 20.834 414.028 32.6452 420.65 46.6803C420.156 45.8402 421.49 48.064 422.38 49.9914C426.284 58.4421 428.459 66.6951 429.694 75.8871C429.941 77.8144 429.743 79.3464 429.991 81.7679C429.991 82.7563 429.842 83.3494 429.892 84.1895C430.831 111.321 423.517 135.536 404.045 155.254C398.758 160.641 392.58 164.842 385.76 168.054C384.97 168.449 384.08 168.696 383.487 169.438C379.781 171.859 375.481 172.699 371.28 173.589C366.882 174.528 362.336 174.627 357.888 175.467C356.504 175.665 353.144 176.109 349.042 176.258C349.091 175.368 353.786 174.429 355.12 174.33C344.891 174.231 335.501 171.069 326.902 165.83C302.439 150.955 289.739 128.37 285.192 100.696C284.797 98.1257 283.759 95.5065 285.291 92.9861Z" fill="#FFEB4C"/>
<path d="M253.859 97.236C248.472 108.602 262.26 120.068 249.659 129.111C250.252 132.867 257.22 138.353 230.929 137.562C229.545 137.513 229.693 137.859 224.504 137.859C207.899 137.859 191.294 136.771 174.739 135.289C173.998 135.239 173.306 135.042 172.565 134.893C171.922 133.955 170.835 134.646 169.945 134.152C177.902 127.036 186.451 121.007 195.347 115.274C204.391 109.492 213.731 104.155 223.368 99.4105C232.757 94.8145 250.202 85.0789 262.063 85.6719C262.853 85.4742 260.037 89.1807 258.109 89.8231C257.714 92.7389 255.737 94.0732 254.205 96.2476C253.909 96.8407 254.304 96.7418 253.859 97.236Z" fill="#D1143A"/>
<path d="M298.09 240.997C296.756 244.95 295.422 248.904 293.989 252.808C293.494 254.142 294.433 254.537 295.125 255.18C297.448 257.354 297.349 258.491 294.68 260.122C289.541 263.186 283.858 264.273 277.977 264.817C277.581 264.866 277.137 264.866 276.741 264.767C275.16 264.421 273.232 264.174 272.887 262.247C272.541 260.468 274.369 259.875 275.605 259.183C278.965 257.255 282.672 256.119 286.427 255.13C287.959 254.735 288.552 253.994 288.651 252.412C288.948 248.656 289.393 244.901 289.788 241.145C290.925 232.101 292.061 223.057 293.148 214.014C294.878 199.386 296.558 184.807 298.288 170.179C298.337 169.783 298.535 169.388 298.634 168.993C300.215 169.339 300.66 170.969 301.797 171.859C305.8 174.775 310.297 175.911 315.091 176.208C316.227 176.257 317.413 176.01 318.402 176.752C319.143 178.086 318.451 179.321 318.155 180.557C316.82 185.746 315.041 190.787 313.361 195.827C308.814 209.912 304.169 223.947 299.523 237.982C299.276 239.069 299.128 240.305 298.09 240.997Z" fill="#EC1B24"/>
<path d="M270.465 108.603C272.046 106.527 274.27 105.143 276.049 103.315C276.741 102.623 277.384 101.931 277.532 100.943C278.619 101.486 278.916 100.399 279.459 99.905C281.732 97.9283 283.462 95.4079 285.241 92.9863C284.747 98.4719 286.23 103.661 287.366 108.899C290.331 122.094 295.767 134.301 304.169 144.926C315.09 158.763 328.631 168.845 346.175 172.7C349.338 173.391 352.55 174.083 356.01 173.935C355.021 174.775 355.861 174.083 354.972 174.825C354.774 174.973 354.576 175.121 354.379 175.22C352.896 175.862 351.414 175.862 350.376 176.011C341.381 177.197 332.585 176.06 323.936 173.441C322.849 173.095 321.713 172.848 320.675 172.354C319.983 171.958 319.934 171.266 320.131 170.624C321.811 165.731 319.093 162.47 315.931 159.455C313.608 157.231 310.742 155.749 307.776 154.513C303.675 152.833 301.945 153.574 300.314 157.627C300.166 158.022 299.968 158.368 299.573 158.615C290.084 150.659 283.166 140.725 277.828 129.655C277.334 128.667 277.235 127.382 276.099 126.789C273.282 121.007 271.354 114.978 270.465 108.603Z" fill="#D89116"/>
<path d="M283.166 34.6223C279.806 34.6223 276.396 34.7211 273.035 34.6223C263.794 34.3258 254.602 33.6833 245.36 32.7938C240.073 32.2996 234.884 31.1135 229.596 30.7181C228.854 30.6687 228.311 30.4216 227.965 29.7792C251.587 16.8808 276.84 11.247 303.675 13.0261C303.972 13.8168 303.428 14.2615 302.884 14.6569C295.62 19.7965 289.739 26.2704 284.599 33.4856C284.303 33.9304 283.957 34.5234 283.166 34.6223Z" fill="#D1143A"/>
<path d="M283.165 34.6227C288.453 26.7156 294.729 19.7475 302.488 14.1631C302.933 13.8666 303.279 13.3724 303.674 12.977C308.023 10.7532 312.174 8.13395 316.77 6.35485C324.134 3.53796 331.744 2.20364 339.552 1.95654C339.552 2.50015 339.355 2.74725 338.564 2.94493C334.808 3.83447 331.201 5.16879 327.741 6.94789C314.398 13.8666 304.317 24.0964 296.854 37.0442C292.209 45.0501 289.095 53.6491 287.02 62.6434C286.872 63.3352 286.773 64.0765 286.625 64.8178C284.252 60.2218 281.88 55.6258 279.607 50.9804C277.976 47.6199 279.162 44.3582 280.249 41.1954C281.09 38.9221 282.226 36.7971 283.165 34.6227Z" fill="#D89116"/>
<path d="M270.465 108.603C271.948 113.297 273.43 117.943 274.864 122.638C275.259 124.021 276.593 125.109 276.099 126.789C267.055 133.362 256.727 136.178 245.706 136.969C244.866 136.574 243.532 137.513 243.038 135.882C242.543 134.35 243.433 133.658 244.372 132.818C252.378 125.405 260.334 117.992 268.291 110.53C268.983 109.887 269.773 109.245 270.465 108.603Z" fill="#D1143A"/>
<path d="M299.573 158.615C300.067 152.091 303.773 152.19 308.271 154.068C312.273 155.748 315.98 157.972 318.747 161.531C321.218 164.693 322.207 167.955 320.378 171.76C319.588 174.577 319.736 178.877 317.808 180.063C311.928 180.211 306.887 176.257 301.945 172.699C300.512 171.661 299.375 170.525 298.634 168.993C298.98 165.533 299.276 162.074 299.573 158.615Z" fill="#D21821"/>
<path d="M115.832 32.645C115.98 32.8427 116.178 32.991 116.326 33.1886C115.98 33.8311 115.486 34.1276 114.597 34.0782C114.646 33.2381 115.19 32.8921 115.832 32.645Z" fill="#F593A6"/>
<path d="M170.144 105.242C163.818 109.492 157.443 113.693 151.167 117.943C141.629 124.367 132.635 131.533 124.827 139.984C121.12 143.987 118.303 148.583 115.733 153.376C114.103 156.391 112.62 159.504 110.94 162.568C107.184 169.487 101.797 173.391 93.7913 174.528C78.3725 176.752 63.6456 174.429 49.2152 169.042C40.9622 165.929 33.3022 161.63 25.9387 156.836C23.2207 155.057 20.7003 152.932 18.0811 150.955C18.6741 149.818 19.6131 150.263 20.3543 150.263C33.8458 149.868 46.4477 146.853 57.5176 138.699C62.2619 135.19 66.1165 130.891 69.2794 125.998C70.1689 124.615 70.6631 124.318 72.0469 125.455C75.6545 128.42 80.0034 129.705 84.5499 129.952C96.9047 130.594 108.716 128.024 120.478 124.318C137.28 119.03 153.391 112.062 169.156 104.303C169.65 103.957 170.193 103.858 170.589 104.402C170.885 104.699 170.49 105.044 170.144 105.242Z" fill="#D6153A"/>
<path d="M225.197 62.1982C195.545 62.4947 165.943 61.7534 136.736 68.4745C140.344 64.2738 143.507 59.9743 144.643 54.4888C145.78 48.9539 144.446 43.9625 141.332 39.2183C145.681 42.0846 149.882 44.9509 154.577 47.0265C164.263 51.2271 174.196 53.1051 184.772 51.1283C189.22 50.2882 193.816 50.5847 198.412 51.2271C207.653 52.4626 215.857 56.1196 223.764 60.7156C224.11 60.9133 224.455 61.1604 224.752 61.4075C224.95 61.5063 224.999 61.7534 225.197 62.1982Z" fill="#D6153A"/>
<path d="M170.144 105.242C170.687 104.056 169.798 104.303 169.155 104.254C172.615 102.475 176.074 100.695 179.484 98.9658C176.766 101.585 173.504 103.512 170.144 105.242Z" fill="#DE173D"/>
<path d="M398.906 257.008C400.241 256.119 401.575 256.168 402.909 256.959C401.575 257.354 400.241 257.305 398.906 257.008Z" fill="#EC0A14"/>
<path d="M305.058 125.01C303.674 123.379 303.279 121.353 302.488 119.475C297.102 106.725 294.977 93.3814 295.767 79.5934C296.163 71.9829 297.744 64.5206 300.166 57.3054C302.291 52.8082 303.971 48.064 306.64 43.8633C309.16 39.2179 312.422 35.1655 315.98 31.3603C317.215 29.8283 318.55 28.3457 320.18 27.2585C321.119 26.9619 321.712 26.2207 322.306 25.5288C329.62 20.2409 337.625 16.5345 346.62 15.2002C361.05 13.0257 374.245 16.4356 386.155 24.6887C401.03 35.0173 409.926 49.4477 414.571 66.695C419.365 84.4859 418.722 102.079 412.001 119.228C405.429 135.981 394.556 148.929 377.655 156.094C372.466 158.318 367.03 159.307 361.396 159.801C345.928 161.086 332.98 155.304 321.169 146.013C320.774 145.716 320.477 145.321 320.131 144.926C317.413 142.356 314.893 139.588 312.669 136.524C309.654 133.016 307.48 128.914 305.058 125.01Z" fill="#FFEB4C"/>
<path d="M320.378 27.7031C318.846 28.8398 317.562 30.1247 316.425 31.6567C315.832 32.0026 315.437 32.0026 315.437 31.1625C324.035 21.6246 334.315 15.1507 347.164 12.8279C361.495 10.2087 374.591 13.2233 386.65 20.8833C396.237 27.0113 403.699 35.3137 409.481 45.1975C415.066 54.7355 418.525 65.0641 420.106 75.8869C422.627 92.9859 420.502 109.443 413.237 125.257C407.159 138.452 398.214 149.077 385.365 156.094C375.53 161.481 365.053 163.507 353.786 162.173C342.914 160.888 333.475 156.49 324.974 149.917C322.998 148.385 320.774 147.001 319.39 144.777C319.39 143.937 319.785 143.937 320.378 144.283C323.294 147.495 326.951 149.67 330.608 151.795C337.922 155.995 345.731 158.714 354.329 159.208C366.734 159.9 377.902 156.737 388.033 149.571C403.353 138.798 411.211 123.527 415.313 105.786C417.141 97.7302 417.24 89.576 416.598 81.5207C415.56 68.6717 411.656 56.564 404.737 45.4446C398.016 34.6712 389.368 26.0229 377.853 20.6362C359.716 12.1855 342.123 13.2727 325.32 24.4415C324.381 25.0839 323.344 25.6275 322.405 26.2206C321.663 26.6159 321.07 27.2089 320.378 27.7031Z" fill="#EAB726"/>
<path d="M315.436 31.1138C315.634 31.5091 316.029 31.608 316.425 31.608C312.965 35.4627 309.457 39.3174 307.035 43.9628C306.59 44.111 306.393 43.9134 306.541 43.4686C308.715 38.8232 311.878 34.8202 315.436 31.1138Z" fill="#ECA019"/>
<path d="M306.541 43.4678C306.689 43.616 306.887 43.8137 307.035 43.962C304.91 48.0638 302.488 52.0667 300.956 56.465C300.858 56.811 300.413 57.0086 300.116 57.3052C301.796 52.5115 303.328 47.619 306.541 43.4678Z" fill="#F4AB1A"/>
<path d="M305.058 125.009C305.502 125.454 306.194 125.8 306.441 126.344C308.122 130.001 310.889 132.966 312.965 136.376C312.915 136.672 312.767 136.82 312.471 136.87C309.11 133.46 306.985 129.309 305.058 125.009Z" fill="#F3A91A"/>
<path d="M312.472 136.87C312.62 136.722 312.818 136.524 312.966 136.376C315.437 139.045 317.512 142.01 320.379 144.283C319.983 144.283 319.588 144.382 319.39 144.777C316.623 142.553 314.3 139.934 312.472 136.87Z" fill="#EDA219"/>
<path d="M343.605 41.985C343.605 41.8367 343.605 41.639 343.605 41.4908C344.446 40.7001 345.434 40.1565 346.62 40.0576C345.829 41.046 344.841 41.7379 343.605 41.985Z" fill="#F2AA26"/>
<path d="M320.378 27.7033C320.823 26.9126 321.366 26.2701 322.355 26.2207C321.91 27.0114 321.366 27.6539 320.378 27.7033Z" fill="#ECA019"/>
<path d="M275.555 88.8847C276.099 89.3789 276.593 89.8731 277.137 90.3673C277.236 90.4661 277.631 90.8121 277.73 90.9603C278.422 92.4923 278.422 92.4923 278.372 93.5301C278.224 95.754 277.68 97.9284 277.581 100.202C277.532 101.091 277.483 102.03 277.384 102.92C276.247 114.138 275.209 125.356 274.122 136.525C274.023 137.711 274.073 138.403 274.567 138.65C275.456 139.144 276.148 139.984 276.642 140.874C276.89 141.368 277.433 141.813 278.076 142.307C285.538 147.792 292.951 153.377 300.364 158.912C300.759 159.208 301.105 159.604 301.451 159.95C302.341 160.74 303.378 161.383 304.367 162.124C304.96 162.569 305.454 162.519 305.553 161.63C305.503 157.429 307.233 155.897 311.285 156.54C316.524 157.38 318.649 161.136 317.216 166.868C315.832 172.453 313.954 173.836 308.172 173.54C306.195 173.441 304.169 173.095 302.439 172.206C297.102 169.537 291.32 168.104 285.785 166.078C277.532 163.063 269.724 159.406 262.904 153.772C262.805 153.673 262.706 153.624 262.558 153.574C262.113 153.377 261.668 153.031 261.273 152.685C256.825 148.484 254.305 143.444 253.91 137.068C253.267 126.987 252.229 116.955 251.389 106.923C251.34 106.083 251.29 105.44 251.439 104.452C252.971 98.9168 254.898 93.5301 258.407 88.8847C262.014 84.1405 267.5 83.2015 272.442 86.5126C273.381 87.155 274.32 87.7975 275.209 88.5388C275.358 88.7364 275.456 88.8353 275.555 88.8847Z" fill="#FCBF7D"/>
<path d="M388.696 53.1836C386.037 62.7749 381.738 72.7723 373.996 80.7268C371.11 83.7241 371.094 82.578 373.29 86.3661C378.639 95.5465 383.884 104.765 389.178 113.988C391.368 117.826 392.199 121.803 390.097 126.185C386.361 133.91 377.861 133.418 374.311 126.735C370.057 118.827 365.749 110.962 361.495 103.053C357.902 96.3161 354.313 89.5299 350.78 82.7003C350.045 81.3211 350.05 80.4261 351.758 79.4309C356.4 76.7375 360.018 72.5816 363.116 67.768C366.958 61.6976 369.242 54.8986 370.66 47.8495C371.877 41.6725 377.594 37.8605 382.281 39.0531C387.067 40.2571 390.012 45.7247 388.696 53.1836Z" fill="#EAB726"/>
<path d="M329.684 50.2429C330.593 45.4233 332.89 42.3573 336.784 40.9698C340.524 39.6142 343.776 40.7391 346.363 43.7271C348.864 46.6055 349.068 50.4104 349.058 54.3398C348.901 67.6553 348.847 80.9331 348.837 94.2658C348.833 103.271 348.977 112.293 348.869 121.335C348.758 129.979 342.064 135.767 335.187 132.877C331.582 131.363 329.126 127.246 329.194 121.532C329.371 112.746 329.199 103.97 329.229 95.1668C329.229 87.9029 329.376 80.6561 329.431 73.3487C329.469 66.1887 329.512 58.9795 329.55 51.8195C329.575 51.1756 329.649 50.5375 329.684 50.2429Z" fill="#EAB726"/>
</svg>
