<svg width="327" height="209" viewBox="0 0 327 209" fill="none" xmlns="http://www.w3.org/2000/svg">
<path d="M160.718 73.7491C160.563 73.2832 118.038 57.3704 106.554 43.1439C106.554 43.1439 105.735 38.9896 102.523 36.6379C99.3103 34.2861 92.8281 36.034 92.8619 37.9553C92.8994 39.8444 97.0336 45.0557 105.337 47.3721C105.337 47.3721 128.753 69.9615 160.467 77.4825C160.507 77.4921 161.452 76.0688 160.718 73.7491Z" fill="#F9CEB5"/>
<path d="M160.084 52.4872C160.084 52.4872 191.325 93.7007 219.589 100.901C247.852 108.101 251.729 127.246 251.729 127.246C251.729 127.246 228.803 116.813 220.995 121.573C213.186 126.334 192.942 126.345 186.087 120.764C179.276 115.16 169.785 103.349 161.502 104.754C153.223 106.127 142.276 88.4105 142.276 88.4105L160.084 52.4872Z" fill="#FF4B55"/>
<path opacity="0.3" d="M158.032 104.534C161.649 106.432 166.039 108.011 169.652 107.168C170.45 106.979 171.179 106.683 172.01 106.563C174.088 106.264 176.437 107.135 178.529 108.102C182.711 110.065 186.593 112.485 190.018 115.323C192.548 117.436 195.159 119.905 198.512 120.573C200.867 121.045 203.092 120.533 205.122 119.947C207.155 119.33 209.239 118.632 210.536 117.325C211.873 116.027 212.279 113.964 210.972 112.221C210.333 111.399 209.395 110.694 208.922 109.848C208.45 109.002 208.83 107.857 209.925 107.92C210.167 107.944 210.446 108.007 210.681 108.091C213.873 109.092 217.024 110.083 220.212 111.113C223.01 111.993 226.121 112.976 228.831 112.512C230.793 112.156 231.067 110.864 231.784 109.98C246.492 117.623 248.904 128.39 248.904 128.39C248.904 128.39 226.552 119.046 218.945 123.295C211.338 127.543 191.607 127.536 184.922 122.542C178.28 117.528 169.022 106.963 160.95 108.213C152.881 109.432 142.201 93.589 142.201 93.589L142.416 93.1453C147.1 97.4392 152.144 101.445 158.032 104.534Z" fill="black"/>
<path opacity="0.3" d="M167.908 99.7662C173.315 104.701 179.323 109.275 184.088 114.526C188.167 119.003 191.242 123.939 193.09 128.808C190.567 127.9 188.368 126.802 186.801 125.515C182.762 122.161 177.818 116.95 172.77 113.011C171.813 110.713 170.722 108.437 169.369 106.142C165.699 99.8724 160.85 94.0392 157.785 87.8984C160.089 92.0325 163.895 96.0944 167.908 99.7662Z" fill="#20A2A5"/>
<path opacity="0.3" d="M161.655 87.8592C160.759 86.274 160.104 84.7294 159.648 83.1049C160.198 84.7598 160.854 86.3043 161.655 87.8592Z" fill="black"/>
<path opacity="0.3" d="M221.906 118.91C220.69 117.513 219.304 116.15 217.828 114.846C212.268 110.01 205.455 106.043 198.913 101.873C194.274 98.9098 189.727 95.8605 185.315 92.7103C179.642 88.6562 174.414 84.7887 172.182 79.7771C181.677 90.2655 198.954 101.885 228.079 110.913C233.219 112.506 240.996 120.185 243.948 123.722C237.178 121.144 227.281 117.902 221.906 118.91Z" fill="black"/>
<path d="M161.312 99.6782C159.936 102.9 174.526 150.909 174.823 152.21C175.12 153.51 166.492 167.566 166.492 167.566C166.492 167.566 162.874 167.237 169.374 151.913L151.954 104.573L161.312 99.6782Z" fill="#B3353C"/>
<path d="M145.27 93.3857C144.189 96.6757 164.982 142.986 165.442 144.236C165.901 145.486 158.444 160.215 158.444 160.215C158.444 160.215 154.611 160.211 159.672 144.431L135.995 99.0707L145.27 93.3857Z" fill="#B3353C"/>
<path d="M127.623 66.0271C122.432 40.9932 126.55 20.2817 136.82 19.7665C147.09 19.2513 159.624 39.1276 164.815 64.1615C170.005 89.1953 165.887 109.907 155.617 110.422C145.347 110.937 132.813 91.0609 127.623 66.0271Z" fill="#FFEB4C"/>
<path opacity="0.6" d="M158.509 74.0737L168.091 76.3315C168.371 78.1603 168.53 79.8896 168.609 81.5327C164.764 80.6745 161.299 79.9068 161.299 79.9068L158.509 74.0737Z" fill="#FFEB4C"/>
<path opacity="0.6" d="M167.798 62.1884C168.081 63.0543 168.364 63.9202 168.607 64.7406L157.833 62.4066L154.193 51.712L163.995 52.9869C165.476 55.9521 166.728 59.0355 167.798 62.1884Z" fill="#FFEB4C"/>
<path opacity="0.5" d="M155.328 36.5526C147.5 36.8551 137.944 37.2908 137.944 37.2908L151.973 87.6643L171.069 88.6325C169.849 99.2744 165.041 106.35 157.444 106.597C153.145 106.765 148.496 104.702 143.98 100.979L130.232 44.1303C130.232 44.1303 129.923 32.6174 129.975 23.6398C131.25 23.0929 132.637 22.7621 134.132 22.6841C141.004 22.4812 148.68 27.8585 155.328 36.5526Z" fill="#EAB726"/>
<path d="M124.351 66.9955C119.186 42.0428 122.804 21.4235 132.433 20.9408C142.061 20.4582 154.055 40.2951 159.221 65.2477C164.387 90.2004 160.768 110.82 151.14 111.302C141.511 111.785 129.517 91.9481 124.351 66.9955Z" fill="#FFDD50"/>
<path opacity="0.5" d="M127.568 84.5318C138.073 91.7124 148.599 98.2714 159.091 104.748C159.13 104.794 159.215 104.816 159.254 104.863C161.096 103.187 162.534 100.782 163.551 97.7926C148.578 82.2951 133.424 67.6744 118.225 53.4847C118.65 57.7596 119.479 62.3575 120.813 67.1562C122.519 73.4131 124.837 79.2708 127.568 84.5318ZM164.652 76.1607C165.161 79.6452 165.378 82.9825 165.315 86.065C158.393 81.4827 151.45 76.6741 144.484 71.675C135.688 65.3302 126.844 58.6046 118.051 51.8179C117.478 43.965 118.408 37.2281 120.659 32.52L120.698 32.5667C124.435 37.0114 128.861 40.3383 132.76 44.0859C140.842 51.8 148.901 59.7298 156.88 68.008C159.492 70.6573 162.055 73.3677 164.652 76.1607Z" fill="#FFEB4C"/>
<path d="M125.501 66.9379C120.67 43.6003 124.044 24.3161 133.038 23.8653C142.032 23.4145 153.239 41.9679 158.071 65.3054C162.902 88.643 159.527 107.927 150.534 108.378C141.54 108.829 130.333 90.2754 125.501 66.9379Z" fill="#F9A91C"/>
<path d="M127.165 66.7738C122.55 44.4817 125.773 26.0613 134.363 25.6308C142.953 25.2002 153.658 42.9225 158.273 65.2147C162.888 87.5068 159.665 105.927 151.075 106.358C142.485 106.788 131.78 89.066 127.165 66.7738Z" fill="#FFEB4C"/>
<path d="M135.646 48.7505L140.29 84.5431C140.704 87.7326 139.247 90.3818 137.033 90.4686C134.818 90.5553 132.693 88.0463 132.279 84.8569L127.635 49.0642C127.221 45.8748 128.677 43.2255 130.892 43.1388C133.107 43.0521 135.232 45.5611 135.646 48.7505Z" fill="#EAB726"/>
<path d="M141.442 71.0528L137.479 63.7374L137.374 62.8814C138.498 61.9326 139.409 60.853 140.171 59.6396L141.442 71.0528Z" fill="#EAB726"/>
<path d="M139.309 58.8735C141.439 55.4609 142.249 50.9842 142.572 45.1277C142.704 42.6609 143.955 40.9066 145.624 40.8353C148.133 40.728 150.363 44.3544 150.046 48.0097C149.308 56.2851 147.426 60.4274 145.143 63.6665L154.503 80.1542C156.494 83.6708 155.387 88.5204 152.548 88.6417C151.313 88.6945 150.05 87.768 149.213 86.2231L140.565 70.2651L139.309 58.8735Z" fill="#EAB726"/>
<path opacity="0.3" d="M137.208 92.7063C142.966 93.4957 148.272 91.4923 150.834 85.2556C152.431 81.3904 152.865 76.0918 152.801 70.5955C152.784 66.4135 152.511 61.9776 151.687 57.4076C150.838 52.6397 149.295 47.7414 147.35 43.0897C145.547 38.8561 143.394 34.8056 141.01 31.1584C140.93 31.024 140.846 30.927 140.767 30.7926C148.956 36.9654 156.925 49.5233 161.13 64.1923C167.136 85.2793 163.08 102.688 152.055 103.107C146.471 103.318 140.144 99.0939 134.491 92.1211C135.355 92.4083 136.277 92.5946 137.208 92.7063Z" fill="#EAB726"/>
<path d="M167.613 81.1286C167.335 80.7101 125.404 76.4792 110.205 65.3527C110.205 65.3527 107.873 61.404 104.3 59.9063C100.691 58.4384 95.9112 61.9884 96.6681 63.8937C97.4635 65.8025 102.944 69.8982 110.812 69.9041C110.812 69.9041 139.248 86.14 168.857 84.9155C168.861 84.9486 169.123 83.2646 167.613 81.1286Z" fill="#F9CEB5"/>
<path d="M251.729 152.379C251.028 144.991 244.808 139.179 237.215 139.179C237.215 130.477 230.148 123.409 221.446 123.409C214.846 123.409 209.18 127.469 206.844 133.222C205.705 132.667 204.449 132.346 203.077 132.346C198.521 132.346 194.812 135.938 194.637 140.464C192.914 138.916 190.665 137.982 188.183 137.982C182.839 137.982 178.546 142.304 178.546 147.619C178.546 147.969 178.575 148.291 178.604 148.641C176.56 147.356 174.136 146.597 171.537 146.597C164.178 146.597 158.221 152.554 158.221 159.913C158.221 167.273 164.178 173.23 171.537 173.23C173.114 173.23 174.633 172.938 176.064 172.442C177.904 178.574 183.627 183.042 190.344 183.042C195.426 183.042 199.894 180.502 202.58 176.647C204.362 178.662 206.932 179.918 209.823 179.918C211.429 179.918 212.918 179.538 214.262 178.837C217.24 182.517 221.796 184.882 226.877 184.882C234.47 184.882 240.866 179.655 242.618 172.588C244.75 174.69 247.699 176.004 250.941 176.004C257.482 176.004 262.797 170.689 262.797 164.148C262.826 157.928 257.92 152.788 251.729 152.379Z" fill="url(#paint0_linear_11320_3729)"/>
<path d="M309.582 82.1453C304.997 76.8011 297.024 75.6914 291.125 79.8383C286.365 73.0923 277.049 71.457 270.304 76.1879C265.193 79.7799 263.003 86.0001 264.317 91.7532C263.12 91.9284 261.981 92.3956 260.929 93.1257C257.396 95.608 256.49 100.426 258.798 104.018C256.636 103.756 254.388 104.252 252.46 105.625C248.314 108.516 247.321 114.24 250.241 118.357C250.416 118.62 250.621 118.883 250.825 119.117C248.547 119.233 246.24 119.963 244.225 121.394C238.531 125.395 237.158 133.28 241.159 138.975C245.16 144.669 253.044 146.042 258.739 142.041C259.966 141.165 260.988 140.143 261.805 138.975C266.595 142.713 273.428 143.092 278.685 139.413C282.627 136.638 284.701 132.258 284.701 127.79C287.154 128.374 289.87 127.965 292.089 126.388C293.345 125.512 294.279 124.402 294.951 123.117C299.273 124.344 304.092 123.701 308.034 120.927C313.933 116.78 316.036 109.246 313.553 102.821C316.357 103.288 319.365 102.704 321.876 100.923C326.958 97.3602 328.184 90.3514 324.621 85.2701C321.175 80.4223 314.576 79.079 309.582 82.1453Z" fill="url(#paint1_linear_11320_3729)"/>
<path d="M170.72 153.956C169.231 153.664 167.742 153.664 166.34 153.898C165.61 149.751 162.427 146.276 158.046 145.399C158.017 145.399 158.017 145.399 157.988 145.399C158.075 145.049 158.192 144.699 158.251 144.319C159.623 137.485 155.155 130.827 148.322 129.455C145.197 128.841 142.101 129.425 139.531 130.915C137.662 123.818 131.88 118.007 124.2 116.488C114.592 114.561 105.218 119.934 101.801 128.783C100.866 128.286 99.8735 127.936 98.793 127.702C92.8063 126.505 86.9657 130.389 85.7684 136.405C85.6808 136.785 85.6224 137.164 85.5932 137.573C84.8923 137.31 84.1622 137.106 83.4321 136.96C75.9269 135.47 68.6261 140.347 67.1368 147.853C65.6474 155.358 70.5243 162.659 78.0296 164.148C81.3003 164.79 84.5419 164.235 87.2577 162.775C87.3454 170.894 93.0984 178.107 101.363 179.742C109.16 181.29 116.753 177.435 120.287 170.748C122.506 173.464 125.66 175.479 129.369 176.209C131.909 176.705 134.421 176.559 136.728 175.917C138.1 179.567 141.254 182.429 145.343 183.247C151.622 184.502 157.754 180.414 158.981 174.135C159.01 173.96 159.039 173.756 159.068 173.58C160.762 175.625 163.186 177.143 165.989 177.698C172.531 179.012 178.897 174.749 180.211 168.207C181.526 161.636 177.291 155.27 170.72 153.956Z" fill="url(#paint2_linear_11320_3729)"/>
<path d="M220.22 166.426C217.708 166.426 215.43 167.302 213.62 168.791C212.364 162.834 207.078 158.395 200.77 158.395C194.813 158.395 189.79 162.366 188.155 167.798C186.11 166.104 183.511 165.112 180.679 165.112C178.751 165.112 176.911 165.579 175.305 166.396C173.787 163.914 171.042 162.25 167.888 162.25C163.069 162.25 159.185 166.134 159.185 170.952C159.185 171.098 159.185 171.244 159.185 171.39C157.637 170.134 155.652 169.375 153.49 169.375C148.497 169.375 144.438 173.434 144.438 178.428C144.438 183.422 148.497 187.481 153.49 187.481C154.629 187.481 155.71 187.277 156.732 186.897C157.871 189.847 160.733 191.949 164.062 191.949H164.091C164.062 192.212 164.062 192.504 164.062 192.767C164.062 197.994 168.296 202.258 173.553 202.258C175.948 202.258 178.138 201.382 179.803 199.892C182.226 204.857 187.308 208.245 193.207 208.245C200.566 208.245 206.669 202.93 207.896 195.921C208.655 196.154 209.444 196.271 210.261 196.271C214.846 196.271 218.555 192.562 218.555 187.978C218.555 187.686 218.526 187.394 218.497 187.101C219.052 187.189 219.606 187.247 220.19 187.247C225.914 187.247 230.587 182.604 230.587 176.851C230.587 171.098 225.943 166.426 220.22 166.426Z" fill="url(#paint3_linear_11320_3729)"/>
<path d="M158.717 168.908C156.469 168.411 154.191 168.616 152.176 169.404C149.664 166.718 146.218 164.936 142.334 164.586C141.984 158.774 137.195 154.16 131.296 154.16C129.573 154.16 127.937 154.569 126.477 155.27C123.586 146.217 115.117 139.676 105.1 139.676C96.7775 139.676 89.506 144.231 85.6219 150.977C83.9282 150.364 82.0884 150.013 80.1609 150.013C74.3203 150.013 69.239 153.167 66.4939 157.84C64.9169 157.227 63.2231 156.876 61.4417 156.876C53.7321 156.876 47.4826 163.126 47.4826 170.835C47.4826 171.069 47.4826 171.303 47.5118 171.536C46.3437 171.098 45.0588 170.835 43.7446 170.835C37.7872 170.835 32.9395 175.683 32.9395 181.64C32.9395 187.598 37.7872 192.446 43.7446 192.446C43.9198 192.446 44.0951 192.416 44.2703 192.416C46.0517 199.162 52.1843 204.127 59.4851 204.127C64.216 204.127 68.4505 202.024 71.3416 198.724C75.8389 204.098 82.614 207.514 90.1484 207.514C98.4421 207.514 105.801 203.397 110.24 197.06C113.248 200.535 117.716 202.754 122.681 202.754C128.813 202.754 134.158 199.396 136.99 194.431C138.275 194.782 139.619 194.986 141.02 194.986C145.284 194.986 149.11 193.234 151.884 190.431C152.497 190.693 153.11 190.898 153.782 191.044C159.886 192.416 165.96 188.562 167.303 182.429C168.705 176.325 164.85 170.251 158.717 168.908Z" fill="url(#paint4_linear_11320_3729)"/>
<path d="M84.3955 119.73C83.2858 118.328 81.8257 117.364 80.2195 116.897C80.1027 113.977 78.9345 111.144 76.7443 109.071C79.5186 105.157 78.9929 99.8717 75.4302 97.039C74.3788 96.2213 73.2107 95.6957 71.955 95.4328C74.8461 88.2196 73.0939 79.9259 67.0781 75.1074C62.0551 71.1066 55.3384 70.5225 49.527 73.0048C48.8261 71.7783 47.8916 70.6686 46.7235 69.7633C43.2191 66.9597 38.5174 66.5509 34.4581 68.2447C33.8157 67.1058 32.9688 66.0545 31.8883 65.2076C27.2742 61.528 20.3238 62.5501 16.3522 67.5146C16.2354 67.6606 16.1186 67.8066 16.0017 67.9819C15.5053 67.135 14.892 66.3465 14.0743 65.704C10.4823 62.8421 5.10896 63.6306 2.04263 67.4562C-1.0237 71.311 -0.585651 76.7428 3.00634 79.6047C3.12315 79.6923 3.23996 79.7507 3.32757 79.8383C0.932913 85.0365 2.10104 91.1692 6.51072 94.7027C9.37262 96.9806 12.9938 97.6815 16.4398 96.9222C16.4106 102.529 18.7176 107.99 23.2733 111.611C28.2671 115.612 34.8378 116.488 40.7368 114.532C40.766 118.211 42.3138 121.774 45.3217 124.169C49.0013 127.118 53.9658 127.527 58.2003 125.687C58.7844 126.534 59.5144 127.293 60.3613 127.965C62.9312 130.009 66.1436 130.739 69.2391 130.243C69.4727 130.71 69.7355 131.148 70.086 131.557C73.0647 135.383 78.7009 135.792 82.6433 132.521C86.5858 129.279 87.3742 123.526 84.3955 119.73Z" fill="url(#paint5_linear_11320_3729)"/>
<path d="M305.61 117.861C304.033 117.832 302.543 118.299 301.317 119.087C299.272 117.627 296.703 116.926 294.045 117.248C293.023 113.393 289.139 110.969 285.197 111.787C284.028 112.02 283.006 112.517 282.13 113.188C278.918 107.523 272.347 104.311 265.63 105.712C260.053 106.881 255.818 110.94 254.154 115.992C252.927 115.817 251.642 115.846 250.357 116.109C246.444 116.926 243.494 119.73 242.297 123.264C241.158 123.059 239.961 123.088 238.764 123.322C233.595 124.402 230.295 129.455 231.346 134.594C231.375 134.74 231.404 134.916 231.463 135.062C230.616 134.916 229.74 134.945 228.834 135.12C224.834 135.938 222.264 139.851 223.111 143.852C223.958 147.853 227.842 150.422 231.842 149.576C231.959 149.546 232.076 149.517 232.193 149.488C234.325 153.752 239.143 156.234 244.02 155.212C247.203 154.54 249.744 152.554 251.204 149.955C254.971 152.934 259.965 154.277 265.046 153.226C270.624 152.058 274.946 148.291 277.049 143.443C279.56 145.37 282.831 146.217 286.16 145.516C290.278 144.669 293.373 141.661 294.571 137.953C295.476 138.011 296.411 137.953 297.345 137.748C300.207 137.164 302.514 135.441 303.974 133.193C304.412 133.28 304.879 133.339 305.347 133.339C309.64 133.397 313.144 129.98 313.202 125.687C313.319 121.453 309.873 117.919 305.61 117.861Z" fill="url(#paint6_linear_11320_3729)"/>
<path d="M118.856 136.668C117.22 135.792 115.41 135.47 113.687 135.616C112.344 132.988 110.066 130.856 107.116 129.747C108.138 125.162 105.422 120.548 100.837 119.263C99.4941 118.883 98.1508 118.854 96.8659 119.058C96.603 111.436 91.4633 104.486 83.7245 102.296C77.2706 100.485 70.6414 102.412 66.1734 106.793C65.0052 105.946 63.6327 105.274 62.1725 104.866C57.6752 103.581 53.0319 104.924 49.878 107.961C48.7975 107.143 47.5418 106.501 46.1692 106.121C40.2118 104.427 33.9915 107.903 32.3269 113.86C32.2685 114.035 32.2393 114.211 32.1809 114.415C31.3632 113.802 30.4287 113.334 29.4066 113.042C24.7925 111.728 19.974 114.415 18.689 119.029C17.3749 123.643 20.0616 128.462 24.6757 129.747C24.8217 129.776 24.9385 129.805 25.0845 129.834C24.9969 135.441 28.6473 140.639 34.3127 142.216C37.9923 143.238 41.7303 142.567 44.6798 140.639C46.9869 145.779 51.4842 149.897 57.3248 151.561C63.7495 153.372 70.3494 151.795 75.1679 147.882C76.7449 151.24 79.6944 153.927 83.5492 155.007C88.2802 156.351 93.1571 154.92 96.4278 151.678C97.3331 152.233 98.3552 152.671 99.4357 152.992C102.736 153.927 106.094 153.401 108.839 151.853C109.248 152.175 109.686 152.496 110.183 152.759C114.621 155.153 120.141 153.489 122.535 149.05C124.93 144.611 123.295 139.062 118.856 136.668Z" fill="url(#paint7_linear_11320_3729)"/>
<path d="M157.987 158.541C156.848 158.307 155.709 158.424 154.687 158.804C153.431 157.46 151.679 156.584 149.722 156.409C149.518 153.489 147.094 151.182 144.115 151.211C143.239 151.211 142.421 151.415 141.691 151.795C140.202 147.239 135.909 143.998 130.857 144.027C126.652 144.056 123.001 146.392 121.103 149.78C120.256 149.459 119.322 149.313 118.358 149.313C115.438 149.342 112.868 150.948 111.524 153.313C110.736 153.021 109.86 152.846 108.984 152.846C105.1 152.875 101.975 156.059 102.004 159.913C102.004 160.03 102.004 160.147 102.004 160.264C101.42 160.059 100.778 159.913 100.106 159.943C97.098 159.972 94.6742 162.425 94.7034 165.433C94.7326 168.441 97.1857 170.865 100.194 170.835C100.281 170.835 100.369 170.835 100.456 170.806C101.391 174.194 104.486 176.676 108.166 176.647C110.561 176.618 112.693 175.566 114.123 173.872C116.401 176.559 119.818 178.253 123.644 178.224C127.82 178.194 131.499 176.092 133.719 172.88C135.237 174.632 137.486 175.712 139.997 175.683C143.093 175.654 145.75 173.96 147.152 171.449C147.795 171.624 148.496 171.711 149.196 171.711C151.328 171.682 153.256 170.806 154.657 169.375C154.979 169.492 155.271 169.609 155.621 169.667C158.717 170.339 161.725 168.353 162.396 165.287C163.039 162.25 161.053 159.212 157.987 158.541Z" fill="url(#paint8_linear_11320_3729)"/>
<path d="M303.019 138.009C302.99 138.009 302.99 138.009 302.961 138.009C302.961 137.688 302.932 137.396 302.902 137.074C302.318 132.402 298.055 129.102 293.411 129.686C291.776 129.891 290.316 130.562 289.119 131.497C285.585 123.67 277.262 118.677 268.297 119.815C260.207 120.838 253.841 126.532 251.592 133.833C249.87 133.453 248.059 133.336 246.219 133.57C238.101 134.592 232.231 141.689 232.581 149.719C231.88 149.632 231.18 149.632 230.449 149.719C225.689 150.304 222.302 154.655 222.886 159.444C223.47 164.204 227.821 167.592 232.61 167.008C232.669 167.008 232.756 166.979 232.815 166.979C234.509 172.118 239.648 175.535 245.226 174.834C249.256 174.338 252.527 171.826 254.162 168.439C257.141 174.192 263.507 177.784 270.312 176.937C276.678 176.148 281.701 171.709 283.541 165.956C285.848 167.3 288.593 167.942 291.455 167.563C295.076 167.125 298.113 165.168 300.099 162.452C301.968 163.153 304.012 163.445 306.144 163.182C313.094 162.306 318 155.969 317.154 149.048C316.278 142.068 309.94 137.133 303.019 138.009Z" fill="url(#paint9_linear_11320_3729)"/>
<path d="M236.076 159.563C235.667 155.358 232.163 152.087 227.841 152.087C226.468 152.087 225.154 152.437 224.015 153.021C223.898 150.306 221.65 148.144 218.905 148.144C218.379 148.144 217.853 148.232 217.386 148.378C216.043 144.173 212.129 141.136 207.486 141.136C203.865 141.136 200.682 142.976 198.842 145.779C197.907 145.253 196.798 144.932 195.63 144.932C192.008 144.932 189.059 147.882 189.059 151.503C189.059 152.321 189.205 153.109 189.497 153.839C188.767 153.459 187.92 153.255 187.044 153.255C184.065 153.255 181.612 155.679 181.612 158.687C181.612 159.154 181.671 159.621 181.787 160.059C180.94 159.738 180.006 159.534 179.042 159.534C174.866 159.534 171.508 162.921 171.508 167.068C171.508 171.215 174.895 174.603 179.042 174.603C180.648 174.603 182.109 174.106 183.335 173.259C184.824 175.654 187.482 177.231 190.519 177.231C192.446 177.231 194.228 176.588 195.659 175.479C197.499 178.487 200.828 180.472 204.595 180.472C209.005 180.472 212.772 177.757 214.32 173.902C215.984 176.355 218.759 177.961 221.942 177.961C226.264 177.961 229.856 174.982 230.849 171.011C232.075 172.208 233.74 172.938 235.58 172.938C239.288 172.938 242.296 169.93 242.296 166.221C242.355 162.688 239.58 159.767 236.076 159.563Z" fill="url(#paint10_linear_11320_3729)"/>
<defs>
<linearGradient id="paint0_linear_11320_3729" x1="210.52" y1="184.924" x2="210.52" y2="123.417" gradientUnits="userSpaceOnUse">
<stop stop-color="white" stop-opacity="0"/>
<stop offset="0.9377" stop-color="white" stop-opacity="0.9377"/>
<stop offset="1" stop-color="white"/>
</linearGradient>
<linearGradient id="paint1_linear_11320_3729" x1="295.328" y1="129.861" x2="261.81" y2="82.144" gradientUnits="userSpaceOnUse">
<stop stop-color="white" stop-opacity="0"/>
<stop offset="0.9377" stop-color="white" stop-opacity="0.9377"/>
<stop offset="1" stop-color="white"/>
</linearGradient>
<linearGradient id="paint2_linear_11320_3729" x1="118.651" y1="183.16" x2="131.643" y2="117.953" gradientUnits="userSpaceOnUse">
<stop stop-color="white" stop-opacity="0"/>
<stop offset="0.9377" stop-color="white" stop-opacity="0.9377"/>
<stop offset="1" stop-color="white"/>
</linearGradient>
<linearGradient id="paint3_linear_11320_3729" x1="187.521" y1="208.224" x2="187.521" y2="158.379" gradientUnits="userSpaceOnUse">
<stop stop-color="white" stop-opacity="0"/>
<stop offset="0.9377" stop-color="white" stop-opacity="0.9377"/>
<stop offset="1" stop-color="white"/>
</linearGradient>
<linearGradient id="paint4_linear_11320_3729" x1="100.286" y1="207.503" x2="100.286" y2="139.658" gradientUnits="userSpaceOnUse">
<stop stop-color="white" stop-opacity="0"/>
<stop offset="0.9377" stop-color="white" stop-opacity="0.9377"/>
<stop offset="1" stop-color="white"/>
</linearGradient>
<linearGradient id="paint5_linear_11320_3729" x1="29.3473" y1="116.477" x2="64.1576" y2="72.815" gradientUnits="userSpaceOnUse">
<stop stop-color="white" stop-opacity="0"/>
<stop offset="0.9377" stop-color="white" stop-opacity="0.9377"/>
<stop offset="1" stop-color="white"/>
</linearGradient>
<linearGradient id="paint6_linear_11320_3729" x1="271.815" y1="151.864" x2="262.377" y2="106.411" gradientUnits="userSpaceOnUse">
<stop stop-color="white" stop-opacity="0"/>
<stop offset="0.9377" stop-color="white" stop-opacity="0.9377"/>
<stop offset="1" stop-color="white"/>
</linearGradient>
<linearGradient id="paint7_linear_11320_3729" x1="65.1613" y1="153.768" x2="80.0027" y2="101.242" gradientUnits="userSpaceOnUse">
<stop stop-color="white" stop-opacity="0"/>
<stop offset="0.9377" stop-color="white" stop-opacity="0.9377"/>
<stop offset="1" stop-color="white"/>
</linearGradient>
<linearGradient id="paint8_linear_11320_3729" x1="128.702" y1="178.206" x2="128.439" y2="144.043" gradientUnits="userSpaceOnUse">
<stop stop-color="white" stop-opacity="0"/>
<stop offset="0.9377" stop-color="white" stop-opacity="0.9377"/>
<stop offset="1" stop-color="white"/>
</linearGradient>
<linearGradient id="paint9_linear_11320_3729" x1="272.818" y1="176.589" x2="265.763" y2="120.131" gradientUnits="userSpaceOnUse">
<stop stop-color="#E9E9E9" stop-opacity="0.9377"/>
<stop offset="0.572917" stop-color="white"/>
<stop offset="1" stop-color="white" stop-opacity="0"/>
</linearGradient>
<linearGradient id="paint10_linear_11320_3729" x1="206.948" y1="180.516" x2="206.948" y2="141.141" gradientUnits="userSpaceOnUse">
<stop stop-color="#D5D5D5" stop-opacity="0"/>
<stop offset="0.479167" stop-color="white" stop-opacity="0.9377"/>
<stop offset="1" stop-color="white" stop-opacity="0"/>
</linearGradient>
</defs>
</svg>
