<svg xmlns="http://www.w3.org/2000/svg" viewBox="0 0 166.65 190.36"><defs><style>.cls-1{fill:#20a1a4;}.cls-2{fill:#f6f6f6;}.cls-3{opacity:0.17;}.cls-4{fill:#dbdbdb;}.cls-5{opacity:0.45;}.cls-6{fill:#fff;}.cls-7{fill:#e9f6f6;}.cls-8{fill:#0d8284;}.cls-9{fill:#f2f2f2;}.cls-10{fill:#67be9f;}.cls-11{fill:#ffeb4c;}.cls-12{fill:#ffeb4d;}.cls-13{fill:#676767;}.cls-14{fill:#422e19;}.cls-15{fill:#20a2a5;}.cls-16{fill:#36755d;}.cls-17,.cls-18{opacity:0.2;}.cls-18{isolation:isolate;}.cls-19{fill:#ffbe9d;}.cls-20{fill:#eb996e;}</style></defs><g id="Capa_2" data-name="Capa 2"><g id="Capa_1-2" data-name="Capa 1"><rect class="cls-1" x="65.57" width="101.08" height="190.36" rx="13.92"/><rect class="cls-2" x="70.41" y="4.87" width="91.41" height="180.63" rx="9.86"/><g class="cls-3"><path class="cls-4" d="M80.13,185.5h71.69L80.13,4.87a9.86,9.86,0,0,0-9.86,9.86v160.9A9.87,9.87,0,0,0,80.13,185.5Z"/></g><path class="cls-1" d="M97.29,4.32h37.65a0,0,0,0,1,0,0V8a3.84,3.84,0,0,1-3.84,3.84h-30A3.84,3.84,0,0,1,97.29,8V4.32A0,0,0,0,1,97.29,4.32Z"/><g class="cls-5"><path class="cls-1" d="M113.49,33.93q2.34-1,4.89-2.22c1.7-.84,3.35-1.75,5-2.75s3.17-2.05,4.65-3.15a31.94,31.94,0,0,0,4-3.52h8.4v56h-12V38a36.83,36.83,0,0,1-5.41,3q-3,1.34-5.82,2.31Z"/></g><rect class="cls-6" x="1.5" y="86.89" width="147.84" height="101.97" rx="5.55"/><path class="cls-1" d="M143.79,88.39a4.05,4.05,0,0,1,4.05,4v90.87a4,4,0,0,1-4.05,4.05H7.05a4.05,4.05,0,0,1-4-4.05V92.44a4.06,4.06,0,0,1,4.05-4H143.79m0-3H7.05a7.05,7.05,0,0,0-7,7v90.87a7,7,0,0,0,7.05,7.05H143.79a7,7,0,0,0,7.05-7.05V92.44a7,7,0,0,0-7.05-7Z"/><path class="cls-7" d="M6.78,98.58A3.23,3.23,0,0,1,10,95.35H140.83a3.23,3.23,0,0,1,3.23,3.23v19.29a3.23,3.23,0,0,1-3.23,3.23H10a3.23,3.23,0,0,1-3.23-3.23Z"/><path class="cls-8" d="M127.2,111.65a1.21,1.21,0,0,0-.08-.48.84.84,0,0,0-.28-.38,2.33,2.33,0,0,0-.58-.34,8.22,8.22,0,0,0-.94-.36,9.36,9.36,0,0,1-1.2-.45,4.9,4.9,0,0,1-1-.59,2.37,2.37,0,0,1-.65-.77,2.08,2.08,0,0,1-.24-1,2.24,2.24,0,0,1,.24-1,2.43,2.43,0,0,1,.7-.8,3.23,3.23,0,0,1,1-.52,4.45,4.45,0,0,1,1.35-.19,3.85,3.85,0,0,1,1.77.38,2.73,2.73,0,0,1,1.16,1,2.52,2.52,0,0,1,.41,1.43H127.2a1.55,1.55,0,0,0-.18-.76,1.29,1.29,0,0,0-.54-.52,2,2,0,0,0-.91-.19,2.23,2.23,0,0,0-.88.16,1.22,1.22,0,0,0-.53.43,1.17,1.17,0,0,0-.17.61.84.84,0,0,0,.12.45,1.41,1.41,0,0,0,.36.38,3.56,3.56,0,0,0,.59.32c.24.09.52.19.84.29a9.4,9.4,0,0,1,1.32.5,4.2,4.2,0,0,1,1,.63,2.41,2.41,0,0,1,.57.8,2.44,2.44,0,0,1,.2,1,2.27,2.27,0,0,1-.24,1.06,2.15,2.15,0,0,1-.67.8,3,3,0,0,1-1,.5,5.22,5.22,0,0,1-1.36.17,5,5,0,0,1-1.33-.18,4.09,4.09,0,0,1-1.18-.54,2.74,2.74,0,0,1-.84-.92,2.66,2.66,0,0,1-.32-1.32h1.74a1.86,1.86,0,0,0,.14.75,1.33,1.33,0,0,0,.41.5,1.9,1.9,0,0,0,.61.28,3.19,3.19,0,0,0,.77.08,2.2,2.2,0,0,0,.87-.14,1.16,1.16,0,0,0,.52-.42A1,1,0,0,0,127.2,111.65Zm6.91-6.81-3.47,10h-1.27l3.47-10Zm1,8.38a.88.88,0,0,1,.26-.64,1,1,0,0,1,.7-.26.94.94,0,0,1,.7.26.84.84,0,0,1,.26.64.82.82,0,0,1-.26.63.94.94,0,0,1-.7.25,1,1,0,0,1-.7-.25A.86.86,0,0,1,135.15,113.22Z"/><path class="cls-7" d="M6.78,130.59A3.24,3.24,0,0,1,10,127.35H140.83a3.23,3.23,0,0,1,3.23,3.24v19.28a3.23,3.23,0,0,1-3.23,3.24H10a3.24,3.24,0,0,1-3.23-3.24Z"/><path class="cls-8" d="M129.48,147.62V135.86h.76v11.76Zm2.18-8a1.26,1.26,0,0,0-.55-.93,2,2,0,0,0-1.23-.34,2.47,2.47,0,0,0-.91.16,1.4,1.4,0,0,0-.58.44,1,1,0,0,0-.21.63,1,1,0,0,0,.13.51,1.49,1.49,0,0,0,.38.37,2.4,2.4,0,0,0,.51.24,4.23,4.23,0,0,0,.58.17l.88.22a6.42,6.42,0,0,1,1,.34,3.56,3.56,0,0,1,.89.53,2.36,2.36,0,0,1,.62.78,2.24,2.24,0,0,1,.23,1.06,2.58,2.58,0,0,1-.42,1.46,2.8,2.8,0,0,1-1.22,1,4.81,4.81,0,0,1-1.92.35,5,5,0,0,1-1.91-.34,2.92,2.92,0,0,1-1.26-1,2.87,2.87,0,0,1-.48-1.58h1.67a1.5,1.5,0,0,0,.3.81,1.62,1.62,0,0,0,.7.49,2.69,2.69,0,0,0,1,.16,2.49,2.49,0,0,0,1-.17,1.54,1.54,0,0,0,.66-.46,1.13,1.13,0,0,0,.24-.71.89.89,0,0,0-.21-.61,1.7,1.7,0,0,0-.6-.4,5,5,0,0,0-.88-.29l-1.07-.28a4.3,4.3,0,0,1-1.84-.91,2.09,2.09,0,0,1-.67-1.62,2.4,2.4,0,0,1,.45-1.45,3,3,0,0,1,1.24-1,4.33,4.33,0,0,1,1.77-.35,4.17,4.17,0,0,1,1.75.35,2.85,2.85,0,0,1,1.19,1,2.43,2.43,0,0,1,.45,1.4Z"/><ellipse class="cls-9" cx="115.66" cy="124.14" rx="11.58" ry="11.76"/><ellipse class="cls-10" cx="115.66" cy="124.14" rx="10.34" ry="10.5"/><ellipse class="cls-11" cx="115.66" cy="124.14" rx="7.84" ry="7.95"/><path class="cls-8" d="M113.86,127.3a.31.31,0,0,0,0-.23.32.32,0,0,0-.12-.2,3.31,3.31,0,0,1-1.34-3.3,3.28,3.28,0,0,1,2.39-2.62l-.45.79a.36.36,0,0,0,0,.25.31.31,0,0,0,.15.2.32.32,0,0,0,.25,0,.35.35,0,0,0,.2-.16l.65-1.15a.67.67,0,0,0,.07-.5.66.66,0,0,0-.31-.4l-1.13-.67a.35.35,0,0,0-.25,0,.32.32,0,0,0-.19.15.32.32,0,0,0,0,.25.41.41,0,0,0,.15.21l.69.4a3.89,3.89,0,0,0-1.85,1.16,3.93,3.93,0,0,0-.95,2,4,4,0,0,0,.24,2.2,3.92,3.92,0,0,0,1.36,1.73.31.31,0,0,0,.12,0,.33.33,0,0,0,.14,0l.12,0A.31.31,0,0,0,113.86,127.3Z"/><path class="cls-8" d="M117.53,128.82a.37.37,0,0,0,0-.25.36.36,0,0,0-.15-.21l-.69-.4a3.89,3.89,0,0,0,1.85-1.16,4,4,0,0,0,.71-4.19,3.87,3.87,0,0,0-1.36-1.73.31.31,0,0,0-.12,0,.33.33,0,0,0-.14,0l-.12,0a.37.37,0,0,0-.13.34.34.34,0,0,0,.13.2,3.27,3.27,0,0,1,1.14,1.45,3.34,3.34,0,0,1-.62,3.52,3.3,3.3,0,0,1-1.58,1l.45-.79a.37.37,0,0,0,0-.25.31.31,0,0,0-.15-.2.32.32,0,0,0-.25,0,.39.39,0,0,0-.2.16l-.65,1.15a.67.67,0,0,0-.06.5.61.61,0,0,0,.3.4l1.13.67a.37.37,0,0,0,.25,0,.37.37,0,0,0,.2-.15Z"/><rect class="cls-12" x="6.78" y="161.38" width="137.28" height="19.03" rx="1.62"/><path class="cls-13" d="M49.73,168.67h1.46a2.07,2.07,0,0,1,.79.14,1.1,1.1,0,0,1,.51.41,1.26,1.26,0,0,1,.17.67,1.19,1.19,0,0,1-.11.54,1,1,0,0,1-.31.38,1.6,1.6,0,0,1-.47.24l-.24.13H50.24v-.6h1a.75.75,0,0,0,.39-.09.51.51,0,0,0,.23-.23.6.6,0,0,0,.08-.33.75.75,0,0,0-.07-.35.59.59,0,0,0-.24-.23.92.92,0,0,0-.4-.08h-.7v3.42h-.76Zm2.27,4-.93-1.8h.8l1,1.77v0Zm2.61.06a1.74,1.74,0,0,1-.61-.11,1.33,1.33,0,0,1-.46-.31,1.44,1.44,0,0,1-.29-.46,1.8,1.8,0,0,1-.1-.57v-.11a2.08,2.08,0,0,1,.1-.63,1.41,1.41,0,0,1,.28-.48,1.25,1.25,0,0,1,.44-.32,1.47,1.47,0,0,1,.56-.11,1.4,1.4,0,0,1,.56.11,1,1,0,0,1,.41.3,1.19,1.19,0,0,1,.24.46,1.87,1.87,0,0,1,.09.59v.31H53.49v-.5h1.62v-.06a.78.78,0,0,0-.07-.31.55.55,0,0,0-.18-.24.58.58,0,0,0-.33-.09.57.57,0,0,0-.49.28.82.82,0,0,0-.11.3,1.61,1.61,0,0,0,0,.39v.11a1,1,0,0,0,0,.35.71.71,0,0,0,.39.46.88.88,0,0,0,.33.07.91.91,0,0,0,.41-.09.86.86,0,0,0,.33-.27l.37.38a1.63,1.63,0,0,1-.26.27,1.24,1.24,0,0,1-.38.2A1.62,1.62,0,0,1,54.61,172.75Zm3.61-3h.66v2.89a1.27,1.27,0,0,1-.18.69,1.09,1.09,0,0,1-.49.43,1.67,1.67,0,0,1-.73.15,1.89,1.89,0,0,1-.39-.05,1.24,1.24,0,0,1-.4-.16,1.18,1.18,0,0,1-.32-.27l.33-.43a1,1,0,0,0,.34.26,1,1,0,0,0,.41.09.72.72,0,0,0,.37-.08.47.47,0,0,0,.24-.24.74.74,0,0,0,.09-.38v-2.22Zm-2,1.53v-.06a2.33,2.33,0,0,1,.08-.62,1.72,1.72,0,0,1,.24-.49,1,1,0,0,1,.38-.31,1.15,1.15,0,0,1,.5-.11,1.09,1.09,0,0,1,.5.11.86.86,0,0,1,.33.3,1.62,1.62,0,0,1,.21.48,3.42,3.42,0,0,1,.12.59v.16a2.48,2.48,0,0,1-.12.58,1.86,1.86,0,0,1-.22.47.92.92,0,0,1-.35.3,1,1,0,0,1-.48.11,1.1,1.1,0,0,1-.49-.11,1.07,1.07,0,0,1-.38-.32,1.8,1.8,0,0,1-.24-.48A2.35,2.35,0,0,1,56.2,171.24Zm.73-.06v.06a1.42,1.42,0,0,0,0,.36,1,1,0,0,0,.11.3.8.8,0,0,0,.21.2.69.69,0,0,0,.66,0,.63.63,0,0,0,.22-.26,1.41,1.41,0,0,0,.1-.38V171a1.55,1.55,0,0,0-.06-.31.7.7,0,0,0-.13-.24.53.53,0,0,0-.2-.16.7.7,0,0,0-.3-.06.65.65,0,0,0-.29.07.58.58,0,0,0-.2.21.68.68,0,0,0-.12.3A1.45,1.45,0,0,0,56.93,171.18Zm3.39-1.47v3h-.73v-3Zm-.71-.39.54-.84H61l-.76.84Zm3.09,2.56a.31.31,0,0,0-.05-.17.49.49,0,0,0-.19-.14,2.49,2.49,0,0,0-.4-.12,2.7,2.7,0,0,1-.43-.12,1.56,1.56,0,0,1-.34-.18,1,1,0,0,1-.22-.25.74.74,0,0,1-.07-.34.72.72,0,0,1,.08-.35.89.89,0,0,1,.23-.29,1,1,0,0,1,.37-.19,1.48,1.48,0,0,1,.49-.08,1.69,1.69,0,0,1,.66.12,1,1,0,0,1,.42.35.8.8,0,0,1,.14.48h-.73a.36.36,0,0,0,0-.21.41.41,0,0,0-.16-.16.61.61,0,0,0-.28-.06.67.67,0,0,0-.26.05.39.39,0,0,0-.15.13.3.3,0,0,0-.06.18.28.28,0,0,0,0,.13.24.24,0,0,0,.1.1l.18.09.28.07a2.65,2.65,0,0,1,.58.18,1,1,0,0,1,.4.29.71.71,0,0,1,.14.45.75.75,0,0,1-.09.37.74.74,0,0,1-.25.28,1,1,0,0,1-.39.19,1.61,1.61,0,0,1-.51.07,1.47,1.47,0,0,1-.69-.15,1.06,1.06,0,0,1-.43-.37.87.87,0,0,1-.15-.48h.7a.47.47,0,0,0,.09.28.48.48,0,0,0,.22.15.87.87,0,0,0,.28,0,.78.78,0,0,0,.28,0,.43.43,0,0,0,.17-.12A.28.28,0,0,0,62.7,171.88Zm2.68-2.17v.52H63.66v-.52ZM64.12,169h.74v2.86a.58.58,0,0,0,0,.21.16.16,0,0,0,.11.09.43.43,0,0,0,.17,0h.13l.11,0v.55l-.21,0-.26,0a1.18,1.18,0,0,1-.43-.08.59.59,0,0,1-.28-.28,1,1,0,0,1-.11-.5Zm2.47,1.35v2.37h-.73v-3h.69Zm.91-.63v.68l-.14,0h-.14a.84.84,0,0,0-.29,0,.54.54,0,0,0-.22.13.72.72,0,0,0-.12.21.78.78,0,0,0,0,.28l-.16,0a2.2,2.2,0,0,1,.06-.53,1.49,1.49,0,0,1,.17-.43.81.81,0,0,1,.27-.28.71.71,0,0,1,.39-.1h.13Zm2,2.37v-1.38a.53.53,0,0,0,0-.26.33.33,0,0,0-.16-.17.54.54,0,0,0-.27-.06.55.55,0,0,0-.26.05.32.32,0,0,0-.16.14.34.34,0,0,0-.06.2h-.73a.85.85,0,0,1,.08-.35,1.1,1.1,0,0,1,.65-.5,1.72,1.72,0,0,1,.52-.08,1.4,1.4,0,0,1,.6.12.89.89,0,0,1,.42.34,1,1,0,0,1,.16.58V172a2,2,0,0,0,0,.38,1,1,0,0,0,.09.28v0h-.75a1.36,1.36,0,0,1-.08-.28A2.16,2.16,0,0,1,69.45,172.06Zm.11-1.19v.44H69.1a1.39,1.39,0,0,0-.3,0,.69.69,0,0,0-.21.1.48.48,0,0,0-.13.16.59.59,0,0,0,0,.2.46.46,0,0,0,0,.2.5.5,0,0,0,.15.14.56.56,0,0,0,.23.05.74.74,0,0,0,.34-.08.6.6,0,0,0,.22-.19.37.37,0,0,0,.09-.22l.21.32a2.67,2.67,0,0,1-.12.24,1.06,1.06,0,0,1-.2.24,1,1,0,0,1-.29.18,1,1,0,0,1-.4.07,1.14,1.14,0,0,1-.52-.12.9.9,0,0,1-.36-.31.82.82,0,0,1-.13-.46.93.93,0,0,1,.09-.42.77.77,0,0,1,.26-.31,1.3,1.3,0,0,1,.43-.19,2.6,2.6,0,0,1,.6-.07Zm2.7-1.16v.52H70.55v-.52ZM71,169h.73v2.86a.41.41,0,0,0,0,.21.15.15,0,0,0,.1.09.47.47,0,0,0,.17,0h.14l.1,0v.55l-.21,0-.25,0a1.1,1.1,0,0,1-.43-.08.61.61,0,0,1-.29-.28,1,1,0,0,1-.1-.5Zm3.08,3.78a1.66,1.66,0,0,1-.61-.11,1.33,1.33,0,0,1-.46-.31,1.29,1.29,0,0,1-.29-.46,1.56,1.56,0,0,1-.1-.57v-.11a1.81,1.81,0,0,1,.1-.63,1.27,1.27,0,0,1,.28-.48,1.16,1.16,0,0,1,.44-.32,1.43,1.43,0,0,1,.56-.11,1.4,1.4,0,0,1,.56.11,1,1,0,0,1,.4.3,1.36,1.36,0,0,1,.25.46,1.87,1.87,0,0,1,.08.59v.31H73v-.5h1.62v-.06a.78.78,0,0,0-.06-.31.5.5,0,0,0-.19-.24.54.54,0,0,0-.33-.09.51.51,0,0,0-.28.08.48.48,0,0,0-.2.2,1,1,0,0,0-.12.3,2.34,2.34,0,0,0,0,.39v.11a1.29,1.29,0,0,0,0,.35.85.85,0,0,0,.16.28.55.55,0,0,0,.24.18.79.79,0,0,0,.32.07.93.93,0,0,0,.42-.09.91.91,0,0,0,.32-.27l.37.38a1.54,1.54,0,0,1-.25.27,1.37,1.37,0,0,1-.38.2A1.62,1.62,0,0,1,74.09,172.75Zm4-.39.8-2.65h.78l-1.2,3.44a2.35,2.35,0,0,1-.11.24,1,1,0,0,1-.17.24.79.79,0,0,1-.27.2.94.94,0,0,1-.39.07h-.18l-.16,0v-.54h.13a.7.7,0,0,0,.27,0,.28.28,0,0,0,.16-.12.53.53,0,0,0,.12-.21Zm-.4-2.65.68,2.2.12.77-.51.09-1.08-3.06Zm5,2.47a.6.6,0,0,0,.27-.07.42.42,0,0,0,.2-.17.53.53,0,0,0,.08-.25h.69a1,1,0,0,1-.18.54,1.09,1.09,0,0,1-.44.38,1.34,1.34,0,0,1-.61.14,1.4,1.4,0,0,1-.6-.12,1.06,1.06,0,0,1-.43-.32,1.59,1.59,0,0,1-.26-.48,2.21,2.21,0,0,1-.08-.59v-.08a2.21,2.21,0,0,1,.08-.59,1.59,1.59,0,0,1,.26-.48,1.06,1.06,0,0,1,.43-.32,1.52,1.52,0,0,1,1.23,0,1,1,0,0,1,.43.4,1.17,1.17,0,0,1,.17.6H83.2a.82.82,0,0,0-.07-.28.52.52,0,0,0-.49-.29.62.62,0,0,0-.31.08.52.52,0,0,0-.19.22,1.1,1.1,0,0,0-.09.29,2,2,0,0,0,0,.35v.08a1.9,1.9,0,0,0,0,.35,1.32,1.32,0,0,0,.09.3.55.55,0,0,0,.19.21A.63.63,0,0,0,82.65,172.18Zm3.37-.12v-1.38a.67.67,0,0,0,0-.26.38.38,0,0,0-.16-.17.61.61,0,0,0-.28-.06.49.49,0,0,0-.25.05.34.34,0,0,0-.17.14.34.34,0,0,0-.06.2h-.73a.73.73,0,0,1,.09-.35,1,1,0,0,1,.25-.3,1,1,0,0,1,.39-.2,1.72,1.72,0,0,1,.52-.08,1.48,1.48,0,0,1,.61.12.89.89,0,0,1,.42.34,1,1,0,0,1,.15.58V172a2,2,0,0,0,0,.38,1,1,0,0,0,.09.28v0h-.74a.71.71,0,0,1-.08-.28A2.16,2.16,0,0,1,86,172.06Zm.1-1.19v.44h-.47a1.39,1.39,0,0,0-.3,0,1,1,0,0,0-.21.1.45.45,0,0,0-.12.16.42.42,0,0,0,0,.2.45.45,0,0,0,0,.2.5.5,0,0,0,.15.14.6.6,0,0,0,.24.05.67.67,0,0,0,.33-.08.73.73,0,0,0,.23-.19.42.42,0,0,0,.08-.22l.21.32a1.22,1.22,0,0,1-.11.24,2.12,2.12,0,0,1-.2.24,1.09,1.09,0,0,1-.3.18.94.94,0,0,1-.39.07,1.08,1.08,0,0,1-.52-.12.79.79,0,0,1-.36-.31.83.83,0,0,1-.14-.46.93.93,0,0,1,.09-.42.86.86,0,0,1,.26-.31,1.3,1.3,0,0,1,.43-.19,2.74,2.74,0,0,1,.6-.07Zm2-.55v2.37h-.73v-3h.69Zm-.11.77h-.22a2,2,0,0,1,.07-.57,1.33,1.33,0,0,1,.23-.46,1,1,0,0,1,.36-.3,1.21,1.21,0,0,1,.52-.11,1.15,1.15,0,0,1,.37.06.77.77,0,0,1,.29.19.91.91,0,0,1,.19.32,1.65,1.65,0,0,1,.06.48v2h-.73v-1.92a.7.7,0,0,0-.06-.32.31.31,0,0,0-.17-.17.67.67,0,0,0-.26-.05.58.58,0,0,0-.5.25.78.78,0,0,0-.11.28A1.15,1.15,0,0,0,88,171.09Zm1.82-.13-.3,0a1.83,1.83,0,0,1,.07-.53,1.45,1.45,0,0,1,.22-.43,1.12,1.12,0,0,1,.36-.29,1.26,1.26,0,0,1,.9,0,.72.72,0,0,1,.31.2.74.74,0,0,1,.19.35,1.53,1.53,0,0,1,.07.51v1.92h-.73v-1.92a.75.75,0,0,0-.06-.33.33.33,0,0,0-.17-.16.67.67,0,0,0-.26-.05.6.6,0,0,0-.27.06.65.65,0,0,0-.18.15.9.9,0,0,0-.12.24A1.2,1.2,0,0,0,89.85,171Zm2.48-2.51h.73V172l-.07.66h-.66ZM95,171.17v.06a2.84,2.84,0,0,1-.07.61,1.52,1.52,0,0,1-.22.48,1,1,0,0,1-.37.32,1.12,1.12,0,0,1-.5.11,1,1,0,0,1-.48-.11.89.89,0,0,1-.34-.3,1.36,1.36,0,0,1-.22-.47,3.41,3.41,0,0,1-.13-.59v-.16a3.41,3.41,0,0,1,.13-.59,1.45,1.45,0,0,1,.22-.47.89.89,0,0,1,.34-.3,1,1,0,0,1,.47-.11,1.13,1.13,0,0,1,.51.11,1,1,0,0,1,.37.32,1.52,1.52,0,0,1,.22.48A2.84,2.84,0,0,1,95,171.17Zm-.73.06v-.06a2,2,0,0,0,0-.36,1.32,1.32,0,0,0-.1-.3.55.55,0,0,0-.19-.21.66.66,0,0,0-.3-.07.65.65,0,0,0-.29.06.53.53,0,0,0-.2.16.9.9,0,0,0-.12.24,1.33,1.33,0,0,0-.06.3v.43a1.93,1.93,0,0,0,.09.38.64.64,0,0,0,.22.27.6.6,0,0,0,.37.1.51.51,0,0,0,.48-.27.88.88,0,0,0,.1-.3A2.13,2.13,0,0,0,94.25,171.23Zm2-1.52v3h-.73v-3Zm-.78-.79a.39.39,0,0,1,.11-.27.45.45,0,0,1,.31-.1.44.44,0,0,1,.3.1.39.39,0,0,1,.11.27.37.37,0,0,1-.11.27.44.44,0,0,1-.3.11.45.45,0,0,1-.31-.11A.37.37,0,0,1,95.5,168.92Zm3.13,3.14v-1.38a.53.53,0,0,0-.06-.26.3.3,0,0,0-.16-.17.54.54,0,0,0-.27-.06.55.55,0,0,0-.26.05.36.36,0,0,0-.16.14.34.34,0,0,0-.06.2h-.73a.73.73,0,0,1,.09-.35.87.87,0,0,1,.25-.3,1,1,0,0,1,.39-.2,1.72,1.72,0,0,1,.52-.08,1.48,1.48,0,0,1,.61.12.89.89,0,0,1,.42.34,1,1,0,0,1,.15.58V172a2,2,0,0,0,0,.38,1,1,0,0,0,.09.28v0h-.75a1.36,1.36,0,0,1-.08-.28C98.64,172.29,98.63,172.17,98.63,172.06Zm.1-1.19v.44h-.46a1.39,1.39,0,0,0-.3,0,.82.82,0,0,0-.21.1.48.48,0,0,0-.13.16.59.59,0,0,0,0,.2.46.46,0,0,0,0,.2.5.5,0,0,0,.15.14.59.59,0,0,0,.23.05.71.71,0,0,0,.34-.08.6.6,0,0,0,.22-.19.37.37,0,0,0,.09-.22l.21.32a1.4,1.4,0,0,1-.31.48,1.26,1.26,0,0,1-.3.18,1,1,0,0,1-.4.07,1.07,1.07,0,0,1-.51-.12.87.87,0,0,1-.37-.31.91.91,0,0,1-.13-.46.93.93,0,0,1,.09-.42.86.86,0,0,1,.26-.31,1.3,1.3,0,0,1,.43-.19,2.67,2.67,0,0,1,.6-.07Z"/><path class="cls-14" d="M74.26,21.69c.34,6.67,8.48,15.72,14.56,17.2,3.21.8,6.88.4,9.4,2.56,4.36,3.65,1.78,11.22,4.71,16.11,1.77,3,5.39,4.5,7.39,7.35,3.39,4.73,1.09,12-3.49,15.49s-10.67,4.21-16.46,4c-12.62-.34-25.58-4.33-34.75-13.21-4.3-4.16-21.1-17.08-15.25-47.66"/><path class="cls-15" d="M107.21,69.37,71.85,55.19a29.21,29.21,0,0,0-7-2.11l-16.23.12a15.46,15.46,0,0,0-6.25,1.31L9.91,68.91A8.34,8.34,0,0,0,4.46,77c0,4.61,3.38,8.37,7.51,8.37h93.36c4.12,0,7.32-3.19,7.32-7.86A8.34,8.34,0,0,0,107.21,69.37Z"/><path class="cls-16" d="M110.26,74.36h-.46c-.34-.06-.74-.06-1.26-.11L104,73.74a137.74,137.74,0,0,0-15.08-.63,142.83,142.83,0,0,0-15.08,1c-1.89.23-3.44.46-4.53.63-.51.06-.92.11-1.26.17a2.53,2.53,0,0,1-.46.06,1.87,1.87,0,0,1,.4-.12c.35-.05.75-.17,1.21-.22,1.09-.23,2.58-.46,4.53-.74a112,112,0,0,1,15.08-1.14,123.06,123.06,0,0,1,15.14.74c1.94.23,3.49.45,4.53.62.51.12.91.17,1.2.23A1.32,1.32,0,0,1,110.26,74.36Z"/><g class="cls-17"><g class="cls-18"><path d="M24.25,74.25l30.39,5.69-2.8,5.4-2,0Z"/></g></g><path class="cls-16" d="M23.85,72.71s.4.17,1.15.46,1.78.85,3,1.42c2.52,1.2,6,2.9,9.92,4.78s7.34,3.65,9.86,4.9c1.2.63,2.18,1.14,3,1.54S62,91.39,62,91.44,51.49,86.26,50.74,86s-1.77-.86-3-1.43c-2.53-1.19-6-2.9-9.92-4.78s-7.34-3.64-9.87-4.9c-1.2-.62-2.18-1.13-3-1.53A4.17,4.17,0,0,1,23.85,72.71Z"/><g class="cls-17"><g class="cls-18"><path d="M66,52.84c-.92,2.5.46,5.24,1.78,7.57A19.18,19.18,0,0,0,71,65a7,7,0,0,0,5,2.22c2.46,0,4.7-1.88,7.11-1.76a9.81,9.81,0,0,1,4.53,2,37.45,37.45,0,0,0,7.62,4.21,13.8,13.8,0,0,0,8.55.52,8.41,8.41,0,0,0,5.9-5.81"/></g></g><path class="cls-19" d="M68.12,85.37V74.82S51.69,77.91,51.41,85.37Z"/><path class="cls-14" d="M66.4,51a13.79,13.79,0,0,0,4.3,8.88,14,14,0,0,0,9.23,3.7c2.41.06,5-.51,7.23.46,2,.85,3.15,2.73,4.7,4.15a14,14,0,0,0,13.82,3.08c2-.69,5.16-2.11,5.5-4.16.29-1.59-1.66-3.13-2.81-4.27a13.55,13.55,0,0,0-4.07-2.51C92.55,54.89,80,50.9,67,50.22"/><path class="cls-19" d="M67.47,100.74c-.69-.8-.75-1.48.8-1.6,3.38-.28,5.91-1.76,6.31-2.61s-.69-1.71-1.61-1.2a12.58,12.58,0,0,1-3.32.91,9.13,9.13,0,0,1-2.76.06c-.8-.12-1.49-.29-2.12-.4,0,0-3.61-.8-5.16-2L52,102l3.55,4a5.36,5.36,0,0,0,4.76,2.22c3.1-.29,7.14-2.53,7.14-2.53.88-.44,5.53,2.19,7.14,3.33s2.75.85,2.69-.23c-.28-1.07-4.81-4.33-6.42-5.41A18.65,18.65,0,0,1,67.47,100.74Z"/><path class="cls-20" d="M62.83,107.6c0,.06-.23.17-.63.12a2.67,2.67,0,0,1-1.43-.52,2.75,2.75,0,0,1-.92-1.19,1.28,1.28,0,0,1-.06-.63c.12,0,.29.91,1.15,1.54A4.26,4.26,0,0,0,62.83,107.6Z"/><path class="cls-20" d="M65.84,106.44c0,.06-.23.12-.57.12a2.16,2.16,0,0,1-1.32-.51,2.58,2.58,0,0,1-.86-1.14c-.11-.35-.11-.57-.06-.57a5.11,5.11,0,0,0,1.15,1.48A8.16,8.16,0,0,0,65.84,106.44Z"/><path class="cls-15" d="M8.2,84.23s45.41,24.12,45.12,23.55S62,91.44,62,91.44L17.54,69.58Z"/><path class="cls-19" d="M66.23,52.1c.11-3,.28-5.58.28-5.58s6.6-.86,6.88-7.52S73,16.85,73,16.85l-12.15-5.8L47.76,21.52l2.07,30.75a8.24,8.24,0,0,0,8.6,7.63A8.16,8.16,0,0,0,66.23,52.1Z"/><path class="cls-20" d="M66.51,46.52s-4.23.82-10.25-4c0,0,3.54,6.07,10.14,5.67Z"/><path class="cls-14" d="M40.65,28.18c0,4.94-1.12,16.76,5.1,21.48a2.34,2.34,0,0,0,3.76-2l-.12-15.86a2.45,2.45,0,0,1,1.21-2.14C53.4,28,60.06,23.3,61.41,15.43l.06.06a17.08,17.08,0,0,1,1.08,3.29A7.6,7.6,0,0,0,68,24.41l3.62,1a2.35,2.35,0,0,1,.37.14l1.39.66A13,13,0,0,0,70.12,12C63.47,5.24,57.85,10.14,54.3,9.74,52,9.45,43.89,9.51,40.51,23.15a2.59,2.59,0,0,0-.07.73Z"/><path class="cls-19" d="M49.66,30.56a2.48,2.48,0,0,0-2.87.64,3.49,3.49,0,0,0-.46,4.32,4,4,0,0,0,4.3,1.6"/><path class="cls-20" d="M49.43,35.16c0,.05-.29.1-.75,0a1.94,1.94,0,0,1-1.43-1.11,1.1,1.1,0,0,1,0-1,1.3,1.3,0,0,1,.58-.6,1.16,1.16,0,0,1,.74-.21s-.28.16-.57.41a1,1,0,0,0-.4,1.26,1.83,1.83,0,0,0,1.14,1C49.14,35.06,49.43,35.11,49.43,35.16Z"/><path class="cls-6" d="M48.08,39.81c-.56,0-.87-1-.87-2a.15.15,0,0,1,.3,0c0,1,.33,1.69.57,1.69s.58-.65.58-1.69-.34-1.69-.58-1.69a.15.15,0,1,1,0-.3c.57,0,.88,1,.88,2S48.65,39.81,48.08,39.81Z"/><path class="cls-14" d="M73.33,26.25a9.77,9.77,0,0,0-.61,5.48s1.77,10.83-6.21,14.79l2,1.73,10.3-3.16-1-10.18L75.54,29Z"/><path class="cls-14" d="M63.83,35.79a.31.31,0,0,0,.13,0,1.77,1.77,0,0,0,.94-1.9,3,3,0,0,0-.31-.74c0-.07-.07-.14-.11-.2a4.05,4.05,0,0,1,.44-4.24.28.28,0,0,0-.06-.4.29.29,0,0,0-.4,0A4.62,4.62,0,0,0,64,33.17a1.51,1.51,0,0,0,.11.22,2.19,2.19,0,0,1,.25.6,1.16,1.16,0,0,1-.64,1.25.3.3,0,0,0-.12.39A.29.29,0,0,0,63.83,35.79Z"/><path class="cls-14" d="M56.35,29.27a1,1,0,1,0,.94-1.21A1.1,1.1,0,0,0,56.35,29.27Z"/><ellipse class="cls-14" cx="69.37" cy="29.31" rx="0.9" ry="1.14"/><path class="cls-14" d="M67.36,29.63a.25.25,0,0,1-.19-.41,3.07,3.07,0,0,1,2.18-1.29,2.9,2.9,0,0,1,2.09.95.25.25,0,0,1,0,.36.25.25,0,0,1-.35,0,2.43,2.43,0,0,0-1.65-.8h-.07a2.64,2.64,0,0,0-1.82,1.1A.26.26,0,0,1,67.36,29.63Z"/><path class="cls-14" d="M59.7,29.59a.25.25,0,0,1-.22-.12,2.86,2.86,0,0,0-1.31-1.06,3,3,0,0,0-2.93,1.16l-.4-.3.2.16-.2-.16a3.52,3.52,0,0,1,3.45-1.34,3.26,3.26,0,0,1,1.62,1.28.25.25,0,0,1-.08.34A.22.22,0,0,1,59.7,29.59Z"/><path class="cls-14" d="M60.91,27.31a.3.3,0,0,0,.15-.52,6.89,6.89,0,0,0-4.62-1.34h-.09a6.86,6.86,0,0,0-4.25,2,.29.29,0,1,0,.41.4,6.2,6.2,0,0,1,8.2-.65A.36.36,0,0,0,60.91,27.31Z"/><path class="cls-14" d="M73,27a5.12,5.12,0,0,0-4-1.1,5.34,5.34,0,0,0-2.6,1.27c.07.2.14.41.2.62a4.78,4.78,0,0,1,2.49-1.32,4.54,4.54,0,0,1,3.52,1,.29.29,0,0,0,.41,0A.3.3,0,0,0,73,27Z"/><path class="cls-19" d="M66.55,27l.4.53-.37.33-.23-.73Z"/><circle class="cls-14" cx="66.76" cy="27.22" r="0.29"/><path class="cls-14" d="M62.08,39.46c.36-.94,1.76-.69,2.43-.31,1.7,1,.17,2-1.26,1.79C62.52,40.82,61.78,40.24,62.08,39.46Z"/><path class="cls-14" d="M65.08,40.28a3,3,0,0,0,1.9-.53.22.22,0,1,0-.29-.33,3.66,3.66,0,0,1-2.85.3,4.06,4.06,0,0,1-2.61-1.36.22.22,0,0,0-.29-.1.21.21,0,0,0-.1.29c.41.83,1.82,1.37,2.91,1.59A6.41,6.41,0,0,0,65.08,40.28Z"/></g></g></svg>