<svg width="1048" height="573" viewBox="0 0 1048 573" fill="none" xmlns="http://www.w3.org/2000/svg">
<path d="M469.966 155.722V90.6127C469.966 86.6148 470.08 82.3313 470.308 77.7622C470.651 73.0789 471.108 68.2243 471.679 63.1983L405.713 155.722H469.966ZM541.928 155.722V185.535C541.928 188.162 541.015 190.447 539.187 192.389C537.474 194.331 534.961 195.302 531.648 195.302H516.227V252.701H469.966V195.302H369.56C366.248 195.302 363.221 194.274 360.479 192.217C357.852 190.161 356.196 187.591 355.51 184.507L350.027 158.292L465.511 3.05786H516.227V155.722H541.928Z" fill="url(#paint0_linear_11345_3729)"/>
<path d="M784.402 127.794C784.402 149.611 782.06 168.515 777.377 184.507C772.693 200.499 766.182 213.749 757.844 224.258C749.62 234.767 739.796 242.592 728.373 247.732C717.065 252.872 704.786 255.442 691.535 255.442C678.285 255.442 666.005 252.872 654.697 247.732C643.503 242.592 633.794 234.767 625.569 224.258C617.345 213.749 610.891 200.499 606.208 184.507C601.639 168.515 599.354 149.611 599.354 127.794C599.354 105.976 601.639 87.0717 606.208 71.0799C610.891 55.0882 617.345 41.8379 625.569 31.329C633.794 20.8201 643.503 13.0527 654.697 8.02671C666.005 2.88651 678.285 0.316406 691.535 0.316406C704.786 0.316406 717.065 2.88651 728.373 8.02671C739.796 13.0527 749.62 20.8201 757.844 31.329C766.182 41.8379 772.693 55.0882 777.377 71.0799C782.06 87.0717 784.402 105.976 784.402 127.794ZM729.573 127.794C729.573 110.545 728.488 96.4383 726.317 85.4725C724.147 74.3925 721.234 65.7113 717.579 59.4288C714.038 53.1463 709.983 48.8628 705.414 46.5783C700.845 44.1795 696.219 42.9801 691.535 42.9801C686.852 42.9801 682.226 44.1795 677.657 46.5783C673.202 48.8628 669.204 53.1463 665.663 59.4288C662.236 65.7113 659.437 74.3925 657.267 85.4725C655.211 96.4383 654.183 110.545 654.183 127.794C654.183 145.156 655.211 159.32 657.267 170.286C659.437 181.252 662.236 189.933 665.663 196.33C669.204 202.612 673.202 206.953 677.657 209.352C682.226 211.636 686.852 212.778 691.535 212.778C696.219 212.778 700.845 211.636 705.414 209.352C709.983 206.953 714.038 202.612 717.579 196.33C721.234 189.933 724.147 181.252 726.317 170.286C728.488 159.32 729.573 145.156 729.573 127.794Z" fill="url(#paint1_linear_11345_3729)"/>
<path d="M953.199 155.722V90.6127C953.199 86.6148 953.313 82.3313 953.541 77.7622C953.884 73.0789 954.341 68.2243 954.912 63.1983L888.946 155.722H953.199ZM1025.16 155.722V185.535C1025.16 188.162 1024.25 190.447 1022.42 192.389C1020.71 194.331 1018.19 195.302 1014.88 195.302H999.46V252.701H953.199V195.302H852.793C849.481 195.302 846.454 194.274 843.712 192.217C841.085 190.161 839.429 187.591 838.743 184.507L833.26 158.292L948.744 3.05786H999.46V155.722H1025.16Z" fill="url(#paint2_linear_11345_3729)"/>
<path opacity="0.4" d="M438.115 320.028C431.915 318.128 425.715 317.428 419.615 317.728C418.515 299.828 406.615 283.628 388.415 278.028C388.315 278.028 388.315 278.028 388.215 277.928C388.815 276.528 389.315 275.028 389.815 273.528C398.715 245.228 383.015 215.028 354.615 206.128C341.615 202.028 328.315 203.128 316.815 208.228C312.115 177.328 290.415 150.228 258.515 140.228C218.815 127.728 176.815 146.128 158.215 181.928C154.515 179.428 150.415 177.428 145.915 176.028C121.115 168.228 94.7149 182.028 86.9149 206.828C86.4149 208.428 86.0149 210.028 85.7149 211.628C82.9149 210.228 79.9149 209.028 76.8149 208.028C45.8149 198.228 12.7149 215.528 2.91486 246.528C-6.88514 277.527 10.4149 310.628 41.4149 320.428C54.9149 324.728 68.8149 323.828 81.0149 318.928C77.7149 353.228 98.7149 386.327 132.915 397.128C165.215 407.228 199.215 394.328 217.215 367.728C225.315 380.328 237.715 390.228 253.115 395.028C263.615 398.328 274.215 398.828 284.315 397.128C288.415 413.128 300.415 426.728 317.315 432.128C343.315 440.328 371.015 425.828 379.215 399.828C379.415 399.028 379.715 398.328 379.915 397.528C386.215 407.028 395.615 414.527 407.315 418.128C434.415 426.628 463.215 411.628 471.715 384.528C480.215 357.328 465.215 328.528 438.115 320.028Z" fill="url(#paint3_linear_11345_3729)"/>
<path opacity="0.4" d="M522.914 364.228C516.014 364.928 509.514 366.928 503.614 369.928C494.814 352.728 476.014 341.828 455.714 344.028C455.614 344.028 455.514 344.028 455.514 344.028C455.514 342.328 455.414 340.728 455.214 339.028C451.814 307.228 423.314 284.128 391.414 287.528C376.814 289.028 364.114 295.928 354.914 305.928C337.014 277.328 303.814 259.928 268.014 263.728C223.314 268.428 189.614 304.728 186.714 348.128C182.014 347.228 177.014 347.028 172.014 347.528C144.114 350.528 123.914 375.528 126.814 403.428C127.014 405.228 127.314 407.028 127.614 408.728C124.214 408.528 120.814 408.628 117.314 408.928C82.4143 412.628 57.1143 443.928 60.8143 478.828C64.5143 513.728 95.8143 539.028 130.714 535.328C145.914 533.728 159.314 526.828 169.214 516.728C180.714 552.128 215.714 575.828 254.214 571.728C290.414 567.928 318.514 540.528 324.814 506.428C338.214 515.328 354.814 519.828 372.114 517.928C383.914 516.728 394.714 512.628 403.914 506.528C414.814 520.628 432.614 528.928 451.614 526.928C480.814 523.828 502.014 497.628 498.914 468.328C498.814 467.428 498.714 466.628 498.614 465.728C508.914 472.428 521.514 475.728 534.614 474.328C565.014 471.128 587.114 443.828 583.914 413.328C580.714 383.028 553.414 361.028 522.914 364.228Z" fill="url(#paint4_linear_11345_3729)"/>
<path opacity="0.4" d="M764.814 319.928C764.714 319.928 764.614 319.928 764.614 319.928C764.614 318.528 764.514 317.228 764.314 315.827C761.814 295.528 743.314 281.127 723.014 283.727C715.914 284.627 709.614 287.428 704.414 291.628C689.114 257.628 652.914 235.927 614.014 240.827C578.814 245.227 551.214 269.927 541.414 301.727C533.914 300.027 526.014 299.628 518.014 300.628C482.714 305.028 457.214 335.827 458.714 370.827C455.714 370.428 452.614 370.428 449.514 370.827C428.814 373.428 414.114 392.328 416.714 413.028C419.314 433.728 438.214 448.428 458.914 445.827C459.214 445.827 459.514 445.727 459.814 445.627C467.114 468.027 489.414 482.727 513.714 479.727C531.214 477.527 545.414 466.628 552.614 451.928C565.614 477.028 593.214 492.527 622.814 488.827C650.514 485.327 672.314 466.027 680.314 441.127C690.314 447.027 702.314 449.727 714.714 448.127C730.414 446.127 743.714 437.728 752.314 425.928C760.414 429.028 769.314 430.228 778.514 429.028C808.714 425.228 830.114 397.728 826.314 367.628C822.514 337.628 794.914 316.228 764.814 319.928Z" fill="url(#paint5_linear_11345_3729)"/>
<path opacity="0.4" d="M660.915 272.928C661.015 272.928 661.115 272.928 661.115 272.828C660.615 271.528 660.115 270.328 659.715 268.928C653.915 249.328 665.115 228.728 684.615 222.928C691.415 220.928 698.415 221.028 704.815 222.728C705.115 185.428 729.615 151.128 767.215 139.928C801.215 129.828 836.415 141.428 858.115 166.628C864.315 162.128 871.315 158.528 879.115 156.228C913.215 146.128 948.915 164.128 961.515 196.728C964.115 195.228 966.915 193.928 969.915 193.028C989.915 187.128 1011.02 198.528 1016.92 218.528C1022.82 238.528 1011.42 259.628 991.415 265.528C991.115 265.628 990.815 265.628 990.515 265.728C992.815 289.128 978.215 311.628 954.815 318.628C937.915 323.628 920.515 319.328 908.015 308.728C906.215 336.928 887.115 362.228 858.515 370.728C831.815 378.628 804.115 369.728 786.715 350.128C779.915 359.528 770.015 366.828 758.015 370.328C742.915 374.828 727.315 372.428 714.715 365.028C708.515 371.128 700.815 375.728 691.915 378.428C662.815 387.028 632.115 370.428 623.515 341.328C615.215 312.128 631.815 281.528 660.915 272.928Z" fill="url(#paint6_linear_11345_3729)"/>
<path opacity="0.4" d="M364.614 395.128C364.714 395.128 364.814 395.128 364.814 395.128C364.514 393.728 364.414 392.328 364.214 390.928C362.714 370.128 378.314 351.928 399.214 350.428C406.514 349.928 413.414 351.528 419.414 354.628C427.914 317.428 459.814 288.428 499.914 285.528C536.014 282.828 568.714 302.128 584.914 332.028C592.014 328.828 599.914 326.828 608.114 326.228C644.414 323.528 676.214 349.328 681.614 384.728C684.514 383.728 687.614 383.128 690.814 382.828C712.114 381.228 730.714 397.228 732.214 418.628C733.814 439.928 717.814 458.528 696.414 460.028C696.114 460.028 695.814 460.028 695.414 460.028C692.614 483.928 673.114 503.228 648.214 505.028C630.314 506.328 613.814 498.228 603.614 484.928C595.614 512.628 571.114 533.828 540.614 536.028C512.214 538.128 486.414 523.128 473.414 499.728C464.514 507.628 453.114 512.728 440.314 513.728C424.214 514.928 409.214 509.128 398.214 499.028C390.714 503.728 382.014 506.728 372.514 507.428C341.514 509.728 314.514 486.428 312.214 455.428C310.314 424.428 333.614 397.428 364.614 395.128Z" fill="url(#paint7_linear_11345_3729)"/>
<path d="M1042.25 332.389L1045.67 335.466C1047.11 336.765 1046.36 340.32 1043.89 345.038C1043.89 345.106 1043.83 345.175 1043.83 345.175C1042.66 347.363 1041.16 349.824 1039.31 352.422C1039.31 352.491 1039.24 352.491 1039.24 352.559C1037.74 354.679 1035.96 356.935 1034.05 359.26L1033.98 359.328C1033.09 360.354 1032.2 361.448 1031.24 362.542C1030.29 363.636 1029.33 364.662 1028.37 365.619L1028.3 365.756C1026.25 367.875 1024.2 369.858 1022.22 371.636C1022.15 371.636 1022.15 371.704 1022.08 371.704C1019.69 373.824 1017.43 375.602 1015.31 376.969C1015.25 377.037 1015.25 377.037 1015.18 377.037C1010.8 379.978 1007.38 381.14 1005.88 379.841L1002.46 376.764L1042.25 332.389Z" fill="#E2A935"/>
<path d="M1008.13 370.541L1015.38 377.037C1015.31 377.105 1015.31 377.105 1015.25 377.105C1010.87 380.045 1007.45 381.207 1005.95 379.908L1002.53 376.831L1008.13 370.541Z" fill="#E0A94D"/>
<path d="M1013.88 364.114L1022.22 371.635C1022.15 371.635 1022.15 371.703 1022.08 371.703C1019.69 373.823 1017.43 375.601 1015.31 376.968C1015.25 377.037 1015.25 377.037 1015.18 377.037L1008 370.609L1013.88 364.114Z" fill="#DC9A31"/>
<path d="M1019.55 357.755L1028.37 365.618L1028.3 365.755C1026.25 367.874 1024.2 369.857 1022.22 371.635C1022.15 371.635 1022.15 371.703 1022.08 371.703L1013.74 364.25L1019.55 357.755Z" fill="#E2A434"/>
<path d="M1042.25 332.388L1045.67 335.465C1047.11 336.764 1046.36 340.319 1043.89 345.037C1043.89 345.106 1043.83 345.174 1043.83 345.174L1036.58 338.678L1042.25 332.388Z" fill="#E0A94D"/>
<path d="M1036.71 338.61L1043.89 345.037C1043.89 345.106 1043.83 345.174 1043.83 345.174C1042.66 347.362 1041.16 349.824 1039.31 352.422C1039.31 352.49 1039.24 352.49 1039.24 352.559L1030.9 345.037L1036.71 338.61Z" fill="#DC9A31"/>
<path d="M1030.97 344.969L1039.31 352.422C1039.31 352.49 1039.25 352.49 1039.25 352.558C1037.74 354.678 1035.96 356.934 1034.05 359.259L1033.98 359.327L1025.16 351.464L1030.97 344.969Z" fill="#E2A434"/>
<path d="M1025.3 351.396L1034.12 359.259L1034.05 359.327C1033.16 360.353 1032.27 361.447 1031.31 362.541C1030.36 363.635 1029.4 364.661 1028.44 365.618L1028.37 365.755L1019.55 357.892L1025.3 351.396Z" fill="#EEBD37"/>
<path d="M1027.84 359.498C1038.82 347.225 1045.28 335.093 1042.26 332.399C1039.25 329.705 1027.91 337.47 1016.94 349.742C1005.96 362.015 999.502 374.148 1002.51 376.842C1005.53 379.535 1016.87 371.77 1027.84 359.498Z" fill="#FADE4B"/>
<path d="M1039.59 335.397C1039.93 335.807 1040.13 336.422 1040 337.243C1039.93 337.038 1039.79 336.764 1039.65 336.627C1037.47 334.371 1027.96 341.072 1018.46 351.533C1010.6 360.148 1005.19 368.695 1004.78 372.661C1003.89 369.516 1009.64 359.943 1018.39 350.234C1027.89 339.773 1037.4 333.072 1039.59 335.397Z" fill="#E2A935"/>
<path opacity="0.5" d="M1039.65 336.628C1039.79 336.764 1039.93 337.038 1040 337.243C1039.59 341.209 1034.18 349.756 1026.32 358.439C1016.82 368.901 1007.31 375.601 1005.13 373.345C1004.99 373.14 1004.85 372.935 1004.78 372.661C1005.26 368.627 1010.66 360.149 1018.46 351.533C1027.96 341.004 1037.47 334.371 1039.65 336.628Z" fill="#E2A935"/>
<g filter="url(#filter0_f_11345_3729)">
<path d="M805.331 458.014L801.823 458.305C800.346 458.423 798.666 456.134 797.176 452.279C797.136 452.244 797.131 452.169 797.131 452.169C796.45 450.37 795.784 448.237 795.21 445.84C795.171 445.804 795.205 445.766 795.166 445.73C794.697 443.776 794.287 441.598 793.907 439.307L793.902 439.233C793.756 438.198 793.571 437.126 793.42 436.017C793.27 434.908 793.159 433.834 793.087 432.797L793.043 432.687C792.85 430.427 792.737 428.24 792.707 426.199C792.742 426.161 792.702 426.125 792.737 426.087C792.717 423.637 792.826 421.443 793.103 419.541C793.098 419.467 793.098 419.467 793.133 419.428C793.638 415.441 794.69 412.921 796.201 412.765L799.709 412.475L805.331 458.014Z" fill="#E2A935"/>
<path d="M800.823 418.944L793.378 419.574C793.373 419.5 793.373 419.5 793.408 419.462C793.914 415.46 794.97 412.933 796.486 412.776L800.006 412.485L800.823 418.944Z" fill="#E0A94D"/>
<path d="M801.528 425.544L792.946 426.245C792.981 426.207 792.941 426.171 792.976 426.133C792.955 423.679 793.064 421.481 793.342 419.575C793.337 419.501 793.337 419.501 793.372 419.463L800.73 418.835L801.528 425.544Z" fill="#DC9A31"/>
<path d="M802.222 432.06L793.204 432.848L793.16 432.738C792.967 430.476 792.853 428.286 792.823 426.242C792.858 426.204 792.818 426.168 792.853 426.129L801.39 425.393L802.222 432.06Z" fill="#E2A434"/>
<path d="M804.962 458.019L801.46 458.308C799.986 458.426 798.308 456.141 796.82 452.293C796.78 452.257 796.775 452.183 796.775 452.183L804.183 451.555L804.962 458.019Z" fill="#E0A94D"/>
<path d="M804.272 451.687L796.925 452.314C796.886 452.278 796.881 452.204 796.881 452.204C796.199 450.405 795.532 448.271 794.959 445.874C794.919 445.838 794.954 445.8 794.914 445.764L803.481 445.064L804.272 451.687Z" fill="#DC9A31"/>
<path d="M803.612 445.15L795.08 445.886C795.04 445.85 795.075 445.812 795.035 445.776C794.566 443.821 794.156 441.641 793.775 439.348L793.769 439.274L802.781 438.486L803.612 445.15Z" fill="#E2A434"/>
<path d="M802.878 438.61L793.864 439.398L793.859 439.323C793.713 438.287 793.528 437.215 793.377 436.104C793.226 434.994 793.115 433.919 793.043 432.881L792.998 432.77L802.013 431.982L802.878 438.61Z" fill="#EEBD37"/>
<path d="M797.192 435.68C798.681 448.315 802.257 458.343 805.179 458.077C808.101 457.812 809.263 447.354 807.774 434.718C806.285 422.083 802.709 412.056 799.787 412.322C796.865 412.587 795.703 423.045 797.192 435.68Z" fill="#FADE4B"/>
<path d="M804.933 454.9C804.523 454.875 804.063 454.666 803.657 454.158C803.81 454.228 804.037 454.295 804.186 454.291C806.597 454.256 807.511 445.427 806.247 434.621C805.223 425.701 802.997 418.191 800.907 415.876C803.178 417.034 805.825 425.274 807.034 435.266C808.299 446.072 807.384 454.901 804.933 454.9Z" fill="#E2A935"/>
<path opacity="0.5" d="M804.199 454.303C804.05 454.307 803.823 454.24 803.669 454.17C801.579 451.855 799.353 444.345 798.29 435.389C797.025 424.583 797.939 415.754 800.351 415.719C800.539 415.751 800.727 415.782 800.92 415.888C803.015 418.277 805.202 425.751 806.26 434.633C807.564 445.475 806.61 454.268 804.199 454.303Z" fill="#E2A935"/>
</g>
<g filter="url(#filter1_f_11345_3729)">
<path d="M910.044 203.217L906.589 205.873C905.131 206.988 901.542 205.658 896.905 202.523C896.835 202.511 896.771 202.435 896.771 202.435C894.622 200.961 892.222 199.12 889.711 196.935C889.641 196.923 889.646 196.859 889.576 196.847C887.527 195.066 885.362 193.004 883.137 190.803L883.073 190.727C882.095 189.715 881.047 188.69 880.006 187.602C878.964 186.513 877.992 185.437 877.091 184.372L876.956 184.284C874.954 181.991 873.093 179.722 871.436 177.554C871.442 177.49 871.372 177.478 871.378 177.414C869.405 174.801 867.772 172.376 866.549 170.152C866.485 170.076 866.485 170.076 866.491 170.012C863.846 165.399 862.945 161.995 864.409 160.816L867.864 158.16L910.044 203.217Z" fill="#E2A935"/>
<path d="M875.229 164.975L867.812 170.066C867.743 169.988 867.743 169.988 867.748 169.926C864.897 165.264 863.882 161.884 865.369 160.816L868.881 158.418L875.229 164.975Z" fill="#E0A94D"/>
<path d="M880.91 171.665L872.413 177.436C872.417 177.375 872.345 177.359 872.349 177.298C870.265 174.665 868.533 172.233 867.226 170.018C867.158 169.941 867.158 169.941 867.163 169.88L874.428 164.902L880.91 171.665Z" fill="#DC9A31"/>
<path d="M886.511 178.166L877.645 184.264L877.505 184.171C875.404 181.855 873.448 179.57 871.703 177.393C871.707 177.332 871.635 177.316 871.639 177.255L880.042 171.492L886.511 178.166Z" fill="#E2A434"/>
<path d="M908.852 203.501L905.437 205.786C903.996 206.745 900.352 205.308 895.611 202.133C895.54 202.118 895.473 202.044 895.473 202.044L902.684 197.192L908.852 203.501Z" fill="#E0A94D"/>
<path d="M903.371 197.487L896.171 202.39C896.1 202.375 896.032 202.299 896.032 202.299C893.815 200.779 891.334 198.895 888.731 196.677C888.659 196.662 888.664 196.602 888.592 196.586L897.014 190.901L903.371 197.487Z" fill="#DC9A31"/>
<path d="M897.776 191.083L889.402 196.814C889.33 196.798 889.335 196.737 889.263 196.722C887.133 194.905 884.878 192.814 882.559 190.586L882.492 190.51L891.329 184.446L897.776 191.083Z" fill="#E2A434"/>
<path d="M892.102 184.68L883.252 190.759L883.185 190.683C882.163 189.658 881.07 188.617 879.981 187.516C878.892 186.415 877.875 185.329 876.93 184.258L876.79 184.166L885.64 178.087L892.102 184.68Z" fill="#EEBD37"/>
<path d="M883.755 184.833C894.758 197.515 905.993 205.859 908.847 203.469C911.702 201.078 905.096 188.86 894.092 176.178C883.088 163.495 871.854 155.152 868.999 157.542C866.145 159.932 872.751 172.151 883.755 184.833Z" fill="#FADE4B"/>
<path d="M907.911 199.964C907.459 200.174 906.801 200.217 905.95 199.912C906.169 199.897 906.465 199.838 906.617 199.748C909.124 198.319 902.717 188.401 892.37 177.637C883.85 168.74 875.243 162.036 871.113 160.781C874.467 160.702 884.127 167.939 893.736 177.869C904.083 188.633 910.49 198.551 907.911 199.964Z" fill="#E2A935"/>
<path opacity="0.5" d="M906.68 199.869C906.528 199.96 906.233 200.019 906.013 200.033C901.883 198.778 893.276 192.074 884.685 183.162C874.338 172.398 867.931 162.48 870.438 161.052C870.662 160.977 870.886 160.902 871.177 160.903C875.374 162.235 883.91 168.923 892.433 177.759C902.853 188.539 909.187 198.441 906.68 199.869Z" fill="#E2A935"/>
</g>
<path d="M536.193 441.868L539.611 444.945C541.047 446.244 540.295 449.799 537.834 454.517C537.834 454.585 537.765 454.654 537.765 454.654C536.603 456.842 535.099 459.303 533.252 461.901C533.252 461.97 533.184 461.97 533.184 462.038C531.68 464.158 529.902 466.414 527.988 468.739L527.919 468.807C527.03 469.833 526.141 470.927 525.184 472.021C524.227 473.115 523.27 474.141 522.312 475.098L522.244 475.235C520.193 477.354 518.142 479.337 516.159 481.115C516.09 481.115 516.09 481.183 516.022 481.183C513.629 483.303 511.373 485.081 509.253 486.448C509.185 486.516 509.185 486.516 509.116 486.516C504.74 489.457 501.321 490.619 499.817 489.32L496.398 486.243L536.193 441.868Z" fill="#E2A935"/>
<path d="M502.074 480.02L509.321 486.516C509.253 486.584 509.253 486.584 509.184 486.584C504.809 489.524 501.39 490.687 499.886 489.388L496.467 486.311L502.074 480.02Z" fill="#E0A94D"/>
<path d="M507.818 473.593L516.159 481.114C516.091 481.114 516.091 481.183 516.023 481.183C513.63 483.302 511.373 485.08 509.254 486.447C509.185 486.516 509.185 486.516 509.117 486.516L501.938 480.089L507.818 473.593Z" fill="#DC9A31"/>
<path d="M513.492 467.234L522.312 475.097L522.244 475.234C520.192 477.354 518.141 479.337 516.158 481.114C516.09 481.114 516.09 481.183 516.021 481.183L507.68 473.73L513.492 467.234Z" fill="#E2A434"/>
<path d="M536.193 441.867L539.611 444.944C541.047 446.243 540.295 449.799 537.834 454.517C537.834 454.585 537.765 454.653 537.765 454.653L530.518 448.158L536.193 441.867Z" fill="#E0A94D"/>
<path d="M530.654 448.089L537.833 454.517C537.833 454.585 537.765 454.653 537.765 454.653C536.602 456.841 535.098 459.303 533.252 461.901C533.252 461.969 533.184 461.969 533.184 462.038L524.842 454.517L530.654 448.089Z" fill="#DC9A31"/>
<path d="M524.911 454.448L533.253 461.901C533.253 461.969 533.185 461.969 533.185 462.038C531.681 464.157 529.903 466.414 527.988 468.738L527.92 468.807L519.1 460.944L524.911 454.448Z" fill="#E2A434"/>
<path d="M519.236 460.875L528.056 468.739L527.988 468.807C527.099 469.833 526.21 470.927 525.253 472.021C524.295 473.115 523.338 474.14 522.381 475.097L522.313 475.234L513.492 467.371L519.236 460.875Z" fill="#EEBD37"/>
<path d="M521.782 468.977C532.759 456.704 539.216 444.572 536.204 441.878C533.192 439.184 521.852 446.949 510.875 459.221C499.898 471.494 493.442 483.627 496.453 486.321C499.465 489.014 510.805 481.249 521.782 468.977Z" fill="#FADE4B"/>
<path d="M533.526 444.876C533.868 445.286 534.073 445.901 533.936 446.722C533.868 446.517 533.731 446.243 533.594 446.106C531.406 443.85 521.902 450.551 512.398 461.012C504.535 469.627 499.134 478.174 498.723 482.14C497.834 478.995 503.578 469.422 512.33 459.713C521.834 449.252 531.338 442.551 533.526 444.876Z" fill="#E2A935"/>
<path opacity="0.5" d="M533.594 446.107C533.731 446.243 533.867 446.517 533.936 446.722C533.525 450.688 528.124 459.235 520.261 467.918C510.757 478.38 501.253 485.08 499.065 482.824C498.928 482.619 498.791 482.414 498.723 482.14C499.201 478.106 504.603 469.628 512.398 461.012C521.902 450.483 531.406 443.85 533.594 446.107Z" fill="#E2A935"/>
<g filter="url(#filter2_f_11345_3729)">
<path d="M359.331 548.014L355.823 548.305C354.346 548.423 352.666 546.134 351.176 542.279C351.136 542.244 351.131 542.169 351.131 542.169C350.45 540.37 349.784 538.237 349.21 535.84C349.171 535.804 349.205 535.766 349.166 535.73C348.697 533.776 348.287 531.598 347.907 529.307L347.902 529.233C347.756 528.198 347.571 527.126 347.42 526.017C347.27 524.908 347.159 523.834 347.087 522.797L347.043 522.687C346.85 520.427 346.737 518.24 346.707 516.199C346.742 516.161 346.702 516.125 346.737 516.087C346.717 513.637 346.826 511.443 347.103 509.541C347.098 509.467 347.098 509.467 347.133 509.428C347.638 505.441 348.69 502.921 350.201 502.765L353.709 502.475L359.331 548.014Z" fill="#E2A935"/>
<path d="M354.823 508.944L347.378 509.574C347.373 509.5 347.373 509.5 347.408 509.462C347.914 505.46 348.97 502.933 350.486 502.776L354.006 502.485L354.823 508.944Z" fill="#E0A94D"/>
<path d="M355.528 515.544L346.946 516.245C346.981 516.207 346.941 516.171 346.976 516.133C346.955 513.679 347.064 511.481 347.342 509.575C347.337 509.501 347.337 509.501 347.372 509.463L354.73 508.835L355.528 515.544Z" fill="#DC9A31"/>
<path d="M356.222 522.06L347.204 522.848L347.16 522.738C346.967 520.476 346.853 518.286 346.823 516.242C346.858 516.204 346.818 516.168 346.853 516.129L355.39 515.393L356.222 522.06Z" fill="#E2A434"/>
<path d="M358.962 548.018L355.46 548.308C353.986 548.426 352.308 546.14 350.82 542.293C350.78 542.257 350.775 542.183 350.775 542.183L358.183 541.555L358.962 548.018Z" fill="#E0A94D"/>
<path d="M358.272 541.687L350.925 542.314C350.886 542.278 350.881 542.204 350.881 542.204C350.199 540.405 349.532 538.271 348.959 535.874C348.919 535.838 348.954 535.8 348.914 535.764L357.481 535.064L358.272 541.687Z" fill="#DC9A31"/>
<path d="M357.612 535.15L349.08 535.886C349.04 535.85 349.075 535.812 349.035 535.776C348.566 533.821 348.156 531.641 347.775 529.348L347.769 529.274L356.781 528.486L357.612 535.15Z" fill="#E2A434"/>
<path d="M356.878 528.61L347.864 529.398L347.859 529.323C347.713 528.287 347.528 527.215 347.377 526.104C347.226 524.994 347.115 523.919 347.043 522.881L346.998 522.77L356.013 521.982L356.878 528.61Z" fill="#EEBD37"/>
<path d="M351.192 525.681C352.681 538.316 356.257 548.343 359.179 548.077C362.101 547.812 363.263 537.354 361.774 524.719C360.285 512.084 356.709 502.056 353.787 502.322C350.865 502.587 349.703 513.045 351.192 525.681Z" fill="#FADE4B"/>
<path d="M358.933 544.9C358.523 544.875 358.063 544.666 357.657 544.158C357.81 544.228 358.037 544.295 358.186 544.291C360.597 544.256 361.511 535.427 360.247 524.621C359.223 515.701 356.997 508.191 354.907 505.876C357.178 507.034 359.825 515.274 361.034 525.266C362.299 536.072 361.384 544.901 358.933 544.9Z" fill="#E2A935"/>
<path opacity="0.5" d="M358.199 544.303C358.05 544.307 357.823 544.24 357.669 544.17C355.579 541.855 353.353 534.345 352.29 525.389C351.025 514.583 351.939 505.754 354.351 505.719C354.539 505.751 354.727 505.782 354.92 505.888C357.015 508.277 359.202 515.751 360.26 524.633C361.564 535.475 360.61 544.268 358.199 544.303Z" fill="#E2A935"/>
</g>
<g filter="url(#filter3_f_11345_3729)">
<path d="M464.044 293.217L460.589 295.873C459.131 296.988 455.542 295.658 450.905 292.523C450.835 292.511 450.771 292.435 450.771 292.435C448.622 290.961 446.222 289.12 443.711 286.935C443.641 286.923 443.646 286.859 443.576 286.847C441.527 285.066 439.361 283.004 437.137 280.803L437.073 280.727C436.095 279.715 435.047 278.69 434.005 277.602C432.964 276.513 431.992 275.437 431.09 274.372L430.956 274.284C428.954 271.991 427.093 269.722 425.436 267.554C425.442 267.49 425.372 267.478 425.378 267.414C423.405 264.801 421.772 262.376 420.549 260.152C420.485 260.076 420.485 260.076 420.491 260.012C417.845 255.399 416.945 251.995 418.409 250.816L421.864 248.16L464.044 293.217Z" fill="#E2A935"/>
<path d="M429.229 254.975L421.812 260.066C421.743 259.988 421.743 259.988 421.748 259.926C418.897 255.264 417.881 251.884 419.368 250.816L422.881 248.418L429.229 254.975Z" fill="#E0A94D"/>
<path d="M434.91 261.665L426.413 267.436C426.417 267.375 426.345 267.359 426.349 267.298C424.265 264.665 422.533 262.233 421.226 260.018C421.158 259.941 421.158 259.941 421.163 259.88L428.428 254.902L434.91 261.665Z" fill="#DC9A31"/>
<path d="M440.511 268.166L431.645 274.264L431.505 274.171C429.404 271.855 427.448 269.57 425.703 267.393C425.707 267.332 425.635 267.316 425.639 267.255L434.042 261.492L440.511 268.166Z" fill="#E2A434"/>
<path d="M462.852 293.501L459.437 295.786C457.996 296.745 454.352 295.308 449.611 292.133C449.54 292.118 449.473 292.044 449.473 292.044L456.684 287.192L462.852 293.501Z" fill="#E0A94D"/>
<path d="M457.371 287.487L450.171 292.39C450.1 292.375 450.032 292.299 450.032 292.299C447.815 290.779 445.334 288.895 442.731 286.677C442.659 286.662 442.664 286.602 442.592 286.586L451.014 280.901L457.371 287.487Z" fill="#DC9A31"/>
<path d="M451.776 281.083L443.402 286.814C443.33 286.798 443.335 286.737 443.263 286.722C441.133 284.905 438.878 282.814 436.559 280.586L436.492 280.51L445.328 274.446L451.776 281.083Z" fill="#E2A434"/>
<path d="M446.102 274.68L437.252 280.759L437.185 280.683C436.163 279.658 435.07 278.617 433.981 277.516C432.892 276.415 431.875 275.329 430.93 274.258L430.79 274.166L439.64 268.087L446.102 274.68Z" fill="#EEBD37"/>
<path d="M437.755 274.833C448.758 287.515 459.993 295.859 462.847 293.469C465.702 291.078 459.096 278.86 448.092 266.178C437.088 253.495 425.854 245.152 422.999 247.542C420.145 249.932 426.751 262.151 437.755 274.833Z" fill="#FADE4B"/>
<path d="M461.911 289.964C461.459 290.174 460.801 290.217 459.95 289.912C460.169 289.897 460.465 289.838 460.617 289.748C463.124 288.319 456.717 278.401 446.37 267.637C437.85 258.74 429.243 252.036 425.113 250.781C428.467 250.702 438.127 257.939 447.736 267.869C458.083 278.633 464.49 288.551 461.911 289.964Z" fill="#E2A935"/>
<path opacity="0.5" d="M460.68 289.869C460.528 289.96 460.233 290.019 460.013 290.033C455.884 288.778 447.276 282.074 438.685 273.162C428.338 262.398 421.931 252.48 424.438 251.052C424.662 250.977 424.886 250.902 425.177 250.903C429.374 252.235 437.91 258.923 446.433 267.759C456.853 278.539 463.187 288.441 460.68 289.869Z" fill="#E2A935"/>
</g>
<path d="M764.893 251.49C764.673 250.727 699.713 227.389 682.571 204.599C682.571 204.599 681.476 197.76 676.615 194.088C671.755 190.416 661.685 193.789 661.659 196.977C661.641 200.111 667.808 208.464 680.525 211.708C680.525 211.708 715.735 247.519 764.355 257.707C764.417 257.72 765.932 255.288 764.893 251.49Z" fill="#F9CEB5"/>
<path d="M766.844 218.294C766.844 218.294 813.255 283.336 856.409 293.036C899.563 302.735 904.778 333.725 904.778 333.725C904.778 333.725 869.952 318.354 857.768 326.701C845.584 335.048 814.475 336.543 804.157 327.927C793.908 319.269 779.781 300.668 766.998 303.569C754.222 306.414 738.087 278.274 738.087 278.274L766.844 218.294Z" fill="#FF4B55"/>
<path opacity="0.3" d="M762.038 300.765C767.556 303.739 774.284 306.117 779.914 304.422C781.158 304.045 782.3 303.487 783.592 303.225C786.822 302.568 790.421 303.884 793.618 305.381C800.007 308.428 805.913 312.272 811.091 316.864C814.916 320.282 818.85 324.302 824.012 325.2C827.638 325.837 831.106 324.807 834.274 323.663C837.449 322.467 840.706 321.13 842.772 318.812C844.899 316.506 845.617 312.963 843.67 310.087C842.717 308.732 841.295 307.598 840.6 306.191C839.906 304.783 840.544 302.805 842.237 302.836C842.611 302.859 843.04 302.947 843.4 303.074C848.298 304.55 853.135 306.014 858.026 307.542C862.318 308.842 867.093 310.293 871.309 309.311C874.362 308.565 874.844 306.344 875.992 304.787C898.43 316.757 901.694 334.926 901.694 334.926C901.694 334.926 867.495 320.602 855.531 328.381C843.566 336.159 813.017 337.553 802.885 329.523C792.82 321.454 778.948 304.119 766.395 306.823C753.849 309.474 738.005 283.249 738.005 283.249L738.358 282.478C745.422 289.458 753.057 295.923 762.038 300.765Z" fill="black"/>
<path opacity="0.3" d="M777.538 292.206C785.536 299.676 794.47 306.451 801.471 314.546C807.467 321.443 811.904 329.261 814.473 337.147C810.67 335.998 807.37 334.483 805.045 332.559C799.052 327.537 791.775 319.536 784.274 313.683C782.932 309.973 781.385 306.321 779.438 302.675C774.161 292.711 767.061 283.654 762.701 273.816C766.003 280.403 771.602 286.647 777.538 292.206Z" fill="#20A2A5"/>
<path opacity="0.3" d="M767.054 273.756C765.813 271.334 764.925 268.943 764.339 266.396C765.064 268.979 765.952 271.369 767.054 273.756Z" fill="black"/>
<path opacity="0.3" d="M859.552 323.565C857.753 321.258 855.688 319.037 853.481 316.933C845.163 309.145 834.857 303.088 824.981 296.633C817.979 292.042 811.124 287.285 804.483 282.329C795.946 275.949 788.085 269.837 784.924 261.245C799 278.514 825.043 296.648 869.56 308.417C877.415 310.494 888.998 323.017 893.358 328.876C883.038 325.288 867.921 320.977 859.552 323.565Z" fill="black"/>
<path d="M767.83 291.68C765.612 296.81 786.327 370.611 786.738 372.618C787.15 374.624 773.459 397.203 773.459 397.203C773.459 397.203 767.929 396.963 778.403 372.566L753.333 300.023L767.83 291.68Z" fill="#B3353C"/>
<path d="M743.404 281.772C741.66 287.03 771.002 358.501 771.642 360.437C772.282 362.373 760.555 386.099 760.555 386.099C760.555 386.099 754.82 386.361 762.999 361.152L729.304 291.38L743.404 281.772Z" fill="#B3353C"/>
<path d="M713.779 241.596C706.177 203.747 713.254 171.684 729.586 169.982C745.919 168.28 765.321 197.584 772.923 235.433C780.525 273.282 773.448 305.345 757.115 307.047C740.783 308.749 721.38 279.445 713.779 241.596Z" fill="#FFEB4C"/>
<path opacity="0.6" d="M762.637 252.562L777.236 254.94C777.564 258.051 777.712 261.01 777.743 263.832C771.883 262.96 766.6 262.184 766.6 262.184L762.637 252.562Z" fill="#FFEB4C"/>
<path opacity="0.6" d="M776.387 233.613C776.773 235.029 777.159 236.446 777.486 237.791L761.16 235.552L756.179 218.084L771.078 218.69C773.179 223.459 774.924 228.463 776.387 233.613Z" fill="#FFEB4C"/>
<path opacity="0.5" d="M758.296 193.021C746.521 194.055 732.145 195.422 732.145 195.422L751.307 273.961L779.965 274.132C777.726 291.022 770.232 302.535 758.806 303.466C752.339 304.037 745.433 301.109 738.788 295.552L720.296 206.769C720.296 206.769 720.27 188.614 720.69 174.435C722.627 173.481 724.724 172.86 726.974 172.631C737.308 171.822 748.638 179.767 758.296 193.021Z" fill="#EAB726"/>
<path d="M708.737 243.001C701.161 205.226 707.445 173.306 722.773 171.706C738.1 170.107 756.667 199.433 764.242 237.209C771.818 274.984 765.534 306.904 750.206 308.504C734.879 310.103 716.313 280.777 708.737 243.001Z" fill="#FFDD50"/>
<path opacity="0.5" d="M714.331 270.258C729.986 280.926 745.698 290.602 761.359 300.151C761.417 300.222 761.545 300.25 761.602 300.321C764.459 297.522 766.728 293.593 768.383 288.762C746.267 265.184 723.845 243.013 701.337 221.532C701.821 228.303 702.904 235.559 704.746 243.099C707.096 252.931 710.389 262.084 714.331 270.258ZM770.868 254.264C771.508 259.771 771.711 265.066 771.5 269.975C761.178 263.183 750.834 256.033 740.461 248.581C727.365 239.12 714.211 229.057 701.136 218.893C700.563 206.439 702.228 195.653 705.817 187.999L705.874 188.071C711.373 194.873 717.957 199.848 723.727 205.529C735.689 217.22 747.608 229.256 759.392 241.853C763.253 245.879 767.035 250.007 770.868 254.264Z" fill="#FFEB4C"/>
<path d="M710.566 242.81C703.481 207.479 709.343 177.626 723.66 176.132C737.977 174.638 755.326 202.068 762.411 237.4C769.497 272.731 763.634 302.584 749.318 304.078C735.001 305.572 717.651 278.142 710.566 242.81Z" fill="#F9A91C"/>
<path d="M713.174 242.492C706.407 208.743 712.005 180.227 725.68 178.8C739.354 177.373 755.925 203.575 762.693 237.324C769.461 271.073 763.862 299.588 750.188 301.015C736.514 302.442 719.942 276.241 713.174 242.492Z" fill="#FFEB4C"/>
<path d="M726.259 213.111L734.074 267.887C734.77 272.768 732.746 277.011 729.546 277.376C726.347 277.742 723.196 274.091 722.5 269.21L714.685 214.434C713.989 209.553 716.013 205.31 719.213 204.945C722.412 204.579 725.562 208.23 726.259 213.111Z" fill="#EAB726"/>
<path d="M735.966 247.415L729.906 236.634L729.725 235.334C731.353 233.761 732.662 232.01 733.748 230.07L735.966 247.415Z" fill="#EAB726"/>
<path d="M733.017 229.756C736.052 224.301 737.109 217.357 737.408 208.351C737.529 204.559 739.318 201.738 741.774 201.45C745.469 201.018 748.863 206.334 748.507 211.967C747.669 224.723 745.023 231.269 741.757 236.475L756.045 260.731C759.086 265.904 757.601 273.451 753.423 273.941C751.605 274.153 749.716 272.869 748.435 270.592L735.213 247.072L733.017 229.756Z" fill="#EAB726"/>
<path opacity="0.3" d="M729.39 282.698C737.884 283.537 745.819 280.029 749.857 270.077C752.374 263.908 753.223 255.574 753.345 246.964C753.483 240.411 753.253 233.477 752.213 226.372C751.143 218.958 749.052 211.387 746.354 204.231C743.851 197.721 740.823 191.522 737.435 185.971C737.323 185.765 737.203 185.619 737.09 185.414C748.973 194.521 760.278 213.652 765.928 236.351C773.993 268.985 767.304 296.551 750.964 297.971C742.688 298.689 733.486 292.506 725.391 281.969C726.659 282.36 728.017 282.588 729.39 282.698Z" fill="#EAB726"/>
<path d="M776.576 262.339C776.154 261.612 710.95 257.847 687.568 239.22C687.568 239.22 684.04 232.329 678.513 229.962C672.931 227.651 665.392 234.478 666.52 237.837C667.709 241.199 676.138 248.066 688.394 247.354C688.394 247.354 732.26 273.96 778.413 269.04C778.418 269.099 778.871 266.045 776.576 262.339Z" fill="#F9CEB5"/>
<defs>
<filter id="filter0_f_11345_3729" x="790.707" y="410.316" width="19.7148" height="49.9961" filterUnits="userSpaceOnUse" color-interpolation-filters="sRGB">
<feFlood flood-opacity="0" result="BackgroundImageFix"/>
<feBlend mode="normal" in="SourceGraphic" in2="BackgroundImageFix" result="shape"/>
<feGaussianBlur stdDeviation="1" result="effect1_foregroundBlur_11345_3729"/>
</filter>
<filter id="filter1_f_11345_3729" x="859.709" y="153.134" width="54.3359" height="57.1287" filterUnits="userSpaceOnUse" color-interpolation-filters="sRGB">
<feFlood flood-opacity="0" result="BackgroundImageFix"/>
<feBlend mode="normal" in="SourceGraphic" in2="BackgroundImageFix" result="shape"/>
<feGaussianBlur stdDeviation="2" result="effect1_foregroundBlur_11345_3729"/>
</filter>
<filter id="filter2_f_11345_3729" x="344.707" y="500.317" width="19.7148" height="49.9956" filterUnits="userSpaceOnUse" color-interpolation-filters="sRGB">
<feFlood flood-opacity="0" result="BackgroundImageFix"/>
<feBlend mode="normal" in="SourceGraphic" in2="BackgroundImageFix" result="shape"/>
<feGaussianBlur stdDeviation="1" result="effect1_foregroundBlur_11345_3729"/>
</filter>
<filter id="filter3_f_11345_3729" x="413.709" y="243.134" width="54.3359" height="57.1287" filterUnits="userSpaceOnUse" color-interpolation-filters="sRGB">
<feFlood flood-opacity="0" result="BackgroundImageFix"/>
<feBlend mode="normal" in="SourceGraphic" in2="BackgroundImageFix" result="shape"/>
<feGaussianBlur stdDeviation="2" result="effect1_foregroundBlur_11345_3729"/>
</filter>
<linearGradient id="paint0_linear_11345_3729" x1="695.384" y1="-85.2993" x2="695.384" y2="251.701" gradientUnits="userSpaceOnUse">
<stop stop-color="#20A2A5"/>
<stop offset="1" stop-color="#20A2A5" stop-opacity="0"/>
</linearGradient>
<linearGradient id="paint1_linear_11345_3729" x1="695.384" y1="-85.2993" x2="695.384" y2="251.701" gradientUnits="userSpaceOnUse">
<stop stop-color="#20A2A5"/>
<stop offset="1" stop-color="#20A2A5" stop-opacity="0"/>
</linearGradient>
<linearGradient id="paint2_linear_11345_3729" x1="695.384" y1="-85.2993" x2="695.384" y2="251.701" gradientUnits="userSpaceOnUse">
<stop stop-color="#20A2A5"/>
<stop offset="1" stop-color="#20A2A5" stop-opacity="0"/>
</linearGradient>
<linearGradient id="paint3_linear_11345_3729" x1="204.627" y1="419.585" x2="289.374" y2="149.909" gradientUnits="userSpaceOnUse">
<stop stop-color="white" stop-opacity="0"/>
<stop offset="0.9377" stop-color="white" stop-opacity="0.9377"/>
<stop offset="1" stop-color="white"/>
</linearGradient>
<linearGradient id="paint4_linear_11345_3729" x1="334.789" y1="563.189" x2="302.616" y2="259.931" gradientUnits="userSpaceOnUse">
<stop stop-color="white" stop-opacity="0"/>
<stop offset="0.9377" stop-color="white" stop-opacity="0.9377"/>
<stop offset="1" stop-color="white"/>
</linearGradient>
<linearGradient id="paint5_linear_11345_3729" x1="633.603" y1="487.579" x2="602.948" y2="242.264" gradientUnits="userSpaceOnUse">
<stop stop-color="white" stop-opacity="0"/>
<stop offset="0.9377" stop-color="white" stop-opacity="0.9377"/>
<stop offset="1" stop-color="white"/>
</linearGradient>
<linearGradient id="paint6_linear_11345_3729" x1="848.345" y1="373.802" x2="778.012" y2="136.793" gradientUnits="userSpaceOnUse">
<stop stop-color="white" stop-opacity="0"/>
<stop offset="0.9377" stop-color="white" stop-opacity="0.9377"/>
<stop offset="1" stop-color="white"/>
</linearGradient>
<linearGradient id="paint7_linear_11345_3729" x1="529.854" y1="536.899" x2="511.345" y2="284.729" gradientUnits="userSpaceOnUse">
<stop stop-color="white" stop-opacity="0"/>
<stop offset="0.9377" stop-color="white" stop-opacity="0.9377"/>
<stop offset="1" stop-color="white"/>
</linearGradient>
</defs>
</svg>
