<svg xmlns="http://www.w3.org/2000/svg" viewBox="0 0 882.94 308.21"><defs><style>.cls-1{fill:#fff;}</style></defs><g id="Capa_2" data-name="Capa 2"><g id="Capa_1-2" data-name="Capa 1"><path class="cls-1" d="M283.3,0c32.28.61,64.08.75,95.85,2,14.51.58,28.49,5,41.44,11.86,29.64,15.62,43.93,41,44.59,73.8,1,50.39-17.11,92.07-59,121.68-21.5,15.2-46,22.44-72.22,22.82-31.16.46-62.33.11-93.49.1-.49,0-1-.12-2.15-.27C253.25,155,268.18,78,283.3,0Zm47.8,50c-8.68,44.29-17.38,88.71-26.18,133.6,8.81,0,17,.24,25.09-.05,21.26-.76,39.41-8.67,53.94-24.36,16.5-17.81,23.24-39.42,22.61-63.15-.73-27.22-15-42.88-41.67-45.83C353.9,49,342.66,50,331.1,50Z"/><path class="cls-1" d="M218.73,232H161.61c-1.64-16.1-3.26-32-4.89-48H84.39c-7.17,14.89-14.34,29.88-21.65,44.79-.69,1.4-2.33,3.32-3.55,3.34-19.44.21-38.89.14-59.19.14,4.51-8.67,8.67-16.7,12.86-24.72Q65.69,106.36,118.45,5.15C120.18,1.84,122,.41,126,.47c20,.26,40,.12,60.56.12Q202.65,116.35,218.73,232ZM107.45,137.92h44.24c-2.25-27.56-4.48-54.82-6.62-80.9Z"/><path class="cls-1" d="M630.15,231.52l51.9-65.08c12.56-15.76,25.05-31.58,37.76-47.2,2.22-2.73,2.4-4.79,1.05-7.95Q698.42,58.55,676.25,5.71c-.63-1.51-1.22-3-2-5.12H694c12.5,0,25,.18,37.49-.11,3.83-.08,5.46,1.34,6.87,4.67,8.56,20.19,17.32,40.29,26,60.42.66,1.52,1.4,3,2.29,4.89,10.74-15.17,21.27-30.08,31.84-45,5.2-7.33,10.37-14.69,15.76-21.88,1-1.38,3-2.89,4.58-2.9,21-.19,42-.13,64.1-.13-1.54,2-2.57,3.31-3.63,4.62Q835.18,60.11,791,114.93c-2.52,3.11-3,5.46-1.33,9.23,15.23,34.67,30.22,69.45,45.28,104.2.45,1,.8,2.11,1.48,3.92h-5.66c-16.66,0-33.32-.1-50,.09-3.37,0-4.94-.89-6.13-4.12-8.7-23.69-17.62-47.3-26.44-70.86.18-.17-.33.17-.67.64q-25.82,35.83-51.67,71.65a6.37,6.37,0,0,1-4.32,2.49c-20,.15-40,.08-60,.05C631.27,232.22,631,232,630.15,231.52Z"/><path class="cls-1" d="M622.57,91l-9.77,48.63H542.33l-8.52,43.68h93.28c-2.54,13.1-4.87,25.57-7.38,38-2.19,10.93-2.27,10.91-13.48,10.91H467.13C482.33,155,497.45,78,512.62.87H658.23c-3.16,16.26-6.27,32.23-9.44,48.55H560.12c-2.7,13.86-5.35,27.47-8.1,41.62Z"/><path class="cls-1" d="M296.91,269.93c4.93-1.33,7.82.18,10.19,4.26,3.83,6.6,8.27,12.85,13,20v-24.4h7.51v37c-4.4,1.45-7.39.63-9.89-3.68A140.11,140.11,0,0,0,304,283.82v23.24h-7.1Z"/><path class="cls-1" d="M349.92,307.6V269.85c6.15,0,12.33-.64,18.31.16,8.75,1.17,14,8.68,13.89,18.47s-5.31,16.88-14.23,18.19C362.19,307.51,356.34,307.31,349.92,307.6Zm7.45-7c6.13.61,12.2,1.09,15.55-5.06,2.66-4.88,2.79-10.3-.48-15.13-3.74-5.55-9.38-5.09-15.07-4.48Z"/><path class="cls-1" d="M545.65,307.91c-11.06-.1-19.42-8.64-19.42-19.85,0-11.05,8.55-19.39,19.82-19.32a19,19,0,0,1,19.38,19.73C565.23,299.71,556.8,308,545.65,307.91Zm12.55-19.65a12.61,12.61,0,0,0-12.35-12.94c-6.68,0-12.09,5.47-12.33,12.47-.25,7.16,5.62,13.63,12.35,13.62C552.44,301.39,558.13,295.32,558.2,288.26Z"/><path class="cls-1" d="M726.49,268.74c11.3-.08,19.75,8.17,19.77,19.32S738,307.79,726.93,307.9a19.09,19.09,0,0,1-19.71-19.42C707.15,277.13,715.26,268.82,726.49,268.74Zm.47,6.59A12.48,12.48,0,0,0,714.43,288c-.06,7.16,5.4,13.22,12,13.35s12.31-5.66,12.59-12.84C739.32,281.56,733.73,275.45,727,275.33Z"/><path class="cls-1" d="M270.42,307.91a19.39,19.39,0,0,1-19.72-20,19.16,19.16,0,0,1,19.38-19.2c11.4-.1,20.19,8.52,20,19.61A19.5,19.5,0,0,1,270.42,307.91Zm12.22-19.65c.07-7.23-5.37-13-12.29-12.93a12.3,12.3,0,0,0-12.2,12.45c-.12,7.54,5.32,13.58,12.23,13.57C277.1,301.35,282.56,295.52,282.64,288.26Z"/><path class="cls-1" d="M84.72,307.91a19.48,19.48,0,0,1-19.48-19.84c0-11,8.64-19.39,19.87-19.33s19.48,8.43,19.32,19.72S95.88,308,84.72,307.91Zm12.51-20a12.52,12.52,0,0,0-12.61-12.63c-6.75.17-11.82,5.64-11.82,12.79,0,7.38,5.28,13.25,12,13.31C91.63,301.48,97.29,295.36,97.23,288Z"/><path class="cls-1" d="M670.56,306.8V269.34c6.66.31,13.36-.16,19.72,1.1,8.54,1.68,13,9.28,12.52,19-.46,9.39-5.62,16.1-14.29,17.19C682.81,307.38,676.94,306.8,670.56,306.8Zm7.4-6.18c6.14.65,12.2,1.21,15.68-4.95a14,14,0,0,0-.34-15.2c-3.69-5.61-9.43-5.22-15.34-4.56Z"/><path class="cls-1" d="M781.56,306.74c-5.12,1.38-8.73.9-10.35-4.32-.53-1.71-1.91-3.15-2.52-4.85-1.47-4.1-4.18-5.19-8.5-3.69V307h-6.84V269.73c5.73,0,11.55-.53,17.23.13,8.09.94,11.34,11.69,5.94,18.54l-2.91,3.74C776,296.47,778.65,301.41,781.56,306.74Zm-21.18-32.25v13.58c4-1.4,7.59-2.17,10.54-4,.93-.56.94-5.19,0-5.73C768,276.61,764.39,275.86,760.38,274.49Z"/><path class="cls-1" d="M572.6,269.57c4.82,0,9.31.08,13.79,0,5.14-.12,9.08,1.62,11,6.67a12,12,0,0,1-3.18,13.62c-.58.54-1.22,1-1.89,1.58l8.33,15.23c-4.66,1.34-8.3,1.41-10.13-3.8-.6-1.71-1.79-3.2-2.44-4.89-1.54-4-4.17-5.71-8.88-4.18v13.3H572.6Zm6.92,5v13.61c4-1.45,7.64-2.25,10.59-4.09.94-.58.92-5.23,0-5.74C587.11,276.57,583.49,275.85,579.52,274.54Z"/><path class="cls-1" d="M396.25,275.51v9.18h12.2v6.6H396.38v9.36h15.81v6.47H389.35V269.75H411.5v5.76Z"/><path class="cls-1" d="M810.32,269.78v5.77h-15v9.14h11.78v6.48H795.49v9.47H811.1V307h-23V269.78Z"/><path class="cls-1" d="M665.91,306.76c-5.2,1.57-8.25.51-9-4.79-.44-3.18-2.14-4.33-5.71-4.54-6-.34-10,.53-11.3,7.42-.28,1.5-4.43,2.26-6.8,3.36l-1-1.46c4.16-11.83,8.23-23.7,12.62-35.44.38-1,3-1.59,4.53-1.62,1.34,0,3.58.68,3.93,1.62C657.62,283.06,661.72,294.91,665.91,306.76Zm-17-29.33c-1.72,5.47-3.05,9.73-4.38,14h9C652,286.78,650.64,282.6,648.94,277.43Z"/><path class="cls-1" d="M.05,307.21c4.28-12.23,8.27-24,12.63-35.57.42-1.13,3.14-1.92,4.79-1.92,1.39,0,3.64,1.06,4.06,2.19,4.28,11.47,8.26,23,12.42,34.87-4.71,1.25-8.13,1.13-8.89-4.46-.5-3.71-2.63-4.67-6.45-4.9-5.76-.34-9.29.81-10.42,7.1C7.32,309.41,3.36,306.73.05,307.21Zm17-29.95c-1.73,5.51-3.08,9.82-4.46,14.19h9.05C20.11,286.86,18.75,282.67,17,277.26Z"/><path class="cls-1" d="M194.77,307.11h-7.09c-4.56-10.34-4.56-10.34-16.33-9.15l-3.3,9.13H160.8c4.28-12.23,8.3-24.09,12.71-35.81.4-1.06,3.29-1.59,5-1.58,1.26,0,3.26,1,3.64,2.08C186.43,283.24,190.43,294.8,194.77,307.11Zm-12.43-15.57-4.62-14c-1.61,5-3,9.37-4.53,14Z"/><path class="cls-1" d="M459.47,269.69c4.33.08,8.11-1.57,10.09,3.29,1.3,3.18,3.34,6.07,5.07,9.13,4.93-4.41,4.26-15.44,15.54-12-3,4.87-5.74,9.73-8.85,14.38-1.67,2.51-1.91,4.43-.09,7.06,3.3,4.76,6.16,9.82,9.42,15.12-4.58,1.28-8.12,1.45-10.29-3.57-1.43-3.3-3.53-6.32-5.51-9.79-1.85,3.24-3.78,6-5,9-2,4.88-5.35,6.2-10.66,4.44,3.21-5.28,6.2-10.55,9.56-15.58,1.55-2.32,1.46-3.95,0-6.22C465.59,280.23,462.85,275.33,459.47,269.69Z"/><path class="cls-1" d="M432.43,269.71h22.34v5.82h-15v9.26h12.1v6.35h-12v9.73h16.07V307H432.43Z"/><path class="cls-1" d="M227.45,296.92l3.28,4.19c-5.74,7.95-18.91,9.16-27.19,2.64-8.47-6.68-9.61-20.5-2.35-28.56a20,20,0,0,1,28.66-.94l-2.13,3.35c-5.8-.57-10.88-1.61-15.89-1.32-2.12.12-4.57,2.68-6,4.73-3.49,5-2.31,12.71,2.07,16.95C212.82,302.72,218.65,302.44,227.45,296.92Z"/><path class="cls-1" d="M142,274.18l-3,4.65c-10.64-4.81-16.6-4.32-20.73,1.57a14.42,14.42,0,0,0,1.23,17.14c4.71,5,11,4.87,20.08-.62l3.22,4.2C137.43,308.87,124,310.26,116,304c-8.64-6.77-10-20-2.94-28.56C120,267.11,133.4,266.34,142,274.18Z"/><path class="cls-1" d="M503.51,307.06h-7.05V269.75c6,0,11.9-.4,17.76.12,5.21.46,8.77,5.67,8.88,11.58.11,6.5-3.29,11.34-9.17,12.41-3.22.58-6.57.49-10.42.73Zm.21-32.64v14.84c4.27-1.52,8.1-2.26,11.09-4.27,1.08-.72,1-5.87-.08-6.58C511.71,276.46,507.87,275.8,503.72,274.42Z"/><path class="cls-1" d="M815.39,302.66l3.38-4.72c3.26,1.16,6.12,2.76,9.1,3,1.85.16,3.88-1.7,5.83-2.65-1.05-1.83-1.69-4.23-3.25-5.38-2.5-1.83-5.69-2.68-8.44-4.21-3.9-2.19-6.35-5.44-5.73-10.18s3.55-7.76,8.12-9.08c5.83-1.68,11.08-.63,16,3.36l-2.8,5.25c-2.88-.94-5.53-2.49-8.13-2.43-2,.05-4,2.13-5.92,3.31,1.16,1.6,2,3.67,3.57,4.71,2.45,1.65,5.45,2.44,8.05,3.89,4.86,2.71,6.75,6.76,5.68,11.58a11,11,0,0,1-9.83,8.6A18.5,18.5,0,0,1,815.39,302.66Z"/><path class="cls-1" d="M60.7,272.87c-1.05,2-1.91,3.54-2.75,5.1-2.92-.9-5.69-2.36-8.48-2.39-1.81,0-3.64,2.06-5.47,3.2,1.08,1.65,1.81,3.8,3.31,4.82,2.57,1.74,5.66,2.69,8.46,4.12,4.61,2.36,6.21,6.34,5.39,11.24A10.08,10.08,0,0,1,53,307.39c-6.32,1.47-12.08,0-17.29-4.65L39,298c3.4,1.14,6.4,2.73,9.52,3,1.78.14,3.74-1.89,5.61-2.95-1-1.7-1.72-3.91-3.21-5-2.38-1.72-5.35-2.6-8-4-4.13-2.15-6.84-5.35-6.39-10.3s4.12-8.65,9.38-9.68A16.84,16.84,0,0,1,60.7,272.87Z"/><path class="cls-1" d="M614.89,275.56h-12.3V269.9H634v5.49H622.24v31.68h-7.35Z"/><path class="cls-1" d="M149.58,269.75h6.35V306.9h-6.35Z"/><path class="cls-1" d="M237.43,269.79h6.29v37.08h-6.29Z"/><path class="cls-1" d="M278.65,260c-3.37,3.64-4.55,9-10.58,7.16C269.66,260,270.42,259.47,278.65,260Z"/><path class="cls-1" d="M579.52,274.54c4,1.31,7.59,2,10.62,3.78.89.51.91,5.16,0,5.74-3,1.84-6.55,2.64-10.59,4.09Z"/></g></g></svg>