<svg xmlns="http://www.w3.org/2000/svg" viewBox="0 0 493.91 236.14"><defs><style>.cls-1{fill:#fff;}</style></defs><g id="Capa_2" data-name="Capa 2"><g id="Capa_1-2" data-name="Capa 1"><path class="cls-1" d="M483.6,180.66a52.57,52.57,0,0,1-22.78.1,20.08,20.08,0,0,1,.16-2.68c.5-2.76,1.1-5.51,1.63-8.27.4-2,.79-4.06,1.12-6.1.43-2.62.75-5.25,1.21-7.87.5-2.93,1.11-5.85,1.66-8.77.4-2.12.83-4.23,1.17-6.35.46-2.86.63-5.79,1.32-8.59a33.86,33.86,0,0,0,.92-8.89,14,14,0,0,0-.58-4.14c-.9-2.69-3.29-3.66-5.79-4a12,12,0,0,0-8.95,2.7c-3.06,2.33-5,5.52-6.71,8.81a67.53,67.53,0,0,0-4.88,13.06c-.62,2.13-.85,4.38-1.29,6.56-.53,2.59-1.13,5.16-1.65,7.75q-.6,2.91-1.1,5.84c-.43,2.61-.77,5.24-1.24,7.85s-1.1,5.33-1.61,8c-.21,1.14-.29,2.31-.43,3.46a1.92,1.92,0,0,1-1.88,1.9,67.25,67.25,0,0,1-13.44.67c-2.48-.15-4.95-.53-7.64-.83a24.17,24.17,0,0,1,.17-2.75c.5-2.76,1.1-5.51,1.63-8.27.41-2.11.81-4.23,1.15-6.35.43-2.7.75-5.42,1.22-8.11s1.09-5.52,1.62-8.28c.4-2,.8-4.06,1.13-6.11.44-2.69.76-5.41,1.24-8.1.5-2.85,1.13-5.68,1.67-8.52.41-2.11.8-4.23,1.14-6.35.44-2.79.77-5.59,1.26-8.36s1.15-5.34,1.64-8,.81-5.24,1.22-7.86q.81-5.16,1.63-10.32a10.47,10.47,0,0,0,.23-1.22c.15-6,1.74-12,.82-18.15a2.28,2.28,0,0,1,.25-.88c7.26-1.39,14.42-1.75,22,.07a3.56,3.56,0,0,1,1,2.76c0,4.4.33,8.79-.72,13.16-.69,2.89-.81,5.9-1.3,8.84-.44,2.61-1.08,5.18-1.55,7.78-.65,3.63-1.21,7.28-1.88,11.35.82-.38,1.24-.44,1.46-.68A36.28,36.28,0,0,1,464,97.25c4-1.57,8.31-1.39,12.54-1.27a18.9,18.9,0,0,1,9.55,3c3.78,2.35,5.83,5.83,7,10.15a34.72,34.72,0,0,1,.72,11.38c-.24,3.53-1,7-1.62,10.54-.35,2.12-.78,4.23-1.12,6.35-.44,2.78-.76,5.58-1.24,8.35s-1.1,5.34-1.62,8c-.4,2-.78,4.06-1.1,6.1-.45,2.78-.78,5.58-1.27,8.35s-1.13,5.5-1.64,8.26C483.89,177.84,483.78,179.24,483.6,180.66Z"/><path class="cls-1" d="M145.08,163.68q-1.58,8.52-3.14,17a53.49,53.49,0,0,1-22.74,0,2.64,2.64,0,0,1-.1-.86c.87-4.37,1.8-8.73,2.63-13.11.49-2.6.76-5.23,1.23-7.84.5-2.76,1.14-5.49,1.69-8.25.39-1.94.76-3.89,1.08-5.85.43-2.61.77-5.23,1.23-7.83.51-2.93,1.13-5.84,1.65-8.77.43-2.45.88-4.9,1.14-7.37.76-7.11,1.63-14.21,1.29-21.39,0-.41,0-.82,0-1.25,2-1.9,4.48-.88,6.65-1.41l7.08,0,6.34.36,1,2.36c.84,3.35.65,6.76.66,10.16,0,.18.26.36.48.66.27-.3.49-.51.68-.75a35.56,35.56,0,0,1,7.59-7.56,33.19,33.19,0,0,1,17.35-6.19l3,0,1.08,0c1.69.36,3.4.63,5.07,1.09,4.32,1.19,7.79,3.49,9.9,7.63,2.29,4.49,2.62,9.32,2.62,14.22a6.43,6.43,0,0,1-.08.74c-.19,1.57-.38,3.13-.59,4.7-.38,2.87-.76,5.74-1.19,8.61-.3,2-.64,3.91-1.06,5.85-.9,4.12-1.9,8.22-1.91,12.47-.23.28-.64.54-.67.84-.14,1.37-.18,2.76-.26,4.15-1,.65-.73,1.76-.88,2.71-.43,2.69-.8,5.39-1.27,8.07-.52,2.93-1.15,5.83-1.72,8.74l-1,5.34c-4,.31-7.72.68-11.44.86a33.81,33.81,0,0,1-11.1-1.29c.21-1.58.37-3,.59-4.35q.6-3.8,1.27-7.58c.55-3.09,1.16-6.16,1.7-9.25.45-2.52.83-5.06,1.25-7.58.33-2,.67-3.91,1-5.86.54-2.83,1.16-5.65,1.66-8.49s.64-5.79,1.39-8.57a19.33,19.33,0,0,0,.55-6.66c-.38-4.47-2.59-7-7.39-7.21a12.1,12.1,0,0,0-10.32,4.85,42.29,42.29,0,0,0-4.64,7.1,48.25,48.25,0,0,0-4.64,12.86c-.45,2.17-1.18,4.28-1.62,6.46-.49,2.5-.8,5-1.18,7.56q-.72,4.23-1.42,8.45a.23.23,0,0,0-.17.32Z"/><path class="cls-1" d="M20,65.08H82.76c1.35,1.5,1,3.31.74,5-.46,3.19-1,6.38-1.73,9.51a46.36,46.36,0,0,1-2,5.42H40.16c-.44,2.38-.86,4.63-1.28,6.88-.58,3.09-1.2,6.16-1.71,9.26-.57,3.51-1,7-1.6,10.94,3.61.07,7,0,10.36,0s6.83,0,10.25,0H66.67c.87,6.93-1.25,13.29-3.05,20a30.21,30.21,0,0,1-3.29.34c-8.41,0-16.83,0-25.24,0H32.24A30.33,30.33,0,0,0,31.11,136c-.5,2.69-.81,5.41-1.27,8.1-.5,2.85-1.09,5.68-1.62,8.52-.38,2-.76,4.06-1.11,6.1-.42,2.44-.78,4.9-1.21,7.34-.56,3.18-1.17,6.34-1.72,9.52-.18,1.06-.24,2.15-.37,3.22-.22,1.8-.52,2.11-2.3,2.25-3.81.31-7.62.8-11.43.81-3.3,0-6.61-.51-10-.81a13.59,13.59,0,0,1,0-2.32c.51-2.68,1.13-5.34,1.65-8,.39-1.95.71-3.91,1-5.87.42-2.7.76-5.41,1.22-8.11.49-2.85,1.09-5.68,1.63-8.52.41-2.2.85-4.39,1.2-6.6.44-2.78.75-5.58,1.23-8.36s1.13-5.5,1.67-8.26q.57-2.93,1-5.87c.43-2.7.77-5.41,1.24-8.11.5-2.93,1.13-5.84,1.68-8.77.42-2.19.82-4.39,1.17-6.6.44-2.78.75-5.58,1.23-8.35s1.11-5.35,1.63-8c.41-2.11.78-4.23,1.13-6.35C19.21,70.36,19.6,67.82,20,65.08Z"/><path class="cls-1" d="M369,102.05c1-.47,2.09-.89,3.09-1.42a43.24,43.24,0,0,1,10.1-3.78c6.52-1.61,13.09-1.13,19.6-.65a27.57,27.57,0,0,1,11.4,3c-.29,2.45-.18,5-.93,7.49a36.55,36.55,0,0,1-3.16,8.24c-1.27,2.19-1.19,2-3.5,1.32-4.92-1.53-9.95-2.91-15.16-2.12A22.65,22.65,0,0,0,374,125.33a37,37,0,0,0-4.26,10.93,45.81,45.81,0,0,0-.76,15.86A12.59,12.59,0,0,0,377.36,163c5,1.94,10.23,1.52,15.37.22,2.22-.56,4.41-1.25,7-2,3.48,5.09,4.32,11.05,4.11,17.44a56.72,56.72,0,0,1-13.52,3.54,66.76,66.76,0,0,1-13.68.6c-6.28-.47-12.49-1.43-18-4.81-1.57-1-3.08-2-4.62-3.05l-2.89-3.16a4.78,4.78,0,0,0-.44-1.4c-4-5.52-5.43-11.87-5.71-18.51a55.88,55.88,0,0,1,.71-11.88,61.79,61.79,0,0,1,3.5-13c3.36-8.27,8.16-15.62,15.35-21.17a2.74,2.74,0,0,0,.5-.83C366.27,103.89,368.11,103.65,369,102.05Z"/><path class="cls-1" d="M369,102.05c-.85,1.6-2.69,1.84-3.94,2.88-.42-3.28-.66-6.61-1.31-9.85a99.7,99.7,0,0,0-2.69-10c-1.35-4.32-2.6-8.7-4.37-12.85a116.48,116.48,0,0,0-13-22.74A3.77,3.77,0,0,0,341.74,48a26.87,26.87,0,0,0-5.59-1c-3.17-.12-6.27-.6-9.4-1-4.1-.54-8.26-.67-12.39-1-1.14-.09-2.2.28-2.27,1.42-.14,2.45-1.83,3.77-3.28,5.35a3.21,3.21,0,0,0-.85,1.88c-.06,2.75-.11,5.5.08,8.24.31,4.45.9,8.85.46,13.37-.51,5.19-.43,10.45-.64,15.67a18.3,18.3,0,0,1-.35,2.2L307,96.57,304,97c.29-2,.72-4.09.84-6.15.29-4.81.6-9.63.6-14.44,0-6.39-.3-12.79-.46-19.18-.07-3.23-.05-3.23-3.35-3.29A10.17,10.17,0,0,1,293,47.89c-1-2.58-1.29-2.76-4-2.49-2.14.21-4.3.32-6.44.54-2.31.23-4.61.5-6.91.79-2.95.37-5.89.77-8.84,1.17s-5.73.75-8.58,1.22c-1.87.31-3.72.74-5.55,1.2-3.28.82-6.55,1.7-9.82,2.56-3,.78-5.93,1.49-8.86,2.36-2.76.82-5.5,1.76-8.21,2.74-4,1.42-7.92,2.84-11.81,4.42q-5.26,2.13-10.38,4.6c-4.69,2.27-9.31,4.68-14,7a1,1,0,0,0-.33,1.81,4.77,4.77,0,0,0,1.89,1.06c3,.93,6.09,1.82,9.16,2.64,2.12.56,4.29,1,6.44,1.45l.94.93-.06,2.58L206,84.4l-2-.46-1-.5-2.91-.58L199,82.1l-5-1.16-1-.49c-1.36-.31-2.71-.66-4.09-.91a1.52,1.52,0,0,0-1.94,1.36l-1,1,0,0-1,1-1,.45-1,.55-2,.29v3.24c0,1.37-.09,2.74,0,4.09,0,.53.55,1,.85,1.53,0,.62,0,1.24.05,1.86l-.06.94-3,0a70.17,70.17,0,0,1-1-10.65,2.37,2.37,0,0,0-3.85-1.79c-6.89,4.72-13.81,9.39-20.08,14.94a13.52,13.52,0,0,1-1.85,1.18l-1-2.36a117,117,0,0,1,13.61-10.71c2.29-1.62,4.64-3.16,6.94-4.75,1.26-.87,1.53-1.65,1.1-3-.37-1.16-.76-2.32-1.27-3.87-3-.62-6.2-1.27-9.42-2-2.33-.5-4.64-1.11-7-1.61a22.18,22.18,0,0,0-3-.32,2,2,0,0,0-2.1,1.44q-2.14,6-4.21,12c-.58,1.7-1.18,3.41-1.62,5.16-.5,2-.81,4-1.17,5.78l1.73,1.42-7.08,0a5.3,5.3,0,0,0,1.36-2.89c1.65-6.21,3.15-12.46,5.39-18.51a115,115,0,0,1,6.65-14.64,121.26,121.26,0,0,1,10.49-16,133.44,133.44,0,0,1,16.09-16.92,75.82,75.82,0,0,1,7.45-5.76A115.93,115.93,0,0,1,195,15.59c4.72-2.65,9.55-5.15,14.49-7.34a93.5,93.5,0,0,1,10.48-3.39c3.2-1,6.38-2,9.63-2.73,2.8-.62,5.7-.79,8.54-1.2,1-.15,2.07-.43,3.11-.61a11.76,11.76,0,0,1,2.2-.3c6.57,0,13.15,0,19.73,0a12.8,12.8,0,0,1,2.64.5c.32.07.64.34.94.31,3.18-.29,6.19.75,9.28,1.16a52.4,52.4,0,0,1,5.77,1.22c2.05.53,4.08,1.14,6.09,1.77a62.29,62.29,0,0,1,6.75,2.29c5.36,2.43,10.71,4.9,15.92,7.64a95.72,95.72,0,0,1,10,6.26,118.54,118.54,0,0,1,19.69,17.75c2.5,2.73,4.58,5.85,6.92,8.73A100.85,100.85,0,0,1,356.35,62,73.72,73.72,0,0,1,362,74.74c.76,2.25,1.72,4.43,2.51,6.67.53,1.53.94,3.12,1.36,4.69.66,2.53,1.39,5.06,1.89,7.63C368.29,96.48,368.57,99.27,369,102.05Zm-66.08-68.3c-.66-3.26-1.51-6.22-1.81-9.25A51.15,51.15,0,0,0,299,14.83a3.31,3.31,0,0,0-1.25-1.71A12,12,0,0,0,295,11.94c-3.42-1.18-6.83-2.42-10.3-3.47-3.16-1-6.36-1.82-9.6-2.45-3-.59-6.1-.59-9.08-1.23-4.7-1-9.44-.87-14.17-.83a45.64,45.64,0,0,0-8.45.48c-3.1.59-6.27.23-9.35,1.29-2.46.85-5.27.67-7.78,1.41-5.22,1.54-10.44,3.18-15.5,5.18a106.4,106.4,0,0,0-21.07,11.51,3.81,3.81,0,0,0-1.89,2.48c-.27,1.44-.7,2.86-1.09,4.28-.56,2.06-1.29,4.08-1.7,6.17-.52,2.66-.78,5.36-1.16,8.05a1.62,1.62,0,0,1-.15.72c-1,1.42-.72,3-.81,4.6a6.82,6.82,0,0,1-.22,2.46c-.83,1.75-.65,3.58-.78,5.39s-.43,3.79-.63,5.68c-.14,1.3-.22,2.6-.34,4.06,3.1.12,4.58,2.45,6.46,4,1-.46,1.8-.82,2.6-1.24,7.22-3.72,14.46-7.41,22-10.47,5.67-2.31,11.46-4.3,17.26-6.28,5.11-1.74,10.3-3.13,15.47-4.62,3.52-1,7.2-1.49,10.81-2.21.32-.06.63-.2.95-.27,2.56-.55,5.09-1.24,7.66-1.6,3.68-.52,7.4-.79,11.1-1.18.24,0,.48-.13.72-.17,1.46-.24,2.92-.55,4.39-.68,4.1-.39,8.2-.7,12.15-1C294.23,36.91,297.39,34.07,302.88,33.75ZM183.77,29.3l-.4-.48a7.42,7.42,0,0,0-1.57.85c-12.26,10.77-22.65,23-29.55,38.09,1,.16,1.83.26,2.63.44,2.4.55,4.8,1.15,7.2,1.7,2.64.61,5.31,1.12,7.93,1.8,2,.51,2.88.29,4.31-1.27a10.24,10.24,0,0,1,1.94-1.5c.83-.56,1.62-1.07,1.75-2.23q.92-8.14,1.9-16.28c.36-3,.62-5.93,1.17-8.85C181.86,37.46,182.86,33.39,183.77,29.3ZM339.24,44.48A12.24,12.24,0,0,0,338,42.6a116.17,116.17,0,0,0-19.42-17.71,144.21,144.21,0,0,0-13.84-8.59A7.19,7.19,0,0,0,302.9,16a26.59,26.59,0,0,0,.23,3.67c.49,2.41,1.24,4.76,1.69,7.17.47,2.57.71,5.18,1,7.7,3.51,1.47,5.31,4.16,6.44,7.26,2.61.38,5.06.85,7.53,1.08,3.69.35,7.4-.15,11.11.9C333.48,44.49,336.29,44.26,339.24,44.48Z"/><path class="cls-1" d="M100.87,180.73a51.32,51.32,0,0,1-22.1,0c.1-1.43.1-3,.34-4.51.58-3.67,1.24-7.34,1.93-11,.86-4.55,1.83-9.07,2.67-13.62.48-2.61.75-5.25,1.21-7.86.53-3,1.16-6,1.73-9,.38-2,.77-4.07,1.09-6.11.43-2.7.8-5.41,1.21-8.11.13-.82.34-1.62.49-2.43s.31-1.91.49-3H80A30.8,30.8,0,0,1,83.15,97.6h32.27c-.51,2.68-.91,4.77-1.3,6.87s-.72,3.9-1,5.86c-.44,2.78-.78,5.58-1.26,8.35s-1.09,5.51-1.62,8.26c-.4,2.11-.81,4.23-1.15,6.35-.44,2.78-.77,5.57-1.25,8.35s-1.1,5.5-1.63,8.26c-.42,2.19-.82,4.39-1.17,6.59-.44,2.78-.76,5.58-1.24,8.35s-1.13,5.33-1.63,8S101.29,178.07,100.87,180.73Z"/><path class="cls-1" d="M351.11,171.76l2.89,3.16c-1.67,2.74-3.22,5.56-5,8.21a106.85,106.85,0,0,1-14.14,16.63A130.75,130.75,0,0,1,321.59,211a114,114,0,0,1-20.08,11.78c-4.33,2-8.93,3.44-13.42,5.11-5.07,1.89-10.41,2.71-15.66,3.8a66,66,0,0,1-10.87,1.17c-5.16.19-10.33.06-15.49.06-4.5,0-8.9-.93-13.31-1.63-2.53-.41-5.06-.85-7.55-1.45a62.43,62.43,0,0,1-7.38-2.16c-4.49-1.67-8.92-3.49-13.34-5.31a88.72,88.72,0,0,1-14.53-8,116.75,116.75,0,0,1-15.28-11.91A115,115,0,0,1,154.44,178c-2.71-4.43-4.93-9.16-7.41-13.74a15.21,15.21,0,0,0-1.45-1.88q.71-4.23,1.42-8.46c.28.27.69.48.82.8.93,2.35,1.64,4.81,2.73,7.08A139.84,139.84,0,0,0,157,174.22a101.73,101.73,0,0,0,9.26,13.38c3.76,4.38,7.42,8.94,12.05,12.55,3.12,2.45,5.92,5.34,9.16,7.6a93.7,93.7,0,0,0,14.34,8.68c3.87,1.77,7.68,3.68,11.58,5.38a5.27,5.27,0,0,0,4.78-.32c2.46-1.32,5-2.49,7.48-3.8,1.77-.94,3.47-2,5.71-3.35a18.5,18.5,0,0,1-2.16-1.65,9,9,0,0,1-2.56-8.45,5.23,5.23,0,0,0-1.57-5.38,137.8,137.8,0,0,1-18-22.17c-3.28-5-6.21-10.3-9.31-15.47q-1.5-2.52-3-5c.08-1.39.12-2.78.26-4.15,0-.3.44-.56.67-.84l2.29,3.74.89,1.09.12.91.89,1.09.11.91c.3.36.59.72.89,1.07l.13.93.88,1,1,2,.94,1.14.1.86.92,1.09,1,1.91.95,1.14.11.86.92,1.07,1.08,1.93c.3.36.61.71.92,1.07.36.64.72,1.29,1.09,1.93l.93,1h0l1,1.1c.36.63.71,1.26,1.07,1.88l1,1h0c.33.36.65.73,1,1.1.36.62.72,1.25,1.09,1.87l1,1v0l1,1v0l1,1.12,2.07,2.85,1,1h0l1,1v0l1,1,0,0,1,1,0,0,1,1.11a.64.64,0,0,0,0,.36l.51.52c1.39,1.32,1.39,1.32,3.5,0l1.15-1,1.85-.11c.86,0,1.77.22,2.17-.88h1.14c.27.86.92,1,1.68.87l1.83.12,1.18,1,3,3,1,1.15.06.85c.14.59.27,1.17.41,1.76.38-.22.76-.44,1.13-.67l1.46-1.07,1.07-1c.65-.48,1.33-.93,1.95-1.44,1-.84,2-1.73,3-2.59l1-1h0l1-1h0l1-1h0l1.06-1,2-2c.33-.35.67-.7,1-1h0l1-1h0l1-1h0l1-1c.8-.92,1.61-1.84,2.4-2.78S269.1,182,270,181l1-1.06L276,173l.81-.06c.63.59,1.27,1.17,1.91,1.75-1.46,2.09-2.78,4.31-4.42,6.25-3,3.55-6.1,7-9.24,10.39a112.25,112.25,0,0,1-17.37,15.58,5.72,5.72,0,0,0-1.66,1.77c-.69,1.21-1.18,2.52-1.86,4,.57.5,1.2,1.13,1.91,1.66,2.23,1.69,4.46,3.38,6.74,5,3.48,2.49,7,5,10.52,7.36A9.49,9.49,0,0,0,267,228c3.36.53,6.55-.78,9.8-1.3A62.52,62.52,0,0,0,286,224a104.68,104.68,0,0,0,10.86-3.76c4.92-2.22,9.71-4.77,14.44-7.38a77.42,77.42,0,0,0,13.7-9.66c7.49-6.57,14.55-13.58,20.17-21.91a2.63,2.63,0,0,0,.17-3.34,135.12,135.12,0,0,0-13.7-18.61c-4.38-4.89-9.07-9.49-13.69-14.16-.47-.48-.48-.71-.21-1.16a3.84,3.84,0,0,1,3.06-1,3.36,3.36,0,0,0,.46.86,153.21,153.21,0,0,1,16.68,18.59c3.05,4.05,6,8.19,8.92,12.34,1,1.41,1.51,1.58,2.49.2A32.23,32.23,0,0,0,351.11,171.76Zm-90.66,57.1.14-.44c-.66-.47-1.32-.94-2-1.42-4.83-3.48-9.79-6.79-14.42-10.52-2-1.61-3.67-1.91-5.86-1a4.38,4.38,0,0,1-1.92.39c-1.72-.16-3,.73-4.37,1.51-.65.37-1.24.82-1.89,1.18-2.75,1.48-5.53,2.93-8.27,4.44a1.79,1.79,0,0,0-.81,1c-.05.22.41.74.71.82,2.77.74,5.52,1.54,8.33,2.06s5.88.77,8.82,1.15a2.15,2.15,0,0,1,.73.13c1.78,1,3.71.77,5.61.79,4.33,0,8.65,0,13,0C259,229,259.71,228.9,260.45,228.86Z"/><path class="cls-1" d="M381,223.12c-.4,2.44-.78,4.8-1.2,7.15a40.19,40.19,0,0,1-1,4.35,1.84,1.84,0,0,1-1.21,1,19.26,19.26,0,0,1-6.62-.18,17.65,17.65,0,0,1,0-2.31c.38-2.46.82-4.91,1.26-7.36q.83-4.65,1.7-9.29c.54-2.94,1.14-5.86,1.66-8.8.48-2.69.85-5.4,1.33-8.1.21-1.19.56-2.35.86-3.6,4.55,0,8.8-.23,13,.07a11,11,0,0,1,9.32,7.59c2.12,7.22-2.84,16.37-10.2,18.39a27,27,0,0,1-7.12.92C382.26,223,381.69,223.07,381,223.12Zm1.19-7.39c4.45,1.14,7.57,0,9.24-4a13.13,13.13,0,0,0,.49-5.11,5.12,5.12,0,0,0-1-2.43c-1-1.49-2.72-1.46-4.23-1.73s-2.43.5-2.68,2.18c-.19,1.22-.29,2.46-.48,3.69s-.44,2.43-.67,3.64Z"/><path class="cls-1" d="M117.69,83.72a89.66,89.66,0,0,1-22.74,0,38.13,38.13,0,0,1,.41-11c.78-3.53,1.74-7,2.62-10.5a53.59,53.59,0,0,1,23.84,0A60.05,60.05,0,0,1,117.69,83.72Z"/><path class="cls-1" d="M467.7,232.16a39.77,39.77,0,0,1-5.76,3.34,8.49,8.49,0,0,1-7-.28,4.84,4.84,0,0,1-2.88-4,36.88,36.88,0,0,1,.28-7.2c.31-2.46,1-4.86,1.45-7.31s.78-5.07,1.17-7.61c.26-1.68.53-2,2.22-2.05s3.62,0,5.79,0c-.13,1.78-.12,3.25-.35,4.69-.56,3.51-1.21,7-1.86,10.48-.23,1.22-.61,2.41-.8,3.63s-.08,2.68,1.34,3.13a3.65,3.65,0,0,0,3.95-.67,13.53,13.53,0,0,0,3.63-7.12c.82-4,1.46-8,2.23-12a11.26,11.26,0,0,1,.9-2.09h6.6a11.61,11.61,0,0,1,0,5.71c-.44,2.52-1.23,5-1.59,7.5-.6,4.18-1,8.39-1.44,12.59-.24,2.47-.54,2.88-3,3-.58,0-1.16,0-1.75,0-2.4-.11-2.64-.34-2.93-2.71A7.13,7.13,0,0,0,467.7,232.16Z"/><path class="cls-1" d="M422.5,228.29c2,1.25,1.39,3.39,1.64,5.19.05.4-.89,1.17-1.51,1.39a24,24,0,0,1-11.32,1c-5.21-.72-8.41-3.66-9.21-8.92-1.06-6.89,2.43-15,8.87-18.55a13.91,13.91,0,0,1,11-1.22c5.06,1.58,6.31,7.06,3.3,11.28a12.27,12.27,0,0,1-6.68,4.45c-2.75.86-5.61,1.4-8.56,2.11-.39,1.85.74,3,2,3.84a5.91,5.91,0,0,0,4.52,1C418.5,229.42,420.39,228.86,422.5,228.29Zm-12.66-9.24a11.85,11.85,0,0,0,5.44-.42,10.21,10.21,0,0,0,2.94-1.66,3.31,3.31,0,0,0,.61-3.61c-.5-.82-2-1.06-3.26-.74a6.12,6.12,0,0,0-3.53,2.49A40.21,40.21,0,0,0,409.84,219.05Z"/><path class="cls-1" d="M441.3,210.84c2.44-2.57,5.08-4.75,9.09-3.56,1.15,2.27-.36,4.24-.82,6.56-.91.06-1.8.14-2.69.18a6,6,0,0,0-5.29,3.07,14,14,0,0,0-1.81,4.8c-.43,2.69-1.15,5.33-1.68,8-.2,1.06-.2,2.15-.36,3.22-.29,1.93-1,2.63-2.91,2.71-1.24.06-2.49,0-3.74,0s-1.73-.61-1.53-1.75c.67-3.75,1.5-7.47,2.07-11.24.65-4.35,1.14-8.72,1.59-13.1.28-2.68.18-2.69,2.95-2.73.33,0,.67,0,1,0,3.38,0,3.66,0,3.78,3.34C441,210.46,441.11,210.58,441.3,210.84Z"/><path class="cls-1" d="M37.51,45.43c-1.1.86-1.1.86-2.48.46-.26-1.22-.55-2.43-.77-3.65A1.52,1.52,0,0,0,32.5,40.9c-1.42,0-2.83,0-4.24,0A2.21,2.21,0,0,0,26,42.43c-.34.83-.68,1.66-1,2.48-.66,1.51-.94,1.59-3,.77,2.95-6.59,5.93-13.17,8.83-19.79A2,2,0,0,1,33,24.62a1.94,1.94,0,0,1,1.87,1.95c.29,3.21.69,6.41,1.15,9.6S37,42.34,37.51,45.43Zm-5-17.17A41.41,41.41,0,0,0,27.9,38.61h5.81C34.15,34.94,32.48,31.72,32.49,28.26Z"/><path class="cls-1" d="M99.85,44.86a5.78,5.78,0,0,1-5.38,1.64c-2.12-.43-3.32-2-3.2-4.69.19-4.09,1.26-7.84,5.26-10,2.73-1.51,5.45-2.19,8.71-.4-.37,2-.8,4.11-1.12,6.2-.44,2.77-.79,5.55-1.18,8.33l-2,.12L100.74,45l-.24-.81ZM93.92,40.7a14.53,14.53,0,0,0,0,2c.26,1.86,1.76,2.65,3.37,1.66a10.8,10.8,0,0,0,2.63-2.42c1.88-2.33,1.89-5.36,2.77-8.06a1.05,1.05,0,0,0-1.26-1.38,10.66,10.66,0,0,0-4,1.12A7.49,7.49,0,0,0,93.92,40.7Z"/><path class="cls-1" d="M59.11,46.67c-4-.21-5.73-1.48-5.89-5.87A11,11,0,0,1,56.05,33c2-2.25,5.22-3.26,7.53-2.38,2.71,1,4.27,3.07,3.92,5.89-.33,2.58-.85,5.2-2.67,7.31A7.89,7.89,0,0,1,59.11,46.67Zm-3.27-6.81c0,.67,0,1.09,0,1.5.15,2.87,2.33,4,5,2.85,3.47-1.55,4.65-6.32,3.9-9.53a2.48,2.48,0,0,0-2.09-1.88,4.66,4.66,0,0,0-4.69,1.46A7.66,7.66,0,0,0,55.84,39.86Z"/><path class="cls-1" d="M129.26,40.84c.48-3.57,1.26-7,4.57-9.16,2.3-1.51,4.69-2,7.19-.54a5.37,5.37,0,0,1,2.55,5.08c-.16,3.6-1.15,7-4.46,9.17a7,7,0,0,1-7.53.42C129.7,44.82,129.51,42.76,129.26,40.84ZM141,36.4c.22-3-1.22-3.58-3.14-3.78a4.08,4.08,0,0,0-3.36,1.19c-2.31,2.2-2.85,4.92-2.58,7.92a3.3,3.3,0,0,0,4.9,2.62C139.78,42.81,140.9,40.21,141,36.4Z"/><path class="cls-1" d="M51,31.35,50.74,33H44.4c-.83,2.67-.65,3.06,1.53,4,.53.23,1,.55,1.52.81,2.32,1.18,2.76,2,2.47,4.74a4.4,4.4,0,0,1-3.25,3.57c-2.53.74-5,1-7.54-.44.09-1.27.67-1.73,1.92-1.63,1.4.11,2.8.1,4.21.09a1.93,1.93,0,0,0,2-1.8,2.09,2.09,0,0,0-1.19-2.48l-2-.94c-1.93-.9-3.07-2.49-3-4.16.11-1.84,1.4-3,3.51-4S48.75,30.21,51,31.35Z"/><path class="cls-1" d="M82.34,31.06,81.7,33c-.89-.09-1.7-.21-2.52-.25A5.92,5.92,0,0,0,72.85,38a17.49,17.49,0,0,0-.1,3.47,2.56,2.56,0,0,0,2.61,2.76,9.26,9.26,0,0,0,3-.07c1.21-.23,1.66.36,2,1.43-2.65,1.74-5.42,1.24-8.06.19A4.26,4.26,0,0,1,70,42.41c-.83-5.24,1.87-11.14,8.43-12.14C79.59,30.09,80.9,30.75,82.34,31.06Z"/><path class="cls-1" d="M119.79,31.89c-.17.33-.3.9-.51.93a10.12,10.12,0,0,1-2-.07A5.78,5.78,0,0,0,110.76,38,21.59,21.59,0,0,0,110.7,42a2.23,2.23,0,0,0,2.24,2.23,18.36,18.36,0,0,0,2.22.13c.74,0,1.47-.14,2.36-.23l.49,1.65a8.34,8.34,0,0,1-7.77.06A4.69,4.69,0,0,1,108,42.74c-.81-4.19.21-8.52,4.32-11a12.89,12.89,0,0,1,4.39-1.44c.67-.12,1.47.47,2.21.73l-4.33.65v.25Z"/><path class="cls-1" d="M463.83,202.68c1.5-1.87,2.86-3.6,4.27-5.29a3.4,3.4,0,0,1,3-1.38c2.28.11,4.57.06,7.43.08-.85,1-1.25,1.53-1.75,2-1.45,1.31-2.93,2.58-4.41,3.86A8,8,0,0,1,463.83,202.68Z"/><path class="cls-1" d="M152.68,32a4.23,4.23,0,0,1,4.52-1.56,3.71,3.71,0,0,1,2.7,3.93c-.12,2-.53,3.9-.79,5.85-.13,1.07-.17,2.16-.31,3.22a3.92,3.92,0,0,1-.45,1.9,5.46,5.46,0,0,1-1.8,1c-.2-.56-.63-1.16-.55-1.69.36-2.62.82-5.23,1.32-7.84.63-3.27.05-4-3.37-4C153.89,32.06,153.37,31.89,152.68,32Z"/><path class="cls-1" d="M126.89,30.92c-.5,3.23-.91,5.92-1.35,8.6-.21,1.3-.46,2.6-.72,3.89a5.82,5.82,0,0,1-.58,2.1,2.11,2.11,0,0,1-1.66.78c-.84-.11-.73-.95-.61-1.63.48-2.61,1-5.22,1.45-7.83.29-1.5,1.1-3-.68-4.26-.65-.45-.19-1.53.68-1.63C124.46,30.83,125.52,30.92,126.89,30.92Z"/><path class="cls-1" d="M84,45.66c.43-2.51.78-5,1.3-7.55.42-2,1.18-4-.43-5.82-.19-.23,0-.77,0-1.24h3.92a11.82,11.82,0,0,1,0,2.08c-.5,2.66-1.11,5.31-1.61,8-.21,1.14-.2,2.32-.36,3.47C86.55,46.31,85.88,46.57,84,45.66Z"/><path class="cls-1" d="M148.94,41.89l-.18,2.52-1.6,1.46c-.12-.93-.2-1.54-.27-2.15s.06-1.2.1-1.81c.31-.4.85-.78.91-1.22a20.76,20.76,0,0,0,0-2.95c.05-.61.09-1.22.13-1.83,1.19-.26.84-1.23.94-2s-.31-1.62.57-2.25c.75,2.08.75,2.08,2.62,2.35-.14.3-.27.61-.4.91l-.81,1c-.37,1-.75,2-1.13,3C148.36,39.57,149.15,40.87,148.94,41.89Z"/><path class="cls-1" d="M141.38,24.69c-.93,2.71-2.65,4.19-4.61,4C137.07,25.64,138.81,24.13,141.38,24.69Z"/><path class="cls-1" d="M307,96.57a48.12,48.12,0,0,1,16.36-.37c6.57,1,12.33,3.89,15.88,10a18.41,18.41,0,0,1,2.65,8.64,25.51,25.51,0,0,1-1.7,10.92,26.77,26.77,0,0,1-10.52,12.19c-2.58,1.69-5.48,2.89-8.22,4.33-.27.14-.44.48-.66.73a3.84,3.84,0,0,0-3.06,1c-3.1.74-6.2,1.52-9.32,2.21-2.82.62-5.66,1.18-8.5,1.69-2.68.49-5.37.87-8.27,1.33a18.39,18.39,0,0,0,1,5.83c2.14,5.58,6.12,8.27,11.92,9.07,3.37.46,6.63,0,10-.1,3.68-.14,7-1.6,10.49-2.58,1.84-.52,3.46-2,5.58-1.42.45.76.9,1.45,1.29,2.17,2.2,4.14,2.11,8.77,2.77,13.24a2.09,2.09,0,0,1-1.68,2.37c-2.41.82-4.86,1.53-7.32,2.19a47.76,47.76,0,0,1-5.31,1.14c-3.93.61-7.86,1.29-11.81,1.63a52.36,52.36,0,0,1-12.17-.73,44.18,44.18,0,0,1-9.48-2.65,39.84,39.84,0,0,1-8.16-4.76c-.64-.58-1.28-1.16-1.91-1.75l-1.86-2-1-1.5c0-.7-.1-1.36-1-1.5-.11-.35-.23-.7-.34-1-.62-1-.39-2.34-1.58-3-.09-.48-.18-1-.28-1.46.05-.64.24-1.34-.69-1.55-.1-.82-.21-1.63-.32-2.45a2.51,2.51,0,0,0-.75-2.52v-15a3.36,3.36,0,0,0,.76-3l.27-2.47c.91-.44.83-1.23.74-2l.21-1.49c.89-.42.91-1.19.82-2l.18-1c1-.37.9-1.2.86-2l.3-.9c.84,0,.68-.59.64-1.1l.26-1,.72-1,.27-1c.25-.35.49-.7.74-1l.32-.93c.81,0,.78-.52.75-1.07.07-.23.14-.45.22-.67a3,3,0,0,0,1.7-2.25c.43-.67.86-1.35,1.3-2,.88-.9,1.82-1.75,2.65-2.7a44.52,44.52,0,0,1,17.41-12.43c1.33-.53,2.6-1.21,3.89-1.82Zm-3.14,18.8c-2.18.86-3.56,2.65-5,4.37-3.39,4.07-5.32,8.86-6.75,13.89,3,.59,13.37-1.48,19.35-3.84a17.12,17.12,0,0,0,2-.89c5.49-3.26,7-6.05,6.47-11-.21-1.92-2.13-4.5-3.94-4.88C311.66,112.15,307.5,112.44,303.86,115.37Z"/><path class="cls-1" d="M225.79,136.91l.1-1.51a4.42,4.42,0,0,0,.86-3.49l.12-2a5.87,5.87,0,0,0,.89-4c.05-.67.09-1.34.13-2a5.38,5.38,0,0,0,.89-4l.14-2a4.1,4.1,0,0,0,.84-3.5l.14-2a4.34,4.34,0,0,0,.85-3.49c0-.67.08-1.34.13-2a5.74,5.74,0,0,0,.88-4c.05-.67.09-1.34.14-2a5.28,5.28,0,0,0,.88-4l.14-2,.19-1c1.12-.76.65-1.91.7-2.93.26-1.9,1.54-3.66.81-5.83H210l-2.27-.65.06-2.58,0-1c0-1.17.09-2.34.14-3.51a4.45,4.45,0,0,0,.84-3.49l.18-2c.27-.67.53-1.34.79-2,.06-.5.11-1,.17-1.5a2.57,2.57,0,0,0,.91-2.49c.61-1.36,1.85-.87,2.84-.87q36.6,0,73.22,0c.72,0,1.45.09,2.1.14,1,3.87-1.16,16.09-3.55,19.92H258.82c-.31,1.36-.63,2.62-.9,3.9s-.5,2.42-.69,3.65c-.43,2.77-.82,5.54-1.23,8.31-.08,1-.17,2-.25,2.92-1.31.75-.65,2-.77,3-.06.87-.11,1.74-.17,2.61-1.16.71-.81,1.85-.82,2.89l-.21,3.07c-1.18.73-.79,1.89-.8,2.93-.06.86-.13,1.72-.19,2.59-1.18.72-.77,1.87-.8,2.91l-.15,2.64c-1.27.87-.8,2.18-.86,3.36l-.18,2.6c-1.16.71-.81,1.86-.81,2.9s-.15,2-.22,3.07c-1.19.72-.78,1.88-.8,2.93,0,.72-.07,1.45-.11,2.17-1.22.87-.83,2.15-.87,3.33l-.15,2.63c-1.28.87-.8,2.19-.87,3.37-.05.86-.11,1.73-.17,2.59-1.17.72-.81,1.87-.81,2.91l-.18,2.61c-1.17.71-.78,1.86-.81,2.89s-.09,1.77-.14,2.66c-1.25.86-.81,2.17-.87,3.34-.06.87-.11,1.75-.16,2.62-1.28.88-.78,2.2-.86,3.38,0,.58-.07,1.16-.11,1.74-1.13.83-.77,2.12-1,3.22l-.9.22-7,.88-9,0-6.2-1.35v-2.7l.16-2.51a4.19,4.19,0,0,0,.85-3.49c.05-.67.09-1.34.13-2a5.53,5.53,0,0,0,.89-4l.14-2c1-1.17,1-2.57.87-4,.05-.67.11-1.33.16-2a3.19,3.19,0,0,0,.8-3c.06-.84.11-1.67.17-2.51a4.18,4.18,0,0,0,.85-3.49c0-.67.08-1.34.13-2a5.48,5.48,0,0,0,.88-4l.14-2C226,139.74,225.9,138.33,225.79,136.91Z"/></g></g></svg>