<svg width="1329" height="794" viewBox="0 0 1329 794" fill="none" xmlns="http://www.w3.org/2000/svg">
<path fill-rule="evenodd" clip-rule="evenodd" d="M3.85292e-05 72L55.6667 84C111.333 96 222.667 120 334 102C372.967 95.7 411.933 84.255 450.9 72.81C523.267 51.555 595.633 30.3 668 42C719.69 50.3571 771.381 75.5281 823.071 100.699C882.714 129.742 942.357 158.786 1002 162C1113.33 168 1224.67 84 1280.33 42L1336 0V261V288V506V527V794L1280.33 752C1224.67 710 1113.33 626 1002 632C942.357 635.214 882.714 664.258 823.071 693.301C771.381 718.472 719.69 743.643 668 752C595.633 763.7 523.267 742.445 450.9 721.19C411.933 709.745 372.967 698.3 334 692C222.667 674 111.333 698 55.6667 710L1.88833e-05 722L0 506L3.85292e-05 288V261V72Z" fill="#FFFDED"/>
</svg>
