<svg width="1336" height="570" viewBox="0 0 1336 570" fill="none" xmlns="http://www.w3.org/2000/svg">
<path d="M835.523 163.131C839.384 163.131 839.39 157.131 835.523 157.131C831.662 157.131 831.656 163.131 835.523 163.131ZM929.123 95.4511C932.984 95.4511 932.99 89.4511 929.123 89.4511C925.262 89.4511 925.256 95.4511 929.123 95.4511ZM854.243 91.1311C858.104 91.1311 858.11 85.1311 854.243 85.1311C850.382 85.1311 850.376 91.1311 854.243 91.1311ZM1042.88 22.0111C1046.74 22.0111 1046.75 16.0111 1042.88 16.0111C1039.02 16.0111 1039.02 22.0111 1042.88 22.0111ZM804.685 287.714C808.545 287.714 808.552 281.714 804.685 281.714C800.824 281.714 800.817 287.714 804.685 287.714ZM1182.56 56.5711C1186.42 56.5711 1186.43 50.5711 1182.56 50.5711C1178.7 50.5711 1178.7 56.5711 1182.56 56.5711ZM1064.93 146.614C1068.79 146.614 1068.8 140.614 1064.93 140.614C1061.07 140.614 1061.07 146.614 1064.93 146.614ZM1117.76 43.6111C1121.62 43.6111 1121.63 37.6111 1117.76 37.6111C1113.9 37.6111 1113.9 43.6111 1117.76 43.6111ZM1113.84 192.882C1117.7 192.882 1117.71 186.882 1113.84 186.882C1109.98 186.882 1109.98 192.882 1113.84 192.882ZM880.1 192.882C883.96 192.882 883.967 186.882 880.1 186.882C876.239 186.882 876.233 192.882 880.1 192.882ZM965.597 294.538C969.457 294.538 969.464 288.538 965.597 288.538C961.736 288.538 961.73 294.538 965.597 294.538ZM1150.77 126.233C1154.63 126.233 1154.64 120.233 1150.77 120.233C1146.91 120.233 1146.9 126.233 1150.77 126.233ZM1004.56 241.094C1008.42 241.094 1008.43 235.094 1004.56 235.094C1000.7 235.094 1000.7 241.094 1004.56 241.094Z" fill="#E6E9E7"/>
<path d="M155.807 191.774C159.667 191.774 159.674 185.774 155.807 185.774C151.946 185.774 151.94 191.774 155.807 191.774ZM249.407 124.094C253.267 124.094 253.274 118.094 249.407 118.094C245.546 118.094 245.54 124.094 249.407 124.094ZM174.527 119.774C178.387 119.774 178.394 113.774 174.527 113.774C170.666 113.774 170.66 119.774 174.527 119.774ZM363.167 50.6538C367.027 50.6538 367.034 44.6538 363.167 44.6538C359.306 44.6538 359.3 50.6538 363.167 50.6538ZM124.968 316.356C128.829 316.356 128.835 310.356 124.968 310.356C121.108 310.356 121.101 316.356 124.968 316.356ZM502.847 85.2138C506.708 85.2138 506.714 79.2138 502.847 79.2138C498.986 79.2138 498.98 85.2138 502.847 85.2138ZM385.217 175.257C389.078 175.257 389.084 169.257 385.217 169.257C381.356 169.257 381.35 175.257 385.217 175.257ZM438.047 72.2538C441.907 72.2538 441.914 66.2538 438.047 66.2538C434.186 66.2538 434.18 72.2538 438.047 72.2538ZM434.127 221.524C437.988 221.524 437.994 215.524 434.127 215.524C430.266 215.524 430.26 221.524 434.127 221.524ZM200.383 221.524C204.244 221.524 204.251 215.524 200.383 215.524C196.523 215.524 196.516 221.524 200.383 221.524ZM285.881 323.181C289.741 323.181 289.748 317.181 285.881 317.181C282.02 317.181 282.013 323.181 285.881 323.181ZM471.055 154.876C474.916 154.876 474.922 148.876 471.055 148.876C467.194 148.876 467.188 154.876 471.055 154.876ZM324.847 269.737C328.708 269.737 328.714 263.737 324.847 263.737C320.986 263.737 320.98 269.737 324.847 269.737Z" fill="#E6E9E7"/>
<path fill-rule="evenodd" clip-rule="evenodd" d="M509.073 158.369C502.201 158.369 495.61 155.639 490.751 150.779C485.892 145.92 483.162 139.33 483.162 132.457C483.162 125.585 485.892 118.995 490.751 114.135C495.61 109.276 502.201 106.546 509.073 106.546C513.629 106.64 518.086 107.888 522.028 110.174V109.137C522.056 104.871 523.246 100.693 525.47 97.052C527.695 93.4112 530.869 90.4455 534.653 88.4738C538.437 86.5021 542.686 85.5989 546.944 85.8613C551.203 86.1237 555.309 87.5418 558.822 89.9632C562.496 84.3775 567.873 80.1262 574.156 77.8413C580.439 75.5564 587.291 75.3599 593.694 77.2809C600.098 79.2019 605.71 83.1379 609.698 88.5039C613.685 93.8698 615.835 100.379 615.827 107.065V107.583C628.264 109.137 637.592 120.02 637.592 132.976C637.514 139.734 634.829 146.202 630.098 151.03C625.367 155.857 618.955 158.672 612.199 158.887H508.555L509.073 158.369ZM1043.72 260.482H938.33C931.461 260.264 924.941 257.402 920.13 252.493C915.32 247.584 912.59 241.008 912.51 234.135C912.51 220.962 921.995 209.896 934.642 208.315V207.788C934.634 200.99 936.819 194.372 940.874 188.915C944.928 183.459 950.635 179.457 957.147 177.503C963.658 175.55 970.625 175.75 977.014 178.073C983.402 180.397 988.87 184.719 992.605 190.399C996.177 187.937 1000.35 186.495 1004.68 186.228C1009.01 185.961 1013.33 186.88 1017.18 188.885C1021.03 190.89 1024.26 193.905 1026.52 197.607C1028.78 201.309 1029.99 205.558 1030.02 209.896V210.95C1034.03 208.625 1038.56 207.356 1043.19 207.261C1050.18 207.261 1056.88 210.037 1061.82 214.978C1066.76 219.919 1069.54 226.621 1069.54 233.608C1069.54 240.596 1066.76 247.298 1061.82 252.239C1056.88 257.18 1050.18 259.955 1043.19 259.955L1043.72 260.482ZM776.485 49.9896C772.362 49.9896 768.408 48.3517 765.492 45.4361C762.577 42.5206 760.939 38.5662 760.939 34.4429C760.939 30.3197 762.577 26.3654 765.492 23.4498C768.408 20.5342 772.362 18.8963 776.485 18.8963C779.219 18.9523 781.894 19.7012 784.259 21.0728V20.4509C784.275 17.8911 784.989 15.3842 786.324 13.1997C787.659 11.0152 789.563 9.23584 791.834 8.05281C794.104 6.86977 796.653 6.32785 799.208 6.48529C801.763 6.64274 804.227 7.4936 806.335 8.9464C808.539 5.59498 811.766 3.04422 815.535 1.67328C819.305 0.302338 823.416 0.184397 827.258 1.337C831.1 2.48961 834.468 4.85122 836.86 8.07079C839.253 11.2904 840.543 15.196 840.538 19.2072V19.5181C844.197 20.0302 847.544 21.861 849.948 24.6665C852.353 27.472 853.651 31.0592 853.597 34.7539C853.55 38.8092 851.939 42.6897 849.101 45.5863C846.262 48.4828 842.415 50.1716 838.361 50.3006H776.174L776.485 49.9896Z" fill="#F3FAF7" fill-opacity="0.7"/>
<path fill-rule="evenodd" clip-rule="evenodd" d="M82.2218 255.576C75.3497 255.576 68.7591 252.847 63.8998 247.987C59.0405 243.128 56.3106 236.537 56.3106 229.665C56.3106 222.793 59.0405 216.203 63.8998 211.343C68.7591 206.484 75.3497 203.754 82.2218 203.754C86.7777 203.848 91.2354 205.096 95.1773 207.382V206.345C95.205 202.079 96.3951 197.901 98.6194 194.26C100.844 190.619 104.018 187.653 107.802 185.682C111.586 183.71 115.835 182.807 120.093 183.069C124.352 183.332 128.458 184.75 131.971 187.171C135.645 181.585 141.022 177.334 147.305 175.049C153.588 172.764 160.44 172.568 166.843 174.489C173.247 176.41 178.859 180.346 182.847 185.712C186.834 191.078 188.984 197.587 188.976 204.272V204.791C201.413 206.345 210.741 217.228 210.741 230.184C210.663 236.942 207.978 243.41 203.247 248.237C198.516 253.065 192.104 255.88 185.348 256.095H81.7035L82.2218 255.576ZM616.868 357.69H511.479C504.61 357.472 498.09 354.61 493.279 349.701C488.469 344.792 485.739 338.216 485.659 331.343C485.659 318.17 495.144 307.104 507.791 305.523V304.996C507.783 298.198 509.968 291.579 514.023 286.123C518.077 280.667 523.784 276.665 530.296 274.711C536.807 272.758 543.774 272.958 550.163 275.281C556.551 277.605 562.019 281.927 565.754 287.607C569.326 285.145 573.502 283.703 577.832 283.436C582.162 283.169 586.483 284.088 590.33 286.093C594.177 288.098 597.405 291.113 599.667 294.815C601.929 298.517 603.139 302.766 603.167 307.104V308.158C607.176 305.833 611.708 304.564 616.341 304.469C623.329 304.469 630.03 307.245 634.971 312.186C639.912 317.127 642.688 323.829 642.688 330.816C642.688 337.804 639.912 344.505 634.971 349.446C630.03 354.388 623.329 357.163 616.341 357.163L616.868 357.69ZM349.634 147.198C345.511 147.198 341.557 145.56 338.641 142.644C335.726 139.728 334.088 135.774 334.088 131.651C334.088 127.528 335.726 123.573 338.641 120.658C341.557 117.742 345.511 116.104 349.634 116.104C352.368 116.16 355.043 116.909 357.408 118.281V117.659C357.424 115.099 358.138 112.592 359.473 110.408C360.808 108.223 362.712 106.444 364.983 105.261C367.253 104.078 369.802 103.536 372.357 103.693C374.912 103.851 377.376 104.701 379.484 106.154C381.688 102.803 384.915 100.252 388.684 98.8812C392.454 97.5102 396.565 97.3923 400.407 98.5449C404.249 99.6975 407.617 102.059 410.009 105.279C412.402 108.498 413.692 112.404 413.687 116.415V116.726C417.346 117.238 420.693 119.069 423.097 121.874C425.502 124.68 426.8 128.267 426.746 131.962C426.699 136.017 425.088 139.898 422.25 142.794C419.411 145.691 415.564 147.38 411.51 147.508H349.323L349.634 147.198Z" fill="#F3FAF7"/>
<path d="M1402.23 385.741C1402.25 393.544 1400.72 401.273 1397.75 408.485C1394.77 415.697 1390.39 422.25 1384.88 427.767C1379.36 433.285 1372.81 437.658 1365.59 440.636C1358.38 443.615 1350.65 445.139 1342.85 445.123H991.78C983.824 445.382 975.896 444.038 968.469 441.172C961.042 438.306 954.268 433.976 948.548 428.439C942.828 422.903 938.279 416.272 935.173 408.943C932.067 401.613 930.466 393.733 930.466 385.772C930.466 377.812 932.067 369.932 935.173 362.602C938.279 355.273 942.828 348.642 948.548 343.105C954.268 337.569 961.042 333.238 968.469 330.372C975.896 327.506 983.824 326.163 991.78 326.422H1070.6C1070.22 323.755 1070.03 321.064 1070.03 318.37C1070.02 310.573 1071.54 302.849 1074.51 295.641C1077.49 288.433 1081.86 281.883 1087.37 276.366C1092.88 270.85 1099.42 266.475 1106.63 263.493C1113.83 260.511 1121.56 258.98 1129.35 258.988V248.169C1129.35 232.603 1135.54 217.675 1146.54 206.669C1157.55 195.662 1172.48 189.479 1188.04 189.479H1224.21C1230.85 189.479 1237.42 190.791 1243.54 193.34C1249.67 195.888 1255.23 199.623 1259.91 204.329C1264.59 209.036 1268.29 214.621 1270.8 220.762C1273.31 226.904 1274.58 233.482 1274.54 240.117V258.988H1287.75C1296.24 258.998 1304.63 260.826 1312.36 264.351C1320.08 267.875 1326.96 273.014 1332.53 279.422C1338.11 285.829 1342.24 293.356 1344.66 301.496C1347.08 309.636 1347.73 318.2 1346.56 326.611C1361.63 327.524 1375.77 334.151 1386.12 345.139C1396.46 356.127 1402.23 370.649 1402.23 385.741Z" fill="#F3FAF7"/>
<path d="M337.392 394.419C337.409 402.222 335.884 409.951 332.906 417.163C329.928 424.375 325.554 430.928 320.037 436.446C314.519 441.963 307.967 446.336 300.755 449.315C293.543 452.293 285.813 453.818 278.01 453.801H-73.0594C-81.0159 454.06 -88.9434 452.717 -96.3704 449.851C-103.797 446.985 -110.572 442.655 -116.292 437.118C-122.012 431.581 -126.561 424.951 -129.667 417.621C-132.773 410.291 -134.374 402.412 -134.374 394.451C-134.374 386.49 -132.773 378.611 -129.667 371.281C-126.561 363.951 -122.012 357.321 -116.292 351.784C-110.572 346.247 -103.797 341.917 -96.3704 339.051C-88.9434 336.185 -81.0159 334.841 -73.0594 335.101H5.75993C5.38137 332.433 5.1922 329.743 5.19382 327.049C5.17726 319.251 6.69987 311.527 9.67428 304.319C12.6487 297.111 17.0165 290.561 22.5272 285.045C28.0379 279.528 34.5833 275.153 41.788 272.171C48.9928 269.189 56.7153 267.659 64.5128 267.667V256.847C64.5128 241.282 70.6961 226.354 81.7026 215.347C92.7091 204.341 107.637 198.157 123.203 198.157H159.373C166.008 198.157 172.578 199.469 178.704 202.018C184.83 204.567 190.391 208.302 195.068 213.008C199.746 217.714 203.446 223.299 205.956 229.441C208.467 235.583 209.738 242.161 209.696 248.796V267.667H222.906C231.398 267.676 239.789 269.504 247.515 273.029C255.241 276.554 262.122 281.693 267.695 288.1C273.268 294.507 277.404 302.034 279.823 310.174C282.243 318.314 282.89 326.878 281.722 335.289C296.786 336.202 310.935 342.829 321.28 353.818C331.625 364.806 337.388 379.327 337.392 394.419Z" fill="#F3FAF7"/>
<path d="M672.857 420.083C672.841 427.885 674.365 435.615 677.344 442.827C680.322 450.039 684.695 456.591 690.213 462.109C695.73 467.626 702.283 472 709.495 474.978C716.707 477.956 724.436 479.481 732.239 479.464H1083.31C1091.27 479.723 1099.19 478.38 1106.62 475.514C1114.05 472.648 1120.82 468.318 1126.54 462.781C1132.26 457.244 1136.81 450.614 1139.92 443.284C1143.02 435.954 1144.62 428.075 1144.62 420.114C1144.62 412.153 1143.02 404.274 1139.92 396.944C1136.81 389.614 1132.26 382.984 1126.54 377.447C1120.82 371.91 1114.05 367.58 1106.62 364.714C1099.19 361.848 1091.27 360.505 1083.31 360.764H1004.49C1004.87 358.097 1005.06 355.406 1005.06 352.712C1005.07 344.914 1003.55 337.19 1000.58 329.982C997.601 322.775 993.233 316.225 987.722 310.708C982.212 305.191 975.666 300.817 968.461 297.835C961.257 294.853 953.534 293.322 945.737 293.33V282.511C945.737 266.945 939.553 252.017 928.547 241.011C917.54 230.004 902.612 223.821 887.047 223.821H850.877C844.242 223.821 837.672 225.133 831.546 227.681C825.42 230.23 819.858 233.965 815.181 238.671C810.504 243.377 806.804 248.962 804.293 255.104C801.783 261.246 800.512 267.824 800.553 274.459V293.33H787.343C778.851 293.339 770.46 295.168 762.734 298.692C755.008 302.217 748.127 307.356 742.554 313.763C736.981 320.171 732.846 327.698 730.426 335.838C728.007 343.977 727.359 352.541 728.528 360.952C713.463 361.866 699.315 368.492 688.97 379.481C678.624 390.469 672.862 404.991 672.857 420.083Z" fill="#F3FAF7"/>
<path d="M78.6935 211.356C78.6857 215.033 79.4042 218.676 80.8079 222.075C82.2116 225.474 84.2727 228.562 86.8731 231.162C89.4734 233.763 92.5617 235.824 95.9607 237.228C99.3596 238.631 103.002 239.35 106.68 239.342H272.137C275.887 239.464 279.623 238.831 283.124 237.48C286.624 236.13 289.817 234.089 292.513 231.479C295.209 228.87 297.352 225.745 298.816 222.291C300.28 218.836 301.035 215.122 301.035 211.371C301.035 207.619 300.28 203.905 298.816 200.451C297.352 196.996 295.209 193.871 292.513 191.262C289.817 188.652 286.624 186.612 283.124 185.261C279.623 183.91 275.887 183.277 272.137 183.399H234.99C235.169 182.142 235.258 180.874 235.257 179.604C235.265 175.929 234.547 172.289 233.145 168.892C231.744 165.495 229.685 162.408 227.088 159.808C224.491 157.208 221.406 155.146 218.01 153.741C214.615 152.335 210.975 151.614 207.3 151.618V146.519C207.3 139.183 204.386 132.147 199.199 126.96C194.012 121.773 186.976 118.858 179.64 118.858H162.593C159.466 118.858 156.37 119.477 153.483 120.678C150.595 121.879 147.974 123.639 145.77 125.857C143.566 128.075 141.822 130.708 140.639 133.602C139.456 136.497 138.856 139.597 138.876 142.724V151.618H132.65C128.648 151.622 124.693 152.484 121.052 154.145C117.411 155.806 114.168 158.228 111.541 161.248C108.915 164.268 106.966 167.815 105.826 171.651C104.685 175.488 104.38 179.524 104.931 183.488C97.8309 183.918 91.1629 187.042 86.2872 192.22C81.4115 197.399 78.6955 204.243 78.6935 211.356Z" fill="#F3FAF7"/>
<path d="M786.628 233.426C786.279 231.739 659.094 189.051 627.512 140.258C627.512 140.258 626.134 124.995 616.847 117.455C607.56 109.915 587.011 119.071 586.581 126.269C586.171 133.344 597.515 151.246 622.571 156.613C622.571 156.613 688.751 232.014 784.812 247.538C784.934 247.558 788.254 241.837 786.628 233.426Z" fill="#FCBF7D"/>
<path d="M804.82 165.364C804.82 165.364 889.276 301.157 973.688 315.895C1058.1 330.633 1064.85 397.903 1064.85 397.903C1064.85 397.903 997.598 369.443 972.481 389.628C947.365 409.813 885.529 417.828 866.076 400.474C846.764 383.018 820.918 344.315 795.245 352.629C769.592 360.822 740.871 301.472 740.871 301.472L804.82 165.364Z" fill="#FF4B55"/>
<path opacity="0.3" d="M787.204 339.029C797.972 345.183 811.256 349.745 822.831 344.879C825.389 343.795 827.764 342.306 830.404 341.486C837.006 339.438 844.106 341.982 850.374 345.016C862.89 351.207 874.333 359.351 884.215 369.369C891.51 376.833 898.95 385.698 909.259 387.015C916.498 387.953 923.625 384.988 930.163 381.801C936.721 378.493 943.46 374.838 947.919 369.054C952.499 363.29 954.389 354.829 950.817 348.353C949.061 345.308 946.332 342.855 945.104 339.646C943.877 336.437 945.411 331.676 948.825 331.485C949.577 331.483 950.431 331.624 951.143 331.866C960.846 334.587 970.426 337.288 980.108 340.131C988.611 342.529 998.069 345.21 1006.7 342.242C1012.96 340.011 1014.2 334.703 1016.72 330.855C1060.52 355.59 1064.85 397.903 1064.85 397.903C1064.85 397.903 997.598 369.443 972.482 389.628C947.365 409.813 885.53 417.828 866.076 400.474C846.765 383.018 820.919 344.314 795.245 352.629C769.592 360.822 740.871 301.472 740.871 301.472L741.68 299.6C755.071 314.956 769.679 329.008 787.204 339.029Z" fill="black"/>
<path opacity="0.3" d="M819.96 317.341C834.101 331.944 850.17 344.732 862.283 361.006C872.662 374.865 879.876 391.212 883.474 408.218C876.335 406.67 870.231 404.164 866.076 400.474C855.381 390.824 842.72 374.836 829.258 363.728C827.308 355.764 824.952 347.984 821.824 340.328C813.358 319.39 801.22 300.982 794.503 280.08C799.74 293.972 809.466 306.471 819.96 317.341Z" fill="#20A2A5"/>
<path opacity="0.3" d="M794.523 279.958C792.682 275.145 791.472 270.31 790.829 265.066C791.716 270.35 792.926 275.185 794.523 279.958Z" fill="black"/>
<path opacity="0.3" d="M976.987 386.608C973.824 381.453 970.113 376.583 966.098 372.039C950.935 355.264 931.474 343.297 912.946 330.23C899.813 320.931 887.004 311.183 874.661 300.886C858.795 287.63 844.231 274.838 839.528 254.643C864.418 293.064 913.068 330.25 999.841 346.629C1015.15 349.52 1035.95 376.994 1043.57 390.148C1023.61 384.24 994.204 377.907 976.987 386.608Z" fill="black"/>
<path d="M802.443 315.077C797.533 325.896 830.278 473.618 830.87 477.657C831.462 481.696 802.126 529.909 802.126 529.909C802.126 529.909 791.286 530.253 814.498 478.808L773.058 334.314L802.443 315.077Z" fill="#B3353C"/>
<path d="M754.169 294.508C750.334 305.657 797.367 449.589 798.352 453.51C799.337 457.431 774.822 508.29 774.822 508.29C774.822 508.29 764.072 509.657 782.117 456.233L726.76 316.447L754.169 294.508Z" fill="#B3353C"/>
<path d="M682.626 219.724C670.008 145.814 688.808 80.9409 724.617 74.8261C760.425 68.7113 799.683 123.67 812.301 197.581C824.919 271.491 806.119 336.364 770.311 342.479C734.502 348.594 695.244 293.635 682.626 219.724Z" fill="#FFEB4C"/>
<path opacity="0.6" d="M787.959 237.529L816.176 238.905C816.254 246.06 816.006 252.911 815.554 259.478C804.211 259.119 793.986 258.818 793.986 258.818L787.959 237.529Z" fill="#FFEB4C"/>
<path opacity="0.6" d="M812.317 197.546C812.812 200.635 813.307 203.723 813.7 206.67L782.579 206.196L776.045 168.157L804.699 165.344C807.914 175.521 810.4 186.33 812.317 197.546Z" fill="#FFEB4C"/>
<path opacity="0.5" d="M781.421 112.527C759.111 116.382 731.864 121.305 731.864 121.305L759.363 281.953L813.362 278.165C807.287 313.631 791.899 338.672 770.259 342.261C758.007 344.384 745.311 339.292 733.395 328.689L708.285 146.63C708.285 146.63 710.227 108.856 712.576 79.2929C716.331 77.0275 720.352 75.4322 724.619 74.6292C744.186 71.4517 764.67 86.3437 781.421 112.527Z" fill="#EAB726"/>
<path d="M672.52 222.298C659.902 148.388 677.01 83.8032 710.732 78.0447C744.454 72.2861 782.021 127.534 794.639 201.444C807.257 275.355 790.149 339.939 756.426 345.698C722.704 351.456 685.138 296.208 672.52 222.298Z" fill="#FFDD50"/>
<path opacity="0.5" d="M688.067 278.14C716.959 298.298 746.069 316.36 775.098 334.159C775.2 334.301 775.444 334.341 775.546 334.483C781.344 328.168 786.141 319.557 789.856 309.14C749.987 262.746 709.372 219.361 668.517 177.441C668.693 191.63 669.969 206.751 672.669 222.356C676.092 242.717 681.401 261.508 688.067 278.14ZM798.464 236.121C799.081 247.626 798.884 258.746 797.933 269.115C778.856 256.334 759.777 242.801 740.677 228.637C716.567 210.644 692.414 191.39 668.423 171.912C668.706 145.77 673.103 122.809 680.848 106.162L680.95 106.304C690.76 119.819 702.857 129.324 713.311 140.438C734.993 163.296 756.555 186.886 777.794 211.676C784.765 219.587 791.573 227.722 798.464 236.121Z" fill="#FFEB4C"/>
<path d="M676.542 221.611C664.74 152.48 680.709 92.0775 712.21 86.6983C743.711 81.3191 778.815 133 790.617 202.131C802.419 271.262 786.45 331.665 754.95 337.044C723.449 342.423 688.344 290.742 676.542 221.611Z" fill="#F9A91C"/>
<path d="M682.023 220.775C670.75 154.74 686.001 97.0433 716.089 91.9055C746.176 86.7677 779.706 136.134 790.979 202.169C802.253 268.204 787.001 325.9 756.914 331.038C726.827 336.176 693.297 286.809 682.023 220.775Z" fill="#FFEB4C"/>
<path d="M711.342 157.169L728.481 267.477C730.008 277.307 726.4 286.008 720.412 286.938C714.423 287.869 708.346 280.672 706.818 270.843L689.679 160.535C688.152 150.705 691.76 142.004 697.748 141.074C703.737 140.143 709.815 147.34 711.342 157.169Z" fill="#EAB726"/>
<path d="M732.546 226.392L720.444 205.032L720.039 202.423C723.089 199.153 725.519 195.544 727.514 191.568L732.546 226.392Z" fill="#EAB726"/>
<path d="M727.34 191.657C732.91 180.476 734.625 166.415 734.792 148.244C734.852 140.591 738.154 134.796 742.849 134.067C749.91 132.97 756.654 143.48 756.225 154.856C755.193 180.618 750.416 193.975 744.392 204.667L772.865 252.689C778.924 262.933 776.417 278.236 768.433 279.477C764.958 280.017 761.28 277.543 758.724 273.031L732.326 226.426L727.34 191.657Z" fill="#EAB726"/>
<path opacity="0.3" d="M719.165 302.419C734.615 302.951 749.515 294.621 757.982 273.582C763.256 260.539 765.715 243.274 766.872 225.545C767.836 212.045 768.168 197.815 767.036 183.344C765.882 168.243 762.878 152.963 758.718 138.622C754.845 125.58 749.978 113.253 744.382 102.309C744.198 101.903 743.994 101.619 743.81 101.213C764.564 118.279 783.172 156.045 791.046 201.947C802.261 267.946 787.031 325.592 756.98 330.808C741.761 333.446 725.594 322.02 711.927 301.481C714.205 302.105 716.665 302.384 719.165 302.419Z" fill="#EAB726"/>
<path d="M815.484 249.171C814.694 247.712 680.549 250.145 634.356 214.797C634.356 214.797 627.837 200.907 616.693 196.82C605.429 192.86 589.114 208.367 591.072 215.231C593.153 222.091 609.789 235.152 635.16 231.72C635.16 231.72 722.744 280.553 818.534 262.927C818.538 263.051 819.81 256.575 815.484 249.171Z" fill="#FCBF7D"/>
</svg>
