<svg width="356" height="331" viewBox="0 0 356 331" fill="none" xmlns="http://www.w3.org/2000/svg">
<path d="M178.794 118.218C178.588 117.224 103.587 92.0506 84.9634 63.2774C84.9634 63.2774 84.1509 54.2767 78.6744 49.8306C73.1978 45.3844 61.0801 50.7838 60.8265 55.028C60.5847 59.2002 67.2744 69.7571 82.0496 72.9223C82.0496 72.9223 121.076 117.386 177.723 126.54C177.795 126.552 179.753 123.179 178.794 118.218Z" fill="#F9CEB5"/>
<path d="M189.522 78.0828C189.522 78.0828 239.326 158.159 289.104 166.851C338.881 175.542 342.859 215.211 342.859 215.211C342.859 215.211 303.203 198.428 288.392 210.331C273.581 222.234 237.116 226.961 225.645 216.727C214.257 206.433 199.015 183.61 183.876 188.513C168.748 193.344 151.811 158.346 151.811 158.346L189.522 78.0828Z" fill="#FF4B55"/>
<path opacity="0.3" d="M179.134 180.493C185.484 184.122 193.317 186.812 200.143 183.943C201.652 183.304 203.052 182.425 204.609 181.942C208.502 180.734 212.689 182.234 216.385 184.024C223.766 187.674 230.514 192.477 236.341 198.385C240.643 202.786 245.031 208.014 251.11 208.79C255.378 209.343 259.582 207.595 263.437 205.716C267.304 203.765 271.278 201.609 273.907 198.198C276.608 194.8 277.723 189.81 275.616 185.991C274.581 184.195 272.972 182.749 272.248 180.857C271.524 178.964 272.428 176.157 274.442 176.044C274.885 176.043 275.389 176.126 275.809 176.269C281.53 177.873 287.18 179.466 292.89 181.143C297.903 182.557 303.481 184.138 308.571 182.388C312.26 181.072 312.996 177.942 314.477 175.673C340.307 190.259 342.859 215.211 342.859 215.211C342.859 215.211 303.203 198.428 288.392 210.331C273.581 222.234 237.117 226.961 225.645 216.727C214.257 206.433 199.016 183.61 183.876 188.513C168.748 193.344 151.812 158.346 151.812 158.346L152.288 157.242C160.185 166.297 168.799 174.584 179.134 180.493Z" fill="black"/>
<path opacity="0.3" d="M198.45 167.704C206.789 176.315 216.265 183.856 223.408 193.453C229.528 201.625 233.783 211.265 235.904 221.294C231.695 220.381 228.095 218.903 225.645 216.727C219.338 211.036 211.872 201.608 203.933 195.058C202.783 190.362 201.394 185.774 199.549 181.259C194.557 168.912 187.399 158.056 183.438 145.731C186.526 153.923 192.262 161.293 198.45 167.704Z" fill="#20A2A5"/>
<path opacity="0.3" d="M183.45 145.659C182.365 142.82 181.651 139.969 181.272 136.877C181.795 139.993 182.509 142.844 183.45 145.659Z" fill="black"/>
<path opacity="0.3" d="M291.049 208.55C289.184 205.51 286.996 202.638 284.628 199.959C275.686 190.067 264.21 183.01 253.284 175.304C245.539 169.82 237.986 164.072 230.708 158C221.351 150.183 212.763 142.639 209.99 130.731C224.667 153.388 253.356 175.316 304.526 184.975C313.556 186.679 325.821 202.881 330.311 210.638C318.543 207.154 301.202 203.419 291.049 208.55Z" fill="black"/>
<path d="M188.121 166.369C185.225 172.748 204.535 259.86 204.884 262.242C205.233 264.623 187.934 293.055 187.934 293.055C187.934 293.055 181.542 293.257 195.229 262.92L170.792 177.713L188.121 166.369Z" fill="#B3353C"/>
<path d="M159.653 154.239C157.391 160.814 185.127 245.69 185.708 248.002C186.289 250.315 171.832 280.306 171.832 280.306C171.832 280.306 165.493 281.112 176.134 249.608L143.49 167.176L159.653 154.239Z" fill="#B3353C"/>
<path d="M117.464 110.139C110.023 66.5542 121.11 28.2985 142.226 24.6925C163.342 21.0866 186.493 53.496 193.934 97.0809C201.374 140.666 190.288 178.921 169.172 182.527C148.056 186.133 124.905 153.724 117.464 110.139Z" fill="#FFEB4C"/>
<path opacity="0.6" d="M179.579 120.638L196.219 121.45C196.265 125.669 196.118 129.709 195.852 133.582C189.163 133.37 183.133 133.193 183.133 133.193L179.579 120.638Z" fill="#FFEB4C"/>
<path opacity="0.6" d="M193.943 97.0603C194.235 98.8817 194.527 100.703 194.759 102.441L176.406 102.161L172.553 79.7298L189.45 78.071C191.347 84.0721 192.812 90.446 193.943 97.0603Z" fill="#FFEB4C"/>
<path opacity="0.5" d="M175.723 46.9244C162.567 49.1977 146.5 52.1012 146.5 52.1012L162.716 146.835L194.559 144.601C190.977 165.516 181.902 180.282 169.141 182.399C161.916 183.651 154.43 180.648 147.402 174.395L132.595 67.0351C132.595 67.0351 133.741 44.7596 135.126 27.3265C137.34 25.9905 139.711 25.0498 142.227 24.5763C153.766 22.7025 165.846 31.4843 175.723 46.9244Z" fill="#EAB726"/>
<path d="M111.505 111.657C104.064 68.0717 114.153 29.9863 134.038 26.5905C153.924 23.1947 176.077 55.7744 183.518 99.3593C190.959 142.944 180.87 181.03 160.984 184.425C141.098 187.821 118.946 155.241 111.505 111.657Z" fill="#FFDD50"/>
<path opacity="0.5" d="M120.673 144.587C137.71 156.473 154.877 167.125 171.995 177.621C172.055 177.705 172.199 177.728 172.259 177.812C175.678 174.088 178.507 169.01 180.698 162.867C157.187 135.509 133.236 109.925 109.144 85.2046C109.248 93.5716 110 102.488 111.593 111.691C113.611 123.698 116.742 134.779 120.673 144.587ZM185.774 119.808C186.137 126.592 186.021 133.15 185.46 139.265C174.211 131.728 162.96 123.747 151.697 115.395C137.479 104.784 123.236 93.4301 109.088 81.9441C109.256 66.5279 111.848 52.9878 116.416 43.1711L116.476 43.2548C122.261 51.2246 129.394 56.8296 135.559 63.3839C148.345 76.8631 161.06 90.774 173.585 105.393C177.695 110.058 181.71 114.855 185.774 119.808Z" fill="#FFEB4C"/>
<path d="M113.877 111.252C106.917 70.485 116.334 34.8657 134.91 31.6935C153.486 28.5214 174.187 58.9978 181.147 99.7643C188.106 140.531 178.689 176.15 160.113 179.322C141.537 182.494 120.836 152.018 113.877 111.252Z" fill="#F9A91C"/>
<path d="M117.109 110.758C110.461 71.8177 119.455 37.794 137.197 34.7642C154.94 31.7345 174.712 60.8459 181.36 99.7865C188.008 138.727 179.014 172.751 161.272 175.781C143.529 178.81 123.757 149.699 117.109 110.758Z" fill="#FFEB4C"/>
<path d="M134.398 73.25L144.505 138.299C145.405 144.095 143.278 149.226 139.746 149.775C136.215 150.323 132.631 146.08 131.73 140.284L121.624 75.2348C120.723 69.4384 122.85 64.3075 126.382 63.7588C129.913 63.2101 133.497 67.4536 134.398 73.25Z" fill="#EAB726"/>
<path d="M146.902 114.071L139.765 101.475L139.526 99.9362C141.325 98.0077 142.758 95.8796 143.935 93.5348L146.902 114.071Z" fill="#EAB726"/>
<path d="M143.832 93.5875C147.117 86.9943 148.128 78.7022 148.227 67.9868C148.262 63.474 150.209 60.0567 152.978 59.6266C157.141 58.9796 161.118 65.1776 160.866 71.886C160.257 87.078 157.44 94.9545 153.887 101.26L170.678 129.578C174.251 135.619 172.773 144.643 168.064 145.375C166.015 145.693 163.846 144.235 162.339 141.574L146.772 114.091L143.832 93.5875Z" fill="#EAB726"/>
<path opacity="0.3" d="M139.011 158.904C148.122 159.217 156.909 154.305 161.901 141.898C165.012 134.207 166.462 124.026 167.144 113.571C167.713 105.61 167.908 97.2187 167.241 88.6852C166.56 79.7802 164.789 70.7698 162.335 62.3126C160.052 54.6221 157.181 47.3526 153.882 40.8993C153.773 40.6598 153.653 40.4923 153.545 40.2528C165.783 50.3168 176.756 72.5872 181.399 99.6557C188.013 138.575 179.032 172.569 161.311 175.645C152.336 177.201 142.803 170.462 134.743 158.351C136.086 158.719 137.537 158.883 139.011 158.904Z" fill="#EAB726"/>
<path d="M195.81 127.504C195.344 126.643 116.239 128.078 88.9994 107.233C88.9994 107.233 85.1553 99.0425 78.5833 96.6322C71.9409 94.2973 62.3203 103.441 63.4748 107.489C64.7021 111.534 74.5121 119.237 89.4735 117.212C89.4735 117.212 141.122 146.009 197.609 135.615C197.612 135.688 198.362 131.87 195.81 127.504Z" fill="#F9CEB5"/>
<path opacity="0.2" d="M33.5322 173.745C99.0672 144.795 127.21 103.195 158.788 89.246C190.367 75.2966 265.705 57.6147 337.861 150.563C410.017 243.511 331.384 296.563 296.651 311.906C134.007 383.76 -82.5303 225.014 33.5322 173.745Z" fill="#C3E5D9"/>
</svg>
