<svg width="1143" height="720" viewBox="0 0 1143 720" fill="none" xmlns="http://www.w3.org/2000/svg">
<path d="M564.966 155.722V90.6127C564.966 86.6148 565.081 82.3313 565.309 77.7622C565.652 73.0789 566.109 68.2243 566.68 63.1983L500.714 155.722H564.966ZM636.929 155.722V185.535C636.929 188.162 636.016 190.447 634.188 192.389C632.475 194.331 629.962 195.302 626.649 195.302H611.228V252.701H564.966V195.302H464.561C461.249 195.302 458.222 194.274 455.48 192.217C452.853 190.161 451.197 187.591 450.511 184.507L445.028 158.292L560.512 3.05786H611.228V155.722H636.929Z" fill="url(#paint0_linear_1327_32881)"/>
<path d="M879.403 127.794C879.403 149.611 877.061 168.515 872.378 184.507C867.694 200.499 861.183 213.749 852.845 224.258C844.621 234.767 834.797 242.592 823.374 247.732C812.066 252.872 799.786 255.442 786.536 255.442C773.286 255.442 761.006 252.872 749.698 247.732C738.504 242.592 728.795 234.767 720.57 224.258C712.346 213.749 705.892 200.499 701.209 184.507C696.64 168.515 694.355 149.611 694.355 127.794C694.355 105.976 696.64 87.0717 701.209 71.0799C705.892 55.0882 712.346 41.8379 720.57 31.329C728.795 20.8201 738.504 13.0527 749.698 8.02671C761.006 2.88651 773.286 0.316406 786.536 0.316406C799.786 0.316406 812.066 2.88651 823.374 8.02671C834.797 13.0527 844.621 20.8201 852.845 31.329C861.183 41.8379 867.694 55.0882 872.378 71.0799C877.061 87.0717 879.403 105.976 879.403 127.794ZM824.574 127.794C824.574 110.545 823.489 96.4383 821.318 85.4725C819.148 74.3925 816.235 65.7113 812.58 59.4288C809.039 53.1463 804.984 48.8628 800.415 46.5783C795.846 44.1795 791.219 42.9801 786.536 42.9801C781.853 42.9801 777.227 44.1795 772.658 46.5783C768.203 48.8628 764.205 53.1463 760.664 59.4288C757.237 65.7113 754.438 74.3925 752.268 85.4725C750.212 96.4383 749.184 110.545 749.184 127.794C749.184 145.156 750.212 159.32 752.268 170.286C754.438 181.252 757.237 189.933 760.664 196.33C764.205 202.612 768.203 206.953 772.658 209.352C777.227 211.636 781.853 212.778 786.536 212.778C791.219 212.778 795.846 211.636 800.415 209.352C804.984 206.953 809.039 202.612 812.58 196.33C816.235 189.933 819.148 181.252 821.318 170.286C823.489 159.32 824.574 145.156 824.574 127.794Z" fill="url(#paint1_linear_1327_32881)"/>
<path d="M1048.2 155.722V90.6127C1048.2 86.6148 1048.31 82.3313 1048.54 77.7622C1048.88 73.0789 1049.34 68.2243 1049.91 63.1983L983.947 155.722H1048.2ZM1120.16 155.722V185.535C1120.16 188.162 1119.25 190.447 1117.42 192.389C1115.71 194.331 1113.19 195.302 1109.88 195.302H1094.46V252.701H1048.2V195.302H947.794C944.482 195.302 941.455 194.274 938.713 192.217C936.086 190.161 934.43 187.591 933.744 184.507L928.261 158.292L1043.74 3.05786H1094.46V155.722H1120.16Z" fill="url(#paint2_linear_1327_32881)"/>
<path d="M861.995 528.059C859.595 502.759 838.295 482.859 812.295 482.859C812.295 453.059 788.095 428.859 758.295 428.859C735.695 428.859 716.295 442.759 708.295 462.459C704.395 460.559 700.095 459.459 695.395 459.459C679.795 459.459 667.095 471.759 666.495 487.259C660.595 481.959 652.895 478.759 644.395 478.759C626.095 478.759 611.395 493.559 611.395 511.759C611.395 512.959 611.495 514.059 611.595 515.259C604.595 510.859 596.295 508.259 587.395 508.259C562.195 508.259 541.795 528.659 541.795 553.859C541.795 579.059 562.195 599.459 587.395 599.459C592.795 599.459 597.995 598.459 602.895 596.759C609.195 617.759 628.795 633.059 651.795 633.059C669.195 633.059 684.495 624.359 693.695 611.159C699.795 618.059 708.595 622.359 718.495 622.359C723.995 622.359 729.095 621.059 733.695 618.659C743.895 631.259 759.495 639.359 776.895 639.359C802.895 639.359 824.795 621.459 830.795 597.259C838.095 604.459 848.195 608.959 859.295 608.959C881.695 608.959 899.895 590.759 899.895 568.359C899.995 547.059 883.195 529.459 861.995 528.059Z" fill="url(#paint3_linear_1327_32881)"/>
<path d="M1060.09 287.559C1044.39 269.259 1017.09 265.459 996.894 279.659C980.594 256.559 948.694 250.959 925.594 267.159C908.094 279.459 900.594 300.759 905.094 320.459C900.994 321.059 897.094 322.659 893.494 325.159C881.394 333.659 878.294 350.159 886.194 362.459C878.794 361.559 871.094 363.259 864.494 367.959C850.294 377.859 846.894 397.459 856.894 411.559C857.494 412.459 858.194 413.359 858.894 414.159C851.094 414.559 843.194 417.059 836.294 421.959C816.794 435.659 812.094 462.659 825.794 482.159C839.494 501.659 866.494 506.359 885.994 492.659C890.194 489.659 893.694 486.159 896.494 482.159C912.894 494.959 936.294 496.259 954.294 483.659C967.794 474.159 974.894 459.159 974.894 443.859C983.294 445.859 992.594 444.459 1000.19 439.059C1004.49 436.059 1007.69 432.259 1009.99 427.859C1024.79 432.059 1041.29 429.859 1054.79 420.359C1074.99 406.159 1082.19 380.359 1073.69 358.359C1083.29 359.959 1093.59 357.959 1102.19 351.859C1119.59 339.659 1123.79 315.659 1111.59 298.259C1099.79 281.659 1077.19 277.059 1060.09 287.559Z" fill="url(#paint4_linear_1327_32881)"/>
<path d="M584.595 533.459C579.495 532.459 574.395 532.459 569.595 533.259C567.095 519.059 556.195 507.159 541.195 504.159C541.095 504.159 541.095 504.159 540.995 504.159C541.295 502.959 541.695 501.759 541.895 500.459C546.595 477.059 531.295 454.259 507.895 449.559C497.195 447.459 486.595 449.459 477.795 454.559C471.395 430.259 451.595 410.359 425.295 405.159C392.395 398.559 360.295 416.959 348.595 447.259C345.395 445.559 341.995 444.359 338.295 443.559C317.795 439.459 297.795 452.759 293.695 473.359C293.395 474.659 293.195 475.959 293.095 477.359C290.695 476.459 288.195 475.759 285.695 475.259C259.995 470.159 234.995 486.859 229.895 512.559C224.795 538.259 241.495 563.259 267.195 568.359C278.395 570.559 289.495 568.659 298.795 563.659C299.095 591.459 318.795 616.159 347.095 621.759C373.795 627.059 399.795 613.859 411.895 590.959C419.495 600.259 430.295 607.159 442.995 609.659C451.695 611.359 460.295 610.859 468.195 608.659C472.895 621.159 483.695 630.959 497.695 633.759C519.195 638.059 540.195 624.059 544.395 602.559C544.495 601.959 544.595 601.259 544.695 600.659C550.495 607.659 558.795 612.859 568.395 614.759C590.795 619.259 612.595 604.659 617.095 582.259C621.595 559.759 607.095 537.959 584.595 533.459Z" fill="url(#paint5_linear_1327_32881)"/>
<path d="M754.095 576.159C745.495 576.159 737.695 579.159 731.495 584.259C727.195 563.859 709.095 548.659 687.495 548.659C667.095 548.659 649.895 562.259 644.295 580.859C637.295 575.059 628.395 571.659 618.695 571.659C612.095 571.659 605.795 573.259 600.295 576.059C595.095 567.559 585.695 561.859 574.895 561.859C558.395 561.859 545.095 575.159 545.095 591.659C545.095 592.159 545.095 592.659 545.095 593.159C539.795 588.859 532.995 586.259 525.595 586.259C508.495 586.259 494.595 600.159 494.595 617.259C494.595 634.359 508.495 648.259 525.595 648.259C529.495 648.259 533.195 647.559 536.695 646.259C540.595 656.359 550.395 663.559 561.795 663.559H561.895C561.795 664.459 561.795 665.459 561.795 666.359C561.795 684.259 576.295 698.859 594.295 698.859C602.495 698.859 609.995 695.859 615.695 690.759C623.995 707.759 641.395 719.359 661.595 719.359C686.795 719.359 707.695 701.159 711.895 677.159C714.495 677.959 717.195 678.359 719.995 678.359C735.695 678.359 748.395 665.659 748.395 649.959C748.395 648.959 748.295 647.959 748.195 646.959C750.095 647.259 751.995 647.459 753.995 647.459C773.595 647.459 789.595 631.559 789.595 611.859C789.595 592.159 773.695 576.159 754.095 576.159Z" fill="url(#paint6_linear_1327_32881)"/>
<path d="M543.495 584.659C535.795 582.959 527.995 583.659 521.095 586.359C512.495 577.159 500.695 571.059 487.395 569.859C486.195 549.959 469.795 534.159 449.595 534.159C443.695 534.159 438.095 535.559 433.095 537.959C423.195 506.959 394.195 484.559 359.895 484.559C331.395 484.559 306.495 500.159 293.195 523.259C287.395 521.159 281.095 519.959 274.495 519.959C254.495 519.959 237.095 530.759 227.695 546.759C222.295 544.659 216.495 543.459 210.395 543.459C183.995 543.459 162.595 564.859 162.595 591.259C162.595 592.059 162.595 592.859 162.695 593.659C158.695 592.159 154.295 591.259 149.795 591.259C129.395 591.259 112.795 607.859 112.795 628.259C112.795 648.659 129.395 665.259 149.795 665.259C150.395 665.259 150.995 665.159 151.595 665.159C157.695 688.259 178.695 705.259 203.695 705.259C219.895 705.259 234.395 698.059 244.295 686.759C259.695 705.159 282.895 716.859 308.695 716.859C337.095 716.859 362.295 702.759 377.495 681.059C387.795 692.959 403.095 700.559 420.095 700.559C441.095 700.559 459.395 689.059 469.095 672.059C473.495 673.259 478.095 673.959 482.895 673.959C497.495 673.959 510.595 667.959 520.095 658.359C522.195 659.259 524.295 659.959 526.595 660.459C547.495 665.159 568.295 651.959 572.895 630.959C577.695 610.059 564.495 589.259 543.495 584.659Z" fill="url(#paint7_linear_1327_32881)"/>
<path d="M288.995 416.259C285.195 411.459 280.195 408.159 274.695 406.559C274.295 396.559 270.295 386.859 262.795 379.759C272.295 366.359 270.495 348.259 258.295 338.559C254.695 335.759 250.695 333.959 246.395 333.059C256.295 308.359 250.295 279.959 229.695 263.459C212.495 249.759 189.495 247.759 169.595 256.259C167.195 252.059 163.995 248.259 159.995 245.159C147.995 235.559 131.895 234.159 117.995 239.959C115.795 236.059 112.895 232.459 109.195 229.559C93.3946 216.959 69.5946 220.459 55.9946 237.459C55.5946 237.959 55.1946 238.459 54.7946 239.059C53.0946 236.159 50.9946 233.459 48.1946 231.259C35.8946 221.459 17.4946 224.159 6.99456 237.259C-3.50544 250.459 -2.00544 269.059 10.2946 278.859C10.6946 279.159 11.0946 279.359 11.3946 279.659C3.19456 297.459 7.19456 318.459 22.2946 330.559C32.0946 338.359 44.4946 340.759 56.2946 338.159C56.1946 357.359 64.0946 376.059 79.6946 388.459C96.7946 402.159 119.295 405.159 139.495 398.459C139.595 411.059 144.895 423.259 155.195 431.459C167.795 441.559 184.795 442.959 199.295 436.659C201.295 439.559 203.795 442.159 206.695 444.459C215.495 451.459 226.495 453.959 237.095 452.259C237.895 453.859 238.795 455.359 239.995 456.759C250.195 469.859 269.495 471.259 282.995 460.059C296.495 448.959 299.195 429.259 288.995 416.259Z" fill="url(#paint8_linear_1327_32881)"/>
<path d="M1046.49 409.859C1041.09 409.759 1035.99 411.359 1031.79 414.059C1024.79 409.059 1015.99 406.659 1006.89 407.759C1003.39 394.559 990.094 386.259 976.594 389.059C972.594 389.859 969.094 391.559 966.094 393.859C955.094 374.459 932.594 363.459 909.594 368.259C890.494 372.259 875.994 386.159 870.294 403.459C866.094 402.859 861.694 402.959 857.294 403.859C843.894 406.659 833.794 416.259 829.694 428.359C825.794 427.659 821.694 427.759 817.594 428.559C799.894 432.259 788.594 449.559 792.194 467.159C792.294 467.659 792.394 468.259 792.594 468.759C789.694 468.259 786.694 468.359 783.594 468.959C769.894 471.759 761.094 485.159 763.994 498.859C766.894 512.559 780.194 521.359 793.894 518.459C794.294 518.359 794.694 518.259 795.094 518.159C802.394 532.759 818.894 541.259 835.594 537.759C846.494 535.459 855.194 528.659 860.194 519.759C873.094 529.959 890.194 534.559 907.594 530.959C926.694 526.959 941.494 514.059 948.694 497.459C957.294 504.059 968.494 506.959 979.894 504.559C993.994 501.659 1004.59 491.359 1008.69 478.659C1011.79 478.859 1014.99 478.659 1018.19 477.959C1027.99 475.959 1035.89 470.059 1040.89 462.359C1042.39 462.659 1043.99 462.859 1045.59 462.859C1060.29 463.059 1072.29 451.359 1072.49 436.659C1072.89 422.159 1061.09 410.059 1046.49 409.859Z" fill="url(#paint9_linear_1327_32881)"/>
<path d="M406.995 474.259C401.395 471.259 395.195 470.159 389.295 470.659C384.695 461.659 376.895 454.359 366.795 450.559C370.295 434.859 360.995 419.059 345.295 414.659C340.695 413.359 336.095 413.259 331.695 413.959C330.795 387.859 313.195 364.059 286.695 356.559C264.595 350.359 241.895 356.959 226.595 371.959C222.595 369.059 217.895 366.759 212.895 365.359C197.495 360.959 181.595 365.559 170.795 375.959C167.095 373.159 162.795 370.959 158.095 369.659C137.695 363.859 116.395 375.759 110.695 396.159C110.495 396.759 110.395 397.359 110.195 398.059C107.395 395.959 104.195 394.359 100.695 393.359C84.8948 388.859 68.3948 398.059 63.9948 413.859C59.4948 429.659 68.6948 446.159 84.4948 450.559C84.9948 450.659 85.3948 450.759 85.8948 450.859C85.5948 470.059 98.0948 487.859 117.495 493.259C130.095 496.759 142.895 494.459 152.995 487.859C160.895 505.459 176.295 519.559 196.295 525.259C218.295 531.459 240.895 526.059 257.395 512.659C262.795 524.159 272.895 533.359 286.095 537.059C302.295 541.659 318.995 536.759 330.195 525.659C333.295 527.559 336.795 529.059 340.495 530.159C351.795 533.359 363.295 531.559 372.695 526.259C374.095 527.359 375.595 528.459 377.295 529.359C392.495 537.559 411.395 531.859 419.595 516.659C427.795 501.459 422.195 482.459 406.995 474.259Z" fill="url(#paint10_linear_1327_32881)"/>
<path d="M540.995 549.159C537.095 548.359 533.195 548.759 529.695 550.059C525.395 545.459 519.395 542.459 512.695 541.859C511.995 531.859 503.695 523.959 493.495 524.059C490.495 524.059 487.695 524.759 485.195 526.059C480.095 510.459 465.395 499.359 448.095 499.459C433.695 499.559 421.195 507.559 414.695 519.159C411.795 518.059 408.595 517.559 405.295 517.559C395.295 517.659 386.495 523.159 381.895 531.259C379.195 530.259 376.195 529.659 373.195 529.659C359.895 529.759 349.195 540.659 349.295 553.859C349.295 554.259 349.295 554.659 349.295 555.059C347.295 554.359 345.095 553.859 342.795 553.959C332.495 554.059 324.195 562.459 324.295 572.759C324.395 583.059 332.795 591.359 343.095 591.259C343.395 591.259 343.695 591.259 343.995 591.159C347.195 602.759 357.795 611.259 370.395 611.159C378.595 611.059 385.895 607.459 390.795 601.659C398.595 610.859 410.295 616.659 423.395 616.559C437.695 616.459 450.295 609.259 457.895 598.259C463.095 604.259 470.795 607.959 479.395 607.859C489.995 607.759 499.095 601.959 503.895 593.359C506.095 593.959 508.495 594.259 510.895 594.259C518.195 594.159 524.795 591.159 529.595 586.259C530.695 586.659 531.695 587.059 532.895 587.259C543.495 589.559 553.795 582.759 556.095 572.259C558.295 561.859 551.495 551.459 540.995 549.159Z" fill="url(#paint11_linear_1327_32881)"/>
<path d="M1037.62 478.853C1037.52 478.853 1037.52 478.853 1037.42 478.853C1037.42 477.753 1037.32 476.753 1037.22 475.653C1035.22 459.653 1020.62 448.353 1004.72 450.353C999.124 451.053 994.124 453.353 990.024 456.553C977.924 429.753 949.424 412.653 918.724 416.553C891.024 420.053 869.224 439.553 861.524 464.553C855.624 463.253 849.424 462.853 843.124 463.653C815.324 467.153 795.224 491.453 796.424 518.953C794.024 518.653 791.624 518.653 789.124 518.953C772.824 520.953 761.224 535.853 763.224 552.253C765.224 568.553 780.124 580.153 796.524 578.153C796.724 578.153 797.024 578.053 797.224 578.053C803.024 595.653 820.624 607.353 839.724 604.953C853.524 603.253 864.724 594.653 870.324 583.053C880.524 602.753 902.324 615.053 925.624 612.153C947.424 609.453 964.624 594.253 970.924 574.553C978.824 579.153 988.224 581.353 998.024 580.053C1010.42 578.553 1020.82 571.853 1027.62 562.553C1034.02 564.953 1041.02 565.953 1048.32 565.053C1072.12 562.053 1088.92 540.353 1086.02 516.653C1083.02 492.753 1061.32 475.853 1037.62 478.853Z" fill="url(#paint12_linear_1327_32881)"/>
<path d="M808.395 552.659C806.995 538.259 794.995 527.059 780.195 527.059C775.495 527.059 770.995 528.259 767.095 530.259C766.695 520.959 758.995 513.559 749.595 513.559C747.795 513.559 745.995 513.859 744.395 514.359C739.795 499.959 726.395 489.559 710.495 489.559C698.095 489.559 687.195 495.859 680.895 505.459C677.695 503.659 673.895 502.559 669.895 502.559C657.495 502.559 647.395 512.659 647.395 525.059C647.395 527.859 647.895 530.559 648.895 533.059C646.395 531.759 643.495 531.059 640.495 531.059C630.295 531.059 621.895 539.359 621.895 549.659C621.895 551.259 622.095 552.859 622.495 554.359C619.595 553.259 616.395 552.559 613.095 552.559C598.795 552.559 587.295 564.159 587.295 578.359C587.295 592.559 598.895 604.159 613.095 604.159C618.595 604.159 623.595 602.459 627.795 599.559C632.895 607.759 641.995 613.159 652.395 613.159C658.995 613.159 665.095 610.959 669.995 607.159C676.295 617.459 687.695 624.259 700.595 624.259C715.695 624.259 728.595 614.959 733.895 601.759C739.595 610.159 749.095 615.659 759.995 615.659C774.795 615.659 787.095 605.459 790.495 591.859C794.695 595.959 800.395 598.459 806.695 598.459C819.395 598.459 829.695 588.159 829.695 575.459C829.895 563.359 820.395 553.359 808.395 552.659Z" fill="url(#paint13_linear_1327_32881)"/>
<path opacity="0.4" d="M533.115 320.028C526.915 318.128 520.715 317.428 514.615 317.728C513.515 299.828 501.615 283.628 483.415 278.028C483.315 278.028 483.315 278.028 483.215 277.928C483.815 276.528 484.315 275.028 484.815 273.528C493.715 245.228 478.015 215.028 449.615 206.128C436.615 202.028 423.315 203.128 411.815 208.228C407.115 177.328 385.415 150.228 353.515 140.228C313.815 127.728 271.815 146.128 253.215 181.928C249.515 179.428 245.415 177.428 240.915 176.028C216.115 168.228 189.715 182.028 181.915 206.828C181.415 208.428 181.015 210.028 180.715 211.628C177.915 210.228 174.915 209.028 171.815 208.028C140.815 198.228 107.715 215.528 97.9149 246.528C88.1149 277.528 105.415 310.628 136.415 320.428C149.915 324.728 163.815 323.828 176.015 318.928C172.715 353.228 193.715 386.328 227.915 397.128C260.215 407.228 294.215 394.328 312.215 367.728C320.315 380.328 332.715 390.228 348.115 395.028C358.615 398.328 369.215 398.828 379.315 397.128C383.415 413.128 395.415 426.728 412.315 432.128C438.315 440.328 466.015 425.828 474.215 399.828C474.415 399.028 474.715 398.328 474.915 397.528C481.215 407.028 490.615 414.528 502.315 418.128C529.415 426.628 558.215 411.628 566.715 384.528C575.215 357.328 560.215 328.528 533.115 320.028Z" fill="url(#paint14_linear_1327_32881)"/>
<path opacity="0.4" d="M617.915 364.228C611.015 364.928 604.515 366.928 598.615 369.928C589.815 352.728 571.015 341.828 550.715 344.028C550.615 344.028 550.515 344.028 550.515 344.028C550.515 342.328 550.415 340.728 550.215 339.028C546.815 307.228 518.315 284.128 486.415 287.528C471.815 289.028 459.115 295.928 449.915 305.928C432.015 277.328 398.815 259.928 363.015 263.728C318.315 268.428 284.615 304.728 281.715 348.128C277.015 347.228 272.015 347.028 267.015 347.528C239.115 350.528 218.915 375.528 221.815 403.428C222.015 405.228 222.315 407.028 222.615 408.728C219.215 408.528 215.815 408.628 212.315 408.928C177.415 412.628 152.115 443.928 155.815 478.828C159.515 513.728 190.815 539.028 225.715 535.328C240.915 533.728 254.315 526.828 264.215 516.728C275.715 552.128 310.715 575.828 349.215 571.728C385.415 567.928 413.515 540.528 419.815 506.428C433.215 515.328 449.815 519.828 467.115 517.928C478.915 516.728 489.715 512.628 498.915 506.528C509.815 520.628 527.615 528.928 546.615 526.928C575.815 523.828 597.015 497.628 593.915 468.328C593.815 467.428 593.715 466.628 593.615 465.728C603.915 472.428 616.515 475.728 629.615 474.328C660.015 471.128 682.115 443.828 678.915 413.328C675.715 383.028 648.415 361.028 617.915 364.228Z" fill="url(#paint15_linear_1327_32881)"/>
<path opacity="0.4" d="M859.815 319.928C859.715 319.928 859.615 319.928 859.615 319.928C859.615 318.528 859.515 317.228 859.315 315.828C856.815 295.528 838.315 281.128 818.015 283.728C810.915 284.628 804.615 287.428 799.415 291.628C784.115 257.628 747.915 235.928 709.015 240.828C673.815 245.228 646.215 269.928 636.415 301.728C628.915 300.028 621.015 299.628 613.015 300.628C577.715 305.028 552.215 335.828 553.715 370.828C550.715 370.428 547.615 370.428 544.515 370.828C523.815 373.428 509.115 392.328 511.715 413.028C514.315 433.728 533.215 448.428 553.915 445.828C554.215 445.828 554.515 445.728 554.815 445.628C562.115 468.028 584.415 482.728 608.715 479.728C626.215 477.528 640.415 466.628 647.615 451.928C660.615 477.028 688.215 492.528 717.815 488.828C745.515 485.328 767.315 466.028 775.315 441.128C785.315 447.028 797.315 449.728 809.715 448.128C825.415 446.128 838.715 437.728 847.315 425.928C855.415 429.028 864.315 430.228 873.515 429.028C903.715 425.228 925.115 397.728 921.315 367.628C917.515 337.628 889.915 316.228 859.815 319.928Z" fill="url(#paint16_linear_1327_32881)"/>
<path opacity="0.4" d="M755.915 272.928C756.015 272.928 756.115 272.928 756.115 272.828C755.615 271.528 755.115 270.328 754.715 268.928C748.915 249.328 760.115 228.728 779.615 222.928C786.415 220.928 793.415 221.028 799.815 222.728C800.115 185.428 824.615 151.128 862.215 139.928C896.215 129.828 931.415 141.428 953.115 166.628C959.315 162.128 966.315 158.528 974.115 156.228C1008.22 146.128 1043.92 164.128 1056.52 196.728C1059.12 195.228 1061.92 193.928 1064.92 193.028C1084.92 187.128 1106.02 198.528 1111.92 218.528C1117.82 238.528 1106.42 259.628 1086.42 265.528C1086.12 265.628 1085.82 265.628 1085.52 265.728C1087.82 289.128 1073.22 311.628 1049.82 318.628C1032.92 323.628 1015.52 319.328 1003.02 308.728C1001.22 336.928 982.115 362.228 953.515 370.728C926.815 378.628 899.115 369.728 881.715 350.128C874.915 359.528 865.015 366.828 853.015 370.328C837.915 374.828 822.315 372.428 809.715 365.028C803.515 371.128 795.815 375.728 786.915 378.428C757.815 387.028 727.115 370.428 718.515 341.328C710.215 312.128 726.815 281.528 755.915 272.928Z" fill="url(#paint17_linear_1327_32881)"/>
<path opacity="0.4" d="M459.615 395.128C459.715 395.128 459.815 395.128 459.815 395.128C459.515 393.728 459.415 392.328 459.215 390.928C457.715 370.128 473.315 351.928 494.215 350.428C501.515 349.928 508.415 351.528 514.415 354.628C522.915 317.428 554.815 288.428 594.915 285.528C631.015 282.828 663.715 302.128 679.915 332.028C687.015 328.828 694.915 326.828 703.115 326.228C739.415 323.528 771.215 349.328 776.615 384.728C779.515 383.728 782.615 383.128 785.815 382.828C807.115 381.228 825.715 397.228 827.215 418.628C828.815 439.928 812.815 458.528 791.415 460.028C791.115 460.028 790.815 460.028 790.415 460.028C787.615 483.928 768.115 503.228 743.215 505.028C725.315 506.328 708.815 498.228 698.615 484.928C690.615 512.628 666.115 533.828 635.615 536.028C607.215 538.128 581.415 523.128 568.415 499.728C559.515 507.628 548.115 512.728 535.315 513.728C519.215 514.928 504.215 509.128 493.215 499.028C485.715 503.728 477.015 506.728 467.515 507.428C436.515 509.728 409.515 486.428 407.215 455.428C405.315 424.428 428.615 397.428 459.615 395.128Z" fill="url(#paint18_linear_1327_32881)"/>
<path d="M1137.26 332.389L1140.67 335.465C1142.11 336.765 1141.36 340.32 1138.9 345.038C1138.9 345.106 1138.83 345.175 1138.83 345.175C1137.67 347.363 1136.16 349.824 1134.31 352.422C1134.31 352.491 1134.25 352.491 1134.25 352.559C1132.74 354.679 1130.96 356.935 1129.05 359.26L1128.98 359.328C1128.09 360.354 1127.2 361.448 1126.25 362.542C1125.29 363.636 1124.33 364.661 1123.37 365.619L1123.31 365.755C1121.26 367.875 1119.2 369.858 1117.22 371.636C1117.15 371.636 1117.15 371.704 1117.08 371.704C1114.69 373.824 1112.44 375.601 1110.32 376.969C1110.25 377.037 1110.25 377.037 1110.18 377.037C1105.8 379.977 1102.38 381.14 1100.88 379.841L1097.46 376.764L1137.26 332.389Z" fill="#E2A935"/>
<path d="M1103.14 370.541L1110.38 377.037C1110.32 377.105 1110.32 377.105 1110.25 377.105C1105.87 380.045 1102.45 381.208 1100.95 379.908L1097.53 376.832L1103.14 370.541Z" fill="#E0A94D"/>
<path d="M1108.88 364.114L1117.22 371.635C1117.15 371.635 1117.15 371.703 1117.08 371.703C1114.69 373.823 1112.43 375.601 1110.32 376.968C1110.25 377.037 1110.25 377.037 1110.18 377.037L1103 370.609L1108.88 364.114Z" fill="#DC9A31"/>
<path d="M1114.55 357.755L1123.37 365.618L1123.31 365.755C1121.25 367.875 1119.2 369.857 1117.22 371.635C1117.15 371.635 1117.15 371.704 1117.08 371.704L1108.74 364.251L1114.55 357.755Z" fill="#E2A434"/>
<path d="M1137.26 332.388L1140.67 335.465C1142.11 336.764 1141.36 340.32 1138.9 345.037C1138.9 345.106 1138.83 345.174 1138.83 345.174L1131.58 338.679L1137.26 332.388Z" fill="#E0A94D"/>
<path d="M1131.72 338.61L1138.9 345.037C1138.9 345.106 1138.83 345.174 1138.83 345.174C1137.67 347.362 1136.16 349.824 1134.32 352.422C1134.32 352.49 1134.25 352.49 1134.25 352.559L1125.91 345.037L1131.72 338.61Z" fill="#DC9A31"/>
<path d="M1125.97 344.969L1134.32 352.422C1134.32 352.49 1134.25 352.49 1134.25 352.559C1132.74 354.678 1130.97 356.935 1129.05 359.259L1128.98 359.328L1120.16 351.465L1125.97 344.969Z" fill="#E2A434"/>
<path d="M1120.3 351.396L1129.12 359.259L1129.05 359.328C1128.16 360.353 1127.27 361.447 1126.32 362.541C1125.36 363.635 1124.4 364.661 1123.44 365.618L1123.38 365.755L1114.55 357.892L1120.3 351.396Z" fill="#EEBD37"/>
<path d="M1122.84 359.498C1133.82 347.225 1140.28 335.093 1137.27 332.399C1134.25 329.705 1122.91 337.47 1111.94 349.742C1100.96 362.015 1094.5 374.148 1097.52 376.842C1100.53 379.535 1111.87 371.77 1122.84 359.498Z" fill="#FADE4B"/>
<path d="M1134.59 335.396C1134.93 335.807 1135.13 336.422 1135 337.243C1134.93 337.037 1134.79 336.764 1134.66 336.627C1132.47 334.371 1122.96 341.072 1113.46 351.533C1105.6 360.148 1100.2 368.695 1099.78 372.661C1098.9 369.515 1104.64 359.943 1113.39 350.234C1122.9 339.772 1132.4 333.072 1134.59 335.396Z" fill="#E2A935"/>
<path opacity="0.5" d="M1134.66 336.628C1134.79 336.764 1134.93 337.038 1135 337.243C1134.59 341.209 1129.19 349.755 1121.32 358.439C1111.82 368.9 1102.32 375.601 1100.13 373.345C1099.99 373.14 1099.85 372.935 1099.79 372.661C1100.26 368.627 1105.67 360.148 1113.46 351.533C1122.96 341.004 1132.47 334.371 1134.66 336.628Z" fill="#E2A935"/>
<g filter="url(#filter0_f_1327_32881)">
<path d="M900.332 458.015L896.824 458.305C895.347 458.423 893.667 456.134 892.177 452.28C892.137 452.244 892.132 452.17 892.132 452.17C891.451 450.371 890.785 448.237 890.211 445.841C890.172 445.805 890.206 445.766 890.167 445.73C889.698 443.777 889.288 441.598 888.908 439.307L888.903 439.233C888.757 438.198 888.572 437.127 888.421 436.017C888.271 434.908 888.16 433.834 888.088 432.797L888.044 432.687C887.851 430.428 887.738 428.24 887.708 426.199C887.743 426.161 887.703 426.125 887.738 426.087C887.718 423.637 887.827 421.443 888.104 419.541C888.099 419.467 888.099 419.467 888.134 419.429C888.639 415.441 889.691 412.922 891.202 412.765L894.71 412.475L900.332 458.015Z" fill="#E2A935"/>
<path d="M895.824 418.944L888.379 419.575C888.374 419.5 888.374 419.5 888.409 419.462C888.915 415.46 889.97 412.933 891.487 412.776L895.007 412.485L895.824 418.944Z" fill="#E0A94D"/>
<path d="M896.529 425.544L887.947 426.245C887.982 426.207 887.942 426.171 887.977 426.133C887.956 423.679 888.065 421.481 888.343 419.576C888.338 419.501 888.338 419.501 888.373 419.463L895.731 418.835L896.529 425.544Z" fill="#DC9A31"/>
<path d="M897.222 432.06L888.204 432.849L888.16 432.738C887.967 430.476 887.853 428.286 887.823 426.242C887.858 426.204 887.818 426.168 887.853 426.13L896.39 425.393L897.222 432.06Z" fill="#E2A434"/>
<path d="M899.962 458.019L896.46 458.308C894.986 458.426 893.308 456.141 891.82 452.293C891.78 452.257 891.775 452.183 891.775 452.183L899.183 451.555L899.962 458.019Z" fill="#E0A94D"/>
<path d="M899.272 451.688L891.925 452.314C891.886 452.278 891.881 452.204 891.881 452.204C891.199 450.405 890.532 448.271 889.959 445.874C889.919 445.838 889.954 445.8 889.914 445.764L898.481 445.064L899.272 451.688Z" fill="#DC9A31"/>
<path d="M898.613 445.15L890.081 445.886C890.041 445.85 890.076 445.812 890.036 445.776C889.567 443.821 889.157 441.641 888.776 439.348L888.77 439.274L897.782 438.486L898.613 445.15Z" fill="#E2A434"/>
<path d="M897.88 438.61L888.866 439.398L888.861 439.324C888.715 438.287 888.53 437.215 888.379 436.104C888.228 434.994 888.117 433.919 888.045 432.881L888 432.771L897.015 431.983L897.88 438.61Z" fill="#EEBD37"/>
<path d="M892.192 435.681C893.681 448.316 897.257 458.343 900.179 458.078C903.101 457.812 904.263 447.354 902.774 434.719C901.285 422.084 897.709 412.056 894.787 412.322C891.865 412.588 890.703 423.046 892.192 435.681Z" fill="#FADE4B"/>
<path d="M899.933 454.9C899.523 454.875 899.063 454.666 898.657 454.158C898.81 454.228 899.037 454.295 899.186 454.291C901.597 454.256 902.511 445.428 901.247 434.621C900.223 425.701 897.997 418.191 895.907 415.876C898.178 417.034 900.825 425.275 902.034 435.266C903.299 446.073 902.384 454.902 899.933 454.9Z" fill="#E2A935"/>
<path opacity="0.5" d="M899.199 454.303C899.05 454.308 898.823 454.24 898.669 454.17C896.579 451.856 894.353 444.346 893.29 435.39C892.025 424.583 892.939 415.754 895.351 415.72C895.539 415.751 895.727 415.783 895.92 415.889C898.015 418.277 900.202 425.751 901.26 434.633C902.564 445.476 901.61 454.269 899.199 454.303Z" fill="#E2A935"/>
</g>
<g filter="url(#filter1_f_1327_32881)">
<path d="M1005.05 203.217L1001.59 205.874C1000.13 206.988 996.544 205.658 991.907 202.523C991.837 202.511 991.773 202.435 991.773 202.435C989.624 200.962 987.224 199.12 984.713 196.935C984.643 196.923 984.648 196.859 984.578 196.847C982.529 195.066 980.363 193.005 978.139 190.803L978.075 190.727C977.097 189.715 976.049 188.69 975.007 187.602C973.966 186.513 972.994 185.437 972.092 184.372L971.958 184.284C969.956 181.991 968.095 179.723 966.438 177.554C966.444 177.49 966.374 177.478 966.38 177.414C964.407 174.801 962.774 172.376 961.551 170.152C961.487 170.076 961.487 170.076 961.493 170.012C958.847 165.399 957.947 161.995 959.411 160.817L962.866 158.16L1005.05 203.217Z" fill="#E2A935"/>
<path d="M970.23 164.976L962.813 170.067C962.744 169.989 962.744 169.989 962.749 169.926C959.898 165.264 958.883 161.884 960.37 160.816L963.882 158.418L970.23 164.976Z" fill="#E0A94D"/>
<path d="M975.912 171.665L967.415 177.437C967.419 177.375 967.347 177.36 967.351 177.298C965.267 174.666 963.535 172.234 962.228 170.018C962.16 169.941 962.16 169.941 962.165 169.88L969.43 164.902L975.912 171.665Z" fill="#DC9A31"/>
<path d="M981.511 178.166L972.645 184.264L972.505 184.171C970.404 181.855 968.448 179.57 966.703 177.393C966.707 177.332 966.635 177.316 966.639 177.255L975.042 171.492L981.511 178.166Z" fill="#E2A434"/>
<path d="M1003.85 203.501L1000.44 205.786C998.996 206.745 995.352 205.308 990.611 202.133C990.54 202.118 990.473 202.044 990.473 202.044L997.684 197.192L1003.85 203.501Z" fill="#E0A94D"/>
<path d="M998.373 197.487L991.173 202.39C991.102 202.375 991.034 202.299 991.034 202.299C988.817 200.779 986.336 198.895 983.733 196.678C983.661 196.662 983.666 196.602 983.594 196.586L992.016 190.901L998.373 197.487Z" fill="#DC9A31"/>
<path d="M992.777 191.083L984.403 196.814C984.331 196.798 984.336 196.737 984.264 196.722C982.134 194.905 979.879 192.814 977.56 190.586L977.493 190.51L986.329 184.446L992.777 191.083Z" fill="#E2A434"/>
<path d="M987.102 184.68L978.252 190.759L978.185 190.683C977.163 189.658 976.07 188.618 974.981 187.516C973.892 186.415 972.875 185.329 971.93 184.259L971.79 184.167L980.64 178.087L987.102 184.68Z" fill="#EEBD37"/>
<path d="M978.756 184.833C989.759 197.516 1000.99 205.859 1003.85 203.469C1006.7 201.079 1000.1 188.86 989.093 176.178C978.089 163.496 966.855 155.152 964 157.542C961.146 159.933 967.752 172.151 978.756 184.833Z" fill="#FADE4B"/>
<path d="M1002.91 199.964C1002.46 200.174 1001.8 200.217 1000.95 199.912C1001.17 199.897 1001.47 199.838 1001.62 199.748C1004.12 198.319 997.718 188.401 987.371 177.637C978.851 168.74 970.244 162.036 966.114 160.781C969.468 160.702 979.128 167.939 988.737 177.869C999.084 188.633 1005.49 198.551 1002.91 199.964Z" fill="#E2A935"/>
<path opacity="0.5" d="M1001.68 199.869C1001.53 199.959 1001.23 200.019 1001.02 200.033C996.885 198.778 988.278 192.074 979.687 183.162C969.34 172.398 962.933 162.48 965.44 161.052C965.664 160.977 965.888 160.902 966.179 160.903C970.376 162.235 978.912 168.923 987.435 177.759C997.855 188.539 1004.19 198.441 1001.68 199.869Z" fill="#E2A935"/>
</g>
<path d="M631.193 441.868L634.611 444.944C636.047 446.244 635.295 449.799 632.834 454.517C632.834 454.585 632.765 454.654 632.765 454.654C631.603 456.842 630.099 459.303 628.252 461.901C628.252 461.97 628.184 461.97 628.184 462.038C626.68 464.158 624.902 466.414 622.988 468.739L622.919 468.807C622.03 469.833 621.141 470.927 620.184 472.021C619.227 473.115 618.27 474.141 617.312 475.098L617.244 475.235C615.193 477.354 613.142 479.337 611.159 481.115C611.09 481.115 611.09 481.183 611.022 481.183C608.629 483.303 606.373 485.08 604.253 486.448C604.185 486.516 604.185 486.516 604.116 486.516C599.74 489.456 596.321 490.619 594.817 489.32L591.398 486.243L631.193 441.868Z" fill="#E2A935"/>
<path d="M597.074 480.02L604.321 486.516C604.253 486.584 604.253 486.584 604.184 486.584C599.809 489.524 596.39 490.687 594.886 489.388L591.467 486.311L597.074 480.02Z" fill="#E0A94D"/>
<path d="M602.817 473.593L611.158 481.114C611.09 481.114 611.09 481.183 611.022 481.183C608.629 483.302 606.372 485.08 604.253 486.447C604.184 486.516 604.184 486.516 604.116 486.516L596.937 480.089L602.817 473.593Z" fill="#DC9A31"/>
<path d="M608.492 467.234L617.312 475.097L617.244 475.234C615.192 477.354 613.141 479.337 611.158 481.114C611.09 481.114 611.09 481.183 611.021 481.183L602.68 473.73L608.492 467.234Z" fill="#E2A434"/>
<path d="M631.193 441.867L634.611 444.944C636.047 446.243 635.295 449.799 632.834 454.516C632.834 454.585 632.765 454.653 632.765 454.653L625.518 448.158L631.193 441.867Z" fill="#E0A94D"/>
<path d="M625.655 448.089L632.834 454.516C632.834 454.585 632.766 454.653 632.766 454.653C631.603 456.841 630.099 459.303 628.253 461.901C628.253 461.969 628.185 461.969 628.185 462.038L619.843 454.516L625.655 448.089Z" fill="#DC9A31"/>
<path d="M619.91 454.448L628.252 461.901C628.252 461.969 628.184 461.969 628.184 462.038C626.68 464.157 624.902 466.414 622.987 468.738L622.919 468.807L614.099 460.944L619.91 454.448Z" fill="#E2A434"/>
<path d="M614.236 460.875L623.056 468.738L622.988 468.807C622.099 469.832 621.21 470.926 620.253 472.02C619.295 473.114 618.338 474.14 617.381 475.097L617.313 475.234L608.492 467.371L614.236 460.875Z" fill="#EEBD37"/>
<path d="M616.782 468.977C627.759 456.704 634.216 444.571 631.204 441.878C628.192 439.184 616.852 446.949 605.875 459.221C594.898 471.494 588.442 483.627 591.453 486.32C594.465 489.014 605.805 481.249 616.782 468.977Z" fill="#FADE4B"/>
<path d="M628.525 444.876C628.867 445.286 629.072 445.901 628.935 446.722C628.867 446.517 628.73 446.243 628.593 446.106C626.405 443.85 616.901 450.551 607.397 461.012C599.534 469.627 594.133 478.174 593.722 482.14C592.833 478.995 598.577 469.422 607.329 459.713C616.833 449.252 626.337 442.551 628.525 444.876Z" fill="#E2A935"/>
<path opacity="0.5" d="M628.594 446.107C628.731 446.243 628.867 446.517 628.936 446.722C628.525 450.688 623.124 459.235 615.261 467.918C605.757 478.379 596.253 485.08 594.065 482.824C593.928 482.619 593.791 482.414 593.723 482.14C594.201 478.106 599.603 469.627 607.398 461.012C616.902 450.483 626.406 443.85 628.594 446.107Z" fill="#E2A935"/>
<g filter="url(#filter2_f_1327_32881)">
<path d="M454.332 548.015L450.824 548.305C449.347 548.423 447.667 546.134 446.177 542.28C446.137 542.244 446.132 542.17 446.132 542.17C445.451 540.371 444.785 538.237 444.211 535.841C444.172 535.805 444.206 535.766 444.167 535.73C443.698 533.777 443.288 531.598 442.908 529.307L442.903 529.233C442.757 528.198 442.572 527.127 442.421 526.017C442.271 524.908 442.16 523.834 442.088 522.797L442.044 522.687C441.851 520.428 441.738 518.24 441.708 516.199C441.743 516.161 441.703 516.125 441.738 516.087C441.718 513.637 441.827 511.443 442.104 509.541C442.099 509.467 442.099 509.467 442.134 509.429C442.639 505.441 443.691 502.922 445.202 502.765L448.71 502.475L454.332 548.015Z" fill="#E2A935"/>
<path d="M449.824 508.944L442.379 509.575C442.374 509.5 442.374 509.5 442.409 509.462C442.915 505.46 443.971 502.933 445.487 502.776L449.007 502.485L449.824 508.944Z" fill="#E0A94D"/>
<path d="M450.529 515.544L441.947 516.245C441.982 516.207 441.942 516.171 441.977 516.133C441.956 513.679 442.065 511.481 442.343 509.576C442.338 509.501 442.338 509.501 442.373 509.463L449.731 508.835L450.529 515.544Z" fill="#DC9A31"/>
<path d="M451.222 522.06L442.204 522.849L442.16 522.738C441.967 520.476 441.853 518.286 441.823 516.242C441.858 516.204 441.818 516.168 441.853 516.13L450.39 515.393L451.222 522.06Z" fill="#E2A434"/>
<path d="M453.962 548.019L450.46 548.308C448.986 548.426 447.308 546.141 445.82 542.293C445.78 542.257 445.775 542.183 445.775 542.183L453.183 541.555L453.962 548.019Z" fill="#E0A94D"/>
<path d="M453.273 541.688L445.926 542.314C445.887 542.278 445.881 542.204 445.881 542.204C445.2 540.405 444.533 538.271 443.96 535.874C443.92 535.838 443.955 535.8 443.915 535.764L452.482 535.064L453.273 541.688Z" fill="#DC9A31"/>
<path d="M452.613 535.15L444.081 535.886C444.041 535.85 444.076 535.812 444.036 535.776C443.567 533.821 443.157 531.641 442.776 529.348L442.77 529.274L451.782 528.486L452.613 535.15Z" fill="#E2A434"/>
<path d="M451.88 528.61L442.866 529.398L442.861 529.324C442.715 528.287 442.53 527.215 442.379 526.104C442.228 524.994 442.117 523.919 442.045 522.881L442 522.771L451.015 521.983L451.88 528.61Z" fill="#EEBD37"/>
<path d="M446.192 525.681C447.681 538.316 451.257 548.343 454.179 548.078C457.101 547.812 458.263 537.354 456.774 524.719C455.285 512.084 451.709 502.056 448.787 502.322C445.865 502.588 444.703 513.046 446.192 525.681Z" fill="#FADE4B"/>
<path d="M453.933 544.9C453.523 544.875 453.063 544.666 452.657 544.158C452.81 544.228 453.037 544.295 453.186 544.291C455.597 544.256 456.511 535.428 455.247 524.621C454.223 515.701 451.997 508.191 449.907 505.876C452.178 507.034 454.825 515.275 456.034 525.266C457.299 536.073 456.384 544.902 453.933 544.9Z" fill="#E2A935"/>
<path opacity="0.5" d="M453.199 544.303C453.05 544.308 452.823 544.24 452.669 544.17C450.579 541.856 448.353 534.346 447.29 525.39C446.025 514.583 446.939 505.754 449.351 505.72C449.539 505.751 449.727 505.783 449.92 505.889C452.015 508.277 454.202 515.751 455.26 524.633C456.564 535.476 455.61 544.269 453.199 544.303Z" fill="#E2A935"/>
</g>
<g filter="url(#filter3_f_1327_32881)">
<path d="M559.046 293.217L555.591 295.874C554.133 296.988 550.544 295.658 545.907 292.523C545.837 292.511 545.773 292.435 545.773 292.435C543.624 290.962 541.224 289.12 538.713 286.935C538.643 286.923 538.648 286.859 538.578 286.847C536.529 285.066 534.363 283.005 532.139 280.803L532.075 280.727C531.097 279.715 530.049 278.69 529.007 277.602C527.965 276.513 526.994 275.437 526.092 274.372L525.958 274.284C523.956 271.991 522.095 269.723 520.438 267.554C520.444 267.49 520.374 267.478 520.38 267.414C518.407 264.801 516.774 262.376 515.551 260.152C515.487 260.076 515.487 260.076 515.493 260.012C512.847 255.399 511.947 251.995 513.411 250.817L516.866 248.16L559.046 293.217Z" fill="#E2A935"/>
<path d="M524.23 254.976L516.813 260.067C516.744 259.989 516.744 259.989 516.749 259.926C513.898 255.264 512.882 251.884 514.369 250.816L517.882 248.418L524.23 254.976Z" fill="#E0A94D"/>
<path d="M529.912 261.665L521.415 267.437C521.419 267.375 521.347 267.36 521.351 267.298C519.267 264.666 517.535 262.234 516.228 260.018C516.16 259.941 516.16 259.941 516.165 259.88L523.43 254.902L529.912 261.665Z" fill="#DC9A31"/>
<path d="M535.511 268.166L526.645 274.264L526.505 274.171C524.404 271.855 522.448 269.57 520.703 267.393C520.707 267.332 520.635 267.316 520.639 267.255L529.042 261.492L535.511 268.166Z" fill="#E2A434"/>
<path d="M557.852 293.501L554.437 295.786C552.996 296.745 549.352 295.308 544.611 292.133C544.54 292.118 544.473 292.044 544.473 292.044L551.684 287.192L557.852 293.501Z" fill="#E0A94D"/>
<path d="M552.373 287.487L545.173 292.39C545.102 292.375 545.034 292.299 545.034 292.299C542.817 290.779 540.336 288.895 537.733 286.678C537.661 286.662 537.666 286.602 537.594 286.586L546.016 280.901L552.373 287.487Z" fill="#DC9A31"/>
<path d="M546.778 281.083L538.404 286.814C538.332 286.798 538.337 286.737 538.265 286.722C536.135 284.905 533.88 282.814 531.561 280.586L531.494 280.51L540.33 274.446L546.778 281.083Z" fill="#E2A434"/>
<path d="M541.102 274.68L532.252 280.759L532.185 280.683C531.163 279.658 530.07 278.618 528.981 277.516C527.892 276.415 526.875 275.329 525.93 274.259L525.79 274.167L534.64 268.087L541.102 274.68Z" fill="#EEBD37"/>
<path d="M532.757 274.833C543.76 287.516 554.995 295.859 557.849 293.469C560.704 291.079 554.098 278.86 543.094 266.178C532.09 253.496 520.856 245.152 518.001 247.542C515.147 249.933 521.753 262.151 532.757 274.833Z" fill="#FADE4B"/>
<path d="M556.912 289.964C556.46 290.174 555.802 290.217 554.951 289.912C555.17 289.897 555.466 289.838 555.618 289.748C558.125 288.319 551.718 278.401 541.371 267.637C532.851 258.74 524.244 252.036 520.114 250.781C523.468 250.702 533.128 257.939 542.737 267.869C553.084 278.633 559.491 288.551 556.912 289.964Z" fill="#E2A935"/>
<path opacity="0.5" d="M555.682 289.869C555.53 289.959 555.235 290.019 555.015 290.033C550.885 288.778 542.278 282.074 533.687 273.162C523.34 262.398 516.933 252.48 519.44 251.052C519.664 250.977 519.888 250.902 520.179 250.903C524.376 252.235 532.912 258.923 541.435 267.759C551.855 278.539 558.189 288.441 555.682 289.869Z" fill="#E2A935"/>
</g>
<path d="M818.243 248.812C818.023 248.05 753.064 224.711 735.922 201.922C735.922 201.922 734.826 195.083 729.966 191.411C725.106 187.739 715.035 191.111 715.01 194.299C714.991 197.433 721.159 205.787 733.875 209.031C733.875 209.031 769.085 244.842 817.706 255.029C817.767 255.042 819.282 252.61 818.243 248.812Z" fill="#F9CEB5"/>
<path d="M820.196 215.617C820.196 215.617 866.607 280.658 909.761 290.358C952.914 300.057 958.129 331.047 958.129 331.047C958.129 331.047 923.303 315.676 911.12 324.023C898.936 332.37 867.826 333.865 857.508 325.249C847.259 316.591 833.132 297.99 820.349 300.891C807.573 303.736 791.438 275.596 791.438 275.596L820.196 215.617Z" fill="#FF4B55"/>
<path opacity="0.3" d="M815.39 298.087C820.907 301.061 827.635 303.439 833.265 301.745C834.51 301.367 835.652 300.81 836.944 300.547C840.174 299.89 843.772 301.206 846.97 302.704C853.358 305.75 859.264 309.594 864.443 314.186C868.268 317.604 872.201 321.625 877.364 322.523C880.989 323.159 884.457 322.129 887.626 320.985C890.801 319.79 894.058 318.453 896.123 316.134C898.251 313.828 898.969 310.285 897.022 307.409C896.069 306.055 894.647 304.92 893.952 303.513C893.257 302.106 893.895 300.128 895.589 300.158C895.963 300.182 896.391 300.269 896.752 300.396C901.65 301.872 906.486 303.336 911.377 304.864C915.669 306.164 920.445 307.616 924.661 306.633C927.714 305.887 928.195 303.666 929.343 302.109C951.782 314.08 955.045 332.249 955.045 332.249C955.045 332.249 920.846 317.924 908.882 325.703C896.918 333.482 866.369 334.875 856.236 326.845C846.172 318.776 832.299 301.442 819.746 304.145C807.2 306.797 791.356 280.571 791.356 280.571L791.709 279.8C798.774 286.781 806.409 293.245 815.39 298.087Z" fill="black"/>
<path opacity="0.3" d="M830.889 289.528C838.886 296.998 847.82 303.773 854.822 311.868C860.818 318.766 865.255 326.583 867.823 334.469C864.02 333.32 860.721 331.805 858.395 329.881C852.403 324.859 845.126 316.858 837.625 311.005C836.283 307.295 834.736 303.643 832.789 299.997C827.512 290.033 820.411 280.976 816.052 271.139C819.354 277.726 824.953 283.969 830.889 289.528Z" fill="#20A2A5"/>
<path opacity="0.3" d="M820.406 271.078C819.165 268.656 818.277 266.265 817.69 263.718C818.416 266.301 819.304 268.691 820.406 271.078Z" fill="black"/>
<path opacity="0.3" d="M912.904 320.888C911.105 318.58 909.039 316.359 906.832 314.255C898.514 306.467 888.209 300.411 878.333 293.955C871.331 289.364 864.476 284.607 857.835 279.651C849.297 273.271 841.436 267.159 838.275 258.567C852.352 275.836 878.395 293.97 922.911 305.74C930.767 307.816 942.35 320.339 946.71 326.199C936.39 322.61 921.273 318.299 912.904 320.888Z" fill="black"/>
<path d="M821.182 289.003C818.965 294.132 839.679 367.934 840.091 369.94C840.502 371.947 826.811 394.525 826.811 394.525C826.811 394.525 821.282 394.285 831.756 369.888L806.685 297.345L821.182 289.003Z" fill="#B3353C"/>
<path d="M796.756 279.094C795.012 284.352 824.353 355.823 824.993 357.759C825.634 359.695 813.907 383.421 813.907 383.421C813.907 383.421 808.172 383.684 816.35 358.475L782.655 288.702L796.756 279.094Z" fill="#B3353C"/>
<path d="M767.13 238.918C759.528 201.069 766.606 169.006 782.938 167.304C799.27 165.603 818.673 194.906 826.275 232.755C833.877 270.605 826.799 302.667 810.467 304.369C794.135 306.071 774.732 276.767 767.13 238.918Z" fill="#FFEB4C"/>
<path opacity="0.6" d="M815.99 249.885L830.588 252.263C830.916 255.374 831.064 258.332 831.096 261.154C825.235 260.283 819.953 259.507 819.953 259.507L815.99 249.885Z" fill="#FFEB4C"/>
<path opacity="0.6" d="M829.74 230.936C830.126 232.352 830.512 233.768 830.838 235.114L814.512 232.874L809.532 215.406L824.431 216.012C826.532 220.781 828.276 225.786 829.74 230.936Z" fill="#FFEB4C"/>
<path opacity="0.5" d="M811.649 190.344C799.873 191.378 785.498 192.745 785.498 192.745L804.66 271.283L833.318 271.455C831.078 288.344 823.585 299.858 812.159 300.788C805.692 301.359 798.786 298.432 792.14 292.874L773.649 204.092C773.649 204.092 773.622 185.936 774.043 171.757C775.979 170.803 778.076 170.182 780.327 169.953C790.66 169.144 801.99 177.089 811.649 190.344Z" fill="#EAB726"/>
<path d="M762.088 240.324C754.512 202.548 760.796 170.628 776.123 169.029C791.451 167.429 810.017 196.756 817.593 234.531C825.168 272.307 818.884 304.227 803.557 305.826C788.23 307.426 769.663 278.099 762.088 240.324Z" fill="#FFDD50"/>
<path opacity="0.5" d="M767.684 267.58C783.339 278.248 799.05 287.925 814.712 297.473C814.769 297.544 814.898 297.572 814.955 297.644C817.811 294.845 820.081 290.915 821.735 286.085C799.619 262.506 777.197 240.336 754.69 218.855C755.173 225.626 756.257 232.882 758.098 240.421C760.448 250.253 763.741 259.407 767.684 267.58ZM824.221 251.586C824.86 257.094 825.064 262.388 824.853 267.297C814.53 260.506 804.186 253.355 793.814 245.904C780.717 236.443 767.564 226.379 754.488 216.215C753.916 203.761 755.58 192.975 759.169 185.322L759.227 185.393C764.726 192.196 771.31 197.17 777.08 202.851C789.042 214.543 800.961 226.579 812.744 239.175C816.605 243.202 820.388 247.329 824.221 251.586Z" fill="#FFEB4C"/>
<path d="M763.918 240.133C756.832 204.801 762.695 174.948 777.011 173.454C791.328 171.96 808.678 199.391 815.763 234.722C822.848 270.053 816.986 299.906 802.669 301.401C788.352 302.895 771.003 275.464 763.918 240.133Z" fill="#F9A91C"/>
<path d="M766.526 239.814C759.758 206.065 765.357 177.549 779.031 176.122C792.705 174.695 809.277 200.897 816.045 234.646C822.812 268.395 817.214 296.91 803.539 298.338C789.865 299.765 773.294 273.563 766.526 239.814Z" fill="#FFEB4C"/>
<path d="M779.611 210.433L787.426 265.209C788.122 270.09 786.098 274.333 782.899 274.699C779.699 275.064 776.549 271.413 775.853 266.532L768.038 211.756C767.341 206.875 769.366 202.633 772.565 202.267C775.765 201.901 778.915 205.552 779.611 210.433Z" fill="#EAB726"/>
<path d="M789.319 244.737L783.258 233.957L783.077 232.657C784.706 231.083 786.015 229.332 787.1 227.393L789.319 244.737Z" fill="#EAB726"/>
<path d="M786.369 227.078C789.403 221.623 790.461 214.679 790.76 205.674C790.88 201.881 792.669 199.06 795.126 198.772C798.82 198.34 802.215 203.657 801.859 209.29C801.021 222.045 798.374 228.591 795.109 233.797L809.397 258.053C812.437 263.227 810.952 270.774 806.774 271.263C804.956 271.476 803.067 270.192 801.787 267.914L788.564 244.394L786.369 227.078Z" fill="#EAB726"/>
<path opacity="0.3" d="M782.741 280.021C791.234 280.859 799.17 277.352 803.207 267.399C805.724 261.231 806.574 252.896 806.696 244.286C806.834 237.733 806.604 230.8 805.564 223.694C804.493 216.28 802.403 208.71 799.704 201.554C797.201 195.043 794.174 188.844 790.786 183.293C790.673 183.088 790.553 182.942 790.441 182.736C802.324 191.844 813.628 210.974 819.278 233.674C827.343 266.307 820.654 293.874 804.314 295.294C796.039 296.011 786.836 289.829 778.741 279.292C780.009 279.682 781.368 279.91 782.741 280.021Z" fill="#EAB726"/>
<path d="M829.928 259.662C829.506 258.934 764.303 255.169 740.921 236.542C740.921 236.542 737.393 229.651 731.866 227.284C726.284 224.973 718.744 231.8 719.873 235.159C721.062 238.521 729.491 245.388 741.747 244.676C741.747 244.676 785.613 271.282 831.766 266.362C831.771 266.421 832.223 263.367 829.928 259.662Z" fill="#F9CEB5"/>
<defs>
<filter id="filter0_f_1327_32881" x="885.708" y="410.317" width="19.7148" height="49.9957" filterUnits="userSpaceOnUse" color-interpolation-filters="sRGB">
<feFlood flood-opacity="0" result="BackgroundImageFix"/>
<feBlend mode="normal" in="SourceGraphic" in2="BackgroundImageFix" result="shape"/>
<feGaussianBlur stdDeviation="1" result="effect1_foregroundBlur_1327_32881"/>
</filter>
<filter id="filter1_f_1327_32881" x="954.712" y="153.134" width="54.334" height="57.1288" filterUnits="userSpaceOnUse" color-interpolation-filters="sRGB">
<feFlood flood-opacity="0" result="BackgroundImageFix"/>
<feBlend mode="normal" in="SourceGraphic" in2="BackgroundImageFix" result="shape"/>
<feGaussianBlur stdDeviation="2" result="effect1_foregroundBlur_1327_32881"/>
</filter>
<filter id="filter2_f_1327_32881" x="439.708" y="500.317" width="19.7148" height="49.9957" filterUnits="userSpaceOnUse" color-interpolation-filters="sRGB">
<feFlood flood-opacity="0" result="BackgroundImageFix"/>
<feBlend mode="normal" in="SourceGraphic" in2="BackgroundImageFix" result="shape"/>
<feGaussianBlur stdDeviation="1" result="effect1_foregroundBlur_1327_32881"/>
</filter>
<filter id="filter3_f_1327_32881" x="508.711" y="243.134" width="54.335" height="57.1288" filterUnits="userSpaceOnUse" color-interpolation-filters="sRGB">
<feFlood flood-opacity="0" result="BackgroundImageFix"/>
<feBlend mode="normal" in="SourceGraphic" in2="BackgroundImageFix" result="shape"/>
<feGaussianBlur stdDeviation="2" result="effect1_foregroundBlur_1327_32881"/>
</filter>
<linearGradient id="paint0_linear_1327_32881" x1="790.385" y1="-85.2993" x2="790.385" y2="251.701" gradientUnits="userSpaceOnUse">
<stop stop-color="#20A2A5"/>
<stop offset="1" stop-color="#20A2A5" stop-opacity="0"/>
</linearGradient>
<linearGradient id="paint1_linear_1327_32881" x1="790.385" y1="-85.2993" x2="790.385" y2="251.701" gradientUnits="userSpaceOnUse">
<stop stop-color="#20A2A5"/>
<stop offset="1" stop-color="#20A2A5" stop-opacity="0"/>
</linearGradient>
<linearGradient id="paint2_linear_1327_32881" x1="790.385" y1="-85.2993" x2="790.385" y2="251.701" gradientUnits="userSpaceOnUse">
<stop stop-color="#20A2A5"/>
<stop offset="1" stop-color="#20A2A5" stop-opacity="0"/>
</linearGradient>
<linearGradient id="paint3_linear_1327_32881" x1="720.881" y1="639.502" x2="720.881" y2="428.884" gradientUnits="userSpaceOnUse">
<stop stop-color="white" stop-opacity="0"/>
<stop offset="0.9377" stop-color="white" stop-opacity="0.9377"/>
<stop offset="1" stop-color="white"/>
</linearGradient>
<linearGradient id="paint4_linear_1327_32881" x1="1011.29" y1="450.952" x2="896.511" y2="287.555" gradientUnits="userSpaceOnUse">
<stop stop-color="white" stop-opacity="0"/>
<stop offset="0.9377" stop-color="white" stop-opacity="0.9377"/>
<stop offset="1" stop-color="white"/>
</linearGradient>
<linearGradient id="paint5_linear_1327_32881" x1="406.294" y1="633.462" x2="450.783" y2="410.174" gradientUnits="userSpaceOnUse">
<stop stop-color="white" stop-opacity="0"/>
<stop offset="0.9377" stop-color="white" stop-opacity="0.9377"/>
<stop offset="1" stop-color="white"/>
</linearGradient>
<linearGradient id="paint6_linear_1327_32881" x1="642.125" y1="719.288" x2="642.125" y2="548.604" gradientUnits="userSpaceOnUse">
<stop stop-color="white" stop-opacity="0"/>
<stop offset="0.9377" stop-color="white" stop-opacity="0.9377"/>
<stop offset="1" stop-color="white"/>
</linearGradient>
<linearGradient id="paint7_linear_1327_32881" x1="343.408" y1="716.819" x2="343.408" y2="484.499" gradientUnits="userSpaceOnUse">
<stop stop-color="white" stop-opacity="0"/>
<stop offset="0.9377" stop-color="white" stop-opacity="0.9377"/>
<stop offset="1" stop-color="white"/>
</linearGradient>
<linearGradient id="paint8_linear_1327_32881" x1="100.494" y1="405.12" x2="219.694" y2="255.609" gradientUnits="userSpaceOnUse">
<stop stop-color="white" stop-opacity="0"/>
<stop offset="0.9377" stop-color="white" stop-opacity="0.9377"/>
<stop offset="1" stop-color="white"/>
</linearGradient>
<linearGradient id="paint9_linear_1327_32881" x1="930.773" y1="526.297" x2="898.455" y2="370.651" gradientUnits="userSpaceOnUse">
<stop stop-color="white" stop-opacity="0"/>
<stop offset="0.9377" stop-color="white" stop-opacity="0.9377"/>
<stop offset="1" stop-color="white"/>
</linearGradient>
<linearGradient id="paint10_linear_1327_32881" x1="223.129" y1="532.814" x2="273.95" y2="352.95" gradientUnits="userSpaceOnUse">
<stop stop-color="white" stop-opacity="0"/>
<stop offset="0.9377" stop-color="white" stop-opacity="0.9377"/>
<stop offset="1" stop-color="white"/>
</linearGradient>
<linearGradient id="paint11_linear_1327_32881" x1="440.715" y1="616.5" x2="439.814" y2="499.513" gradientUnits="userSpaceOnUse">
<stop stop-color="white" stop-opacity="0"/>
<stop offset="0.9377" stop-color="white" stop-opacity="0.9377"/>
<stop offset="1" stop-color="white"/>
</linearGradient>
<linearGradient id="paint12_linear_1327_32881" x1="934.207" y1="610.963" x2="910.048" y2="417.635" gradientUnits="userSpaceOnUse">
<stop stop-color="#E9E9E9" stop-opacity="0.9377"/>
<stop offset="0.572917" stop-color="white"/>
<stop offset="1" stop-color="white" stop-opacity="0"/>
</linearGradient>
<linearGradient id="paint13_linear_1327_32881" x1="708.653" y1="624.409" x2="708.653" y2="489.576" gradientUnits="userSpaceOnUse">
<stop stop-color="#D5D5D5" stop-opacity="0"/>
<stop offset="0.479167" stop-color="white" stop-opacity="0.9377"/>
<stop offset="1" stop-color="white" stop-opacity="0"/>
</linearGradient>
<linearGradient id="paint14_linear_1327_32881" x1="299.627" y1="419.586" x2="384.374" y2="149.909" gradientUnits="userSpaceOnUse">
<stop stop-color="white" stop-opacity="0"/>
<stop offset="0.9377" stop-color="white" stop-opacity="0.9377"/>
<stop offset="1" stop-color="white"/>
</linearGradient>
<linearGradient id="paint15_linear_1327_32881" x1="429.79" y1="563.189" x2="397.617" y2="259.931" gradientUnits="userSpaceOnUse">
<stop stop-color="white" stop-opacity="0"/>
<stop offset="0.9377" stop-color="white" stop-opacity="0.9377"/>
<stop offset="1" stop-color="white"/>
</linearGradient>
<linearGradient id="paint16_linear_1327_32881" x1="728.604" y1="487.579" x2="697.949" y2="242.264" gradientUnits="userSpaceOnUse">
<stop stop-color="white" stop-opacity="0"/>
<stop offset="0.9377" stop-color="white" stop-opacity="0.9377"/>
<stop offset="1" stop-color="white"/>
</linearGradient>
<linearGradient id="paint17_linear_1327_32881" x1="943.345" y1="373.802" x2="873.012" y2="136.794" gradientUnits="userSpaceOnUse">
<stop stop-color="white" stop-opacity="0"/>
<stop offset="0.9377" stop-color="white" stop-opacity="0.9377"/>
<stop offset="1" stop-color="white"/>
</linearGradient>
<linearGradient id="paint18_linear_1327_32881" x1="624.855" y1="536.899" x2="606.346" y2="284.729" gradientUnits="userSpaceOnUse">
<stop stop-color="white" stop-opacity="0"/>
<stop offset="0.9377" stop-color="white" stop-opacity="0.9377"/>
<stop offset="1" stop-color="white"/>
</linearGradient>
</defs>
</svg>
