<svg width="28" height="27" viewBox="0 0 28 27" fill="none" xmlns="http://www.w3.org/2000/svg">
<path d="M9.5053 21.3244C9.60583 21.1519 9.63944 20.9473 9.59956 20.7507C9.55967 20.5541 9.44917 20.3797 9.28963 20.2614C8.02458 19.3619 7.03939 18.1124 6.45104 16.6612C5.8627 15.2101 5.69591 13.6182 5.97047 12.0746C6.24504 10.531 6.94942 9.10051 8 7.953C9.05058 6.80548 10.4032 5.98912 11.8973 5.60085L10.7908 7.55178C10.6839 7.74027 10.655 7.96434 10.7105 8.17469C10.7661 8.38505 10.9014 8.56445 11.0869 8.67344C11.2724 8.78242 11.4927 8.81207 11.6994 8.75585C11.9062 8.69963 12.0824 8.56215 12.1893 8.37366L13.8018 5.53078C14.0156 5.15379 14.0733 4.70565 13.9623 4.28495C13.8512 3.86424 13.5804 3.50544 13.2095 3.28746L10.4125 1.64371C10.227 1.53472 10.0067 1.50508 9.79995 1.56129C9.59321 1.61751 9.417 1.75499 9.31009 1.94349C9.20317 2.13198 9.17431 2.35605 9.22984 2.5664C9.28538 2.77676 9.42077 2.95616 9.60622 3.06515L11.311 4.06702C9.54583 4.5622 7.95593 5.55746 6.72646 6.9369C5.497 8.31633 4.67858 10.0232 4.36653 11.8586C4.05447 13.694 4.26162 15.5825 4.96385 17.3042C5.66608 19.0258 6.83448 20.5097 8.33299 21.5831C8.42516 21.6495 8.52989 21.6957 8.64052 21.7186C8.75114 21.7416 8.86523 21.7409 8.97552 21.7166C9.08581 21.6923 9.18987 21.6448 9.28108 21.5773C9.3723 21.5098 9.44865 21.4236 9.5053 21.3244Z" fill="white"/>
<path d="M18.5693 25.0694C18.6762 24.8809 18.7051 24.6568 18.6495 24.4465C18.594 24.2361 18.4586 24.0567 18.2732 23.9477L16.5684 22.9458C18.3335 22.4507 19.9234 21.4554 21.1529 20.076C22.3824 18.6965 23.2008 16.9897 23.5128 15.1543C23.8249 13.3188 23.6178 11.4303 22.9155 9.70868C22.2133 7.98705 21.0449 6.50314 19.5464 5.42978C19.4542 5.36338 19.3495 5.31721 19.2389 5.29422C19.1282 5.27123 19.0141 5.27193 18.9039 5.29627C18.7936 5.3206 18.6895 5.36805 18.5983 5.43557C18.5071 5.5031 18.4307 5.58923 18.3741 5.68847C18.2735 5.861 18.2399 6.06555 18.2798 6.26214C18.3197 6.45872 18.4302 6.6332 18.5897 6.75147C19.8548 7.65094 20.84 8.90044 21.4283 10.3516C22.0167 11.8028 22.1835 13.3947 21.9089 14.9383C21.6343 16.4819 20.9299 17.9123 19.8794 19.0599C18.8288 20.2074 17.4761 21.0237 15.982 21.412L17.0886 19.4611C17.1955 19.2726 17.2244 19.0485 17.1689 18.8382C17.1133 18.6278 16.9779 18.4484 16.7925 18.3394C16.607 18.2304 16.3867 18.2008 16.1799 18.257C15.9732 18.3132 15.797 18.4507 15.6901 18.6392L14.0776 21.4821C13.8638 21.8591 13.806 22.3072 13.9171 22.7279C14.0282 23.1486 14.299 23.5074 14.6699 23.7254L17.4669 25.3692C17.6524 25.4781 17.8727 25.5078 18.0794 25.4516C18.2862 25.3953 18.4624 25.2579 18.5693 25.0694Z" fill="white"/>
</svg>
