<svg width="21" height="21" viewBox="0 0 21 21" fill="none" xmlns="http://www.w3.org/2000/svg">
<path d="M8.49924 7.25881C8.58436 7.25881 8.66888 7.23857 8.74745 7.19869L12.6133 5.21545C12.8038 5.11784 12.9211 4.91785 12.9139 4.70179C12.9068 4.48572 12.777 4.29407 12.5806 4.20895L8.77899 2.56379C8.61114 2.49118 8.4177 2.50725 8.26413 2.60843C8.10998 2.70843 8.01653 2.87985 8.01296 3.06496L7.99212 4.24705C5.03334 5.247 3.07093 8.03853 3.17866 11.1818C3.26437 13.6781 4.69169 15.9727 6.90468 17.169C6.98741 17.2137 7.0761 17.2345 7.16359 17.2345C7.36001 17.2345 7.54988 17.128 7.64869 16.9411C7.79154 16.6703 7.69095 16.334 7.4231 16.1893C5.55474 15.1787 4.34944 13.2454 4.27682 11.1431C4.19052 8.62898 5.68152 6.38147 7.97129 5.43866L7.94927 6.69276C7.94629 6.8874 8.04391 7.07013 8.20759 7.17369C8.29628 7.23083 8.39746 7.25881 8.49924 7.25881ZM17.456 10.7003C17.3762 8.38256 16.156 6.24695 14.193 4.98689C13.9347 4.82202 13.5966 4.8988 13.4341 5.15831C13.2722 5.41723 13.3478 5.76066 13.6038 5.92494C15.2614 6.98858 16.2917 8.7879 16.3584 10.7384C16.4387 13.0704 15.1525 15.1941 13.1014 16.2417L13.0693 14.9882C13.0633 14.7936 12.958 14.6162 12.7907 14.5198C12.6235 14.4239 12.4181 14.4228 12.2508 14.5186L8.47305 16.6625C8.28675 16.7685 8.17842 16.9732 8.1939 17.1887C8.20997 17.4036 8.34746 17.5899 8.54745 17.6666L12.4175 19.1499C12.4812 19.1737 12.5467 19.1856 12.6121 19.1856C12.724 19.1856 12.8359 19.1505 12.93 19.0832C13.0794 18.9761 13.1657 18.8005 13.1615 18.616L13.1318 17.4506C15.8322 16.306 17.5571 13.643 17.456 10.7003Z" fill="#0D8284"/>
</svg>
