<svg width="15" height="18" viewBox="0 0 15 18" fill="none" xmlns="http://www.w3.org/2000/svg">
<path d="M5.49912 5.2589C5.58423 5.2589 5.66876 5.23866 5.74732 5.19878L9.61321 3.21554C9.80368 3.11793 9.92093 2.91794 9.91379 2.70188C9.90665 2.48582 9.77689 2.29416 9.58047 2.20904L5.77887 0.563884C5.61102 0.491268 5.41758 0.507339 5.26401 0.608525C5.10985 0.70852 5.01641 0.87994 5.01283 1.06505L4.992 2.24714C2.03321 3.24709 0.0708075 6.03862 0.17854 9.18192C0.264251 11.6782 1.69156 13.9728 3.90455 15.1691C3.98729 15.2138 4.07597 15.2346 4.16347 15.2346C4.35989 15.2346 4.54976 15.1281 4.64857 14.9412C4.79142 14.6704 4.69083 14.3341 4.42298 14.1894C2.55462 13.1788 1.34932 11.2455 1.2767 9.14324C1.1904 6.62907 2.6814 4.38156 4.97117 3.43875L4.94915 4.69285C4.94617 4.88749 5.04378 5.07022 5.20747 5.17378C5.29615 5.23092 5.39734 5.2589 5.49912 5.2589ZM14.4558 8.7004C14.3761 6.38265 13.1559 4.24704 11.1929 2.98698C10.9346 2.82211 10.5965 2.89889 10.434 3.1584C10.2721 3.41732 10.3477 3.76076 10.6036 3.92503C12.2613 4.98867 13.2916 6.78799 13.3583 8.73849C13.4386 11.0705 12.1524 13.1942 10.1013 14.2418L10.0691 12.9883C10.0632 12.7937 9.95784 12.6163 9.79058 12.5199C9.62333 12.424 9.41798 12.4228 9.25073 12.5187L5.47293 14.6626C5.28663 14.7686 5.1783 14.9733 5.19378 15.1888C5.20985 15.4037 5.34734 15.59 5.54733 15.6667L9.41739 17.15C9.48107 17.1738 9.54655 17.1857 9.61202 17.1857C9.72392 17.1857 9.83582 17.1506 9.92986 17.0833C10.0793 16.9762 10.1656 16.8006 10.1614 16.6161L10.1316 15.4507C12.8321 14.3061 14.557 11.6431 14.4558 8.7004Z" fill="#0D8284"/>
<path d="M5.49912 5.2589C5.58423 5.2589 5.66876 5.23866 5.74732 5.19878L9.61321 3.21554C9.80368 3.11793 9.92093 2.91794 9.91379 2.70188C9.90665 2.48582 9.77689 2.29416 9.58047 2.20904L5.77887 0.563884C5.61102 0.491268 5.41758 0.507339 5.26401 0.608525C5.10985 0.70852 5.01641 0.87994 5.01283 1.06505L4.992 2.24714C2.03321 3.24709 0.0708075 6.03862 0.17854 9.18192C0.264251 11.6782 1.69156 13.9728 3.90455 15.1691C3.98729 15.2138 4.07597 15.2346 4.16347 15.2346C4.35989 15.2346 4.54976 15.1281 4.64857 14.9412C4.79142 14.6704 4.69083 14.3341 4.42298 14.1894C2.55462 13.1788 1.34932 11.2455 1.2767 9.14324C1.1904 6.62907 2.6814 4.38156 4.97117 3.43875L4.94915 4.69285C4.94617 4.88749 5.04378 5.07022 5.20747 5.17378C5.29615 5.23092 5.39734 5.2589 5.49912 5.2589ZM14.4558 8.7004C14.3761 6.38265 13.1559 4.24704 11.1929 2.98698C10.9346 2.82211 10.5965 2.89889 10.434 3.1584C10.2721 3.41732 10.3477 3.76076 10.6036 3.92503C12.2613 4.98867 13.2916 6.78799 13.3583 8.73849C13.4386 11.0705 12.1524 13.1942 10.1013 14.2418L10.0691 12.9883C10.0632 12.7937 9.95784 12.6163 9.79058 12.5199C9.62333 12.424 9.41798 12.4228 9.25073 12.5187L5.47293 14.6626C5.28663 14.7686 5.1783 14.9733 5.19378 15.1888C5.20985 15.4037 5.34734 15.59 5.54733 15.6667L9.41739 17.15C9.48107 17.1738 9.54655 17.1857 9.61202 17.1857C9.72392 17.1857 9.83582 17.1506 9.92986 17.0833C10.0793 16.9762 10.1656 16.8006 10.1614 16.6161L10.1316 15.4507C12.8321 14.3061 14.557 11.6431 14.4558 8.7004Z" fill="black" fill-opacity="0.2"/>
</svg>
