<svg width="29" height="19" viewBox="0 0 29 19" fill="none" xmlns="http://www.w3.org/2000/svg">
<path d="M27.5535 10.0628H20.0445C19.962 11.2181 19.7144 12.3733 19.2193 13.3635H26.6458H27.471C27.9661 13.3635 28.2961 13.0334 28.2961 12.5383V10.888C28.3787 10.3929 28.0486 10.0628 27.5535 10.0628ZM26.7283 5.11182H19.3018C19.7144 6.10202 19.962 7.25726 20.127 8.41249H26.7283C27.2234 8.41249 27.5535 8.08242 27.5535 7.58732V5.93699C27.5535 5.52441 27.1409 5.11182 26.7283 5.11182ZM27.5535 0.985994C27.5535 0.490894 27.2234 0.160828 26.7283 0.160828H16.8263C16.4137 0.160828 16.0837 0.408377 16.0012 0.82096C16.9088 1.56361 17.734 2.47129 18.3941 3.46149H26.6458C27.0584 3.46149 27.471 3.13143 27.471 2.63633V0.985994H27.5535ZM26.7283 15.0138H18.4767C18.4767 15.0138 18.4767 15.0138 18.3941 15.0138C17.734 16.004 16.9088 16.9117 16.0012 17.6544C16.0837 18.0669 16.4137 18.3145 16.8263 18.3145H26.7283C27.2234 18.3145 27.5535 17.9844 27.5535 17.4893V15.839C27.5535 15.4264 27.1409 15.0138 26.7283 15.0138ZM18.4767 9.23766C18.4767 4.20414 14.4333 0.160828 9.39983 0.160828C4.36631 0.160828 0.322998 4.20414 0.322998 9.23766C0.322998 14.2712 4.36631 18.3145 9.39983 18.3145C14.4333 18.3145 18.4767 14.2712 18.4767 9.23766ZM9.39983 8.41249C11.2152 8.41249 12.7005 9.89779 12.7005 11.7132C12.7005 13.281 11.6278 14.5187 10.225 14.9313V15.9215C10.225 16.4166 9.89493 16.7467 9.39983 16.7467C8.90473 16.7467 8.57466 16.4166 8.57466 15.9215V14.9313C7.17188 14.6012 6.09916 13.281 6.09916 11.7132C6.09916 11.2181 6.42923 10.888 6.92433 10.888C7.41943 10.888 7.74949 11.2181 7.74949 11.7132C7.74949 12.6208 8.49214 13.3635 9.39983 13.3635C10.3075 13.3635 11.0502 12.6208 11.0502 11.7132C11.0502 10.8055 10.3075 10.0628 9.39983 10.0628C7.58446 10.0628 6.09916 8.57752 6.09916 6.76216C6.09916 5.19434 7.17188 3.95659 8.57466 3.54401V2.63633C8.57466 2.14123 8.90473 1.81116 9.39983 1.81116C9.89493 1.81116 10.225 2.14123 10.225 2.63633V3.54401C11.6278 3.87408 12.7005 5.19434 12.7005 6.76216C12.7005 7.25726 12.3704 7.58732 11.8753 7.58732C11.3802 7.58732 11.0502 7.25726 11.0502 6.76216C11.0502 5.85447 10.39 5.19434 9.48234 5.11182H9.39983H9.31731C8.40963 5.19434 7.74949 5.85447 7.74949 6.76216C7.74949 7.66984 8.49214 8.41249 9.39983 8.41249Z" fill="#0D8284"/>
</svg>
