<svg width="18" height="12" viewBox="0 0 18 12" fill="none" xmlns="http://www.w3.org/2000/svg">
<path d="M17.1513 7.57445C17.1513 7.77373 17.0788 7.95489 16.9339 8.0817L13.5643 11.4513C13.4194 11.5962 13.2382 11.6505 13.0571 11.6505C12.8759 11.6505 12.6766 11.56 12.5498 11.4331C12.26 11.1433 12.26 10.6723 12.5498 10.3824L14.6694 8.20851H7.58607C7.18752 8.20851 6.86143 7.88242 6.86143 7.48387C6.86143 7.08532 7.18752 6.75923 7.58607 6.75923H14.6694L12.5498 4.6759C12.26 4.38605 12.26 3.96938 12.5498 3.69764C12.8397 3.40778 13.2926 3.40778 13.5824 3.69764L16.952 7.06721C17.0788 7.19402 17.1513 7.37518 17.1513 7.57445ZM2.9665 4.94764H10.0498C10.4484 4.94764 10.7745 4.62155 10.7745 4.223C10.7745 3.82445 10.4484 3.49836 10.0498 3.49836H2.9665L5.08607 1.32445C5.37592 1.0346 5.37592 0.563582 5.08607 0.273727C4.79621 -0.0161284 4.34332 -0.0161283 4.05346 0.255611L0.70201 3.62518C0.557083 3.75199 0.484619 3.93315 0.484619 4.13242C0.484619 4.3317 0.557083 4.51286 0.70201 4.63967L4.07158 8.00923C4.2165 8.15416 4.39766 8.22662 4.57882 8.22662C4.75998 8.22662 4.95926 8.15416 5.08607 8.00923C5.37592 7.71938 5.37592 7.30271 5.08607 7.03097L2.9665 4.94764Z" fill="#0D8284"/>
</svg>
