<svg width="27" height="29" viewBox="0 0 27 29" fill="none" xmlns="http://www.w3.org/2000/svg">
<path d="M1.60669 6.47888C1.0544 6.47888 0.606689 6.9266 0.606689 7.47888C0.606689 8.03117 1.0544 8.47888 1.60669 8.47888V6.47888ZM26.3138 8.18599C26.7043 7.79546 26.7043 7.1623 26.3138 6.77178L19.9498 0.407814C19.5593 0.0172896 18.9261 0.0172896 18.5356 0.407814C18.1451 0.798338 18.1451 1.4315 18.5356 1.82203L24.1925 7.47888L18.5356 13.1357C18.1451 13.5263 18.1451 14.1594 18.5356 14.5499C18.9261 14.9405 19.5593 14.9405 19.9498 14.5499L26.3138 8.18599ZM1.60669 8.47888H25.6067V6.47888H1.60669V8.47888Z" fill="#0D8284"/>
<path d="M25.6067 21.7968C26.159 21.7968 26.6067 21.349 26.6067 20.7968C26.6067 20.2445 26.159 19.7968 25.6067 19.7968L25.6067 21.7968ZM0.899582 20.0896C0.509058 20.4802 0.509058 21.1133 0.899582 21.5039L7.26354 27.8678C7.65407 28.2583 8.28723 28.2583 8.67776 27.8678C9.06828 27.4773 9.06828 26.8441 8.67776 26.4536L3.0209 20.7968L8.67776 15.1399C9.06828 14.7494 9.06828 14.1162 8.67776 13.7257C8.28723 13.3352 7.65407 13.3352 7.26354 13.7257L0.899582 20.0896ZM25.6067 19.7968L1.60669 19.7968L1.60669 21.7968L25.6067 21.7968L25.6067 19.7968Z" fill="#0D8284"/>
</svg>
