<svg width="14" height="18" viewBox="0 0 14 18" fill="none" xmlns="http://www.w3.org/2000/svg">
<path d="M4.82783 2.55005V15.1545C4.82783 16.2762 3.91554 17.1856 2.79032 17.1856C1.6651 17.1856 0.752808 16.2762 0.752808 15.1545V2.55005C0.752808 1.42837 1.6651 0.518951 2.79032 0.518951C3.91595 0.518951 4.82783 1.42837 4.82783 2.55005Z" fill="#0D8284"/>
<path d="M11.9938 17.1856C11.3414 17.1856 10.7354 16.8492 10.3917 16.2965L5.31392 8.13153C5.28154 8.07981 5.26453 8.01982 5.26453 7.95859C5.26453 7.83488 5.33633 7.72275 5.44674 7.66648C7.82626 6.45543 8.83775 4.61301 9.56576 1.91949C9.78865 1.09572 10.5324 0.518951 11.3883 0.518951H11.5381C12.8082 0.518951 13.7217 1.7482 13.3386 2.95552C12.4081 5.88777 11.1388 7.31355 9.70978 8.42157L13.569 14.2745C14.3929 15.5236 13.4939 17.1856 11.9938 17.1856Z" fill="#0D8284"/>
</svg>
