<svg width="64" height="67" viewBox="0 0 64 67" fill="none" xmlns="http://www.w3.org/2000/svg">
<g clip-path="url(#clip0_7666_2301)">
<path d="M58.1226 42.2242L57.9105 42.7967C59.5111 43.3897 60.8679 44.5622 61.7346 46.1146C62.6016 47.6675 62.9194 49.4965 62.6285 51.2761C62.3376 53.0555 61.4582 54.6632 60.1535 55.8174C58.8496 56.9709 57.2049 57.5978 55.5113 57.5944H55.5101H8.48453H8.48331C6.78971 57.5978 5.14498 56.9709 3.84106 55.8174C2.53642 54.6632 1.657 53.0555 1.3661 51.2761C1.07516 49.4965 1.39303 47.6675 2.26 46.1146C3.12667 44.5622 4.4835 43.3897 6.08411 42.7967L6.4826 42.6491V42.2242L6.4826 22.4851C6.4826 22.485 6.4826 22.4848 6.4826 22.4847C6.48668 18.9945 7.80702 15.6543 10.1451 13.1953C12.4821 10.7373 15.6439 9.3606 18.935 9.35635H45.0596C48.3507 9.3606 51.5125 10.7373 53.8496 13.1953C56.1877 15.6544 57.508 18.9948 57.512 22.4851V42.2242H58.1226ZM52.8975 42.3292H53.5082V41.7186V22.4844C53.5082 20.1459 52.6252 17.8974 51.0445 16.2349C49.4628 14.5713 47.3108 13.6306 45.06 13.6306H18.9346C16.6838 13.6306 14.5318 14.5713 12.9501 16.2349C11.3694 17.8974 10.4864 20.1459 10.4864 22.4844V41.7186V42.3292H11.0971H21.9417H21.9421C22.6082 42.3287 23.2675 42.481 23.8743 42.7767C24.4813 43.0725 25.0221 43.5052 25.4579 44.0468L26.0997 44.8481L26.2831 45.0769H26.5763H37.4157H37.7082L37.8915 44.849L38.5367 44.0468C38.9725 43.5052 39.5133 43.0725 40.1203 42.7767C40.7271 42.481 41.3864 42.3287 42.0525 42.3292H42.0529H52.8975ZM52.2869 41.7186H42.0529L11.0971 22.4844C11.0971 20.2982 11.9228 18.2015 13.3926 16.6556C14.8625 15.1097 16.856 14.2412 18.9346 14.2412H45.06C47.1386 14.2412 49.1321 15.1097 50.602 16.6556C52.0718 18.2015 52.8975 20.2982 52.8975 22.4844V41.108V41.7186H52.2869ZM22.4209 46.8323L22.2375 46.6034H21.9443H8.48453C7.61947 46.6034 6.79648 46.9651 6.19467 47.5981C5.59386 48.23 5.26139 49.0808 5.26139 49.9618C5.26139 50.8428 5.59386 51.6936 6.19467 52.3255C6.79648 52.9584 7.61947 53.3201 8.48453 53.3201H55.5101C56.3751 53.3201 57.1981 52.9584 57.7999 52.3255C58.4007 51.6936 58.7332 50.8428 58.7332 49.9618C58.7332 49.0808 58.4007 48.23 57.7999 47.5981C57.1981 46.9651 56.3751 46.6034 55.5101 46.6034H42.0529H41.7604L41.5771 46.8314L40.9319 47.6336C40.4962 48.1751 39.9553 48.6079 39.3483 48.9036C38.7415 49.1994 38.0822 49.3516 37.4161 49.3512H37.4157H26.5763H26.5762C25.9104 49.3513 25.2516 49.1988 24.6452 48.9031C24.0389 48.6074 23.4985 48.1751 23.063 47.634C23.0629 47.6339 23.0628 47.6337 23.0627 47.6336L22.4209 46.8323ZM26.5763 49.9618H37.4157H26.5763Z" fill="#F8FAFB" stroke="#F8FAFB" stroke-width="1.22122"/>
</g>
<defs>
<clipPath id="clip0_7666_2301">
<rect width="62.7007" height="65.9457" fill="white" transform="translate(0.647217 0.502518)"/>
</clipPath>
</defs>
</svg>
