<svg width="66" height="66" viewBox="0 0 66 66" fill="none" xmlns="http://www.w3.org/2000/svg">
<g clip-path="url(#clip0_7589_122656)">
<path d="M60.2611 33.3739V33.3732C60.2611 27.8792 58.6449 22.5081 55.6163 17.9392C52.5877 13.3702 48.2825 9.80839 43.2446 7.70489C38.2067 5.60136 32.6628 5.05091 27.3142 6.12334C21.9656 7.19577 17.0534 9.84274 13.1983 13.7288C9.3432 17.6147 6.71843 22.5652 5.65509 27.9538C4.59176 33.3424 5.13746 38.9279 7.22338 44.0041C9.30932 49.0804 12.8421 53.42 17.3756 56.4735C21.9092 59.5271 27.2398 61.1572 32.6933 61.1572V60.5466L32.694 61.1572C40.0044 61.1491 47.012 58.2182 52.1797 53.009C57.3473 47.8 60.2531 40.7384 60.2611 33.3739ZM15.0625 6.76712C20.2816 3.25189 26.417 1.37591 32.693 1.37584C41.1061 1.3851 49.173 4.75806 55.1235 10.7563C61.0742 16.7547 64.4222 24.8887 64.4313 33.3739C64.4312 39.7032 62.5692 45.89 59.0812 51.1519C55.5932 56.4139 50.6361 60.5144 44.8373 62.9357C39.0386 65.3568 32.6581 65.9903 26.5025 64.756C20.3468 63.5218 14.6919 60.4751 10.2529 56.0006C5.8139 51.5259 2.79035 45.8244 1.56537 39.6165C0.340373 33.4087 0.969127 26.9741 3.37191 21.1268C5.77468 15.2795 9.8433 10.2825 15.0625 6.76712Z" fill="#F8FAFB" stroke="#F8FAFB" stroke-width="1.22122"/>
<path d="M27.0012 44.5339C25.2975 44.5339 23.7124 44.3383 22.246 43.947C20.7795 43.5339 19.5826 42.9579 18.6553 42.2187C18.3318 41.9796 18.0946 41.7296 17.9436 41.4688C17.8142 41.1862 17.7495 40.8383 17.7495 40.4253C17.7495 39.8818 17.9113 39.4036 18.2347 38.9906C18.5798 38.5775 18.968 38.371 19.3993 38.371C19.6365 38.371 19.863 38.4145 20.0786 38.5014C20.3158 38.5666 20.5962 38.6971 20.9197 38.8927C21.847 39.4797 22.7851 39.9144 23.734 40.1971C24.6829 40.4579 25.7288 40.5883 26.8718 40.5883C28.2951 40.5883 29.3842 40.3492 30.139 39.871C30.8938 39.3927 31.2712 38.708 31.2712 37.8167C31.2712 37.1428 30.9154 36.5993 30.2037 36.1863C29.5136 35.7732 28.2736 35.3819 26.4836 35.0124C24.478 34.5993 22.8714 34.0994 21.6637 33.5124C20.4776 32.9255 19.6042 32.1972 19.0435 31.3277C18.5043 30.4581 18.2347 29.4038 18.2347 28.1647C18.2347 26.7952 18.6229 25.5669 19.3993 24.48C20.1972 23.3713 21.2863 22.5126 22.6665 21.904C24.0683 21.2735 25.6426 20.9583 27.3894 20.9583C30.4517 20.9583 32.9749 21.73 34.959 23.2735C35.2824 23.5344 35.5089 23.8061 35.6383 24.0887C35.7892 24.3496 35.8647 24.6756 35.8647 25.0669C35.8647 25.6104 35.6922 26.0886 35.3471 26.5017C35.0237 26.9147 34.6463 27.1212 34.2149 27.1212C33.9777 27.1212 33.7513 27.0886 33.5356 27.0234C33.3415 26.9582 33.0612 26.8169 32.6946 26.5995C31.8104 26.0343 30.9909 25.6104 30.2361 25.3278C29.5028 25.0452 28.5647 24.9039 27.4217 24.9039C26.1062 24.9039 25.0711 25.1648 24.3163 25.6865C23.5615 26.1865 23.1841 26.8821 23.1841 27.7734C23.1841 28.2951 23.3243 28.7299 23.6046 29.0777C23.9065 29.4038 24.3918 29.6973 25.0603 29.9581C25.7504 30.219 26.7209 30.4907 27.9717 30.7733C30.9046 31.4255 33.0073 32.2624 34.2796 33.2841C35.5736 34.3059 36.2206 35.708 36.2206 37.4906C36.2206 38.8819 35.8324 40.1101 35.056 41.1753C34.3012 42.2405 33.2229 43.0666 31.8211 43.6535C30.4409 44.2404 28.8343 44.5339 27.0012 44.5339Z" fill="#F8FAFB"/>
<path d="M41.178 45.3165C41.0486 45.773 40.8114 46.11 40.4663 46.3274C40.1428 46.5665 39.7762 46.686 39.3665 46.686C38.8704 46.686 38.4283 46.5121 38.0402 46.1643C37.652 45.8382 37.4579 45.4143 37.4579 44.8926C37.4579 44.6752 37.4902 44.447 37.5549 44.2078L44.9628 20.7301C45.1137 20.2736 45.3509 19.9366 45.6744 19.7192C46.0195 19.4801 46.3861 19.3605 46.7743 19.3605C47.2919 19.3605 47.7447 19.5344 48.1329 19.8823C48.5211 20.2083 48.7152 20.6322 48.7152 21.154C48.7152 21.3714 48.6828 21.5996 48.6181 21.8387L41.178 45.3165Z" fill="#F8FAFB"/>
</g>
<defs>
<clipPath id="clip0_7589_122656">
<rect width="64.6972" height="65.216" fill="white" transform="translate(0.344971 0.764801)"/>
</clipPath>
</defs>
</svg>
