<svg width="67" height="67" viewBox="0 0 67 67" fill="none" xmlns="http://www.w3.org/2000/svg">
<g clip-path="url(#clip0_7666_1206)">
<path d="M4.80384 65.528L5.2356 65.9598L4.80383 65.528C4.40305 65.9288 3.85946 66.154 3.29266 66.154C2.72585 66.154 2.18227 65.9288 1.78148 65.528L1.34972 65.9598L1.78148 65.528C1.38069 65.1273 1.15553 64.5837 1.15553 64.0169V62.643C1.15553 57.3393 3.26239 52.2529 7.01264 48.5027C10.7629 44.7524 15.8493 42.6456 21.1529 42.6456C26.4566 42.6456 31.543 44.7524 35.2932 48.5027C39.0435 52.2529 41.1504 57.3393 41.1504 62.643V64.0169C41.1504 64.5837 40.9252 65.1273 40.5244 65.528C40.1236 65.9288 39.58 66.154 39.0132 66.154C38.4464 66.154 37.9028 65.9288 37.5021 65.528C37.1013 65.1273 36.8761 64.5837 36.8761 64.0169V62.643C36.8761 58.4729 35.2196 54.4737 32.2709 51.525C29.3222 48.5764 25.323 46.9198 21.1529 46.9198C16.9829 46.9198 12.9837 48.5764 10.035 51.525C7.08633 54.4737 5.42979 58.4729 5.42979 62.643V64.0169C5.42979 64.5837 5.20462 65.1273 4.80384 65.528ZM34.8358 36.4019L34.8399 36.3983C37.5194 34.0014 40.8355 32.4312 44.3877 31.8774C47.94 31.3236 51.5767 31.8099 54.8587 33.2775C58.1407 34.745 60.9278 37.1312 62.8835 40.148C64.8392 43.1647 65.8799 46.683 65.88 50.2782C65.88 50.845 65.6548 51.3886 65.254 51.7894C64.8532 52.1901 64.3097 52.4153 63.7429 52.4153C63.1761 52.4153 62.6325 52.1901 62.2317 51.7894C61.8309 51.3886 61.6057 50.845 61.6057 50.2782C61.6057 47.5083 60.804 44.7976 59.2973 42.4733C57.7907 40.149 55.6435 38.3105 53.115 37.1796C50.5865 36.0487 47.7847 35.6738 45.0478 36.1001C42.3109 36.5264 39.7559 37.7358 37.6912 39.5822L37.6867 39.5862C37.4782 39.7765 37.2339 39.9235 36.9682 40.0189C36.7025 40.1142 36.4205 40.156 36.1385 40.1417C35.8566 40.1274 35.5802 40.0574 35.3255 39.9358C35.0707 39.8141 34.8426 39.6432 34.6543 39.4328C34.466 39.2225 34.3212 38.9769 34.2283 38.7103C34.1355 38.4437 34.0963 38.1613 34.1132 37.8795C34.1301 37.5977 34.2026 37.322 34.3267 37.0684C34.4507 36.8148 34.6237 36.5883 34.8358 36.4019ZM21.1523 35.9289C18.8277 35.9288 16.5554 35.2394 14.6227 33.9479C12.6897 32.6564 11.1831 30.8206 10.2935 28.6728C9.40383 26.525 9.17105 24.1616 9.62459 21.8816C10.0781 19.6015 11.1976 17.5071 12.8415 15.8632C14.4853 14.2194 16.5797 13.0999 18.8598 12.6463C21.1399 12.1928 23.5033 12.4256 25.6511 13.3152C27.7989 14.2049 29.6346 15.7114 30.9262 17.6444C32.2177 19.5772 32.907 21.8495 32.9072 24.174C32.9037 27.2905 31.6641 30.2784 29.4604 32.4821C27.2567 34.6859 24.2688 35.9254 21.1523 35.9289ZM21.1529 16.6947C19.6735 16.6947 18.2274 17.1334 16.9973 17.9553C15.7672 18.7772 14.8085 19.9455 14.2424 21.3122C13.6762 22.679 13.5281 24.183 13.8167 25.634C14.1053 27.0849 14.8177 28.4177 15.8638 29.4638C16.9099 30.5099 18.2427 31.2223 19.6937 31.5109C21.1446 31.7995 22.6486 31.6514 24.0154 31.0853C25.3822 30.5191 26.5504 29.5604 27.3723 28.3303C28.1942 27.1003 28.6329 25.6541 28.6329 24.1747C28.6329 22.1909 27.8448 20.2883 26.4421 18.8856C25.0393 17.4828 23.1367 16.6947 21.1529 16.6947ZM48.6296 24.9379C46.3051 24.9378 44.0328 24.2484 42.1 22.957C40.167 21.6654 38.6605 19.8297 37.7708 17.6819C36.8812 15.5341 36.6484 13.1707 37.102 10.8906C37.5555 8.61052 38.675 6.51612 40.3188 4.87226C41.9627 3.22841 44.0571 2.10893 46.3372 1.65539C48.6173 1.20185 50.9806 1.43463 53.1284 2.32427C55.2762 3.21392 57.112 4.72049 58.4036 6.65346C59.695 8.58624 60.3844 10.8585 60.3845 13.1831C60.3811 16.2996 59.1415 19.2875 56.9378 21.4912C54.734 23.6949 51.7462 24.9345 48.6296 24.9379ZM48.6303 5.70379C47.1509 5.70379 45.7047 6.14248 44.4747 6.96439C43.2446 7.7863 42.2859 8.95451 41.7197 10.3213C41.1536 11.6881 41.0055 13.192 41.2941 14.643C41.5827 16.094 42.2951 17.4268 43.3412 18.4729C44.3873 19.519 45.7201 20.2313 47.171 20.52C48.622 20.8086 50.126 20.6605 51.4928 20.0943C52.8595 19.5282 54.0278 18.5694 54.8497 17.3394C55.6716 16.1093 56.1103 14.6631 56.1103 13.1837C56.1103 11.1999 55.3222 9.29738 53.9194 7.89462C52.5167 6.49186 50.6141 5.70379 48.6303 5.70379Z" fill="#F8FAFB" stroke="#F8FAFB" stroke-width="1.22122"/>
</g>
<defs>
<clipPath id="clip0_7666_1206">
<rect width="65.9457" height="65.9457" fill="white" transform="translate(0.544922 0.818924)"/>
</clipPath>
</defs>
</svg>
