<svg width="46" height="45" viewBox="0 0 46 45" fill="none" xmlns="http://www.w3.org/2000/svg">
<path d="M23.1794 0.157257H23.1682C10.9088 0.157257 0.939482 10.1293 0.939482 22.3916C0.93187 27.0747 2.41431 31.6388 5.17234 35.4237L2.40139 43.6837L10.9477 40.9517C14.5729 43.3568 18.8289 44.6352 23.1794 44.6259C35.4388 44.6259 45.4081 34.651 45.4081 22.3916C45.4081 10.1321 35.4388 0.157257 23.1794 0.157257Z" fill="#F8FAFB"/>
<path d="M36.1171 31.5549C35.5807 33.0696 33.4518 34.3258 31.7537 34.6927C30.5919 34.9401 29.0744 35.1374 23.9661 33.0196C17.432 30.3126 13.2241 23.6728 12.8962 23.242C12.5821 22.8113 10.2559 19.7262 10.2559 16.5356C10.2559 13.345 11.8762 11.7914 12.5293 11.1243C13.0657 10.5768 13.9523 10.3267 14.8028 10.3267C15.0779 10.3267 15.3253 10.3406 15.5476 10.3517C16.2008 10.3795 16.5287 10.4184 16.9595 11.4495C17.4959 12.7419 18.8022 15.9325 18.9578 16.2605C19.1162 16.5884 19.2747 17.0331 19.0523 17.4639C18.8439 17.9086 18.6604 18.1059 18.3325 18.4839C18.0045 18.8619 17.6932 19.1509 17.3653 19.5567C17.0651 19.9097 16.726 20.2877 17.104 20.9408C17.482 21.58 18.7883 23.7117 20.7115 25.4238C23.1934 27.6333 25.2057 28.3393 25.9255 28.6394C26.4619 28.8618 27.1011 28.809 27.493 28.3921C27.9905 27.8557 28.6047 26.9663 29.2301 26.0908C29.6748 25.4627 30.2362 25.3849 30.8254 25.6072C31.4257 25.8157 34.6024 27.386 35.2556 27.7111C35.9087 28.0391 36.3395 28.1947 36.4979 28.4699C36.6535 28.745 36.6535 30.0374 36.1171 31.5549Z" fill="#4CAF50"/>
</svg>
