<svg width="41" height="41" viewBox="0 0 41 41" fill="none" xmlns="http://www.w3.org/2000/svg">
<path d="M20.4231 0.00415039H20.4129C9.21217 0.00415039 0.103786 9.11507 0.103786 20.3184C0.0968311 24.5971 1.45125 28.767 3.9711 32.225L1.43945 39.7718L9.24772 37.2756C12.5599 39.4731 16.4483 40.6411 20.4231 40.6326C31.6238 40.6326 40.7322 31.5191 40.7322 20.3184C40.7322 9.11761 31.6238 0.00415039 20.4231 0.00415039Z" fill="#4CAF50"/>
<path d="M32.2436 28.6903C31.7535 30.0742 29.8084 31.222 28.2569 31.5572C27.1955 31.7832 25.809 31.9635 21.1418 30.0285C15.172 27.5553 11.3275 21.489 11.0279 21.0954C10.741 20.7018 8.6156 17.8832 8.6156 14.9681C8.6156 12.053 10.096 10.6335 10.6927 10.0241C11.1828 9.52388 11.9928 9.29535 12.7699 9.29535C13.0212 9.29535 13.2472 9.30805 13.4504 9.3182C14.0471 9.3436 14.3467 9.37915 14.7403 10.3212C15.2304 11.502 16.4239 14.4171 16.5661 14.7167C16.7108 15.0163 16.8556 15.4226 16.6524 15.8162C16.462 16.2225 16.2944 16.4028 15.9947 16.7481C15.6951 17.0935 15.4107 17.3576 15.1111 17.7283C14.8368 18.0508 14.527 18.3961 14.8724 18.9928C15.2177 19.5769 16.4112 21.5245 18.1684 23.0887C20.4359 25.1074 22.2744 25.7524 22.932 26.0266C23.4221 26.2298 24.0062 26.1815 24.3642 25.8006C24.8187 25.3106 25.3799 24.498 25.9512 23.6981C26.3575 23.1242 26.8705 23.0531 27.4088 23.2563C27.9573 23.4467 30.8597 24.8814 31.4564 25.1785C32.0531 25.4782 32.4467 25.6204 32.5914 25.8717C32.7336 26.1231 32.7336 27.3039 32.2436 28.6903Z" fill="#FAFAFA"/>
</svg>
