<svg width="15" height="14" viewBox="0 0 15 14" fill="none" xmlns="http://www.w3.org/2000/svg">
<g clip-path="url(#clip0_7589_122181)">
<path d="M7.50175 0H7.49825C3.63863 0 0.5 3.1395 0.5 7C0.5 8.53125 0.9935 9.9505 1.83263 11.1029L0.96025 13.7034L3.65088 12.8433C4.75775 13.5765 6.07812 14 7.50175 14C11.3614 14 14.5 10.8596 14.5 7C14.5 3.14038 11.3614 0 7.50175 0Z" fill="white"/>
<path d="M11.5751 9.88479C11.4062 10.3617 10.736 10.7572 10.2014 10.8727C9.8356 10.9505 9.35785 11.0127 7.7496 10.3459C5.69248 9.49366 4.36773 7.40329 4.26448 7.26766C4.1656 7.13204 3.43323 6.16079 3.43323 5.15629C3.43323 4.15179 3.94335 3.66266 4.14898 3.45266C4.31785 3.28029 4.59698 3.20154 4.86473 3.20154C4.95135 3.20154 5.02923 3.20591 5.09923 3.20941C5.30485 3.21816 5.4081 3.23041 5.54373 3.55504C5.7126 3.96191 6.12385 4.96641 6.17285 5.06966C6.22273 5.17291 6.2726 5.31291 6.2026 5.44854C6.13698 5.58854 6.07923 5.65066 5.97598 5.76966C5.87273 5.88866 5.77473 5.97966 5.67148 6.10741C5.57698 6.21854 5.47023 6.33754 5.58923 6.54316C5.70823 6.74441 6.11948 7.41554 6.72498 7.95454C7.50635 8.65016 8.13985 8.87241 8.36648 8.96691C8.53535 9.03691 8.7366 9.02029 8.85998 8.88904C9.0166 8.72016 9.20998 8.44016 9.40685 8.16454C9.54685 7.96679 9.7236 7.94229 9.9091 8.01229C10.0981 8.07791 11.0982 8.57229 11.3039 8.67466C11.5095 8.77791 11.6451 8.82691 11.695 8.91354C11.744 9.00016 11.744 9.40704 11.5751 9.88479Z" fill="#0D8284"/>
</g>
<defs>
<clipPath id="clip0_7589_122181">
<rect width="14" height="14" fill="white" transform="translate(0.5)"/>
</clipPath>
</defs>
</svg>
