<svg width="15" height="15" viewBox="0 0 15 15" fill="none" xmlns="http://www.w3.org/2000/svg">
<g clip-path="url(#clip0_7589_123255)">
<path d="M7.50395 0.543457H7.50045C3.64082 0.543457 0.502197 3.68296 0.502197 7.54346C0.502197 9.07471 0.995697 10.494 1.83482 11.6463L0.962447 14.2468L3.65307 13.3867C4.75995 14.12 6.08032 14.5435 7.50395 14.5435C11.3636 14.5435 14.5022 11.4031 14.5022 7.54346C14.5022 3.68383 11.3636 0.543457 7.50395 0.543457Z" fill="white"/>
<path d="M11.5773 10.4284C11.4084 10.9052 10.7382 11.3007 10.2036 11.4162C9.8378 11.4941 9.36005 11.5562 7.7518 10.8895C5.69467 10.0372 4.36993 7.94687 4.26667 7.81124C4.1678 7.67562 3.43542 6.70437 3.43542 5.69987C3.43542 4.69537 3.94555 4.20624 4.15118 3.99624C4.32005 3.82387 4.59917 3.74512 4.86693 3.74512C4.95355 3.74512 5.03143 3.74949 5.10143 3.75299C5.30705 3.76174 5.4103 3.77399 5.54593 4.09862C5.7148 4.50549 6.12605 5.50999 6.17505 5.61324C6.22493 5.71649 6.2748 5.85649 6.2048 5.99212C6.13918 6.13212 6.08143 6.19424 5.97818 6.31324C5.87493 6.43224 5.77693 6.52324 5.67368 6.65099C5.57917 6.76212 5.47243 6.88112 5.59143 7.08674C5.71043 7.28799 6.12168 7.95912 6.72718 8.49812C7.50855 9.19374 8.14205 9.41599 8.36868 9.51049C8.53755 9.58049 8.7388 9.56387 8.86218 9.43262C9.0188 9.26374 9.21218 8.98374 9.40905 8.70812C9.54905 8.51037 9.7258 8.48587 9.9113 8.55586C10.1003 8.62149 11.1004 9.11586 11.3061 9.21824C11.5117 9.32149 11.6473 9.37049 11.6972 9.45712C11.7462 9.54374 11.7462 9.95061 11.5773 10.4284Z" fill="#0D8284"/>
</g>
<defs>
<clipPath id="clip0_7589_123255">
<rect width="14" height="14" fill="white" transform="translate(0.502197 0.543457)"/>
</clipPath>
</defs>
</svg>
