<?xml version="1.0" encoding="UTF-8"?>
<svg xmlns="http://www.w3.org/2000/svg" xmlns:xlink="http://www.w3.org/1999/xlink" width="600pt" height="161.63pt" viewBox="0 0 600 161.63" version="1.1">
<defs>
<clipPath id="clip1">
  <path d="M 129 49 L 229 49 L 229 161.628906 L 129 161.628906 Z M 129 49 "/>
</clipPath>
</defs>
<g id="surface1">
<path style=" stroke:none;fill-rule:evenodd;fill:rgb(7.798767%,52.49939%,72.898865%);fill-opacity:1;" d="M 50.324219 32.703125 L 50.324219 32.671875 C 44.753906 32.671875 39.179688 32.667969 33.609375 32.675781 C 32.535156 32.679688 32.519531 32.699219 32.507813 33.746094 C 32.492188 35.09375 32.503906 36.4375 32.503906 37.785156 C 32.503906 47.210938 32.5 56.636719 32.503906 66.0625 C 32.503906 67.414063 32.515625 67.4375 33.578125 67.4375 C 43.746094 67.4375 53.917969 67.464844 64.085938 67.394531 C 67.050781 67.375 70.011719 67.0625 72.886719 66.195313 C 76.746094 65.027344 79.128906 62.515625 79.996094 58.574219 C 80.890625 54.496094 80.851563 50.371094 80.660156 46.234375 C 80.578125 44.476563 80.402344 42.71875 79.941406 41.007813 C 79.117188 37.941406 77.308594 35.722656 74.339844 34.519531 C 73.570313 34.210938 72.773438 33.941406 71.96875 33.726563 C 69.171875 32.960938 66.292969 32.769531 63.417969 32.722656 C 59.054688 32.652344 54.6875 32.703125 50.324219 32.703125 Z M 52.558594 94.578125 L 52.558594 94.542969 C 46.289063 94.542969 40.019531 94.542969 33.753906 94.546875 C 32.523438 94.546875 32.523438 94.5625 32.503906 95.757813 C 32.5 95.894531 32.503906 96.035156 32.503906 96.175781 C 32.503906 108.0625 32.503906 119.949219 32.503906 131.835938 C 32.503906 132.117188 32.515625 132.394531 32.503906 132.675781 C 32.488281 133.183594 32.683594 133.460938 33.234375 133.4375 C 33.605469 133.417969 33.976563 133.4375 34.347656 133.4375 C 44.84375 133.4375 55.335938 133.449219 65.832031 133.425781 C 67.6875 133.421875 69.546875 133.339844 71.394531 133.183594 C 73.429688 133.011719 75.441406 132.664063 77.382813 131.972656 C 80.523438 130.847656 82.617188 128.722656 83.628906 125.53125 C 84.007813 124.335938 84.28125 123.113281 84.429688 121.871094 C 84.992188 117.242188 84.886719 112.601563 84.640625 107.964844 C 84.566406 106.53125 84.328125 105.109375 84.015625 103.699219 C 83.042969 99.3125 80.382813 96.636719 76.023438 95.558594 C 73.113281 94.839844 70.152344 94.632813 67.183594 94.59375 C 62.308594 94.535156 57.433594 94.578125 52.558594 94.578125 Z M 101.414063 79.738281 C 101.46875 80.03125 101.726563 80.085938 101.914063 80.191406 C 109.789063 84.566406 114.410156 91.347656 116.476563 99.988281 C 118.117188 106.867188 118.320313 113.863281 118.011719 120.890625 C 117.816406 125.308594 117.242188 129.667969 116.085938 133.949219 C 112.972656 145.484375 105.648438 153.042969 94.398438 156.890625 C 89.453125 158.578125 84.351563 159.492188 79.164063 160.015625 C 74.351563 160.5 69.527344 160.5625 64.695313 160.558594 C 48.117188 160.539063 31.535156 160.550781 14.957031 160.550781 C 12.632813 160.550781 10.3125 160.449219 8.027344 160.003906 C 7.300781 159.863281 6.582031 159.667969 5.878906 159.433594 C 3.519531 158.640625 1.957031 157.03125 1.113281 154.707031 C 0.328125 152.535156 0.183594 150.265625 0.0351563 147.992188 C -0.0117188 147.253906 0.00390625 146.507813 0.00390625 145.765625 C 0.00390625 103.96875 0.00390625 62.171875 0 20.375 C 0 18.097656 0.105469 15.824219 0.542969 13.585938 C 0.691406 12.8125 0.898438 12.046875 1.167969 11.308594 C 1.992188 9.027344 3.574219 7.5 5.859375 6.6875 C 7.898438 5.960938 10.023438 5.773438 12.15625 5.640625 C 13.21875 5.570313 14.289063 5.574219 15.359375 5.574219 C 31.660156 5.570313 47.960938 5.558594 64.261719 5.574219 C 71.425781 5.582031 78.542969 6.167969 85.535156 7.835938 C 88.199219 8.472656 90.804688 9.308594 93.332031 10.375 C 103.304688 14.578125 109.601563 21.941406 112.296875 32.40625 C 114.0625 39.273438 114.25 46.261719 113.824219 53.289063 C 113.585938 57.191406 112.960938 61.035156 111.753906 64.765625 C 109.910156 70.480469 106.777344 75.316406 102.046875 79.066406 C 101.804688 79.261719 101.464844 79.378906 101.414063 79.738281 "/>
<path style=" stroke:none;fill-rule:evenodd;fill:rgb(7.798767%,52.49939%,72.898865%);fill-opacity:1;" d="M 405.082031 32.707031 L 405.082031 32.671875 C 399.511719 32.671875 393.941406 32.667969 388.371094 32.675781 C 387.175781 32.675781 387.148438 32.6875 387.148438 33.761719 C 387.144531 44.621094 387.144531 55.480469 387.148438 66.34375 C 387.148438 67.414063 387.171875 67.4375 388.222656 67.4375 C 398.433594 67.4375 408.644531 67.460938 418.855469 67.394531 C 421.683594 67.378906 424.503906 67.074219 427.25 66.304688 C 431.226563 65.195313 433.75 62.691406 434.664063 58.632813 C 434.824219 57.910156 434.957031 57.179688 435.054688 56.445313 C 435.550781 52.652344 435.4375 48.847656 435.257813 45.046875 C 435.183594 43.519531 434.925781 42.007813 434.472656 40.53125 C 433.605469 37.699219 431.835938 35.671875 429.082031 34.539063 C 428.3125 34.226563 427.519531 33.953125 426.71875 33.734375 C 423.921875 32.96875 421.042969 32.769531 418.171875 32.726563 C 413.808594 32.65625 409.441406 32.707031 405.082031 32.707031 Z M 407.195313 94.578125 L 407.195313 94.546875 C 400.925781 94.546875 394.660156 94.542969 388.390625 94.546875 C 387.164063 94.546875 387.164063 94.5625 387.144531 95.757813 C 387.144531 95.894531 387.144531 96.035156 387.144531 96.175781 C 387.144531 108.0625 387.144531 119.953125 387.144531 131.839844 C 387.144531 132.117188 387.164063 132.398438 387.144531 132.675781 C 387.113281 133.203125 387.339844 133.453125 387.875 133.433594 C 388.246094 133.421875 388.617188 133.4375 388.988281 133.4375 C 399.4375 133.4375 409.886719 133.449219 420.335938 133.425781 C 422.238281 133.421875 424.144531 133.34375 426.039063 133.1875 C 428.164063 133.011719 430.269531 132.648438 432.289063 131.894531 C 435.269531 130.78125 437.269531 128.730469 438.277344 125.726563 C 438.558594 124.894531 438.769531 124.03125 438.933594 123.167969 C 439.605469 119.683594 439.550781 116.148438 439.53125 112.621094 C 439.519531 109.597656 439.371094 106.59375 438.707031 103.625 C 437.734375 99.289063 435.089844 96.65625 430.800781 95.578125 C 427.894531 94.84375 424.933594 94.632813 421.964844 94.59375 C 417.042969 94.535156 412.121094 94.578125 407.195313 94.578125 Z M 455.921875 79.75 C 456.238281 79.957031 456.414063 80.09375 456.609375 80.199219 C 464.246094 84.4375 468.835938 90.964844 471.011719 99.316406 C 472.257813 104.113281 472.6875 109.007813 472.78125 113.9375 C 472.890625 119.5625 472.6875 125.167969 471.554688 130.707031 C 470.488281 135.898438 468.714844 140.792969 465.609375 145.144531 C 461.789063 150.503906 456.59375 154.023438 450.523438 156.359375 C 445.992188 158.101563 441.28125 159.101563 436.480469 159.714844 C 431.175781 160.398438 425.84375 160.566406 420.5 160.558594 C 403.546875 160.535156 386.597656 160.550781 369.644531 160.550781 C 367.460938 160.550781 365.28125 160.46875 363.128906 160.074219 C 357.964844 159.128906 355.757813 156.78125 355.066406 151.578125 C 354.832031 149.824219 354.746094 148.066406 354.746094 146.300781 C 354.746094 104.175781 354.75 62.054688 354.746094 19.929688 C 354.746094 17.648438 354.878906 15.386719 355.328125 13.144531 C 356.109375 9.25 358.441406 6.933594 362.335938 6.175781 C 364.53125 5.75 366.753906 5.578125 368.984375 5.578125 C 386.769531 5.589844 404.558594 5.523438 422.34375 5.65625 C 429.742188 5.710938 437.066406 6.664063 444.15625 8.941406 C 449.160156 10.550781 453.773438 12.871094 457.703125 16.425781 C 462.585938 20.84375 465.488281 26.410156 467.066406 32.722656 C 468.609375 38.898438 468.929688 45.1875 468.625 51.523438 C 468.429688 55.617188 467.941406 59.664063 466.800781 63.609375 C 464.980469 69.898438 461.703125 75.222656 456.476563 79.261719 C 456.328125 79.375 456.199219 79.503906 455.921875 79.75 "/>
<g clip-path="url(#clip1)" clip-rule="nonzero">
<path style=" stroke:none;fill-rule:evenodd;fill:rgb(7.798767%,52.49939%,72.898865%);fill-opacity:1;" d="M 197.628906 105.796875 C 197.628906 99.160156 197.621094 92.523438 197.640625 85.886719 C 197.640625 85.183594 197.550781 84.714844 196.78125 84.378906 C 191.296875 81.980469 185.804688 79.621094 180.054688 77.910156 C 176.265625 76.78125 172.425781 75.945313 168.425781 76.09375 C 166.5 76.164063 165.066406 77 164.070313 78.636719 C 163.3125 79.878906 162.855469 81.238281 162.492188 82.632813 C 161.71875 85.605469 161.324219 88.648438 161.136719 91.703125 C 160.507813 101.902344 160.421875 112.105469 161.382813 122.296875 C 161.644531 125.113281 162.078125 127.914063 163.0625 130.59375 C 164.355469 134.117188 166.046875 135.253906 169.792969 135.128906 C 172.445313 135.042969 175.050781 134.601563 177.617188 133.9375 C 184.105469 132.261719 190.265625 129.6875 196.433594 127.125 C 197.351563 126.742188 197.660156 126.28125 197.652344 125.292969 C 197.605469 118.792969 197.628906 112.296875 197.628906 105.796875 Z M 198.074219 152.183594 C 193.351563 154.207031 188.746094 156.0625 184.023438 157.609375 C 177.558594 159.726563 170.96875 161.207031 164.148438 161.558594 C 160.332031 161.757813 156.535156 161.558594 152.796875 160.726563 C 144.875 158.96875 139.429688 154.179688 136.003906 146.941406 C 133.902344 142.5 132.667969 137.800781 131.816406 132.984375 C 130.386719 124.914063 130 116.753906 129.886719 108.578125 C 129.796875 102.167969 129.933594 95.757813 130.449219 89.367188 C 131.046875 82.042969 132.03125 74.785156 134.578125 67.832031 C 135.398438 65.605469 136.398438 63.464844 137.640625 61.4375 C 141.34375 55.375 146.753906 51.796875 153.6875 50.472656 C 158.945313 49.46875 164.222656 49.617188 169.496094 50.332031 C 178.867188 51.601563 187.664063 54.808594 196.351563 58.382813 C 196.777344 58.558594 197.210938 58.726563 197.644531 58.894531 C 197.726563 58.925781 197.824219 58.925781 198.019531 58.949219 C 198.148438 58.5 198.300781 58.035156 198.417969 57.558594 C 199.21875 54.386719 201.214844 52.410156 204.378906 51.585938 C 205.960938 51.171875 207.570313 50.996094 209.195313 50.894531 C 212.863281 50.664063 216.527344 50.695313 220.164063 51.289063 C 220.851563 51.402344 221.527344 51.582031 222.191406 51.78125 C 224.902344 52.589844 226.613281 54.390625 227.40625 57.097656 C 227.90625 58.800781 228.09375 60.554688 228.191406 62.316406 C 228.261719 63.519531 228.261719 64.730469 228.261719 65.9375 C 228.265625 92.367188 228.261719 118.792969 228.261719 145.222656 C 228.261719 147.730469 228.179688 150.230469 227.699219 152.707031 C 226.945313 156.625 224.621094 158.929688 220.730469 159.699219 C 218.71875 160.097656 216.6875 160.273438 214.640625 160.285156 C 211.574219 160.304688 208.507813 160.375 205.484375 159.730469 C 204.804688 159.582031 204.132813 159.398438 203.476563 159.171875 C 201.082031 158.328125 199.496094 156.683594 198.707031 154.273438 C 198.492188 153.617188 198.308594 152.953125 198.074219 152.183594 "/>
</g>
<path style=" stroke:none;fill-rule:evenodd;fill:rgb(7.798767%,52.49939%,72.898865%);fill-opacity:1;" d="M 273.273438 59.003906 C 276.605469 57.636719 279.957031 56.265625 283.363281 55.050781 C 289.320313 52.929688 295.371094 51.15625 301.65625 50.332031 C 307.210938 49.605469 312.757813 49.433594 318.273438 50.675781 C 324.574219 52.097656 329.417969 55.570313 332.886719 60.996094 C 335.464844 65.027344 336.992188 69.492188 338.3125 74.054688 C 339.960938 79.746094 340.207031 85.59375 340.226563 91.441406 C 340.296875 109.972656 340.257813 128.5 340.246094 147.03125 C 340.246094 149.265625 340.042969 151.480469 339.503906 153.65625 C 338.714844 156.839844 336.726563 158.820313 333.589844 159.691406 C 332.152344 160.089844 330.683594 160.3125 329.199219 160.402344 C 325.113281 160.648438 321.035156 160.726563 316.980469 160.011719 C 316.109375 159.855469 315.265625 159.605469 314.441406 159.28125 C 312.339844 158.449219 310.894531 156.980469 310.09375 154.855469 C 309.464844 153.1875 309.199219 151.445313 309.085938 149.683594 C 309.003906 148.386719 308.988281 147.085938 308.988281 145.785156 C 308.980469 127.300781 308.988281 108.816406 308.976563 90.332031 C 308.972656 87.453125 308.800781 84.578125 308.222656 81.746094 C 308.0625 80.96875 307.824219 80.222656 307.488281 79.503906 C 306.417969 77.207031 304.675781 76.066406 302.097656 76.066406 C 298.386719 76.0625 294.8125 76.816406 291.289063 77.859375 C 285.449219 79.59375 279.855469 81.976563 274.296875 84.441406 C 273.71875 84.695313 273.371094 85.003906 273.464844 85.683594 C 273.507813 86.003906 273.472656 86.332031 273.472656 86.65625 C 273.472656 106.257813 273.476563 125.855469 273.46875 145.453125 C 273.464844 148.054688 273.425781 150.648438 272.863281 153.210938 C 272.09375 156.734375 270.054688 158.96875 266.515625 159.820313 C 265.242188 160.128906 263.960938 160.332031 262.664063 160.414063 C 258.675781 160.664063 254.683594 160.75 250.730469 160.007813 C 250.003906 159.871094 249.285156 159.664063 248.585938 159.417969 C 246.242188 158.589844 244.699219 156.953125 243.902344 154.609375 C 243.375 153.0625 243.109375 151.457031 243.027344 149.832031 C 242.941406 148.070313 242.882813 146.304688 242.882813 144.542969 C 242.871094 118.578125 242.863281 92.617188 242.886719 66.65625 C 242.890625 63.738281 242.878906 60.8125 243.527344 57.925781 C 244.308594 54.433594 246.386719 52.292969 249.882813 51.527344 C 253.730469 50.6875 257.625 50.691406 261.527344 50.886719 C 263.242188 50.96875 264.945313 51.144531 266.625 51.558594 C 269.925781 52.371094 271.957031 54.410156 272.777344 57.691406 C 272.867188 58.050781 272.964844 58.40625 273.070313 58.761719 C 273.097656 58.839844 273.183594 58.902344 273.273438 59.003906 "/>
<path style=" stroke:none;fill-rule:evenodd;fill:rgb(7.798767%,52.49939%,72.898865%);fill-opacity:1;" d="M 569.699219 113.546875 C 569.699219 124.601563 569.695313 135.652344 569.699219 146.707031 C 569.699219 148.472656 569.617188 150.230469 569.367188 151.984375 C 568.695313 156.742188 566.558594 159.179688 561.863281 160.050781 C 556.941406 160.960938 551.957031 160.949219 547.03125 160.109375 C 542.039063 159.261719 539.902344 156.769531 539.246094 151.691406 C 539.011719 149.890625 538.949219 148.085938 538.949219 146.273438 C 538.949219 123.519531 538.949219 100.761719 538.941406 78.003906 C 538.941406 76.007813 539.28125 76.148438 537.09375 76.128906 C 535.046875 76.109375 533.015625 75.96875 531.003906 75.558594 C 527.3125 74.8125 524.957031 72.6875 524.148438 68.949219 C 523.382813 65.40625 523.363281 61.839844 524.097656 58.308594 C 524.972656 54.074219 527.316406 52.011719 531.691406 51.308594 C 533.761719 50.976563 535.851563 50.953125 537.9375 50.882813 C 538.988281 50.847656 538.996094 50.851563 539.042969 49.808594 C 539.253906 44.984375 539.492188 40.164063 540.113281 35.367188 C 540.757813 30.390625 541.746094 25.5 543.429688 20.742188 C 545.386719 15.230469 549.082031 11.484375 554.386719 9.179688 C 558.554688 7.367188 562.90625 6.320313 567.417969 5.878906 C 572.976563 5.328125 578.550781 5.476563 584.117188 5.648438 C 586.390625 5.71875 588.648438 6.035156 590.855469 6.640625 C 596.832031 8.277344 599.625 11.71875 599.96875 17.902344 C 600.058594 19.484375 599.953125 21.0625 599.621094 22.613281 C 598.742188 26.738281 596.277344 29.5625 592.445313 31.242188 C 589.1875 32.667969 585.734375 33.015625 582.238281 33.097656 C 580.152344 33.144531 578.0625 33.019531 575.988281 33.410156 C 572.277344 34.117188 570.484375 35.941406 569.980469 39.703125 C 569.515625 43.167969 569.742188 46.65625 569.792969 50.136719 C 569.800781 50.582031 569.964844 50.835938 570.441406 50.824219 C 570.8125 50.816406 571.183594 50.828125 571.558594 50.828125 C 575.597656 50.824219 579.636719 50.804688 583.671875 51.011719 C 585.164063 51.089844 586.628906 51.296875 588.066406 51.695313 C 590.992188 52.507813 592.882813 54.363281 593.703125 57.304688 C 594.535156 60.300781 594.585938 63.351563 594.316406 66.417969 C 594.214844 67.574219 594.011719 68.714844 593.664063 69.832031 C 592.800781 72.625 590.972656 74.429688 588.179688 75.265625 C 586.339844 75.8125 584.449219 76.058594 582.546875 76.085938 C 578.691406 76.140625 574.835938 76.128906 570.980469 76.152344 C 569.710938 76.15625 569.699219 76.164063 569.699219 77.460938 C 569.695313 89.488281 569.699219 101.519531 569.699219 113.546875 "/>
<path style=" stroke:none;fill-rule:evenodd;fill:rgb(7.798767%,52.49939%,72.898865%);fill-opacity:1;" d="M 515.441406 105.65625 C 515.441406 119.214844 515.445313 132.773438 515.433594 146.332031 C 515.433594 148.699219 515.324219 151.0625 514.789063 153.390625 C 514.003906 156.796875 511.976563 158.9375 508.5625 159.78125 C 507.25 160.109375 505.925781 160.316406 504.582031 160.398438 C 500.542969 160.652344 496.511719 160.730469 492.507813 160 C 491.636719 159.84375 490.796875 159.589844 489.976563 159.25 C 487.929688 158.40625 486.535156 156.941406 485.761719 154.875 C 485.011719 152.894531 484.808594 150.816406 484.683594 148.730469 C 484.621094 147.617188 484.628906 146.5 484.628906 145.386719 C 484.621094 118.964844 484.621094 92.542969 484.625 66.121094 C 484.625 63.566406 484.6875 61.019531 485.171875 58.496094 C 485.90625 54.667969 488.089844 52.296875 491.933594 51.460938 C 493.347656 51.152344 494.769531 50.980469 496.203125 50.890625 C 499.921875 50.65625 503.628906 50.660156 507.3125 51.292969 C 508.042969 51.417969 508.761719 51.617188 509.464844 51.84375 C 512.039063 52.675781 513.699219 54.410156 514.515625 56.988281 C 515.335938 59.597656 515.429688 62.285156 515.433594 64.976563 C 515.449219 78.539063 515.441406 92.097656 515.441406 105.65625 "/>
<path style=" stroke:none;fill-rule:evenodd;fill:rgb(70.599365%,81.599426%,22.399902%);fill-opacity:1;" d="M 487.402344 18.949219 C 487.394531 22.460938 488.941406 26.136719 491.441406 28.421875 C 493.703125 30.492188 496.328125 31.230469 499.300781 30.320313 C 506.488281 28.121094 508.828125 19.980469 505.773438 14.394531 C 503.679688 10.566406 498.964844 8.589844 494.667969 9.6875 C 490.429688 10.773438 487.414063 14.621094 487.402344 18.949219 Z M 479.613281 20.074219 C 479.304688 9.441406 489.089844 -1.679688 502.300781 0.214844 C 506.898438 0.871094 510.957031 2.574219 514.277344 5.878906 C 517.410156 8.996094 519.269531 12.800781 519.9375 17.125 C 521.121094 24.769531 519.265625 31.617188 513.941406 37.316406 C 510.15625 41.367188 505.429688 43.75 499.835938 43.996094 C 494.800781 44.21875 490.628906 42.113281 487.183594 38.5625 C 483.148438 34.402344 480.859375 29.351563 479.910156 23.671875 C 479.703125 22.433594 479.574219 21.1875 479.613281 20.074219 "/>
<path style=" stroke:none;fill-rule:evenodd;fill:rgb(7.798767%,52.49939%,72.898865%);fill-opacity:1;" d="M 487.402344 18.949219 C 487.414063 14.621094 490.429688 10.773438 494.667969 9.6875 C 498.964844 8.589844 503.679688 10.566406 505.773438 14.394531 C 508.828125 19.980469 506.488281 28.121094 499.300781 30.320313 C 496.328125 31.230469 493.703125 30.492188 491.441406 28.421875 C 488.941406 26.136719 487.394531 22.460938 487.402344 18.949219 "/>
</g>
</svg>
