<svg width="133" height="19" viewBox="0 0 133 19" fill="none" xmlns="http://www.w3.org/2000/svg">
<path d="M32.2212 5.7309C28.6072 5.72584 25.6749 8.65355 25.6724 12.2676C25.6698 15.8842 28.5996 18.8145 32.2136 18.817C35.8276 18.817 38.7573 15.8867 38.7573 12.2727C38.7573 8.66115 35.8327 5.73344 32.2212 5.7309ZM32.2212 15.1548C30.6296 15.1447 29.3472 13.8454 29.3548 12.2524C29.3624 10.6619 30.6575 9.37535 32.2491 9.37788C33.8407 9.38295 35.1307 10.6746 35.1307 12.2676C35.1307 13.035 34.824 13.7745 34.2766 14.3165C33.7317 14.8585 32.9916 15.1599 32.2212 15.1548Z" fill="#EC111A"/>
<path d="M47.0928 6.03988H45.3086V2.18269H41.3955V6.03988H39.6113V9.58303H41.3955V18.4979H45.3086V9.58303H47.0928V6.03988Z" fill="#EC111A"/>
<path d="M48.8821 6.03989H52.7901V18.4928H48.8821V6.03989Z" fill="#EC111A"/>
<path d="M50.8387 0.00715016C49.9567 0.00461754 49.1584 0.533936 48.8188 1.34944C48.4792 2.16242 48.6642 3.10202 49.2877 3.72758C49.9111 4.35314 50.8514 4.54055 51.6649 4.20371C52.481 3.86687 53.0132 3.07163 53.0132 2.18774C53.0132 0.987277 52.0425 0.00968279 50.8387 0.00715016Z" fill="#EC111A"/>
<path d="M106.884 9.39815C108.166 9.40321 109.205 10.4416 109.208 11.7256V18.5131H113.116V11.2419C113.116 7.93682 111.205 5.78409 108.184 5.78409C106.942 5.78409 105.634 6.32607 104.557 8.07105V6.088H100.644V18.5131H104.524V11.7256C104.524 11.1026 104.775 10.5074 105.219 10.0693C105.662 9.63368 106.26 9.39055 106.884 9.39815Z" fill="#EC111A"/>
<path d="M127.356 18.4979L122.559 12.2727L127.019 6.03987H122.452L118.864 11.0849V0.318665H114.958V18.4979H118.864V13.3642L122.802 18.4979H127.356Z" fill="#EC111A"/>
<path d="M12.2376 15.1421C12.5367 14.4153 12.6811 13.6327 12.6609 12.8476C12.6887 11.6927 12.2908 10.5657 11.5432 9.6818C10.7094 8.76499 9.28253 8.00267 7.30572 7.42269C6.92303 7.32392 6.55048 7.18969 6.19059 7.02507C5.87887 6.87311 5.60008 6.66544 5.36439 6.41218C5.11855 6.13359 4.9893 5.77142 5.00704 5.39913C5.01464 4.85714 5.31877 4.36075 5.8003 4.11002C6.78617 3.67694 7.9089 3.67694 8.89224 4.11002C9.33068 4.26957 9.75139 4.46712 10.1544 4.70012L11.8144 1.39504C11.0718 0.936638 10.2735 0.584603 9.43459 0.344004C8.57037 0.121132 7.68334 0.00716439 6.79124 0.00716439C5.94222 -0.00803137 5.09828 0.131263 4.29995 0.41745C3.59033 0.693506 2.94406 1.11646 2.40424 1.65337C1.86188 2.19535 1.43104 2.84117 1.14212 3.55031C0.855736 4.27971 0.713811 5.05975 0.71888 5.84234C0.764499 7.09345 1.29418 8.27619 2.19135 9.14741C3.04797 9.89707 4.05158 10.4593 5.13883 10.7936C5.65584 10.9912 6.22861 11.1684 6.59356 11.3077C6.96865 11.4496 7.32853 11.6294 7.66306 11.8497C7.90383 12.0219 8.09898 12.2473 8.2333 12.5107C8.34988 12.7615 8.39296 13.0375 8.35748 13.311C8.31947 13.7264 8.11925 14.1114 7.80246 14.3824C7.28291 14.7597 6.64425 14.9345 6.00558 14.8762C5.25034 14.856 4.50777 14.6787 3.82349 14.3545C3.22538 14.0683 2.645 13.7467 2.08491 13.3896L0.103027 16.7934C1.66674 18.0775 3.62074 18.7891 5.64064 18.8094C6.64171 18.8094 7.63772 18.6524 8.58811 18.3408C9.40671 18.0673 10.1645 17.6444 10.8234 17.0923C11.4266 16.5477 11.9081 15.8842 12.2376 15.1421Z" fill="#EC111A"/>
<path d="M130.114 14.1443C129.229 14.1392 128.431 14.666 128.089 15.479C127.747 16.292 127.929 17.2316 128.55 17.8597C129.171 18.4877 130.109 18.6777 130.927 18.3434C131.743 18.0065 132.278 17.2138 132.281 16.3299C132.283 15.1295 131.315 14.1519 130.114 14.1443ZM130.114 18.0623C129.407 18.0648 128.768 17.6419 128.497 16.991C128.223 16.3375 128.373 15.5879 128.87 15.0864C129.369 14.585 130.119 14.4355 130.773 14.7065C131.424 14.975 131.85 15.6107 131.85 16.3173C131.852 16.7808 131.67 17.224 131.343 17.5507C131.019 17.8774 130.575 18.0623 130.114 18.0623Z" fill="#EC111A"/>
<path d="M130.106 16.682H129.756V17.5076H129.333V15.1295H130.238C130.676 15.1295 131.031 15.4841 131.031 15.9222C131.024 16.221 130.846 16.4895 130.575 16.6161L131.077 17.5076H130.562L130.106 16.682ZM129.756 16.2844H130.258C130.459 16.2844 130.621 16.1223 130.621 15.9222C130.621 15.7196 130.459 15.5575 130.258 15.5575H129.756V16.2844Z" fill="#EC111A"/>
<path d="M22.9377 14.0784C21.9417 15.3194 20.1296 15.5195 18.8877 14.5267C17.6459 13.5314 17.4432 11.718 18.4366 10.477C19.4326 9.23352 21.2447 9.03344 22.4866 10.0262C22.6513 10.1579 22.8034 10.3074 22.9377 10.4694L25.5202 7.87857C24.286 6.51601 22.5296 5.74103 20.6897 5.74356C17.0883 5.7309 13.9812 8.30151 13.9812 12.2676C13.9812 16.2312 17.1213 18.8094 20.7226 18.8094C22.5651 18.8094 24.3214 18.0319 25.5608 16.6693L22.9377 14.0784Z" fill="#EC111A"/>
<path d="M68.075 18.5131V6.03989H64.2684V7.36192L63.9111 7.05294C63.024 6.20197 61.838 5.72584 60.6088 5.73091C57.2431 5.73091 54.4021 8.72447 54.4021 12.2676C54.4021 15.8082 57.2507 18.8094 60.6088 18.8094C61.838 18.8119 63.024 18.3383 63.9111 17.4874L64.2684 17.1758V18.4979L68.075 18.5131ZM61.2424 15.208C59.6153 15.1979 58.305 13.8708 58.3152 12.2448C58.3228 10.6189 59.6457 9.30697 61.2728 9.31204C62.8999 9.31964 64.2127 10.6417 64.2101 12.2676C64.2076 13.0502 63.8933 13.8024 63.3358 14.3545C62.7807 14.9066 62.0255 15.2131 61.2424 15.208Z" fill="#EC111A"/>
<path d="M98.7738 18.5131V6.03987H94.9672V7.3619L94.6098 7.05292C93.7202 6.20196 92.5367 5.72836 91.305 5.73089C87.9419 5.73089 85.1008 8.72445 85.1008 12.2676C85.1008 15.8082 87.9495 18.8094 91.305 18.8094C92.5367 18.8119 93.7202 18.3383 94.6098 17.4873L94.9672 17.1758V18.4979L98.7738 18.5131ZM91.9665 15.208C90.3368 15.2105 89.0139 13.8935 89.0114 12.2651C89.0088 10.6366 90.3292 9.31456 91.9588 9.31202C93.5859 9.31202 94.9063 10.6315 94.9063 12.26C94.9063 13.8859 93.591 15.2029 91.9665 15.208Z" fill="#EC111A"/>
<path d="M73.9116 18.5131V17.191L74.2614 17.5C75.151 18.351 76.3345 18.8246 77.5662 18.822C80.9293 18.822 83.7704 15.8285 83.7704 12.2803C83.7704 8.73205 80.9293 5.74355 77.5662 5.74355C76.3345 5.74102 75.151 6.21462 74.2614 7.06558L73.9116 7.37709V0.318665H70.0974V18.5131H73.9116ZM73.9902 12.2803C73.9826 11.0849 74.6948 10.006 75.7972 9.54249C76.8971 9.07902 78.1669 9.32722 79.0159 10.168C79.8624 11.0089 80.1183 12.2803 79.6621 13.3845C79.2085 14.4862 78.1314 15.208 76.9377 15.208C75.3132 15.208 73.9953 13.891 73.9902 12.2676V12.2803Z" fill="#EC111A"/>
</svg>
