<svg xmlns="http://www.w3.org/2000/svg" xmlns:xlink="http://www.w3.org/1999/xlink" viewBox="0 0 125.86 190.22"><defs><style>.cls-1{fill:none;}.cls-2{fill:#422e19;}.cls-3{fill:#20a2a5;}.cls-4{fill:#ffbe9d;}.cls-5{fill:#263238;}.cls-6{fill:#eb996e;}.cls-7{fill:#fff;}.cls-8{fill:#20a1a4;}.cls-9{opacity:0.17;}.cls-10{fill:#dbdbdb;}.cls-11{fill:#ffeb4d;}.cls-12{fill:#676767;}.cls-13{opacity:0.45;}.cls-14{clip-path:url(#clip-path);}.cls-15{fill:#eab726;}.cls-16{clip-path:url(#clip-path-2);}.cls-17{clip-path:url(#clip-path-3);}</style><clipPath id="clip-path"><rect class="cls-1" x="91.43" y="81.27" width="15.61" height="15.61"/></clipPath><clipPath id="clip-path-2"><rect class="cls-1" x="99.07" y="98.93" width="15.61" height="15.61"/></clipPath><clipPath id="clip-path-3"><rect class="cls-1" x="110.41" y="84.82" width="9.94" height="9.94"/></clipPath></defs><g id="Capa_2" data-name="Capa 2"><g id="Capa_1-2" data-name="Capa 1"><path class="cls-2" d="M40.51,25.6c3.27,9-3.47,25.49-10.72,30.85-3.82,2.86-8.91,4.38-11,8.66-3.76,7.27,3.9,15.89,2.75,24-.68,5-4.65,9-5.73,13.89-1.85,8.17,5.23,16.49,13.3,18.62s16.52-.36,24.11-3.82c16.57-7.5,31.55-20,38.78-36.95C95.34,73,110.44,46.4,85.6,9.05"/><path class="cls-2" d="M115.58,82.85a57.55,57.55,0,0,1-3.2-11.73c-.28-3,1.58-5.86,1-8.77-.83-4-5.72-5.72-8.51-8.81-2.63-2.92-3.28-7-4.26-10.79A53.07,53.07,0,0,0,89.68,21.86c-8.3.83-16.73.63-25.05.93-3.3.11-6.83,0-10.35.06a437.15,437.15,0,0,0,4.53,46c1.59,2.78,3.17,5.56,4.67,8.37A105.69,105.69,0,0,1,70,91.38l36.74,12.25A18.23,18.23,0,0,0,117.61,95C119.48,91.1,117.41,86.72,115.58,82.85Z"/><path class="cls-3" d="M36.52,178.52l5-21.48-3.78-15.6c-2.43-8-4.51-21.11-1.87-31.65l8.83-30.3L54.38,75l21.74-2.44c.86.29,23.69,5.22,23.69,5.22A35.09,35.09,0,0,1,104.15,79l2.57,16.59L99,123l-3.36,27.24L103,178.52Z"/><path class="cls-4" d="M49.35,77.34l6.44-2.88,28.29-.07,8.73,1.9S69,100.35,62.93,101.23C47.79,103.43,49.35,77.34,49.35,77.34Z"/><path class="cls-5" d="M39.46,97.15a2.16,2.16,0,0,1-.1.45L39,98.89c-.32,1.14-.78,2.75-1.34,4.72a103.86,103.86,0,0,0-3.33,15.82,36.69,36.69,0,0,0,1.35,16c.59,2,1.16,3.56,1.54,4.66l.44,1.26a2.72,2.72,0,0,1,.14.44,2.74,2.74,0,0,1-.19-.42c-.12-.31-.29-.72-.5-1.24-.41-1.09-1-2.66-1.63-4.64a38.93,38.93,0,0,1-1.55-7.13A38.34,38.34,0,0,1,34,119.4a97.24,97.24,0,0,1,3.42-15.84c.58-2,1.08-3.6,1.43-4.7l.41-1.27A3.85,3.85,0,0,1,39.46,97.15Z"/><path class="cls-5" d="M87.91,159a2.76,2.76,0,0,1-.22.34l-.67.94-.5.67c-.19.24-.41.49-.64.76-.48.53-1,1.17-1.64,1.78l-1,1c-.36.34-.76.65-1.16,1-.79.71-1.73,1.34-2.69,2a37.65,37.65,0,0,1-6.85,3.59,37.44,37.44,0,0,1-7.47,2c-1.18.14-2.3.3-3.36.32-.53,0-1,.06-1.53.05l-1.41-.05a23,23,0,0,1-2.42-.2c-.35,0-.68-.07-1-.12l-.82-.16-1.13-.24a2.54,2.54,0,0,1-.39-.1,1.72,1.72,0,0,1,.4,0l1.14.18.82.14,1,.1c.71.05,1.51.17,2.41.16l1.4,0c.49,0,1,0,1.52-.07A31.88,31.88,0,0,0,65,172.8a38.32,38.32,0,0,0,7.41-2,39,39,0,0,0,6.8-3.54c1-.69,1.89-1.31,2.68-2,.4-.34.81-.64,1.17-1l1-1a23.36,23.36,0,0,0,1.66-1.75c.24-.26.47-.5.67-.74l.51-.65.71-.91A1.92,1.92,0,0,1,87.91,159Z"/><path class="cls-5" d="M83.33,150.38a2.51,2.51,0,0,1-.08.61,13.53,13.53,0,0,1-.39,1.65,19.37,19.37,0,0,1-2.33,5.05,19.61,19.61,0,0,1-3.66,4.19,13.68,13.68,0,0,1-1.34,1,2.46,2.46,0,0,1-.53.32s.69-.55,1.73-1.5a21.62,21.62,0,0,0,3.55-4.2,22,22,0,0,0,2.38-5C83.11,151.23,83.28,150.37,83.33,150.38Z"/><path class="cls-4" d="M56.47,91.73c0-6.52.12-27.39.11-27.36s-9.46.85-11.33-12.68c-.94-6.72-.56-17.76,0-26.78.52-8.11,5.49-18.08,12.86-17.24l23,6.33A4.59,4.59,0,0,1,85,18.82h0L83.32,81.51Z"/><path class="cls-6" d="M56.6,64.38s8.88,2.23,17.73-6.11c-.15,0-4.7,9.76-17.74,9.3Z"/><path class="cls-2" d="M92.56,31c0,7.75,1.76,26.28-8,33.68a3.68,3.68,0,0,1-5.9-3.19l.19-24.89A3.8,3.8,0,0,0,77,33.29c-4.38-2.57-15.21-7.58-17.33-19.93l-.09.09a24.86,24.86,0,0,0-1.84,5.08c-.92,4.28-3.74,5.39-7.94,6.6l-5.68,1.62a4.19,4.19,0,0,0-.59.22L41.3,28s-5.4-11.7,5-22.33S65.58,2.73,71.16,2.1c3.65-.44,16.32-.36,21.63,21a4,4,0,0,1,.11,1.15Z"/><path class="cls-2" d="M78.74,51.24l-.18,26c-.06,3.55,3.34,5.68,5.9,3.53,8.16-6.83,8.27-22.21,8.09-32.08A46.82,46.82,0,0,1,78.74,51.24Z"/><path class="cls-2" d="M45.12,26a29,29,0,0,1,.77,11.34S42,56.38,56.59,64.38l-3.38,3.28-17.33-6,1.64-19.3L41.7,26Z"/><path class="cls-2" d="M59.12,46.07a.52.52,0,0,1-.24,0,3.14,3.14,0,0,1-1.67-3.38,5.2,5.2,0,0,1,.56-1.32L58,41a7.23,7.23,0,0,0-.77-7.55.51.51,0,0,1,.09-.72.52.52,0,0,1,.73.1,8.27,8.27,0,0,1,.88,8.62c-.07.13-.14.26-.2.39a4.27,4.27,0,0,0-.46,1.07,2.09,2.09,0,0,0,1.14,2.23.51.51,0,0,1-.24,1Z"/><ellipse class="cls-2" cx="49.24" cy="34.52" rx="1.6" ry="2.04"/><path class="cls-2" d="M52.83,34.9a.29.29,0,0,1-.2-.09,4.79,4.79,0,0,0-3.37-2A4.31,4.31,0,0,0,46,34.26a.26.26,0,0,1-.35,0,.25.25,0,0,1,0-.36,4.89,4.89,0,0,1,3.42-1.64h.17A5.27,5.27,0,0,1,53,34.49a.25.25,0,0,1,0,.35A.27.27,0,0,1,52.83,34.9Z"/><ellipse class="cls-2" cx="69.45" cy="34.52" rx="1.6" ry="2.04"/><path class="cls-2" d="M73,34.9a.28.28,0,0,1-.19-.09,4.83,4.83,0,0,0-3.38-2,4.43,4.43,0,0,0-3.22,1.49.26.26,0,0,1-.35,0,.25.25,0,0,1,0-.36,4.78,4.78,0,0,1,3.59-1.63,5.27,5.27,0,0,1,3.74,2.22.25.25,0,0,1,0,.35A.25.25,0,0,1,73,34.9Z"/><path class="cls-2" d="M64.32,31a.49.49,0,0,1-.36-.2.52.52,0,0,1,.1-.73,12.3,12.3,0,0,1,8.23-2.38h.16A12.29,12.29,0,0,1,80,31.3a.52.52,0,0,1-.74.72,11.05,11.05,0,0,0-14.61-1.16A.51.51,0,0,1,64.32,31Z"/><path class="cls-2" d="M42.82,30.35a9,9,0,0,1,7.08-2,9.57,9.57,0,0,1,4.64,2.26c-.13.36-.25.72-.35,1.09a8.6,8.6,0,0,0-4.45-2.33,8,8,0,0,0-6.28,1.74.5.5,0,0,1-.72-.08A.51.51,0,0,1,42.82,30.35Z"/><path class="cls-4" d="M54.27,30.33c-.05.05-.7.94-.7.94l.64.59.42-1.31Z"/><circle class="cls-2" cx="53.9" cy="30.8" r="0.53"/><path class="cls-4" d="M77.92,35.6c1.32-.77,3.06-.15,4.13.92a5,5,0,0,1,.66,6.23,5.82,5.82,0,0,1-6.19,2.31"/><path class="cls-6" d="M78.25,42.23c0,.07.42.15,1.08,0a2.81,2.81,0,0,0,2.06-1.6,1.56,1.56,0,0,0-.08-1.38,1.87,1.87,0,0,0-.83-.88,1.73,1.73,0,0,0-1.07-.29c0,.08.41.22.82.59a1.48,1.48,0,0,1,.58,1.82,2.68,2.68,0,0,1-1.65,1.38C78.67,42.09,78.25,42.16,78.25,42.23Z"/><path class="cls-7" d="M80.19,48.85c-.68,0-1.2-1.2-1.2-2.79s.52-2.8,1.2-2.8a.15.15,0,0,1,.15.15.15.15,0,0,1-.15.15c-.43,0-.9,1-.9,2.5s.47,2.49.9,2.49.88-1,.88-2.49a.16.16,0,0,1,.16-.16.16.16,0,0,1,.15.16C81.38,47.65,80.86,48.85,80.19,48.85Z"/><path class="cls-2" d="M81.13,81.39s3.58,1.88,11.81-1.46c0,0,5-2.12,6,2,0,0,3.91,6.06,10.26-1.27L99.94,70.31l-12.62-.74L82.23,76Z"/><path class="cls-3" d="M118.81,145.32a32.54,32.54,0,0,0-2.82-8.5q-5.94-13.66-11.89-27.31a23,23,0,0,0-4-6.86,11.21,11.21,0,0,0-8-3.6l1.81,58.72,2.49,8.73c6-.67,13.74-3.58,17.5-7.43A16.73,16.73,0,0,0,118.81,145.32Z"/><path class="cls-5" d="M89.4,126.67a11.74,11.74,0,0,1,.23,1.63c.13,1.15.31,2.65.52,4.47.46,3.77,1.2,9,2.3,14.65a62.18,62.18,0,0,0,1.88,7.91,19.19,19.19,0,0,0,3.18,5.74,9.4,9.4,0,0,0,3.45,2.72c1,.43,1.54.56,1.53.61a1.52,1.52,0,0,1-.43-.06,7.69,7.69,0,0,1-1.18-.37,9,9,0,0,1-3.65-2.66,18.81,18.81,0,0,1-3.35-5.82,58.14,58.14,0,0,1-1.94-8c-1.11-5.71-1.79-10.92-2.16-14.71-.18-1.89-.29-3.43-.35-4.49A8.65,8.65,0,0,1,89.4,126.67Z"/><path class="cls-4" d="M117.35,144.34l-11.26-25.52H106l10.9-18.24L113.52,97,95.67,93.73S94.49,89.1,93,89.19s-2.31.54-2.47,6.5c0,0-.7,10.22-.9,12.86-.18,2.21,0,7.61,0,9.13v.4h0c.34,6.06,7.14,36.85,8.27,40.46.57,1.82,2.22,2.67,4.07,3a10.9,10.9,0,0,0,10.14-3.5c2.5-2.79,5.48-7.07,5.64-11.79ZM90.56,96.05v0Z"/><rect class="cls-8" x="94.78" y="73.86" width="24.17" height="45.52" rx="3.33"/><rect class="cls-7" x="95.93" y="75.02" width="21.86" height="43.19" rx="2.36"/><g class="cls-9"><path class="cls-10" d="M115.43,118.21H98.29L115.43,75a2.36,2.36,0,0,1,2.36,2.36v38.47A2.36,2.36,0,0,1,115.43,118.21Z"/></g><path class="cls-8" d="M102.36,74.89h9a0,0,0,0,1,0,0v.87a.92.92,0,0,1-.92.92h-7.17a.92.92,0,0,1-.92-.92v-.87A0,0,0,0,1,102.36,74.89Z"/><path class="cls-4" d="M118.51,89.09a3.22,3.22,0,0,1,3,5.22,2.73,2.73,0,0,1,.54,4.75,3.24,3.24,0,0,1,1.13,4.61,4,4,0,0,1-4.83,1.18,2.31,2.31,0,0,1-1.36-1.44,2.11,2.11,0,0,1,.73-1.93,6.38,6.38,0,0,1,1.88-1,3.11,3.11,0,0,1-.56-5.92,2.68,2.68,0,0,1-1.82-2.3c-.08-1,.39-2.66,1.32-3.13"/><path class="cls-4" d="M95.82,86.72a12.27,12.27,0,0,0-4.57,4l.37,4.87a11.16,11.16,0,0,0,3.91-3.66A5.31,5.31,0,0,0,95.82,86.72Z"/><polygon class="cls-3" points="44.68 79.49 29.41 86.83 35.23 125.56 50.97 99.68 44.68 79.49"/><polygon class="cls-3" points="32.63 88.06 28.91 88.83 27.85 90.16 34.58 144.86 46.08 136.28 32.63 88.06"/><path class="cls-4" d="M50.13,121.62s-6.86,11-7.51,12.17-9.53,12.91-9.53,12.91-2.87,9.27,1.57,13.18a18.85,18.85,0,0,0,10.83,4.57c1,0,6.65-11.35,6.65-11.35l7-20.1Z"/><path class="cls-3" d="M29.41,86.83s-4.53,4.5-6.93,14.56c-1.55,6.5-2.72,29.92-2.72,29.92S18.16,149,18.55,153s4.33,15.25,6.47,18.41c3,4.46,16.89,3.12,19.18-.75,1.24-2.1,6.18-9.95,5.93-13.66s-11.75-17.46-11.75-17.46Z"/><path class="cls-5" d="M38.38,139.57c.08.14-2.33,1.53-5.19,3.38s-5,3.66-5.06,3.55a19.63,19.63,0,0,1,4.78-4c1.44-.94,2.8-1.69,3.8-2.21A6.57,6.57,0,0,1,38.38,139.57Z"/><path class="cls-5" d="M28.2,138.73a1.85,1.85,0,0,1,.51-.07c.34,0,.84,0,1.48,0,1.29,0,3.14.18,5.42.46l1.78.22c.3,0,.64.08.91.08h0s.05,0-.08.06a.16.16,0,0,0,0,.13h0v-.9c0-1.35,0-2.79-.08-4.3-.07-3-.22-6.34-.4-9.83-.38-7-.9-13.28-1.3-17.84-.2-2.22-.37-4-.49-5.4,0-.59-.09-1.07-.12-1.47a2,2,0,0,1,0-.51,1.52,1.52,0,0,1,.11.5c.06.39.13.88.22,1.46.18,1.27.41,3.11.65,5.39.5,4.55,1.08,10.86,1.46,17.84.18,3.49.32,6.82.36,9.85,0,1.52,0,3,0,4.3v.91h0a.22.22,0,0,1-.06.15c-.14.11-.11.06-.14.07h-.06a9.32,9.32,0,0,1-1-.09l-1.78-.26c-2.27-.32-4.1-.53-5.38-.61S28.2,138.77,28.2,138.73Z"/><path class="cls-4" d="M60.41,102.17s-1,2.32-2.21,3-5.3,4.64-6.41,8a51.45,51.45,0,0,0-1.66,8.51L59.19,133a35.4,35.4,0,0,0,6.66-4.11c2-1.79,5.61-5.3,7.72-7.34a11.85,11.85,0,0,0,2.89-4.36c.16-.44.25-.78.19-.87-.22-.34-.77-1-.77-1a3.65,3.65,0,0,0-.22-2.32c-.56-.88-.89-1.43-.89-1.43s.85-1.81.52-2.69a4,4,0,0,0-1.2-1.54s6.19-3.73,6.3-4.84.27-1.4-1-1.4-9,2.73-11.09,4-6.63,3.31-6.63,3.31S63.83,102.84,60.41,102.17Z"/><path class="cls-6" d="M53.82,112.23c2.55-1.37,5.16-2.62,7.81-3.76"/><path class="cls-6" d="M63.67,113.64a117.22,117.22,0,0,0,11.15-6.8"/><path class="cls-6" d="M66.94,117.72a42.54,42.54,0,0,0,8-6"/><path class="cls-6" d="M68.42,121.71l5.5-4a6.75,6.75,0,0,0,1.38-1.23,2.27,2.27,0,0,0,.54-1.72"/><path class="cls-11" d="M18.24,172.33H121.35a4.49,4.49,0,0,1,4.51,4.48v8.93a4.49,4.49,0,0,1-4.51,4.48H18.24a4.49,4.49,0,0,1-4.52-4.48v-8.93A4.49,4.49,0,0,1,18.24,172.33Z"/><path class="cls-12" d="M45.53,184.1v-1.69c0-.1,0-.19,0-.28a2.45,2.45,0,0,1,0-.27c0-.09,0-.18,0-.28s0-.2,0-.31H46c0,.11,0,.22,0,.31s0,.19,0,.28,0,.18,0,.27v2Zm-.12-3.91a.37.37,0,0,1,0-.15.33.33,0,0,1,.07-.13l.12-.08a.32.32,0,0,1,.14,0,.37.37,0,0,1,.15,0l.11.08a.35.35,0,0,1,.08.13.37.37,0,0,1,0,.15.33.33,0,0,1,0,.15.29.29,0,0,1-.08.13.48.48,0,0,1-.11.09.37.37,0,0,1-.15,0,.32.32,0,0,1-.14,0l-.12-.09a.27.27,0,0,1-.07-.13A.33.33,0,0,1,45.41,180.19Z"/><path class="cls-12" d="M50.93,180.78a2.75,2.75,0,0,1-.15.93,2.14,2.14,0,0,1-.42.72,1.76,1.76,0,0,1-.66.48,2.29,2.29,0,0,1-1.68,0,1.84,1.84,0,0,1-.66-.48,2.14,2.14,0,0,1-.42-.72,2.75,2.75,0,0,1-.15-.93,2.69,2.69,0,0,1,.15-.92,2.09,2.09,0,0,1,.42-.73,1.84,1.84,0,0,1,.66-.48,2.16,2.16,0,0,1,1.68,0,1.76,1.76,0,0,1,.66.48,2.09,2.09,0,0,1,.42.73A2.69,2.69,0,0,1,50.93,180.78Zm-.58,0a2.45,2.45,0,0,0-.11-.74,1.58,1.58,0,0,0-.3-.56,1.26,1.26,0,0,0-.47-.35,1.48,1.48,0,0,0-.61-.12,1.51,1.51,0,0,0-.61.12,1.26,1.26,0,0,0-.47.35,1.58,1.58,0,0,0-.3.56,2.45,2.45,0,0,0-.11.74,2.35,2.35,0,0,0,.11.74,1.58,1.58,0,0,0,.3.56,1.26,1.26,0,0,0,.47.35,1.51,1.51,0,0,0,.61.12,1.48,1.48,0,0,0,.61-.12,1.26,1.26,0,0,0,.47-.35,1.58,1.58,0,0,0,.3-.56A2.35,2.35,0,0,0,50.35,180.78Z"/><path class="cls-12" d="M52.09,182.26a.77.77,0,0,0,.31.29.79.79,0,0,0,.38.09.74.74,0,0,0,.64-.32,1.54,1.54,0,0,0,.22-.9,2.76,2.76,0,0,0,0-.54,1.08,1.08,0,0,0-.15-.36.49.49,0,0,0-.24-.21.78.78,0,0,0-.31-.07.85.85,0,0,0-.45.13,1.17,1.17,0,0,0-.35.35Zm0-1.92a1.63,1.63,0,0,1,.43-.4,1.07,1.07,0,0,1,.56-.15,1,1,0,0,1,.47.11.87.87,0,0,1,.35.31,1.5,1.5,0,0,1,.23.51,2.87,2.87,0,0,1,.08.7,2.27,2.27,0,0,1-.09.65,1.73,1.73,0,0,1-.25.53,1.39,1.39,0,0,1-.41.35,1.15,1.15,0,0,1-.53.12,1,1,0,0,1-.47-.1,1,1,0,0,1-.34-.27v1.4h-.53v-4.25h.31A.13.13,0,0,1,52,180Z"/><path class="cls-12" d="M56.83,181.09a1.23,1.23,0,0,0,0-.35,1.06,1.06,0,0,0-.15-.28.69.69,0,0,0-.24-.18.66.66,0,0,0-.32-.07.75.75,0,0,0-.59.24,1,1,0,0,0-.27.64Zm.42,1.49a.8.8,0,0,1-.23.22,1.59,1.59,0,0,1-.29.15,1.68,1.68,0,0,1-.32.09,1.73,1.73,0,0,1-.32,0,1.32,1.32,0,0,1-.57-.11,1.28,1.28,0,0,1-.45-.32,1.74,1.74,0,0,1-.29-.54,2.29,2.29,0,0,1-.11-.73,2.06,2.06,0,0,1,.1-.62,1.42,1.42,0,0,1,.27-.5,1.31,1.31,0,0,1,.44-.33,1.34,1.34,0,0,1,.58-.12,1.13,1.13,0,0,1,.49.1,1.05,1.05,0,0,1,.39.27,1.24,1.24,0,0,1,.26.45,1.57,1.57,0,0,1,.1.6.36.36,0,0,1,0,.18.11.11,0,0,1-.1,0h-2a1.89,1.89,0,0,0,.08.52,1,1,0,0,0,.19.38.77.77,0,0,0,.29.22.92.92,0,0,0,.38.07,1.18,1.18,0,0,0,.34,0,1.85,1.85,0,0,0,.24-.11.83.83,0,0,0,.17-.11.28.28,0,0,1,.12-.05.1.1,0,0,1,.1.06Z"/><path class="cls-12" d="M58.43,180.49a1.43,1.43,0,0,1,.35-.51.68.68,0,0,1,.5-.19l.18,0a.52.52,0,0,1,.15.07l0,.42s0,.08-.08.08l-.12,0-.18,0a.62.62,0,0,0-.25,0,.44.44,0,0,0-.2.13.72.72,0,0,0-.16.21,2.85,2.85,0,0,0-.12.29v2h-.52v-3.18h.3a.16.16,0,0,1,.11,0,.33.33,0,0,1,0,.12Z"/><path class="cls-12" d="M61.63,181.6a4.65,4.65,0,0,0-.61.06,1.39,1.39,0,0,0-.42.13.62.62,0,0,0-.23.18.48.48,0,0,0-.07.24.65.65,0,0,0,0,.21.49.49,0,0,0,.1.16l.16.08a.58.58,0,0,0,.19,0,1,1,0,0,0,.25,0,.85.85,0,0,0,.22-.09,1.15,1.15,0,0,0,.19-.14l.18-.17ZM60,180.3a1.58,1.58,0,0,1,.53-.38,1.45,1.45,0,0,1,.63-.13,1,1,0,0,1,.44.09.8.8,0,0,1,.32.25.92.92,0,0,1,.2.38,1.47,1.47,0,0,1,.07.48v2h-.23a.21.21,0,0,1-.12,0,.14.14,0,0,1-.06-.1l-.06-.3-.23.2a1.14,1.14,0,0,1-.23.15,1.07,1.07,0,0,1-.27.09,1,1,0,0,1-.3,0,1.14,1.14,0,0,1-.33-.05.92.92,0,0,1-.27-.16.69.69,0,0,1-.17-.26.89.89,0,0,1-.07-.38.7.7,0,0,1,.1-.36.91.91,0,0,1,.31-.31,2.06,2.06,0,0,1,.57-.22,3.89,3.89,0,0,1,.85-.1V181a.86.86,0,0,0-.15-.55.51.51,0,0,0-.43-.2.81.81,0,0,0-.33.06.9.9,0,0,0-.22.11l-.17.12a.24.24,0,0,1-.13.05.12.12,0,0,1-.09,0l-.07-.07Z"/><path class="cls-12" d="M65,180.41l0,.06-.06,0a.26.26,0,0,1-.1,0l-.13-.09-.19-.08a1,1,0,0,0-.66,0,.65.65,0,0,0-.28.24,1,1,0,0,0-.17.38,1.9,1.9,0,0,0-.06.5,2,2,0,0,0,.06.51,1.21,1.21,0,0,0,.17.38.77.77,0,0,0,.28.23.8.8,0,0,0,.36.08.91.91,0,0,0,.31,0,.75.75,0,0,0,.2-.11l.14-.11a.16.16,0,0,1,.11-.05.1.1,0,0,1,.09.06l.15.2a.92.92,0,0,1-.22.22,2.26,2.26,0,0,1-.26.16,1.89,1.89,0,0,1-.62.11,1.19,1.19,0,0,1-.52-.11,1.35,1.35,0,0,1-.41-.31,1.71,1.71,0,0,1-.27-.52,2.09,2.09,0,0,1-.1-.69,2.29,2.29,0,0,1,.09-.66,1.51,1.51,0,0,1,.27-.52,1.3,1.3,0,0,1,.43-.34,1.46,1.46,0,0,1,.6-.12,1.35,1.35,0,0,1,.55.11,1.39,1.39,0,0,1,.43.3Z"/><path class="cls-12" d="M66.28,179.85V183h-.52v-3.18Zm.11-1a.41.41,0,0,1,0,.16.83.83,0,0,1-.08.12.32.32,0,0,1-.12.08.28.28,0,0,1-.15,0,.25.25,0,0,1-.14,0,.28.28,0,0,1-.11-.08.38.38,0,0,1-.11-.28.4.4,0,0,1,0-.15.29.29,0,0,1,.08-.13.31.31,0,0,1,.11-.09.35.35,0,0,1,.14,0l.15,0a.34.34,0,0,1,.12.09.41.41,0,0,1,.08.13A.4.4,0,0,1,66.39,178.85Z"/><path class="cls-12" d="M68.39,179.8a1.54,1.54,0,0,1,.58.11,1.35,1.35,0,0,1,.45.33,1.73,1.73,0,0,1,.28.52,2.07,2.07,0,0,1,.1.68,2,2,0,0,1-.1.67,1.52,1.52,0,0,1-.28.52A1.35,1.35,0,0,1,69,183a1.61,1.61,0,0,1-1.17,0,1.25,1.25,0,0,1-.45-.33,1.37,1.37,0,0,1-.28-.52,2,2,0,0,1-.1-.67,2.07,2.07,0,0,1,.1-.68,1.53,1.53,0,0,1,.28-.52,1.25,1.25,0,0,1,.45-.33A1.55,1.55,0,0,1,68.39,179.8Zm0,2.84a.73.73,0,0,0,.65-.32,1.87,1.87,0,0,0,0-1.76.71.71,0,0,0-.65-.32.8.8,0,0,0-.39.08.71.71,0,0,0-.28.24,1.12,1.12,0,0,0-.16.38,1.88,1.88,0,0,0,0,.5,1.57,1.57,0,0,0,.21.88A.77.77,0,0,0,68.39,182.64Zm.85-4.16-.68.81-.08.07-.1,0h-.31l.43-.76a.3.3,0,0,1,.09-.1.2.2,0,0,1,.14,0Z"/><path class="cls-12" d="M71,180.31a1,1,0,0,1,.21-.21,1.12,1.12,0,0,1,.22-.16.93.93,0,0,1,.26-.1,1,1,0,0,1,.3,0,.93.93,0,0,1,.42.09.67.67,0,0,1,.31.24,1,1,0,0,1,.19.38,1.53,1.53,0,0,1,.07.49v2h-.52v-2a.88.88,0,0,0-.16-.55.54.54,0,0,0-.46-.21.86.86,0,0,0-.44.12,1.6,1.6,0,0,0-.37.33V183h-.52v-3.18h.31a.13.13,0,0,1,.14.11Z"/><path class="cls-12" d="M77.21,181.09a1,1,0,0,0-.06-.35.69.69,0,0,0-.15-.28.58.58,0,0,0-.23-.18.68.68,0,0,0-.32-.07.78.78,0,0,0-.6.24,1.18,1.18,0,0,0-.27.64Zm.42,1.49a1,1,0,0,1-.23.22,1.59,1.59,0,0,1-.29.15,1.68,1.68,0,0,1-.32.09l-.32,0a1.32,1.32,0,0,1-.57-.11,1.28,1.28,0,0,1-.45-.32,1.56,1.56,0,0,1-.29-.54,2.29,2.29,0,0,1-.11-.73,1.79,1.79,0,0,1,.1-.62,1.42,1.42,0,0,1,.27-.5,1.31,1.31,0,0,1,.44-.33,1.34,1.34,0,0,1,.58-.12,1.16,1.16,0,0,1,.49.1,1.05,1.05,0,0,1,.39.27,1.24,1.24,0,0,1,.26.45,1.8,1.8,0,0,1,.09.6.39.39,0,0,1,0,.18.11.11,0,0,1-.1,0h-2a1.92,1.92,0,0,0,.07.52,1.06,1.06,0,0,0,.2.38.77.77,0,0,0,.29.22.92.92,0,0,0,.38.07,1.18,1.18,0,0,0,.34,0l.24-.11a.83.83,0,0,0,.17-.11.28.28,0,0,1,.12-.05.11.11,0,0,1,.1.06Z"/><path class="cls-12" d="M80.71,183h-.5a.12.12,0,0,1-.1,0,.16.16,0,0,1-.06-.08l-.75-1.24s0,.05,0,.08a.2.2,0,0,1,0,.08l-.69,1.08-.06.08a.12.12,0,0,1-.09,0h-.47l1-1.63-1-1.55h.5l.09,0,.06.06.73,1.2a.67.67,0,0,1,.07-.18l.64-1s0-.06,0-.07a.13.13,0,0,1,.08,0h.48l-1,1.52Z"/><path class="cls-12" d="M81.74,179.85V183h-.52v-3.18Zm.11-1a.41.41,0,0,1,0,.16.83.83,0,0,1-.08.12.25.25,0,0,1-.12.08.25.25,0,0,1-.14,0,.26.26,0,0,1-.15,0,.28.28,0,0,1-.11-.08.38.38,0,0,1-.11-.28.4.4,0,0,1,0-.15.29.29,0,0,1,.08-.13.31.31,0,0,1,.11-.09.37.37,0,0,1,.15,0,.35.35,0,0,1,.14,0,.27.27,0,0,1,.12.09.41.41,0,0,1,.08.13A.4.4,0,0,1,81.85,178.85Z"/><path class="cls-12" d="M83.51,183.08a.67.67,0,0,1-.54-.21.86.86,0,0,1-.19-.61v-1.94h-.36a.11.11,0,0,1-.08,0,.13.13,0,0,1,0-.1V180l.49-.06.12-1a.09.09,0,0,1,0-.07.14.14,0,0,1,.09,0h.26v1.09h.86v.41H83.3v1.9a.41.41,0,0,0,.09.3.3.3,0,0,0,.24.1l.14,0,.1-.06a.18.18,0,0,0,.07,0l.06,0s0,0,.07.05l.15.27a.81.81,0,0,1-.32.21A1.09,1.09,0,0,1,83.51,183.08Z"/><path class="cls-12" d="M85.93,179.8a1.5,1.5,0,0,1,.58.11,1.25,1.25,0,0,1,.45.33,1.53,1.53,0,0,1,.28.52,2.07,2.07,0,0,1,.1.68,2,2,0,0,1-.1.67,1.37,1.37,0,0,1-.28.52,1.25,1.25,0,0,1-.45.33,1.5,1.5,0,0,1-.58.11,1.55,1.55,0,0,1-.59-.11,1.25,1.25,0,0,1-.45-.33,1.37,1.37,0,0,1-.28-.52,2,2,0,0,1-.1-.67,2.07,2.07,0,0,1,.1-.68,1.53,1.53,0,0,1,.28-.52,1.25,1.25,0,0,1,.45-.33A1.55,1.55,0,0,1,85.93,179.8Zm0,2.84a.73.73,0,0,0,.65-.32,1.87,1.87,0,0,0,0-1.76.71.71,0,0,0-.65-.32.8.8,0,0,0-.39.08.71.71,0,0,0-.28.24,1.12,1.12,0,0,0-.16.38,2.41,2.41,0,0,0,0,.5,1.57,1.57,0,0,0,.21.88A.77.77,0,0,0,85.93,182.64Z"/><path class="cls-12" d="M89.73,180.37a.12.12,0,0,1-.11.07l-.1,0-.14-.08-.19-.08a1,1,0,0,0-.26,0,.88.88,0,0,0-.24,0,.77.77,0,0,0-.18.1.33.33,0,0,0-.11.15.34.34,0,0,0,0,.18.32.32,0,0,0,.06.2.62.62,0,0,0,.18.14,1.33,1.33,0,0,0,.24.11l.28.1.29.11a.78.78,0,0,1,.24.16.68.68,0,0,1,.18.23.79.79,0,0,1,.06.32,1.07,1.07,0,0,1-.07.41.91.91,0,0,1-.22.33.93.93,0,0,1-.35.21,1.34,1.34,0,0,1-.48.08,1.47,1.47,0,0,1-.56-.11,1.45,1.45,0,0,1-.43-.28l.13-.21a.1.1,0,0,1,0-.06.11.11,0,0,1,.08,0,.21.21,0,0,1,.12.05l.14.1.2.09a.85.85,0,0,0,.3.05,1.1,1.1,0,0,0,.27,0,.62.62,0,0,0,.19-.12.5.5,0,0,0,.11-.17.65.65,0,0,0,0-.2.33.33,0,0,0-.07-.21.5.5,0,0,0-.17-.15l-.25-.11-.29-.1-.28-.11a1.32,1.32,0,0,1-.25-.16.81.81,0,0,1-.17-.24.75.75,0,0,1-.07-.35,1,1,0,0,1,.07-.35.86.86,0,0,1,.21-.29.93.93,0,0,1,.33-.21,1.25,1.25,0,0,1,.45-.07,1.24,1.24,0,0,1,.52.1,1,1,0,0,1,.4.27Z"/><path class="cls-12" d="M92.14,181.6a4.65,4.65,0,0,0-.61.06,1.39,1.39,0,0,0-.42.13.62.62,0,0,0-.23.18.4.4,0,0,0-.07.24.46.46,0,0,0,0,.21.49.49,0,0,0,.1.16l.16.08a.58.58,0,0,0,.19,0,1,1,0,0,0,.25,0,.85.85,0,0,0,.22-.09,1.15,1.15,0,0,0,.19-.14l.18-.17Zm-1.68-1.3a1.58,1.58,0,0,1,.53-.38,1.45,1.45,0,0,1,.63-.13,1,1,0,0,1,.44.09.8.8,0,0,1,.32.25.92.92,0,0,1,.2.38,1.47,1.47,0,0,1,.07.48v2h-.23a.21.21,0,0,1-.12,0,.14.14,0,0,1-.06-.1l-.06-.3-.23.2a1.14,1.14,0,0,1-.23.15,1.22,1.22,0,0,1-.27.09,1,1,0,0,1-.3,0,1.14,1.14,0,0,1-.33-.05.92.92,0,0,1-.27-.16.69.69,0,0,1-.17-.26.89.89,0,0,1-.07-.38.7.7,0,0,1,.1-.36.91.91,0,0,1,.31-.31,2.06,2.06,0,0,1,.57-.22,3.89,3.89,0,0,1,.85-.1V181a.86.86,0,0,0-.15-.55.51.51,0,0,0-.43-.2.81.81,0,0,0-.33.06,1.23,1.23,0,0,0-.23.11l-.16.12a.24.24,0,0,1-.13.05.12.12,0,0,1-.09,0l-.07-.07Z"/><path class="cls-12" d="M94.07,178.53v1.8a2.44,2.44,0,0,1,0,.27,2.72,2.72,0,0,1,0,.28c0,.09,0,.18,0,.27l0,.31h-.35c0-.11,0-.21,0-.31a2.45,2.45,0,0,0,0-.27c0-.1,0-.19,0-.28a2.44,2.44,0,0,1,0-.27v-1.8Zm-.62,4.15a.77.77,0,0,1,0-.15.57.57,0,0,1,.08-.13.5.5,0,0,1,.12-.08.34.34,0,0,1,.28,0,.36.36,0,0,1,.12.08.57.57,0,0,1,.08.13.4.4,0,0,1,0,.15.41.41,0,0,1,0,.16.36.36,0,0,1-.08.12A.25.25,0,0,1,94,183a.37.37,0,0,1-.4-.08.36.36,0,0,1-.08-.12A.78.78,0,0,1,93.45,182.68Z"/><g class="cls-13"><path class="cls-3" d="M28.36,0V26.51h4.71v7.78H28.36v9.87H19.05V34.29H0V27.34Q1.4,24.53,3.5,21t4.69-7.27Q10.77,10,13.64,6.44A79.27,79.27,0,0,1,19.37,0ZM19.05,11.6c-1.65,2.17-3.42,4.52-5.28,7.07a48.14,48.14,0,0,0-4.72,7.84h10Z"/></g><g class="cls-14"><path class="cls-15" d="M102.4,96.1a7.74,7.74,0,0,0,4-10A7.39,7.39,0,0,0,96.66,82a7.72,7.72,0,0,0-4,10A7.39,7.39,0,0,0,102.4,96.1Z"/><path class="cls-11" d="M100.08,96.68l-.32,0h-.11l-.25,0A7.5,7.5,0,0,1,91.52,90a7.62,7.62,0,0,1,5.66-8.31,8.52,8.52,0,0,1,.88-.16l.33,0,.31,0a5.87,5.87,0,0,1,.94,0,6.81,6.81,0,0,1,1.36.26,7.45,7.45,0,0,1,3.48,2.27,7.73,7.73,0,0,1,1.83,4.21A7.62,7.62,0,0,1,100.08,96.68Z"/><path class="cls-15" d="M96.4,95.56a6.67,6.67,0,0,1-1.63-1A7,7,0,0,1,93.7,85a6.57,6.57,0,0,1,4.46-2.55,6.72,6.72,0,0,1,7.39,6A6.81,6.81,0,0,1,99.68,96,6.31,6.31,0,0,1,96.4,95.56Zm5-12.51a6.26,6.26,0,0,0-3.2-.46,6.46,6.46,0,0,0-4.34,2.48A6.78,6.78,0,0,0,92.47,90a6.7,6.7,0,0,0,2.42,4.46,6.35,6.35,0,0,0,4.77,1.4,6.71,6.71,0,0,0,1.72-12.79Z"/></g><path class="cls-15" d="M98.43,92.21a5,5,0,0,1-1.13-.31,6.84,6.84,0,0,1-.79-.42l.61-1.31.31.2.49.25.55.22a1.78,1.78,0,0,0,.52.09.88.88,0,0,0,.62-.18.56.56,0,0,0,.19-.44.53.53,0,0,0-.27-.48,6,6,0,0,0-.77-.35,3.91,3.91,0,0,1-1.47-.86,1.84,1.84,0,0,1-.51-1.35,1.44,1.44,0,0,1,.13-.62,1.64,1.64,0,0,1,.34-.5,2,2,0,0,1,.52-.39,2.36,2.36,0,0,1,.66-.24V84.6h1.43v.9a4.56,4.56,0,0,1,1.06.28,4.37,4.37,0,0,1,.78.38l-.63,1.21-.36-.18a3.91,3.91,0,0,0-.41-.2,2.69,2.69,0,0,0-.46-.14,1.51,1.51,0,0,0-.46-.07,1,1,0,0,0-.51.11.37.37,0,0,0-.17.33.57.57,0,0,0,.31.47,6.45,6.45,0,0,0,1,.46,3.16,3.16,0,0,1,1.29.83,1.87,1.87,0,0,1,.41,1.24,1.93,1.93,0,0,1-.12.67,1.91,1.91,0,0,1-.36.59,2.25,2.25,0,0,1-.58.47,2.52,2.52,0,0,1-.8.27v1.1H98.43Z"/><g class="cls-16"><path class="cls-15" d="M110.05,113.76a7.72,7.72,0,0,0,4-10,7.39,7.39,0,0,0-9.74-4.11,7.72,7.72,0,0,0-4,10A7.39,7.39,0,0,0,110.05,113.76Z"/><path class="cls-11" d="M107.73,114.34l-.32,0h-.11l-.25,0a7.51,7.51,0,0,1-7.89-6.76,7.64,7.64,0,0,1,5.66-8.31,8.72,8.72,0,0,1,.89-.16l.32,0,.31,0a7.47,7.47,0,0,1,1,0,6.21,6.21,0,0,1,1.35.27,7.46,7.46,0,0,1,3.49,2.27,7.69,7.69,0,0,1,1.82,4.2A7.61,7.61,0,0,1,107.73,114.34Z"/><path class="cls-15" d="M104,113.22a6.61,6.61,0,0,1-1.62-1,6.82,6.82,0,0,1-2.48-4.58,7,7,0,0,1,1.4-5,6.59,6.59,0,0,1,4.47-2.55,6.72,6.72,0,0,1,7.38,6,6.82,6.82,0,0,1-5.86,7.59A6.46,6.46,0,0,1,104,113.22Zm5-12.51a6.24,6.24,0,0,0-3.19-.46,6.46,6.46,0,0,0-4.35,2.48,6.78,6.78,0,0,0-1.36,4.91,6.67,6.67,0,0,0,2.41,4.46,6.34,6.34,0,0,0,4.78,1.4A6.7,6.7,0,0,0,109,100.71Z"/></g><path class="cls-15" d="M106.08,109.87a5,5,0,0,1-1.14-.31,6.6,6.6,0,0,1-.78-.42l.6-1.31.32.2.48.25a5.25,5.25,0,0,0,.55.22,1.84,1.84,0,0,0,.53.09.9.9,0,0,0,.62-.18.6.6,0,0,0,.19-.44.53.53,0,0,0-.27-.48,6.27,6.27,0,0,0-.78-.35,4.08,4.08,0,0,1-1.47-.86,1.86,1.86,0,0,1-.5-1.35,1.59,1.59,0,0,1,.12-.62,1.68,1.68,0,0,1,.35-.5,1.82,1.82,0,0,1,.52-.39,2.36,2.36,0,0,1,.66-.24v-.92h1.42v.9a4.51,4.51,0,0,1,1.07.28,4.24,4.24,0,0,1,.77.38l-.62,1.21-.36-.18a4.09,4.09,0,0,0-.42-.2,2.44,2.44,0,0,0-.46-.14,1.51,1.51,0,0,0-.46-.07,1,1,0,0,0-.5.11.35.35,0,0,0-.17.33.58.58,0,0,0,.3.47,6,6,0,0,0,1,.46,3.16,3.16,0,0,1,1.29.83,1.84,1.84,0,0,1,.42,1.25,1.72,1.72,0,0,1-.13.66,1.91,1.91,0,0,1-.36.59,2.1,2.1,0,0,1-.58.47,2.44,2.44,0,0,1-.8.27V111h-1.42Z"/><g class="cls-17"><path class="cls-15" d="M117.4,94.26A4.91,4.91,0,0,0,120,87.89a4.71,4.71,0,0,0-6.21-2.62,4.93,4.93,0,0,0-2.54,6.38A4.69,4.69,0,0,0,117.4,94.26Z"/><path class="cls-11" d="M115.92,94.64l-.2,0h-.07l-.16,0a4.79,4.79,0,0,1-5-4.31,4.85,4.85,0,0,1,3.6-5.29,3.78,3.78,0,0,1,.57-.1l.2,0h.2a4.1,4.1,0,0,1,.61,0,4.22,4.22,0,0,1,.86.17,4.77,4.77,0,0,1,2.22,1.44,5,5,0,0,1,1.16,2.68A4.86,4.86,0,0,1,115.92,94.64Z"/><path class="cls-15" d="M113.58,93.92a4.09,4.09,0,0,1-1-.62,4.46,4.46,0,0,1-.68-6.13,4.15,4.15,0,0,1,2.84-1.62,4.28,4.28,0,0,1,4.71,3.84,4.35,4.35,0,0,1-3.74,4.83A4.13,4.13,0,0,1,113.58,93.92Zm3.17-8a4,4,0,0,0-4.8,1.29,4.33,4.33,0,0,0,.67,6,4,4,0,0,0,3,.89A4.28,4.28,0,0,0,116.75,86Z"/><path class="cls-15" d="M114.83,90.7a.47.47,0,0,0,0-.17.41.41,0,0,0-.1-.14,1.27,1.27,0,0,0-.22-.13l-.35-.14a3.86,3.86,0,0,1-.51-.2,2.55,2.55,0,0,1-.43-.25,1.1,1.1,0,0,1-.3-.35.91.91,0,0,1-.11-.47.9.9,0,0,1,.11-.46,1.06,1.06,0,0,1,.32-.35,1.51,1.51,0,0,1,.48-.22,2,2,0,0,1,.61-.08,1.86,1.86,0,0,1,.77.15,1.22,1.22,0,0,1,.52.43,1.08,1.08,0,0,1,.19.65h-1a.6.6,0,0,0-.06-.27.52.52,0,0,0-.18-.18.75.75,0,0,0-.31-.06.85.85,0,0,0-.3.05.42.42,0,0,0-.19.15.36.36,0,0,0-.06.2.24.24,0,0,0,.05.16.44.44,0,0,0,.14.13.84.84,0,0,0,.23.12l.31.12a3.63,3.63,0,0,1,.56.22,1.84,1.84,0,0,1,.41.28,1,1,0,0,1,.26.36,1.16,1.16,0,0,1,0,.92,1,1,0,0,1-.3.35,1.5,1.5,0,0,1-.46.21,2.23,2.23,0,0,1-.6.08,2.49,2.49,0,0,1-.61-.08,1.7,1.7,0,0,1-.53-.24,1.24,1.24,0,0,1-.38-.41,1.22,1.22,0,0,1-.14-.61h1a.84.84,0,0,0,0,.29.48.48,0,0,0,.14.2.64.64,0,0,0,.22.1,1.26,1.26,0,0,0,.3,0,.76.76,0,0,0,.29,0,.45.45,0,0,0,.16-.14A.35.35,0,0,0,114.83,90.7Z"/><path class="cls-15" d="M117.91,87.79l-1.36,4.3h-.65l1.36-4.3Z"/><circle class="cls-15" cx="117.68" cy="91.41" r="0.41"/></g><path class="cls-4" d="M118.73,89.09a3.23,3.23,0,0,1,3,5.22,2.74,2.74,0,0,1,.54,4.75,3.25,3.25,0,0,1,1.12,4.61,4,4,0,0,1-4.82,1.18,2.28,2.28,0,0,1-1.36-1.44,2.08,2.08,0,0,1,.72-1.93,6.38,6.38,0,0,1,1.88-1,3.11,3.11,0,0,1-.56-5.92,2.68,2.68,0,0,1-1.81-2.3c-.08-1,.39-2.66,1.31-3.13"/><path class="cls-6" d="M64.53,53.11a2.69,2.69,0,1,0-3.41,4,3.38,3.38,0,0,0,2.15.29,2.61,2.61,0,0,0,1.48-.71,2.41,2.41,0,0,0,.45-2.26,3.69,3.69,0,0,0-1-1.68"/><path class="cls-5" d="M65.31,51.91c-.28-.12-1,1.83-3.21,2.59s-4.18-.24-4.3,0c-.07.11.32.55,1.19.91a5.23,5.23,0,0,0,3.55.08,4.53,4.53,0,0,0,2.57-2.22C65.49,52.52,65.45,52,65.31,51.91Z"/></g></g></svg>