<svg xmlns="http://www.w3.org/2000/svg" xmlns:xlink="http://www.w3.org/1999/xlink" viewBox="0 0 194.22 190.36"><defs><style>.cls-1{fill:none;}.cls-2{fill:#20a1a4;}.cls-3{fill:#fff;}.cls-4{opacity:0.17;}.cls-5{fill:#dbdbdb;}.cls-6{clip-path:url(#clip-path);}.cls-7{fill:#eab726;}.cls-8{fill:#ffeb4d;}.cls-9{fill:#0d8284;}.cls-10{clip-path:url(#clip-path-2);}.cls-11{opacity:0.45;}.cls-12{fill:#20a2a5;}.cls-13{fill:#422e19;}.cls-14{fill:#ffbe9d;}.cls-15{fill:#eb996e;}.cls-16{fill:#263238;}.cls-17{opacity:0.3;}.cls-18,.cls-19{opacity:0.2;}.cls-19{isolation:isolate;}</style><clipPath id="clip-path"><rect class="cls-1" x="150.94" y="20.95" width="43.45" height="43.45"/></clipPath><clipPath id="clip-path-2"><rect class="cls-1" x="121.83" y="77.07" width="43.23" height="43.23"/></clipPath></defs><g id="Capa_2" data-name="Capa 2"><g id="Capa_1-2" data-name="Capa 1"><rect class="cls-2" x="48.3" width="101.08" height="190.36" rx="13.92" transform="translate(197.68 190.36) rotate(-180)"/><rect class="cls-3" x="53.13" y="4.87" width="91.41" height="180.63" rx="9.86"/><g class="cls-4"><path class="cls-5" d="M63,185.5h71.68L63,4.87a9.86,9.86,0,0,0-9.87,9.86v160.9A9.87,9.87,0,0,0,63,185.5Z"/></g><path class="cls-2" d="M83.85,4.32h30a3.84,3.84,0,0,1,3.84,3.84V11.8a0,0,0,0,1,0,0H80a0,0,0,0,1,0,0V8.16A3.84,3.84,0,0,1,83.85,4.32Z" transform="translate(197.68 16.13) rotate(-180)"/><g class="cls-6"><path class="cls-7" d="M181.49,62.23a21.49,21.49,0,0,0,11.12-27.85A20.53,20.53,0,0,0,165.5,23a21.49,21.49,0,0,0-11.12,27.84A20.53,20.53,0,0,0,181.49,62.23Z"/><path class="cls-8" d="M175,63.85l-.89.13-.3,0q-.34,0-.69.06a20.89,20.89,0,0,1-22-18.82A21.25,21.25,0,0,1,167,22.13a19.75,19.75,0,0,1,2.46-.44c.3,0,.61-.07.91-.09l.87-.05a20.38,20.38,0,0,1,16.09,7.16,21.44,21.44,0,0,1,5.08,11.7A21.19,21.19,0,0,1,175,63.85Z"/><path class="cls-7" d="M164.78,60.74A18.79,18.79,0,0,1,160.26,58a19.41,19.41,0,0,1-3-26.79,18.25,18.25,0,0,1,12.42-7.08,18.7,18.7,0,0,1,20.56,16.77A19,19,0,0,1,173.93,62,18,18,0,0,1,164.78,60.74Zm13.86-34.83a17.63,17.63,0,0,0-8.89-1.27,17.85,17.85,0,0,0-12.09,6.9,18.79,18.79,0,0,0-3.8,13.65,18.55,18.55,0,0,0,6.71,12.42,17.66,17.66,0,0,0,13.3,3.91,18.68,18.68,0,0,0,4.77-35.61Z"/></g><path class="cls-7" d="M170.44,51.42a13.12,13.12,0,0,1-3.15-.88,19.12,19.12,0,0,1-2.19-1.16l1.69-3.65.87.56q.63.35,1.35.69c.5.23,1,.44,1.53.62a4.92,4.92,0,0,0,1.47.25,2.44,2.44,0,0,0,1.72-.5,1.62,1.62,0,0,0,.53-1.22,1.45,1.45,0,0,0-.75-1.34,15.78,15.78,0,0,0-2.16-1,11.24,11.24,0,0,1-4.09-2.4,5.13,5.13,0,0,1-1.41-3.75,4.36,4.36,0,0,1,.34-1.72,4.8,4.8,0,0,1,1-1.41,5.7,5.7,0,0,1,1.44-1.09,7.72,7.72,0,0,1,1.84-.66V30.23h4v2.5a13.39,13.39,0,0,1,3,.78,12.07,12.07,0,0,1,2.16,1.06L177.79,38l-1-.5a8.94,8.94,0,0,0-1.16-.57,9.49,9.49,0,0,0-1.28-.4,4.46,4.46,0,0,0-1.28-.19,2.78,2.78,0,0,0-1.41.31,1,1,0,0,0-.47.91,1.59,1.59,0,0,0,.85,1.31,16.8,16.8,0,0,0,2.81,1.28,8.75,8.75,0,0,1,3.59,2.32,5.11,5.11,0,0,1,1.16,3.46,5.17,5.17,0,0,1-.34,1.85,5.61,5.61,0,0,1-1,1.65,6.54,6.54,0,0,1-1.63,1.32,7.26,7.26,0,0,1-2.22.75v3.06h-4Z"/><path class="cls-9" d="M139.14,45.3a1,1,0,0,0-.24-.4,1.1,1.1,0,0,0-.38-.27,1.22,1.22,0,0,0-.46-.09,13.67,13.67,0,0,0-7.24,2.25,13.93,13.93,0,0,0-5,5.77,13.66,13.66,0,0,0-1.17,7.5,13.42,13.42,0,0,0,3,6.91l-2.75-.2a1.15,1.15,0,0,0-1.22,1,1.14,1.14,0,0,0,.26.83,1.17,1.17,0,0,0,.77.39l4.5.32a2.31,2.31,0,0,0,1.65-.55,2.37,2.37,0,0,0,.8-1.56l.39-4.53a1.11,1.11,0,0,0-.26-.82,1.09,1.09,0,0,0-.77-.39,1.13,1.13,0,0,0-.82.28,1.14,1.14,0,0,0-.4.77l-.27,3.11a11.1,11.1,0,0,1-2.61-5.77,11.52,11.52,0,0,1,11.18-13.09,1.13,1.13,0,0,0,.74-.31,1.17,1.17,0,0,0,.35-.74A1.22,1.22,0,0,0,139.14,45.3Z"/><path class="cls-9" d="M186.65,70.09a1.14,1.14,0,0,0-.26-.83,1.09,1.09,0,0,0-.77-.39l-4.5-.32a2.31,2.31,0,0,0-2.45,2.11l-.39,4.53a1.11,1.11,0,0,0,.26.82,1.09,1.09,0,0,0,.77.39,1.16,1.16,0,0,0,1.22-1.05l.27-3.11A11.1,11.1,0,0,1,183.41,78,11.52,11.52,0,0,1,172.23,91.1a1.13,1.13,0,0,0-.74.31,1.17,1.17,0,0,0-.35.73,1.24,1.24,0,0,0,.06.47,1,1,0,0,0,.24.4,1.1,1.1,0,0,0,.38.27,1,1,0,0,0,.46.08,13.57,13.57,0,0,0,7.24-2.24,13.93,13.93,0,0,0,5-5.77,13.75,13.75,0,0,0,1.17-7.5,13.42,13.42,0,0,0-3-6.91l2.75.2a1.16,1.16,0,0,0,1.22-1Z"/><g class="cls-10"><path class="cls-7" d="M152.21,118.12a21.36,21.36,0,0,0,11.07-27.69,20.42,20.42,0,0,0-27-11.38,21.38,21.38,0,0,0-11.07,27.7A20.41,20.41,0,0,0,152.21,118.12Z"/><path class="cls-8" d="M145.79,119.74l-.88.13-.3,0-.69.06a20.78,20.78,0,0,1-21.84-18.72,21.12,21.12,0,0,1,15.67-23,18.21,18.21,0,0,1,2.45-.44l.9-.09c.29,0,.58,0,.87,0a18.87,18.87,0,0,1,2.61.09,20.3,20.3,0,0,1,3.74.74A20.62,20.62,0,0,1,158,84.79,21.36,21.36,0,0,1,163,96.42,21.07,21.07,0,0,1,145.79,119.74Z"/><path class="cls-7" d="M135.59,116.65a18.91,18.91,0,0,1-11.35-15.41,19.2,19.2,0,0,1,3.88-14,18.25,18.25,0,0,1,12.36-7,18.61,18.61,0,0,1,20.45,16.69c1.16,10.39-6.12,19.82-16.24,21A18.05,18.05,0,0,1,135.59,116.65ZM149.38,82a17.44,17.44,0,0,0-8.85-1.25,17.74,17.74,0,0,0-12,6.85,18.72,18.72,0,0,0-3.78,13.59,18.48,18.48,0,0,0,6.68,12.35,17.53,17.53,0,0,0,13.23,3.89A18.58,18.58,0,0,0,149.38,82Z"/><path class="cls-7" d="M141.06,102.63a2.05,2.05,0,0,0-.12-.72,1.55,1.55,0,0,0-.44-.61,3.87,3.87,0,0,0-.92-.57,12.61,12.61,0,0,0-1.56-.62,21.17,21.17,0,0,1-2.19-.85A9.84,9.84,0,0,1,134,98.14a5.07,5.07,0,0,1-1.31-1.51,4.11,4.11,0,0,1-.49-2,4,4,0,0,1,.5-2A4.45,4.45,0,0,1,134,91.07a6.5,6.5,0,0,1,2.11-1,9.53,9.53,0,0,1,2.64-.35,7.77,7.77,0,0,1,3.33.67,5.22,5.22,0,0,1,2.27,1.85,4.87,4.87,0,0,1,.83,2.83h-4.13a2.38,2.38,0,0,0-.27-1.15,1.86,1.86,0,0,0-.79-.78,2.83,2.83,0,0,0-1.34-.28,3.34,3.34,0,0,0-1.31.23,1.9,1.9,0,0,0-.81.64,1.49,1.49,0,0,0-.27.87,1.28,1.28,0,0,0,.21.71,2.76,2.76,0,0,0,.63.58,7.52,7.52,0,0,0,1,.52c.4.16.84.32,1.33.48a16.51,16.51,0,0,1,2.44,1,7.74,7.74,0,0,1,1.81,1.22,4.52,4.52,0,0,1,1.12,1.54,4.65,4.65,0,0,1,.39,2,4.56,4.56,0,0,1-.45,2.06,4.18,4.18,0,0,1-1.29,1.52,6.23,6.23,0,0,1-2,.94,10,10,0,0,1-2.61.32,10.51,10.51,0,0,1-2.62-.33,7.76,7.76,0,0,1-2.32-1.05,5.3,5.3,0,0,1-1.66-1.8,5.42,5.42,0,0,1-.62-2.64h4.16a3.47,3.47,0,0,0,.21,1.28,1.94,1.94,0,0,0,.59.83,2.37,2.37,0,0,0,1,.45,5.6,5.6,0,0,0,1.3.13,3,3,0,0,0,1.27-.22,1.56,1.56,0,0,0,.71-.62A1.67,1.67,0,0,0,141.06,102.63Z"/><path class="cls-7" d="M154.42,90l-5.89,18.7h-2.84L151.58,90Z"/><circle class="cls-7" cx="153.4" cy="105.71" r="1.78"/></g><g class="cls-11"><path class="cls-12" d="M96.15,69.9a33.22,33.22,0,0,1-3.88-.24c-1.36-.16-2.68-.37-4-.65s-2.43-.56-3.47-.88a20.25,20.25,0,0,1-2.45-.89l2-8.44q1.77.75,4.53,1.6a23.44,23.44,0,0,0,6.84.85c3.13,0,5.43-.59,6.88-1.77a5.83,5.83,0,0,0,2.18-4.77,5.68,5.68,0,0,0-.79-3.09,6,6,0,0,0-2.14-2,9.76,9.76,0,0,0-3.23-1.09,25.26,25.26,0,0,0-4-.3h-4V40h4.5a15.23,15.23,0,0,0,2.89-.27,8,8,0,0,0,2.49-.92,4.89,4.89,0,0,0,1.73-1.77,5.62,5.62,0,0,0,.65-2.83,4.41,4.41,0,0,0-.55-2.25A4.86,4.86,0,0,0,101,30.41a6,6,0,0,0-2-.92,8.36,8.36,0,0,0-2.28-.31,16,16,0,0,0-5.41.89,22.09,22.09,0,0,0-4.53,2.18l-3.61-7.43c.73-.45,1.58-.93,2.56-1.43A26.37,26.37,0,0,1,89,22a28.91,28.91,0,0,1,3.78-1A21.53,21.53,0,0,1,97,20.6a23.24,23.24,0,0,1,7.18,1,13.49,13.49,0,0,1,5,2.79,11.22,11.22,0,0,1,2.93,4.21,14.15,14.15,0,0,1,.95,5.27,10.45,10.45,0,0,1-1.56,5.41,10.33,10.33,0,0,1-4.22,4A12.22,12.22,0,0,1,113,47.71a12.37,12.37,0,0,1,2,7.12,16.21,16.21,0,0,1-1.09,6,12.18,12.18,0,0,1-3.4,4.78,16.42,16.42,0,0,1-5.89,3.13A28.41,28.41,0,0,1,96.15,69.9Z"/></g><path class="cls-13" d="M85,69.63c.36,7,8.91,16.5,15.29,18.05,3.37.84,7.22.42,9.87,2.69,4.57,3.83,1.87,11.78,4.94,16.92,1.86,3.17,5.65,4.72,7.76,7.71,3.55,5,1.15,12.55-3.67,16.26s-11.2,4.42-17.28,4.24c-13.24-.35-26.85-4.54-36.48-13.86-4.51-4.37-22.15-17.94-16-50"/><path class="cls-13" d="M76.76,100.42a14.47,14.47,0,0,0,4.51,9.32A14.77,14.77,0,0,0,91,113.63c2.53.06,5.24-.54,7.59.48,2,.89,3.31,2.86,4.94,4.36A14.65,14.65,0,0,0,118,121.7c2.11-.72,5.42-2.22,5.78-4.37.3-1.67-1.74-3.28-3-4.48a14.14,14.14,0,0,0-4.27-2.63C104.21,104.48,91,100.3,77.42,99.58"/><path class="cls-14" d="M20.45,112.56s-5.24-3.19-6.42-2.25a7.51,7.51,0,0,0-2.27,3.63S9,103.4,6.36,103.8c-1.51.22-.77,1.4-.09,2.88A55.89,55.89,0,0,1,8,113.1s-5-5.93-6.47-5.83c-1.13.09-1.3,1.09.34,2.69s4.35,6.66,4.35,6.66-3.5-3.27-4.95-3.29c-1.15,0-1.9.79-.41,2.09s3.76,2.27,5,4.61c1.49,2.9,4.66,10.1,4.66,10.1l11.09-3.92s1.81-7.36,1.88-9.15c0,0-.15-3.78-.13-4.45s-1.76-.84-2.31.45-.29,2.64-.51,3.5a3.27,3.27,0,0,1-1.24,2c-.63.38-2.23.41-2.63-.06a6.7,6.7,0,0,1-1-2.71,12.06,12.06,0,0,1,0-2.19S20.22,115.51,20.45,112.56Z"/><path class="cls-14" d="M145.07,146.89l7.7-2.89s7.85-4.6,9.3-3a1.61,1.61,0,0,1,2.24.91c.4,1-.91,2.35-.91,2.35s.41.42-.24,1.83-8.1,5.85-8.1,5.85-9.69,5.28-13.6,7.8l-6.76-9.19.94-.35s.56-4.58,2.43-5.8a18,18,0,0,0,5.05-6.33c.54-1.41,3.14-.76,2.7,2.17s-2.7,3.68-2.49,5.63S145.07,146.89,145.07,146.89Z"/><path class="cls-15" d="M156.88,148a30.75,30.75,0,0,0,3.35-1.75,32.85,32.85,0,0,0,3.25-1.94,31.37,31.37,0,0,0-3.36,1.75A33.36,33.36,0,0,0,156.88,148Z"/><path class="cls-15" d="M153.12,145.79a10.54,10.54,0,0,0,1.38-.55c.85-.37,2-.9,3.25-1.53a33.88,33.88,0,0,0,3.12-1.79c.39-.25.7-.46.9-.62a1.67,1.67,0,0,0,.3-.26,13.68,13.68,0,0,0-1.28.75c-.79.46-1.89,1.08-3.14,1.72s-2.39,1.18-3.21,1.58A8.82,8.82,0,0,0,153.12,145.79Z"/><path class="cls-15" d="M151.5,150a4.22,4.22,0,0,0,.68-.37l1.82-1.08h0v0a24.7,24.7,0,0,1,1.31-2.5,5.84,5.84,0,0,1,1-1.3,1.23,1.23,0,0,1,1.52-.11.88.88,0,0,1,.24.22l0,.05,0,.1c0,.06,0,.12-.07.19-.09.25-.19.51-.29.76l-.59,1.44c-.38.91-.74,1.75-1,2.48v0l-1.55,1.82-.41.5a1,1,0,0,0-.14.19.79.79,0,0,0,.17-.16l.45-.47,1.61-1.77h0c.32-.72.69-1.55,1.08-2.47q.3-.69.6-1.44c.1-.25.21-.5.3-.77a1.18,1.18,0,0,0,.07-.2l0-.1a.68.68,0,0,0,0-.15.42.42,0,0,0-.16-.23l-.18-.14a1.48,1.48,0,0,0-.93-.24,1.5,1.5,0,0,0-.85.37,6,6,0,0,0-1,1.36,24.27,24.27,0,0,0-1.28,2.55l0,0-1.78,1.15A5.54,5.54,0,0,0,151.5,150Z"/><path class="cls-15" d="M143.77,150.11a5,5,0,0,0,.95-.23,9.54,9.54,0,0,1,2.28-.41,4.18,4.18,0,0,1,2.19.54,8.36,8.36,0,0,1,.76.58,1.74,1.74,0,0,0-.67-.71,3.92,3.92,0,0,0-2.29-.63,7.74,7.74,0,0,0-2.32.47A3.87,3.87,0,0,0,143.77,150.11Z"/><path class="cls-15" d="M144.35,148.07s.14.37.33.8.3.8.37.78a1.41,1.41,0,0,0-.17-.87C144.68,148.33,144.4,148,144.35,148.07Z"/><path class="cls-13" d="M29.74,116.18c.78-1.64,4.15-6.89,4.32-8.69.2-2.14-1.15-4.27-.72-6.38.61-3,4.17-4.18,6.21-6.43s2.39-5.11,3.1-7.86a38.71,38.71,0,0,1,8-15.22c6,.6,12.19.46,18.26.67,2.4.09,5,0,7.54,0a318.88,318.88,0,0,1-3.31,33.51c-1.15,2-2.3,4-3.4,6.09a78.58,78.58,0,0,0-4.76,10.34l-26.77,8.92a13.24,13.24,0,0,1-7.91-6.32C28.89,122.05,28.4,119,29.74,116.18Z"/><path class="cls-12" d="M83.12,114.43s6.34,1.92,8.56,5.16c1.57,2.28,17.67,37.15,17.67,37.15l24.44-7.35,8.74,11.54L115.34,176a16.55,16.55,0,0,1-16.19-.07h0a16.58,16.58,0,0,1-6.53-6.75l-6.91-13.25Z"/><path class="cls-12" d="M89.61,190.36l-3.82-16.45L88.68,162c1.86-6.15,3.46-16.17,1.43-24.23l-6.75-23.2-7.44-3.42-16.64-1.87c-.66.22-18.14,4-18.14,4a26.73,26.73,0,0,0-3.33.93l-2,12.7,5.91,20.93,2.57,20.86-5.65,21.69Z"/><path class="cls-14" d="M79.78,112.89l-4.93-2.21-21.66-.05-6.69,1.46s18.27,18.42,22.88,19.09C81,132.87,79.78,112.89,79.78,112.89Z"/><path class="cls-12" d="M38.3,114s-3.33.75-6.19,6.84-7.46,23-7.46,23l-2-18L6.61,127.68l3.11,42.91s5.68,8.25,15.19,7.49S46.5,147.25,46.5,147.25Z"/><path class="cls-16" d="M27.15,165.8s0,0,0-.11l0-.3-.07-1.17c-.06-1-.18-2.48-.35-4.29-.33-3.62-.94-8.6-1.69-14.09s-1.39-10.47-1.77-14.08c-.19-1.8-.33-3.27-.42-4.28-.05-.49-.08-.88-.11-1.16l0-.3c0-.07,0-.11,0-.11v.41l.07,1.17c.07,1,.19,2.48.35,4.29.34,3.62.95,8.6,1.7,14.09s1.39,10.47,1.77,14.08c.18,1.8.33,3.26.42,4.28l.11,1.16,0,.3C27.14,165.76,27.15,165.8,27.15,165.8Z"/><path class="cls-16" d="M109.07,166s.08-.11.18-.32a7.49,7.49,0,0,0,.38-.93,14,14,0,0,0,.63-6.5c-.07-.42-.13-.75-.19-1s-.1-.35-.12-.35.07.52.15,1.35a17.34,17.34,0,0,1,0,3.25,16.54,16.54,0,0,1-.64,3.18C109.23,165.5,109,166,109.07,166Z"/><path class="cls-16" d="M106.37,166.4a2.2,2.2,0,0,0,.29-.32c.17-.22.4-.54.67-1a16.85,16.85,0,0,0,1.67-3.45,16.53,16.53,0,0,0,.83-3.75c0-.49.07-.89.07-1.16a1.21,1.21,0,0,0,0-.43s-.06.61-.19,1.57a21,21,0,0,1-.89,3.7,19.42,19.42,0,0,1-1.6,3.44C106.7,165.88,106.34,166.37,106.37,166.4Z"/><path class="cls-16" d="M87.35,128.06a1.74,1.74,0,0,0,.08.34l.27,1,1,3.62a79.49,79.49,0,0,1,2.55,12.11,29.89,29.89,0,0,1,.1,6.79,29.38,29.38,0,0,1-1.14,5.44c-.45,1.51-.88,2.73-1.17,3.56l-.34,1a1.79,1.79,0,0,0-.11.34,1.85,1.85,0,0,0,.15-.33l.38-.95c.32-.83.77-2,1.25-3.55a28.88,28.88,0,0,0,1.18-5.46,29.67,29.67,0,0,0-.07-6.84A73.8,73.8,0,0,0,88.88,133c-.44-1.52-.83-2.75-1.09-3.6l-.32-1A1.38,1.38,0,0,0,87.35,128.06Z"/><path class="cls-16" d="M42.41,156.33s0,0,.06-.1l.15-.32.56-1.24c.24-.54.54-1.19.87-2l1.05-2.64c.38-1,.75-2.08,1.16-3.24.19-.6.38-1.21.57-1.84q.15-.47.3-1c.09-.32.17-.66.26-1a44,44,0,0,0,1.52-8.92,25.91,25.91,0,0,0-.93-9,15.91,15.91,0,0,0-3.56-6.45,12.51,12.51,0,0,0-4-2.94,7.84,7.84,0,0,0-1.27-.47l-.34-.1-.12,0,.11,0,.33.12a9.7,9.7,0,0,1,1.25.51,12.51,12.51,0,0,1,3.93,3,15.94,15.94,0,0,1,3.48,6.4,25.7,25.7,0,0,1,.9,8.92A44.56,44.56,0,0,1,47.19,143c-.09.34-.17.67-.26,1l-.29,1-.55,1.83c-.41,1.16-.77,2.26-1.14,3.24l-1,2.65c-.31.78-.6,1.43-.83,2l-.52,1.25-.13.33A.82.82,0,0,0,42.41,156.33Z"/><g class="cls-17"><path d="M48.54,136.89c2.1,9.94,2.13,20.16-1.49,29.66-.21.55-1,2.5-1.63,2.53-.75,0-1.1-.89-1.23-1.62-.26-1.52-.43-4-.69-5.52-.33-1.89-.79-6.28-.79-6.28s1.74-4,2.51-6.11a60.89,60.89,0,0,0,3.27-12.34"/></g><path class="cls-16" d="M50.25,175.39a1.38,1.38,0,0,0,.17.26l.52.72.37.52.5.58a18.16,18.16,0,0,0,1.25,1.37l.78.75c.27.26.58.5.89.77a24.06,24.06,0,0,0,2.06,1.56A29.27,29.27,0,0,0,62,184.67a29,29,0,0,0,5.72,1.52,24.35,24.35,0,0,0,2.57.24c.41,0,.8,0,1.17,0l1.08,0a15.77,15.77,0,0,0,1.85-.16c.28,0,.53-.05.76-.09l.63-.12.87-.18a1.54,1.54,0,0,0,.29-.08l-.3,0-.88.14-.62.11-.76.07c-.54,0-1.16.13-1.84.12l-1.08,0c-.37,0-.76,0-1.16-.05-.8,0-1.65-.15-2.55-.26a27.23,27.23,0,0,1-10.88-4.24c-.73-.53-1.45-1-2-1.54-.31-.26-.62-.49-.9-.75l-.77-.74a15.44,15.44,0,0,1-1.28-1.33l-.5-.57-.4-.5-.54-.69A1.76,1.76,0,0,0,50.25,175.39Z"/><path class="cls-16" d="M53.76,168.82a1.83,1.83,0,0,0,.06.47,8.64,8.64,0,0,0,.3,1.26,14.86,14.86,0,0,0,1.78,3.86,15.13,15.13,0,0,0,2.8,3.22,10,10,0,0,0,1,.78,2.1,2.1,0,0,0,.41.25s-.53-.42-1.33-1.15a16.84,16.84,0,0,1-2.72-3.22,17.22,17.22,0,0,1-1.82-3.79C53.93,169.47,53.8,168.81,53.76,168.82Z"/><g class="cls-18"><g class="cls-19"><path d="M76.34,102.33c-1,2.63.48,5.5,1.86,8a20.91,20.91,0,0,0,3.37,4.84,7.36,7.36,0,0,0,5.24,2.33c2.59-.06,4.94-2,7.47-1.85A10.26,10.26,0,0,1,99,117.69a40,40,0,0,0,8,4.42,14.4,14.4,0,0,0,9,.54,8.82,8.82,0,0,0,6.2-6.09"/></g></g><path class="cls-14" d="M74.8,122.51c0-4.75-.09-20-.08-19.93s6.89.61,8.26-9.24c.68-4.9.4-12.94,0-19.51-.38-5.92-4-13.18-9.37-12.57L56.83,65.87A3.34,3.34,0,0,0,54,69.39h0l1.21,45.67Z"/><path class="cls-15" d="M74.71,102.58s-6.47,1.63-12.92-4.45c.11,0,3.42,7.11,12.92,6.78Z"/><path class="cls-13" d="M48.5,78.29c0,5.64-1.28,19.15,5.83,24.54a2.68,2.68,0,0,0,4.3-2.33l-.14-18.13a2.79,2.79,0,0,1,1.38-2.44c3.2-1.88,11.09-5.52,12.64-14.52l.06.06a18.64,18.64,0,0,1,1.34,3.7c.67,3.12,2.72,3.93,5.79,4.81l4.14,1.18a3,3,0,0,1,.42.16l1.6.76s3.93-8.53-3.67-16.27-14-2.15-18.09-2.61c-2.67-.32-11.9-.26-15.76,15.33a2.67,2.67,0,0,0-.08.84Z"/><path class="cls-13" d="M58.57,93l.13,18.92c0,2.58-2.43,4.13-4.3,2.57-5.94-5-6-16.19-5.89-23.38A34,34,0,0,0,58.57,93Z"/><path class="cls-13" d="M83.07,74.59a21.08,21.08,0,0,0-.56,8.26s2.86,13.91-7.8,19.73L77.17,105l12.63-4.36L88.61,86.55l-3-12Z"/><path class="cls-13" d="M72.86,88.21a.32.32,0,0,0,.16,0,2.08,2.08,0,0,0,1.11-2.23,3.88,3.88,0,0,0-.37-.88l-.12-.24a4.78,4.78,0,0,1,.51-5,.36.36,0,0,0-.06-.48.34.34,0,0,0-.48.06A5.49,5.49,0,0,0,73,85.13l.14.25a3.08,3.08,0,0,1,.3.71,1.38,1.38,0,0,1-.76,1.48.34.34,0,0,0-.14.46A.35.35,0,0,0,72.86,88.21Z"/><ellipse class="cls-13" cx="79.4" cy="80.56" rx="1.06" ry="1.35"/><path class="cls-13" d="M77,80.9a.25.25,0,0,1-.19-.41A3.55,3.55,0,0,1,79.37,79a3.26,3.26,0,0,1,2.45,1.1.26.26,0,0,1,0,.36.26.26,0,0,1-.35,0,2.87,2.87,0,0,0-2-1H79.4a3.1,3.1,0,0,0-2.18,1.31A.26.26,0,0,1,77,80.9Z"/><path class="cls-13" d="M63.22,81.09l-.56-.5.28.26-.28-.25a4.45,4.45,0,0,1,2.55-1.36,3.27,3.27,0,0,1,2.61.64,2.72,2.72,0,0,1,.47.5.39.39,0,0,1-.08.53.38.38,0,0,1-.53-.09,2.25,2.25,0,0,0-.34-.36,2.48,2.48,0,0,0-2-.48A3.81,3.81,0,0,0,63.22,81.09Z"/><path class="cls-13" d="M69.42,78.2a.31.31,0,0,0,.24-.13.35.35,0,0,0-.07-.48A8.1,8.1,0,0,0,64.15,76H64a8.16,8.16,0,0,0-5,2.41.34.34,0,0,0,0,.48.34.34,0,0,0,.48,0,7.49,7.49,0,0,1,4.69-2.21,7.41,7.41,0,0,1,5,1.45A.35.35,0,0,0,69.42,78.2Z"/><path class="cls-13" d="M83.65,77.8A6,6,0,0,0,79,76.5,6.32,6.32,0,0,0,75.9,78c.08.24.16.48.23.72a5.65,5.65,0,0,1,2.94-1.54,5.34,5.34,0,0,1,4.16,1.15.34.34,0,0,0,.48,0A.35.35,0,0,0,83.65,77.8Z"/><path class="cls-14" d="M76.07,77.79l.47.62-.43.39-.27-.87Z"/><circle class="cls-13" cx="76.32" cy="78.1" r="0.35"/><path class="cls-15" d="M72,94.31c.18-1-.94-1.27-1.77-1.78s-1.3-1.2-2.07-.61a3.08,3.08,0,0,0-1,1.34,2.08,2.08,0,0,0-.15,1.1,2.12,2.12,0,0,0,.69,1.15,3.3,3.3,0,0,0,1.68.88A2.34,2.34,0,0,0,71.23,96a1.84,1.84,0,0,0,.69-1.7"/><path class="cls-13" d="M67.86,90.91c.25,0,.26,1.67,1.7,2.86s3.24,1,3.26,1.24-.4.33-1.16.35a4.19,4.19,0,0,1-2.72-.94A3.66,3.66,0,0,1,67.62,92C67.56,91.32,67.74,90.9,67.86,90.91Z"/><path class="cls-14" d="M59.17,81.61a2.6,2.6,0,0,0-3,.67,3.69,3.69,0,0,0-.48,4.54,4.22,4.22,0,0,0,4.51,1.68"/><path class="cls-15" d="M58.93,86.44c0,.06-.3.11-.79,0a2,2,0,0,1-1.5-1.16,1.17,1.17,0,0,1,.06-1,1.34,1.34,0,0,1,.6-.64,1.3,1.3,0,0,1,.79-.21s-.31.16-.61.43a1.08,1.08,0,0,0-.42,1.32,2,2,0,0,0,1.21,1C58.63,86.34,58.93,86.39,58.93,86.44Z"/><path class="cls-3" d="M57.52,91.31c-.59,0-.91-1.07-.91-2.08a.15.15,0,0,1,.3,0c0,1.1.36,1.78.61,1.78s.61-.68.61-1.78-.36-1.78-.61-1.78a.15.15,0,1,1,0-.3c.59,0,.91,1.07.91,2.08S58.11,91.31,57.52,91.31Z"/><path class="cls-13" d="M56,115.12s-2.74,1.45-9-1.12c0,0-3.81-1.62-4.62,1.53,0,0-3,4.64-7.85-1l7.11-7.92,9.66-.56,3.9,4.93Z"/></g></g></svg>