<svg width="189" height="164" viewBox="0 0 189 164" fill="none" xmlns="http://www.w3.org/2000/svg">
<path d="M16.1868 75.4653C45.7583 58.1484 58.457 33.264 72.7062 24.9198C86.9554 16.5755 120.95 5.9985 153.509 61.5985C186.069 117.199 150.587 148.933 134.914 158.111C61.5242 201.093 -36.1842 106.134 16.1868 75.4653Z" fill="#FFFBDB"/>
<path opacity="0.5" d="M151.195 21.7667H100.213C99.1042 21.7667 98.2057 22.6653 98.2057 23.7737V116.952C98.2057 118.061 99.1042 118.959 100.213 118.959H151.195C152.304 118.959 153.202 118.061 153.202 116.952V23.7737C153.202 22.6653 152.304 21.7667 151.195 21.7667Z" fill="#C3E5D9"/>
<path d="M147.895 18.4675H96.912C95.8036 18.4675 94.905 19.3661 94.905 20.4745V113.653C94.905 114.762 95.8036 115.66 96.912 115.66H147.895C149.003 115.66 149.902 114.762 149.902 113.653V20.4745C149.902 19.3661 149.003 18.4675 147.895 18.4675Z" fill="#407BFF"/>
<path d="M147.895 18.4675H96.912C95.8036 18.4675 94.905 19.3661 94.905 20.4745V113.653C94.905 114.762 95.8036 115.66 96.912 115.66H147.895C149.003 115.66 149.902 114.762 149.902 113.653V20.4745C149.902 19.3661 149.003 18.4675 147.895 18.4675Z" fill="#E1F2EC"/>
<path d="M144.328 25.1232H85.0317V36.4667H144.328V25.1232Z" fill="#0D8284"/>
<path opacity="0.2" d="M144.328 25.1232H85.0317V36.4667H144.328V25.1232Z" fill="black"/>
<path d="M93.565 28.4285H88.8307V33.1627H93.565V28.4285Z" fill="white"/>
<path d="M89.863 30.8035L90.7483 31.9417L92.5298 29.6488" stroke="#0D8284" stroke-width="0.824785" stroke-linecap="round" stroke-linejoin="round"/>
<path d="M101.348 31.6465H99.763L99.7545 30.9806H101.194C101.431 30.9806 101.639 30.9406 101.816 30.8604C101.994 30.7802 102.131 30.6656 102.229 30.5167C102.329 30.3649 102.379 30.1845 102.379 29.9754C102.379 29.7463 102.335 29.5602 102.246 29.417C102.16 29.2709 102.027 29.165 101.846 29.0991C101.669 29.0304 101.443 28.996 101.168 28.996H99.9478V34.5719H99.1187V28.3173H101.168C101.489 28.3173 101.775 28.3502 102.027 28.4161C102.279 28.4791 102.492 28.5793 102.667 28.7168C102.845 28.8514 102.979 29.0232 103.071 29.2323C103.162 29.4413 103.208 29.6919 103.208 29.984C103.208 30.2418 103.142 30.4752 103.011 30.6842C102.879 30.8904 102.696 31.0594 102.461 31.1911C102.229 31.3229 101.957 31.4074 101.645 31.4446L101.348 31.6465ZM101.31 34.5719H99.4366L99.9048 33.8975H101.31C101.573 33.8975 101.796 33.8516 101.98 33.76C102.166 33.6684 102.308 33.5395 102.405 33.3734C102.502 33.2044 102.551 33.0054 102.551 32.7763C102.551 32.5443 102.509 32.3438 102.426 32.1749C102.343 32.0059 102.213 31.8756 102.035 31.784C101.858 31.6923 101.629 31.6465 101.348 31.6465H100.167L100.175 30.9806H101.791L101.967 31.2212C102.267 31.247 102.522 31.3329 102.731 31.479C102.94 31.6221 103.099 31.8054 103.208 32.0288C103.32 32.2522 103.376 32.4985 103.376 32.7677C103.376 33.1572 103.29 33.4865 103.118 33.7557C102.949 34.022 102.71 34.2254 102.401 34.3657C102.091 34.5032 101.728 34.5719 101.31 34.5719ZM107.22 33.7772V31.3844C107.22 31.2012 107.183 31.0422 107.109 30.9076C107.037 30.7702 106.928 30.6642 106.782 30.5897C106.636 30.5153 106.456 30.478 106.241 30.478C106.041 30.478 105.864 30.5124 105.713 30.5811C105.564 30.6499 105.446 30.7401 105.36 30.8518C105.277 30.9635 105.236 31.0837 105.236 31.2126H104.441C104.441 31.0465 104.484 30.8818 104.57 30.7186C104.656 30.5554 104.779 30.4079 104.939 30.2761C105.103 30.1415 105.297 30.0356 105.524 29.9583C105.753 29.8781 106.008 29.838 106.288 29.838C106.626 29.838 106.924 29.8953 107.182 30.0098C107.442 30.1244 107.646 30.2976 107.792 30.5296C107.941 30.7587 108.015 31.0465 108.015 31.393V33.5581C108.015 33.7127 108.028 33.8774 108.054 34.0521C108.082 34.2268 108.124 34.3772 108.178 34.5032V34.5719H107.349C107.309 34.4803 107.278 34.3585 107.255 34.2068C107.232 34.0521 107.22 33.9089 107.22 33.7772ZM107.358 31.7539L107.367 32.3123H106.563C106.337 32.3123 106.135 32.3309 105.958 32.3682C105.78 32.4025 105.631 32.4555 105.511 32.5271C105.39 32.5987 105.299 32.6889 105.236 32.7978C105.173 32.9037 105.141 33.0283 105.141 33.1715C105.141 33.3175 105.174 33.4507 105.24 33.571C105.306 33.6913 105.405 33.7872 105.537 33.8588C105.671 33.9275 105.836 33.9619 106.031 33.9619C106.274 33.9619 106.489 33.9104 106.675 33.8073C106.861 33.7042 107.009 33.5781 107.117 33.4292C107.229 33.2803 107.289 33.1357 107.298 32.9954L107.637 33.3777C107.617 33.498 107.563 33.6311 107.474 33.7772C107.385 33.9232 107.266 34.0636 107.117 34.1982C106.971 34.3299 106.797 34.4402 106.593 34.5289C106.393 34.6149 106.167 34.6578 105.915 34.6578C105.6 34.6578 105.323 34.5962 105.085 34.4731C104.851 34.35 104.667 34.1853 104.536 33.9791C104.407 33.77 104.342 33.5366 104.342 33.2789C104.342 33.0297 104.391 32.8106 104.488 32.6216C104.586 32.4297 104.726 32.2708 104.909 32.1448C105.093 32.0159 105.313 31.9186 105.571 31.8527C105.829 31.7868 106.116 31.7539 106.434 31.7539H107.358ZM110.06 30.9162V34.5719H109.265V29.9239H110.017L110.06 30.9162ZM109.871 32.0718L109.54 32.0589C109.543 31.741 109.59 31.4475 109.682 31.1783C109.774 30.9062 109.902 30.6699 110.069 30.4695C110.235 30.269 110.432 30.1143 110.661 30.0055C110.893 29.8938 111.15 29.838 111.43 29.838C111.659 29.838 111.866 29.8695 112.049 29.9325C112.232 29.9926 112.388 30.09 112.517 30.2246C112.649 30.3592 112.749 30.5339 112.818 30.7487C112.887 30.9606 112.921 31.2198 112.921 31.5262V34.5719H112.122V31.5176C112.122 31.2742 112.086 31.0795 112.015 30.9334C111.943 30.7845 111.838 30.6771 111.701 30.6112C111.563 30.5425 111.395 30.5081 111.194 30.5081C110.996 30.5081 110.816 30.5496 110.653 30.6327C110.492 30.7157 110.354 30.8303 110.236 30.9764C110.122 31.1224 110.031 31.2899 109.965 31.479C109.902 31.6651 109.871 31.8627 109.871 32.0718ZM115.988 34.0049C116.177 34.0049 116.352 33.9662 116.512 33.8889C116.673 33.8116 116.804 33.7056 116.907 33.571C117.01 33.4335 117.069 33.2774 117.084 33.1028H117.84C117.825 33.3777 117.732 33.634 117.56 33.8717C117.391 34.1065 117.169 34.297 116.895 34.443C116.62 34.5862 116.317 34.6578 115.988 34.6578C115.639 34.6578 115.334 34.5962 115.073 34.4731C114.815 34.35 114.601 34.181 114.429 33.9662C114.26 33.7514 114.132 33.5051 114.046 33.2273C113.963 32.9467 113.922 32.6503 113.922 32.3381V32.1577C113.922 31.8455 113.963 31.5506 114.046 31.2728C114.132 30.9921 114.26 30.7444 114.429 30.5296C114.601 30.3148 114.815 30.1458 115.073 30.0227C115.334 29.8996 115.639 29.838 115.988 29.838C116.352 29.838 116.67 29.9124 116.942 30.0614C117.214 30.2074 117.427 30.4079 117.582 30.6628C117.739 30.9148 117.825 31.2012 117.84 31.5219H117.084C117.069 31.33 117.015 31.1568 116.92 31.0021C116.829 30.8475 116.703 30.7243 116.542 30.6327C116.385 30.5382 116.2 30.4909 115.988 30.4909C115.745 30.4909 115.54 30.5396 115.374 30.637C115.211 30.7315 115.08 30.8604 114.983 31.0236C114.888 31.184 114.82 31.363 114.777 31.5606C114.737 31.7553 114.717 31.9544 114.717 32.1577V32.3381C114.717 32.5414 114.737 32.7419 114.777 32.9395C114.817 33.1371 114.884 33.3161 114.979 33.4765C115.076 33.6369 115.206 33.7657 115.37 33.8631C115.536 33.9576 115.742 34.0049 115.988 34.0049ZM118.523 32.2994V32.2006C118.523 31.8656 118.571 31.5548 118.669 31.2685C118.766 30.9792 118.906 30.7286 119.09 30.5167C119.273 30.3019 119.495 30.1358 119.755 30.0184C120.016 29.8981 120.308 29.838 120.632 29.838C120.958 29.838 121.252 29.8981 121.512 30.0184C121.776 30.1358 121.999 30.3019 122.183 30.5167C122.369 30.7286 122.51 30.9792 122.608 31.2685C122.705 31.5548 122.754 31.8656 122.754 32.2006V32.2994C122.754 32.6345 122.705 32.9452 122.608 33.2316C122.51 33.518 122.369 33.7686 122.183 33.9834C121.999 34.1953 121.777 34.3614 121.517 34.4817C121.259 34.5991 120.967 34.6578 120.64 34.6578C120.314 34.6578 120.02 34.5991 119.76 34.4817C119.499 34.3614 119.276 34.1953 119.09 33.9834C118.906 33.7686 118.766 33.518 118.669 33.2316C118.571 32.9452 118.523 32.6345 118.523 32.2994ZM119.317 32.2006V32.2994C119.317 32.5314 119.345 32.7505 119.399 32.9567C119.453 33.16 119.535 33.3404 119.644 33.498C119.755 33.6555 119.894 33.78 120.06 33.8717C120.227 33.9605 120.42 34.0049 120.64 34.0049C120.858 34.0049 121.049 33.9605 121.212 33.8717C121.378 33.78 121.515 33.6555 121.624 33.498C121.733 33.3404 121.815 33.16 121.869 32.9567C121.926 32.7505 121.955 32.5314 121.955 32.2994V32.2006C121.955 31.9715 121.926 31.7553 121.869 31.552C121.815 31.3458 121.732 31.1639 121.62 31.0064C121.511 30.846 121.374 30.72 121.207 30.6284C121.044 30.5368 120.852 30.4909 120.632 30.4909C120.414 30.4909 120.222 30.5368 120.056 30.6284C119.893 30.72 119.755 30.846 119.644 31.0064C119.535 31.1639 119.453 31.3458 119.399 31.552C119.345 31.7553 119.317 31.9715 119.317 32.2006Z" fill="white"/>
<path d="M135.603 46.0909H76.3062V57.4345H135.603V46.0909Z" fill="#0D8284"/>
<path opacity="0.4" d="M135.603 46.0909H76.3062V57.4345H135.603V46.0909Z" fill="white"/>
<path d="M94.1437 52.5422H92.5586L92.55 51.8764H93.9891C94.2268 51.8764 94.4344 51.8363 94.6119 51.7561C94.7895 51.6759 94.927 51.5614 95.0243 51.4125C95.1246 51.2607 95.1747 51.0803 95.1747 50.8712C95.1747 50.6421 95.1303 50.4559 95.0415 50.3127C94.9556 50.1667 94.8224 50.0607 94.642 49.9949C94.4645 49.9261 94.2382 49.8918 93.9633 49.8918H92.7433V55.4677H91.9142V49.213H93.9633C94.284 49.213 94.5704 49.246 94.8224 49.3118C95.0745 49.3748 95.2878 49.4751 95.4625 49.6125C95.6401 49.7471 95.7747 49.919 95.8663 50.128C95.958 50.3371 96.0038 50.5877 96.0038 50.8798C96.0038 51.1375 95.9379 51.3709 95.8062 51.58C95.6744 51.7862 95.4911 51.9552 95.2563 52.0869C95.0243 52.2186 94.7523 52.3031 94.4401 52.3403L94.1437 52.5422ZM94.105 55.4677H92.2321L92.7003 54.7932H94.105C94.3685 54.7932 94.5919 54.7474 94.7752 54.6558C94.9613 54.5641 95.1031 54.4352 95.2005 54.2691C95.2978 54.1002 95.3465 53.9011 95.3465 53.672C95.3465 53.4401 95.305 53.2396 95.2219 53.0706C95.1389 52.9017 95.0086 52.7713 94.831 52.6797C94.6535 52.5881 94.4244 52.5422 94.1437 52.5422H92.9624L92.971 51.8764H94.5862L94.7623 52.117C95.063 52.1427 95.3179 52.2287 95.5269 52.3747C95.736 52.5179 95.8949 52.7012 96.0038 52.9246C96.1155 53.1479 96.1713 53.3942 96.1713 53.6634C96.1713 54.0529 96.0854 54.3823 95.9136 54.6515C95.7446 54.9178 95.5055 55.1211 95.1962 55.2615C94.8869 55.3989 94.5232 55.4677 94.105 55.4677ZM100.016 54.6729V52.2802C100.016 52.0969 99.9788 51.938 99.9043 51.8034C99.8327 51.6659 99.7239 51.5599 99.5778 51.4855C99.4318 51.411 99.2514 51.3738 99.0366 51.3738C98.8361 51.3738 98.66 51.4082 98.5082 51.4769C98.3593 51.5456 98.2419 51.6358 98.1559 51.7475C98.0729 51.8592 98.0314 51.9795 98.0314 52.1084H97.2367C97.2367 51.9423 97.2796 51.7776 97.3655 51.6144C97.4514 51.4511 97.5746 51.3036 97.735 51.1719C97.8982 51.0373 98.0929 50.9313 98.3192 50.854C98.5483 50.7738 98.8032 50.7337 99.0838 50.7337C99.4218 50.7337 99.7196 50.791 99.9773 50.9056C100.238 51.0201 100.441 51.1934 100.587 51.4253C100.736 51.6545 100.811 51.9423 100.811 52.2888V54.4539C100.811 54.6085 100.824 54.7732 100.849 54.9479C100.878 55.1226 100.92 55.2729 100.974 55.3989V55.4677H100.145C100.105 55.376 100.073 55.2543 100.05 55.1025C100.027 54.9479 100.016 54.8047 100.016 54.6729ZM100.153 52.6496L100.162 53.2081H99.3588C99.1325 53.2081 98.9306 53.2267 98.7531 53.2639C98.5755 53.2983 98.4266 53.3513 98.3063 53.4229C98.186 53.4945 98.0944 53.5847 98.0314 53.6935C97.9684 53.7995 97.9369 53.924 97.9369 54.0672C97.9369 54.2133 97.9698 54.3465 98.0357 54.4667C98.1015 54.587 98.2003 54.683 98.3321 54.7546C98.4667 54.8233 98.6313 54.8577 98.8261 54.8577C99.0695 54.8577 99.2843 54.8061 99.4704 54.703C99.6566 54.5999 99.8041 54.4739 99.9129 54.325C100.025 54.1761 100.085 54.0314 100.093 53.8911L100.433 54.2734C100.413 54.3937 100.358 54.5269 100.269 54.6729C100.181 54.819 100.062 54.9593 99.9129 55.0939C99.7669 55.2257 99.5922 55.3359 99.3888 55.4247C99.1884 55.5106 98.9621 55.5536 98.7101 55.5536C98.3951 55.5536 98.1187 55.492 97.881 55.3688C97.6462 55.2457 97.4629 55.081 97.3312 54.8748C97.2023 54.6658 97.1379 54.4324 97.1379 54.1746C97.1379 53.9255 97.1865 53.7064 97.2839 53.5174C97.3813 53.3255 97.5216 53.1666 97.7049 53.0406C97.8882 52.9117 98.1087 52.8143 98.3664 52.7484C98.6242 52.6826 98.912 52.6496 99.2299 52.6496H100.153ZM102.856 51.812V55.4677H102.061V50.8196H102.813L102.856 51.812ZM102.666 52.9675L102.336 52.9546C102.339 52.6367 102.386 52.3432 102.477 52.074C102.569 51.8019 102.698 51.5657 102.864 51.3652C103.03 51.1647 103.228 51.0101 103.457 50.9013C103.689 50.7896 103.945 50.7337 104.226 50.7337C104.455 50.7337 104.661 50.7652 104.844 50.8282C105.028 50.8884 105.184 50.9857 105.313 51.1203C105.444 51.2549 105.545 51.4296 105.613 51.6444C105.682 51.8564 105.716 52.1155 105.716 52.422V55.4677H104.917V52.4134C104.917 52.1699 104.882 51.9752 104.81 51.8291C104.738 51.6802 104.634 51.5728 104.496 51.507C104.359 51.4382 104.19 51.4039 103.99 51.4039C103.792 51.4039 103.612 51.4454 103.448 51.5284C103.288 51.6115 103.149 51.726 103.032 51.8721C102.917 52.0182 102.827 52.1857 102.761 52.3747C102.698 52.5609 102.666 52.7585 102.666 52.9675ZM108.784 54.9006C108.973 54.9006 109.147 54.862 109.308 54.7846C109.468 54.7073 109.6 54.6013 109.703 54.4667C109.806 54.3293 109.865 54.1732 109.879 53.9985H110.635C110.621 54.2734 110.528 54.5297 110.356 54.7674C110.187 55.0023 109.965 55.1927 109.69 55.3388C109.415 55.482 109.113 55.5536 108.784 55.5536C108.434 55.5536 108.129 55.492 107.869 55.3688C107.611 55.2457 107.396 55.0767 107.224 54.862C107.055 54.6472 106.928 54.4009 106.842 54.1231C106.759 53.8424 106.717 53.546 106.717 53.2339V53.0534C106.717 52.7413 106.759 52.4463 106.842 52.1685C106.928 51.8879 107.055 51.6401 107.224 51.4253C107.396 51.2106 107.611 51.0416 107.869 50.9184C108.129 50.7953 108.434 50.7337 108.784 50.7337C109.147 50.7337 109.465 50.8082 109.737 50.9571C110.009 51.1032 110.223 51.3036 110.377 51.5585C110.535 51.8105 110.621 52.0969 110.635 52.4177H109.879C109.865 52.2258 109.81 52.0525 109.716 51.8979C109.624 51.7432 109.498 51.6201 109.338 51.5284C109.18 51.4339 108.996 51.3867 108.784 51.3867C108.54 51.3867 108.335 51.4354 108.169 51.5327C108.006 51.6272 107.876 51.7561 107.778 51.9194C107.684 52.0797 107.615 52.2587 107.572 52.4563C107.532 52.6511 107.512 52.8501 107.512 53.0534V53.2339C107.512 53.4372 107.532 53.6377 107.572 53.8353C107.612 54.0329 107.68 54.2119 107.774 54.3722C107.872 54.5326 108.002 54.6615 108.165 54.7589C108.331 54.8534 108.537 54.9006 108.784 54.9006ZM111.318 53.1952V53.0964C111.318 52.7613 111.367 52.4506 111.464 52.1642C111.562 51.875 111.702 51.6244 111.885 51.4125C112.068 51.1977 112.29 51.0316 112.551 50.9142C112.812 50.7939 113.104 50.7337 113.427 50.7337C113.754 50.7337 114.047 50.7939 114.308 50.9142C114.571 51.0316 114.795 51.1977 114.978 51.4125C115.164 51.6244 115.306 51.875 115.403 52.1642C115.501 52.4506 115.549 52.7613 115.549 53.0964V53.1952C115.549 53.5303 115.501 53.841 115.403 54.1274C115.306 54.4138 115.164 54.6643 114.978 54.8791C114.795 55.0911 114.573 55.2572 114.312 55.3774C114.055 55.4949 113.762 55.5536 113.436 55.5536C113.109 55.5536 112.816 55.4949 112.555 55.3774C112.295 55.2572 112.071 55.0911 111.885 54.8791C111.702 54.6643 111.562 54.4138 111.464 54.1274C111.367 53.841 111.318 53.5303 111.318 53.1952ZM112.113 53.0964V53.1952C112.113 53.4272 112.14 53.6463 112.194 53.8524C112.249 54.0558 112.331 54.2362 112.439 54.3937C112.551 54.5512 112.69 54.6758 112.856 54.7674C113.022 54.8562 113.215 54.9006 113.436 54.9006C113.654 54.9006 113.844 54.8562 114.007 54.7674C114.173 54.6758 114.311 54.5512 114.42 54.3937C114.528 54.2362 114.61 54.0558 114.665 53.8524C114.722 53.6463 114.75 53.4272 114.75 53.1952V53.0964C114.75 52.8673 114.722 52.6511 114.665 52.4477C114.61 52.2415 114.527 52.0597 114.415 51.9022C114.307 51.7418 114.169 51.6158 114.003 51.5241C113.84 51.4325 113.648 51.3867 113.427 51.3867C113.21 51.3867 113.018 51.4325 112.852 51.5241C112.688 51.6158 112.551 51.7418 112.439 51.9022C112.331 52.0597 112.249 52.2415 112.194 52.4477C112.14 52.6511 112.113 52.8673 112.113 53.0964Z" fill="white"/>
<path d="M84.8421 49.3954H80.1078V54.1297H84.8421V49.3954Z" fill="white"/>
<path d="M144.626 68.0455H85.3298V79.3891H144.626V68.0455Z" fill="#0D8284"/>
<path opacity="0.4" d="M144.626 68.0455H85.3298V79.3891H144.626V68.0455Z" fill="white"/>
<path d="M103.343 74.5354H101.758L101.749 73.8696H103.188C103.426 73.8696 103.634 73.8295 103.811 73.7493C103.989 73.6691 104.126 73.5545 104.224 73.4056C104.324 73.2538 104.374 73.0734 104.374 72.8644C104.374 72.6353 104.33 72.4491 104.241 72.3059C104.155 72.1599 104.022 72.0539 103.841 71.988C103.664 71.9193 103.438 71.8849 103.163 71.8849H101.943V77.4608H101.114V71.2062H103.163C103.483 71.2062 103.77 71.2391 104.022 71.305C104.274 71.368 104.487 71.4682 104.662 71.6057C104.839 71.7403 104.974 71.9121 105.066 72.1212C105.157 72.3303 105.203 72.5808 105.203 72.8729C105.203 73.1307 105.137 73.3641 105.006 73.5732C104.874 73.7794 104.69 73.9483 104.456 74.0801C104.224 74.2118 103.952 74.2963 103.639 74.3335L103.343 74.5354ZM103.304 77.4608H101.431L101.9 76.7864H103.304C103.568 76.7864 103.791 76.7406 103.975 76.6489C104.161 76.5573 104.302 76.4284 104.4 76.2623C104.497 76.0933 104.546 75.8943 104.546 75.6652C104.546 75.4332 104.504 75.2328 104.421 75.0638C104.338 74.8948 104.208 74.7645 104.03 74.6729C103.853 74.5812 103.624 74.5354 103.343 74.5354H102.162L102.17 73.8696H103.786L103.962 74.1101C104.262 74.1359 104.517 74.2218 104.726 74.3679C104.935 74.5111 105.094 74.6943 105.203 74.9177C105.315 75.1411 105.371 75.3874 105.371 75.6566C105.371 76.0461 105.285 76.3754 105.113 76.6446C104.944 76.911 104.705 77.1143 104.396 77.2546C104.086 77.3921 103.723 77.4608 103.304 77.4608ZM109.215 76.6661V74.2734C109.215 74.0901 109.178 73.9311 109.104 73.7965C109.032 73.6591 108.923 73.5531 108.777 73.4787C108.631 73.4042 108.451 73.367 108.236 73.367C108.035 73.367 107.859 73.4013 107.708 73.4701C107.559 73.5388 107.441 73.629 107.355 73.7407C107.272 73.8524 107.231 73.9727 107.231 74.1015H106.436C106.436 73.9354 106.479 73.7708 106.565 73.6075C106.651 73.4443 106.774 73.2968 106.934 73.1651C107.098 73.0305 107.292 72.9245 107.519 72.8472C107.748 72.767 108.003 72.7269 108.283 72.7269C108.621 72.7269 108.919 72.7842 109.177 72.8987C109.437 73.0133 109.641 73.1865 109.787 73.4185C109.936 73.6476 110.01 73.9354 110.01 74.282V76.447C110.01 76.6017 110.023 76.7663 110.049 76.941C110.077 77.1157 110.119 77.2661 110.173 77.3921V77.4608H109.344C109.304 77.3692 109.273 77.2475 109.25 77.0957C109.227 76.941 109.215 76.7978 109.215 76.6661ZM109.353 74.6428L109.361 75.2012H108.558C108.332 75.2012 108.13 75.2199 107.952 75.2571C107.775 75.2915 107.626 75.3444 107.506 75.416C107.385 75.4876 107.294 75.5778 107.231 75.6867C107.168 75.7926 107.136 75.9172 107.136 76.0604C107.136 76.2065 107.169 76.3396 107.235 76.4599C107.301 76.5802 107.4 76.6761 107.531 76.7477C107.666 76.8165 107.831 76.8508 108.025 76.8508C108.269 76.8508 108.484 76.7993 108.67 76.6962C108.856 76.5931 109.003 76.4671 109.112 76.3181C109.224 76.1692 109.284 76.0246 109.293 75.8843L109.632 76.2666C109.612 76.3869 109.558 76.52 109.469 76.6661C109.38 76.8122 109.261 76.9525 109.112 77.0871C108.966 77.2188 108.792 77.3291 108.588 77.4179C108.388 77.5038 108.161 77.5467 107.909 77.5467C107.594 77.5467 107.318 77.4852 107.08 77.362C106.846 77.2389 106.662 77.0742 106.531 76.868C106.402 76.6589 106.337 76.4255 106.337 76.1678C106.337 75.9186 106.386 75.6996 106.483 75.5105C106.581 75.3187 106.721 75.1597 106.904 75.0337C107.088 74.9048 107.308 74.8075 107.566 74.7416C107.824 74.6757 108.111 74.6428 108.429 74.6428H109.353ZM112.055 73.8051V77.4608H111.26V72.8128H112.012L112.055 73.8051ZM111.866 74.9607L111.535 74.9478C111.538 74.6299 111.585 74.3364 111.677 74.0672C111.768 73.7951 111.897 73.5588 112.063 73.3584C112.23 73.1579 112.427 73.0033 112.656 72.8944C112.888 72.7827 113.145 72.7269 113.425 72.7269C113.654 72.7269 113.86 72.7584 114.044 72.8214C114.227 72.8815 114.383 72.9789 114.512 73.1135C114.644 73.2481 114.744 73.4228 114.813 73.6376C114.881 73.8495 114.916 74.1087 114.916 74.4151V77.4608H114.117V74.4065C114.117 74.1631 114.081 73.9684 114.009 73.8223C113.938 73.6734 113.833 73.566 113.696 73.5001C113.558 73.4314 113.389 73.397 113.189 73.397C112.991 73.397 112.811 73.4386 112.648 73.5216C112.487 73.6047 112.348 73.7192 112.231 73.8653C112.116 74.0113 112.026 74.1789 111.96 74.3679C111.897 74.554 111.866 74.7516 111.866 74.9607ZM117.983 76.8938C118.172 76.8938 118.347 76.8551 118.507 76.7778C118.667 76.7005 118.799 76.5945 118.902 76.4599C119.005 76.3224 119.064 76.1664 119.078 75.9917H119.834C119.82 76.2666 119.727 76.5229 119.555 76.7606C119.386 76.9954 119.164 77.1859 118.889 77.3319C118.614 77.4751 118.312 77.5467 117.983 77.5467C117.634 77.5467 117.329 77.4852 117.068 77.362C116.81 77.2389 116.595 77.0699 116.424 76.8551C116.255 76.6403 116.127 76.394 116.041 76.1162C115.958 75.8356 115.917 75.5392 115.917 75.227V75.0466C115.917 74.7344 115.958 74.4395 116.041 74.1617C116.127 73.881 116.255 73.6333 116.424 73.4185C116.595 73.2037 116.81 73.0348 117.068 72.9116C117.329 72.7885 117.634 72.7269 117.983 72.7269C118.347 72.7269 118.665 72.8014 118.937 72.9503C119.209 73.0963 119.422 73.2968 119.577 73.5517C119.734 73.8037 119.82 74.0901 119.834 74.4108H119.078C119.064 74.219 119.01 74.0457 118.915 73.891C118.824 73.7364 118.698 73.6133 118.537 73.5216C118.38 73.4271 118.195 73.3798 117.983 73.3798C117.74 73.3798 117.535 73.4285 117.369 73.5259C117.205 73.6204 117.075 73.7493 116.978 73.9125C116.883 74.0729 116.815 74.2519 116.772 74.4495C116.731 74.6442 116.711 74.8433 116.711 75.0466V75.227C116.711 75.4304 116.731 75.6308 116.772 75.8284C116.812 76.026 116.879 76.205 116.973 76.3654C117.071 76.5258 117.201 76.6546 117.364 76.752C117.53 76.8465 117.737 76.8938 117.983 76.8938ZM120.517 75.1884V75.0896C120.517 74.7545 120.566 74.4438 120.664 74.1574C120.761 73.8681 120.901 73.6175 121.085 73.4056C121.268 73.1908 121.49 73.0247 121.75 72.9073C122.011 72.787 122.303 72.7269 122.627 72.7269C122.953 72.7269 123.247 72.787 123.507 72.9073C123.771 73.0247 123.994 73.1908 124.177 73.4056C124.364 73.6175 124.505 73.8681 124.603 74.1574C124.7 74.4438 124.749 74.7545 124.749 75.0896V75.1884C124.749 75.5234 124.7 75.8342 124.603 76.1205C124.505 76.4069 124.364 76.6575 124.177 76.8723C123.994 77.0842 123.772 77.2503 123.512 77.3706C123.254 77.488 122.962 77.5467 122.635 77.5467C122.309 77.5467 122.015 77.488 121.755 77.3706C121.494 77.2503 121.271 77.0842 121.085 76.8723C120.901 76.6575 120.761 76.4069 120.664 76.1205C120.566 75.8342 120.517 75.5234 120.517 75.1884ZM121.312 75.0896V75.1884C121.312 75.4203 121.339 75.6394 121.394 75.8456C121.448 76.0489 121.53 76.2294 121.639 76.3869C121.75 76.5444 121.889 76.669 122.055 76.7606C122.221 76.8494 122.415 76.8938 122.635 76.8938C122.853 76.8938 123.043 76.8494 123.207 76.7606C123.373 76.669 123.51 76.5444 123.619 76.3869C123.728 76.2294 123.809 76.0489 123.864 75.8456C123.921 75.6394 123.95 75.4203 123.95 75.1884V75.0896C123.95 74.8605 123.921 74.6442 123.864 74.4409C123.809 74.2347 123.726 74.0529 123.615 73.8953C123.506 73.735 123.368 73.609 123.202 73.5173C123.039 73.4257 122.847 73.3798 122.627 73.3798C122.409 73.3798 122.217 73.4257 122.051 73.5173C121.888 73.609 121.75 73.735 121.639 73.8953C121.53 74.0529 121.448 74.2347 121.394 74.4409C121.339 74.6442 121.312 74.8605 121.312 75.0896Z" fill="white"/>
<path d="M93.639 71.3885H88.9048V76.1228H93.639V71.3885Z" fill="white"/>
<path d="M50.2431 61.1857L44.3926 65.9364C44.3926 65.9364 42.963 65.9639 42.5121 66.4368C42.0612 66.9097 40.3347 70.4178 40.5821 70.8961C40.8295 71.3745 43.7163 72.3203 44.3211 71.7539C44.9315 71.1876 45.9872 67.9379 45.9652 67.5915L53.4378 62.5768L50.2376 61.1802L50.2431 61.1857Z" fill="#EBB376"/>
<path d="M47.1012 63.3799L48.4099 66.2336C48.4099 66.2336 56.4543 62.4671 58.1973 60.2732C58.6427 59.7068 59.2585 58.8051 59.9239 57.7769C61.0181 56.0778 62.2552 54.0323 63.113 52.5972C63.7509 51.525 64.1797 50.7937 64.1797 50.7937L59.6269 43.6125C58.6317 44.3768 55.5855 56.6496 55.0411 57.3095C54.4968 57.9693 47.1012 63.3799 47.1012 63.3799Z" fill="#20A2A5"/>
<path opacity="0.1" d="M59.9236 57.7769C61.0178 56.0779 62.255 54.0324 63.1128 52.5973L60.9958 47.3737C60.9958 47.3737 59.8466 53.3671 59.9236 57.7769Z" fill="black"/>
<path d="M97.0137 34.0389L102.782 29.5631C102.782 29.5631 103.249 28.2105 103.837 27.9245C104.426 27.6386 108.297 27.0723 108.676 27.4517C109.056 27.8311 109.072 30.8718 108.346 31.2732C107.62 31.6801 104.206 31.6911 103.881 31.5646L97.5855 36.1669L97.0192 34.0334L97.0137 34.0389Z" fill="#EBB376"/>
<path d="M48.3364 157.064L51.7895 157.675L53.2082 152.968L54.5003 148.652L50.5194 147.26L49.3647 152.451L48.3364 157.064Z" fill="#EBB376"/>
<path opacity="0.2" d="M49.3412 152.561L53.1902 153.067L54.4878 148.695L50.5124 147.282L49.3412 152.561Z" fill="black"/>
<path d="M71.3792 157.152H74.8872L75.4591 152.451L75.9815 148.063L71.819 147.431L71.5881 152.589L71.3792 157.152Z" fill="#EBB376"/>
<path opacity="0.2" d="M71.5887 152.896L75.4597 152.725L75.9821 148.2L71.8197 147.496L71.5887 152.896Z" fill="black"/>
<path d="M49.0176 148.783L54.6921 149.784C60.4161 135.521 64.4905 123.611 67.3663 113.73C68.9169 108.396 70.1431 103.656 71.0723 99.45L70.8359 114.978V150.009H76.5599C90.5757 83.4767 80.6453 68.0092 80.6453 68.0092L63.8747 65.205C63.2369 67.7068 62.753 71.7977 62.4726 74.6185L61.7138 80.1776L55.1595 114.032L49.0231 148.778L49.0176 148.783Z" fill="#263238"/>
<path d="M55.5848 149.08L48.5466 146.749L48.6401 149.74L54.4631 151.599L55.5848 149.08Z" fill="#407BFF"/>
<path opacity="0.6" d="M55.5848 149.08L48.5466 146.749L48.6401 149.74L54.4631 151.599L55.5848 149.08Z" fill="white"/>
<path d="M77.3056 149.411L69.9705 148.333L70.5808 151.264L76.6347 152.083L77.3056 149.411Z" fill="#407BFF"/>
<path opacity="0.6" d="M77.3056 149.411L69.9705 148.333L70.5808 151.264L76.6347 152.083L77.3056 149.411Z" fill="white"/>
<path opacity="0.2" d="M66.5962 116.336C66.8601 115.451 67.1405 114.582 67.3935 113.724C68.7956 108.885 69.7359 104.531 70.8356 100.627V100.616L71.4074 93.4235C71.4074 93.4235 67.8224 85.5221 69.164 79.963C69.0376 80.2764 66.6677 86.3358 67.5969 92.3898C67.5969 92.3898 68.0478 103.315 66.5962 116.342V116.336Z" fill="black"/>
<path d="M66.1122 36.3926C66.1561 36.4256 66.2111 36.4531 66.2606 36.4751C66.9424 36.838 67.7067 37.1679 68.5425 37.2449C70.8794 37.4758 72.3915 36.9589 73.2713 35.7987C74.4865 34.0722 74.4865 31.2954 73.8596 28.0293C73.5737 26.5282 73.1888 25.2415 72.639 24.2738C72.6335 24.2628 72.628 24.2243 72.6225 24.2188C72.595 24.1803 72.573 24.1253 72.5455 24.0868C71.7372 22.7397 70.5825 21.9479 68.8834 21.7719C68.2951 21.7114 67.6408 21.7224 66.9094 21.8049C60.4761 22.5747 60.7071 33.3629 66.1067 36.3926H66.1122Z" fill="#EBB376"/>
<path opacity="0.2" d="M66.2625 36.4747C66.9443 36.8376 67.6976 37.0741 68.5334 37.1565C70.8703 37.3875 72.3769 36.7991 73.2511 35.6224C72.1679 36.0128 70.6778 36.3043 69.1327 35.8204C68.1595 35.518 67.1642 35.8699 66.2625 36.4747Z" fill="black"/>
<path d="M65.7752 41.7316C65.1978 43.5296 67.5017 44.5083 67.5017 44.5083C71.5542 43.2272 72.4779 41.2312 72.4779 41.2312C69.3987 39.2187 70.8063 34.5284 70.8063 34.5284L70.1135 34.7869L65.3903 35.2378C65.3903 35.2378 66.435 37.8331 66.5505 38.4104C66.5505 38.4104 66.5505 38.4214 66.5505 38.4269C67.1333 41.4511 65.7697 41.7316 65.7697 41.7316H65.7752Z" fill="#EBB376"/>
<path d="M72.6443 24.2354C72.6443 24.2354 73.5845 28.6948 69.5651 31.1856C69.5651 31.1856 68.3389 36.1013 65.6501 36.5192C61.9826 37.0856 58.0621 32.2743 58.6394 26.7758C59.3927 19.6496 69.796 17.7196 72.6388 24.2354H72.6443Z" fill="#263238"/>
<path d="M71.5606 29.6075C71.4671 28.9037 70.7468 27.7985 69.6801 28.1009C68.5694 28.4143 68.3054 31.2846 71.1647 31.543C71.5771 31.5815 71.753 31.0756 71.5606 29.6075Z" fill="#EBB376"/>
<path d="M75.2576 156.488H71.3481C71.1832 156.488 71.0347 156.603 71.0017 156.768L70.1989 160.397C70.1329 160.721 70.3364 161.04 70.6608 161.112C70.7048 161.123 70.7488 161.123 70.7928 161.123C72.3929 161.095 72.5248 160.996 74.5318 160.996C75.769 160.996 79.508 161.128 81.2181 161.128C82.9281 161.128 83.1536 159.44 82.4497 159.286C79.3101 158.604 76.9457 157.653 75.9394 156.751C75.7525 156.581 75.5105 156.488 75.2576 156.493V156.488Z" fill="#263238"/>
<path d="M75.5352 157.053C75.4967 157.042 75.4692 157.009 75.4637 156.97C75.4582 156.932 75.4747 156.893 75.5077 156.877C75.6506 156.783 76.9703 155.975 77.4212 156.206C77.5256 156.256 77.5916 156.36 77.5861 156.476C77.6136 156.673 77.5367 156.866 77.3827 156.992C77.1518 157.146 76.8768 157.223 76.6019 157.201C76.239 157.19 75.8816 157.141 75.5352 157.053ZM75.8156 156.915C76.2885 157.075 76.8108 157.047 77.2672 156.844C77.3662 156.756 77.4157 156.624 77.3992 156.498C77.3992 156.421 77.3607 156.382 77.3387 156.382C77.3002 156.36 77.2562 156.355 77.2122 156.355C76.7174 156.448 76.2445 156.64 75.8156 156.915Z" fill="#407BFF"/>
<path d="M75.5075 157.075C75.48 157.053 75.458 157.02 75.4635 156.987C75.4635 156.932 75.568 155.761 76.0408 155.376C76.1508 155.277 76.3048 155.233 76.4477 155.25C76.5962 155.25 76.7282 155.354 76.7612 155.503C76.8436 155.932 76.0298 156.828 75.612 157.059H75.568C75.568 157.059 75.535 157.075 75.5185 157.075H75.5075ZM76.1618 155.492C75.8759 155.86 75.7054 156.3 75.6779 156.767C76.0958 156.454 76.6182 155.772 76.5632 155.508C76.5632 155.481 76.5467 155.409 76.4257 155.409H76.3818C76.2993 155.409 76.2223 155.437 76.1618 155.492Z" fill="#407BFF"/>
<path d="M51.9252 156.488H48.0157C47.8508 156.488 47.7023 156.603 47.6693 156.768L46.8665 160.397C46.8005 160.721 47.004 161.04 47.3284 161.112C47.3724 161.123 47.4164 161.123 47.4604 161.123C49.0605 161.095 49.1924 160.996 51.1994 160.996C52.4366 160.996 56.1756 161.128 57.8857 161.128C59.5957 161.128 59.8212 159.44 59.1173 159.286C55.9777 158.604 53.6133 157.653 52.607 156.751C52.4201 156.581 52.1781 156.488 51.9252 156.493V156.488Z" fill="#263238"/>
<path d="M52.1996 157.053C52.1611 157.042 52.1336 157.009 52.1281 156.97C52.1226 156.932 52.1391 156.893 52.1721 156.877C52.3151 156.783 53.6347 155.975 54.0856 156.206C54.1901 156.256 54.2561 156.36 54.2506 156.476C54.2781 156.673 54.2011 156.866 54.0471 156.992C53.8162 157.146 53.5413 157.223 53.2663 157.201C52.9034 157.19 52.546 157.141 52.1996 157.053ZM52.48 156.915C52.9529 157.075 53.4753 157.047 53.9316 156.844C54.0306 156.756 54.0801 156.624 54.0636 156.498C54.0636 156.421 54.0251 156.382 54.0031 156.382C53.9646 156.36 53.9207 156.355 53.8767 156.355C53.3818 156.448 52.9089 156.64 52.48 156.915Z" fill="#407BFF"/>
<path d="M52.1781 157.075C52.1506 157.053 52.1287 157.02 52.1341 156.987C52.1341 156.932 52.2386 155.761 52.7115 155.376C52.8215 155.277 52.9754 155.233 53.1184 155.25C53.2669 155.25 53.3988 155.354 53.4318 155.503C53.5143 155.932 52.7005 156.828 52.2826 157.059H52.2386C52.2386 157.059 52.2056 157.075 52.1891 157.075H52.1781ZM52.8325 155.492C52.5465 155.86 52.3761 156.3 52.3486 156.767C52.7665 156.454 53.2888 155.772 53.2339 155.508C53.2339 155.481 53.2174 155.409 53.0964 155.409H53.0524C52.9699 155.409 52.893 155.437 52.8325 155.492Z" fill="#407BFF"/>
<path d="M80.6403 68.0699C80.6403 68.0699 83.8404 48.5775 78.3419 39.8402C78.3419 39.8402 67.3612 39.1584 59.6357 43.6178C59.6357 43.6178 62.8304 52.2945 63.3033 68.0699H80.6403Z" fill="#20A2A5"/>
<path d="M76.9763 39.8022C76.9763 39.8022 87.8579 38.5265 89.4965 37.8392C90.5192 37.4103 98.5197 32.1812 98.5197 32.1812L100.395 34.9744C100.395 34.9744 92.2128 41.5837 90.8272 42.3425C87.583 44.124 80.2919 46.6369 80.2919 46.6369C80.2919 46.6369 75.8876 43.5742 76.9763 39.7967V39.8022Z" fill="#20A2A5"/>
<path d="M72.4782 27.1826C72.4782 27.1826 77.0035 22.6573 72.7366 19.6166C68.4698 16.5704 64.1809 20.5459 64.1809 20.5459C64.1809 20.5459 53.97 23.0092 56.142 29.7999C58.3139 36.5852 59.7325 37.1625 56.5049 40.6486C53.2772 44.1347 49.9671 49.2869 53.2717 52.5805C56.5764 55.8741 68.1288 52.487 71.6314 47.5108C75.1395 42.5346 68.9426 31.8564 72.4727 27.1881L72.4782 27.1826Z" fill="#263238"/>
<path d="M63.3042 68.0697L63.2327 66.2167L80.8391 66.6676V68.3776L63.3042 68.0697Z" fill="black"/>
<path d="M68.8852 66.343H68.1759V68.163H68.8852V66.343Z" fill="#263238"/>
<path d="M77.0127 66.5525H76.3859V68.543H77.0127V66.5525Z" fill="#263238"/>
<path d="M64.3159 66.2444H63.7166V68.3723H64.3159V66.2444Z" fill="#263238"/>
<path d="M33.5912 143.507H148.684C151.453 143.507 153.723 145.716 153.723 148.511V158.474C153.723 161.224 151.499 163.478 148.684 163.478H33.5912C30.8217 163.478 28.5516 161.269 28.5516 158.474V148.511C28.5516 145.716 30.8217 143.507 33.5912 143.507Z" fill="#F9ED78"/>
<path d="M80.1266 155.139C80.172 155.139 80.172 155.139 80.2174 155.184L80.4898 155.454C80.3082 155.68 80.0358 155.86 79.7634 155.995C79.491 156.13 79.1278 156.175 78.7646 156.175C78.4014 156.175 78.0835 156.13 77.8111 155.995C77.5387 155.86 77.3117 155.725 77.0847 155.499C76.9031 155.274 76.7215 155.048 76.6307 154.733C76.5399 154.417 76.4491 154.102 76.4491 153.741C76.4491 153.38 76.4945 153.065 76.6307 152.749C76.7669 152.434 76.9031 152.208 77.1301 151.983C77.3571 151.757 77.5841 151.622 77.9019 151.487C78.2198 151.352 78.5376 151.307 78.9008 151.307C79.264 151.307 79.5364 151.352 79.8088 151.487C80.0812 151.577 80.3082 151.757 80.4898 151.938L80.2628 152.253L80.2174 152.298C80.2174 152.298 80.172 152.298 80.1266 152.298C80.0812 152.298 80.0812 152.298 80.0358 152.253C79.9904 152.253 79.945 152.208 79.8996 152.163C79.8542 152.118 79.8088 152.118 79.7634 152.073C79.718 152.028 79.6272 151.983 79.5364 151.983C79.4456 151.938 79.3548 151.938 79.264 151.893C79.1732 151.893 79.037 151.848 78.9008 151.848C78.6284 151.848 78.4014 151.893 78.1744 151.983C77.9473 152.073 77.7657 152.208 77.6295 152.343C77.4933 152.524 77.3571 152.704 77.2663 152.93C77.1755 153.155 77.1301 153.425 77.1301 153.696C77.1301 154.012 77.1755 154.237 77.2663 154.507C77.3571 154.733 77.4479 154.958 77.6295 155.093C77.7657 155.274 77.9473 155.364 78.1744 155.454C78.356 155.544 78.583 155.589 78.81 155.589C78.9462 155.589 79.0824 155.589 79.1732 155.544C79.3094 155.544 79.4002 155.499 79.491 155.454C79.5818 155.409 79.6726 155.364 79.7634 155.319C79.8542 155.274 79.945 155.184 80.0358 155.139C80.0812 155.139 80.0812 155.139 80.1266 155.139ZM82.6237 152.704C82.8507 152.704 83.0777 152.749 83.3047 152.839C83.4863 152.93 83.6679 153.02 83.8041 153.2C83.9403 153.335 84.0311 153.516 84.1219 153.741C84.2127 153.966 84.2581 154.192 84.2581 154.462C84.2581 154.733 84.2127 154.958 84.1219 155.184C84.0311 155.409 83.9403 155.589 83.8041 155.725C83.6679 155.86 83.4863 155.995 83.3047 156.085C83.1231 156.175 82.8961 156.221 82.6237 156.221C82.3513 156.221 82.1697 156.175 81.9427 156.085C81.7611 155.995 81.5795 155.905 81.4433 155.725C81.3071 155.589 81.2163 155.409 81.1254 155.184C81.0346 154.958 80.9892 154.733 80.9892 154.462C80.9892 154.192 81.0346 153.966 81.1254 153.741C81.2163 153.516 81.3071 153.335 81.4433 153.2C81.5795 153.065 81.7611 152.93 81.9427 152.839C82.1243 152.749 82.3513 152.704 82.6237 152.704ZM82.6237 155.68C82.9415 155.68 83.2139 155.589 83.3955 155.364C83.5771 155.139 83.6225 154.823 83.6225 154.417C83.6225 154.012 83.5317 153.696 83.3955 153.471C83.2139 153.245 82.9869 153.155 82.6237 153.155C82.4421 153.155 82.3059 153.2 82.1697 153.245C82.0335 153.29 81.9427 153.38 81.8519 153.516C81.7611 153.606 81.7157 153.741 81.6703 153.921C81.6249 154.057 81.6249 154.237 81.6249 154.462C81.6249 154.643 81.6249 154.823 81.6703 155.003C81.7157 155.139 81.7611 155.274 81.8519 155.409C81.9427 155.499 82.0335 155.589 82.1697 155.634C82.3059 155.68 82.4421 155.68 82.6237 155.68ZM84.9846 156.13V152.749H85.3478C85.4386 152.749 85.484 152.794 85.5294 152.884L85.5748 153.245C85.711 153.065 85.8926 152.975 86.0742 152.839C86.2558 152.749 86.4828 152.704 86.7098 152.704C86.8914 152.704 87.073 152.749 87.2092 152.794C87.3454 152.839 87.4817 152.93 87.5725 153.065C87.6633 153.155 87.7541 153.29 87.7995 153.471C87.8449 153.606 87.8903 153.786 87.8903 154.012V156.175H87.3V154.012C87.3 153.741 87.2546 153.561 87.1184 153.425C86.9822 153.29 86.846 153.2 86.5736 153.2C86.392 153.2 86.2104 153.245 86.0742 153.335C85.938 153.425 85.8018 153.516 85.6656 153.696V156.175H84.9846V156.13ZM89.7063 156.175C89.4339 156.175 89.2523 156.085 89.0707 155.95C88.9345 155.815 88.8437 155.589 88.8437 155.319V153.245H88.4805C88.4351 153.245 88.4351 153.245 88.3897 153.2C88.3443 153.2 88.3443 153.155 88.3443 153.11V152.884L88.8891 152.794L89.0253 151.757C89.0253 151.712 89.0253 151.712 89.0707 151.667C89.1161 151.667 89.1161 151.622 89.1615 151.622H89.4793V152.794H90.4327V153.245H89.4793V155.274C89.4793 155.409 89.5247 155.499 89.5701 155.589C89.6609 155.68 89.7063 155.68 89.8425 155.68C89.8879 155.68 89.9787 155.68 90.0241 155.634C90.0695 155.634 90.1149 155.589 90.1603 155.589C90.2057 155.589 90.2057 155.544 90.2511 155.544C90.2965 155.544 90.2965 155.499 90.2965 155.499C90.3419 155.499 90.3419 155.499 90.3873 155.544L90.569 155.815C90.4782 155.905 90.3419 155.995 90.2057 156.04C90.0241 156.13 89.8425 156.175 89.7063 156.175ZM91.8402 152.749V156.13H91.25V152.749H91.8402ZM91.9764 151.712C91.9764 151.757 91.9764 151.802 91.931 151.893C91.931 151.938 91.8856 151.983 91.8402 152.028C91.7948 152.073 91.7494 152.073 91.704 152.118C91.6586 152.118 91.6132 152.163 91.5224 152.163C91.477 152.163 91.4316 152.163 91.3408 152.118C91.2954 152.118 91.25 152.073 91.2046 152.028C91.1592 151.983 91.1592 151.938 91.1138 151.893C91.1138 151.848 91.0684 151.802 91.0684 151.712C91.0684 151.622 91.0684 151.622 91.1138 151.532C91.1138 151.487 91.1592 151.442 91.2046 151.397C91.25 151.352 91.2954 151.307 91.3408 151.307C91.3862 151.307 91.4316 151.261 91.5224 151.261C91.5678 151.261 91.6132 151.261 91.704 151.307C91.7494 151.307 91.7948 151.352 91.8402 151.397C91.8856 151.442 91.931 151.487 91.931 151.532C91.9764 151.577 91.9764 151.622 91.9764 151.712ZM92.8844 156.13V152.749H93.2476C93.3384 152.749 93.3838 152.794 93.4292 152.884L93.4746 153.245C93.6109 153.065 93.7925 152.975 93.9741 152.839C94.1557 152.749 94.3827 152.704 94.6097 152.704C94.7913 152.704 94.9729 152.749 95.1091 152.794C95.2453 152.839 95.3815 152.93 95.4723 153.065C95.5631 153.155 95.6539 153.29 95.6993 153.471C95.7447 153.606 95.7901 153.786 95.7901 154.012V156.175H95.1999V154.012C95.1999 153.741 95.1545 153.561 95.0183 153.425C94.8821 153.29 94.7459 153.2 94.4735 153.2C94.2919 153.2 94.1103 153.245 93.9741 153.335C93.8379 153.425 93.7017 153.516 93.5654 153.696V156.175H92.8844V156.13ZM97.1068 152.749V154.913C97.1068 155.184 97.1522 155.364 97.2884 155.499C97.4246 155.635 97.6062 155.725 97.8332 155.725C98.0148 155.725 98.151 155.68 98.3326 155.589C98.4688 155.499 98.6504 155.409 98.7412 155.229V152.749H99.3314V156.13H98.9682C98.8774 156.13 98.832 156.085 98.7866 155.995L98.7412 155.634C98.605 155.815 98.4234 155.905 98.2418 156.04C98.0602 156.13 97.8332 156.175 97.6062 156.175C97.4246 156.175 97.243 156.13 97.1068 156.085C96.9706 156.04 96.8344 155.95 96.7435 155.815C96.6527 155.725 96.5619 155.589 96.5165 155.409C96.4711 155.274 96.4257 155.093 96.4257 154.868V152.704H97.1068V152.749ZM102.827 156.13H102.555C102.51 156.13 102.464 156.13 102.419 156.085C102.373 156.085 102.373 156.04 102.328 155.95L102.283 155.634C102.192 155.725 102.101 155.77 102.01 155.86C101.919 155.905 101.829 155.995 101.738 156.04C101.647 156.085 101.556 156.13 101.42 156.13C101.329 156.13 101.193 156.175 101.057 156.175C100.92 156.175 100.784 156.175 100.693 156.13C100.557 156.085 100.466 156.04 100.376 155.95C100.285 155.86 100.239 155.77 100.194 155.68C100.149 155.544 100.103 155.454 100.103 155.274C100.103 155.139 100.149 155.003 100.194 154.913C100.285 154.778 100.376 154.688 100.557 154.598C100.739 154.507 100.92 154.417 101.193 154.372C101.465 154.327 101.783 154.282 102.146 154.282V154.012C102.146 153.741 102.101 153.561 101.965 153.425C101.874 153.29 101.692 153.245 101.465 153.245C101.329 153.245 101.193 153.245 101.102 153.29C101.011 153.335 100.92 153.38 100.83 153.425C100.739 153.471 100.693 153.516 100.648 153.561C100.603 153.606 100.557 153.606 100.512 153.606C100.466 153.606 100.421 153.606 100.421 153.561C100.376 153.561 100.376 153.516 100.33 153.471L100.239 153.29C100.421 153.11 100.648 152.975 100.83 152.884C101.057 152.794 101.284 152.749 101.556 152.749C101.738 152.749 101.919 152.794 102.056 152.839C102.192 152.884 102.328 152.975 102.419 153.11C102.51 153.2 102.6 153.335 102.646 153.516C102.691 153.651 102.737 153.831 102.737 154.012V156.13H102.827ZM101.284 155.77C101.375 155.77 101.465 155.77 101.556 155.725C101.647 155.725 101.738 155.68 101.783 155.634C101.874 155.589 101.919 155.544 102.01 155.499C102.101 155.454 102.146 155.364 102.237 155.319V154.598C101.965 154.598 101.738 154.643 101.556 154.643C101.375 154.688 101.193 154.733 101.102 154.778C100.966 154.823 100.875 154.913 100.83 154.958C100.784 155.048 100.739 155.139 100.739 155.229C100.739 155.319 100.739 155.409 100.784 155.454C100.83 155.499 100.83 155.589 100.92 155.634C100.966 155.68 101.011 155.725 101.102 155.725C101.102 155.725 101.193 155.77 101.284 155.77ZM103.735 156.13V152.749H104.099C104.144 152.749 104.189 152.749 104.235 152.794C104.28 152.839 104.28 152.839 104.28 152.93L104.326 153.471C104.462 153.245 104.598 153.065 104.734 152.93C104.916 152.794 105.097 152.749 105.324 152.749C105.415 152.749 105.506 152.749 105.597 152.794C105.688 152.794 105.733 152.839 105.824 152.884L105.733 153.335C105.733 153.38 105.688 153.425 105.642 153.425C105.597 153.425 105.551 153.425 105.506 153.38C105.461 153.38 105.37 153.335 105.234 153.335C105.007 153.335 104.87 153.38 104.734 153.516C104.598 153.651 104.462 153.831 104.371 154.057V156.221H103.735V156.13Z" fill="#676767"/>
</svg>
