<svg xmlns="http://www.w3.org/2000/svg" viewBox="0 0 137.61 190.96"><defs><style>.cls-1{fill:#20a1a4;}.cls-2{fill:#fff;}.cls-3{opacity:0.17;}.cls-4{fill:#dbdbdb;}.cls-5{fill:#b2b2b2;}.cls-6{fill:#878787;}.cls-7{opacity:0.78;}.cls-8{fill:#c6c6c6;}.cls-9{fill:#ededed;}.cls-10{fill:#ffbe9d;}.cls-11{isolation:isolate;opacity:0.2;}.cls-12{fill:#263238;}.cls-13{fill:#407bff;}.cls-14{fill:#20a2a5;}.cls-15{fill:#422e19;}.cls-16{fill:#36755d;}.cls-17{fill:#eb996e;}.cls-18{fill:#ffeb4d;}.cls-19{fill:#676767;}.cls-20{opacity:0.45;}</style></defs><g id="Capa_2" data-name="Capa 2"><g id="Capa_1-2" data-name="Capa 1"><rect class="cls-1" x="36.53" width="101.08" height="190.36" rx="13.92"/><rect class="cls-2" x="41.36" y="4.87" width="91.41" height="180.63" rx="9.86"/><g class="cls-3"><path class="cls-4" d="M122.91,185.5H51.23L122.91,4.87a9.85,9.85,0,0,1,9.86,9.86v160.9A9.86,9.86,0,0,1,122.91,185.5Z"/></g><path class="cls-1" d="M68.24,4.32h37.65a0,0,0,0,1,0,0V8a3.84,3.84,0,0,1-3.84,3.84h-30A3.84,3.84,0,0,1,68.24,8V4.32A0,0,0,0,1,68.24,4.32Z"/><path class="cls-5" d="M95.9,47.08H72.27a.5.5,0,0,1-.5-.5.5.5,0,0,1,.5-.5H95.9a.5.5,0,0,1,.5.5A.5.5,0,0,1,95.9,47.08Z"/><path class="cls-5" d="M95.1,52.45H72.27a.5.5,0,0,1-.5-.5.5.5,0,0,1,.5-.5H95.1a.5.5,0,0,1,.5.5A.5.5,0,0,1,95.1,52.45Z"/><path class="cls-6" d="M74.5,41H72.91v-.66h1.44a1.46,1.46,0,0,0,.62-.12,1,1,0,0,0,.42-.35,1,1,0,0,0,.15-.54,1.06,1.06,0,0,0-.14-.56.68.68,0,0,0-.4-.31,1.8,1.8,0,0,0-.67-.11H73.1v5.58h-.83V37.62h2a3.76,3.76,0,0,1,.86.1,2,2,0,0,1,.64.3,1.37,1.37,0,0,1,.4.52,1.89,1.89,0,0,1,.14.75,1.3,1.3,0,0,1-.2.7,1.5,1.5,0,0,1-.55.51,2.2,2.2,0,0,1-.82.25Zm0,2.93H72.59l.46-.68h1.41a1.54,1.54,0,0,0,.67-.13.94.94,0,0,0,.42-.39,1.16,1.16,0,0,0,.15-.6,1.26,1.26,0,0,0-.13-.6.82.82,0,0,0-.39-.39A1.46,1.46,0,0,0,74.5,41H73.32v-.66h1.62l.18.24a1.44,1.44,0,0,1,.76.26,1.35,1.35,0,0,1,.48.55,1.64,1.64,0,0,1,.16.74,1.81,1.81,0,0,1-.25,1,1.6,1.6,0,0,1-.72.61A2.62,2.62,0,0,1,74.46,43.88Zm5.91-.8V40.69a1,1,0,0,0-.11-.47.68.68,0,0,0-.33-.32,1.13,1.13,0,0,0-.54-.11,1.25,1.25,0,0,0-.53.1.89.89,0,0,0-.35.27.61.61,0,0,0-.13.36h-.79a1,1,0,0,1,.13-.49,1.41,1.41,0,0,1,.37-.45,1.79,1.79,0,0,1,.58-.31,2.35,2.35,0,0,1,.77-.12,2.11,2.11,0,0,1,.89.17,1.35,1.35,0,0,1,.61.52,1.53,1.53,0,0,1,.22.86v2.17a4.6,4.6,0,0,0,0,.49,1.84,1.84,0,0,0,.13.45v.07H80.5a1.73,1.73,0,0,1-.1-.37A3.22,3.22,0,0,1,80.37,43.08Zm.14-2v.56h-.81a2.71,2.71,0,0,0-.6.06,1.32,1.32,0,0,0-.45.15.93.93,0,0,0-.28.28.72.72,0,0,0-.09.37.79.79,0,0,0,.1.4.7.7,0,0,0,.3.29,1.15,1.15,0,0,0,.49.1,1.22,1.22,0,0,0,.64-.16,1.28,1.28,0,0,0,.45-.37.86.86,0,0,0,.18-.44l.34.39a1.08,1.08,0,0,1-.17.39,2.28,2.28,0,0,1-.35.43,2,2,0,0,1-.53.33,1.79,1.79,0,0,1-.68.13,1.85,1.85,0,0,1-.83-.19,1.53,1.53,0,0,1-.55-.49,1.41,1.41,0,0,1-.19-.7,1.4,1.4,0,0,1,.15-.66,1.2,1.2,0,0,1,.42-.48,2,2,0,0,1,.66-.29,3.28,3.28,0,0,1,.86-.1Zm2.7-.84v3.66h-.8V39.23h.76ZM83,41.38h-.33a2.71,2.71,0,0,1,.14-.88,2,2,0,0,1,.39-.71,1.68,1.68,0,0,1,.59-.47,1.77,1.77,0,0,1,.77-.16,2,2,0,0,1,.62.09,1.2,1.2,0,0,1,.47.29,1.36,1.36,0,0,1,.3.53,2.48,2.48,0,0,1,.1.77v3.05h-.8V40.83a1.38,1.38,0,0,0-.11-.59.61.61,0,0,0-.31-.32,1.13,1.13,0,0,0-.51-.1,1.19,1.19,0,0,0-.54.12,1.37,1.37,0,0,0-.42.34,2.06,2.06,0,0,0-.27.51A1.87,1.87,0,0,0,83,41.38Zm6.12,1.93a1.27,1.27,0,0,0,.52-.11,1.26,1.26,0,0,0,.4-.32.9.9,0,0,0,.17-.47H91a1.48,1.48,0,0,1-.28.77,2,2,0,0,1-.67.57,1.93,1.93,0,0,1-.9.22,2.19,2.19,0,0,1-.92-.19,1.69,1.69,0,0,1-.64-.51,2.27,2.27,0,0,1-.39-.74,3.17,3.17,0,0,1-.12-.88v-.18a3.19,3.19,0,0,1,.12-.89,2.27,2.27,0,0,1,.39-.74,1.69,1.69,0,0,1,.64-.51,2.19,2.19,0,0,1,.92-.18,1.93,1.93,0,0,1,1,.22,1.61,1.61,0,0,1,.64.6,1.77,1.77,0,0,1,.26.86h-.76a1.13,1.13,0,0,0-.16-.52,1,1,0,0,0-.38-.37,1.1,1.1,0,0,0-.55-.14,1.29,1.29,0,0,0-.62.14,1.21,1.21,0,0,0-.39.39,1.83,1.83,0,0,0-.2.54,2.91,2.91,0,0,0-.06.6v.18a3.05,3.05,0,0,0,.06.6,1.62,1.62,0,0,0,.2.53,1,1,0,0,0,.39.39A1.26,1.26,0,0,0,89.14,43.31Zm2.53-1.7v-.1a2.75,2.75,0,0,1,.15-.93,2.09,2.09,0,0,1,.42-.76,1.78,1.78,0,0,1,.66-.49,2.1,2.1,0,0,1,.88-.18,2.07,2.07,0,0,1,.88.18,1.82,1.82,0,0,1,.67.49,2.27,2.27,0,0,1,.43.76,3,3,0,0,1,.14.93v.1a3.12,3.12,0,0,1-.14.93,2.13,2.13,0,0,1-.43.75,1.93,1.93,0,0,1-.66.5,2.24,2.24,0,0,1-1.76,0,2,2,0,0,1-1.09-1.25A2.83,2.83,0,0,1,91.67,41.61Zm.8-.1v.1a2.27,2.27,0,0,0,.08.65,1.61,1.61,0,0,0,.24.55,1.25,1.25,0,0,0,.42.37,1.21,1.21,0,0,0,.58.13,1.14,1.14,0,0,0,.57-.13,1.22,1.22,0,0,0,.41-.37,1.85,1.85,0,0,0,.25-.55,2.69,2.69,0,0,0,.08-.65v-.1a2.69,2.69,0,0,0-.08-.65,1.85,1.85,0,0,0-.25-.55,1.21,1.21,0,0,0-.41-.37,1.27,1.27,0,0,0-1.16,0,1.21,1.21,0,0,0-.41.37,1.61,1.61,0,0,0-.24.55A2.27,2.27,0,0,0,92.47,41.51Z"/><g class="cls-7"><rect class="cls-8" x="49.53" y="36.25" width="17.08" height="17.08" rx="1.97"/></g><g class="cls-7"><rect class="cls-9" x="50.91" y="37.62" width="14.32" height="14.32" rx="1.65"/></g><path class="cls-5" d="M126.09,86.36H72.27a.5.5,0,0,1-.5-.5.5.5,0,0,1,.5-.5h53.82a.5.5,0,0,1,.5.5A.5.5,0,0,1,126.09,86.36Z"/><path class="cls-5" d="M104.11,91.72H72.27a.5.5,0,0,1,0-1h31.84a.5.5,0,0,1,0,1Z"/><path class="cls-6" d="M74.5,80.23H72.91v-.67h1.44a1.46,1.46,0,0,0,.62-.12,1,1,0,0,0,.42-.34,1,1,0,0,0,.15-.54,1,1,0,0,0-.14-.56.69.69,0,0,0-.4-.32,1.82,1.82,0,0,0-.67-.1H73.1v5.57h-.83V76.9h2a3.28,3.28,0,0,1,.86.1,1.65,1.65,0,0,1,.64.3,1.27,1.27,0,0,1,.4.51,1.89,1.89,0,0,1,.14.75,1.27,1.27,0,0,1-.2.7,1.5,1.5,0,0,1-.55.51,2,2,0,0,1-.82.25Zm0,2.92H72.59l.46-.67h1.41a1.54,1.54,0,0,0,.67-.14.94.94,0,0,0,.42-.39,1.13,1.13,0,0,0,.15-.59,1.21,1.21,0,0,0-.13-.6.89.89,0,0,0-.39-.4,1.47,1.47,0,0,0-.68-.13H73.32v-.67h1.62l.18.24a1.53,1.53,0,0,1,.76.26,1.41,1.41,0,0,1,.48.55,1.64,1.64,0,0,1,.16.74,1.82,1.82,0,0,1-.25,1,1.66,1.66,0,0,1-.72.61A2.79,2.79,0,0,1,74.46,83.15Zm5.91-.79V80a1,1,0,0,0-.11-.47.68.68,0,0,0-.33-.32,1.27,1.27,0,0,0-.54-.11,1.25,1.25,0,0,0-.53.1.89.89,0,0,0-.35.27.61.61,0,0,0-.13.36h-.79a1,1,0,0,1,.13-.49,1.38,1.38,0,0,1,.37-.44,1.81,1.81,0,0,1,.58-.32,2.35,2.35,0,0,1,.77-.12,2.28,2.28,0,0,1,.89.17,1.35,1.35,0,0,1,.61.52,1.55,1.55,0,0,1,.22.86v2.17a4.4,4.4,0,0,0,0,.49,1.61,1.61,0,0,0,.13.45v.07H80.5a1.79,1.79,0,0,1-.1-.36A3.46,3.46,0,0,1,80.37,82.36Zm.14-2v.56h-.81a2.71,2.71,0,0,0-.6.06,1.32,1.32,0,0,0-.45.16.81.81,0,0,0-.28.27.72.72,0,0,0-.09.37.77.77,0,0,0,.1.4.65.65,0,0,0,.3.29,1,1,0,0,0,.49.1,1.32,1.32,0,0,0,.64-.15,1.42,1.42,0,0,0,.45-.38.83.83,0,0,0,.18-.43l.34.38a1.19,1.19,0,0,1-.17.4,2.6,2.6,0,0,1-.35.42,2,2,0,0,1-.53.33,1.62,1.62,0,0,1-.68.13,1.72,1.72,0,0,1-.83-.19,1.45,1.45,0,0,1-.55-.49,1.45,1.45,0,0,1,0-1.36,1.12,1.12,0,0,1,.42-.47,2,2,0,0,1,.66-.3,3.76,3.76,0,0,1,.86-.1Zm2.7-.83v3.65h-.8V78.5h.76ZM83,80.65h-.33a2.75,2.75,0,0,1,.14-.88,2.13,2.13,0,0,1,.39-.71,1.55,1.55,0,0,1,.59-.46,1.64,1.64,0,0,1,.77-.17,2,2,0,0,1,.62.09,1.2,1.2,0,0,1,.47.29,1.36,1.36,0,0,1,.3.53,2.51,2.51,0,0,1,.1.78v3h-.8V80.1a1.38,1.38,0,0,0-.11-.59.64.64,0,0,0-.31-.32,1.13,1.13,0,0,0-.51-.1,1.19,1.19,0,0,0-.54.12,1.4,1.4,0,0,0-.42.35,1.83,1.83,0,0,0-.27.5A1.92,1.92,0,0,0,83,80.65Zm6.12,1.94a1.18,1.18,0,0,0,.92-.44.87.87,0,0,0,.17-.47H91a1.48,1.48,0,0,1-.28.77A1.78,1.78,0,0,1,90,83a1.82,1.82,0,0,1-.9.22,2,2,0,0,1-.92-.19,1.76,1.76,0,0,1-.64-.5,2.38,2.38,0,0,1-.39-.74,3.24,3.24,0,0,1-.12-.89v-.18a3.24,3.24,0,0,1,.12-.89,2.27,2.27,0,0,1,.39-.74,1.9,1.9,0,0,1,.64-.51,2.19,2.19,0,0,1,.92-.18,1.93,1.93,0,0,1,1,.22,1.68,1.68,0,0,1,.64.6,1.81,1.81,0,0,1,.26.86h-.76a1.17,1.17,0,0,0-.16-.52,1,1,0,0,0-.38-.37,1.1,1.1,0,0,0-.55-.14,1.19,1.19,0,0,0-.62.15,1.09,1.09,0,0,0-.39.38,1.83,1.83,0,0,0-.2.54,3,3,0,0,0-.06.6v.18a3.05,3.05,0,0,0,.06.6,1.59,1.59,0,0,0,.2.54,1,1,0,0,0,.39.38A1.16,1.16,0,0,0,89.14,82.59Zm2.53-1.71v-.1a2.83,2.83,0,0,1,.15-.93,2,2,0,0,1,.42-.75,1.81,1.81,0,0,1,.66-.5,2.1,2.1,0,0,1,.88-.18,2.07,2.07,0,0,1,.88.18,1.84,1.84,0,0,1,.67.5,2.13,2.13,0,0,1,.43.75,3.12,3.12,0,0,1,.14.93v.1a3.07,3.07,0,0,1-.14.93,2.13,2.13,0,0,1-.43.75,1.81,1.81,0,0,1-.66.5,2.24,2.24,0,0,1-1.76,0,1.84,1.84,0,0,1-.67-.5,2,2,0,0,1-.42-.75A2.79,2.79,0,0,1,91.67,80.88Zm.8-.1v.1a2.39,2.39,0,0,0,.08.66,1.65,1.65,0,0,0,.24.54,1.15,1.15,0,0,0,.42.37,1.21,1.21,0,0,0,.58.14,1.15,1.15,0,0,0,.57-.14,1.12,1.12,0,0,0,.41-.37,1.91,1.91,0,0,0,.25-.54,2.84,2.84,0,0,0,.08-.66v-.1a2.75,2.75,0,0,0-.08-.65,1.79,1.79,0,0,0-.25-.54,1.24,1.24,0,0,0-.41-.38,1.27,1.27,0,0,0-1.16,0,1.24,1.24,0,0,0-.41.38,1.56,1.56,0,0,0-.24.54A2.32,2.32,0,0,0,92.47,80.78Z"/><g class="cls-7"><rect class="cls-8" x="49.53" y="75.52" width="17.08" height="17.08" rx="1.97"/></g><g class="cls-7"><rect class="cls-9" x="50.91" y="76.9" width="14.32" height="14.32" rx="1.65"/></g><path class="cls-5" d="M126.09,127.73H72.27a.5.5,0,0,1-.5-.5.5.5,0,0,1,.5-.5h53.82a.5.5,0,0,1,.5.5A.5.5,0,0,1,126.09,127.73Z"/><path class="cls-5" d="M104.11,133.09H72.27a.5.5,0,0,1-.5-.5.5.5,0,0,1,.5-.5h31.84a.5.5,0,0,1,.5.5A.5.5,0,0,1,104.11,133.09Z"/><path class="cls-6" d="M74.5,121.6H72.91v-.67h1.44a1.46,1.46,0,0,0,.62-.12,1,1,0,0,0,.42-.34,1,1,0,0,0,.15-.55,1,1,0,0,0-.14-.55.65.65,0,0,0-.4-.32,1.82,1.82,0,0,0-.67-.1H73.1v5.57h-.83v-6.25h2a3.28,3.28,0,0,1,.86.1,1.65,1.65,0,0,1,.64.3,1.27,1.27,0,0,1,.4.51,1.89,1.89,0,0,1,.14.75,1.3,1.3,0,0,1-.2.7,1.5,1.5,0,0,1-.55.51,2,2,0,0,1-.82.25Zm0,2.92H72.59l.46-.67h1.41a1.54,1.54,0,0,0,.67-.14.94.94,0,0,0,.42-.39,1.15,1.15,0,0,0,.15-.59,1.28,1.28,0,0,0-.13-.61.87.87,0,0,0-.39-.39,1.47,1.47,0,0,0-.68-.13H73.32v-.67h1.62l.18.24a1.53,1.53,0,0,1,.76.26,1.35,1.35,0,0,1,.48.55,1.64,1.64,0,0,1,.16.74,1.82,1.82,0,0,1-.25,1,1.73,1.73,0,0,1-.72.61A2.79,2.79,0,0,1,74.46,124.52Zm5.91-.79v-2.4a1,1,0,0,0-.11-.47.68.68,0,0,0-.33-.32,1.13,1.13,0,0,0-.54-.11,1.25,1.25,0,0,0-.53.1.89.89,0,0,0-.35.27.61.61,0,0,0-.13.36h-.79a1,1,0,0,1,.13-.49,1.28,1.28,0,0,1,.37-.44,1.64,1.64,0,0,1,.58-.32,2.35,2.35,0,0,1,.77-.12,2.11,2.11,0,0,1,.89.17,1.35,1.35,0,0,1,.61.52,1.55,1.55,0,0,1,.22.86v2.17a4.4,4.4,0,0,0,0,.49,1.61,1.61,0,0,0,.13.45v.07H80.5a1.79,1.79,0,0,1-.1-.36A3.46,3.46,0,0,1,80.37,123.73Zm.14-2v.56h-.81a2.71,2.71,0,0,0-.6.06,1.14,1.14,0,0,0-.45.16.81.81,0,0,0-.28.27.72.72,0,0,0-.09.37.77.77,0,0,0,.1.4.65.65,0,0,0,.3.29,1,1,0,0,0,.49.1,1.32,1.32,0,0,0,.64-.15,1.42,1.42,0,0,0,.45-.38.83.83,0,0,0,.18-.44l.34.39a1.19,1.19,0,0,1-.17.4,2.6,2.6,0,0,1-.35.42,2,2,0,0,1-.53.33,1.79,1.79,0,0,1-.68.13,1.72,1.72,0,0,1-.83-.19,1.53,1.53,0,0,1-.55-.49,1.45,1.45,0,0,1,0-1.36,1.2,1.2,0,0,1,.42-.48,2.23,2.23,0,0,1,.66-.29,3.76,3.76,0,0,1,.86-.1Zm2.7-.83v3.65h-.8v-4.65h.76ZM83,122h-.33a2.75,2.75,0,0,1,.14-.88,2.13,2.13,0,0,1,.39-.71,1.68,1.68,0,0,1,.59-.47,1.77,1.77,0,0,1,.77-.16,2,2,0,0,1,.62.09,1.2,1.2,0,0,1,.47.29,1.36,1.36,0,0,1,.3.53,2.51,2.51,0,0,1,.1.78v3h-.8v-3a1.38,1.38,0,0,0-.11-.59.64.64,0,0,0-.31-.32,1.13,1.13,0,0,0-.51-.1,1.19,1.19,0,0,0-.54.12,1.4,1.4,0,0,0-.42.35,1.83,1.83,0,0,0-.27.5A1.87,1.87,0,0,0,83,122ZM89.14,124a1.13,1.13,0,0,0,.52-.11,1.26,1.26,0,0,0,.4-.32.87.87,0,0,0,.17-.47H91a1.48,1.48,0,0,1-.28.77,1.78,1.78,0,0,1-.67.57,1.82,1.82,0,0,1-.9.22,2,2,0,0,1-.92-.19,1.76,1.76,0,0,1-.64-.5,2.5,2.5,0,0,1-.39-.74,3.24,3.24,0,0,1-.12-.89v-.18a3.19,3.19,0,0,1,.12-.89,2.27,2.27,0,0,1,.39-.74,1.79,1.79,0,0,1,.64-.51,2.19,2.19,0,0,1,.92-.18,1.93,1.93,0,0,1,1,.22,1.68,1.68,0,0,1,.64.6,1.77,1.77,0,0,1,.26.86h-.76a1.17,1.17,0,0,0-.16-.52,1,1,0,0,0-.38-.37,1.1,1.1,0,0,0-.55-.14,1.19,1.19,0,0,0-.62.15,1.09,1.09,0,0,0-.39.38,1.83,1.83,0,0,0-.2.54,2.91,2.91,0,0,0-.06.6v.18a3.05,3.05,0,0,0,.06.6,1.59,1.59,0,0,0,.2.54,1,1,0,0,0,.39.38A1.16,1.16,0,0,0,89.14,124Zm2.53-1.7v-.1a2.75,2.75,0,0,1,.15-.93,2,2,0,0,1,.42-.75,1.81,1.81,0,0,1,.66-.5,2.1,2.1,0,0,1,.88-.18,2.07,2.07,0,0,1,.88.18,1.84,1.84,0,0,1,.67.5,2.13,2.13,0,0,1,.43.75,3,3,0,0,1,.14.93v.1a3.12,3.12,0,0,1-.14.93,2.13,2.13,0,0,1-.43.75,1.93,1.93,0,0,1-.66.5,2.24,2.24,0,0,1-1.76,0,2,2,0,0,1-1.09-1.25A2.83,2.83,0,0,1,91.67,122.25Zm.8-.1v.1a2.39,2.39,0,0,0,.08.66,1.65,1.65,0,0,0,.24.54,1.25,1.25,0,0,0,.42.37,1.21,1.21,0,0,0,.58.13,1.14,1.14,0,0,0,.57-.13,1.22,1.22,0,0,0,.41-.37,1.91,1.91,0,0,0,.25-.54,2.84,2.84,0,0,0,.08-.66v-.1a2.69,2.69,0,0,0-.08-.65,1.79,1.79,0,0,0-.25-.54,1.24,1.24,0,0,0-.41-.38,1.27,1.27,0,0,0-1.16,0,1.24,1.24,0,0,0-.41.38,1.56,1.56,0,0,0-.24.54A2.27,2.27,0,0,0,92.47,122.15Z"/><g class="cls-7"><rect class="cls-8" x="49.53" y="116.89" width="17.08" height="17.08" rx="1.97"/></g><g class="cls-7"><rect class="cls-9" x="50.91" y="118.27" width="14.32" height="14.32" rx="1.65"/></g><path class="cls-10" d="M1.76,186.13l4.11.72,1.68-5.59,1.54-5.13-4.73-1.65L3,180.64Z"/><g class="cls-11"><path d="M3,180.78l4.57.6,1.54-5.2L4.35,174.5Z"/></g><path class="cls-10" d="M29.15,186.23h4.16l.68-5.58.63-5.22-4.95-.75-.28,6.13Z"/><g class="cls-11"><path d="M29.4,181.17,34,181l.62-5.38-4.95-.83Z"/></g><path class="cls-12" d="M2.57,176.29l6.74,1.18c6.81-16.95,11.65-31.1,15.07-42.84,1.84-6.34,3.3-12,4.4-17l-.28,18.45v41.63h6.8C52,98.67,40.16,80.29,40.16,80.29L20.23,77a88.42,88.42,0,0,0-1.67,11.19l-.9,6.6L9.87,135,2.58,176.28Z"/><path class="cls-13" d="M10.38,176.64,2,173.87l.11,3.55L9,179.63Z"/><path class="cls-14" d="M10.38,176.64,2,173.87l.11,3.55L9,179.63Z"/><path class="cls-13" d="M36.19,177l-8.72-1.28.73,3.48,7.19,1Z"/><path class="cls-14" d="M36.19,177l-8.72-1.28.73,3.48,7.19,1Z"/><g class="cls-11"><path d="M23.46,137.72c.32-1.05.65-2.08.95-3.1,1.67-5.75,2.78-10.93,4.09-15.57h0l.68-8.55s-4.26-9.39-2.67-16c-.15.37-3,7.57-1.86,14.77a208.45,208.45,0,0,1-1.19,28.46Z"/></g><path class="cls-10" d="M27.55,42.09a.81.81,0,0,0,.18.1,7.26,7.26,0,0,0,2.71.92c2.78.27,4.58-.34,5.62-1.72,1.45-2,1.45-5.35.7-9.23a14.94,14.94,0,0,0-1.45-4.47s0-.06,0-.06l-.09-.16a5.39,5.39,0,0,0-4.35-2.75,11,11,0,0,0-2.35,0c-7.64.91-7.37,13.73-.95,17.33Z"/><path class="cls-10" d="M28,48.44c-.69,2.14,2.05,3.3,2.05,3.3,4.82-1.52,5.92-3.89,5.92-3.89-3.66-2.4-2-8-2-8l-.82.31-5.62.53s1.24,3.09,1.38,3.77v0c.69,3.6-.93,3.93-.93,3.93Z"/><path class="cls-15" d="M35.32,27.65a8.09,8.09,0,0,1-3.66,8.26S30.2,41.75,27,42.25c-4.36.67-9-5-8.34-11.58.9-8.47,13.26-10.77,16.64-3Z"/><path class="cls-12" d="M33.76,185.44H29.11a.42.42,0,0,0-.41.34l-1,4.31a.74.74,0,0,0,.55.85h.16c1.9,0,2.06-.15,4.44-.15,1.47,0,5.92.16,8,.16s2.3-2,1.46-2.19c-3.73-.81-6.54-1.94-7.73-3a1.13,1.13,0,0,0-.81-.31Z"/><path class="cls-13" d="M34.08,186.11A.12.12,0,0,1,34,186a.1.1,0,0,1,0-.11c.17-.11,1.74-1.07,2.28-.79a.33.33,0,0,1,.19.32.66.66,0,0,1-.24.61,1.46,1.46,0,0,1-.93.25A5.48,5.48,0,0,1,34.08,186.11Zm.34-.16a2.38,2.38,0,0,0,1.72-.08.49.49,0,0,0,.16-.42c0-.09,0-.13-.07-.13a.28.28,0,0,0-.15,0A4.61,4.61,0,0,0,34.42,186Z"/><path class="cls-13" d="M34.05,186.14s-.06-.06,0-.1.12-1.46.69-1.92a.61.61,0,0,1,.48-.15.38.38,0,0,1,.37.3c.1.51-.87,1.58-1.36,1.85h-.06l0,0Zm.78-1.88a2.79,2.79,0,0,0-.58,1.51c.5-.37,1.12-1.18,1.06-1.49,0,0,0-.12-.17-.12h0A.35.35,0,0,0,34.83,184.26Z"/><path class="cls-12" d="M6,185.44H1.38a.42.42,0,0,0-.41.34l-1,4.31a.74.74,0,0,0,.55.85H.72c1.9,0,2.06-.15,4.44-.15,1.47,0,5.92.16,8,.16s2.3-2,1.46-2.19c-3.73-.81-6.54-1.94-7.73-3a1.13,1.13,0,0,0-.81-.31Z"/><path class="cls-13" d="M6.35,186.11a.11.11,0,0,1-.08-.1.1.1,0,0,1,.05-.11c.17-.11,1.74-1.07,2.27-.79a.32.32,0,0,1,.2.32.68.68,0,0,1-.24.61,1.47,1.47,0,0,1-.93.25A5.41,5.41,0,0,1,6.35,186.11Zm.34-.16a2.38,2.38,0,0,0,1.72-.08.49.49,0,0,0,.16-.42c0-.09-.05-.13-.07-.13a.28.28,0,0,0-.15,0A4.61,4.61,0,0,0,6.69,186Z"/><path class="cls-13" d="M6.33,186.14a.12.12,0,0,1-.06-.1A3.45,3.45,0,0,1,7,184.12a.61.61,0,0,1,.48-.15.4.4,0,0,1,.38.3c.09.51-.87,1.58-1.37,1.85h0l-.06,0Zm.77-1.88a2.78,2.78,0,0,0-.57,1.51c.5-.37,1.12-1.18,1-1.49,0,0,0-.12-.16-.12h0A.39.39,0,0,0,7.1,184.26Z"/><path class="cls-14" d="M40.15,80.36S44,57.2,37.42,46.81c0,0-13-.81-22.23,4.49,0,0,3.8,10.32,4.36,29.06Z"/><path d="M19.55,80.36l-.09-2.2,20.93.54v2Z"/><path class="cls-12" d="M26.18,78.31h-.84v2.16h.84Z"/><path class="cls-12" d="M35.84,78.56H35.1v2.37h.74Z"/><path class="cls-12" d="M20.75,78.19H20v2.53h.71Z"/><path class="cls-10" d="M11.69,51a.68.68,0,0,1,0-.14,3.32,3.32,0,0,1,0-1.09,5.9,5.9,0,0,1,.43-1.38c.22-.36-.11-.81-.47-.66a3.54,3.54,0,0,0-1.16,2.51c-.16,1.37-1.32-.46-1.76-1.11a13.14,13.14,0,0,0-2.2-2.67c-.45,0-.58.44-.12,1.09s1.67,2.69,1.31,2.9-2.54-3.17-2.54-3.17-.35-.8-.77-.57c-.76.43,1.82,3.85,2.07,4.17s-.2.47-.38.23-2.1-3.43-2.88-3c-.6.32,2.1,2.84,2.13,3.72S3.5,49.67,2.94,50c-.21.13-.35.25,1,1.81.64.76,3.43,4.41,3.43,4.41l.74,3.63,2.71-.7.88-6.1A7.25,7.25,0,0,0,11.69,51Z"/><path class="cls-14" d="M15.19,51.3,8.42,69.09a4.82,4.82,0,0,0,1.32,4.37l-.23-.26a4.07,4.07,0,0,0,3.32,1.08l.18,0a4,4,0,0,0,3.35-2.9l2.79-5.45,1-8.61Z"/><path class="cls-14" d="M7.29,58.52s.16,2.69.15,3.07A80.84,80.84,0,0,0,8.73,72.28l4-14.49C14.14,57.64,7.38,58.51,7.29,58.52Z"/><path class="cls-16" d="M13.74,55.67a4.26,4.26,0,0,0-.33.68l-.83,1.89c-.7,1.59-1.75,3.75-2.77,6.21-.5,1.23-.91,2.43-1.24,3.54a6.11,6.11,0,0,0-.24,3.06,4.58,4.58,0,0,0,.87,1.88,4.25,4.25,0,0,0,.38.41l.16.12s-.19-.19-.47-.59A4.46,4.46,0,0,1,8.49,71a6,6,0,0,1,.27-3c.35-1.09.76-2.29,1.26-3.52,1-2.44,2-4.62,2.7-6.23.34-.8.6-1.46.77-1.91A6.68,6.68,0,0,0,13.74,55.67Z"/><path class="cls-10" d="M53.49,50.76s2.17-3.24,2.22-3.27h0s2-3.29,2.61-3.29.41.66-.26,1.84a4.74,4.74,0,0,0-.65,1.68l1.61,1s1.07-.41,1.12.58A7.54,7.54,0,0,1,60,50.63c-.06.36-.22.74-.56.6a.43.43,0,0,1-.29-.4c0-.59.09-.81,0-.81S58,53.12,58,53.12Z"/><path class="cls-10" d="M57.86,48.21a3.35,3.35,0,0,1,.52-.3,1,1,0,0,1,.58-.09.51.51,0,0,1,.33.17.53.53,0,0,1,.06.49,1.39,1.39,0,0,1-.26.44"/><path class="cls-10" d="M57.13,47.56a3,3,0,0,1,.49-.29,1,1,0,0,1,.55-.09.46.46,0,0,1,.31.17.5.5,0,0,1,.06.46,3.81,3.81,0,0,1-.5.64"/><path class="cls-10" d="M54.25,48.93l-3.13,6.69,3.45,3.52,1.79-5s1,.19,1.36-.45a16.33,16.33,0,0,0,1-2.77Z"/><path class="cls-17" d="M56.48,48.75c.06,0,.22-.4.52-.82s.7-.63.67-.68a1.24,1.24,0,0,0-.83.56A1.57,1.57,0,0,0,56.48,48.75Z"/><path class="cls-17" d="M60,48.77s-.07-.12-.27-.19a1,1,0,0,0-.8.07,1.38,1.38,0,0,0-.53.6c-.09.18-.12.29-.1.31s.1-.09.21-.24a1.87,1.87,0,0,1,.51-.5,1.09,1.09,0,0,1,.68-.11C59.83,48.74,59.94,48.8,60,48.77Z"/><path class="cls-17" d="M58.79,47.83a1,1,0,0,0-.86.3,1.15,1.15,0,0,0-.45.78c.06,0,.23-.33.58-.64S58.8,47.89,58.79,47.83Z"/><path class="cls-17" d="M59.56,49.27c-.06,0-.07.21-.2.41s-.29.3-.28.35.28,0,.45-.25S59.61,49.26,59.56,49.27Z"/><path class="cls-10" d="M53.5,50.63s-.11-2,.37-2.45,1.87,0,1.87,0"/><path class="cls-17" d="M55.93,47.25a5.17,5.17,0,0,0-.86,1,4.45,4.45,0,0,0-.7,1.15,5.4,5.4,0,0,0,.86-1A4.49,4.49,0,0,0,55.93,47.25Z"/><path class="cls-14" d="M55.73,57.67l-4.58-3-2.89,5s-4-5.57-5.82-8.83a7.47,7.47,0,0,0-4.89-4,.46.46,0,0,0-.55.51l1.58,10.82a90,90,0,0,0,5.35,7.76c3.08,4,7.62,1.45,8.86-1.36C53.78,62.31,55.32,58.92,55.73,57.67Z"/><path class="cls-16" d="M49.54,64.29a2.11,2.11,0,0,0,0-.72,8.7,8.7,0,0,0-.17-1.74,4.74,4.74,0,0,0-.65-1.62c-.25-.38-.47-.56-.49-.54s.16.23.37.61a5.67,5.67,0,0,1,.58,1.59,14.09,14.09,0,0,1,.23,1.71A2.46,2.46,0,0,0,49.54,64.29Z"/><path class="cls-16" d="M51,62.05s0-.24,0-.62a2.79,2.79,0,0,0-.72-1.31,1.86,1.86,0,0,0-1.35-.67c-.41,0-.6.22-.58.23a2,2,0,0,1,.58-.1,1.91,1.91,0,0,1,1.21.67,3.15,3.15,0,0,1,.73,1.22C50.91,61.82,50.93,62.06,51,62.05Z"/><g class="cls-11"><path d="M27.77,42.34a7.22,7.22,0,0,0,2.69.81c2.78.27,4.6-.41,5.63-1.81a7.66,7.66,0,0,1-4.91.22A4,4,0,0,0,27.77,42.34Z"/></g><path class="cls-15" d="M33.07,31.12s4.43-5.38.26-9S25,23.23,25,23.23s-10,2.93-7.87,11,3.51,8.75.35,12.89S11.05,57.39,14.28,61.3s14.54-.11,18-6-2.63-18.61.82-24.15Z"/><path class="cls-10" d="M34,34c-.11-.84-1-2.15-2.24-1.79S30.16,36,33.56,36.33C34.05,36.38,34.26,35.78,34,34Z"/><path class="cls-18" d="M51.1,149.77H123c.47,0,.86.63.86,1.4v13.65c0,.77-.39,1.39-.86,1.39H51.1c-.48,0-.87-.62-.87-1.39V151.17C50.23,150.4,50.62,149.77,51.1,149.77Z"/><path class="cls-19" d="M76.06,159.39s0,0,.09.05l.27.27a2.24,2.24,0,0,1-.73.54,2.37,2.37,0,0,1-1,.18,2.2,2.2,0,0,1-1-.18,2.52,2.52,0,0,1-.72-.5,2,2,0,0,1-.46-.77,3.48,3.48,0,0,1-.18-1,2.52,2.52,0,0,1,.18-1,2.38,2.38,0,0,1,.5-.77,2.26,2.26,0,0,1,.77-.49,2.4,2.4,0,0,1,1-.18,1.88,1.88,0,0,1,.91.18,1.8,1.8,0,0,1,.68.45l-.23.31,0,.05h-.09s0,0-.09-.05-.09,0-.14-.09-.09,0-.14-.09a.34.34,0,0,0-.22-.09c-.09,0-.18,0-.28-.09s-.22,0-.36,0a1.93,1.93,0,0,0-.73.13,1.67,1.67,0,0,0-.54.37,2.46,2.46,0,0,0-.36.58,2.15,2.15,0,0,0-.14.77,2.38,2.38,0,0,0,.14.81,1.37,1.37,0,0,0,.36.59,1.2,1.2,0,0,0,.54.36,1.5,1.5,0,0,0,.64.13,1,1,0,0,0,.36,0,.71.71,0,0,0,.32-.09l.27-.14c.09,0,.19-.13.28-.18ZM78.55,157a1.87,1.87,0,0,1,.69.13,1.23,1.23,0,0,1,.49.36,1.58,1.58,0,0,1,.32.54,1.89,1.89,0,0,1,.14.72,1.94,1.94,0,0,1-.14.73,1.58,1.58,0,0,1-.32.54,2,2,0,0,1-.49.36,1.57,1.57,0,0,1-.69.13,1.68,1.68,0,0,1-.68-.13,1.33,1.33,0,0,1-.5-.36,1.74,1.74,0,0,1-.31-.54,1.94,1.94,0,0,1-.14-.73,1.89,1.89,0,0,1,.14-.72,1.74,1.74,0,0,1,.31-.54,2.28,2.28,0,0,1,.5-.36A1.53,1.53,0,0,1,78.55,157Zm0,3a1,1,0,0,0,.78-.31,1.51,1.51,0,0,0,.22-1,1.9,1.9,0,0,0-.22-.95.91.91,0,0,0-.78-.31,1.24,1.24,0,0,0-.45.09.56.56,0,0,0-.32.27.88.88,0,0,0-.18.4,2.12,2.12,0,0,0,0,.54,2.46,2.46,0,0,0,0,.54,1.65,1.65,0,0,0,.18.41.85.85,0,0,0,.32.23A1.57,1.57,0,0,0,78.55,159.93Zm2.37.45V157h.36c.09,0,.13.05.18.14l.05.36a2.18,2.18,0,0,1,.49-.41,1.5,1.5,0,0,1,.64-.13,1.54,1.54,0,0,1,.5.09.63.63,0,0,1,.36.27.9.9,0,0,1,.23.4,1.6,1.6,0,0,1,.09.54v2.17h-.59v-2.17a.73.73,0,0,0-.18-.58.68.68,0,0,0-.55-.23.94.94,0,0,0-.5.14,1.45,1.45,0,0,0-.4.36v2.48h-.68Zm4.72.05a1,1,0,0,1-.64-.23.91.91,0,0,1-.23-.63V157.5h-.36s0,0-.09-.05,0,0,0-.09v-.22l.55-.09.14-1s0,0,0-.09,0,0,.09,0h.32v1.18h1v.45h-1v2a.71.71,0,0,0,.09.31.29.29,0,0,0,.27.09.28.28,0,0,0,.18,0s.1,0,.14,0,0,0,.09,0a0,0,0,0,0,0-.05s0,0,.09.05l.18.27a1,1,0,0,1-.36.22A1.27,1.27,0,0,1,85.64,160.43ZM87.77,157v3.38h-.59V157Zm.14-1a.3.3,0,0,1,0,.18c0,.05,0,.09-.09.14s-.09,0-.14.09a1,1,0,0,1-.18,0,.39.39,0,0,1-.18,0s-.09-.05-.13-.09,0-.09-.1-.14a1,1,0,0,1,0-.18.3.3,0,0,1,0-.18s0-.09.1-.13a.21.21,0,0,1,.13-.09s.09-.05.18-.05a.3.3,0,0,1,.18.05.2.2,0,0,1,.14.09.21.21,0,0,1,.09.13C87.91,155.83,87.91,155.87,87.91,156Zm.91,4.42V157h.36c.09,0,.13.05.18.14l0,.36a2.18,2.18,0,0,1,.49-.41,1.5,1.5,0,0,1,.64-.13,1.54,1.54,0,0,1,.5.09.63.63,0,0,1,.36.27.9.9,0,0,1,.23.4,1.6,1.6,0,0,1,.09.54v2.17h-.59v-2.17a.73.73,0,0,0-.18-.58.68.68,0,0,0-.55-.23.94.94,0,0,0-.5.14,1.45,1.45,0,0,0-.4.36v2.48h-.68ZM93,157v2.16a.74.74,0,0,0,.18.59.75.75,0,0,0,.54.23,1,1,0,0,0,.5-.14,1,1,0,0,0,.41-.36V157h.59v3.38H94.9a.18.18,0,0,1-.18-.13l0-.36a2,2,0,0,1-.5.4,1.46,1.46,0,0,1-.63.14,1.79,1.79,0,0,1-.5-.09.76.76,0,0,1-.37-.27.84.84,0,0,1-.22-.41,1.51,1.51,0,0,1-.09-.54V157H93Zm5.72,3.38h-.27a.18.18,0,0,1-.14,0s0-.05-.09-.14l-.05-.31c-.09.09-.18.13-.27.22s-.18.14-.27.18a.61.61,0,0,1-.32.09c-.09,0-.23.05-.36.05a.83.83,0,0,1-.37-.05.69.69,0,0,1-.31-.18,1,1,0,0,1-.28-.67.69.69,0,0,1,.46-.68,2.19,2.19,0,0,1,.63-.23,6.41,6.41,0,0,1,1-.09v-.27a.76.76,0,0,0-.18-.58.57.57,0,0,0-.5-.18,1,1,0,0,0-.37,0l-.27.14a.56.56,0,0,0-.18.13.16.16,0,0,1-.14.05s-.09,0-.09-.05,0,0-.09-.09l-.09-.18a2.28,2.28,0,0,1,.59-.4,1.9,1.9,0,0,1,.73-.14,1.86,1.86,0,0,1,.5.09.78.78,0,0,1,.36.27.94.94,0,0,1,.23.41,1.71,1.71,0,0,1,.09.49v2.12ZM97.21,160a.66.66,0,0,0,.28,0,.34.34,0,0,0,.22-.09l.23-.14c.09,0,.14-.13.23-.18v-.72c-.27,0-.5,0-.68,0A2.89,2.89,0,0,0,97,159a.66.66,0,0,0-.27.18.58.58,0,0,0-.09.27.4.4,0,0,0,0,.23c.05,0,.05.13.14.18A.26.26,0,0,0,97,160,.51.51,0,0,0,97.21,160Zm2.46.36V157H100a.17.17,0,0,1,.14.05s0,0,0,.13l.05.54a3.15,3.15,0,0,1,.4-.54,1,1,0,0,1,.6-.18.52.52,0,0,1,.27.05c.09,0,.13,0,.22.09l-.09.45a.1.1,0,0,1-.09.09.15.15,0,0,1-.13-.05,2,2,0,0,0-.28,0,.62.62,0,0,0-.5.18,1.59,1.59,0,0,0-.36.54v2.16h-.63Z"/><g class="cls-20"><path class="cls-14" d="M124.94,31.19a12.81,12.81,0,0,1-1,5.07,23.71,23.71,0,0,1-2.71,4.7,38.79,38.79,0,0,1-3.76,4.34q-2.09,2.09-4.1,4c-.69.65-1.45,1.38-2.26,2.19s-1.59,1.64-2.33,2.47-1.4,1.61-2,2.33A5.76,5.76,0,0,0,105.68,58H126.4v8.69H94.28a11.5,11.5,0,0,1-.14-2V63.1A16.82,16.82,0,0,1,95.22,57,23.38,23.38,0,0,1,98,51.8,32.59,32.59,0,0,1,102,47.32l4.35-4.17,3.13-3A35.38,35.38,0,0,0,112,37.34a12.87,12.87,0,0,0,1.74-2.71,6.47,6.47,0,0,0,.62-2.75c0-2-.58-3.47-1.73-4.31a7.24,7.24,0,0,0-4.32-1.25,10.34,10.34,0,0,0-3.51.59,18.73,18.73,0,0,0-3,1.39,19.94,19.94,0,0,0-2.33,1.6c-.64.53-1.13,1-1.46,1.29L92.89,24a26.2,26.2,0,0,1,7.13-4.7,21,21,0,0,1,8.72-1.84,24.49,24.49,0,0,1,7.3,1,13.68,13.68,0,0,1,5,2.75A10.6,10.6,0,0,1,124,25.45,16.38,16.38,0,0,1,124.94,31.19Z"/></g></g></g></svg>