<svg width="116" height="69" viewBox="0 0 116 69" fill="none" xmlns="http://www.w3.org/2000/svg">
<g clip-path="url(#clip0_8687_94617)">
<path d="M13.9433 66.3815C7.087 66.3815 1.11868 61.4815 0.158377 54.7215C-0.88453 47.3315 4.44359 40.5215 12.0744 39.5115L100.133 27.8015C107.764 26.7815 114.796 31.9515 115.838 39.3415C116.881 46.7315 111.553 53.5415 103.923 54.5515L15.8639 66.2515C15.2237 66.3415 14.5835 66.3815 13.9433 66.3815Z" fill="#FFEB4C"/>
<path d="M24.9921 26.8714C24.7649 26.2114 24.5171 25.5414 24.259 24.8514C24.0008 24.1614 23.7324 23.4714 23.4742 22.7914L15.4407 23.9814C15.1826 24.7414 14.9244 25.5114 14.656 26.2814C14.3875 27.0514 14.15 27.7914 13.9228 28.5114L9.12134 29.2214C9.89577 26.9614 10.6289 24.8714 11.3207 22.9514C12.0126 21.0314 12.6941 19.2114 13.3549 17.5114C14.0158 15.8014 14.6766 14.1814 15.3168 12.6414C15.957 11.1014 16.6282 9.59143 17.3304 8.11143L21.7188 7.46143C22.39 8.74143 23.0612 10.0514 23.7117 11.4014C24.3726 12.7514 25.0334 14.1814 25.6943 15.6914C26.3551 17.2014 27.0366 18.8114 27.7388 20.5314C28.4306 22.2514 29.1637 24.1214 29.9382 26.1514L24.9921 26.8714ZM19.4265 12.3014C19.3232 12.6014 19.1684 13.0214 18.9722 13.5514C18.776 14.0814 18.5488 14.6814 18.2907 15.3814C18.0325 16.0714 17.7537 16.8314 17.4439 17.6614C17.1342 18.4914 16.8141 19.3614 16.4836 20.2714L22.359 19.4014C22.0493 18.5814 21.7395 17.8014 21.4504 17.0614C21.1509 16.3214 20.8721 15.6414 20.614 15.0314C20.3455 14.4214 20.1183 13.8814 19.9118 13.4114C19.7156 12.9314 19.5504 12.5614 19.4265 12.3014Z" fill="#084748"/>
<path d="M32.2925 25.7913V4.19132L36.7119 2.85132V10.0913C37.0114 9.95132 37.3934 9.80132 37.8581 9.65132C38.3228 9.50132 38.7668 9.38132 39.2004 9.31132C40.4705 9.12132 41.5238 9.13132 42.3602 9.35132C43.1965 9.57132 43.8677 9.94132 44.3737 10.4713C44.8797 11.0113 45.2307 11.6813 45.4372 12.5013C45.6438 13.3113 45.747 14.2313 45.747 15.2713V23.8013L41.3276 24.4513V16.4413C41.3276 15.0613 41.1417 14.1113 40.7803 13.5913C40.4189 13.0713 39.7374 12.8813 38.7461 13.0313C38.3537 13.0913 37.982 13.1813 37.6309 13.3013C37.2902 13.4213 36.9701 13.5413 36.7016 13.6513V25.1413L32.2925 25.7913Z" fill="#084748"/>
<path d="M64.3541 13.4613C64.3541 14.6513 64.1786 15.7613 63.8172 16.8013C63.4661 17.8413 62.9498 18.7613 62.2787 19.5613C61.6075 20.3613 60.8021 21.0213 59.8624 21.5413C58.9228 22.0613 57.8695 22.4113 56.7027 22.5813C55.5566 22.7513 54.5136 22.7113 53.574 22.4713C52.6344 22.2213 51.8289 21.8013 51.1578 21.2013C50.4866 20.6013 49.96 19.8413 49.5882 18.9113C49.2165 17.9813 49.0306 16.9213 49.0306 15.7313C49.0306 14.5413 49.2268 13.4313 49.6089 12.4013C49.9909 11.3713 50.5279 10.4513 51.2094 9.66132C51.8909 8.87132 52.7066 8.21132 53.6463 7.69132C54.5859 7.17132 55.6082 6.82132 56.713 6.66132C57.8386 6.49132 58.8711 6.53132 59.8108 6.78132C60.7504 7.02132 61.5559 7.44132 62.227 8.03132C62.8982 8.62132 63.4248 9.38132 63.7966 10.3013C64.1683 11.2213 64.3541 12.2813 64.3541 13.4613ZM59.8418 14.1313C59.8418 12.8113 59.5733 11.8113 59.026 11.1313C58.4788 10.4513 57.7043 10.1913 56.6924 10.3413C55.6805 10.4913 54.906 10.9813 54.3484 11.8213C53.7908 12.6613 53.5224 13.7413 53.5224 15.0613C53.5224 16.3813 53.8012 17.3913 54.3484 18.0813C54.906 18.7713 55.6805 19.0513 56.6924 18.9013C57.7043 18.7513 58.4788 18.2513 59.026 17.3913C59.5733 16.5413 59.8418 15.4513 59.8418 14.1313Z" fill="#084748"/>
<path d="M77.1685 7.83128C76.7761 7.79128 76.3114 7.76128 75.7745 7.73128C75.2376 7.70128 74.6696 7.74128 74.0501 7.83128C73.7713 7.87128 73.4409 7.94128 73.0588 8.05128C72.6768 8.16128 72.3773 8.25128 72.1811 8.34128V19.8913L67.7617 20.5413V6.24128C68.5567 5.86128 69.4861 5.46128 70.56 5.06128C71.6338 4.66128 72.842 4.36128 74.1637 4.17128C74.4012 4.13128 74.6903 4.11128 75.0207 4.09128C75.3615 4.07128 75.6919 4.06128 76.0326 4.06128C76.3734 4.06128 76.7038 4.07128 77.0446 4.08128C77.3853 4.10128 77.6641 4.14128 77.9016 4.20128L77.1685 7.83128Z" fill="#084748"/>
<path d="M89.6834 5.98142C89.291 5.94142 88.8263 5.91142 88.2894 5.88142C87.7524 5.85142 87.1845 5.89142 86.565 5.98142C86.2862 6.02142 85.9557 6.09142 85.5737 6.20142C85.1813 6.31142 84.8922 6.40142 84.696 6.49142V18.0414L80.2766 18.6914V4.38142C81.0716 4.00142 82.001 3.60142 83.0748 3.20142C84.1487 2.80142 85.3568 2.50142 86.6786 2.31142C86.916 2.27142 87.2052 2.25142 87.5356 2.23142C87.866 2.21142 88.2068 2.20142 88.5372 2.20142C88.878 2.20142 89.2084 2.21142 89.5491 2.22142C89.8796 2.24142 90.1687 2.28142 90.4062 2.34142L89.6834 5.98142Z" fill="#084748"/>
<path d="M98.1092 0.54135C99.4103 0.35135 100.505 0.33135 101.372 0.49135C102.24 0.65135 102.942 0.96135 103.468 1.42135C103.995 1.88135 104.367 2.47135 104.584 3.21135C104.8 3.94135 104.914 4.78135 104.914 5.72135V14.6314C104.274 14.8614 103.406 15.1514 102.271 15.5014C101.145 15.8514 99.782 16.1414 98.1815 16.3814C97.1696 16.5314 96.2609 16.5813 95.4348 16.5313C94.6191 16.4813 93.9066 16.3014 93.318 16.0014C92.7191 15.7014 92.2648 15.2514 91.955 14.6714C91.6453 14.0914 91.48 13.3314 91.48 12.4114C91.48 11.5314 91.6659 10.7514 92.0273 10.0914C92.3887 9.43135 92.8637 8.83135 93.4833 8.38135C94.0925 7.93135 94.7946 7.56135 95.5897 7.28135C96.3848 7.00135 97.2005 6.80135 98.0473 6.67135C98.6152 6.59135 99.1315 6.53135 99.5755 6.52135C100.019 6.50135 100.381 6.51135 100.66 6.55135V6.15135C100.66 5.42135 100.433 4.87135 99.9782 4.50135C99.5239 4.13135 98.7288 4.02135 97.6033 4.19135C96.8495 4.30135 96.106 4.46135 95.3832 4.68135C94.6604 4.90135 94.0202 5.14135 93.4833 5.41135L92.9257 2.05135C93.1838 1.94135 93.5039 1.81135 93.886 1.66135C94.268 1.52135 94.6914 1.38135 95.1457 1.24135C95.6 1.11135 96.0854 0.98135 96.581 0.85135C97.087 0.71135 97.5929 0.62135 98.1092 0.54135ZM98.4603 13.0114C98.894 12.9514 99.307 12.8714 99.7097 12.8014C100.102 12.7214 100.422 12.6514 100.66 12.5714V9.32135C100.484 9.31135 100.216 9.31135 99.8543 9.32135C99.5032 9.33135 99.1728 9.36135 98.8733 9.41135C98.4603 9.47135 98.0679 9.55135 97.7065 9.66135C97.3348 9.76135 97.0147 9.90135 96.7462 10.0814C96.4674 10.2514 96.2506 10.4714 96.0957 10.7214C95.9408 10.9714 95.8582 11.2713 95.8582 11.6214C95.8582 12.2914 96.0854 12.7214 96.55 12.9114C97.0147 13.1013 97.6549 13.1314 98.4603 13.0114Z" fill="#084748"/>
<path d="M22.1525 45.9814C21.2645 49.0214 20.3249 51.8914 19.3542 54.5814C18.3836 57.2714 17.32 59.9014 16.1739 62.4614C15.7608 63.3814 15.3375 64.1814 14.9245 64.8414C14.5114 65.5114 14.0571 66.0715 13.5614 66.5415C13.0658 67.0114 12.5082 67.3714 11.8783 67.6514C11.2485 67.9314 10.5257 68.1215 9.68926 68.2514C8.99743 68.3514 8.35723 68.3814 7.76866 68.3514C7.19042 68.3114 6.7051 68.2414 6.33337 68.1514L7.10781 64.6214C7.56215 64.7014 7.96485 64.7514 8.32626 64.7514C8.67733 64.7514 9.05939 64.7314 9.45177 64.6714C10.2469 64.5514 10.8561 64.2614 11.2794 63.7814C11.7028 63.3014 12.0642 62.6814 12.3636 61.9114C11.3517 60.1414 10.3398 58.1414 9.33819 55.9114C8.32626 53.6814 7.37628 51.1414 6.48826 48.3014L11.1762 47.6114C11.3724 48.3314 11.6099 49.1014 11.8783 49.9314C12.1468 50.7614 12.4256 51.6014 12.7251 52.4514C13.0245 53.3014 13.324 54.1214 13.6337 54.9114C13.9435 55.7114 14.2326 56.4314 14.5114 57.0814C14.7696 56.3514 15.038 55.5514 15.3168 54.6614C15.5956 53.7814 15.8641 52.8714 16.1326 51.9414C16.401 51.0114 16.6592 50.0914 16.907 49.1814C17.1548 48.2714 17.382 47.4314 17.5782 46.6514L22.1525 45.9814Z" fill="#084748"/>
<path d="M41.0281 46.9814C40.6357 46.9414 40.171 46.9114 39.6341 46.8914C39.0972 46.8614 38.5292 46.9014 37.92 46.9914C37.6412 47.0314 37.3108 47.1014 36.9287 47.2114C36.5364 47.3114 36.2472 47.4114 36.051 47.5014V59.0514L31.6316 59.7014V45.3814C32.4267 45.0014 33.356 44.6014 34.4299 44.2014C35.5038 43.8014 36.7119 43.5014 38.0336 43.3114C38.2711 43.2714 38.5602 43.2514 38.8906 43.2314C39.2211 43.2114 39.5618 43.2014 39.9026 43.2014C40.233 43.2014 40.5737 43.2114 40.9145 43.2214C41.2449 43.2414 41.534 43.2814 41.7715 43.3414L41.0281 46.9814Z" fill="#084748"/>
<path d="M43.1036 50.5513C43.1036 49.2113 43.3204 48.0113 43.7438 46.9413C44.1671 45.8713 44.7247 44.9513 45.4166 44.1813C46.1084 43.4113 46.9035 42.7813 47.8018 42.3013C48.7002 41.8213 49.6295 41.5113 50.5795 41.3713C52.7892 41.0413 54.5446 41.4413 55.825 42.5613C57.1054 43.6813 57.7559 45.5213 57.7559 48.0613C57.7559 48.3113 57.7456 48.5813 57.7249 48.8813C57.7043 49.1813 57.6836 49.4513 57.663 49.6813L47.6366 51.1613C47.7295 52.0313 48.1632 52.6613 48.9067 53.0713C49.6605 53.4813 50.6724 53.5913 51.9321 53.4013C52.7479 53.2813 53.543 53.0913 54.3174 52.8313C55.1022 52.5713 55.732 52.3013 56.2277 52.0213L56.8163 55.4113C56.5788 55.5613 56.2587 55.7213 55.8663 55.9013C55.4739 56.0813 55.0299 56.2413 54.5446 56.4013C54.0593 56.5613 53.543 56.7113 52.9854 56.8513C52.4278 56.9913 51.8805 57.1013 51.3229 57.1813C49.9186 57.3913 48.7002 57.3713 47.6573 57.1213C46.6144 56.8713 45.7573 56.4513 45.0758 55.8513C44.3943 55.2513 43.8883 54.5013 43.5682 53.5913C43.2585 52.6713 43.1036 51.6613 43.1036 50.5513ZM53.481 47.3813C53.4604 47.0213 53.3984 46.6713 53.2848 46.3413C53.1712 46.0113 53.006 45.7313 52.7789 45.5013C52.5517 45.2713 52.2626 45.0913 51.9218 44.9713C51.5707 44.8513 51.1474 44.8313 50.6311 44.9013C50.1355 44.9713 49.7121 45.1213 49.361 45.3313C48.9996 45.5513 48.7105 45.8013 48.473 46.1113C48.2355 46.4113 48.0496 46.7513 47.9257 47.1213C47.7915 47.4913 47.7089 47.8713 47.6469 48.2413L53.481 47.3813Z" fill="#084748"/>
<path d="M61.0189 36.4713L65.4384 35.1313V39.5813L70.7458 38.7913V42.3513L65.4384 43.1413V48.4513C65.4384 49.3513 65.6036 50.0413 65.9237 50.5313C66.2438 51.0213 66.9046 51.1913 67.8959 51.0413C68.3709 50.9713 68.8562 50.8513 69.3622 50.6913C69.8681 50.5313 70.3225 50.3413 70.7458 50.1313L71.3654 53.3713C70.8284 53.6614 70.2399 53.9313 69.5893 54.1813C68.9388 54.4313 68.1334 54.6313 67.1834 54.7613C65.9753 54.9413 64.9737 54.9313 64.1889 54.7313C63.4042 54.5313 62.764 54.1813 62.289 53.6913C61.814 53.1913 61.4836 52.5613 61.2977 51.7813C61.1119 51.0013 61.0189 50.1313 61.0189 49.1513V36.4713Z" fill="#084748"/>
<path d="M79.1717 33.1713C79.1717 33.9613 78.9135 34.6113 78.3869 35.1413C77.8603 35.6713 77.2408 35.9913 76.5386 36.0913C75.8261 36.2013 75.2066 36.0613 74.68 35.6913C74.1534 35.3213 73.8952 34.7413 73.8952 33.9513C73.8952 33.1613 74.1534 32.5113 74.68 31.9813C75.2066 31.4513 75.8261 31.1413 76.5386 31.0313C77.2511 30.9313 77.8706 31.0613 78.3869 31.4313C78.9032 31.8113 79.1717 32.3913 79.1717 33.1713ZM78.7587 52.7113L74.3392 53.3613V38.2613L78.7587 37.6113V52.7113Z" fill="#084748"/>
<path d="M92.3061 39.3913C91.9137 39.3513 91.4491 39.3213 90.9121 39.2913C90.3752 39.2613 89.8073 39.3013 89.198 39.3913C88.9192 39.4313 88.5888 39.5013 88.2068 39.6113C87.8247 39.7113 87.5253 39.8113 87.3291 39.9013V51.4513L82.9096 52.1013V37.7913C83.7047 37.4113 84.634 37.0113 85.7079 36.6113C86.7818 36.2113 87.9899 35.9113 89.3116 35.7213C89.5491 35.6813 89.8382 35.6613 90.1687 35.6413C90.5094 35.6213 90.8398 35.6113 91.1806 35.6113C91.511 35.6113 91.8518 35.6213 92.1925 35.6313C92.5333 35.6513 92.8121 35.6913 93.0496 35.7513L92.3061 39.3913Z" fill="#084748"/>
<path d="M100.732 33.9513C102.033 33.7613 103.128 33.7413 103.995 33.9013C104.862 34.0613 105.564 34.3713 106.081 34.8313C106.607 35.2913 106.979 35.8813 107.196 36.6213C107.413 37.3613 107.526 38.1913 107.526 39.1313V48.0413C106.896 48.2713 106.019 48.5613 104.883 48.9013C103.747 49.2413 102.394 49.5413 100.794 49.7813C99.782 49.9313 98.8733 49.9813 98.0473 49.9313C97.2315 49.8813 96.519 49.7013 95.9305 49.4013C95.3419 49.0913 94.8876 48.6513 94.5675 48.0613C94.2474 47.4713 94.0925 46.7213 94.0925 45.8013C94.0925 44.9213 94.2783 44.1513 94.6397 43.4813C95.0115 42.8113 95.4968 42.2513 96.106 41.8013C96.7152 41.3513 97.4174 40.9813 98.2125 40.7013C99.0076 40.4213 99.8233 40.2213 100.67 40.0913C101.238 40.0113 101.754 39.9513 102.198 39.9413C102.642 39.9213 103.004 39.9313 103.282 39.9713V39.5713C103.282 38.8413 103.055 38.2913 102.601 37.9213C102.147 37.5513 101.352 37.4413 100.226 37.6113C99.4722 37.7213 98.7288 37.8813 98.006 38.1013C97.2728 38.3113 96.6429 38.5613 96.106 38.8313L95.5484 35.4713C95.8066 35.3613 96.1267 35.2313 96.5087 35.0813C96.8908 34.9413 97.3141 34.8013 97.7685 34.6613C98.2228 34.5313 98.6978 34.4013 99.2038 34.2713C99.7097 34.1213 100.216 34.0213 100.732 33.9513ZM101.083 46.4213C101.517 46.3613 101.93 46.2813 102.332 46.2113C102.735 46.1413 103.045 46.0613 103.282 45.9813V42.7313C103.107 42.7213 102.838 42.7213 102.477 42.7313C102.116 42.7413 101.796 42.7713 101.496 42.8213C101.083 42.8813 100.691 42.9613 100.329 43.0713C99.9679 43.1813 99.6478 43.3113 99.369 43.4913C99.0902 43.6613 98.8733 43.8813 98.7184 44.1313C98.5635 44.3813 98.4809 44.6813 98.4809 45.0313C98.4809 45.7013 98.7081 46.1313 99.1831 46.3213C99.6374 46.5013 100.278 46.5413 101.083 46.4213Z" fill="#084748"/>
</g>
<defs>
<clipPath id="clip0_8687_94617">
<rect width="115.938" height="67.98" fill="white" transform="translate(0.024292 0.381348)"/>
</clipPath>
</defs>
</svg>
