<svg width="245" height="91" viewBox="0 0 245 92" fill="none" xmlns="http://www.w3.org/2000/svg">
<g filter="url(#filter0_d_1327_32881)">
<rect x="9" y="4.68921" width="227" height="74" rx="7.5" fill="#1A1A1A" stroke="#EEEEEE"/>
<path d="M90.5592 32.4437V22.4377H94.4758C95.1905 22.4377 95.8338 22.5569 96.4055 22.7951C96.9868 23.0333 97.4824 23.3764 97.8921 23.8243C98.3019 24.2722 98.6164 24.8011 98.8355 25.4109C99.0547 26.0208 99.1643 26.6974 99.1643 27.4407C99.1643 28.184 99.0547 28.8654 98.8355 29.4848C98.6164 30.0947 98.3019 30.6236 97.8921 31.0715C97.4919 31.5098 97.0011 31.8481 96.4198 32.0864C95.8385 32.3246 95.1905 32.4437 94.4758 32.4437H90.5592ZM92.1029 31.1144L92.0601 30.9571H94.4043C94.9094 30.9571 95.3573 30.8761 95.748 30.7141C96.1482 30.5521 96.4818 30.3234 96.7486 30.028C97.0249 29.723 97.2346 29.3514 97.3775 28.913C97.5205 28.4747 97.5919 27.9839 97.5919 27.4407C97.5919 26.8975 97.5205 26.4115 97.3775 25.9827C97.2346 25.5444 97.0249 25.1727 96.7486 24.8678C96.4722 24.5628 96.1387 24.3293 95.748 24.1673C95.3573 24.0053 94.9094 23.9243 94.4043 23.9243H92.0172L92.1029 23.7957V31.1144ZM101.123 32.4437V24.9392H102.596V32.4437H101.123ZM101.838 23.2811C101.524 23.2811 101.281 23.2001 101.109 23.0381C100.937 22.8761 100.852 22.6474 100.852 22.352C100.852 22.0756 100.937 21.8517 101.109 21.6801C101.29 21.5086 101.533 21.4228 101.838 21.4228C102.152 21.4228 102.395 21.5038 102.567 21.6658C102.739 21.8278 102.824 22.0566 102.824 22.352C102.824 22.6283 102.734 22.8523 102.553 23.0238C102.381 23.1953 102.143 23.2811 101.838 23.2811ZM107.36 32.5867C106.731 32.5867 106.164 32.4771 105.659 32.2579C105.154 32.0387 104.735 31.7147 104.401 31.2859L105.402 30.4282C105.688 30.7618 105.997 31.0048 106.331 31.1572C106.674 31.3002 107.06 31.3717 107.489 31.3717C107.66 31.3717 107.818 31.3526 107.961 31.3145C108.113 31.2668 108.242 31.2001 108.346 31.1144C108.461 31.0286 108.547 30.9285 108.604 30.8142C108.661 30.6903 108.69 30.5569 108.69 30.4139C108.69 30.1662 108.599 29.9661 108.418 29.8136C108.323 29.7469 108.17 29.6754 107.961 29.5992C107.76 29.5134 107.498 29.4276 107.174 29.3419C106.622 29.1989 106.169 29.0369 105.816 28.8559C105.464 28.6748 105.192 28.4699 105.002 28.2412C104.859 28.0601 104.754 27.8648 104.687 27.6551C104.62 27.436 104.587 27.1977 104.587 26.9404C104.587 26.626 104.654 26.3401 104.787 26.0828C104.93 25.8159 105.121 25.5872 105.359 25.3966C105.607 25.1965 105.893 25.0441 106.217 24.9392C106.55 24.8344 106.903 24.782 107.274 24.782C107.627 24.782 107.975 24.8296 108.318 24.9249C108.67 25.0202 108.994 25.1584 109.29 25.3395C109.585 25.5205 109.833 25.7349 110.033 25.9827L109.19 26.9118C109.009 26.7308 108.809 26.5735 108.589 26.4401C108.38 26.2972 108.165 26.1876 107.946 26.1114C107.727 26.0351 107.527 25.997 107.346 25.997C107.146 25.997 106.965 26.0161 106.803 26.0542C106.641 26.0923 106.503 26.1495 106.388 26.2257C106.283 26.302 106.202 26.3972 106.145 26.5116C106.088 26.626 106.059 26.7546 106.059 26.8975C106.069 27.0214 106.098 27.1406 106.145 27.2549C106.202 27.3597 106.279 27.4503 106.374 27.5265C106.479 27.6027 106.636 27.6837 106.846 27.7695C107.055 27.8553 107.322 27.9363 107.646 28.0125C108.123 28.1364 108.513 28.2746 108.818 28.427C109.133 28.57 109.38 28.7367 109.562 28.9273C109.752 29.1084 109.886 29.318 109.962 29.5563C110.038 29.7945 110.076 30.0613 110.076 30.3568C110.076 30.7856 109.952 31.1715 109.704 31.5146C109.466 31.8481 109.142 32.1102 108.732 32.3008C108.323 32.4914 107.865 32.5867 107.36 32.5867ZM111.699 35.5885V24.9392H113.185V26.6545L112.957 26.5259C113.014 26.24 113.176 25.9684 113.443 25.7111C113.709 25.4443 114.033 25.2299 114.415 25.0679C114.805 24.8963 115.206 24.8106 115.615 24.8106C116.292 24.8106 116.892 24.9774 117.416 25.3109C117.941 25.6444 118.355 26.1018 118.66 26.6831C118.965 27.2644 119.117 27.9315 119.117 28.6843C119.117 29.4276 118.965 30.0947 118.66 30.6855C118.365 31.2668 117.955 31.729 117.431 32.0721C116.907 32.4056 116.316 32.5724 115.658 32.5724C115.22 32.5724 114.796 32.4866 114.386 32.3151C113.976 32.134 113.628 31.9053 113.343 31.629C113.057 31.3526 112.88 31.0667 112.814 30.7713L113.185 30.5712V35.5885H111.699ZM115.415 31.2144C115.854 31.2144 116.244 31.1048 116.587 30.8856C116.93 30.6665 117.202 30.3663 117.402 29.9851C117.602 29.6039 117.702 29.1703 117.702 28.6843C117.702 28.1983 117.602 27.7695 117.402 27.3978C117.212 27.0167 116.945 26.7165 116.602 26.4973C116.259 26.2781 115.863 26.1685 115.415 26.1685C114.967 26.1685 114.572 26.2781 114.229 26.4973C113.886 26.707 113.614 27.0024 113.414 27.3836C113.214 27.7647 113.114 28.1983 113.114 28.6843C113.114 29.1703 113.214 29.6039 113.414 29.9851C113.614 30.3663 113.886 30.6665 114.229 30.8856C114.572 31.1048 114.967 31.2144 115.415 31.2144ZM124.09 32.5867C123.356 32.5867 122.699 32.4199 122.117 32.0864C121.545 31.7433 121.093 31.2811 120.759 30.6998C120.426 30.109 120.259 29.4372 120.259 28.6843C120.259 27.9315 120.426 27.2644 120.759 26.6831C121.093 26.0923 121.545 25.6301 122.117 25.2966C122.699 24.9535 123.356 24.782 124.09 24.782C124.814 24.782 125.462 24.9535 126.034 25.2966C126.615 25.6301 127.073 26.0923 127.406 26.6831C127.74 27.2644 127.906 27.9315 127.906 28.6843C127.906 29.4372 127.74 30.109 127.406 30.6998C127.073 31.2811 126.615 31.7433 126.034 32.0864C125.462 32.4199 124.814 32.5867 124.09 32.5867ZM124.09 31.243C124.538 31.243 124.938 31.1334 125.291 30.9142C125.643 30.6855 125.92 30.3806 126.12 29.9994C126.32 29.6087 126.415 29.1703 126.406 28.6843C126.415 28.1888 126.32 27.7504 126.12 27.3693C125.92 26.9785 125.643 26.6736 125.291 26.4544C124.938 26.2352 124.538 26.1257 124.09 26.1257C123.642 26.1257 123.237 26.24 122.875 26.4687C122.522 26.6879 122.246 26.9928 122.046 27.3836C121.846 27.7647 121.75 28.1983 121.76 28.6843C121.75 29.1703 121.846 29.6087 122.046 29.9994C122.246 30.3806 122.522 30.6855 122.875 30.9142C123.237 31.1334 123.642 31.243 124.09 31.243ZM129.511 32.4437V24.9392H130.983V26.483L130.726 26.6545C130.821 26.321 131.007 26.0161 131.283 25.7397C131.56 25.4538 131.888 25.2251 132.27 25.0536C132.651 24.8725 133.041 24.782 133.442 24.782C134.013 24.782 134.49 24.8963 134.871 25.1251C135.252 25.3442 135.538 25.6825 135.729 26.14C135.919 26.5974 136.015 27.1739 136.015 27.8696V32.4437H134.542V27.9696C134.542 27.5408 134.485 27.1882 134.371 26.9118C134.256 26.626 134.08 26.4211 133.842 26.2972C133.604 26.1638 133.308 26.1066 132.956 26.1257C132.67 26.1257 132.408 26.1733 132.169 26.2686C131.931 26.3544 131.722 26.4782 131.541 26.6403C131.369 26.8023 131.231 26.9928 131.126 27.212C131.031 27.4217 130.983 27.6504 130.983 27.8981V32.4437H130.254C130.13 32.4437 130.006 32.4437 129.882 32.4437C129.758 32.4437 129.635 32.4437 129.511 32.4437ZM138.255 32.4437V24.9392H139.727V32.4437H138.255ZM138.97 23.2811C138.655 23.2811 138.412 23.2001 138.241 23.0381C138.069 22.8761 137.983 22.6474 137.983 22.352C137.983 22.0756 138.069 21.8517 138.241 21.6801C138.422 21.5086 138.665 21.4228 138.97 21.4228C139.284 21.4228 139.527 21.5038 139.699 21.6658C139.87 21.8278 139.956 22.0566 139.956 22.352C139.956 22.6283 139.865 22.8523 139.684 23.0238C139.513 23.1953 139.275 23.2811 138.97 23.2811ZM145.936 32.5867C145.612 32.5867 145.288 32.5343 144.964 32.4294C144.649 32.3246 144.358 32.1864 144.092 32.0149C143.834 31.8338 143.615 31.6385 143.434 31.4288C143.262 31.2097 143.148 30.9905 143.091 30.7713L143.463 30.5712V32.4008H141.99V21.866H143.463V26.6545L143.234 26.5259C143.282 26.3067 143.386 26.0971 143.548 25.8969C143.71 25.6873 143.915 25.5015 144.163 25.3395C144.42 25.1679 144.697 25.0345 144.992 24.9392C145.288 24.8344 145.588 24.782 145.893 24.782C146.569 24.782 147.17 24.9488 147.694 25.2823C148.218 25.6158 148.632 26.078 148.937 26.6688C149.242 27.2501 149.395 27.9172 149.395 28.67C149.395 29.4229 149.242 30.0947 148.937 30.6855C148.642 31.2764 148.232 31.7433 147.708 32.0864C147.184 32.4199 146.593 32.5867 145.936 32.5867ZM145.693 31.243C146.131 31.243 146.522 31.1334 146.865 30.9142C147.208 30.6855 147.479 30.3806 147.679 29.9994C147.88 29.6087 147.98 29.1656 147.98 28.67C147.98 28.184 147.88 27.7504 147.679 27.3693C147.489 26.9785 147.222 26.6736 146.879 26.4544C146.536 26.2352 146.14 26.1257 145.693 26.1257C145.245 26.1257 144.849 26.2352 144.506 26.4544C144.163 26.6736 143.891 26.9785 143.691 27.3693C143.491 27.7504 143.391 28.184 143.391 28.67C143.391 29.1656 143.491 29.6087 143.691 29.9994C143.891 30.3806 144.163 30.6855 144.506 30.9142C144.849 31.1334 145.245 31.243 145.693 31.243ZM151.023 32.4437V21.866H152.495V32.4437H151.023ZM157.944 32.5867C157.172 32.5867 156.486 32.4247 155.886 32.1007C155.295 31.7671 154.828 31.3145 154.485 30.7427C154.151 30.1709 153.985 29.5134 153.985 28.7701C153.985 28.1793 154.08 27.6408 154.27 27.1548C154.461 26.6688 154.723 26.2495 155.057 25.8969C155.4 25.5348 155.805 25.2585 156.272 25.0679C156.748 24.8678 157.263 24.7677 157.815 24.7677C158.301 24.7677 158.754 24.863 159.173 25.0536C159.593 25.2346 159.955 25.4872 160.26 25.8112C160.574 26.1352 160.812 26.5211 160.974 26.969C161.146 27.4074 161.227 27.8886 161.217 28.4127L161.203 29.0417H155.071L154.742 27.8696H159.931L159.717 28.1126V27.7695C159.688 27.455 159.583 27.1739 159.402 26.9261C159.221 26.6784 158.992 26.483 158.716 26.3401C158.44 26.1971 158.139 26.1257 157.815 26.1257C157.301 26.1257 156.867 26.2257 156.515 26.4258C156.162 26.6164 155.895 26.9023 155.714 27.2835C155.533 27.6551 155.443 28.1173 155.443 28.67C155.443 29.1942 155.552 29.6516 155.771 30.0423C155.99 30.4235 156.3 30.7189 156.7 30.9285C157.101 31.1382 157.563 31.243 158.087 31.243C158.459 31.243 158.802 31.1811 159.116 31.0572C159.44 30.9333 159.788 30.7094 160.16 30.3854L160.903 31.4288C160.674 31.6575 160.393 31.8577 160.06 32.0292C159.736 32.2007 159.388 32.3389 159.016 32.4437C158.654 32.539 158.297 32.5867 157.944 32.5867ZM170.326 32.5867C169.554 32.5867 168.868 32.4247 168.268 32.1007C167.677 31.7671 167.21 31.3145 166.867 30.7427C166.533 30.1709 166.366 29.5134 166.366 28.7701C166.366 28.1793 166.462 27.6408 166.652 27.1548C166.843 26.6688 167.105 26.2495 167.438 25.8969C167.782 25.5348 168.187 25.2585 168.653 25.0679C169.13 24.8678 169.645 24.7677 170.197 24.7677C170.683 24.7677 171.136 24.863 171.555 25.0536C171.974 25.2346 172.337 25.4872 172.642 25.8112C172.956 26.1352 173.194 26.5211 173.356 26.969C173.528 27.4074 173.609 27.8886 173.599 28.4127L173.585 29.0417H167.453L167.124 27.8696H172.313L172.098 28.1126V27.7695C172.07 27.455 171.965 27.1739 171.784 26.9261C171.603 26.6784 171.374 26.483 171.098 26.3401C170.821 26.1971 170.521 26.1257 170.197 26.1257C169.683 26.1257 169.249 26.2257 168.896 26.4258C168.544 26.6164 168.277 26.9023 168.096 27.2835C167.915 27.6551 167.824 28.1173 167.824 28.67C167.824 29.1942 167.934 29.6516 168.153 30.0423C168.372 30.4235 168.682 30.7189 169.082 30.9285C169.483 31.1382 169.945 31.243 170.469 31.243C170.84 31.243 171.184 31.1811 171.498 31.0572C171.822 30.9333 172.17 30.7094 172.542 30.3854L173.285 31.4288C173.056 31.6575 172.775 31.8577 172.441 32.0292C172.117 32.2007 171.77 32.3389 171.398 32.4437C171.036 32.539 170.678 32.5867 170.326 32.5867ZM175.199 32.4437V24.9392H176.672V26.483L176.414 26.6545C176.51 26.321 176.695 26.0161 176.972 25.7397C177.248 25.4538 177.577 25.2251 177.958 25.0536C178.339 24.8725 178.73 24.782 179.13 24.782C179.702 24.782 180.179 24.8963 180.56 25.1251C180.941 25.3442 181.227 25.6825 181.417 26.14C181.608 26.5974 181.703 27.1739 181.703 27.8696V32.4437H180.231V27.9696C180.231 27.5408 180.174 27.1882 180.059 26.9118C179.945 26.626 179.769 26.4211 179.531 26.2972C179.292 26.1638 178.997 26.1066 178.644 26.1257C178.358 26.1257 178.096 26.1733 177.858 26.2686C177.62 26.3544 177.41 26.4782 177.229 26.6403C177.058 26.8023 176.919 26.9928 176.815 27.212C176.719 27.4217 176.672 27.6504 176.672 27.8981V32.4437H175.943C175.819 32.4437 175.695 32.4437 175.571 32.4437C175.447 32.4437 175.323 32.4437 175.199 32.4437Z" fill="#EEEEEE"/>
<path d="M89.7012 58.3079L95.5857 43.1079H97.9743L103.815 58.3079H101.318L97.844 49.1445C97.8006 49.0431 97.7137 48.797 97.5834 48.4062C97.4676 48.0153 97.3301 47.5811 97.1709 47.1033C97.0116 46.6256 96.8669 46.1913 96.7366 45.8005C96.6063 45.3952 96.5194 45.1346 96.476 45.0188L96.9754 44.9971C96.8886 45.2432 96.78 45.5544 96.6497 45.9308C96.5339 46.3072 96.4036 46.7053 96.2589 47.1251C96.1286 47.5449 95.9983 47.943 95.868 48.3193C95.7377 48.6812 95.6292 48.9852 95.5423 49.2313L92.0897 58.3079H89.7012ZM92.3069 54.5296L93.1754 52.2713H100.081L101.079 54.5296H92.3069ZM105.926 63.085V46.9079H108.184V49.5136L107.837 49.3182C107.924 48.8839 108.17 48.4713 108.575 48.0805C108.98 47.6752 109.473 47.3494 110.052 47.1033C110.645 46.8428 111.253 46.7125 111.876 46.7125C112.903 46.7125 113.815 46.9658 114.612 47.4725C115.408 47.9791 116.037 48.674 116.501 49.557C116.964 50.4401 117.196 51.4534 117.196 52.597C117.196 53.7262 116.964 54.7395 116.501 55.637C116.052 56.5201 115.429 57.2222 114.633 57.7433C113.837 58.25 112.94 58.5033 111.941 58.5033C111.275 58.5033 110.631 58.373 110.008 58.1124C109.386 57.8374 108.857 57.49 108.423 57.0702C107.989 56.6503 107.721 56.2161 107.62 55.7673L108.184 55.4633V63.085H105.926ZM111.572 56.4404C112.238 56.4404 112.831 56.274 113.352 55.941C113.873 55.6081 114.286 55.1521 114.59 54.573C114.894 53.994 115.046 53.3353 115.046 52.597C115.046 51.8587 114.894 51.2073 114.59 50.6428C114.3 50.0637 113.895 49.6077 113.374 49.2748C112.853 48.9418 112.252 48.7753 111.572 48.7753C110.891 48.7753 110.29 48.9418 109.769 49.2748C109.248 49.5932 108.836 50.042 108.532 50.621C108.228 51.2001 108.076 51.8587 108.076 52.597C108.076 53.3353 108.228 53.994 108.532 54.573C108.836 55.1521 109.248 55.6081 109.769 55.941C110.29 56.274 110.891 56.4404 111.572 56.4404ZM119.625 63.085V46.9079H121.883V49.5136L121.535 49.3182C121.622 48.8839 121.868 48.4713 122.274 48.0805C122.679 47.6752 123.171 47.3494 123.75 47.1033C124.344 46.8428 124.952 46.7125 125.574 46.7125C126.602 46.7125 127.514 46.9658 128.31 47.4725C129.106 47.9791 129.736 48.674 130.199 49.557C130.663 50.4401 130.894 51.4534 130.894 52.597C130.894 53.7262 130.663 54.7395 130.199 55.637C129.751 56.5201 129.128 57.2222 128.332 57.7433C127.536 58.25 126.638 58.5033 125.639 58.5033C124.973 58.5033 124.329 58.373 123.707 58.1124C123.084 57.8374 122.556 57.49 122.122 57.0702C121.687 56.6503 121.42 56.2161 121.318 55.7673L121.883 55.4633V63.085H119.625ZM125.27 56.4404C125.936 56.4404 126.53 56.274 127.051 55.941C127.572 55.6081 127.984 55.1521 128.288 54.573C128.592 53.994 128.744 53.3353 128.744 52.597C128.744 51.8587 128.592 51.2073 128.288 50.6428C127.999 50.0637 127.594 49.6077 127.072 49.2748C126.551 48.9418 125.951 48.7753 125.27 48.7753C124.59 48.7753 123.989 48.9418 123.468 49.2748C122.947 49.5932 122.534 50.042 122.23 50.621C121.926 51.2001 121.774 51.8587 121.774 52.597C121.774 53.3353 121.926 53.994 122.23 54.573C122.534 55.1521 122.947 55.6081 123.468 55.941C123.989 56.274 124.59 56.4404 125.27 56.4404ZM133.367 58.3079V42.2394H135.603V58.3079H133.367ZM143.881 58.525C142.708 58.525 141.666 58.2789 140.754 57.7867C139.856 57.2801 139.147 56.5924 138.626 55.7239C138.119 54.8553 137.866 53.8565 137.866 52.7273C137.866 51.8298 138.011 51.0119 138.3 50.2736C138.59 49.5353 138.988 48.8984 139.495 48.3628C140.016 47.8127 140.631 47.3929 141.34 47.1033C142.064 46.7993 142.846 46.6473 143.685 46.6473C144.424 46.6473 145.111 46.7921 145.748 47.0816C146.385 47.3567 146.935 47.7403 147.398 48.2325C147.876 48.7247 148.238 49.311 148.484 49.9913C148.745 50.6572 148.868 51.3883 148.853 52.1845L148.832 53.1399H139.516L139.017 51.3593H146.899L146.573 51.7285V51.2073C146.53 50.7296 146.371 50.3026 146.096 49.9262C145.821 49.5498 145.473 49.253 145.053 49.0359C144.634 48.8188 144.178 48.7102 143.685 48.7102C142.904 48.7102 142.245 48.8622 141.709 49.1662C141.174 49.4557 140.768 49.89 140.493 50.469C140.218 51.0336 140.081 51.7357 140.081 52.5753C140.081 53.3715 140.247 54.0664 140.58 54.6599C140.913 55.2389 141.384 55.6877 141.992 56.0062C142.6 56.3246 143.302 56.4839 144.098 56.4839C144.662 56.4839 145.184 56.3898 145.661 56.2016C146.154 56.0134 146.682 55.6732 147.246 55.181L148.376 56.7662C148.028 57.1136 147.601 57.4176 147.094 57.6782C146.602 57.9387 146.074 58.1486 145.509 58.3079C144.959 58.4526 144.416 58.525 143.881 58.525ZM162.625 58.525C161.8 58.525 161.032 58.4164 160.323 58.1993C159.628 57.9821 158.991 57.6564 158.412 57.2222C157.848 56.7734 157.341 56.2233 156.892 55.5719L158.499 53.7262C159.208 54.7395 159.889 55.4416 160.54 55.8324C161.192 56.2233 161.966 56.4187 162.864 56.4187C163.414 56.4187 163.913 56.3319 164.362 56.1582C164.811 55.9844 165.165 55.7456 165.426 55.4416C165.686 55.1376 165.817 54.7902 165.817 54.3993C165.817 54.1387 165.773 53.8926 165.686 53.661C165.6 53.4294 165.462 53.2195 165.274 53.0313C165.1 52.8431 164.868 52.6694 164.579 52.5102C164.304 52.3509 163.978 52.2134 163.602 52.0976C163.225 51.9673 162.791 51.8587 162.299 51.7719C161.517 51.6127 160.837 51.4028 160.258 51.1422C159.679 50.8816 159.194 50.5559 158.803 50.165C158.412 49.7742 158.123 49.3327 157.934 48.8405C157.746 48.3338 157.652 47.7692 157.652 47.1468C157.652 46.5388 157.782 45.9742 158.043 45.4531C158.318 44.9319 158.687 44.4832 159.15 44.1068C159.628 43.7159 160.185 43.4192 160.822 43.2165C161.459 42.9994 162.147 42.8908 162.885 42.8908C163.667 42.8908 164.384 42.9921 165.035 43.1948C165.686 43.3975 166.265 43.7015 166.772 44.1068C167.279 44.4976 167.699 44.9826 168.032 45.5616L166.381 47.1902C166.092 46.7125 165.766 46.3144 165.404 45.9959C165.042 45.663 164.644 45.4169 164.21 45.2576C163.776 45.0839 163.312 44.9971 162.82 44.9971C162.256 44.9971 161.763 45.0839 161.344 45.2576C160.924 45.4314 160.591 45.6774 160.345 45.9959C160.113 46.2999 159.997 46.6618 159.997 47.0816C159.997 47.3856 160.055 47.6679 160.171 47.9285C160.287 48.1746 160.461 48.399 160.692 48.6016C160.938 48.7898 161.264 48.9635 161.669 49.1228C162.075 49.2675 162.56 49.3978 163.124 49.5136C163.92 49.6873 164.63 49.9117 165.252 50.1868C165.875 50.4473 166.403 50.7586 166.837 51.1205C167.272 51.4824 167.597 51.8877 167.814 52.3365C168.046 52.7852 168.162 53.2702 168.162 53.7913C168.162 54.7612 167.937 55.6008 167.489 56.3102C167.04 57.0195 166.403 57.5696 165.578 57.9604C164.753 58.3368 163.768 58.525 162.625 58.525ZM172.331 58.3079V43.9982H174.568V58.3079H172.331ZM169.965 49.0793V46.9079H177.217V49.0793H169.965ZM184.272 58.525C183.158 58.525 182.159 58.2717 181.276 57.765C180.407 57.2439 179.719 56.5418 179.213 55.6587C178.706 54.7612 178.453 53.7406 178.453 52.597C178.453 51.4534 178.706 50.4401 179.213 49.557C179.719 48.6595 180.407 47.9574 181.276 47.4508C182.159 46.9296 183.158 46.6691 184.272 46.6691C185.372 46.6691 186.357 46.9296 187.225 47.4508C188.108 47.9574 188.803 48.6595 189.31 49.557C189.817 50.4401 190.07 51.4534 190.07 52.597C190.07 53.7406 189.817 54.7612 189.31 55.6587C188.803 56.5418 188.108 57.2439 187.225 57.765C186.357 58.2717 185.372 58.525 184.272 58.525ZM184.272 56.4839C184.953 56.4839 185.561 56.3174 186.096 55.9844C186.632 55.637 187.052 55.1738 187.356 54.5947C187.66 54.0012 187.804 53.3353 187.79 52.597C187.804 51.8443 187.66 51.1784 187.356 50.5993C187.052 50.0058 186.632 49.5426 186.096 49.2096C185.561 48.8767 184.953 48.7102 184.272 48.7102C183.592 48.7102 182.977 48.8839 182.426 49.2313C181.891 49.5643 181.471 50.0275 181.167 50.621C180.863 51.2001 180.718 51.8587 180.733 52.597C180.718 53.3353 180.863 54.0012 181.167 54.5947C181.471 55.1738 181.891 55.637 182.426 55.9844C182.977 56.3174 183.592 56.4839 184.272 56.4839ZM192.507 58.3079V46.9079H194.765V50.4908L194.548 49.6222C194.707 49.0721 194.975 48.5727 195.352 48.1239C195.742 47.6752 196.184 47.3205 196.676 47.0599C197.183 46.7993 197.704 46.6691 198.24 46.6691C198.486 46.6691 198.717 46.6908 198.934 46.7342C199.166 46.7776 199.347 46.8283 199.477 46.8862L198.891 49.3182C198.717 49.2458 198.522 49.1879 198.305 49.1445C198.102 49.0866 197.899 49.0576 197.697 49.0576C197.306 49.0576 196.929 49.1372 196.568 49.2965C196.22 49.4412 195.909 49.6511 195.634 49.9262C195.373 50.1868 195.163 50.498 195.004 50.8599C194.845 51.2073 194.765 51.5909 194.765 52.0107V58.3079H192.507ZM206.097 58.525C204.924 58.525 203.882 58.2789 202.97 57.7867C202.073 57.2801 201.363 56.5924 200.842 55.7239C200.335 54.8553 200.082 53.8565 200.082 52.7273C200.082 51.8298 200.227 51.0119 200.516 50.2736C200.806 49.5353 201.204 48.8984 201.711 48.3628C202.232 47.8127 202.847 47.3929 203.556 47.1033C204.28 46.7993 205.062 46.6473 205.902 46.6473C206.64 46.6473 207.327 46.7921 207.964 47.0816C208.601 47.3567 209.151 47.7403 209.615 48.2325C210.092 48.7247 210.454 49.311 210.7 49.9913C210.961 50.6572 211.084 51.3883 211.07 52.1845L211.048 53.1399H201.732L201.233 51.3593H209.115L208.79 51.7285V51.2073C208.746 50.7296 208.587 50.3026 208.312 49.9262C208.037 49.5498 207.689 49.253 207.27 49.0359C206.85 48.8188 206.394 48.7102 205.902 48.7102C205.12 48.7102 204.461 48.8622 203.926 49.1662C203.39 49.4557 202.985 49.89 202.71 50.469C202.435 51.0336 202.297 51.7357 202.297 52.5753C202.297 53.3715 202.463 54.0664 202.796 54.6599C203.129 55.2389 203.6 55.6877 204.208 56.0062C204.816 56.3246 205.518 56.4839 206.314 56.4839C206.879 56.4839 207.4 56.3898 207.878 56.2016C208.37 56.0134 208.898 55.6732 209.463 55.181L210.592 56.7662C210.244 57.1136 209.817 57.4176 209.311 57.6782C208.818 57.9387 208.29 58.1486 207.726 58.3079C207.175 58.4526 206.633 58.525 206.097 58.525Z" fill="#EEEEEE"/>
</g>
<path fill-rule="evenodd" clip-rule="evenodd" d="M62.8783 39.0216C62.8156 32.4324 68.2388 29.2567 68.4835 29.1062C65.4382 24.6224 60.6871 24.0086 58.995 23.9369C54.956 23.5295 51.1124 26.3284 49.0617 26.3284C47.0166 26.3284 43.8501 23.9989 40.5029 24.0651C36.0956 24.1267 32.0358 26.6348 29.7666 30.5941C25.1938 38.5684 28.5978 50.3784 33.0571 56.8476C35.2336 60.0066 37.8351 63.5702 41.2463 63.4414C44.5369 63.3119 45.7758 61.3101 49.7444 61.3101C53.7161 61.3101 54.8315 63.4414 58.312 63.3757C61.8431 63.3119 64.0882 60.1492 66.2513 56.9773C68.7518 53.3031 69.7815 49.7465 69.8414 49.5618C69.7654 49.534 62.9497 46.906 62.8783 39.0216L62.8783 39.0216Z" fill="#EEEEEE"/>
<path fill-rule="evenodd" clip-rule="evenodd" d="M50.8492 19.2256C52.3899 17.0189 53.4237 13.9567 53.1405 10.9033C50.9228 11.0074 48.2338 12.6526 46.6453 14.8524C45.2174 16.8045 43.9677 19.9218 44.3065 22.9112C46.7805 23.1385 49.3076 21.4281 50.8492 19.2256V19.2256Z" fill="#EEEEEE"/>
<defs>
<filter id="filter0_d_1327_32881" x="0.5" y="0.189209" width="244" height="91" filterUnits="userSpaceOnUse" color-interpolation-filters="sRGB">
<feFlood flood-opacity="0" result="BackgroundImageFix"/>
<feColorMatrix in="SourceAlpha" type="matrix" values="0 0 0 0 0 0 0 0 0 0 0 0 0 0 0 0 0 0 127 0" result="hardAlpha"/>
<feOffset dy="4"/>
<feGaussianBlur stdDeviation="4"/>
<feComposite in2="hardAlpha" operator="out"/>
<feColorMatrix type="matrix" values="0 0 0 0 0 0 0 0 0 0 0 0 0 0 0 0 0 0 0.25 0"/>
<feBlend mode="normal" in2="BackgroundImageFix" result="effect1_dropShadow_1327_32881"/>
<feBlend mode="normal" in="SourceGraphic" in2="effect1_dropShadow_1327_32881" result="shape"/>
</filter>
</defs>
</svg>
