<svg width="379" height="270" viewBox="0 0 379 270" fill="none" xmlns="http://www.w3.org/2000/svg">
<g clip-path="url(#clip0)">
<path opacity="0.25" d="M29.8863 270H326.545C379.088 265.418 387.904 132.004 338.182 83.8904C288.548 35.7768 242.616 82.4804 226.483 53.4008C202.944 10.9269 182.403 3.08422 143.084 0.352498C82.9586 -3.87727 49.4578 31.2827 29.8863 73.4041C14.1056 107.418 -4.14352 199.328 29.8863 270Z" fill="#C9C2BC"/>
<path d="M211.143 103.365H287.754C293.573 103.365 298.334 98.6064 298.334 92.7905V80.718C298.334 74.9021 293.573 70.1436 287.754 70.1436H211.143C205.325 70.1436 200.564 74.9021 200.564 80.718V92.7024C200.564 98.6064 205.325 103.365 211.143 103.365Z" fill="#E5E1DC"/>
<path d="M289.43 98.1658L292.603 108.74L273.913 101.867L289.43 98.1658Z" fill="#E5E1DC"/>
<path d="M210.526 84.6834H288.548C290.047 84.6834 291.281 83.4498 291.281 81.9517V81.423C291.281 79.925 290.047 78.6913 288.548 78.6913H210.526C209.027 78.6913 207.793 79.925 207.793 81.423V81.9517C207.793 83.4498 209.027 84.6834 210.526 84.6834Z" fill="white"/>
<path d="M210.526 94.7292H288.548C290.047 94.7292 291.281 93.4955 291.281 91.9974V91.4687C291.281 89.9707 290.047 88.737 288.548 88.737H210.526C209.027 88.737 207.793 89.9707 207.793 91.4687V91.9974C207.793 93.4955 209.027 94.7292 210.526 94.7292Z" fill="white"/>
<path d="M235.387 64.9445H158.776C152.958 64.9445 148.197 60.186 148.197 54.3701V42.3858C148.197 36.5698 152.958 31.8113 158.776 31.8113H235.387C241.206 31.8113 245.967 36.5698 245.967 42.3858V54.3701C245.967 60.186 241.206 64.9445 235.387 64.9445Z" fill="#E5E1DC"/>
<path d="M157.101 59.8336L153.928 70.408L172.617 63.5346L157.101 59.8336Z" fill="#E5E1DC"/>
<path d="M236.004 46.3512H157.983C156.484 46.3512 155.25 45.1175 155.25 43.6195V43.0907C155.25 41.5927 156.484 40.359 157.983 40.359H236.004C237.503 40.359 238.737 41.5927 238.737 43.0907V43.6195C238.737 45.1175 237.503 46.3512 236.004 46.3512Z" fill="white"/>
<path d="M236.004 56.3969H157.983C156.484 56.3969 155.25 55.1632 155.25 53.6652V53.1364C155.25 51.6384 156.484 50.4047 157.983 50.4047H236.004C237.503 50.4047 238.737 51.6384 238.737 53.1364V53.6652C238.737 55.1632 237.503 56.3969 236.004 56.3969Z" fill="white"/>
<path d="M154.545 250.437C154.633 250.349 154.721 250.173 154.897 250.085C154.721 250.173 154.633 250.349 154.545 250.437Z" fill="#FCEDE6"/>
<path d="M0 260.747H379V270H0V260.747Z" fill="#C9C2BC"/>
<path d="M83.2231 260.747H379V270H83.2231V260.747Z" fill="#E5E1DC"/>
<path d="M81.3716 35.7767C81.3716 35.7767 62.0646 43.5313 44.08 90.3231C33.8534 116.847 18.4254 113.675 10.6673 138.877C1.85132 167.604 37.9969 190.427 81.1072 176.152C124.306 161.877 96.7996 70.3198 96.7996 70.3198L81.3716 35.7767Z" fill="#202526"/>
<path d="M151.459 143.548L153.839 185.581C153.839 185.581 155.779 192.014 158.864 203.557C161.421 213.427 164.771 227.085 168.297 243.74C171.559 258.897 194.393 266.475 194.834 239.51C195.186 219.507 186.899 193.512 176.761 173.597C168.297 156.942 158.6 144.517 151.459 143.548Z" fill="#FBA79E"/>
<path d="M151.459 143.548L153.839 185.581C153.839 185.581 155.779 192.014 158.864 203.557L176.761 173.597C168.297 156.942 158.6 144.517 151.459 143.548Z" fill="#EA847D"/>
<path d="M149.696 142.05C162.479 147.249 166.887 153.593 173.587 164.873L153.398 205.496C153.398 205.496 147.227 149.716 149.696 142.05Z" fill="#E5E1DC"/>
<path d="M39.0548 141.961L41.1707 177.121L45.6668 260.747H151.459C154.809 256.606 165.741 234.135 163.272 214.749V214.661C163.096 213.074 162.832 211.488 162.479 209.814C162.479 209.726 162.479 209.726 162.479 209.726C161.95 207.258 161.333 204.086 160.716 200.561C159.129 191.837 157.189 180.646 155.514 170.424C153.046 155.356 150.93 142.314 150.93 142.314L121.484 132.18L73.6136 125.747C73.6136 125.835 57.8329 128.479 39.0548 141.961Z" fill="#E5E1DC"/>
<path d="M45.6668 260.747C45.6668 260.747 151.547 260.659 151.547 260.747C151.635 260.659 167.063 238.453 162.567 210.166C162.655 210.871 163.096 212.458 163.272 214.749V214.837C164.154 224.001 162.391 243.123 134.532 247.618C126.333 248.939 109.671 249.292 101.296 249.38C76.7873 247.618 62.1527 231.932 57.921 224.618C52.6314 215.454 43.6391 176.681 43.6391 176.681C43.6391 176.681 43.6391 176.681 41.1706 177.298L45.6668 260.747Z" fill="#C9C2BC"/>
<path d="M145.2 131.035C145.2 131.035 197.831 234.047 193.599 248.587C189.368 263.127 170.149 266.563 164.595 248.587C159.041 230.61 131.182 142.05 131.182 142.05L145.2 131.035Z" fill="#FBA79E"/>
<path d="M125.804 135.088C128.185 137.908 130.212 140.287 131.182 141.962C133.562 146.191 141.673 141.168 144.759 136.851C145.552 135.705 145.817 134.383 145.464 133.061C145.023 131.123 144.318 126.981 144.318 119.667C144.318 118.169 144.406 116.759 144.494 115.437C145.199 107.859 147.315 103.453 142.202 101.955C141.849 101.867 141.497 101.779 141.144 101.691C140.968 101.691 140.703 101.602 140.527 101.602C139.205 101.426 137.706 101.338 136.119 101.338C127.567 101.602 116.195 105.392 115.313 114.027C114.608 121.077 120.867 129.096 125.804 135.088Z" fill="#FBA79E"/>
<path d="M125.804 135.088C131.799 126.54 141.144 113.058 141.144 101.691C140.968 101.691 140.703 101.602 140.527 101.602C132.152 100.369 116.283 103.805 115.313 114.116C114.608 121.077 120.867 129.096 125.804 135.088Z" fill="#EA847D"/>
<path d="M134.356 115.79C135.414 119.755 142.026 106.89 142.114 101.955C141.761 101.867 141.409 101.779 141.056 101.691C140.88 101.691 140.615 101.602 140.439 101.602C139.116 101.426 137.618 101.338 136.031 101.338C135.414 103.805 133.474 112.265 134.356 115.79Z" fill="#FBA79E"/>
<path d="M18.249 180.382C18.4254 196.948 23.8913 226.381 29.798 242.507C33.5889 252.993 40.9943 253.698 47.7826 248.763C50.8682 246.384 52.8077 240.215 52.2788 236.338L45.3141 187.343L43.4628 174.302C43.4628 174.302 30.327 163.022 27.7703 161.7C25.2137 160.379 19.5714 166.723 18.5135 172.804C18.3372 174.83 18.1609 177.386 18.249 180.382Z" fill="#FBA79E"/>
<path d="M18.2491 183.025C31.2087 178.708 40.9944 185.933 45.9314 190.868L43.5511 174.302C43.5511 174.302 30.4152 163.022 27.8586 161.7C25.302 160.379 19.6597 166.723 18.6018 172.804C18.3373 174.83 18.161 180.029 18.2491 183.025Z" fill="#EA847D"/>
<path d="M49.4578 188.225C49.4578 188.225 36.5864 168.221 18.2491 175.447C18.2491 175.447 17.3675 155.884 43.551 138.789C43.551 138.877 45.5787 162.053 49.4578 188.225Z" fill="#E5E1DC"/>
<path d="M51.3091 229.377L100.767 240.392L94.9483 251.583C94.9483 251.583 40.6417 263.479 31.0323 245.503C23.9795 232.285 51.3091 229.377 51.3091 229.377Z" fill="#FBA79E"/>
<path d="M142.731 78.1625C142.731 78.1625 151.9 46.1749 124.835 35.7768C97.7695 25.3786 65.6792 32.0757 60.3015 66.9713C54.8356 101.867 76.5229 124.514 76.5229 124.514L142.731 78.1625Z" fill="#202526"/>
<path d="M73.6136 125.836C73.6136 125.836 82.4296 154.122 99.8853 162.846C111.258 168.574 114.344 157.823 110.553 140.992C110.376 140.199 110.2 139.406 110.024 138.613C108.084 130.506 107.732 125.307 107.732 125.307L80.7545 101.338L73.6136 125.836Z" fill="#FBA79E"/>
<path d="M76.1703 116.935C83.0467 130.153 109.936 138.701 109.936 138.701C107.996 130.594 107.643 125.395 107.643 125.395L80.6664 101.426L76.1703 116.935Z" fill="#EA847D"/>
<path d="M78.9914 90.3231C83.4875 103.365 87.1021 117.112 110.464 128.832C124.923 136.057 140.88 112.265 142.819 89.0894C142.907 87.8558 142.996 86.6221 142.996 85.3884C143.084 81.7755 142.819 78.1626 142.026 74.7259C136.56 48.5542 110.641 48.2017 110.641 48.2017C66.9135 49.3473 72.8202 72.611 78.9914 90.3231Z" fill="#FBA79E"/>
<path d="M136.824 59.6573C136.824 59.6573 120.074 74.1971 96.7997 70.3198C96.7997 70.3198 92.9206 83.2735 89.6587 89.4419C85.2507 97.8133 77.669 110.15 77.669 110.15C77.669 110.15 62.7699 94.2885 70.528 70.7604C78.2861 47.1443 99.18 39.654 115.666 43.5313C132.152 47.4086 136.824 59.6573 136.824 59.6573Z" fill="#202526"/>
<path d="M83.7519 102.219C79.9054 102.219 76.7873 97.6823 76.7873 92.0855C76.7873 86.4888 79.9054 81.9517 83.7519 81.9517C87.5984 81.9517 90.7166 86.4888 90.7166 92.0855C90.7166 97.6823 87.5984 102.219 83.7519 102.219Z" fill="#FBA79E"/>
<path d="M87.1021 86.7102C87.1021 94.8173 82.7822 101.338 77.4926 101.338C76.611 101.338 75.8176 101.162 75.1123 100.898C70.9688 99.2233 67.8832 93.5836 67.8832 86.7102C67.8832 82.0398 69.2937 77.8982 71.5859 75.1665C73.1728 73.2278 75.2886 72.0823 77.4926 72.0823C82.7822 72.1704 87.1021 78.6913 87.1021 86.7102Z" fill="#C1BCAC"/>
<path d="M81.1072 86.7102C81.1072 91.6449 78.4624 95.6103 75.2886 95.6103C74.7596 95.6103 74.3188 95.5222 73.7899 95.346C71.3214 94.3766 69.3819 90.8518 69.3819 86.7983C69.3819 83.9785 70.2635 81.423 71.674 79.8368C72.6438 78.6913 73.878 77.9863 75.2886 77.9863C78.4624 77.8982 81.1072 81.8636 81.1072 86.7102Z" fill="#E5E1DC"/>
<path d="M90.7166 87.5914C90.9811 87.5914 91.1574 87.4152 91.1574 87.1508C91.1574 86.6221 91.3337 74.0209 83.4875 69.8792C79.1676 67.5881 73.7017 67.5881 68.8529 67.6762C65.1502 67.6762 61.9764 67.6762 60.5659 66.6188C57.3921 64.2396 59.508 58.5118 59.508 58.4236C59.5961 58.1593 59.5079 57.8949 59.2435 57.8068C58.979 57.7187 58.7145 57.8068 58.6264 58.0712C58.5382 58.3355 56.246 64.5039 59.9488 67.3238C61.6238 68.6456 64.9739 68.5574 68.8529 68.5574C73.5254 68.5574 78.9031 68.4693 83.0467 70.6723C90.3639 74.5496 90.1876 86.8864 90.1876 87.0627C90.2758 87.327 90.4521 87.5914 90.7166 87.5914Z" fill="#7C7A74"/>
<path d="M79.1676 83.8903C79.1676 83.8903 85.1625 87.5914 89.0415 85.3002C92.3034 83.3616 91.4218 89.0013 89.7468 90.3231C86.9257 92.5261 81.1071 94.9935 77.4044 91.6449C73.7898 88.2082 79.1676 83.8903 79.1676 83.8903Z" fill="#E5E1DC"/>
<path d="M68.7647 96.6678V96.7559C68.7647 96.7559 68.6766 98.3421 73.4372 100.281C73.5254 100.281 73.7898 100.369 73.7898 100.369C73.878 100.369 73.878 100.369 73.9662 100.369C74.6715 100.369 75.2886 99.8401 75.2886 99.047V97.9896C75.2886 97.9896 75.2886 97.9896 75.2886 97.9015V97.8133C75.2886 97.7252 75.2004 97.6371 75.2004 97.4609C75.2004 97.4609 75.2004 97.3727 75.1122 97.3727C74.407 95.8747 71.1451 94.0242 69.999 94.2004C69.2937 94.2004 68.6766 94.8173 68.6766 95.5222V96.6678H68.7647Z" fill="#7C7A74"/>
<path d="M73.7898 100.369C73.878 100.369 73.878 100.369 73.9662 100.369C74.6715 100.369 75.2886 99.8401 75.2886 99.047V97.9896C75.2886 97.9896 75.2886 97.9896 75.2886 97.9014V97.8133C75.2886 97.7252 75.2004 97.6371 75.2004 97.4608C75.2004 97.4608 74.407 96.4915 73.2609 97.3727C72.9083 98.0777 72.3793 100.193 73.7898 100.369Z" fill="#99958A"/>
<path d="M104.117 115.79H114.872C115.137 115.79 115.313 115.614 115.313 115.261C115.313 114.997 115.137 114.732 114.872 114.732H104.381L74.407 98.2539C74.1425 98.1658 73.878 98.1658 73.7898 98.4302C73.7017 98.6945 73.7017 98.9589 73.9662 99.047L104.117 115.79Z" fill="#7C7A74"/>
<path d="M114.961 117.023C112.185 117.023 109.935 116.274 109.935 115.349C109.935 114.425 112.185 113.675 114.961 113.675C117.736 113.675 119.986 114.425 119.986 115.349C119.986 116.274 117.736 117.023 114.961 117.023Z" fill="#202526"/>
<path d="M130.036 92.2617C130.036 92.2617 134.179 108.564 131.094 110.767C128.096 112.97 123.865 107.859 123.865 107.859" stroke="#142216" stroke-miterlimit="10"/>
<path d="M123.865 114.732C123.865 114.732 120.162 116.847 115.842 109.71" stroke="#142216" stroke-miterlimit="10"/>
<path d="M117.605 87.4151C117.341 89.4419 117.782 91.1162 118.663 91.2043C119.545 91.2924 120.427 89.7944 120.691 87.8557C120.955 85.829 120.515 84.1547 119.633 84.0666C118.751 83.8903 117.87 85.3884 117.605 87.4151Z" fill="#142216"/>
<path d="M135.326 90.6756C135.061 92.7023 135.502 94.3766 136.383 94.4647C137.265 94.5528 138.147 93.0548 138.411 91.1162C138.676 89.0894 138.235 87.4151 137.353 87.327C136.472 87.1508 135.59 88.7369 135.326 90.6756Z" fill="#142216"/>
<path d="M136.295 84.419C136.383 84.419 140.174 85.9171 141.849 88.3844C142.114 88.7369 142.467 88.9132 142.819 89.0013C142.907 87.7676 142.995 86.5339 142.995 85.3002C140.615 82.921 137.441 81.6873 137.265 81.6873C136.56 81.423 135.678 81.7754 135.414 82.4804C135.149 83.2735 135.502 84.1547 136.295 84.419Z" fill="#142216"/>
<path d="M125.099 81.423C125.716 81.423 126.245 81.0705 126.421 80.4536C126.686 79.6606 126.333 78.8675 125.54 78.6031C125.187 78.515 116.9 75.4308 112.228 78.7794C111.61 79.22 111.434 80.1893 111.875 80.8061C112.316 81.423 113.285 81.5992 113.903 81.1586C116.724 79.1318 122.542 80.6299 124.57 81.3348C124.746 81.423 124.923 81.423 125.099 81.423Z" fill="#142216"/>
<path d="M132.504 97.7252C132.24 98.4301 133.651 99.5757 135.678 100.457C137.706 101.338 139.645 101.426 139.91 100.809C140.174 100.104 138.764 98.9589 136.736 98.0777C134.62 97.2846 132.769 97.1083 132.504 97.7252Z" fill="#EA847D"/>
<path d="M117.253 97.1083C114.185 97.1083 111.699 96.4376 111.699 95.6103C111.699 94.7829 114.185 94.1122 117.253 94.1122C120.32 94.1122 122.807 94.7829 122.807 95.6103C122.807 96.4376 120.32 97.1083 117.253 97.1083Z" fill="#EA847D"/>
<path d="M141.056 104.422C141.056 104.422 138.499 117.2 134.532 116.583" stroke="#142216" stroke-miterlimit="10"/>
<path d="M106.938 261.1C120.603 262.069 136.295 258.809 142.819 254.05L142.995 253.874C145.464 252.023 146.522 249.997 145.552 247.97C142.026 240.568 121.22 234.84 110.112 242.066C99.0918 249.38 93.3614 260.13 106.938 261.1Z" fill="#E5E1DC"/>
<path d="M133.651 247.089C134.091 247.089 134.62 246.824 134.885 246.384C135.326 245.679 135.149 244.798 134.444 244.357C134.268 244.269 130.477 241.89 127.215 241.713C126.421 241.713 125.716 242.242 125.716 243.123C125.628 243.916 126.245 244.621 127.127 244.621C129.243 244.71 131.976 246.208 132.945 246.824C133.122 247.001 133.386 247.089 133.651 247.089Z" fill="#323535"/>
<path d="M134.003 245.855C134.091 245.855 139.998 247.706 142.819 254.05L142.995 253.874C140.174 247.441 134.091 245.591 134.003 245.591V245.855Z" fill="#323535"/>
<path d="M96.0944 239.246C96.0944 239.246 100.591 241.097 108.349 238.365C116.107 235.633 116.283 231.932 124.217 234.84C132.152 237.748 116.283 249.116 106.762 251.054C97.2405 252.993 91.8627 251.759 91.8627 251.759L96.0944 239.246Z" fill="#FBA79E"/>
<path d="M120.867 234.752C120.867 234.752 133.386 234.752 135.061 235.809C136.736 236.867 151.194 246.824 147.668 248.763C144.142 250.702 134.356 241.361 128.89 241.713C123.424 242.066 120.867 242.242 120.867 242.242V234.752Z" fill="#FBA79E"/>
<path d="M117.958 234.752C117.958 234.752 124.835 238.894 127.567 245.414C130.212 251.935 133.739 256.43 130.036 257.399C126.245 258.368 124.835 255.989 122.366 251.671C119.898 247.353 113.55 238.805 113.55 238.805L117.958 234.752Z" fill="#FBA79E"/>
<path d="M112.139 239.863C112.139 239.863 119.898 252.112 120.867 256.253C121.837 260.395 115.401 261.364 114.079 259.161C112.757 256.958 107.203 246.208 107.203 246.208L112.139 239.863Z" fill="#FBA79E"/>
<path d="M105.88 247.529C105.88 247.529 113.197 258.28 109.054 259.514C104.91 260.747 99.5326 250.966 99.5326 250.966L105.88 247.529Z" fill="#FBA79E"/>
<path d="M183.549 118.345V215.894C183.549 220.653 187.428 224.53 192.189 224.53H346.998C351.759 224.53 355.638 220.653 355.638 215.894V118.345C355.638 113.587 351.759 109.71 346.998 109.71H192.189C187.428 109.71 183.549 113.587 183.549 118.345Z" fill="#E5E1DC"/>
<path d="M192.189 109.71H197.038C192.277 109.71 188.398 113.587 188.398 118.345V215.894C188.398 220.653 192.277 224.53 197.038 224.53H192.189C187.428 224.53 183.549 220.653 183.549 215.894V118.345C183.549 113.587 187.428 109.71 192.189 109.71Z" fill="#C9C2BC"/>
<path d="M249.581 224.53H262.1V206.201L249.581 224.53Z" fill="#C9C2BC"/>
<path d="M257.251 209.638V257.311C257.251 257.487 257.251 257.663 257.339 257.839C257.604 259.514 259.014 260.747 260.689 260.747H278.409C280.084 260.747 281.583 259.514 281.759 257.839C281.759 257.663 281.848 257.487 281.848 257.311V209.638C281.848 207.787 280.349 206.201 278.409 206.201H260.689C258.838 206.201 257.251 207.699 257.251 209.638Z" fill="#E5E1DC"/>
<path d="M260.689 206.201H262.629C260.777 206.201 259.191 207.699 259.191 209.638V257.311C259.191 257.487 259.191 257.663 259.279 257.839C259.543 259.514 260.954 260.747 262.629 260.747H260.689C259.014 260.747 257.516 259.514 257.339 257.839C257.339 257.663 257.251 257.487 257.251 257.311V209.638C257.251 207.699 258.838 206.201 260.689 206.201Z" fill="#C9C2BC"/>
<path d="M257.251 249.027V257.311C257.251 257.487 257.251 257.663 257.339 257.839H281.848C281.848 257.663 281.936 257.487 281.936 257.311V249.027H257.251Z" fill="#C9C2BC"/>
<path d="M238.561 253.433H300.626C301.684 253.433 302.653 254.315 302.653 255.46V258.809C302.653 259.866 301.772 260.836 300.626 260.836H238.561C237.503 260.836 236.533 259.954 236.533 258.809V255.46C236.533 254.315 237.415 253.433 238.561 253.433Z" fill="#E5E1DC"/>
<path d="M238.737 253.433H240.677C239.443 253.433 238.473 254.403 238.473 255.636V258.544C238.473 259.778 239.443 260.747 240.677 260.747H238.737C237.503 260.747 236.533 259.778 236.533 258.544V255.636C236.533 254.403 237.503 253.433 238.737 253.433Z" fill="#C9C2BC"/>
<path d="M219.695 215.013L208.146 191.573L199.859 215.982L219.695 215.013Z" fill="#174407"/>
<path d="M210.085 212.369L228.863 183.114L233.007 215.542L210.085 212.369Z" fill="#659B91"/>
<path d="M211.32 214.22L193.688 215.718L178.171 177.474L211.32 214.22Z" fill="#659B91"/>
<path d="M197.126 212.105L193.511 165.666L224.72 216.952L197.126 212.105Z" fill="#89C6BA"/>
<path d="M204.179 212.017L209.027 165.578L219.871 212.81L204.179 212.017Z" fill="#659B91"/>
<path d="M226.571 168.662L217.491 212.634L202.944 212.105L226.571 168.662Z" fill="#89C6BA"/>
<path d="M232.125 214.308L246.319 179.765L213.083 212.105L232.125 214.308Z" fill="#89C6BA"/>
<path d="M191.219 210.078H235.299C239.707 210.078 243.145 214.132 242.264 218.45L235.564 254.931C234.946 258.28 232.037 260.747 228.599 260.747H197.743C194.305 260.747 191.307 258.28 190.69 254.843L184.166 218.362C183.461 214.044 186.811 210.078 191.219 210.078Z" fill="#E5E1DC"/>
<path d="M204.619 254.843L198.096 218.362C197.302 214.044 200.652 209.99 205.06 209.99H191.219C186.811 209.99 183.461 213.956 184.254 218.362L190.778 254.843C191.395 258.28 194.305 260.747 197.831 260.747H211.672C208.146 260.747 205.148 258.28 204.619 254.843Z" fill="#CCCAC6"/>
</g>
<defs>
<clipPath id="clip0">
<rect width="379" height="270" fill="white" transform="matrix(-1 0 0 1 379 0)"/>
</clipPath>
</defs>
</svg>
