<svg width="287" height="142" viewBox="0 0 287 142" fill="none" xmlns="http://www.w3.org/2000/svg">
<path d="M222.948 115.135V126.534H220.698V117.729L217.995 118.588V116.815L222.706 115.135H222.948ZM237.151 115.159H239.487V122.674C239.487 123.549 239.3 124.286 238.925 124.885C238.555 125.484 238.042 125.935 237.386 126.237C236.735 126.539 235.985 126.69 235.136 126.69C234.287 126.69 233.531 126.539 232.87 126.237C232.214 125.935 231.698 125.484 231.323 124.885C230.953 124.286 230.768 123.549 230.768 122.674V115.159H233.112V122.674C233.112 123.185 233.193 123.601 233.354 123.924C233.516 124.247 233.748 124.484 234.05 124.635C234.357 124.786 234.719 124.862 235.136 124.862C235.563 124.862 235.925 124.786 236.222 124.635C236.524 124.484 236.753 124.247 236.909 123.924C237.07 123.601 237.151 123.185 237.151 122.674V115.159ZM247.339 123.557C247.339 123.354 247.307 123.172 247.245 123.01C247.188 122.844 247.078 122.693 246.917 122.557C246.755 122.417 246.529 122.278 246.237 122.143C245.945 122.008 245.568 121.867 245.104 121.721C244.589 121.555 244.099 121.367 243.636 121.159C243.177 120.95 242.771 120.708 242.417 120.432C242.068 120.151 241.792 119.825 241.589 119.456C241.391 119.086 241.292 118.656 241.292 118.167C241.292 117.693 241.396 117.263 241.604 116.877C241.813 116.487 242.104 116.153 242.479 115.877C242.854 115.596 243.297 115.38 243.807 115.229C244.323 115.078 244.888 115.002 245.503 115.002C246.341 115.002 247.073 115.153 247.698 115.456C248.323 115.758 248.807 116.172 249.151 116.698C249.5 117.224 249.675 117.825 249.675 118.502H247.347C247.347 118.169 247.276 117.877 247.136 117.627C247 117.372 246.792 117.172 246.511 117.026C246.235 116.88 245.886 116.807 245.464 116.807C245.057 116.807 244.719 116.87 244.448 116.995C244.177 117.114 243.974 117.278 243.839 117.487C243.703 117.69 243.636 117.919 243.636 118.174C243.636 118.367 243.682 118.542 243.776 118.698C243.875 118.854 244.021 119 244.214 119.135C244.406 119.271 244.643 119.398 244.925 119.518C245.206 119.638 245.531 119.755 245.901 119.87C246.521 120.057 247.065 120.268 247.534 120.502C248.008 120.737 248.404 121 248.722 121.292C249.039 121.583 249.279 121.914 249.44 122.284C249.602 122.653 249.682 123.073 249.682 123.542C249.682 124.036 249.586 124.479 249.393 124.87C249.201 125.26 248.922 125.591 248.557 125.862C248.193 126.133 247.758 126.338 247.253 126.479C246.748 126.62 246.182 126.69 245.557 126.69C244.995 126.69 244.44 126.617 243.893 126.471C243.347 126.32 242.849 126.094 242.401 125.792C241.958 125.489 241.604 125.104 241.339 124.635C241.073 124.167 240.94 123.612 240.94 122.971H243.292C243.292 123.325 243.347 123.625 243.456 123.87C243.565 124.114 243.719 124.312 243.917 124.463C244.12 124.614 244.36 124.724 244.636 124.792C244.917 124.859 245.224 124.893 245.557 124.893C245.964 124.893 246.297 124.836 246.557 124.721C246.823 124.607 247.018 124.448 247.143 124.245C247.274 124.042 247.339 123.812 247.339 123.557ZM254.768 126.534H252.292L252.307 124.706H254.768C255.383 124.706 255.901 124.568 256.323 124.292C256.745 124.01 257.063 123.601 257.276 123.065C257.495 122.528 257.604 121.88 257.604 121.12V120.565C257.604 119.982 257.542 119.469 257.417 119.026C257.297 118.583 257.117 118.211 256.878 117.909C256.638 117.607 256.344 117.38 255.995 117.229C255.646 117.073 255.245 116.995 254.792 116.995H252.245V115.159H254.792C255.552 115.159 256.248 115.289 256.878 115.549C257.513 115.805 258.063 116.172 258.526 116.651C258.99 117.13 259.347 117.703 259.597 118.37C259.852 119.031 259.979 119.768 259.979 120.581V121.12C259.979 121.927 259.852 122.664 259.597 123.331C259.347 123.997 258.99 124.57 258.526 125.049C258.068 125.523 257.518 125.89 256.878 126.151C256.242 126.406 255.539 126.534 254.768 126.534ZM253.62 115.159V126.534H251.276V115.159H253.62Z" fill="#0D8284"/>
<path d="M222.948 115.135V126.534H220.698V117.729L217.995 118.588V116.815L222.706 115.135H222.948ZM237.151 115.159H239.487V122.674C239.487 123.549 239.3 124.286 238.925 124.885C238.555 125.484 238.042 125.935 237.386 126.237C236.735 126.539 235.985 126.69 235.136 126.69C234.287 126.69 233.531 126.539 232.87 126.237C232.214 125.935 231.698 125.484 231.323 124.885C230.953 124.286 230.768 123.549 230.768 122.674V115.159H233.112V122.674C233.112 123.185 233.193 123.601 233.354 123.924C233.516 124.247 233.748 124.484 234.05 124.635C234.357 124.786 234.719 124.862 235.136 124.862C235.563 124.862 235.925 124.786 236.222 124.635C236.524 124.484 236.753 124.247 236.909 123.924C237.07 123.601 237.151 123.185 237.151 122.674V115.159ZM247.339 123.557C247.339 123.354 247.307 123.172 247.245 123.01C247.188 122.844 247.078 122.693 246.917 122.557C246.755 122.417 246.529 122.278 246.237 122.143C245.945 122.008 245.568 121.867 245.104 121.721C244.589 121.555 244.099 121.367 243.636 121.159C243.177 120.95 242.771 120.708 242.417 120.432C242.068 120.151 241.792 119.825 241.589 119.456C241.391 119.086 241.292 118.656 241.292 118.167C241.292 117.693 241.396 117.263 241.604 116.877C241.813 116.487 242.104 116.153 242.479 115.877C242.854 115.596 243.297 115.38 243.807 115.229C244.323 115.078 244.888 115.002 245.503 115.002C246.341 115.002 247.073 115.153 247.698 115.456C248.323 115.758 248.807 116.172 249.151 116.698C249.5 117.224 249.675 117.825 249.675 118.502H247.347C247.347 118.169 247.276 117.877 247.136 117.627C247 117.372 246.792 117.172 246.511 117.026C246.235 116.88 245.886 116.807 245.464 116.807C245.057 116.807 244.719 116.87 244.448 116.995C244.177 117.114 243.974 117.278 243.839 117.487C243.703 117.69 243.636 117.919 243.636 118.174C243.636 118.367 243.682 118.542 243.776 118.698C243.875 118.854 244.021 119 244.214 119.135C244.406 119.271 244.643 119.398 244.925 119.518C245.206 119.638 245.531 119.755 245.901 119.87C246.521 120.057 247.065 120.268 247.534 120.502C248.008 120.737 248.404 121 248.722 121.292C249.039 121.583 249.279 121.914 249.44 122.284C249.602 122.653 249.682 123.073 249.682 123.542C249.682 124.036 249.586 124.479 249.393 124.87C249.201 125.26 248.922 125.591 248.557 125.862C248.193 126.133 247.758 126.338 247.253 126.479C246.748 126.62 246.182 126.69 245.557 126.69C244.995 126.69 244.44 126.617 243.893 126.471C243.347 126.32 242.849 126.094 242.401 125.792C241.958 125.489 241.604 125.104 241.339 124.635C241.073 124.167 240.94 123.612 240.94 122.971H243.292C243.292 123.325 243.347 123.625 243.456 123.87C243.565 124.114 243.719 124.312 243.917 124.463C244.12 124.614 244.36 124.724 244.636 124.792C244.917 124.859 245.224 124.893 245.557 124.893C245.964 124.893 246.297 124.836 246.557 124.721C246.823 124.607 247.018 124.448 247.143 124.245C247.274 124.042 247.339 123.812 247.339 123.557ZM254.768 126.534H252.292L252.307 124.706H254.768C255.383 124.706 255.901 124.568 256.323 124.292C256.745 124.01 257.063 123.601 257.276 123.065C257.495 122.528 257.604 121.88 257.604 121.12V120.565C257.604 119.982 257.542 119.469 257.417 119.026C257.297 118.583 257.117 118.211 256.878 117.909C256.638 117.607 256.344 117.38 255.995 117.229C255.646 117.073 255.245 116.995 254.792 116.995H252.245V115.159H254.792C255.552 115.159 256.248 115.289 256.878 115.549C257.513 115.805 258.063 116.172 258.526 116.651C258.99 117.13 259.347 117.703 259.597 118.37C259.852 119.031 259.979 119.768 259.979 120.581V121.12C259.979 121.927 259.852 122.664 259.597 123.331C259.347 123.997 258.99 124.57 258.526 125.049C258.068 125.523 257.518 125.89 256.878 126.151C256.242 126.406 255.539 126.534 254.768 126.534ZM253.62 115.159V126.534H251.276V115.159H253.62Z" fill="black" fill-opacity="0.2"/>
<path d="M285.977 46.3698C285.977 71.7696 264.718 92.3583 238.491 92.3583C212.263 92.3583 191.004 71.7696 191.004 46.3698C191.004 20.9701 212.263 0.381348 238.491 0.381348C264.718 0.381348 285.977 20.9701 285.977 46.3698Z" fill="#FFEB4C"/>
<path d="M243.977 92.0507C254.866 90.8357 264.651 86.0571 272.011 78.9458C264.601 82.3962 257.191 85.8951 249.798 89.3617C247.874 90.2526 245.917 91.1435 243.977 92.0507Z" fill="#FFEB4C"/>
<path d="M273.85 45.6407C273.85 64.9497 257.693 80.5977 237.754 80.5977C217.816 80.5977 201.658 64.9497 201.658 45.6407C201.658 26.3317 217.816 10.6836 237.754 10.6836C257.676 10.6836 273.85 26.3317 273.85 45.6407Z" fill="#EAB726"/>
<path d="M274.871 47.0986C274.871 66.1484 258.93 81.5859 239.26 81.5859C219.589 81.5859 203.649 66.1484 203.649 47.0986C203.649 28.0488 219.589 12.6113 239.26 12.6113C258.914 12.6113 274.871 28.0488 274.871 47.0986Z" fill="#FFEB4C"/>
<path d="M246.402 55.7655C246.402 54.1942 245.8 52.8659 244.579 51.7968C243.375 50.7277 241.318 49.7557 238.457 48.881C234.46 47.7795 231.549 46.3216 229.709 44.5397C227.886 42.7579 226.966 40.49 226.966 37.7362C226.966 34.9338 227.869 32.6336 229.659 30.8517C231.449 29.0536 233.924 28.0007 237.052 27.6443V22.0396H241.251V27.6767C244.412 28.0655 246.854 29.2804 248.61 31.2891C250.367 33.2977 251.236 36.0677 251.236 39.5667H246.051C246.051 37.1531 245.416 35.2416 244.161 33.8161C242.907 32.3906 241.201 31.6779 239.06 31.6779C236.818 31.6779 235.112 32.2124 233.924 33.2491C232.737 34.3021 232.151 35.76 232.151 37.6552C232.151 39.4047 232.77 40.7816 234.025 41.8183C235.279 42.855 237.337 43.7946 240.197 44.6369C243.057 45.4793 245.299 46.4188 246.904 47.4231C248.51 48.4436 249.698 49.6262 250.45 50.9707C251.203 52.3152 251.588 53.9027 251.588 55.7007C251.588 58.5841 250.634 60.9005 248.727 62.6662C246.821 64.4319 244.144 65.4686 240.715 65.7926V70.6846H236.551V65.7926C233.055 65.501 230.328 64.3671 228.338 62.407C226.347 60.4308 225.36 57.758 225.36 54.3724H230.579C230.579 56.7536 231.265 58.5679 232.636 59.8476C234.008 61.1273 235.948 61.7753 238.474 61.7753C240.933 61.7753 242.873 61.2407 244.278 60.1554C245.683 59.1025 246.402 57.6284 246.402 55.7655Z" fill="#EAB726" stroke="#EAB726" stroke-width="2" stroke-miterlimit="10"/>
<rect x="127.421" y="38.7358" width="31.7066" height="4.72402" fill="#0D8284"/>
<rect x="127.421" y="38.7358" width="31.7066" height="4.72402" fill="black" fill-opacity="0.2"/>
<rect x="127.421" y="50.5459" width="31.7066" height="4.72402" fill="#0D8284"/>
<rect x="127.421" y="50.5459" width="31.7066" height="4.72402" fill="black" fill-opacity="0.2"/>
<path d="M26.6315 115.135V126.534H24.3815V117.729L21.6784 118.588V116.815L26.3894 115.135H26.6315ZM36.8972 115.159V126.534H34.5534V115.159H36.8972ZM43.7097 115.159L39.2019 120.776L36.6003 123.573L36.1784 121.354L37.9362 118.948L40.8347 115.159H43.7097ZM41.0456 126.534L37.694 121.276L39.4284 119.823L43.819 126.534H41.0456ZM49.3503 117.104L46.2565 126.534H43.7644L47.9909 115.159H49.5769L49.3503 117.104ZM51.9206 126.534L48.819 117.104L48.569 115.159H50.1706L54.4206 126.534H51.9206ZM51.78 122.299V124.135H45.7722V122.299H51.78ZM61.3972 123.557C61.3972 123.354 61.3659 123.172 61.3034 123.01C61.2461 122.844 61.1367 122.693 60.9753 122.557C60.8138 122.417 60.5873 122.278 60.2956 122.143C60.0039 122.008 59.6263 121.867 59.1628 121.721C58.6472 121.555 58.1576 121.367 57.694 121.159C57.2357 120.95 56.8295 120.708 56.4753 120.432C56.1263 120.151 55.8503 119.825 55.6472 119.456C55.4492 119.086 55.3503 118.656 55.3503 118.167C55.3503 117.693 55.4545 117.263 55.6628 116.877C55.8711 116.487 56.1628 116.153 56.5378 115.877C56.9128 115.596 57.3555 115.38 57.8659 115.229C58.3815 115.078 58.9466 115.002 59.5612 115.002C60.3998 115.002 61.1315 115.153 61.7565 115.456C62.3815 115.758 62.8659 116.172 63.2097 116.698C63.5586 117.224 63.7331 117.825 63.7331 118.502H61.405C61.405 118.169 61.3347 117.877 61.194 117.627C61.0586 117.372 60.8503 117.172 60.569 117.026C60.293 116.88 59.944 116.807 59.5222 116.807C59.1159 116.807 58.7774 116.87 58.5065 116.995C58.2357 117.114 58.0326 117.278 57.8972 117.487C57.7617 117.69 57.694 117.919 57.694 118.174C57.694 118.367 57.7409 118.542 57.8347 118.698C57.9336 118.854 58.0795 119 58.2722 119.135C58.4649 119.271 58.7019 119.398 58.9831 119.518C59.2644 119.638 59.5899 119.755 59.9597 119.87C60.5795 120.057 61.1237 120.268 61.5925 120.502C62.0664 120.737 62.4623 121 62.78 121.292C63.0977 121.583 63.3373 121.914 63.4987 122.284C63.6602 122.653 63.7409 123.073 63.7409 123.542C63.7409 124.036 63.6446 124.479 63.4519 124.87C63.2591 125.26 62.9805 125.591 62.6159 125.862C62.2513 126.133 61.8164 126.338 61.3112 126.479C60.806 126.62 60.2409 126.69 59.6159 126.69C59.0534 126.69 58.4987 126.617 57.9519 126.471C57.405 126.32 56.9076 126.094 56.4597 125.792C56.017 125.489 55.6628 125.104 55.3972 124.635C55.1315 124.167 54.9987 123.612 54.9987 122.971H57.3503C57.3503 123.325 57.405 123.625 57.5144 123.87C57.6237 124.114 57.7774 124.312 57.9753 124.463C58.1784 124.614 58.418 124.724 58.694 124.792C58.9753 124.859 59.2826 124.893 59.6159 124.893C60.0222 124.893 60.3555 124.836 60.6159 124.721C60.8815 124.607 61.0769 124.448 61.2019 124.245C61.3321 124.042 61.3972 123.812 61.3972 123.557ZM72.9206 119.792V121.62H66.9831V119.792H72.9206ZM67.6784 115.159V126.534H65.3347V115.159H67.6784ZM74.5925 115.159V126.534H72.2565V115.159H74.5925Z" fill="#0D8284"/>
<path d="M26.6315 115.135V126.534H24.3815V117.729L21.6784 118.588V116.815L26.3894 115.135H26.6315ZM36.8972 115.159V126.534H34.5534V115.159H36.8972ZM43.7097 115.159L39.2019 120.776L36.6003 123.573L36.1784 121.354L37.9362 118.948L40.8347 115.159H43.7097ZM41.0456 126.534L37.694 121.276L39.4284 119.823L43.819 126.534H41.0456ZM49.3503 117.104L46.2565 126.534H43.7644L47.9909 115.159H49.5769L49.3503 117.104ZM51.9206 126.534L48.819 117.104L48.569 115.159H50.1706L54.4206 126.534H51.9206ZM51.78 122.299V124.135H45.7722V122.299H51.78ZM61.3972 123.557C61.3972 123.354 61.3659 123.172 61.3034 123.01C61.2461 122.844 61.1367 122.693 60.9753 122.557C60.8138 122.417 60.5873 122.278 60.2956 122.143C60.0039 122.008 59.6263 121.867 59.1628 121.721C58.6472 121.555 58.1576 121.367 57.694 121.159C57.2357 120.95 56.8295 120.708 56.4753 120.432C56.1263 120.151 55.8503 119.825 55.6472 119.456C55.4492 119.086 55.3503 118.656 55.3503 118.167C55.3503 117.693 55.4545 117.263 55.6628 116.877C55.8711 116.487 56.1628 116.153 56.5378 115.877C56.9128 115.596 57.3555 115.38 57.8659 115.229C58.3815 115.078 58.9466 115.002 59.5612 115.002C60.3998 115.002 61.1315 115.153 61.7565 115.456C62.3815 115.758 62.8659 116.172 63.2097 116.698C63.5586 117.224 63.7331 117.825 63.7331 118.502H61.405C61.405 118.169 61.3347 117.877 61.194 117.627C61.0586 117.372 60.8503 117.172 60.569 117.026C60.293 116.88 59.944 116.807 59.5222 116.807C59.1159 116.807 58.7774 116.87 58.5065 116.995C58.2357 117.114 58.0326 117.278 57.8972 117.487C57.7617 117.69 57.694 117.919 57.694 118.174C57.694 118.367 57.7409 118.542 57.8347 118.698C57.9336 118.854 58.0795 119 58.2722 119.135C58.4649 119.271 58.7019 119.398 58.9831 119.518C59.2644 119.638 59.5899 119.755 59.9597 119.87C60.5795 120.057 61.1237 120.268 61.5925 120.502C62.0664 120.737 62.4623 121 62.78 121.292C63.0977 121.583 63.3373 121.914 63.4987 122.284C63.6602 122.653 63.7409 123.073 63.7409 123.542C63.7409 124.036 63.6446 124.479 63.4519 124.87C63.2591 125.26 62.9805 125.591 62.6159 125.862C62.2513 126.133 61.8164 126.338 61.3112 126.479C60.806 126.62 60.2409 126.69 59.6159 126.69C59.0534 126.69 58.4987 126.617 57.9519 126.471C57.405 126.32 56.9076 126.094 56.4597 125.792C56.017 125.489 55.6628 125.104 55.3972 124.635C55.1315 124.167 54.9987 123.612 54.9987 122.971H57.3503C57.3503 123.325 57.405 123.625 57.5144 123.87C57.6237 124.114 57.7774 124.312 57.9753 124.463C58.1784 124.614 58.418 124.724 58.694 124.792C58.9753 124.859 59.2826 124.893 59.6159 124.893C60.0222 124.893 60.3555 124.836 60.6159 124.721C60.8815 124.607 61.0769 124.448 61.2019 124.245C61.3321 124.042 61.3972 123.812 61.3972 123.557ZM72.9206 119.792V121.62H66.9831V119.792H72.9206ZM67.6784 115.159V126.534H65.3347V115.159H67.6784ZM74.5925 115.159V126.534H72.2565V115.159H74.5925Z" fill="black" fill-opacity="0.2"/>
<path d="M95.662 45.7312C95.662 70.7747 74.6941 91.081 48.8346 91.081C22.9609 91.0948 1.99298 70.7885 1.99298 45.7312C1.99298 20.6876 22.9609 0.381348 48.8203 0.381348C74.6941 0.381348 95.662 20.6876 95.662 45.7312Z" fill="#FFEB4C"/>
<path d="M54.2413 90.7765C64.9827 89.5714 74.6228 84.8619 81.8886 77.853C74.5799 81.2605 67.2854 84.6957 59.9767 88.117C58.0744 89.0173 56.1578 89.89 54.2413 90.7765Z" fill="#FFEB4C"/>
<path d="M83.6906 45.0247C83.6906 64.0705 67.7573 79.5011 48.0909 79.5011C28.4246 79.5011 12.4913 64.0705 12.4913 45.0247C12.4913 25.9789 28.4246 10.5483 48.0909 10.5483C67.743 10.5345 83.6906 25.9789 83.6906 45.0247Z" fill="#EAB726"/>
<path d="M84.6918 46.4514C84.6918 65.234 68.973 80.4707 49.5641 80.4707C30.1695 80.4707 14.4365 65.2479 14.4365 46.4514C14.4365 27.6688 30.1695 12.4321 49.5641 12.4321C68.973 12.4321 84.6918 27.6688 84.6918 46.4514Z" fill="#FFEB4C"/>
<path d="M42.0122 30.4668V63.6134C42.0122 66.5638 39.5522 68.9601 36.5057 68.9601C33.4592 68.9601 30.9991 66.5638 30.9991 63.6134V30.4668C30.9991 27.5164 33.4592 25.1201 36.5057 25.1201C39.5379 25.1201 42.0122 27.5164 42.0122 30.4668Z" fill="#EAB726"/>
<path d="M61.507 68.9604C59.7335 68.9604 58.0744 68.0739 57.1447 66.6195L43.3282 45.1497C43.2424 45.0112 43.1995 44.8588 43.1995 44.6926C43.1995 44.374 43.3997 44.0693 43.7001 43.9308C50.1792 40.7449 52.9254 35.8969 54.9135 28.8188C55.5142 26.6579 57.5452 25.1343 59.8765 25.1343H60.2913C63.7526 25.1343 66.2413 28.3617 65.1972 31.5475C62.6656 39.2628 59.2043 43.0027 55.3139 45.9254L65.8265 61.3144C68.0434 64.5833 65.5976 68.9604 61.507 68.9604Z" fill="#EAB726"/>
</svg>
