<svg width="245" height="91" viewBox="0 0 245 91" fill="none" xmlns="http://www.w3.org/2000/svg">
<g filter="url(#filter0_d_8106_96814)">
<rect x="9.23242" y="4.62402" width="227" height="73.0651" rx="7.5" fill="#1A1A1A"/>
<g clip-path="url(#clip0_8106_96814)">
<path d="M23.4209 20.8826L55.5222 40.3124L23.4209 59.7421V20.8826Z" fill="#518FF5"/>
<path d="M23.4348 20.8887L45.0655 46.6409L55.5228 40.3117L23.4348 20.8887V20.8887Z" fill="#34A853"/>
<path d="M45.0392 33.9663L23.4218 59.7053V59.7408L55.5229 40.3111L45.0392 33.9655V33.9663Z" fill="#DD5044"/>
<path d="M45.0391 33.9661L39.7296 40.2886L45.0655 46.6409L55.5228 40.3117L45.0391 33.9661V33.9661Z" fill="#F5BA15"/>
</g>
<path d="M91.6025 28.124V18.118H95.5191C96.2338 18.118 96.8771 18.2372 97.4488 18.4754C98.0301 18.7136 98.5257 19.0567 98.9354 19.5046C99.3452 19.9525 99.6597 20.4814 99.8788 21.0912C100.098 21.7011 100.208 22.3777 100.208 23.121C100.208 23.8643 100.098 24.5457 99.8788 25.1651C99.6597 25.775 99.3452 26.3039 98.9354 26.7518C98.5352 27.1901 98.0444 27.5284 97.4631 27.7667C96.8818 28.0049 96.2338 28.124 95.5191 28.124H91.6025ZM93.1462 26.7947L93.1034 26.6374H95.4476C95.9527 26.6374 96.4006 26.5564 96.7913 26.3944C97.1915 26.2324 97.5251 26.0037 97.7919 25.7083C98.0682 25.4033 98.2779 25.0317 98.4208 24.5933C98.5638 24.155 98.6352 23.6642 98.6352 23.121C98.6352 22.5778 98.5638 22.0918 98.4208 21.663C98.2779 21.2247 98.0682 20.853 97.7919 20.5481C97.5155 20.2431 97.182 20.0096 96.7913 19.8476C96.4006 19.6856 95.9527 19.6046 95.4476 19.6046H93.0605L93.1462 19.476V26.7947ZM102.167 28.124V20.6195H103.639V28.124H102.167ZM102.881 18.9614C102.567 18.9614 102.324 18.8804 102.152 18.7184C101.981 18.5564 101.895 18.3277 101.895 18.0323C101.895 17.7559 101.981 17.532 102.152 17.3604C102.333 17.1889 102.576 17.1031 102.881 17.1031C103.196 17.1031 103.439 17.1841 103.61 17.3461C103.782 17.5081 103.868 17.7369 103.868 18.0323C103.868 18.3086 103.777 18.5326 103.596 18.7041C103.424 18.8756 103.186 18.9614 102.881 18.9614ZM108.403 28.267C107.775 28.267 107.208 28.1574 106.702 27.9382C106.197 27.719 105.778 27.395 105.445 26.9662L106.445 26.1085C106.731 26.4421 107.041 26.6851 107.374 26.8375C107.717 26.9805 108.103 27.052 108.532 27.052C108.704 27.052 108.861 27.0329 109.004 26.9948C109.156 26.9471 109.285 26.8804 109.39 26.7947C109.504 26.7089 109.59 26.6088 109.647 26.4945C109.704 26.3706 109.733 26.2372 109.733 26.0942C109.733 25.8465 109.642 25.6463 109.461 25.4939C109.366 25.4272 109.213 25.3557 109.004 25.2795C108.804 25.1937 108.542 25.1079 108.218 25.0222C107.665 24.8792 107.212 24.7172 106.86 24.5362C106.507 24.3551 106.236 24.1502 106.045 23.9215C105.902 23.7404 105.797 23.5451 105.73 23.3354C105.664 23.1163 105.63 22.878 105.63 22.6207C105.63 22.3063 105.697 22.0204 105.831 21.7631C105.973 21.4962 106.164 21.2675 106.402 21.0769C106.65 20.8768 106.936 20.7244 107.26 20.6195C107.593 20.5147 107.946 20.4623 108.318 20.4623C108.67 20.4623 109.018 20.5099 109.361 20.6052C109.714 20.7005 110.038 20.8387 110.333 21.0198C110.629 21.2008 110.876 21.4152 111.077 21.663L110.233 22.5921C110.052 22.4111 109.852 22.2538 109.633 22.1204C109.423 21.9775 109.209 21.8679 108.99 21.7917C108.77 21.7154 108.57 21.6773 108.389 21.6773C108.189 21.6773 108.008 21.6964 107.846 21.7345C107.684 21.7726 107.546 21.8298 107.431 21.906C107.327 21.9823 107.246 22.0775 107.188 22.1919C107.131 22.3063 107.103 22.4349 107.103 22.5778C107.112 22.7017 107.141 22.8208 107.188 22.9352C107.246 23.04 107.322 23.1306 107.417 23.2068C107.522 23.283 107.679 23.364 107.889 23.4498C108.099 23.5356 108.365 23.6166 108.689 23.6928C109.166 23.8167 109.557 23.9549 109.862 24.1073C110.176 24.2503 110.424 24.417 110.605 24.6076C110.795 24.7887 110.929 24.9983 111.005 25.2366C111.081 25.4748 111.119 25.7416 111.119 26.0371C111.119 26.4659 110.996 26.8518 110.748 27.1949C110.51 27.5284 110.186 27.7905 109.776 27.9811C109.366 28.1717 108.909 28.267 108.403 28.267ZM112.742 31.2688V20.6195H114.229V22.3348L114 22.2062C114.057 21.9203 114.219 21.6487 114.486 21.3914C114.753 21.1246 115.077 20.9102 115.458 20.7482C115.849 20.5766 116.249 20.4909 116.659 20.4909C117.335 20.4909 117.936 20.6576 118.46 20.9912C118.984 21.3247 119.398 21.7821 119.703 22.3634C120.008 22.9447 120.161 23.6118 120.161 24.3646C120.161 25.1079 120.008 25.775 119.703 26.3658C119.408 26.9471 118.998 27.4093 118.474 27.7524C117.95 28.0859 117.359 28.2527 116.702 28.2527C116.263 28.2527 115.839 28.1669 115.429 27.9954C115.02 27.8143 114.672 27.5856 114.386 27.3092C114.1 27.0329 113.924 26.747 113.857 26.4516L114.229 26.2515V31.2688H112.742ZM116.459 26.8947C116.897 26.8947 117.288 26.7851 117.631 26.5659C117.974 26.3468 118.245 26.0466 118.445 25.6654C118.646 25.2842 118.746 24.8506 118.746 24.3646C118.746 23.8786 118.646 23.4498 118.445 23.0781C118.255 22.697 117.988 22.3968 117.645 22.1776C117.302 21.9584 116.906 21.8488 116.459 21.8488C116.011 21.8488 115.615 21.9584 115.272 22.1776C114.929 22.3873 114.657 22.6827 114.457 23.0639C114.257 23.445 114.157 23.8786 114.157 24.3646C114.157 24.8506 114.257 25.2842 114.457 25.6654C114.657 26.0466 114.929 26.3468 115.272 26.5659C115.615 26.7851 116.011 26.8947 116.459 26.8947ZM125.133 28.267C124.399 28.267 123.742 28.1002 123.161 27.7667C122.589 27.4236 122.136 26.9614 121.803 26.3801C121.469 25.7893 121.302 25.1175 121.302 24.3646C121.302 23.6118 121.469 22.9447 121.803 22.3634C122.136 21.7726 122.589 21.3104 123.161 20.9769C123.742 20.6338 124.399 20.4623 125.133 20.4623C125.857 20.4623 126.505 20.6338 127.077 20.9769C127.658 21.3104 128.116 21.7726 128.449 22.3634C128.783 22.9447 128.95 23.6118 128.95 24.3646C128.95 25.1175 128.783 25.7893 128.449 26.3801C128.116 26.9614 127.658 27.4236 127.077 27.7667C126.505 28.1002 125.857 28.267 125.133 28.267ZM125.133 26.9233C125.581 26.9233 125.981 26.8137 126.334 26.5945C126.686 26.3658 126.963 26.0609 127.163 25.6797C127.363 25.289 127.458 24.8506 127.449 24.3646C127.458 23.8691 127.363 23.4307 127.163 23.0496C126.963 22.6588 126.686 22.3539 126.334 22.1347C125.981 21.9155 125.581 21.806 125.133 21.806C124.685 21.806 124.28 21.9203 123.918 22.149C123.566 22.3682 123.289 22.6731 123.089 23.0639C122.889 23.445 122.794 23.8786 122.803 24.3646C122.794 24.8506 122.889 25.289 123.089 25.6797C123.289 26.0609 123.566 26.3658 123.918 26.5945C124.28 26.8137 124.685 26.9233 125.133 26.9233ZM130.554 28.124V20.6195H132.026V22.1633L131.769 22.3348C131.864 22.0013 132.05 21.6964 132.327 21.42C132.603 21.1341 132.932 20.9054 133.313 20.7339C133.694 20.5528 134.085 20.4623 134.485 20.4623C135.057 20.4623 135.533 20.5766 135.914 20.8054C136.296 21.0245 136.581 21.3628 136.772 21.8202C136.963 22.2777 137.058 22.8542 137.058 23.5499V28.124H135.586V23.6499C135.586 23.2211 135.528 22.8685 135.414 22.5921C135.3 22.3063 135.123 22.1014 134.885 21.9775C134.647 21.8441 134.352 21.7869 133.999 21.806C133.713 21.806 133.451 21.8536 133.213 21.9489C132.975 22.0347 132.765 22.1585 132.584 22.3205C132.412 22.4826 132.274 22.6731 132.169 22.8923C132.074 23.102 132.026 23.3307 132.026 23.5784V28.124H131.297C131.173 28.124 131.05 28.124 130.926 28.124C130.802 28.124 130.678 28.124 130.554 28.124ZM139.298 28.124V20.6195H140.771V28.124H139.298ZM140.013 18.9614C139.698 18.9614 139.455 18.8804 139.284 18.7184C139.112 18.5564 139.027 18.3277 139.027 18.0323C139.027 17.7559 139.112 17.532 139.284 17.3604C139.465 17.1889 139.708 17.1031 140.013 17.1031C140.327 17.1031 140.57 17.1841 140.742 17.3461C140.913 17.5081 140.999 17.7369 140.999 18.0323C140.999 18.3086 140.909 18.5326 140.728 18.7041C140.556 18.8756 140.318 18.9614 140.013 18.9614ZM146.979 28.267C146.655 28.267 146.331 28.2146 146.007 28.1097C145.692 28.0049 145.402 27.8667 145.135 27.6952C144.878 27.5141 144.658 27.3188 144.477 27.1091C144.306 26.89 144.191 26.6708 144.134 26.4516L144.506 26.2515V28.0811H143.034V17.5463H144.506V22.3348L144.277 22.2062C144.325 21.987 144.43 21.7774 144.592 21.5772C144.754 21.3676 144.959 21.1818 145.206 21.0198C145.464 20.8482 145.74 20.7148 146.035 20.6195C146.331 20.5147 146.631 20.4623 146.936 20.4623C147.613 20.4623 148.213 20.6291 148.737 20.9626C149.261 21.2961 149.676 21.7583 149.981 22.3491C150.286 22.9304 150.438 23.5975 150.438 24.3503C150.438 25.1032 150.286 25.775 149.981 26.3658C149.685 26.9567 149.275 27.4236 148.751 27.7667C148.227 28.1002 147.636 28.267 146.979 28.267ZM146.736 26.9233C147.174 26.9233 147.565 26.8137 147.908 26.5945C148.251 26.3658 148.523 26.0609 148.723 25.6797C148.923 25.289 149.023 24.8459 149.023 24.3503C149.023 23.8643 148.923 23.4307 148.723 23.0496C148.532 22.6588 148.265 22.3539 147.922 22.1347C147.579 21.9155 147.184 21.806 146.736 21.806C146.288 21.806 145.892 21.9155 145.549 22.1347C145.206 22.3539 144.935 22.6588 144.735 23.0496C144.534 23.4307 144.434 23.8643 144.434 24.3503C144.434 24.8459 144.534 25.289 144.735 25.6797C144.935 26.0609 145.206 26.3658 145.549 26.5945C145.892 26.8137 146.288 26.9233 146.736 26.9233ZM152.066 28.124V17.5463H153.538V28.124H152.066ZM158.987 28.267C158.215 28.267 157.529 28.105 156.929 27.781C156.338 27.4474 155.871 26.9948 155.528 26.423C155.195 25.8512 155.028 25.1937 155.028 24.4504C155.028 23.8596 155.123 23.3211 155.314 22.8351C155.504 22.3491 155.766 21.9298 156.1 21.5772C156.443 21.2151 156.848 20.9388 157.315 20.7482C157.791 20.5481 158.306 20.448 158.859 20.448C159.345 20.448 159.797 20.5433 160.217 20.7339C160.636 20.9149 160.998 21.1675 161.303 21.4915C161.617 21.8155 161.856 22.2014 162.018 22.6493C162.189 23.0877 162.27 23.5689 162.261 24.093L162.246 24.722H156.114L155.785 23.5499H160.974L160.76 23.7929V23.4498C160.731 23.1353 160.626 22.8542 160.445 22.6064C160.264 22.3587 160.036 22.1633 159.759 22.0204C159.483 21.8774 159.183 21.806 158.859 21.806C158.344 21.806 157.911 21.906 157.558 22.1061C157.205 22.2967 156.938 22.5826 156.757 22.9638C156.576 23.3354 156.486 23.7976 156.486 24.3503C156.486 24.8745 156.595 25.3319 156.815 25.7226C157.034 26.1038 157.343 26.3992 157.744 26.6088C158.144 26.8185 158.606 26.9233 159.13 26.9233C159.502 26.9233 159.845 26.8614 160.159 26.7375C160.483 26.6136 160.831 26.3897 161.203 26.0656L161.946 27.1091C161.718 27.3378 161.436 27.538 161.103 27.7095C160.779 27.881 160.431 28.0192 160.059 28.124C159.697 28.2193 159.34 28.267 158.987 28.267ZM171.369 28.267C170.597 28.267 169.911 28.105 169.311 27.781C168.72 27.4474 168.253 26.9948 167.91 26.423C167.576 25.8512 167.41 25.1937 167.41 24.4504C167.41 23.8596 167.505 23.3211 167.696 22.8351C167.886 22.3491 168.148 21.9298 168.482 21.5772C168.825 21.2151 169.23 20.9388 169.697 20.7482C170.173 20.5481 170.688 20.448 171.241 20.448C171.727 20.448 172.179 20.5433 172.598 20.7339C173.018 20.9149 173.38 21.1675 173.685 21.4915C173.999 21.8155 174.238 22.2014 174.4 22.6493C174.571 23.0877 174.652 23.5689 174.643 24.093L174.628 24.722H168.496L168.167 23.5499H173.356L173.142 23.7929V23.4498C173.113 23.1353 173.008 22.8542 172.827 22.6064C172.646 22.3587 172.417 22.1633 172.141 22.0204C171.865 21.8774 171.565 21.806 171.241 21.806C170.726 21.806 170.292 21.906 169.94 22.1061C169.587 22.2967 169.32 22.5826 169.139 22.9638C168.958 23.3354 168.868 23.7976 168.868 24.3503C168.868 24.8745 168.977 25.3319 169.196 25.7226C169.416 26.1038 169.725 26.3992 170.126 26.6088C170.526 26.8185 170.988 26.9233 171.512 26.9233C171.884 26.9233 172.227 26.8614 172.541 26.7375C172.865 26.6136 173.213 26.3897 173.585 26.0656L174.328 27.1091C174.099 27.3378 173.818 27.538 173.485 27.7095C173.161 27.881 172.813 28.0192 172.441 28.124C172.079 28.2193 171.722 28.267 171.369 28.267ZM176.243 28.124V20.6195H177.715V22.1633L177.458 22.3348C177.553 22.0013 177.739 21.6964 178.015 21.42C178.291 21.1341 178.62 20.9054 179.001 20.7339C179.383 20.5528 179.773 20.4623 180.174 20.4623C180.745 20.4623 181.222 20.5766 181.603 20.8054C181.984 21.0245 182.27 21.3628 182.461 21.8202C182.651 22.2777 182.747 22.8542 182.747 23.5499V28.124H181.274V23.6499C181.274 23.2211 181.217 22.8685 181.103 22.5921C180.988 22.3063 180.812 22.1014 180.574 21.9775C180.336 21.8441 180.04 21.7869 179.688 21.806C179.402 21.806 179.14 21.8536 178.901 21.9489C178.663 22.0347 178.453 22.1585 178.272 22.3205C178.101 22.4826 177.963 22.6731 177.858 22.8923C177.763 23.102 177.715 23.3307 177.715 23.5784V28.124H176.986C176.862 28.124 176.738 28.124 176.614 28.124C176.49 28.124 176.367 28.124 176.243 28.124Z" fill="#EEEEEE"/>
<path d="M100.392 57.8034C99.2917 57.8034 98.2639 57.608 97.3084 57.2172C96.353 56.8118 95.5134 56.2545 94.7896 55.5452C94.0658 54.8358 93.5012 54.0107 93.0959 53.0698C92.705 52.1143 92.5096 51.0865 92.5096 49.9863C92.5096 48.9006 92.705 47.8873 93.0959 46.9464C93.5012 46.0054 94.0585 45.1875 94.7679 44.4927C95.4917 43.7833 96.3313 43.2332 97.2867 42.8424C98.2421 42.4515 99.27 42.2561 100.37 42.2561C101.137 42.2561 101.883 42.3647 102.607 42.5818C103.345 42.7989 104.011 43.1029 104.604 43.4938C105.198 43.8847 105.683 44.3334 106.059 44.8401L104.539 46.4252C104.105 46.0054 103.656 45.658 103.193 45.3829C102.744 45.1079 102.281 44.898 101.803 44.7532C101.326 44.6085 100.848 44.5361 100.37 44.5361C99.5884 44.5361 98.8646 44.6736 98.1987 44.9487C97.5473 45.2237 96.9682 45.6073 96.4616 46.0995C95.9694 46.5917 95.5858 47.1707 95.3107 47.8366C95.0357 48.4881 94.8982 49.2046 94.8982 49.9863C94.8982 50.7391 95.0429 51.4557 95.3324 52.136C95.622 52.8019 96.0201 53.3882 96.5267 53.8949C97.0479 54.4016 97.6414 54.7997 98.3073 55.0892C98.9877 55.3787 99.7042 55.5235 100.457 55.5235C101.022 55.5235 101.557 55.4438 102.064 55.2846C102.571 55.1109 103.019 54.872 103.41 54.568C103.801 54.264 104.105 53.9166 104.322 53.5258C104.539 53.1204 104.648 52.6934 104.648 52.2446V51.8103L104.974 52.1143H100.327V49.7909H107.058C107.087 49.9501 107.109 50.1094 107.123 50.2686C107.138 50.4134 107.145 50.5581 107.145 50.7029C107.159 50.8332 107.167 50.9635 107.167 51.0938C107.167 52.0926 106.993 53.0046 106.646 53.8298C106.298 54.6404 105.813 55.3425 105.191 55.936C104.583 56.5295 103.866 56.9928 103.041 57.3257C102.23 57.6442 101.347 57.8034 100.392 57.8034ZM114.78 57.8034C113.666 57.8034 112.667 57.5501 111.784 57.0434C110.915 56.5223 110.227 55.8202 109.721 54.9372C109.214 54.0397 108.961 53.0191 108.961 51.8755C108.961 50.7319 109.214 49.7185 109.721 48.8355C110.227 47.938 110.915 47.2359 111.784 46.7292C112.667 46.2081 113.666 45.9475 114.78 45.9475C115.88 45.9475 116.865 46.2081 117.733 46.7292C118.616 47.2359 119.311 47.938 119.818 48.8355C120.325 49.7185 120.578 50.7319 120.578 51.8755C120.578 53.0191 120.325 54.0397 119.818 54.9372C119.311 55.8202 118.616 56.5223 117.733 57.0434C116.865 57.5501 115.88 57.8034 114.78 57.8034ZM114.78 55.7623C115.461 55.7623 116.069 55.5958 116.604 55.2629C117.14 54.9155 117.56 54.4522 117.864 53.8732C118.168 53.2797 118.312 52.6138 118.298 51.8755C118.312 51.1227 118.168 50.4568 117.864 49.8778C117.56 49.2842 117.14 48.821 116.604 48.4881C116.069 48.1551 115.461 47.9886 114.78 47.9886C114.1 47.9886 113.485 48.1623 112.935 48.5098C112.399 48.8427 111.979 49.306 111.675 49.8995C111.371 50.4785 111.226 51.1372 111.241 51.8755C111.226 52.6138 111.371 53.2797 111.675 53.8732C111.979 54.4522 112.399 54.9155 112.935 55.2629C113.485 55.5958 114.1 55.7623 114.78 55.7623ZM128.14 57.8034C127.025 57.8034 126.026 57.5501 125.143 57.0434C124.274 56.5223 123.587 55.8202 123.08 54.9372C122.573 54.0397 122.32 53.0191 122.32 51.8755C122.32 50.7319 122.573 49.7185 123.08 48.8355C123.587 47.938 124.274 47.2359 125.143 46.7292C126.026 46.2081 127.025 45.9475 128.14 45.9475C129.24 45.9475 130.224 46.2081 131.093 46.7292C131.976 47.2359 132.671 47.938 133.177 48.8355C133.684 49.7185 133.937 50.7319 133.937 51.8755C133.937 53.0191 133.684 54.0397 133.177 54.9372C132.671 55.8202 131.976 56.5223 131.093 57.0434C130.224 57.5501 129.24 57.8034 128.14 57.8034ZM128.14 55.7623C128.82 55.7623 129.428 55.5958 129.964 55.2629C130.499 54.9155 130.919 54.4522 131.223 53.8732C131.527 53.2797 131.672 52.6138 131.657 51.8755C131.672 51.1227 131.527 50.4568 131.223 49.8778C130.919 49.2842 130.499 48.821 129.964 48.4881C129.428 48.1551 128.82 47.9886 128.14 47.9886C127.459 47.9886 126.844 48.1623 126.294 48.5098C125.758 48.8427 125.338 49.306 125.034 49.8995C124.73 50.4785 124.586 51.1372 124.6 51.8755C124.586 52.6138 124.73 53.2797 125.034 53.8732C125.338 54.4522 125.758 54.9155 126.294 55.2629C126.844 55.5958 127.459 55.7623 128.14 55.7623ZM141.477 62.5806C140.666 62.5806 139.856 62.4503 139.045 62.1897C138.249 61.9436 137.605 61.6179 137.113 61.2126L137.938 59.4754C138.227 59.6926 138.567 59.8808 138.958 60.04C139.349 60.2137 139.762 60.344 140.196 60.4309C140.63 60.5322 141.057 60.5829 141.477 60.5829C142.273 60.5829 142.939 60.4526 143.475 60.192C144.01 59.9314 144.416 59.5478 144.691 59.0412C144.966 58.5345 145.103 57.9048 145.103 57.152V54.9589L145.342 55.1109C145.27 55.5596 145.031 55.9939 144.626 56.4137C144.235 56.8191 143.743 57.152 143.149 57.4126C142.556 57.6732 141.948 57.8034 141.325 57.8034C140.239 57.8034 139.27 57.5501 138.415 57.0434C137.576 56.5223 136.91 55.8202 136.418 54.9372C135.926 54.0397 135.679 53.0191 135.679 51.8755C135.679 50.7319 135.918 49.7185 136.396 48.8355C136.888 47.938 137.554 47.2359 138.394 46.7292C139.248 46.2081 140.203 45.9475 141.26 45.9475C141.694 45.9475 142.114 46.0054 142.519 46.1212C142.925 46.2225 143.301 46.3745 143.649 46.5772C143.996 46.7654 144.307 46.9753 144.582 47.2069C144.857 47.4385 145.082 47.6846 145.255 47.9452C145.429 48.2058 145.538 48.4519 145.581 48.6835L145.103 48.8572V46.1864H147.34V56.8914C147.34 57.8034 147.202 58.6069 146.927 59.3017C146.667 60.0111 146.283 60.6046 145.777 61.0823C145.27 61.5745 144.655 61.9436 143.931 62.1897C143.207 62.4503 142.389 62.5806 141.477 62.5806ZM141.564 55.7406C142.273 55.7406 142.903 55.5741 143.453 55.2412C144.003 54.9082 144.43 54.4522 144.734 53.8732C145.038 53.2941 145.19 52.6282 145.19 51.8755C145.19 51.1227 145.031 50.4568 144.713 49.8778C144.409 49.2842 143.981 48.821 143.431 48.4881C142.896 48.1551 142.273 47.9886 141.564 47.9886C140.869 47.9886 140.247 48.1623 139.697 48.5098C139.161 48.8427 138.734 49.306 138.415 49.8995C138.111 50.4785 137.959 51.1372 137.959 51.8755C137.959 52.6138 138.111 53.2797 138.415 53.8732C138.734 54.4522 139.161 54.9082 139.697 55.2412C140.247 55.5741 140.869 55.7406 141.564 55.7406ZM150.519 57.5863V41.5178H152.756V57.5863H150.519ZM161.033 57.8034C159.861 57.8034 158.819 57.5574 157.907 57.0652C157.009 56.5585 156.3 55.8709 155.779 55.0023C155.272 54.1337 155.019 53.1349 155.019 52.0058C155.019 51.1082 155.163 50.2903 155.453 49.5521C155.742 48.8138 156.141 48.1768 156.647 47.6412C157.168 47.0911 157.784 46.6713 158.493 46.3818C159.217 46.0778 159.998 45.9258 160.838 45.9258C161.576 45.9258 162.264 46.0706 162.901 46.3601C163.538 46.6351 164.088 47.0187 164.551 47.5109C165.029 48.0031 165.391 48.5894 165.637 49.2698C165.897 49.9357 166.02 50.6667 166.006 51.4629L165.984 52.4183H156.669L156.169 50.6378H164.052L163.726 51.0069V50.4858C163.683 50.0081 163.523 49.581 163.248 49.2046C162.973 48.8283 162.626 48.5315 162.206 48.3143C161.786 48.0972 161.33 47.9886 160.838 47.9886C160.056 47.9886 159.398 48.1406 158.862 48.4446C158.326 48.7342 157.921 49.1684 157.646 49.7475C157.371 50.3121 157.233 51.0141 157.233 51.8538C157.233 52.6499 157.4 53.3448 157.733 53.9383C158.066 54.5174 158.536 54.9661 159.144 55.2846C159.752 55.6031 160.454 55.7623 161.251 55.7623C161.815 55.7623 162.336 55.6682 162.814 55.48C163.306 55.2918 163.835 54.9516 164.399 54.4595L165.528 56.0446C165.181 56.392 164.754 56.696 164.247 56.9566C163.755 57.2172 163.227 57.4271 162.662 57.5863C162.112 57.7311 161.569 57.8034 161.033 57.8034ZM175.087 57.5863V42.3864H181.276C182.101 42.3864 182.846 42.5963 183.512 43.0161C184.193 43.4214 184.735 43.9788 185.141 44.6881C185.546 45.3974 185.749 46.1864 185.749 47.0549C185.749 47.9235 185.546 48.7124 185.141 49.4218C184.735 50.1311 184.193 50.7029 183.512 51.1372C182.846 51.557 182.101 51.7669 181.276 51.7669H177.432V57.5863H175.087ZM177.432 49.5086H181.232C181.623 49.5086 181.978 49.4001 182.296 49.1829C182.615 48.9513 182.868 48.6545 183.056 48.2926C183.259 47.9163 183.36 47.5037 183.36 47.0549C183.36 46.6062 183.259 46.2008 183.056 45.8389C182.868 45.477 182.615 45.1875 182.296 44.9704C181.978 44.7532 181.623 44.6447 181.232 44.6447H177.432V49.5086ZM188.328 57.5863V41.5178H190.565V57.5863H188.328ZM197.909 57.8034C196.968 57.8034 196.106 57.5429 195.325 57.0217C194.557 56.5006 193.942 55.7913 193.479 54.8937C193.016 53.9962 192.784 52.9829 192.784 51.8538C192.784 50.7101 193.016 49.6968 193.479 48.8138C193.957 47.9163 194.594 47.2142 195.39 46.7075C196.201 46.2008 197.105 45.9475 198.104 45.9475C198.698 45.9475 199.241 46.0344 199.733 46.2081C200.225 46.3818 200.652 46.6279 201.014 46.9464C201.39 47.2504 201.694 47.605 201.926 48.0104C202.172 48.4157 202.324 48.85 202.382 49.3132L201.882 49.1395V46.1864H204.141V57.5863H201.882V54.872L202.404 54.72C202.317 55.1109 202.136 55.4945 201.861 55.8709C201.6 56.2328 201.26 56.5585 200.84 56.848C200.435 57.1375 199.979 57.3692 199.472 57.5429C198.98 57.7166 198.459 57.8034 197.909 57.8034ZM198.495 55.7406C199.175 55.7406 199.776 55.5741 200.297 55.2412C200.818 54.9082 201.224 54.4522 201.513 53.8732C201.817 53.2797 201.969 52.6065 201.969 51.8538C201.969 51.1155 201.817 50.4568 201.513 49.8778C201.224 49.2987 200.818 48.8427 200.297 48.5098C199.776 48.1768 199.175 48.0104 198.495 48.0104C197.829 48.0104 197.236 48.1768 196.714 48.5098C196.208 48.8427 195.802 49.2987 195.498 49.8778C195.209 50.4568 195.064 51.1155 195.064 51.8538C195.064 52.6065 195.209 53.2797 195.498 53.8732C195.802 54.4522 196.208 54.9082 196.714 55.2412C197.236 55.5741 197.829 55.7406 198.495 55.7406ZM208.92 62.5806L211.222 57.2606L211.243 59.0412L205.554 46.1864H208.16L211.721 54.568C211.793 54.7128 211.88 54.9372 211.982 55.2412C212.083 55.5307 212.17 55.8202 212.242 56.1097L211.678 56.24C211.793 55.936 211.902 55.632 212.003 55.328C212.119 55.024 212.228 54.72 212.329 54.416L215.304 46.1864H217.953L213.263 57.5863L211.33 62.5806H208.92Z" fill="#EEEEEE"/>
<rect x="9.23242" y="4.62402" width="227" height="73.0651" rx="7.5" stroke="#EEEEEE"/>
</g>
<defs>
<filter id="filter0_d_8106_96814" x="0.732422" y="0.124023" width="244" height="90.0652" filterUnits="userSpaceOnUse" color-interpolation-filters="sRGB">
<feFlood flood-opacity="0" result="BackgroundImageFix"/>
<feColorMatrix in="SourceAlpha" type="matrix" values="0 0 0 0 0 0 0 0 0 0 0 0 0 0 0 0 0 0 127 0" result="hardAlpha"/>
<feOffset dy="4"/>
<feGaussianBlur stdDeviation="4"/>
<feComposite in2="hardAlpha" operator="out"/>
<feColorMatrix type="matrix" values="0 0 0 0 0 0 0 0 0 0 0 0 0 0 0 0 0 0 0.25 0"/>
<feBlend mode="normal" in2="BackgroundImageFix" result="effect1_dropShadow_8106_96814"/>
<feBlend mode="normal" in="SourceGraphic" in2="effect1_dropShadow_8106_96814" result="shape"/>
</filter>
<clipPath id="clip0_8106_96814">
<rect width="54.0651" height="54.0651" fill="white" transform="translate(23.4214 14.124)"/>
</clipPath>
</defs>
</svg>
