<svg width="106" height="69" viewBox="0 0 106 69" fill="none" xmlns="http://www.w3.org/2000/svg">
<path d="M14.7213 68.9312C7.97854 68.9312 2.05152 64.1812 0.967313 57.5312C-0.230482 50.1712 4.9634 43.2512 12.5632 42.0912L89.253 30.3812C96.8425 29.2212 103.998 34.2512 105.196 41.6112C106.394 48.9712 101.2 55.8912 93.6002 57.0512L16.9 68.7612C16.1669 68.8712 15.4338 68.9312 14.7213 68.9312Z" fill="#FFEB4C"/>
<path d="M9.36277 8.89104C12.4502 8.43104 14.8148 8.61104 16.4566 9.43104C18.0984 10.251 18.9142 11.781 18.9142 14.021C18.9142 15.421 18.5837 16.601 17.9229 17.571C17.262 18.541 16.3017 19.371 15.0626 20.051C15.4757 20.491 15.9093 20.991 16.3637 21.571C16.818 22.141 17.2723 22.751 17.7164 23.381C18.1604 24.011 18.5941 24.681 19.0071 25.371C19.4201 26.071 19.8125 26.751 20.1636 27.431L14.9903 28.201C14.6083 27.611 14.2262 27.001 13.8442 26.391C13.4621 25.781 13.0594 25.181 12.6567 24.611C12.254 24.041 11.8513 23.501 11.4486 22.991C11.0459 22.481 10.6535 22.031 10.2611 21.631L7.97911 21.971V29.241L3.35315 29.921V10.301C4.34443 9.96104 5.38734 9.67104 6.47155 9.44104C7.54543 9.20104 8.50573 9.02104 9.36277 8.89104ZM9.63125 12.671C9.29049 12.721 8.99104 12.771 8.72257 12.831C8.4541 12.891 8.20628 12.951 7.96879 13.001V18.401L9.26984 18.211C11.0046 17.951 12.254 17.561 13.0078 17.031C13.7616 16.501 14.1333 15.721 14.1333 14.711C14.1333 13.731 13.7512 13.101 12.9871 12.801C12.2334 12.501 11.1078 12.461 9.63125 12.671Z" fill="#084748"/>
<path d="M21.3409 19.8208C21.3409 18.4808 21.5577 17.2808 21.9811 16.2108C22.4044 15.1408 22.962 14.2208 23.6539 13.4508C24.3457 12.6808 25.1408 12.0508 26.0391 11.5708C26.9375 11.0908 27.8668 10.7808 28.8168 10.6408C31.0265 10.3108 32.7819 10.7108 34.0623 11.8308C35.3427 12.9508 35.9932 14.7908 35.9932 17.3308C35.9932 17.5808 35.9829 17.8508 35.9622 18.1508C35.9416 18.4508 35.9209 18.7208 35.9003 18.9508L25.8739 20.4308C25.9772 21.3008 26.4005 21.9308 27.1543 22.3408C27.9081 22.7508 28.92 22.8608 30.1798 22.6708C30.9955 22.5508 31.7803 22.3608 32.565 22.1008C33.3498 21.8408 33.9797 21.5708 34.4753 21.2908L35.0742 24.6808C34.8367 24.8308 34.5166 24.9908 34.1242 25.1708C33.7319 25.3408 33.2879 25.5108 32.8025 25.6708C32.3172 25.8308 31.8009 25.9808 31.2433 26.1208C30.6857 26.2608 30.1385 26.3708 29.5809 26.4508C28.1766 26.6608 26.9581 26.6408 25.9152 26.3908C24.8723 26.1408 24.0153 25.7208 23.3338 25.1208C22.6523 24.5208 22.1463 23.7708 21.8159 22.8608C21.4854 21.9508 21.3409 20.9308 21.3409 19.8208ZM31.7287 16.6408C31.708 16.2808 31.646 15.9308 31.5325 15.6108C31.4189 15.2808 31.2537 15.0008 31.0265 14.7708C30.7993 14.5408 30.5102 14.3608 30.1695 14.2408C29.8287 14.1208 29.395 14.1008 28.8787 14.1708C28.3831 14.2408 27.9597 14.3908 27.6087 14.6008C27.2576 14.8108 26.9581 15.0708 26.7206 15.3808C26.4831 15.6808 26.2973 16.0208 26.1734 16.3908C26.0391 16.7608 25.9462 17.1408 25.8946 17.5108L31.7287 16.6408Z" fill="#084748"/>
<path d="M46.1745 1.29103C47.0005 1.17103 47.6924 1.13103 48.2396 1.19103C48.7869 1.24103 49.2412 1.32103 49.613 1.42103L48.8385 4.89103C48.5184 4.80103 48.1674 4.76103 47.7853 4.76103C47.4032 4.76103 47.0109 4.79103 46.6185 4.85103C46.0815 4.93103 45.6375 5.07103 45.2658 5.26103C44.9044 5.46103 44.6153 5.70103 44.4088 5.98103C44.2023 6.26103 44.0577 6.58103 43.9648 6.94103C43.8718 7.30103 43.8305 7.68103 43.8305 8.08103V8.83103L49.2929 8.02103V11.581L43.8305 12.381V23.931L39.4111 24.581V8.67103C39.4111 6.72103 39.979 5.08103 41.1148 3.76103C42.2507 2.44103 43.9338 1.62103 46.1745 1.29103ZM56.6655 2.55103C56.6655 3.34103 56.4074 3.99103 55.8807 4.52103C55.3541 5.05103 54.7346 5.36103 54.0221 5.47103C53.3096 5.58103 52.6901 5.44103 52.1738 5.07103C51.6575 4.70103 51.389 4.12103 51.389 3.33103C51.389 2.54103 51.6472 1.89103 52.1738 1.36103C52.7004 0.831028 53.3199 0.521028 54.0221 0.411028C54.7243 0.301028 55.3541 0.441028 55.8807 0.811028C56.4074 1.18103 56.6655 1.77103 56.6655 2.55103ZM56.2525 22.091L51.833 22.741V7.63103L56.2525 6.98103V22.091Z" fill="#084748"/>
<path d="M59.6704 14.1411C59.6704 12.8011 59.8873 11.6011 60.3106 10.5311C60.734 9.46112 61.2916 8.54112 61.9834 7.77112C62.6752 7.00112 63.4703 6.37112 64.3687 5.89112C65.267 5.41112 66.1963 5.10112 67.1463 4.96112C69.356 4.63112 71.1114 5.03112 72.3918 6.15112C73.6722 7.27112 74.3227 9.11112 74.3227 11.6511C74.3227 11.9011 74.3124 12.1711 74.2918 12.4711C74.2711 12.7711 74.2505 13.0411 74.2298 13.2711L64.2034 14.7511C64.3067 15.6211 64.7301 16.2511 65.4735 16.6611C66.2273 17.0711 67.2392 17.1811 68.499 16.9911C69.3044 16.8711 70.0995 16.6811 70.8842 16.4211C71.669 16.1611 72.2989 15.8911 72.7945 15.6111L73.3831 19.0011C73.1456 19.1511 72.8255 19.3111 72.4331 19.4911C72.0407 19.6611 71.5967 19.8311 71.1114 19.9911C70.6261 20.1511 70.1098 20.3011 69.5522 20.4411C68.9946 20.5811 68.4474 20.6911 67.8898 20.7711C66.4855 20.9811 65.267 20.9611 64.2241 20.7111C63.1812 20.4611 62.3241 20.0411 61.6426 19.4411C60.9611 18.8411 60.4552 18.0911 60.1351 17.1811C59.8253 16.2711 59.6704 15.2611 59.6704 14.1411ZM70.0479 10.9711C70.0272 10.6111 69.9652 10.2611 69.8517 9.94112C69.7381 9.61112 69.5729 9.33112 69.3457 9.10112C69.1185 8.87112 68.8294 8.69112 68.4887 8.57112C68.1479 8.45112 67.7142 8.43112 67.1979 8.50112C66.7023 8.57112 66.2789 8.72112 65.9175 8.93112C65.5561 9.14112 65.267 9.40112 65.0295 9.71112C64.792 10.0111 64.6061 10.3511 64.4822 10.7211C64.348 11.0911 64.2551 11.4711 64.2034 11.8411L70.0479 10.9711Z" fill="#084748"/>
<path d="M87.1373 6.20115C86.745 6.16115 86.2803 6.13115 85.7434 6.10115C85.2064 6.07115 84.6385 6.11115 84.0189 6.20115C83.7402 6.24115 83.4097 6.31115 83.0277 6.42115C82.6456 6.52115 82.3462 6.62115 82.15 6.71115V18.2612L77.7305 18.9112V4.61115C78.5256 4.23115 79.4549 3.83115 80.5288 3.43115C81.6027 3.03115 82.8108 2.73115 84.1325 2.54115C84.37 2.50115 84.6592 2.48115 84.9896 2.46115C85.3303 2.44115 85.6607 2.43115 86.0015 2.43115C86.3423 2.43115 86.6727 2.44115 87.0134 2.45115C87.3542 2.47115 87.633 2.51115 87.8705 2.57115L87.1373 6.20115Z" fill="#084748"/>
<path d="M89.213 9.771C89.213 8.431 89.4298 7.231 89.8532 6.161C90.2765 5.091 90.8341 4.171 91.5259 3.401C92.2178 2.631 93.0129 2.001 93.9112 1.521C94.8095 1.041 95.7389 0.731003 96.6888 0.591003C98.8986 0.261003 100.654 0.661003 101.934 1.781C103.215 2.901 103.865 4.741 103.865 7.281C103.865 7.531 103.855 7.801 103.834 8.101C103.814 8.401 103.793 8.671 103.772 8.901L93.746 10.381C93.8492 11.251 94.2726 11.881 95.0161 12.291C95.7698 12.701 96.7818 12.811 98.0415 12.621C98.8573 12.501 99.6524 12.311 100.427 12.051C101.212 11.791 101.841 11.521 102.337 11.241L102.926 14.631C102.688 14.781 102.368 14.941 101.976 15.121C101.583 15.291 101.139 15.461 100.654 15.621C100.169 15.781 99.6524 15.931 99.0948 16.071C98.5372 16.211 97.9899 16.321 97.4323 16.401C96.028 16.611 94.8095 16.591 93.7666 16.341C92.7237 16.091 91.8667 15.671 91.1852 15.071C90.5037 14.471 89.9977 13.721 89.6776 12.811C89.3678 11.891 89.213 10.881 89.213 9.771ZM99.5904 6.601C99.5697 6.241 99.5078 5.891 99.3942 5.561C99.2806 5.231 99.1154 4.951 98.8882 4.721C98.6611 4.491 98.372 4.311 98.0312 4.191C97.6801 4.071 97.2568 4.051 96.7405 4.121C96.2448 4.191 95.8215 4.341 95.4704 4.551C95.1193 4.771 94.8199 5.021 94.5824 5.331C94.3449 5.631 94.159 5.971 94.0351 6.341C93.9009 6.711 93.8079 7.091 93.7563 7.461L99.5904 6.601Z" fill="#084748"/>
<path d="M23.4166 45.6411C22.5285 48.6811 21.5889 51.5511 20.6183 54.2411C19.6476 56.9311 18.5841 59.5611 17.4379 62.1211C17.0249 63.0411 16.6015 63.8411 16.1885 64.5011C15.7754 65.1711 15.3211 65.7311 14.8255 66.2011C14.3298 66.6711 13.7722 67.0411 13.1424 67.3111C12.5228 67.5811 11.7897 67.7811 10.9636 67.9111C10.2718 68.0111 9.63159 68.0411 9.04302 68.0111C8.45444 67.9711 7.97946 67.9011 7.60773 67.8111L8.38216 64.2811C8.8365 64.3611 9.23921 64.4111 9.60061 64.4211C9.96201 64.4311 10.3337 64.3811 10.7261 64.3211C11.5212 64.2011 12.1201 63.9111 12.5538 63.4311C12.9772 62.9611 13.3386 62.3311 13.638 61.5611C12.6261 59.7911 11.6141 57.7911 10.6125 55.5611C9.60061 53.3311 8.65063 50.7911 7.76261 47.9511L12.4505 47.2611C12.6467 47.9811 12.8842 48.7511 13.1527 49.5811C13.4212 50.4111 13.7 51.2511 13.9994 52.1011C14.2989 52.9511 14.5983 53.7711 14.9081 54.5611C15.2179 55.3611 15.507 56.0811 15.7858 56.7311C16.0439 56.0011 16.3124 55.2011 16.5912 54.3111C16.87 53.4311 17.1385 52.5211 17.4069 51.5911C17.6754 50.6611 17.9335 49.7411 18.1814 48.8311C18.4292 47.9211 18.6563 47.0811 18.8525 46.3011L23.4166 45.6411Z" fill="#084748"/>
<path d="M46.3502 55.4611C46.3502 57.9311 45.6997 59.8611 44.4089 61.2511C43.1182 62.6411 41.115 63.5311 38.3993 63.9311C37.4493 64.0711 36.4994 64.1311 35.5494 64.1111C34.5994 64.0911 33.7217 64.0011 32.906 63.8611L33.6804 60.1511C34.3722 60.3211 35.095 60.4211 35.8591 60.4611C36.6233 60.5011 37.4803 60.4511 38.4509 60.3111C39.721 60.1211 40.609 59.7211 41.1356 59.1111C41.6623 58.5011 41.9204 57.7711 41.9204 56.9311V56.3811C41.4454 56.6611 40.9601 56.8911 40.4541 57.0711C39.9482 57.2511 39.4009 57.3811 38.8123 57.4711C36.6542 57.7911 35.0021 57.4211 33.8559 56.3511C32.7098 55.2811 32.1315 53.6411 32.1315 51.4211C32.1315 50.3111 32.3071 49.2711 32.6685 48.3111C33.0196 47.3511 33.5462 46.4911 34.2277 45.7411C34.9092 44.9911 35.7456 44.3611 36.7368 43.8611C37.7281 43.3611 38.8433 43.0211 40.0927 42.8311C40.6297 42.7511 41.1769 42.6911 41.7345 42.6611C42.2921 42.6211 42.8601 42.6011 43.4073 42.6011C43.9649 42.6011 44.4915 42.6111 44.9975 42.6411C45.5035 42.6711 45.9475 42.7111 46.3502 42.7711V55.4611ZM36.6439 50.7511C36.6439 53.1411 37.6455 54.1911 39.6384 53.9011C40.0927 53.8311 40.5161 53.7111 40.9085 53.5411C41.3009 53.3711 41.6416 53.1811 41.9204 52.9911V46.1511C41.7036 46.1411 41.4454 46.1511 41.146 46.1611C40.8465 46.1811 40.5058 46.2111 40.1031 46.2711C38.9362 46.4411 38.0689 46.9511 37.4906 47.7811C36.933 48.6111 36.6439 49.6011 36.6439 50.7511Z" fill="#084748"/>
<path d="M56.1079 40.4012C57.4089 40.2112 58.5035 40.1912 59.3708 40.3512C60.2382 40.5112 60.9403 40.8212 61.467 41.2812C61.9936 41.7412 62.3653 42.3312 62.5822 43.0712C62.799 43.8012 62.9126 44.6412 62.9126 45.5812V54.4912C62.2827 54.7212 61.405 55.0112 60.2692 55.3512C59.1333 55.6912 57.7807 55.9912 56.1802 56.2312C55.1682 56.3812 54.2595 56.4312 53.4335 56.3812C52.6177 56.3312 51.9053 56.1512 51.3167 55.8512C50.7281 55.5412 50.2738 55.1012 49.9537 54.5112C49.6336 53.9212 49.4787 53.1712 49.4787 52.2512C49.4787 51.3712 49.6646 50.6012 50.026 49.9312C50.3874 49.2612 50.883 48.7012 51.4922 48.2512C52.1015 47.8012 52.8036 47.4312 53.5987 47.1512C54.3938 46.8712 55.2095 46.6712 56.0562 46.5412C56.6242 46.4612 57.1405 46.4012 57.5845 46.3912C58.0285 46.3712 58.3899 46.3812 58.6687 46.4212V46.0212C58.6687 45.2912 58.4415 44.7412 57.9872 44.3712C57.5328 44.0012 56.7377 43.8912 55.6122 44.0612C54.8584 44.1712 54.115 44.3312 53.3922 44.5512C52.659 44.7612 52.0292 45.0112 51.4922 45.2812L50.9243 41.9212C51.1825 41.8112 51.5026 41.6812 51.8846 41.5312C52.2667 41.3912 52.69 41.2512 53.1444 41.1112C53.5987 40.9812 54.084 40.8512 54.5796 40.7212C55.0856 40.5712 55.5916 40.4712 56.1079 40.4012ZM56.4589 52.8712C56.8926 52.8112 57.3057 52.7312 57.7084 52.6612C58.1008 52.5812 58.4209 52.5112 58.6583 52.4312V49.1812C58.4828 49.1712 58.2143 49.1712 57.8529 49.1812C57.5019 49.1912 57.1714 49.2212 56.872 49.2712C56.4589 49.3312 56.0666 49.4112 55.7052 49.5212C55.3438 49.6312 55.0133 49.7612 54.7449 49.9412C54.4764 50.1212 54.2492 50.3312 54.0943 50.5812C53.9394 50.8312 53.8568 51.1312 53.8568 51.4812C53.8568 52.1512 54.0943 52.5812 54.5487 52.7712C55.0133 52.9512 55.6535 52.9912 56.4589 52.8712Z" fill="#084748"/>
<path d="M66.9088 39.7212C67.6626 39.4012 68.6332 39.0612 69.8207 38.7012C71.0082 38.3412 72.2576 38.0712 73.5587 37.8712C74.8804 37.6712 75.9852 37.6812 76.8629 37.8812C77.7406 38.0812 78.4428 38.4612 78.9487 38.9912C79.465 39.5312 79.8264 40.2012 80.0433 41.0112C80.2601 41.8212 80.3737 42.7412 80.3737 43.7812V52.3112L75.9542 52.9612V44.9512C75.9542 43.5712 75.7684 42.6212 75.3863 42.1012C75.0146 41.5812 74.3124 41.4012 73.2799 41.5512C72.9598 41.6012 72.6293 41.6612 72.2679 41.7412C71.9168 41.8212 71.5968 41.9012 71.318 41.9812V53.6412L66.8985 54.2912V39.7212H66.9088Z" fill="#084748"/>
<path d="M89.9763 35.3812C91.2774 35.1912 92.3719 35.1712 93.2393 35.3312C94.1067 35.4912 94.8088 35.8012 95.3354 36.2612C95.8621 36.7212 96.2338 37.3212 96.4506 38.0512C96.6675 38.7812 96.7811 39.6212 96.7811 40.5612V49.4712C96.1512 49.7012 95.2632 49.9912 94.1376 50.3312C93.0121 50.6712 91.6491 50.9712 90.0486 51.2112C89.0367 51.3612 88.128 51.4112 87.302 51.3612C86.4862 51.3112 85.7737 51.1312 85.1852 50.8312C84.5966 50.5312 84.1423 50.0812 83.8222 49.5012C83.5021 48.9212 83.3472 48.1612 83.3472 47.2412C83.3472 46.3612 83.533 45.5812 83.8944 44.9212C84.2558 44.2512 84.7515 43.6912 85.3607 43.2412C85.9699 42.7912 86.6721 42.4212 87.4672 42.1412C88.2623 41.8612 89.078 41.6612 89.9247 41.5312C90.4926 41.4512 91.0089 41.3912 91.4529 41.3812C91.8969 41.3712 92.2583 41.3712 92.5371 41.4112V41.0112C92.5371 40.2812 92.31 39.7312 91.8556 39.3612C91.4013 38.9912 90.6062 38.8812 89.4807 39.0512C88.7269 39.1612 87.9835 39.3212 87.2607 39.5412C86.5275 39.7512 85.8976 40.0012 85.3607 40.2712L84.7928 36.9112C85.0509 36.8012 85.371 36.6712 85.7531 36.5212C86.1351 36.3812 86.5585 36.2412 87.0128 36.1012C87.4672 35.9712 87.9525 35.8412 88.4481 35.7112C88.9541 35.5612 89.4601 35.4612 89.9763 35.3812ZM90.3377 47.8612C90.7714 47.8012 91.1845 47.7212 91.5872 47.6512C91.9796 47.5712 92.2997 47.5012 92.5371 47.4212V44.1712C92.3616 44.1612 92.0931 44.1612 91.7317 44.1712C91.3807 44.1812 91.0502 44.2112 90.7508 44.2612C90.3378 44.3212 89.9454 44.4012 89.584 44.5012C89.2226 44.6012 88.8921 44.7412 88.6237 44.9212C88.3552 45.1012 88.128 45.3112 87.9731 45.5612C87.8182 45.8112 87.7356 46.1112 87.7356 46.4612C87.7356 47.1312 87.9731 47.5612 88.4275 47.7512C88.8921 47.9412 89.522 47.9812 90.3377 47.8612Z" fill="#084748"/>
</svg>
