<svg width="309" height="191" viewBox="0 0 309 191" fill="none" xmlns="http://www.w3.org/2000/svg">
<path d="M278.098 163.111C278.24 167.717 278.772 172.252 279.126 176.858C279.197 177.779 279.728 178.027 280.437 178.204C282.81 178.878 285.149 179.692 287.381 180.755C288.196 181.145 288.975 181.57 289.577 182.208C290.747 183.412 290.463 184.263 288.763 184.723C287.806 184.652 286.849 184.617 285.893 184.759C282.066 184.794 278.276 184.015 274.52 183.412C272.749 183.129 272.146 181.712 273.457 180.472C275.477 178.488 274.733 176.645 273.918 174.626C273.174 172.784 272.749 170.8 271.792 169.028C270.446 167.505 270.198 165.521 269.56 163.714C266.052 154.042 262.58 144.334 259.144 134.626C258.754 133.528 257.904 132.43 258.612 131.119C260.136 130.906 261.659 131.331 263.112 131.544C265.627 131.934 268.001 131.473 270.41 130.977C272.749 130.517 274.201 129.064 274.945 126.832C275.406 132.571 275.902 138.311 276.362 144.051C277 150.463 277.532 156.77 278.098 163.111Z" fill="#EC1B24"/>
<path d="M275.016 126.867C274.874 129.383 274.095 130.375 271.509 131.225C267.222 132.642 262.97 134.591 258.648 133.386C256.947 131.969 256.628 127.824 256.522 125.805C258.896 125.167 261.376 125.238 263.82 124.848C266.974 124.352 270.056 123.608 272.997 122.474C273.599 122.226 274.166 121.943 274.839 121.978C274.91 123.608 274.945 125.238 275.016 126.867Z" fill="#D21821"/>
<path d="M276.613 67.2397C276.4 67.842 276.188 68.4088 275.975 69.0111C275.373 69.8614 275.869 70.57 276.294 71.2786C277.215 72.8375 278.455 74.1838 279.235 75.849C283.84 83.0057 288.375 90.2333 292.91 97.4254C293.548 98.4174 294.257 98.9843 293.973 99.5157C293.69 100.083 293.902 99.87 293.477 100.472C293.194 100.897 292.662 101.606 292.273 102.386C289.296 108.302 286.356 114.254 283.38 120.206C283.238 120.525 283.132 120.88 283.026 121.198C282.707 122.013 282.246 122.757 281.892 123.537C281.679 123.997 281.325 124.104 280.971 123.608C279.66 120.88 278.03 120.49 275.656 122.226C272.609 124.458 272.432 127.54 275.196 130.764C277.888 133.882 279.518 134.166 283.167 132.111C284.407 131.402 285.576 130.516 286.391 129.418C288.942 125.981 292.166 123.218 295.071 120.136C299.358 115.565 303.22 110.676 305.7 104.83C305.807 104.618 305.984 104.44 306.125 104.263C307.861 99.9055 307.932 95.654 306.019 91.2607C303.185 84.6 300.28 78.1165 297.516 71.4558C297.304 70.9243 296.843 70.1803 296.489 69.7197C293.69 66.6728 291.281 63.7676 287.525 61.9253C283.699 60.0475 279.872 61.2167 277.782 64.9722C277.357 65.6808 276.932 66.4248 276.613 67.2397Z" fill="#FCBF7D"/>
<path d="M285.789 60.9687C289.261 62.4921 290.076 62.8464 292.839 65.787C292.875 65.8225 292.91 65.8579 292.91 65.8933C293.796 66.7436 295.603 68.4442 296.17 69.33C296.205 69.3654 296.241 69.4362 296.241 69.4717C296.701 71.4557 291.741 75.0341 290.82 76.9473C290.643 77.3724 290.43 77.7621 290.218 78.1519C288.623 80.7736 287.738 82.9702 285.789 84.8834C285.293 81.7656 284.832 78.6479 284.23 75.5655C283.415 71.3494 282.211 67.2751 280.616 63.2716C280.475 62.8818 280.156 62.4921 280.191 62.067C280.227 61.819 280.475 61.7127 280.687 61.5709C281.396 61.2521 284.266 60.5081 285.789 60.9687Z" fill="#D1153A"/>
<path d="M123.699 97.2129C121.679 96.8231 120.333 97.8506 118.916 99.1615C113.424 104.299 108.287 109.755 104.036 115.99C97.7291 125.237 88.8364 130.233 78.1013 132.359C64.7445 135.016 51.7773 132.961 39.0937 128.568C25.0282 123.714 12.6634 115.99 1.64491 105.999C1.3969 105.751 1.07804 105.61 0.582031 105.255C1.60948 104.688 2.3535 104.972 3.06208 105.043C12.0611 105.68 20.7413 104.476 28.89 100.437C37.6765 96.0791 43.5223 89.0641 46.9235 79.9588C49.0493 74.2547 51.3522 68.6569 54.5054 63.4133C60.1032 54.1663 68.2874 49.0999 78.987 48.0016C81.0419 47.789 83.0968 47.4701 85.1163 47.1513C91.529 46.1238 94.5051 43.1123 95.4971 36.6996C95.8868 34.3259 95.6742 31.9875 95.0365 29.6846C93.3005 23.5908 89.0844 21.6776 83.3803 24.3348C83.026 24.4057 82.9197 24.264 83.026 23.9451C90.1827 17.1781 98.3669 12.218 108.181 10.3757C115.692 8.95852 122.99 9.77339 130.005 12.7849C139.925 17.0364 150.235 19.8353 160.793 21.7839C161.644 21.9256 162.529 22.1382 163.415 21.8548C168.694 22.3508 173.902 23.4491 179.216 23.8034C186.054 24.264 192.857 24.9017 199.695 24.7954C200.687 24.7954 201.714 24.6891 202.671 25.008C203.698 25.6103 203.025 26.3543 202.741 26.992C201.891 28.7989 201.183 30.6412 200.651 32.5898C200.191 34.3259 200.368 35.9556 201.183 37.5499C202.742 40.7031 204.336 43.8564 205.93 47.0096C207.879 51.7217 208.942 56.54 207.56 61.6064C207.028 63.6259 206.214 65.5036 205.009 67.1688C203.734 69.1174 202.387 71.0306 200.616 72.5541C200.013 73.0855 199.34 73.7941 198.596 72.6958C198.384 72.1644 198.384 71.5975 198.348 71.0306C198.455 70.1449 198.171 69.2946 197.959 68.4088C197.215 65.0785 195.089 63.307 191.794 62.6693C188.782 62.1024 185.806 62.1379 182.83 62.7402C178.72 63.2362 175.036 65.0785 171.387 66.8145C158.809 72.8021 146.444 79.1439 134.93 87.0801C131.104 89.7373 127.313 92.4653 123.805 95.5477C123.344 95.9728 122.884 96.398 122.246 96.6105C122.848 96.6105 123.592 96.1854 123.699 97.2129Z" fill="#EC1941"/>
<path d="M204.478 67.1692C208.092 61.5005 208.552 55.5484 206.285 49.2774C206.001 48.4979 205.753 47.7185 205.505 46.9391C205.222 46.195 205.293 45.451 205.47 44.707C208.517 31.8462 214.575 20.7214 224.566 11.9703C229.385 7.75427 234.841 4.45934 241.005 2.54616C241.82 2.29816 242.777 2.65245 243.415 1.90843C256.842 -0.607045 269.42 1.27071 280.863 9.10058C290.11 15.4424 296.771 23.91 301.519 33.9719C301.164 33.3696 302.121 34.964 302.759 36.3457C305.558 42.4041 307.116 48.3208 308.002 54.9106C308.179 56.2924 308.038 57.3907 308.215 59.1267C308.215 59.8353 308.108 60.2605 308.144 60.8628C308.817 80.3134 303.574 97.6738 289.614 111.81C285.823 115.672 281.395 118.683 276.506 120.986C275.939 121.27 275.301 121.447 274.876 121.978C272.219 123.714 269.136 124.317 266.125 124.954C262.972 125.627 259.712 125.698 256.523 126.301C255.531 126.442 253.122 126.761 250.182 126.868C250.217 126.23 253.583 125.557 254.539 125.486C247.206 125.415 240.474 123.147 234.309 119.392C216.772 108.728 207.666 92.5365 204.407 72.6961C204.124 70.8538 203.38 68.9761 204.478 67.1692Z" fill="#FFEB4C"/>
<path d="M181.944 70.216C178.082 78.3647 187.967 86.5843 178.933 93.0678C179.358 95.7605 184.353 99.6931 165.505 99.1262C164.513 99.0908 164.619 99.3388 160.899 99.3388C148.995 99.3388 137.091 98.5594 125.222 97.4965C124.69 97.4611 124.194 97.3194 123.663 97.2131C123.202 96.5399 122.423 97.0359 121.785 96.6816C127.489 91.5798 133.619 87.2574 139.996 83.1476C146.479 79.0024 153.176 75.1761 160.084 71.7748C166.816 68.4799 179.322 61.5003 187.825 61.9255C188.392 61.7838 186.373 64.441 184.991 64.9016C184.708 66.9919 183.29 67.9485 182.192 69.5074C181.979 69.9325 182.263 69.8617 181.944 70.216Z" fill="#D1143A"/>
<path d="M213.654 173.28C212.697 176.114 211.741 178.948 210.713 181.747C210.359 182.704 211.032 182.987 211.528 183.448C213.193 185.007 213.122 185.822 211.209 186.991C207.525 189.187 203.45 189.967 199.234 190.357C198.951 190.392 198.632 190.392 198.348 190.321C197.215 190.073 195.833 189.896 195.585 188.514C195.337 187.239 196.648 186.814 197.533 186.318C199.943 184.936 202.6 184.121 205.292 183.412C206.391 183.129 206.816 182.598 206.887 181.464C207.099 178.771 207.418 176.079 207.702 173.386C208.517 166.902 209.331 160.419 210.111 153.935C211.351 143.448 212.555 132.997 213.796 122.509C213.831 122.226 213.973 121.943 214.044 121.659C215.177 121.907 215.496 123.076 216.311 123.714C219.181 125.804 222.405 126.619 225.841 126.832C226.656 126.867 227.507 126.69 228.215 127.222C228.747 128.178 228.251 129.064 228.038 129.95C227.081 133.67 225.806 137.283 224.601 140.897C221.342 150.995 218.012 161.057 214.681 171.118C214.504 171.898 214.398 172.784 213.654 173.28Z" fill="#EC1B24"/>
<path d="M193.849 78.3646C194.983 76.8766 196.577 75.8846 197.852 74.5737C198.348 74.0777 198.809 73.5816 198.915 72.8731C199.695 73.2628 199.907 72.4833 200.297 72.129C201.927 70.7119 203.167 68.905 204.442 67.1689C204.088 71.1016 205.151 74.8217 205.966 78.5772C208.091 88.0368 211.989 96.7878 218.012 104.405C225.842 114.325 235.549 121.553 248.127 124.316C250.394 124.812 252.697 125.308 255.177 125.202C254.468 125.804 255.071 125.308 254.433 125.84C254.291 125.946 254.15 126.052 254.008 126.123C252.945 126.584 251.882 126.584 251.138 126.69C244.69 127.54 238.383 126.726 232.183 124.848C231.404 124.6 230.589 124.423 229.845 124.068C229.349 123.785 229.314 123.289 229.455 122.828C230.66 119.321 228.711 116.983 226.444 114.821C224.779 113.227 222.724 112.164 220.598 111.278C217.657 110.074 216.417 110.605 215.248 113.51C215.142 113.794 215 114.042 214.717 114.219C207.914 108.515 202.954 101.394 199.128 93.4575C198.774 92.7489 198.703 91.8277 197.888 91.4026C195.868 87.2574 194.487 82.935 193.849 78.3646Z" fill="#D89116"/>
<path d="M202.955 25.3274C200.545 25.3274 198.101 25.3982 195.692 25.3274C189.066 25.1148 182.477 24.6542 175.851 24.0165C172.06 23.6622 168.34 22.8119 164.549 22.5284C164.018 22.493 163.628 22.3159 163.38 21.8553C180.315 12.6082 198.42 8.5693 217.658 9.84476C217.87 10.4116 217.481 10.7305 217.091 11.0139C211.883 14.6986 207.667 19.3398 203.982 24.5125C203.77 24.8313 203.522 25.2565 202.955 25.3274Z" fill="#D1143A"/>
<path d="M202.954 25.3276C206.745 19.6589 211.244 14.6634 216.807 10.6599C217.126 10.4473 217.374 10.093 217.657 9.8096C220.775 8.21529 223.751 6.33753 227.046 5.06208C232.325 3.04261 237.781 2.08602 243.379 1.90887C243.379 2.2986 243.237 2.47574 242.67 2.61746C239.978 3.25519 237.391 4.21178 234.911 5.48723C225.345 10.4473 218.118 17.7812 212.768 27.0637C209.438 32.8032 207.205 38.9679 205.717 45.416C205.611 45.912 205.54 46.4435 205.434 46.9749C203.733 43.68 202.033 40.3851 200.403 37.0547C199.234 34.6455 200.084 32.3072 200.864 30.0397C201.466 28.41 202.281 26.8865 202.954 25.3276Z" fill="#D89116"/>
<path d="M193.848 78.3651C194.911 81.7309 195.973 85.0612 197.001 88.427C197.284 89.419 198.241 90.1985 197.887 91.4031C191.403 96.1152 183.998 98.1347 176.098 98.7015C175.495 98.4181 174.539 99.0912 174.184 97.9221C173.83 96.8238 174.468 96.3278 175.141 95.7255C180.881 90.4111 186.585 85.0967 192.289 79.7469C192.785 79.2863 193.352 78.8257 193.848 78.3651Z" fill="#D1143A"/>
<path d="M214.716 114.219C215.07 109.543 217.727 109.613 220.951 110.96C223.821 112.164 226.478 113.759 228.462 116.31C230.234 118.577 230.942 120.915 229.632 123.643C229.065 125.663 229.171 128.745 227.789 129.596C223.573 129.702 219.959 126.867 216.416 124.317C215.389 123.573 214.574 122.758 214.043 121.659C214.291 119.179 214.503 116.699 214.716 114.219Z" fill="#D21821"/>
<path d="M82.9914 23.9099C83.0977 24.0516 83.2394 24.1579 83.3457 24.2996C83.0977 24.7602 82.7434 24.9727 82.1057 24.9373C82.1411 24.335 82.5309 24.087 82.9914 23.9099Z" fill="#F593A6"/>
<path d="M121.928 75.9557C117.393 79.0026 112.823 82.0141 108.323 85.0611C101.486 89.6669 95.0374 94.8041 89.4396 100.863C86.7824 103.732 84.7629 107.027 82.9206 110.464C81.7514 112.625 80.6886 114.857 79.484 117.054C76.7913 122.014 72.9295 124.813 67.19 125.628C56.1361 127.222 45.5781 125.557 35.2328 121.695C29.3161 119.463 23.8246 116.381 18.5456 112.944C16.597 111.668 14.7901 110.145 12.9124 108.728C13.3375 107.913 14.0107 108.232 14.5421 108.232C24.2143 107.948 33.2488 105.787 41.1849 99.9414C44.5861 97.4259 47.3496 94.3435 49.6171 90.836C50.2548 89.844 50.6091 89.6314 51.6011 90.4463C54.1875 92.5721 57.3052 93.4932 60.5647 93.6704C69.4221 94.1309 77.8896 92.2886 86.3218 89.6314C98.3678 85.8405 109.918 80.845 121.22 75.2826C121.574 75.0346 121.964 74.9637 122.247 75.3534C122.46 75.566 122.176 75.814 121.928 75.9557Z" fill="#D6153A"/>
<path d="M161.397 45.0969C140.139 45.3095 118.917 44.7781 97.9785 49.5965C100.565 46.585 102.832 43.5026 103.647 39.57C104.462 35.6019 103.505 32.0235 101.273 28.6223C104.391 30.6772 107.403 32.7321 110.768 34.2201C117.713 37.2316 124.834 38.5779 132.416 37.1608C135.604 36.5585 138.899 36.771 142.194 37.2316C148.82 38.1174 154.701 40.7391 160.369 44.0341C160.617 44.1758 160.865 44.3529 161.078 44.5301C161.22 44.6009 161.255 44.7781 161.397 45.0969Z" fill="#D6153A"/>
<path d="M121.928 75.9559C122.318 75.1056 121.68 75.2828 121.219 75.2474C123.7 73.9719 126.18 72.6964 128.624 71.4564C126.676 73.3342 124.337 74.7159 121.928 75.9559Z" fill="#DE173D"/>
<path d="M285.93 184.758C286.887 184.121 287.843 184.156 288.8 184.723C287.843 185.006 286.887 184.971 285.93 184.758Z" fill="#EC0A14"/>
<path d="M218.648 90.1269C217.656 88.9577 217.372 87.5051 216.806 86.1588C212.944 77.0181 211.42 67.4522 211.987 57.5674C212.271 52.1113 213.404 46.7615 215.14 41.5888C216.664 38.3647 217.869 34.9635 219.782 31.952C221.589 28.6217 223.927 25.7165 226.478 22.9884C227.364 21.8901 228.32 20.8272 229.489 20.0478C230.162 19.8352 230.588 19.3038 231.013 18.8078C236.256 15.0168 241.996 12.3596 248.444 11.403C258.789 9.84415 268.249 12.2888 276.787 18.2055C287.452 25.6102 293.829 35.9555 297.159 48.3203C300.596 61.0749 300.135 73.6877 295.317 85.9817C290.605 97.9922 282.81 107.275 270.694 112.412C266.973 114.006 263.076 114.715 259.037 115.069C247.948 115.99 238.665 111.845 230.198 105.184C229.914 104.972 229.702 104.688 229.454 104.405C227.505 102.563 225.698 100.579 224.104 98.3819C221.943 95.8664 220.384 92.9258 218.648 90.1269Z" fill="#FFEB4C"/>
<path d="M229.633 20.367C228.535 21.1818 227.614 22.103 226.799 23.2013C226.374 23.4493 226.09 23.4493 226.09 22.847C232.255 16.0092 239.624 11.3679 248.836 9.70275C259.11 7.82499 268.499 9.98618 277.144 15.4777C284.017 19.8709 289.367 25.8231 293.512 32.9089C297.516 39.7468 299.996 47.1515 301.13 54.9105C302.936 67.169 301.413 78.967 296.205 90.3044C291.847 99.764 285.434 107.381 276.223 112.412C269.172 116.274 261.661 117.727 253.583 116.77C245.789 115.849 239.022 112.696 232.928 107.984C231.511 106.885 229.917 105.893 228.925 104.299C228.925 103.697 229.208 103.697 229.633 103.945C231.724 106.248 234.345 107.806 236.967 109.33C242.211 112.341 247.808 114.29 253.973 114.644C262.866 115.14 270.873 112.873 278.136 107.736C289.119 100.012 294.752 89.0643 297.693 76.3452C299.004 70.5702 299.075 64.7244 298.614 58.9494C297.87 49.7378 295.071 41.0577 290.111 33.0861C285.293 25.3625 279.093 19.1624 270.838 15.3006C257.835 9.24216 245.222 10.0216 233.176 18.0286C232.503 18.4892 231.759 18.8789 231.086 19.3041C230.554 19.5875 230.129 20.0127 229.633 20.367Z" fill="#EAB726"/>
<path d="M226.089 22.8121C226.231 23.0955 226.515 23.1664 226.798 23.1664C224.318 25.9298 221.802 28.6933 220.066 32.0237C219.748 32.13 219.606 31.9883 219.712 31.6694C221.271 28.339 223.539 25.4693 226.089 22.8121Z" fill="#ECA019"/>
<path d="M219.713 31.6692C219.819 31.7755 219.961 31.9172 220.067 32.0235C218.544 34.9641 216.808 37.8339 215.709 40.9871C215.638 41.2351 215.32 41.3768 215.107 41.5894C216.312 38.1527 217.41 34.6452 219.713 31.6692Z" fill="#F4AB1A"/>
<path d="M218.649 90.127C218.968 90.4458 219.464 90.6938 219.641 91.0835C220.846 93.7053 222.83 95.8311 224.318 98.2757C224.283 98.4883 224.176 98.5946 223.964 98.63C221.555 96.1854 220.031 93.2093 218.649 90.127Z" fill="#F3A91A"/>
<path d="M223.965 98.6298C224.071 98.5235 224.213 98.3818 224.319 98.2755C226.091 100.189 227.579 102.314 229.634 103.944C229.35 103.944 229.067 104.015 228.925 104.298C226.941 102.704 225.276 100.826 223.965 98.6298Z" fill="#EDA219"/>
<path d="M246.284 30.6061C246.284 30.4998 246.284 30.3581 246.284 30.2518C246.886 29.6849 247.595 29.2952 248.445 29.2244C247.878 29.933 247.17 30.429 246.284 30.6061Z" fill="#F2AA26"/>
<path d="M229.633 20.3667C229.952 19.7998 230.341 19.3393 231.05 19.3038C230.731 19.8707 230.341 20.3313 229.633 20.3667Z" fill="#ECA019"/>
<path d="M197.498 64.2284C197.888 64.5827 198.242 64.937 198.632 65.2913C198.703 65.3622 198.986 65.6102 199.057 65.7165C199.553 66.8148 199.553 66.8148 199.518 67.5588C199.411 69.1531 199.022 70.712 198.951 72.3418C198.915 72.9795 198.88 73.6526 198.809 74.2904C197.994 82.3328 197.25 90.3753 196.471 98.3823C196.4 99.2326 196.435 99.7286 196.79 99.9057C197.427 100.26 197.923 100.862 198.278 101.5C198.455 101.854 198.845 102.173 199.305 102.527C204.655 106.46 209.969 110.464 215.284 114.432C215.567 114.644 215.815 114.928 216.063 115.176C216.701 115.743 217.445 116.203 218.154 116.735C218.579 117.054 218.933 117.018 219.004 116.38C218.968 113.369 220.208 112.271 223.114 112.731C226.869 113.333 228.393 116.026 227.365 120.136C226.373 124.139 225.027 125.131 220.882 124.919C219.464 124.848 218.012 124.6 216.772 123.962C212.945 122.049 208.8 121.022 204.832 119.569C198.915 117.408 193.318 114.786 188.428 110.747C188.358 110.676 188.287 110.641 188.18 110.605C187.862 110.464 187.543 110.216 187.259 109.968C184.071 106.956 182.264 103.342 181.98 98.772C181.52 91.5444 180.776 84.3523 180.173 77.1601C180.138 76.5578 180.103 76.0973 180.209 75.3887C181.307 71.4206 182.689 67.5588 185.204 64.2284C187.791 60.8272 191.723 60.1541 195.266 62.5278C195.939 62.9884 196.613 63.449 197.25 63.9804C197.357 64.1222 197.427 64.193 197.498 64.2284Z" fill="#FCBF7D"/>
<path d="M278.419 39.3807C276.672 46.089 273.687 53.0391 268.019 58.4494C265.906 60.4889 265.861 59.6781 267.644 62.4174C271.987 69.0567 276.252 75.7198 280.555 82.3883C282.335 85.1622 283.084 87.9975 281.609 91.038C278.988 96.3966 272.496 95.8134 269.597 90.9902C266.125 85.2805 262.614 79.6 259.143 73.8903C256.208 69.0271 253.277 64.1294 250.386 59.2025C249.786 58.207 249.763 57.5743 251.036 56.9179C254.495 55.1418 257.131 52.3033 259.352 48.9854C262.102 44.7994 263.645 40.0551 264.52 35.11C265.268 30.776 269.514 28.2388 273.12 29.2117C276.801 30.1955 279.205 34.143 278.419 39.3807Z" fill="#EAB726"/>
<path d="M234.519 36.4408C235.089 33.0326 236.807 30.9109 239.832 30.0279C242.738 29.1635 245.335 30.0527 247.464 32.2508C249.521 34.3685 249.797 37.0841 249.908 39.8826C250.187 49.3623 250.546 58.818 250.941 68.3139C251.211 74.7276 251.596 81.1574 251.785 87.5951C251.959 93.7488 246.86 97.6903 241.353 95.4457C238.467 94.2696 236.407 91.2709 236.288 87.2032C236.162 80.9504 235.761 74.6946 235.519 68.4256C235.299 63.2518 235.196 58.0942 235.018 52.8911C234.831 47.7923 234.648 42.6588 234.461 37.56C234.461 37.1021 234.5 36.6496 234.519 36.4408Z" fill="#EAB726"/>
</svg>
