<svg width="276" height="49" viewBox="0 0 276 49" fill="none" xmlns="http://www.w3.org/2000/svg">
<path d="M11.1127 8.75162V42.1844C11.1127 45.1587 8.71323 47.5723 5.75636 47.5723C2.79949 47.567 0.400024 45.1587 0.400024 42.1844V8.75162C0.400024 5.77732 2.79949 3.36371 5.75636 3.36371C8.71323 3.36371 11.1127 5.77732 11.1127 8.75162Z" fill="#F2F2F2"/>
<path d="M37.2042 27.1956C37.2042 24.1893 36.6203 22.1014 34.6083 22.1014C32.2089 22.1014 29.6767 25.4976 29.6767 31.1792V43.1351C29.6767 45.5807 27.7019 47.5672 25.2706 47.5672H23.8266C21.3953 47.5672 19.4205 45.5807 19.4205 43.1351V30.5918C19.4205 26.2772 18.7941 23.1854 18.0721 21.0495C17.2652 18.6786 18.5234 16.0994 20.9016 15.3465C23.0197 14.6737 25.3343 15.6776 26.2314 17.7227C26.5552 18.4596 26.8525 19.314 27.0808 20.2752C29.3528 16.2276 33.5731 14.3319 38.181 14.3319C44.9335 14.3319 47.5294 18.8388 47.5294 25.6951V43.1404C47.5294 45.5861 45.5546 47.5725 43.1233 47.5725H41.6156C39.1843 47.5725 37.2095 45.5861 37.2095 43.1404V27.1956H37.2042Z" fill="#F2F2F2"/>
<path d="M53.1725 23.9329C53.1725 18.3848 57.4565 14.2037 64.6602 14.2037C67.5852 14.2037 70.2607 14.7591 72.3204 15.3732C74.5606 16.0406 75.7073 18.5344 74.7517 20.681C73.9183 22.5606 71.7736 23.4577 69.8573 22.7261C68.6575 22.2669 67.3357 21.9091 66.0829 21.9091C64.7186 21.9091 63.6144 22.4965 63.6144 23.8048C63.6144 25.1771 65.5626 26.5495 68.4823 27.7883C73.6104 29.9456 76.5991 32.6849 76.5991 37.7151C76.5991 43.3326 72.5752 48.2292 64.915 48.2292C61.475 48.2292 58.4226 47.5564 56.0444 46.8035C53.8307 46.0986 52.7159 43.621 53.6715 41.4957L53.7405 41.3355C54.6005 39.4185 56.8194 38.5534 58.7517 39.3544C60.0948 39.9098 61.6237 40.3904 62.9667 40.3904C64.7823 40.3904 66.0829 39.6748 66.0829 38.3025C66.0829 36.6685 64.4585 35.2961 62.2554 34.4524C55.7683 31.8306 53.1725 28.8296 53.1725 23.9329Z" fill="#F2F2F2"/>
<path d="M84.3283 15.0526L85.0238 10.8128C85.2679 9.31226 86.404 8.11079 87.8798 7.78506L89.8386 7.35253C92.1425 6.84524 94.3243 8.61273 94.3243 10.9836V15.0473H101.985L100.753 22.6192H94.3243V37.1809C94.3243 39.0766 95.3648 40.0538 97.3131 40.0538C97.8121 40.0538 98.3376 40.011 98.8472 39.9523C100.679 39.728 102.388 40.9295 102.845 42.729C103.37 44.7955 102.059 46.8781 99.978 47.2946C98.4756 47.599 96.6548 47.8286 94.5208 47.8286C88.0284 47.8286 84.1319 45.415 84.1319 38.9484V22.6245H79.0038V15.0526H84.3283Z" fill="#F2F2F2"/>
<path d="M135.025 46.5312L131.893 47.5244C130.704 47.9036 129.419 47.4123 128.766 46.339C128.103 45.2443 127.36 43.6477 126.983 41.5652C125.555 45.6128 122.762 47.9623 118.091 47.9623C109.587 47.9623 105.563 41.4957 105.563 31.7025C105.563 21.7116 112.183 14.3319 121.855 14.3319C125.48 14.3319 130.014 15.1863 132.631 15.747C133.879 16.014 134.77 17.1247 134.77 18.4116V31.8306C134.77 37.2506 135.758 40.7482 136.692 42.836C137.35 44.3205 136.559 46.0453 135.025 46.5312ZM124.509 24.6272C124.509 23.1534 123.341 21.9145 121.871 21.9038C121.865 21.9038 121.855 21.9038 121.849 21.9038C117.629 21.9038 116.461 25.7539 116.461 31.0457C116.461 35.8782 116.658 40.385 119.774 40.385C122.433 40.385 124.514 35.4884 124.514 30.0044V24.6272H124.509Z" fill="#F2F2F2"/>
<path d="M153.849 3.36369V47.5723H143.137V3.36369H153.849ZM181.438 47.567H169.494L154.561 23.3401V22.5551C162.221 18.8332 164.689 12.7618 166.765 3.35835H177.409C174.94 15.6987 170.916 20.6595 166.245 24.3173L181.438 47.567Z" fill="#F2F2F2"/>
<path d="M215.062 45.4793L206.818 48.0904C206.818 48.0904 204.482 45.8691 203.702 41.5598C202.274 45.6074 199.482 47.9569 194.81 47.9569C186.306 47.9569 182.282 41.4904 182.282 31.6971C182.282 21.7062 188.902 14.3266 198.574 14.3266C203.962 14.3266 211.362 16.2222 211.49 16.2222V31.8306C211.49 42.1525 215.062 45.4793 215.062 45.4793ZM201.234 22.4325C200.65 22.1708 199.349 21.9092 198.574 21.9092C194.354 21.9092 193.186 25.7592 193.186 31.051C193.186 35.8835 193.382 40.3904 196.498 40.3904C199.158 40.3904 201.239 35.4937 201.239 30.0097V22.4325H201.234Z" fill="#F2F2F2"/>
<path d="M218.109 23.9329C218.109 18.3848 222.393 14.2037 229.597 14.2037C236.09 14.2037 241.345 16.9484 241.345 16.9484L238.107 24.2587C236.679 23.5378 233.695 21.9091 231.031 21.9091C229.666 21.9091 228.562 22.4965 228.562 23.8048C228.562 25.1771 230.51 26.5495 233.43 27.7883C238.558 29.9456 241.547 32.6849 241.547 37.7151C241.547 43.3326 237.523 48.2292 229.863 48.2292C223.89 48.2292 219.086 46.2054 216.947 45.2229L220.323 37.7151C221.167 38.1049 224.995 40.3904 227.92 40.3904C229.735 40.3904 231.036 39.6748 231.036 38.3025C231.036 36.6685 229.411 35.2961 227.208 34.4524C220.705 31.8306 218.109 28.8296 218.109 23.9329Z" fill="#F2F2F2"/>
<path d="M265.759 14.3318C272.512 14.3318 275.108 18.7692 275.108 25.695V47.567H264.788V27.1955C264.788 24.1251 264.204 22.1013 262.192 22.1013C259.92 22.1013 257.26 25.2358 257.26 30.33V47.567H247.004V1.9914L257.255 0.229248V17.274C259.527 15.2502 262.574 14.3318 265.759 14.3318Z" fill="#F2F2F2"/>
</svg>
