<svg width="276" height="48" viewBox="0 0 276 48" fill="none" xmlns="http://www.w3.org/2000/svg">
<path d="M11.6435 8.52237V41.9552C11.6435 44.9295 9.244 47.3431 6.28713 47.3431C3.33026 47.3377 0.930786 44.9295 0.930786 41.9552V8.52237C0.930786 5.54807 3.33026 3.13446 6.28713 3.13446C9.244 3.13446 11.6435 5.54807 11.6435 8.52237Z" fill="#20A2A5"/>
<path d="M37.735 26.9664C37.735 23.96 37.151 21.8721 35.1391 21.8721C32.7396 21.8721 30.2074 25.2683 30.2074 30.9499V42.9058C30.2074 45.3515 28.2326 47.3379 25.8013 47.3379H24.3574C21.9261 47.3379 19.9513 45.3515 19.9513 42.9058V30.3625C19.9513 26.0479 19.3249 22.9561 18.6029 20.8202C17.796 18.4493 19.0541 15.8702 21.4324 15.1172C23.5505 14.4444 25.865 15.4483 26.7622 17.4935C27.086 18.2304 27.3833 19.0847 27.6115 20.0459C29.8836 15.9983 34.1039 14.1027 38.7117 14.1027C45.4642 14.1027 48.0601 18.6095 48.0601 25.4659V42.9112C48.0601 45.3568 46.0853 47.3432 43.654 47.3432H42.1464C39.7151 47.3432 37.7403 45.3568 37.7403 42.9112V26.9664H37.735Z" fill="#20A2A5"/>
<path d="M53.7032 23.7037C53.7032 18.1556 57.9872 13.9745 65.1909 13.9745C68.116 13.9745 70.7915 14.5298 72.8512 15.1439C75.0914 15.8114 76.2381 18.3051 75.2825 20.4517C74.4491 22.3313 72.3044 23.2284 70.388 22.4969C69.1883 22.0377 67.8665 21.6799 66.6136 21.6799C65.2493 21.6799 64.1452 22.2673 64.1452 23.5755C64.1452 24.9479 66.0934 26.3202 69.0131 27.5591C74.1412 29.7164 77.1299 32.4557 77.1299 37.4858C77.1299 43.1034 73.106 48 65.4457 48C62.0058 48 58.9534 47.3272 56.5751 46.5743C54.3615 45.8694 53.2467 43.3917 54.2022 41.2664L54.2712 41.1063C55.1312 39.1893 57.3502 38.3242 59.2825 39.1252C60.6256 39.6805 62.1544 40.1611 63.4975 40.1611C65.313 40.1611 66.6136 39.4456 66.6136 38.0732C66.6136 36.4392 64.9892 35.0669 62.7862 34.2232C56.2991 31.6013 53.7032 28.6003 53.7032 23.7037Z" fill="#20A2A5"/>
<path d="M84.8591 14.8233L85.5545 10.5835C85.7987 9.08299 86.9347 7.88153 88.4105 7.55579L90.3694 7.12327C92.6733 6.61598 94.8551 8.38347 94.8551 10.7544V14.818H102.515L101.284 22.3899H94.8551V36.9517C94.8551 38.8473 95.8956 39.8245 97.8438 39.8245C98.3428 39.8245 98.8684 39.7818 99.378 39.723C101.209 39.4988 102.919 40.7002 103.375 42.4998C103.901 44.5663 102.59 46.6488 100.509 47.0653C99.0064 47.3697 97.1856 47.5993 95.0515 47.5993C88.5592 47.5993 84.6627 45.1857 84.6627 38.7192V22.3952H79.5346V14.8233H84.8591Z" fill="#20A2A5"/>
<path d="M135.556 46.302L132.424 47.2952C131.235 47.6743 129.95 47.183 129.297 46.1097C128.634 45.015 127.89 43.4184 127.514 41.3359C126.086 45.3835 123.293 47.733 118.622 47.733C110.117 47.733 106.094 41.2665 106.094 31.4732C106.094 21.4823 112.713 14.1027 122.385 14.1027C126.011 14.1027 130.545 14.957 133.162 15.5177C134.409 15.7847 135.301 16.8954 135.301 18.1823V31.6013C135.301 37.0213 136.289 40.5189 137.223 42.6068C137.881 44.0913 137.09 45.816 135.556 46.302ZM125.04 24.3979C125.04 22.9241 123.872 21.6852 122.401 21.6746C122.396 21.6746 122.385 21.6746 122.38 21.6746C118.16 21.6746 116.992 25.5246 116.992 30.8164C116.992 35.649 117.188 40.1558 120.305 40.1558C122.964 40.1558 125.045 35.2591 125.045 29.7751V24.3979H125.04Z" fill="#20A2A5"/>
<path d="M154.38 3.13446V47.3431H143.667V3.13446H154.38ZM181.969 47.3377H170.024L155.091 23.1108V22.3259C162.752 18.604 165.22 12.5326 167.296 3.12912H177.939C175.471 15.4695 171.447 20.4302 166.776 24.088L181.969 47.3377Z" fill="#67BE9F"/>
<path d="M215.593 45.25L207.349 47.8612C207.349 47.8612 205.013 45.6398 204.233 41.3306C202.805 45.3782 200.013 47.7277 195.341 47.7277C186.837 47.7277 182.813 41.2611 182.813 31.4679C182.813 21.477 189.433 14.0973 199.105 14.0973C204.493 14.0973 211.893 15.993 212.02 15.993V31.6013C212.02 41.9233 215.593 45.25 215.593 45.25ZM201.764 22.2032C201.18 21.9416 199.88 21.6799 199.105 21.6799C194.884 21.6799 193.717 25.5299 193.717 30.8217C193.717 35.6543 193.913 40.1611 197.029 40.1611C199.689 40.1611 201.77 35.2645 201.77 29.7805V22.2032H201.764Z" fill="#69BEA0"/>
<path d="M218.64 23.7037C218.64 18.1556 222.924 13.9745 230.128 13.9745C236.62 13.9745 241.876 16.7192 241.876 16.7192L238.638 24.0294C237.21 23.3085 234.226 21.6799 231.561 21.6799C230.197 21.6799 229.093 22.2673 229.093 23.5755C229.093 24.9479 231.041 26.3202 233.961 27.5591C239.089 29.7164 242.078 32.4557 242.078 37.4858C242.078 43.1034 238.054 48 230.393 48C224.421 48 219.617 45.9762 217.478 44.9937L220.854 37.4858C221.698 37.8756 225.525 40.1611 228.45 40.1611C230.266 40.1611 231.567 39.4456 231.567 38.0732C231.567 36.4392 229.942 35.0669 227.739 34.2232C221.236 31.6013 218.64 28.6003 218.64 23.7037Z" fill="#67BE9F"/>
<path d="M266.29 14.1025C273.043 14.1025 275.638 18.54 275.638 25.4657V47.3378H265.319V26.9662C265.319 23.8958 264.735 21.872 262.723 21.872C260.451 21.872 257.791 25.0065 257.791 30.1007V47.3378H247.535V1.76215L257.786 0V17.0448C260.058 15.021 263.105 14.1025 266.29 14.1025Z" fill="#67BE9F"/>
</svg>
